<svg xmlns="http://www.w3.org/2000/svg" viewBox="0 0 483 140.25"><defs><style>.cls-1{fill:#00703c;}.cls-2{fill:none;}</style></defs><title>acLogo</title><g id="Layer_2" data-name="Layer 2"><g id="Layer_1-2" data-name="Layer 1"><path class="cls-1" d="M294.11,59.75a16.11,16.11,0,0,1-2.75-9.11V50.5c0-8.55,6.26-15.53,15.3-15.53h.14c9,0,15.31,7,15.31,15.53v.14A17.51,17.51,0,0,1,320.58,58l-3.08-2.71-6.93,7.92c6.05,1,12.32,1.78,18.76,2.31h0A25.29,25.29,0,0,0,333.84,51v-.14c0-14.5-11.3-26.23-27-26.23S279.63,36.5,279.63,51v.15a27.69,27.69,0,0,0,.36,4.4C284.49,57.11,289.21,58.51,294.11,59.75Z"/><path class="cls-1" d="M372.27,65.44q5.28-.43,10.44-1.06a29.92,29.92,0,0,0,1.57-10.1V25.5H373.06V54.71c0,5.61-2,9.32-5.5,11.08C369.12,65.68,370.7,65.57,372.27,65.44Z"/><path class="cls-1" d="M403.37,61.07V25.5H392.15V63.08Q397.85,62.18,403.37,61.07Z"/><path class="cls-1" d="M423.26,56.2V44.08l7.47,9.81q5.41-1.78,10.54-3.77L422.53,25.5H412.18V59.13Q417.84,57.77,423.26,56.2Z"/><path class="cls-1" d="M357.7,66.25c-4.21-1.54-6.65-5.54-6.65-11.9V25.5H339.84V54.64a28,28,0,0,0,2.21,11.59C347.18,66.39,352.41,66.4,357.7,66.25Z"/><path class="cls-1" d="M412.18,64.18V76.5h11.08V62.21Q417.8,63.28,412.18,64.18Z"/><path class="cls-1" d="M392.15,66.87V76.5h11.22v-11C399.68,66,395.93,66.46,392.15,66.87Z"/><path class="cls-1" d="M380.44,68c-12.59,1-24.89,1.34-36.79,1.12,3.73,5.46,10,8.22,18.26,8.22,8.77,0,15.47-3.11,19.16-9.39Z"/><path class="cls-1" d="M304.49,66.16l-.26,0Q292.64,64.54,282,62.2c4.11,9,13.2,15.18,24.65,15.18a28.13,28.13,0,0,0,15.22-4.45l8.05,7.19L337.12,72l-3.9-3.25C323.28,68.28,313.67,67.4,304.49,66.16Z"/><path class="cls-1" d="M446.43,56.9h0q-5.54,1.47-11.27,2.8L448,76.5h9.54V53.73q-5.42,1.67-11.07,3.17Z"/><path class="cls-1" d="M446.43,25.5V48q5.74-2.41,11.07-5.08V25.5Z"/><path class="cls-1" d="M118.14,40.93q5.89-.36,11.71-.56a14.1,14.1,0,0,1,11-5.4c5.9,0,9.4,1.9,13.33,5.17l7.07-8.52c-5.32-4.52-10.86-7-20-7A26.22,26.22,0,0,0,116.36,41Z"/><path class="cls-1" d="M182.24,41.64A14.81,14.81,0,0,1,194.86,35a15.13,15.13,0,0,1,14.43,10.18q6.5,1.13,12.55,2.49c-1.54-13-12.28-23-26.84-23-11.79,0-21.17,6.67-25.13,16.11Q176.17,41.1,182.24,41.64Z"/><path class="cls-1" d="M93.78,43.07V25.5H82.56v19Q88.08,43.73,93.78,43.07Z"/><path class="cls-1" d="M262.22,56.9h0L238.32,25.5H228V49.11c3.86,1,7.56,2,11.07,3.15V44.08l24.7,32.42h9.54V60.1c-3.81-1-7.51-2.06-11.07-3.2Z"/><path class="cls-1" d="M228,76.5h11.07v-15c-3.51-1.71-7.21-3.31-11.07-4.81Z"/><path class="cls-1" d="M262.22,25.5V48c3.49,1.79,7.19,3.46,11.07,5V25.5Z"/><path class="cls-1" d="M210.3,50.94v.21C210.3,59.89,204,67,195,67s-15.44-7.29-15.44-16v-.14a17.09,17.09,0,0,1,1-5.77c-3.84-.5-7.76-.92-11.73-1.25a26.45,26.45,0,0,0-1,7.16v.15c0,14.49,11.29,26.23,27,26.23,14.46,0,25.29-10,26.95-22.92Q216.26,52.55,210.3,50.94Z"/><path class="cls-1" d="M140.9,56.83h11.3v7.28a17.85,17.85,0,0,1-10.57,3.07c-9,0-15.44-6.85-15.44-16.18v-.14a16.89,16.89,0,0,1,1.72-7.48q-3.16.18-6.36.43c-2.1.17-4.2.36-6.28.57a27.22,27.22,0,0,0-.81,6.62v.15c0,15.08,10.92,26.23,26.81,26.23a33.14,33.14,0,0,0,21.78-8.09V47.14H140.9Z"/><path class="cls-1" d="M93.78,47.32q-5.7,1-11.22,2.19v27h31.86V66H93.78Z"/><path class="cls-1" d="M29.32,67.52l-3.82,9H36.94L41.25,66H63.52L67.83,76.5H79.56L69.43,52.7A225.19,225.19,0,0,0,29.32,67.52Z"/><path class="cls-1" d="M47.24,51.18l5.15-12.57,4.27,10.45Q61.75,48,67,47L57.7,25.14H47.36L34.9,54.41Q40.89,52.72,47.24,51.18Z"/><path class="cls-1" d="M254.87,100v-.08a15.06,15.06,0,0,1,15.34-15.39,15.48,15.48,0,0,1,11.65,4.64L278.5,93c-2.38-2.21-4.93-3.7-8.33-3.7-5.7,0-9.82,4.68-9.82,10.5v.09c0,5.82,4.12,10.58,9.82,10.58,3.65,0,6-1.49,8.54-3.87l3.36,3.4A15.36,15.36,0,0,1,270,115.26,15,15,0,0,1,254.87,100Z"/><path class="cls-1" d="M284.82,100v-.08a15.56,15.56,0,0,1,31.11-.09v.09a15.56,15.56,0,0,1-31.11.08Zm25.62,0v-.08c0-5.78-4.21-10.59-10.11-10.59s-10,4.72-10,10.5v.09c0,5.78,4.2,10.58,10.11,10.58S310.44,105.74,310.44,100Z"/><path class="cls-1" d="M321.32,85h5.22v25h15.64v4.76H321.32Z"/><path class="cls-1" d="M347.59,85h5.23v25h15.64v4.76H347.59Z"/><path class="cls-1" d="M373.87,85h22.06v4.68H379.1v7.73H394v4.68H379.1v8h17v4.67H373.87Z"/><path class="cls-1" d="M400.63,100v-.08A15.16,15.16,0,0,1,416,84.49a16.06,16.06,0,0,1,11.43,4l-3.31,4a11.69,11.69,0,0,0-8.33-3.19c-5.49,0-9.65,4.81-9.65,10.5v.09c0,6.12,4,10.62,10.12,10.62a12.15,12.15,0,0,0,7.18-2.25v-5.57H415.8V98.13h12.66v12.5a19,19,0,0,1-12.41,4.63C406.75,115.26,400.63,108.63,400.63,100Z"/><path class="cls-1" d="M435.23,85h22.06v4.68H440.46v7.73h14.92v4.68H440.46v8h17v4.67H435.23Z"/><rect class="cls-2" width="483" height="140.25"/></g></g></svg>