<svg xmlns="http://www.w3.org/2000/svg" viewBox="0 0 127.44 151.65"><defs><style>.cls-1{fill:#fff;}.cls-2{fill:#afd0d8;}</style></defs><title>beeLine</title><g id="Layer_2" data-name="Layer 2"><g id="Layer_1-2" data-name="Layer 1"><path class="cls-1" d="M97.91,96.83c.18-3,1.74-5.53,2.31-8.39.27-1.35,1.28-.48,2-.44s1.19.42,1,1.31A50.89,50.89,0,0,1,101,96.05c-.27.65-.57,1-1.32.68-.34-.13-1-.83-1.12.22Z"/><path class="cls-1" d="M56.34,86.9c.93-1,1.31-.31,1.72,0s1.47.75.8,1.69a15.36,15.36,0,0,0-2.6,6c-.21,1.08-1.36.36-2.07.46s-.95-.23-.88-.91A14.17,14.17,0,0,1,56.34,86.9Z"/><path class="cls-1" d="M124.82,151.65c-1-2.15-1.81-4-2.59-5.78-.36-.83-.9-1.6.62-2.18,1.35-.51,1.76-.22,2.23,1,.7,1.78,1.56,3.5,2.36,5.24"/><path class="cls-1" d="M115.81,127.41c1.11-.75,1.88-.51,2.39.87.63,1.73,1.33,3.43,2.12,5.09.54,1.14.55,1.71-.82,2.27s-1.61,0-2-1c-.72-1.85-1.57-3.64-2.34-5.47C114.84,128.4,114.62,127.67,115.81,127.41Z"/><path class="cls-1" d="M83.23,86.08c.57-.35,1,.06,1.39.32,1.82,1.14,3.58,2.36,5.44,3.43,1.18.68.77,1.25.21,2.08s-1.11,1.13-2.1.39c-1.53-1.14-3.22-2.09-4.85-3.11A1.81,1.81,0,0,1,83.23,86.08Z"/><path class="cls-1" d="M72.4,111.85c.23-.09.38-.21.5-.19a50.12,50.12,0,0,0,7.44.83c1,.07.48,1.36.64,2.1s-.37.83-.93.85a25.53,25.53,0,0,1-7.44-.77c-.39-.1-1-.1-.79-.78S72.22,112.49,72.4,111.85Z"/><path class="cls-1" d="M68.55,30.88c.53-.47,1,0,1.41.17,1.91.94,3.8,1.95,5.72,2.88.93.45,1.13.94.54,1.87s-.92,1.56-2.18.79c-1.62-1-3.39-1.77-5.1-2.63A1.8,1.8,0,0,1,68.55,30.88Z"/><path class="cls-1" d="M90.42,45.1c.78.88.16,1.33-.45,1.84s-1.1,1.2-2,.28c-1.5-1.53-3.06-3-4.69-4.4-1-.85-.36-1.35.13-2s.88-1.25,1.74-.46C86.89,42,88.66,43.52,90.42,45.1Z"/><path class="cls-1" d="M98.2,55.72c.66,1.32,1.28,2.66,2,3.94.57,1,.63,1.69-.63,2.23s-1.72.25-2.2-.87a34.88,34.88,0,0,0-2.3-4.52c-.74-1.18-1-1.92.47-2.76,1.68-1,1.57.62,2.13,1.27a5.19,5.19,0,0,1,.46.75Z"/><path class="cls-1" d="M111,113.39a40.67,40.67,0,0,0,2,3.7c.76,1.16.53,1.73-.67,2.34s-1.61,0-2.08-1a37.6,37.6,0,0,0-2.76-5c-.92-1.36.17-1.56.87-2.12.93-.72,1.41-.36,1.81.57.23.53.54,1,.82,1.56Z"/><path class="cls-1" d="M51.75,24.69c.53-.4,1-.17,1.35,0,2,.68,4,1.46,6.09,2,1.32.38,1.05,1,.75,2s-.73,1.4-1.88.93c-1.84-.75-3.77-1.27-5.64-1.95-.48-.17-1.36-.05-1.25-.92A13.74,13.74,0,0,1,51.75,24.69Z"/><path class="cls-1" d="M57.6,103.24c.66-.68,1.24-.68,2,.29a14.29,14.29,0,0,0,4,3.7c1.4.82.81,1.54.25,2.47-.76,1.26-1.41.5-2.12,0a26.48,26.48,0,0,1-4.54-4.18C56.19,104.33,56.22,104.23,57.6,103.24Z"/><path class="cls-1" d="M97.91,96.83l.63.12c2.06,1.47,3.42,3.61,5.1,5.44.64.7.36,1.23-.34,1.56s-1,1.48-2,.41c-1.5-1.71-3.08-3.35-4.54-5.1C95.56,97.79,97.31,97.54,97.91,96.83Z"/><path class="cls-1" d="M90.8,111.52c-.36.34-.92.66-1.39-.24-.36-.69-1.47-1.27-.38-2.23a24.07,24.07,0,0,0,4.07-4.92c.68-1,1.23-.34,1.81,0s1.48.71.78,1.66A26.42,26.42,0,0,1,90.8,111.52Z"/><path class="cls-1" d="M103.94,79.24a1.94,1.94,0,0,1-2.62-1.54,56.9,56.9,0,0,0-.57-5.71c-.28-1.45.5-1.52,1.5-1.79,1.35-.37,1.5.42,1.58,1.37.2,2.12.39,4.25.54,6.38C104.4,78.35,104.58,78.85,103.94,79.24Z"/><path class="cls-1" d="M65.83,81.27c.45,0,.89-.11,1.33-.14a19.79,19.79,0,0,1,5.94.56c.81.19,2.08,0,1.59,1.65-.36,1.21-.68,1.91-2.19,1.41A13.38,13.38,0,0,0,67,84.23c-.73.07-1.2-.11-1.22-.86S65.25,82,65.83,81.27Z"/><path class="cls-2" d="M17.43,19l2.2,2.6c.93,1.2,1.86,2.4,2.75,3.63a2.63,2.63,0,0,0,.35.52l1,1.51c.8,1.31,1.57,2.63,2.25,4,.4.92.82,1.84,1.14,2.8.09.3.2.6.3.9.16.75.34,1.51.44,2.28a9.71,9.71,0,0,1-.06,2.22,4.09,4.09,0,0,1-1.41,2.68l-.61.32a4.11,4.11,0,0,1-3.23-.66c-.41-.23-.75-.54-1.14-.79a3.34,3.34,0,0,0-.48-.44,23.06,23.06,0,0,1-5-7.94,32.7,32.7,0,0,1-1.14-3.19c0-.08-.07-.15-.1-.23s-.11-.39-.17-.58c-.36-1.17-.64-2.35-1-3.52l-.38-1.8-.13-.9a7.09,7.09,0,0,1-1.39.51A6.92,6.92,0,0,1,9,22.8,8.3,8.3,0,0,1,7.14,22l-.48-.42a5.85,5.85,0,0,1-1.12-1.31s-.06-.24-.19-.1A16.58,16.58,0,0,0,4,21.45a2.76,2.76,0,0,0-.41,1.92c0,.46.09.93.11,1.39a1,1,0,0,1-.88,1.18L2.69,26H2.56a2.33,2.33,0,0,1-1.45-.18A2.19,2.19,0,0,1,0,24a5.9,5.9,0,0,1,.75-3.26.5.5,0,0,0,0-.13s0,0,.06-.06a10.69,10.69,0,0,1,3.47-3.73c.25-.18.45-.32.42-.65A3.9,3.9,0,0,1,5,15.45c.06-.11,0-.18-.07-.26a11.19,11.19,0,0,1-1.6-3.84c-.06-.32-.1-.64-.16-1A8,8,0,0,1,3.3,7.77,3.28,3.28,0,0,1,4.94,5.51,2.35,2.35,0,0,1,7,5.9H7A.69.69,0,0,0,7.15,6a1.08,1.08,0,0,1,.33,1.44c-.26.55-.63,1-.87,1.6a2.35,2.35,0,0,0-.07,2.07l.54,1.34a6.84,6.84,0,0,1,1.65-.86,6.71,6.71,0,0,1,1.94-.25l.75.06A6.09,6.09,0,0,1,14,12.49a7.54,7.54,0,0,1,1.11,1.08c.14-.21.27-.4.41-.59l1.71-2.3L19,8.53a5.93,5.93,0,0,0,.43-.44c.63-.73,1.31-1.42,2-2.1s1.36-1.23,2-1.84h0L23.69,4a23.08,23.08,0,0,1,4.08-2.7A10.81,10.81,0,0,1,32.17,0a3.75,3.75,0,0,1,2.6.76,5.16,5.16,0,0,1,.49.64,4.33,4.33,0,0,1,.08,3.13,9.29,9.29,0,0,1-.89,2,20.64,20.64,0,0,1-1.4,1.93l-.78.83c-.54.57-1.14,1.08-1.72,1.63-.93.73-1.85,1.48-2.83,2.14l-1,.72L24.62,15c-1.37.79-2.77,1.53-4.17,2.26-1.07.48-2.1,1-3.18,1.48A.26.26,0,0,0,17.43,19Z"/><path class="cls-2" d="M34.42,17.09l-1,4.72,0,.16-.06.28-1.1,5.11-.43,2v.05c0,.28-.17.32-.41.34-.56.06-1.1.19-1.66.22a3.23,3.23,0,0,1-1.2-.12,6.19,6.19,0,0,1-1.93-1.74,20.54,20.54,0,0,1-1.49-2.34l-.65-1.23-.74-1.41a21,21,0,0,0-2.21-3.39c.41-.31.89-.5,1.32-.78a31.73,31.73,0,0,0,3.35-2.43l1.17-.9c.6-.4,1.16-.84,1.78-1.2a8.37,8.37,0,0,1,2.24-1,3.29,3.29,0,0,1,.83-.08,3.33,3.33,0,0,1,.92.31c.58.28,1.08.69,1.64,1a.25.25,0,0,1,.14.33C34.71,15.7,34.57,16.39,34.42,17.09Z"/><path class="cls-2" d="M34.72,27.9c.21-.95.43-1.91.63-2.86.16-.75.32-1.5.47-2.25.09-.38.18-.76.26-1.14.29-1.32.56-2.64.85-4,.09-.41.19-.83.28-1.25,0-.15.06-.2.21-.1A34.63,34.63,0,0,1,43,20.74a5.28,5.28,0,0,1,1.53,2.63,4.5,4.5,0,0,1,0,1,3.43,3.43,0,0,1-1.75,2.53,12.32,12.32,0,0,1-1.65.76c-.53.22-1.08.42-1.62.62a10.47,10.47,0,0,0-1.21.36.43.43,0,0,0-.25,0l-3.42.68c-.2,0-.26,0-.21-.21C34.57,28.71,34.64,28.31,34.72,27.9Z"/></g></g></svg>