<?xml version="1.0" encoding="utf-8"?>
<!-- Generator: Adobe Illustrator 23.0.6, SVG Export Plug-In . SVG Version: 6.00 Build 0)  -->
<svg version="1.1" id="Layer_1" xmlns="http://www.w3.org/2000/svg" xmlns:xlink="http://www.w3.org/1999/xlink" x="0px" y="0px"
	 viewBox="0 0 34.8 32.1" style="enable-background:new 0 0 34.8 32.1;" xml:space="preserve">
<style type="text/css">
	.st0{fill:#2F3443;}
	.st1{fill:#FFFFFF;}
</style>
<title>beeRightDark</title>
<g>
	<g id="Layer_1-2">
		<path class="st0" d="M20.5,16.1l-2-1.6c-0.8-0.7-1.7-1.5-2.5-2.3c-0.1-0.1-0.2-0.2-0.3-0.3l-1-1c-0.8-0.8-1.5-1.7-2.2-2.6
			c-0.4-0.6-0.9-1.2-1.2-1.9L11,5.9c-0.2-0.5-0.5-1-0.6-1.6c-0.1-0.5-0.2-1.1-0.3-1.6c-0.1-0.8,0.2-1.5,0.7-2.2l0.4-0.3
			c0.8-0.3,1.7-0.3,2.4,0c0.3,0.1,0.6,0.3,0.9,0.4c0.1,0.1,0.3,0.2,0.4,0.3C16.8,2.3,18.5,4,19.7,6c0.5,0.7,0.9,1.4,1.3,2.2l0.1,0.1
			l0.2,0.4c0.4,0.8,0.8,1.6,1.2,2.4l0.5,1.3l0.2,0.6c0.3-0.2,0.6-0.4,1-0.6c0.6-0.2,1.3-0.3,2-0.3c0.5,0.1,1,0.2,1.5,0.4l0.4,0.2
			c0.4,0.2,0.7,0.5,1,0.8c0,0,0.1,0.2,0.1,0c0.2-0.4,0.6-0.7,0.8-1.2c0.2-0.5,0.2-1,0-1.4c-0.1-0.3-0.2-0.7-0.3-1
			c-0.1-0.4,0.1-0.8,0.5-1c0,0,0,0,0,0l0.1-0.1h0h0c0.3-0.1,0.7-0.2,1.1-0.1c0.5,0.2,0.9,0.7,1,1.2c0.2,0.8,0.2,1.7-0.1,2.5
			c0,0,0,0.1,0,0.1l0,0c-0.4,1.2-1.1,2.3-2,3.2c-0.2,0.2-0.3,0.3-0.2,0.5c0,0.2,0,0.4,0,0.5c0,0.1,0,0.1,0.1,0.2
			c0.7,0.7,1.3,1.6,1.7,2.6c0.1,0.2,0.2,0.5,0.2,0.7c0.2,0.6,0.3,1.3,0.2,1.9c0,0.7-0.3,1.4-0.9,1.9c-0.5,0.2-1.1,0.2-1.6,0l0,0
			L29.8,24c-0.4-0.2-0.6-0.6-0.4-1c0.1-0.4,0.3-0.9,0.4-1.3c0.2-0.5,0.1-1.1-0.2-1.5L29,19.3c-0.3,0.3-0.7,0.6-1.1,0.9
			c-0.4,0.2-0.9,0.4-1.4,0.5L26,20.7c-0.7,0-1.4-0.1-2-0.4c-0.4-0.2-0.7-0.4-1-0.6l-0.2,0.5L21.8,22l-1,1.8
			c-0.1,0.1-0.2,0.2-0.3,0.4c-0.4,0.6-0.8,1.2-1.2,1.8s-0.8,1.1-1.2,1.6l0,0L18,27.9c-0.8,0.9-1.6,1.8-2.6,2.5
			c-0.9,0.7-1.9,1.2-3,1.5c-0.7,0.2-1.4,0.1-2-0.2c-0.1-0.1-0.3-0.3-0.4-0.4c-0.4-0.7-0.6-1.5-0.5-2.3c0.1-0.5,0.2-1.1,0.4-1.6
			c0.2-0.5,0.5-1.1,0.7-1.6l0.4-0.7c0.3-0.5,0.7-1,1-1.4c0.6-0.7,1.1-1.3,1.8-2l0.7-0.7l1.3-1.2c0.9-0.8,1.8-1.5,2.7-2.2
			c0.7-0.5,1.4-1,2.1-1.5C20.6,16.2,20.6,16.2,20.5,16.1z"/>
		<path class="st0" d="M8.4,19.9l0.1-3.6V16l0.1-3.9v-1.5l0,0c0-0.2,0.1-0.3,0.3-0.3C9.2,10.2,9.6,10,10,9.9
			c0.3-0.1,0.6-0.1,0.9-0.1c0.6,0.2,1.2,0.6,1.6,1c0.5,0.4,1,0.9,1.5,1.4l0.6,0.8c0.3,0.3,0.5,0.6,0.7,0.9c0.6,0.8,1.3,1.5,2.1,2.2
			c-0.3,0.3-0.6,0.5-0.9,0.8c-0.7,0.7-1.4,1.4-2.1,2.2L13.8,20c-0.4,0.4-0.7,0.8-1.1,1.1c-0.4,0.4-0.9,0.7-1.5,1
			c-0.2,0.1-0.4,0.1-0.6,0.2c-0.2,0-0.5,0-0.7-0.1C9.4,22,9,21.8,8.5,21.7c-0.1,0-0.2-0.1-0.1-0.2C8.4,20.9,8.4,20.4,8.4,19.9z"/>
		<path class="st0" d="M6.7,12l-0.1,2.2v1.7v0.9l-0.1,3c0,0.3,0,0.6,0,1c0,0.1,0,0.1-0.1,0.1c-1.6-0.6-3.2-1.4-4.7-2.4
			c-0.6-0.4-1.2-1-1.5-1.7C0.1,16.5,0.1,16.2,0,16c0-0.8,0.3-1.6,0.9-2.1c0.3-0.3,0.7-0.6,1.1-0.8c0.3-0.2,0.7-0.4,1.1-0.7
			c0.3-0.1,0.6-0.3,0.8-0.5c0.1,0,0.1,0,0.2,0l2.4-1c0.1-0.1,0.2,0,0.2,0.1S6.7,11.7,6.7,12z"/>
	</g>
</g>
<g>
	<g id="Layer_1-2_1_">
		<path class="st1" d="M21.6,16.1l-2-1.6c-0.8-0.7-1.7-1.5-2.5-2.3c-0.1-0.1-0.2-0.2-0.3-0.3l-1-1c-0.8-0.8-1.5-1.7-2.2-2.6
			c-0.4-0.6-0.9-1.2-1.2-1.9l-0.3-0.6c-0.2-0.5-0.5-1-0.6-1.6c-0.1-0.5-0.2-1.1-0.3-1.6c-0.1-0.8,0.2-1.5,0.7-2.2l0.4-0.3
			c0.8-0.3,1.7-0.3,2.4,0c0.3,0.1,0.6,0.3,0.9,0.4c0.1,0.1,0.3,0.2,0.4,0.3C18,2.3,19.6,4,20.8,6c0.5,0.7,0.9,1.4,1.3,2.2l0.1,0.1
			l0.2,0.4c0.4,0.8,0.8,1.6,1.2,2.4l0.5,1.3l0.2,0.6c0.3-0.2,0.6-0.4,1-0.6c0.6-0.2,1.3-0.3,2-0.3c0.5,0.1,1,0.2,1.5,0.4l0.4,0.2
			c0.4,0.2,0.7,0.5,1,0.8c0,0,0.1,0.2,0.1,0c0.2-0.4,0.6-0.7,0.8-1.2c0.2-0.5,0.2-1,0-1.4c-0.1-0.3-0.2-0.7-0.3-1
			c-0.1-0.4,0.1-0.8,0.5-1c0,0,0,0,0,0l0.1-0.1h0h0c0.3-0.1,0.7-0.2,1.1-0.1c0.5,0.2,0.9,0.7,1,1.2c0.2,0.8,0.2,1.7-0.1,2.5
			c0,0,0,0.1,0,0.1l0,0c-0.4,1.2-1.1,2.3-2,3.2c-0.2,0.2-0.3,0.3-0.2,0.5c0,0.2,0,0.4,0,0.5c0,0.1,0,0.1,0.1,0.2
			c0.7,0.7,1.3,1.6,1.7,2.6c0.1,0.2,0.2,0.5,0.2,0.7c0.2,0.6,0.3,1.3,0.2,1.9c0,0.7-0.3,1.4-0.9,1.9c-0.5,0.2-1.1,0.2-1.6,0l0,0
			L30.9,24c-0.4-0.2-0.6-0.6-0.4-1c0.1-0.4,0.3-0.9,0.4-1.3c0.2-0.5,0.1-1.1-0.2-1.5l-0.6-0.9c-0.3,0.3-0.7,0.6-1.1,0.9
			c-0.4,0.2-0.9,0.4-1.4,0.5l-0.5,0.1c-0.7,0-1.4-0.1-2-0.4c-0.4-0.2-0.7-0.4-1-0.6l-0.2,0.5L22.9,22l-1,1.8
			c-0.1,0.1-0.2,0.2-0.3,0.4c-0.4,0.6-0.8,1.2-1.2,1.8s-0.8,1.1-1.2,1.6l0,0l-0.2,0.2c-0.8,0.9-1.6,1.8-2.6,2.5
			c-0.9,0.7-1.9,1.2-3,1.5c-0.7,0.2-1.4,0.1-2-0.2c-0.1-0.1-0.3-0.3-0.4-0.4c-0.4-0.7-0.6-1.5-0.5-2.3c0.1-0.5,0.2-1.1,0.4-1.6
			c0.2-0.5,0.5-1.1,0.7-1.6l0.4-0.7c0.3-0.5,0.7-1,1-1.4c0.6-0.7,1.1-1.3,1.8-2l0.7-0.7l1.3-1.2c0.9-0.8,1.8-1.5,2.7-2.2
			c0.7-0.5,1.4-1,2.1-1.5C21.7,16.2,21.7,16.2,21.6,16.1z"/>
		<path class="st1" d="M9.5,19.9l0.1-3.6V16l0.1-3.9v-1.5l0,0c0-0.2,0.1-0.3,0.3-0.3c0.4-0.1,0.8-0.3,1.2-0.4
			c0.3-0.1,0.6-0.1,0.9-0.1c0.6,0.2,1.2,0.6,1.6,1c0.5,0.4,1,0.9,1.5,1.4l0.6,0.8c0.3,0.3,0.5,0.6,0.7,0.9c0.6,0.8,1.3,1.5,2.1,2.2
			c-0.3,0.3-0.6,0.5-0.9,0.8c-0.7,0.7-1.4,1.4-2.1,2.2L14.9,20c-0.4,0.4-0.7,0.8-1.1,1.1c-0.4,0.4-0.9,0.7-1.5,1
			c-0.2,0.1-0.4,0.1-0.6,0.2c-0.2,0-0.5,0-0.7-0.1c-0.5-0.1-0.9-0.4-1.3-0.5c-0.1,0-0.2-0.1-0.1-0.2C9.5,20.9,9.5,20.4,9.5,19.9z"/>
		<path class="st1" d="M7.8,12l-0.1,2.2v1.7v0.9l-0.1,3c0,0.3,0,0.6,0,1c0,0.1,0,0.1-0.1,0.1c-1.6-0.6-3.2-1.4-4.7-2.4
			c-0.6-0.4-1.2-1-1.5-1.7c-0.1-0.2-0.2-0.5-0.3-0.7c0-0.8,0.3-1.6,0.9-2.1c0.3-0.3,0.7-0.6,1.1-0.8c0.3-0.2,0.7-0.4,1.1-0.7
			c0.3-0.1,0.6-0.3,0.8-0.5c0.1,0,0.1,0,0.2,0l2.4-1c0.1-0.1,0.2,0,0.2,0.1S7.8,11.7,7.8,12z"/>
	</g>
</g>
</svg>
