<svg xmlns="http://www.w3.org/2000/svg" viewBox="0 0 32.61 32.08"><defs><style>.cls-1{fill:#2f3443;}</style></defs><title>beeRightDark</title><g id="Layer_2" data-name="Layer 2"><g id="Layer_1-2" data-name="Layer 1"><path class="cls-1" d="M20.5,16.14l-2-1.58c-.84-.74-1.68-1.49-2.51-2.26a3.31,3.31,0,0,0-.32-.33l-1-1c-.77-.84-1.51-1.7-2.2-2.6-.42-.62-.85-1.22-1.21-1.88L11,5.93c-.22-.53-.46-1-.64-1.6a8.06,8.06,0,0,1-.27-1.62A3.13,3.13,0,0,1,10.75.56l.4-.31a3,3,0,0,1,2.44,0c.33.12.62.29.94.42a1.73,1.73,0,0,0,.41.25A17.31,17.31,0,0,1,19.68,6,22.21,22.21,0,0,1,21,8.19l.11.15.2.4c.42.8.79,1.62,1.18,2.43L23,12.42l.22.64a6.29,6.29,0,0,1,.95-.57,5.15,5.15,0,0,1,2-.32,6.14,6.14,0,0,1,1.46.37l.41.23a4.51,4.51,0,0,1,1,.8s.07.16.15,0c.24-.4.57-.74.77-1.16a2,2,0,0,0,0-1.45c-.08-.34-.19-.66-.27-1a.77.77,0,0,1,.48-1l.1-.06h.05l.05,0a1.74,1.74,0,0,1,1.08-.07,1.62,1.62,0,0,1,1,1.2,4.42,4.42,0,0,1-.09,2.47s0,.07,0,.11l0,0a8,8,0,0,1-2,3.2c-.16.16-.28.29-.21.52a4.93,4.93,0,0,1-.05.54c0,.09,0,.12.09.17a8.39,8.39,0,0,1,1.7,2.58c.09.22.16.45.24.68a5.42,5.42,0,0,1,.24,1.92,2.45,2.45,0,0,1-.88,1.87,1.74,1.74,0,0,1-1.57,0h0l-.1-.06a.79.79,0,0,1-.44-1c.1-.44.3-.85.4-1.28a1.74,1.74,0,0,0-.24-1.53l-.57-.89a5.3,5.3,0,0,1-1.09.86,5.37,5.37,0,0,1-1.37.45l-.55.06a4.67,4.67,0,0,1-2-.44,5.87,5.87,0,0,1-1-.63l-.21.49-.93,1.91-1,1.82c-.08.12-.18.24-.25.37-.35.63-.76,1.22-1.16,1.81s-.82,1.09-1.22,1.63h0L18,27.9a16.88,16.88,0,0,1-2.6,2.54,7.88,7.88,0,0,1-3,1.54,2.73,2.73,0,0,1-2-.19A4.09,4.09,0,0,1,10,31.4a3.25,3.25,0,0,1-.5-2.27,7.79,7.79,0,0,1,.37-1.57A15.45,15.45,0,0,1,10.61,26l.45-.71c.31-.5.68-1,1-1.43.57-.66,1.14-1.33,1.76-2l.66-.66L15.82,20c.89-.76,1.8-1.5,2.72-2.23.71-.5,1.38-1,2.11-1.51C20.62,16.19,20.56,16.17,20.5,16.14Z"/><path class="cls-1" d="M8.41,19.87l.08-3.58V16l.09-3.88,0-1.49v0c0-.21.08-.26.25-.31.39-.12.77-.29,1.18-.39a2.61,2.61,0,0,1,.88-.08,4.57,4.57,0,0,1,1.65,1A14.3,14.3,0,0,1,14,12.27l.64.8c.25.3.49.62.74.92a15.18,15.18,0,0,0,2.08,2.16c-.26.28-.58.49-.85.75a24.53,24.53,0,0,0-2.1,2.23l-.72.82c-.39.37-.74.78-1.14,1.13a6.27,6.27,0,0,1-1.49,1,2.51,2.51,0,0,1-.59.18,2.5,2.5,0,0,1-.72-.1c-.46-.12-.88-.35-1.33-.5a.19.19,0,0,1-.15-.22C8.39,20.92,8.4,20.39,8.41,19.87Z"/><path class="cls-1" d="M6.68,12l-.06,2.17,0,1.7,0,.87-.06,3c0,.32,0,.64,0,1,0,.11,0,.15-.14.09a24.78,24.78,0,0,1-4.69-2.42,3.94,3.94,0,0,1-1.48-1.7A3.47,3.47,0,0,1,0,16a2.55,2.55,0,0,1,.93-2.08A7.7,7.7,0,0,1,2,13.14c.35-.24.72-.45,1.09-.68A6.52,6.52,0,0,0,3.94,12c.07,0,.12,0,.18,0l2.39-1c.14-.06.19,0,.18.13S6.68,11.74,6.68,12Z"/></g></g></svg>