<svg width="400" height="100" viewBox="0 0 400 100" xmlns="http://www.w3.org/2000/svg"><title>cu-logo-black</title><g fill="none"><path d="M8.922 74.783a45.687 45.687 0 0 0 2.263 3.29C18.043 86.966 26.807 93.14 36.64 97.23c1.008.43 2.417.78 3.408 1.142.97-.353 2.326-.696 3.328-1.113l.665-.222c.632-.294 1.212-.59 1.82-.887a66.063 66.063 0 0 0 9.047-5.04c.11-.075.215-.15.326-.228a63.56 63.56 0 0 0 2.363-1.66c4.228-3.118 7.878-6.687 11.32-11.146a47.275 47.275 0 0 0 2.604-3.872l.795-1.35c.046-.08.08-.165.124-.24a42.454 42.454 0 0 0 1.46-2.938c.26-.574.517-1.15.748-1.737 2.232-5.537 3.328-11.52 3.276-17.833 0 0-.028-33.293-.14-45.01-.732-.21-1.512-.398-2.273-.594-1.258-.37-2.91-.748-4.8-1.122C62.962 1.758 54.35.738 46.46.28l-.043-.008s-4.184-.296-7.79-.255L38.634 0C27.157-.05 13.057 2.004 2.315 5.09c-.113 11.72-.14 45.012-.14 45.012C2.106 58.33 3.97 65.992 7.78 72.85c.003.002.577 1.054 1.142 1.933z" fill="#FFF"/><path d="M154.898 21.263h-2.476c-.32-12.14-5.202-17.75-16.51-17.75-16.264 0-18.495 14.117-18.495 27.902 0 11.64 1.322 27.99 17.09 27.99 11.473 0 17.517-7.898 17.83-19.65h2.476V56.1c-7.428 4.046-13.87 5.863-20.556 5.863-17.916 0-27.74-12.798-27.74-30.548 0-17.585 10.98-30.463 28.896-30.463 6.522 0 13.454 1.98 19.483 4.787v15.523h.002zm18.737 15.85c3.385-.824 5.943-1.57 9.082-2.643v-3.468c0-5.695-.993-9.41-6.44-9.41-4.125 0-6.65 1.236-6.65 6.686 0 3.22-1.236 4.724-4.127 4.724-2.143 0-4.083-1.01-4.083-3.487 0-7.924 8.01-9.99 14.61-9.99 12.636 0 15.11 5.203 15.11 12.055v20.97c0 6.276 1.898 6.36 6.522 6.36v2.06h-6.275c-4.624 0-7.844-.41-9.165-5.363-3.218 4.95-7.266 6.356-12.713 6.356-8.585 0-11.31-4.46-11.31-11.974 0-6.85 3.546-10.073 10.483-11.723l4.955-1.154zm.495 2.228c-4.952 1.488-6.52 3.303-6.52 10.57 0 5.036.907 9.494 5.364 9.494 7.183 0 9.74-9.082 9.74-14.697V36.78l-8.584 2.56z" fill="#000"/><path d="M203.51 22.583h-7.1V20.52h15.52v9.493h.166c1.732-4.79 5.282-10.485 11.556-10.485 4.87 0 7.515 3.135 7.515 7.926 0 3.305-1.32 5.53-4.293 5.53-2.228 0-4.126-1.65-4.126-4.208 0-1.156.41-3.14.41-4.21 0-1.157-.828-2.066-2.067-2.066-4.292 0-9.162 9.41-9.162 18.328v18.085h6.857v2.06h-22.26v-2.06h6.982v-36.33h.004z" fill="#000"/><path fill="#000" d="M228.74 1.946h15.52v56.967h7.1v2.06h-22.617v-2.06h7.096V4.01h-7.097V1.945"/><path d="M258.852 38.187v.66c0 11.557 1.568 20.56 12.215 20.56 7.51 0 11.31-4.624 13.46-10.57l1.812.66c-3.55 9.58-9.164 12.47-18.247 12.47-12.384 0-18.656-9.578-18.656-21.22 0-11.143 7.18-21.217 19.235-21.217 10.567 0 17.748 7.594 17.748 18.66h-27.568v-.003zm17.663-2.56c0-5.944-.33-14.034-8.745-14.034-7.105 0-8.918 8.916-8.918 14.033h17.663zm10.009-15.107h5.698V9.54h8.42v10.98h9.162v2.063h-9.163v28.73c0 4.874.99 7.183 4.375 7.183 3.137 0 4.463-2.31 5.778-4.955l1.898.83-.738 1.487c-1.652 2.97-4.463 5.613-10.402 5.613-8.59 0-9.328-4.87-9.328-10.155V22.583h-5.698V20.52z" fill="#000"/><path d="M331.028 19.528c14.692 0 19.235 12.88 19.235 21.218 0 8.34-4.543 21.22-19.235 21.22-14.7 0-19.24-12.88-19.24-21.22 0-8.34 4.542-21.218 19.24-21.218zm0 40.374c9.74 0 9.822-10.49 9.822-19.156 0-8.668-.08-19.153-9.822-19.153-9.743 0-9.826 10.483-9.826 19.153 0 8.67.083 19.156 9.826 19.156z" fill="#000"/><path d="M357.298 58.913v-36.33h-7.096V20.52h15.52v7.758h.165c2.556-5.615 7.51-8.75 14.283-8.75 8.09 0 12.13 3.387 12.13 11.642v27.743h6.526v2.06H377.36v-2.06h6.52v-27.33c0-4.542-.823-9.083-6.602-9.083-7.68 0-11.556 7.265-11.556 14.94v21.473h6.52v2.06h-22.04v-2.06h7.096zm-226.5 31.113c0 4.276-2.872 7.448-8.387 7.448-5.545 0-8.414-3.172-8.414-7.448V78.898h4.39v10.976c0 2.224 1.69 3.915 4.025 3.915 2.307 0 3.997-1.69 3.997-3.916V78.898h4.39v11.128zm16.715-11.128h5.965l8.472 12.59h.057v-12.59h4.39V97.01h-5.74l-8.698-12.895h-.056V97.01h-4.39V78.9m35.687-.002h4.387V97.01H183.2m18.94-18.112h5.006l4.926 11.872h.054l5.01-11.872h4.705l-8.218 18.113h-3.52m24.814-18.113h13.542v3.685h-9.147v3.376h8.64v3.683h-8.64v3.685h9.654v3.68h-14.05V78.9m30.51-.002h7.715c4.082 0 7.512 1.278 7.512 5.502 0 2.53-1.49 4.5-4.304 4.963l5.065 7.648h-5.26l-4.17-7.238h-2.166v7.24h-4.39V78.897zm4.39 7.498h2.588c1.6 0 3.685-.05 3.685-2.022 0-1.817-1.805-2.098-3.405-2.098h-2.87v4.12zm37.627-3.074c-.704-.815-2.11-1.198-3.18-1.198-1.235 0-2.96.51-2.96 1.863 0 3.3 9.182 1.176 9.182 7.524 0 4.042-3.576 5.962-7.685 5.962-2.56 0-4.81-.692-6.696-2.276l3.126-3.126c.896 1.078 2.36 1.715 3.827 1.715 1.434 0 3.034-.61 3.034-1.894 0-3.323-9.34-1.53-9.34-7.568 0-3.863 3.69-5.885 7.6-5.885 2.25 0 4.415.535 6.107 1.89l-3.014 2.995zm19.331-4.424h4.393V97.01h-4.393m24.766-14.58h-5.683v-3.532h15.76v3.532h-5.684v14.58h-4.392V82.43m29.576 6.857l-7.484-10.39h5.46l4.22 6.78 4.476-6.78h5.208l-7.49 10.39v7.724h-4.39v-7.723" fill="#000"/><path d="M40.048 98.37l3.99-1.333c10.9-5.057 18.247-10.372 24.875-18.963 6.278-8.326 8.694-16.822 9.01-27.972 0-.002-.15-36-.216-44.772C73.847 3.122 50.6-.002 40.043.09" fill="#FFF"/><path d="M65.107 50.415l-.953-.313-.206-.995-1.637-.64c-4.46-1.55-9.032-2.8-13.75-3.25-3.043-.29-6.12-.063-8.458 1.442-2.328-1.506-5.404-1.732-8.445-1.443-4.722.45-9.303 1.7-13.768 3.25l-1.64.64-.21.995-.955.313L9.74 72.728c3.012-.556 9.217-1.456 12.656-1.813 4.278-.48 7.92-.658 12.752-.498-.022.196-.078.353.043.548.56.535 1.688.485 2.588.565.937.04 1.352.05 2.272.06.922.008 1.34-.023 2.274-.06.902-.08 2.03-.03 2.59-.565.12-.195.066-.352.045-.548 4.83-.16 8.475.018 12.75.498 3.436.357 9.636 1.257 12.65 1.813l-5.253-22.313zM39.454 67.21c-2.487-1.334-5.59-1.53-8.61-1.36-6.457.41-12.26 1.835-18.34 3.902l4.653-20.18c4.667-1.776 9.57-3.187 14.645-3.615 3.322-.205 6.183.217 7.826 1.397l-.174 19.855zm9.826-1.36c-3.02-.17-6.123.026-8.617 1.36l-.09-19.856c1.647-1.18 4.51-1.6 7.83-1.397 5.073.428 9.973 1.84 14.634 3.615l4.567 20.18c-6.067-2.067-11.867-3.49-18.324-3.902z" fill="#000"/><path d="M41.496.054l5.3 10.655.015.036c.02.045.092.19.28.52.18-.068.35-.138.52-.207l8.88-5.05s-3.83 18.805-4.205 20.638c1.698-1.783 8.572-9.018 8.572-9.018s2.923 5.56 3.608 6.86l.942-.157-.468.078 10.534-2.895-3.352 11.822s-.046.078-.063.102h.007s-.04.12-.043.138l.033-.045-.4 1.206c-.05.15-.166.527-.198.623l5.392 2.783-11.21 9.934c.05.235.108.516.123.58l.924.303 5.62 23.89c3.814-6.85 5.677-14.52 5.61-22.746 0 0-.03-33.294-.14-45.01C67.048 2.006 52.967.392 41.496.053M40.048 98.37c.993-.36 2.4-.713 3.41-1.142 9.835-4.09 18.6-10.263 25.455-19.154a46.421 46.421 0 0 0 2.26-3.29l-1.156-.214c-3.097-.57-9.29-1.457-12.517-1.796-.354-.04-.7-.072-1.04-.11-.073-.005-.143-.014-.212-.018-.346-.04-.687-.072-1.024-.103h-.013c-.347-.03-.69-.058-1.03-.084-.028 0-.056-.006-.082-.006-.35-.03-.696-.05-1.04-.07a79.516 79.516 0 0 0-6.784-.13l-.065.068c-.956.908-2.282.985-3.25 1.04l-.54.04-.548.026-1.837.04-2.333-.06-.563-.043c-.968-.054-2.297-.132-3.25-1.043 0 0-.036-.035-.062-.063a82.032 82.032 0 0 0-5.778.066l-1.307.076c-.006 0-.015.005-.023.005-.213.013-.424.026-.64.043-.013 0-.028.004-.043.004-.21.018-.413.035-.626.05-.032 0-.064.005-.1.01-.19.016-.382.03-.577.045-.063.007-.126.012-.187.02-.17.018-.337.03-.51.046-.108.01-.22.022-.327.035l-.386.04c-.24.026-.487.054-.735.076-3.22.34-9.416 1.226-12.51 1.796l-1.158.21a45.722 45.722 0 0 0 2.263 3.292c6.858 8.89 15.622 15.065 25.454 19.154 1.008.43 2.417.78 3.408 1.142M38.633 0C27.157-.05 13.057 2.004 2.315 5.09c-.113 11.72-.14 45.012-.14 45.012C2.106 58.33 3.97 65.992 7.78 72.85l5.72-23.89s.804-.262.926-.303c.01-.053.06-.285.107-.503L3.243 38.146s4.755-2.453 5.392-2.783c-.03-.096-.16-.498-.224-.704l-.303-.92-.03-.04-3.453-12.187L15.16 24.41l-.456-.077c.092.017.818.134.93.156.683-1.303 3.607-6.862 3.607-6.862s6.87 7.226 8.57 9.018L23.606 6.01s8.645 4.912 8.882 5.05c.17.068.34.138.517.205.195-.345.263-.48.278-.51l.017-.042 4.71-9.47L38.63 0" fill="#000"/><path d="M10.99 35.735c-.038.56-.562 1.195-.862 1.417l-2.893 1.49 9.374 8.312.627-.243.033-.012c5.395-1.874 9.91-2.94 14.206-3.346 3.533-.337 6.365.048 8.624 1.165 2.265-1.117 5.102-1.502 8.633-1.165 4.293.41 8.802 1.472 14.19 3.346l.03.013.56.22 9.346-8.287-2.893-1.49c-.3-.225-.826-.86-.863-1.418-.008-.165-.03-.148-.045-.1 0-.015.003-.028.005-.046.055-.33 0-.262.302-1.157-.024.024.55-1.703.566-1.716l2.252-7.94-6.644 1.827c-.362.024-.697.15-1.055.203-.624.086-1.126.17-1.496-.237l-2.666-5.072-7.585 7.98-.603.596c-1.276.967-3.08-.076-2.29-2.835l3.416-16.78-4.654 2.647c-.627.26-1.17.473-2.03.745-.284.09-.57-.093-.76-.274-.33-.543-.892-1.467-1.083-1.89l-4.69-9.43-4.693 9.43c-.19.423-.747 1.35-1.078 1.89-.19.18-.476.363-.76.274a22.02 22.02 0 0 1-2.03-.745l-4.653-2.648 3.415 16.777c.787 2.76-1.015 3.802-2.29 2.835l-.6-.596-7.582-7.983-2.665 5.072c-.373.41-.875.324-1.495.237-.358-.05-.69-.178-1.054-.202L7.91 24.773l2.25 7.94c.015.014.59 1.74.565 1.716.3.896.246.827.3 1.157l.007.037c-.015-.04-.035-.046-.044.11zm34.76-22.23c-.19-.2-.24-.346 0 0zm-11.4 0c.24-.344.19-.2 0 0z" fill="#AA1F23"/><path d="M36.9 52.285c-2.654-1.126-5.733-.778-8.535-.294-3.31.575-4.848.993-8.493 2.214l.204-.908s4.59-1.79 10.794-2.518c0 0 3.565-.448 6.03.644v.863zm0 4.011c-2.654-1.122-5.733-.776-8.535-.294-3.31.578-5.682.944-9.437 2.19l.205-.907s5.534-1.765 11.737-2.49c0 0 3.565-.454 6.03.642v.86zm0 4.074c-2.654-1.127-5.733-.78-8.535-.298-3.31.574-6.674 1.46-10.476 2.735l.203-.91s6.574-2.308 12.777-3.034c0 0 3.565-.45 6.03.64v.867zm6.202-8.085c2.655-1.126 5.733-.778 8.535-.294 3.31.575 4.848.993 8.496 2.214l-.205-.908s-4.59-1.79-10.793-2.518c0 0-3.565-.448-6.03.644v.863H43.1zm0 4.011c2.655-1.122 5.733-.776 8.535-.294 3.31.578 5.683.944 9.44 2.19l-.207-.905s-5.535-1.765-11.735-2.49c0 0-3.565-.454-6.03.642v.856H43.1zm0 4.074c2.655-1.127 5.733-.78 8.535-.298 3.31.574 6.676 1.46 10.476 2.735l-.202-.91s-6.573-2.308-12.775-3.034c0 0-3.565-.45-6.03.64v.867H43.1z" fill="#000"/></g></svg>