<svg xmlns="http://www.w3.org/2000/svg" viewBox="0 0 111.98 95.88"><defs><style>.cls-1,.cls-2{fill:none;stroke-miterlimit:10;stroke-width:2px;}.cls-1{stroke:#161e20;}.cls-2{stroke:#fff;}</style></defs><title>headerCombs</title><g id="Layer_2" data-name="Layer 2"><g id="Layer_1-2" data-name="Layer 1"><g id="Layer_1-2-2" data-name="Layer 1-2"><polygon class="cls-1" points="65.06 1 44.98 1 34.94 18.4 44.98 35.8 65.06 35.8 75.11 18.4 65.06 1"/><polygon class="cls-1" points="99.78 20.4 79.69 20.4 69.64 37.8 79.69 55.2 99.78 55.2 109.83 37.8 99.78 20.4"/><polygon class="cls-1" points="65.94 40.36 45.85 40.36 35.81 57.76 45.85 75.16 65.94 75.16 76 57.76 65.94 40.36"/><polygon class="cls-1" points="99.78 60.08 79.69 60.08 69.64 77.48 79.69 94.88 99.78 94.88 109.83 77.48 99.78 60.08"/><polygon class="cls-1" points="31.29 20.4 11.2 20.4 1.16 37.8 11.2 55.2 31.29 55.2 41.34 37.8 31.29 20.4"/></g><g id="Layer_1-2-3" data-name="Layer 1-2"><polygon class="cls-2" points="66.06 1 45.98 1 35.94 18.4 45.98 35.8 66.06 35.8 76.11 18.4 66.06 1"/><polygon class="cls-2" points="100.78 20.4 80.69 20.4 70.64 37.8 80.69 55.2 100.78 55.2 110.83 37.8 100.78 20.4"/><polygon class="cls-2" points="66.94 40.36 46.85 40.36 36.81 57.76 46.85 75.16 66.94 75.16 77 57.76 66.94 40.36"/><polygon class="cls-2" points="100.78 60.08 80.69 60.08 70.64 77.48 80.69 94.88 100.78 94.88 110.83 77.48 100.78 60.08"/><polygon class="cls-2" points="32.28 20.4 12.2 20.4 2.15 37.8 12.2 55.2 32.28 55.2 42.34 37.8 32.28 20.4"/></g></g></g></svg>