<svg xmlns="http://www.w3.org/2000/svg" viewBox="0 0 110.28 135.15"><defs><style>.cls-1{fill:none;stroke:#e3ac43;stroke-miterlimit:10;stroke-width:2px;}</style></defs><title>sectionCombs</title><g id="Layer_2" data-name="Layer 2"><g id="Layer_1-2" data-name="Layer 1"><polygon class="cls-1" points="99.08 1 78.99 1 68.95 18.4 78.99 35.8 99.08 35.8 109.13 18.4 99.08 1"/><polygon class="cls-1" points="65.25 20.96 45.16 20.96 35.11 38.36 45.16 55.76 65.25 55.76 75.29 38.36 65.25 20.96"/><polygon class="cls-1" points="99.08 40.68 78.99 40.68 68.95 58.08 78.99 75.48 99.08 75.48 109.13 58.08 99.08 40.68"/><polygon class="cls-1" points="31.29 40.27 11.2 40.27 1.16 57.67 11.2 75.07 31.29 75.07 41.34 57.67 31.29 40.27"/><polygon class="cls-1" points="66.01 59.67 45.92 59.67 35.87 77.07 45.92 94.47 66.01 94.47 76.06 77.07 66.01 59.67"/><polygon class="cls-1" points="32.17 79.63 12.08 79.63 2.04 97.03 12.08 114.43 32.17 114.43 42.22 97.03 32.17 79.63"/><polygon class="cls-1" points="66.01 99.35 45.92 99.35 35.87 116.75 45.92 134.15 66.01 134.15 76.06 116.75 66.01 99.35"/></g></g></svg>