<?xml version="1.0" encoding="utf-8"?>
<!-- Generator: Adobe Illustrator 24.1.1, SVG Export Plug-In . SVG Version: 6.00 Build 0)  -->
<svg version="1.1" id="Layer_1" xmlns="http://www.w3.org/2000/svg" xmlns:xlink="http://www.w3.org/1999/xlink" x="0px" y="0px"
	 viewBox="0 0 792.1 1628.1" style="enable-background:new 0 0 792.1 1628.1;" xml:space="preserve">
<style type="text/css">
	.st0{fill:#2F3443;}
	.st1{fill:#FADB8C;}
	.st2{fill:#2E3442;}
	.st3{fill:none;}
	.st4{fill:none;stroke:#FADB8C;stroke-width:5;stroke-miterlimit:10;}
	.st5{fill:none;stroke:#FADB8C;stroke-width:8;stroke-miterlimit:10;}
	.st6{enable-background:new    ;}
	.st7{fill:#C7DDE3;}
</style>
<rect x="-1.4" class="st0" width="792" height="1628.1"/>
<rect x="-1.4" y="637.1" class="st0" width="792" height="297.5"/>
<path class="st1" d="M343.4,159c-1.2,0.1-2.7,0-4.3,0.2c-5.9,0.5-11.6,2-16.9,4.5c-6.5,3.2-12.1,7.9-16.3,13.9
	c-4.6,6.7-7.5,14.5-8.2,22.6c-0.5,5.3-0.2,10.7,1,15.9c1.6,7.1,4.8,13.7,9.4,19.3c3.5,4.3,7.9,7.8,12.8,10.4
	c5.8,3,12.1,4.8,18.6,5.2c6.6,0.5,13.2-0.1,19.5-2c6.9-2.1,13.3-5.6,18.8-10.4c2.9-2.5,5.6-5.1,8.1-8c2.9-3.4,5.6-6.9,8.1-10.5
	c0.4-0.6,0.7-0.7,1.1,0c3.4,4.9,7.1,9.6,11.3,14c5,5.3,10.9,9.5,17.5,12.6c5.4,2.4,11.1,3.9,17,4.3c4.3,0.3,8.7,0.2,12.9-0.5
	c5.1-0.8,10-2.4,14.5-4.8c5.5-2.9,10.3-7.1,14-12.1c5.5-7.5,8.7-16.4,9.1-25.7c0.4-6.3-0.5-12.6-2.5-18.6c-2.6-7.8-7.2-14.7-13.5-20
	c-5.7-4.7-12.5-8-19.8-9.3c-5.5-1.1-11.2-1.3-16.8-0.6c-3.5,0.4-7,1.2-10.4,2.3c-8.8,3-16,8.3-22.3,14.9c-3.9,4.1-7.4,8.6-10.6,13.2
	c-0.9,1.3-0.9,1.3-1.9,0c-4.5-6.6-9.7-12.7-15.7-18c-4.3-3.7-9.1-6.7-14.3-8.9C357.3,160.1,350.4,158.8,343.4,159z"/>
<path class="st1" d="M461.5,198.5L461.5,198.5c-0.2-0.3-0.5-0.2-0.8-0.2c-1.6,0-3.2,0-4.8,0c-0.7,0-1-0.1-1-0.9c0-2.6,0-5.1,0-7.7
	c0-0.3,0.3-0.8-0.4-0.9h-0.3h-17.8c-0.2,0-0.4-0.1-0.5,0.2c0,3,0,6.1,0,9.1c-0.6,0.6-1.3,0.3-1.9,0.4c-1.1-0.2-2.2-0.3-3.3-0.2
	c-1.6-0.1-1.6,0-1.5,1.6v0.6c-0.1,0.9-0.1,1.9,0,2.8v0.8c-0.1,0.2,0,0.4,0.1,0.6c0,0,0,0,0,0.1v0.1c-0.2,0.9-0.2,1.8-0.1,2.7
	c-0.1,1.4-0.1,2.8,0.1,4.1c1.9,0.2,3.8,0,5.7,0.1c0.3,0,0.7-0.1,0.9,0.3v8.4v0.2c-0.2,0.7,0.3,0.6,0.7,0.6c5.9,0,11.7,0,17.6,0
	c0.6,0,0.8-0.2,0.8-0.8c0-2.9,0-5.7,0-8.6c0.3-0.3,0.6-0.2,0.9-0.2h5.3c0.8,0.1,0.5-0.5,0.5-0.9v-1.9c0.1-0.6,0.1-1.3,0-1.9v-0.4
	c0.1-0.6,0.1-1.2,0-1.7v-0.4c0.1-0.3,0.1-0.6,0-0.8v-0.4c0.1-0.8,0.1-1.6,0-2.4v-0.4C461.8,199.8,461.7,199.1,461.5,198.5z"/>
<path class="st1" d="M360.1,203.8c0,0.1,0,0.3,0,0.4c-0.1,0.7-0.1,1.4,0,2.1c0.1,0.3,0.1,0.5,0,0.8c-0.1,0.6-0.1,1.3,0,1.9v0.5
	c-0.1,0.7-0.1,1.5-0.1,2.3c-1.6,0.2-3.3,0.1-4.9,0.1c-8.7,0-17.3,0-26,0H328c-0.3-0.5-0.4-1-0.4-1.6c0.1-1.3,0-2.5-0.1-3.8
	c0-0.1,0-0.3,0-0.4c0.2-1.1,0.2-2.1,0-3.2c0-0.1,0-0.3,0-0.4c0.1-1.3,0.1-2.6,0.1-3.9l0,0h30.6c1.5,0,1.5,0,1.8,1.4
	c0.1,0.3,0.1,0.7,0,1c-0.1,0.2-0.1,0.4,0,0.6c0,0.1,0,0.3,0,0.4c-0.1,0.3-0.1,0.6,0,0.8c0,0.1,0,0.3,0,0.4
	C359.9,203.4,359.9,203.6,360.1,203.8z"/>
<path class="st1" d="M360.1,199.9c-0.3-1.4-0.3-1.4-1.8-1.4h-30.6c0.2-0.3,0.5-0.2,0.8-0.2h30.2
	C360.2,198.3,360.2,198.3,360.1,199.9z"/>
<path class="st1" d="M327.6,206.4c0.1,1.3,0.2,2.5,0.1,3.8c-0.1,0.6,0.1,1.1,0.4,1.6c-0.4,0.1-0.5-0.1-0.5-0.5
	C327.6,209.6,327.6,208,327.6,206.4z"/>
<path class="st1" d="M327.7,198.5c0,1.3,0,2.6-0.1,3.9C327.5,201.1,327.5,199.7,327.7,198.5z"/>
<path class="st1" d="M327.6,202.8c0.2,1.1,0.2,2.1,0,3.2C327.5,204.9,327.5,203.9,327.6,202.8z"/>
<path class="st1" d="M360,211.7c0-0.8,0-1.5,0.1-2.3C360.2,210.2,360.2,211,360,211.7z"/>
<path class="st1" d="M360.1,206.3c-0.1-0.7-0.1-1.4,0-2.1C360.1,204.9,360.1,205.6,360.1,206.3z"/>
<path class="st1" d="M360.1,209c-0.1-0.6-0.1-1.3,0-1.9C360.2,207.7,360.2,208.4,360.1,209z"/>
<path class="st1" d="M360.1,202.7c-0.1-0.3-0.1-0.6,0-0.8C360.2,202.2,360.2,202.5,360.1,202.7z"/>
<path class="st1" d="M360,201.5c-0.1-0.2-0.1-0.4,0-0.6C360.1,201,360.1,201.3,360,201.5z"/>
<path class="st1" d="M360.1,203.8c-0.1-0.2-0.1-0.4,0-0.6C360.2,203.4,360.2,203.6,360.1,203.8z"/>
<path class="st1" d="M429.1,204c0-0.3,0-0.5,0-0.8c0.1-0.9,0.1-1.9,0-2.8c0-0.2,0-0.4,0-0.6s0.1-0.2,0.1-0.3
	c-0.1-0.9,0.2-1.1,1.1-1.1c1.2,0.1,2.4,0,3.6,0c0.7-0.1,1.4,0.2,1.9-0.4c0.3-0.3,0.2-0.6,0.2-0.9c0.1-2.7-0.2-5.4,0.2-8.1
	c0-0.2-0.2-0.1-0.4-0.1c0.1-0.3,0.4-0.2,0.5-0.2h17.8h0.3l-0.2,0.2c0.5,0.4,0.3,1,0.3,1.4c0.1,2.7,0.1,5.3-0.1,8h7
	c-0.1,0.7,0,1.3,0.1,2v0.4c-0.2,0.8-0.2,1.6,0,2.4v0.4c-0.2,0.3-0.2,0.6,0,0.8v0.4c-0.2,0.6-0.2,1.2,0,1.7v0.4
	c-0.2,0.6-0.2,1.3,0,1.9v0.4c-0.2,0.3-0.2,0.6,0,0.9c0,0.2,0,0.4,0,0.6l-0.5,0.9h-5.3c-0.3,0-0.7-0.1-0.9,0.2s-0.5,0.5-0.5,0.7
	c0.3,1.1,0.3,2.2,0.3,3.4c0,1.3,0,2.6,0,3.9c0,0.8,0,1.1-1.1,1.1c-5.6-0.1-11.3,0-16.9,0c-0.3,0-0.6-0.1-0.9-0.4v-0.2
	c0.1-0.1,0.2-0.3,0.2-0.5v-7.4c0-0.2,0-0.4-0.2-0.5c-0.2-0.5-0.6-0.3-0.9-0.3c-1.9-0.1-3.8,0.1-5.7-0.1c0-2.3,0-4.6,0-6.8v-0.1
	c0,0,0,0,0-0.1C429.2,204.4,429.2,204.2,429.1,204z"/>
<path class="st1" d="M435.8,220.7c0.2,0.2,0.5,0.4,0.9,0.4c5.6,0,11.3-0.1,16.9,0c1,0,1.1-0.3,1.1-1.1c0-1.3,0-2.6,0-3.9
	c0.1-1.1,0-2.3-0.3-3.4c0-0.2,0.3-0.5,0.5-0.7c0,2.9,0,5.7,0,8.6c0,0.6-0.2,0.8-0.8,0.8c-5.9,0-11.7,0-17.6,0
	C436.2,221.3,435.7,221.4,435.8,220.7z"/>
<path class="st1" d="M461.5,198.5h-7c0.2-2.7,0.2-5.3,0.1-8c0-0.4,0.2-1-0.3-1.4l0.2-0.2c0.7,0,0.4,0.6,0.4,0.9c0,2.6,0.1,5.1,0,7.7
	c0,0.8,0.2,0.9,1,0.9c1.6,0,3.2,0,4.8,0C460.9,198.3,461.3,198.1,461.5,198.5z"/>
<path class="st1" d="M435.8,189c0.1,0,0.4,0,0.4,0.1c-0.4,2.7-0.1,5.4-0.2,8.1c0,0.3,0.1,0.7-0.2,0.9
	C435.8,195.1,435.8,192,435.8,189z"/>
<path class="st1" d="M435.8,212.1c0.2,0.1,0.2,0.4,0.2,0.5v7.4c0,0.2,0,0.4-0.2,0.5V212.1z"/>
<path class="st1" d="M429.2,204.9c0,2.3,0,4.6,0,6.8c-0.2-1.4-0.2-2.7-0.1-4.1C428.9,206.7,429,205.7,429.2,204.9z"/>
<path class="st1" d="M433.8,198.5c-1.2,0-2.4,0.1-3.6,0c-0.8,0-1.2,0.2-1.1,1.1c0,0.1,0,0.2-0.1,0.3c-0.1-1.6-0.1-1.6,1.5-1.6
	C431.6,198.2,432.8,198.2,433.8,198.5z"/>
<path class="st1" d="M461.6,203.3c-0.2-0.8-0.2-1.6,0-2.4C461.7,201.7,461.7,202.5,461.6,203.3z"/>
<path class="st1" d="M461.6,200.4c-0.1-0.6-0.1-1.3-0.1-2C461.7,199.1,461.7,199.8,461.6,200.4z"/>
<path class="st1" d="M461.6,209c-0.2-0.6-0.2-1.3,0-1.9C461.7,207.7,461.7,208.4,461.6,209z"/>
<path class="st1" d="M461.6,206.7c-0.2-0.6-0.2-1.2,0-1.7C461.7,205.5,461.7,206.1,461.6,206.7z"/>
<path class="st1" d="M461.1,211.7l0.5-0.9C461.6,211.3,461.9,211.8,461.1,211.7z"/>
<path class="st1" d="M461.6,210.3c-0.2-0.3-0.2-0.6,0-0.9C461.6,209.7,461.6,210,461.6,210.3z"/>
<path class="st1" d="M461.6,204.5c-0.2-0.3-0.2-0.6,0-0.8C461.7,204,461.7,204.3,461.6,204.5z"/>
<path class="st1" d="M429.1,204c0.1,0.2,0.1,0.4,0.1,0.6C429.1,204.5,429,204.2,429.1,204z"/>
<path class="st1" d="M385.4,205.5"/>
<path class="st2" d="M403.9,205.5c1.1,1.7,2.8,4.3,5,7.3c4.4,6,7.7,10.1,12.9,14.4c6.7,5.5,14.4,8.2,24,8.1c2.5,0,5-0.3,7.4-0.9
	c5.3-1.1,10.1-3.7,13.9-7.5c5.8-5.9,8.3-13.2,8.5-21.3c0.2-4.6-0.7-9.1-2.4-13.4c-3.5-8.5-9.5-14.1-18.3-16.7
	c-4.4-1.2-8.9-1.7-13.5-1.2c-9.8,0.8-18.8,5.5-25,13.1L403.9,205.5z"/>
<path class="st2" d="M372.7,187.4c-3.9-4.7-8.9-8.3-14.5-10.6c-3.4-1.3-7-2.2-10.6-2.5c-4.6-0.4-9.1,0-13.5,1.2
	c-8.9,2.6-14.9,8.3-18.4,16.8c-1.8,4.3-2.6,8.8-2.4,13.5c0.3,8.1,2.8,15.5,8.6,21.4c3.8,3.8,8.7,6.5,13.9,7.5c2.5,0.6,5,0.9,7.5,0.9
	c9.6,0.1,17.4-2.6,24.2-8.1c5.3-4.3,8.6-8.5,13-14.5c2.3-3,4-5.6,5-7.3L372.7,187.4z"/>
<path class="st1" d="M385.4,205.5"/>
<path class="st3" d="M343.4,159c6.9-0.1,13.8,1.2,20.2,3.8c5.2,2.2,10,5.2,14.3,8.9c6,5.3,11.2,11.4,15.7,18c1,1.4,1,1.4,1.9,0
	c3.2-4.7,6.7-9.1,10.6-13.2c6.3-6.6,13.6-11.9,22.3-14.9c3.4-1.1,6.9-1.9,10.4-2.3c5.6-0.7,11.3-0.5,16.8,0.6
	c7.3,1.4,14.1,4.6,19.8,9.3c6.3,5.3,11,12.2,13.5,20c2,6,2.9,12.3,2.5,18.6c-0.4,9.3-3.6,18.3-9.1,25.7c-3.7,5-8.5,9.2-14,12.1
	c-4.5,2.4-9.4,4-14.5,4.8c-4.3,0.7-8.6,0.9-12.9,0.5c-5.9-0.5-11.6-1.9-17-4.3c-6.6-3.1-12.5-7.4-17.5-12.6
	c-4.2-4.3-7.9-9-11.3-13.9c-0.5-0.7-0.7-0.6-1.1,0c-2.5,3.7-5.2,7.2-8.2,10.5c-2.5,2.9-5.1,5.5-8,8c-5.5,4.7-11.9,8.2-18.8,10.3
	c-6.3,1.9-13,2.5-19.5,2c-6.5-0.4-12.8-2.2-18.6-5.2c-4.9-2.6-9.2-6.1-12.8-10.4c-4.6-5.6-7.9-12.2-9.4-19.3
	c-1.2-5.2-1.5-10.6-1-15.9c0.7-8.1,3.6-15.9,8.2-22.6c4.1-6,9.7-10.8,16.3-13.9c5.3-2.5,11-4.1,16.9-4.5
	C340.7,159,342.3,159.1,343.4,159z M343.8,235.6c0.8,0,1.5,0,2.2,0c3.5-0.2,6.9-0.8,10.2-2c6.8-2.4,12.1-6.8,16.9-12
	c4.3-5,8.3-10.3,11.8-15.8c0.3-0.3,0.3-0.8,0-1.2c-1.3-1.8-2.5-3.7-3.8-5.5c-3.8-5.7-8.2-11-13.3-15.6c-6-5.4-13.7-8.6-21.7-9
	c-4.2-0.3-8.5,0.2-12.6,1.4c-6.2,1.7-11.6,5.6-15.1,11c-6.9,10.9-7.1,24.7-0.4,35.7c2.4,3.9,5.8,7,9.8,9.2
	C332.7,234.4,338.2,235.7,343.8,235.6L343.8,235.6z M404.3,205.8c1.1,1.7,2.8,4.3,5,7.3c4.4,6,7.7,10.1,12.9,14.4
	c6.7,5.5,14.4,8.2,24,8.1c2.5,0,5-0.3,7.4-0.9c5.3-1.1,10.1-3.7,13.9-7.5c5.8-5.9,8.3-13.2,8.6-21.3c0.2-4.6-0.7-9.1-2.4-13.4
	c-3.5-8.5-9.5-14.1-18.3-16.7c-4.4-1.2-8.9-1.7-13.5-1.2c-9.8,0.8-18.8,5.5-25,13.1L404.3,205.8z"/>
<rect x="327.6" y="199.5" class="st1" width="33.6" height="9.6"/>
<rect x="428.5" y="198.7" class="st1" width="33.6" height="9.6"/>
<rect x="440.5" y="186.5" class="st1" width="9.6" height="33.6"/>
<path class="st1" d="M460.6,506.3c7.1,0,12.8-5.7,12.9-12.8s-5.7-12.8-12.8-12.9c-5.7,0-10.7,3.7-12.3,9.1c-0.2,0.7-0.5,0.9-1.2,0.9
	H334.4c-0.5,0.1-1-0.3-1.2-0.8c-1.9-4.7-7.3-6.9-12-5s-6.9,7.3-5,12s7.3,6.9,12,5c2.3-0.9,4-2.7,5-5c0.2-0.5,0.4-0.7,1-0.7
	c37.7,0,75.5,0,113.2,0c0.4-0.1,0.8,0.2,0.9,0.6c0,0,0,0,0,0.1C449.9,502.4,454.9,506.3,460.6,506.3z M460.6,438.5
	c7.1,0,12.8-5.7,12.9-12.8s-5.7-12.8-12.8-12.9c-4.6,0-8.9,2.5-11.2,6.5c-2.4,4.1-2.3,9.2,0.3,13.1c0.3,0.4,0.3,0.7-0.1,1
	c-0.9,0.9-1.7,1.8-2.6,2.7c-9.8,10.3-19.7,20.7-29.5,31c-0.3,0.4-0.8,0.6-1.4,0.6c-16.6,0-33.2,0-49.8,0c-0.5,0.1-0.9-0.2-1-0.7
	c-1.6-4.1-6-6.4-10.3-5.5c-5,1-8.2,5.8-7.2,10.8s5.8,8.2,10.8,7.2c3-0.6,5.5-2.6,6.7-5.4c0.1-0.6,0.7-0.9,1.3-0.8
	c17.1,0,34.2,0,51.3,0c1,0.1,1.9-0.3,2.5-1c2.2-2.4,4.5-4.7,6.8-7.1c8.9-9.3,17.7-18.6,26.5-27.9c0.2-0.4,0.7-0.5,1.1-0.2l0,0
	C456.7,438.1,458.7,438.6,460.6,438.5L460.6,438.5z M393.9,519.2h27.3c0.4,0,0.8,0.1,1.1,0.4c9.3,9.5,18.6,18.9,27.9,28.3
	c0.4,0.4,0.3,0.6,0,1c-2.1,2.8-3,6.5-2.3,9.9c1.3,7,8,11.5,14.9,10.2c7-1.3,11.5-8,10.2-14.9c-1.3-7-8-11.5-14.9-10.2
	c-0.9,0.2-1.7,0.4-2.5,0.7c-0.4,0.2-0.9,0.1-1.1-0.2c-9.7-9.9-19.4-19.8-29.2-29.6c-0.7-0.8-1.8-1.2-2.9-1.2c-18.7,0-37.4,0-56.1,0
	c-0.5,0.1-1-0.2-1.1-0.7c-1.6-3.9-5.7-6.2-9.9-5.6c-5,0.8-8.4,5.5-7.7,10.5c0.6,3.8,3.5,6.8,7.3,7.6c4.3,0.9,8.6-1.4,10.3-5.5
	c0.1-0.5,0.6-0.8,1.1-0.8C375.6,519.2,384.8,519.2,393.9,519.2z M363.6,450.6c9.5,0,19.1,0,28.6,0c1.4,0.1,2.7-0.5,3.6-1.5
	c3.8-4,7.7-7.8,11.5-11.8c0.2-0.3,0.7-0.4,1.1-0.2l0,0c2.5,1.4,5.5,1.8,8.3,1.3c7-1.3,11.6-8,10.3-14.9c-1.3-7-8-11.6-14.9-10.3
	c-2.9,0.5-5.5,2-7.4,4.2c-3.7,4.2-4.2,10.3-1.3,15.1c0.3,0.3,0.2,0.7,0,0.9c0,0-0.1,0-0.1,0.1c-3.6,3.7-7.3,7.3-10.8,11
	c-0.3,0.4-0.9,0.6-1.4,0.6c-18.9,0-37.8,0-56.7,0c-0.5,0.1-1-0.2-1.1-0.8c-1.7-4-6-6.3-10.3-5.5c-5,1-8.2,5.8-7.3,10.8
	c0.7,3.6,3.5,6.4,7.1,7.2c4.3,1,8.7-1.3,10.4-5.4c0.2-0.6,0.7-0.9,1.3-0.8L363.6,450.6z"/>
<path class="st1" d="M460.6,506.3c-5.7,0-10.7-3.8-12.3-9.3c0-0.4-0.4-0.7-0.8-0.7c0,0,0,0-0.1,0c-37.7,0-75.5,0-113.2,0
	c-0.6,0-0.8,0.2-1,0.7c-1.9,4.7-7.3,6.9-12,5s-6.9-7.3-5-12s7.3-6.9,12-5c2.3,0.9,4.1,2.7,5,5c0.1,0.5,0.6,0.9,1.2,0.8h112.8
	c0.7,0,1-0.2,1.2-0.9c1.7-5.7,7.1-9.5,13.1-9.1c7.1,0.4,12.5,6.4,12.1,13.5C473.2,501.1,467.5,506.5,460.6,506.3L460.6,506.3z
	 M460.7,500.7c4,0,7.2-3.3,7.2-7.2s-3.3-7.2-7.2-7.2c-4,0-7.2,3.2-7.2,7.2s3.1,7.2,7.1,7.3C460.6,500.7,460.6,500.7,460.7,500.7
	L460.7,500.7z"/>
<path class="st1" d="M460.6,438.6c-2,0-4-0.5-5.7-1.4c-0.4-0.3-0.9-0.2-1.1,0.2l0,0c-8.8,9.3-17.7,18.6-26.6,27.9
	c-2.3,2.4-4.5,4.7-6.8,7.1c-0.7,0.7-1.6,1.1-2.5,1c-17.1,0-34.2,0-51.3,0c-0.6-0.1-1.1,0.3-1.3,0.8c-1.7,4-6,6.3-10.3,5.4
	c-5-1-8.2-5.8-7.2-10.8c0.7-3.7,3.6-6.5,7.3-7.2c4.3-0.9,8.6,1.4,10.3,5.5c0.1,0.4,0.5,0.7,1,0.7c16.6,0,33.2,0,49.8,0
	c0.5,0,1-0.2,1.4-0.6c9.8-10.3,19.6-20.7,29.5-31c0.9-0.9,1.7-1.8,2.6-2.7c0.3-0.3,0.3-0.6,0.1-1c-2.6-4-2.7-9-0.3-13.1
	c3.5-6.2,11.3-8.3,17.4-4.9c6.2,3.5,8.3,11.3,4.9,17.4C469.5,436.1,465.2,438.5,460.6,438.6L460.6,438.6z M453.4,425.7
	c0,4,3.2,7.2,7.2,7.2s7.2-3.2,7.2-7.2s-3.2-7.2-7.2-7.2l0,0C456.7,418.5,453.4,421.7,453.4,425.7L453.4,425.7L453.4,425.7z"/>
<path class="st1" d="M393.9,519.2c-9.1,0-18.3,0-27.4,0c-0.5-0.1-1,0.2-1.1,0.8c-1.7,4-6,6.3-10.3,5.5c-5-1-8.2-5.8-7.2-10.8
	s5.8-8.2,10.8-7.2c3,0.6,5.5,2.7,6.7,5.5c0.1,0.5,0.6,0.8,1.1,0.7c18.7,0,37.4,0,56.1,0c1.1,0,2.1,0.4,2.9,1.2
	c9.7,9.9,19.4,19.8,29.2,29.6c0.3,0.4,0.8,0.5,1.1,0.2c6.6-2.7,14,0.4,16.7,7s-0.4,14-7,16.7s-14-0.4-16.7-7
	c-0.3-0.8-0.6-1.7-0.7-2.5c-0.7-3.5,0.1-7.1,2.3-9.9c0.3-0.4,0.3-0.6,0-1c-9.3-9.4-18.6-18.9-27.9-28.3c-0.3-0.3-0.7-0.4-1.1-0.4
	L393.9,519.2z M460.7,563.7c4,0,7.3-3.2,7.3-7.2s-3.2-7.3-7.2-7.3s-7.3,3.2-7.3,7.2c0,0,0,0,0,0.1
	C453.4,560.5,456.7,563.7,460.7,563.7L460.7,563.7z"/>
<path class="st1" d="M363.6,450.6h-29.1c-0.5-0.1-1,0.2-1.2,0.8c-2,4.7-7.3,6.8-12,4.9c-3.5-1.5-5.7-4.9-5.6-8.6
	c0.1-4.3,3.2-8,7.4-8.9c4.3-0.8,8.6,1.5,10.2,5.5c0.1,0.5,0.6,0.8,1.1,0.8c18.9,0,37.8,0,56.7,0c0.5,0,1-0.2,1.4-0.6
	c3.6-3.7,7.2-7.3,10.8-11c0.3-0.2,0.4-0.6,0.2-0.9c0,0,0-0.1-0.1-0.1c-3.7-6-1.8-13.9,4.3-17.6c3.6-2.2,8-2.5,11.8-0.8
	c6.5,2.9,9.4,10.5,6.5,17c-1.7,3.8-5.2,6.5-9.3,7.3c-2.8,0.6-5.8,0.1-8.3-1.3c-0.3-0.3-0.8-0.2-1.1,0.2l0,0
	c-3.8,3.9-7.7,7.8-11.5,11.8c-0.9,1-2.3,1.6-3.6,1.5C382.6,450.5,373.1,450.6,363.6,450.6z M421.6,425.8c0-4-3.2-7.2-7.2-7.2
	s-7.2,3.2-7.2,7.2s3.2,7.2,7.2,7.2l0,0C418.3,433,421.6,429.8,421.6,425.8L421.6,425.8z"/>
<path class="st1" d="M460.7,500.7c-4,0-7.2-3.2-7.2-7.2s3.2-7.2,7.2-7.2s7.2,3.2,7.2,7.2l0,0C467.9,497.5,464.7,500.7,460.7,500.7
	L460.7,500.7z"/>
<path class="st1" d="M453.4,425.7c0-4,3.3-7.2,7.2-7.2c4,0,7.2,3.3,7.2,7.2c0,4-3.2,7.2-7.2,7.2s-7.2-3.2-7.2-7.1
	C453.4,425.8,453.4,425.8,453.4,425.7z"/>
<path class="st1" d="M460.7,563.7c-4,0-7.2-3.2-7.2-7.2s3.2-7.2,7.2-7.2s7.2,3.2,7.2,7.2c0,0,0,0,0,0.1
	C467.9,560.5,464.7,563.7,460.7,563.7L460.7,563.7z"/>
<circle class="st2" cx="414.3" cy="425.7" r="7.1"/>
<circle class="st2" cx="460.7" cy="425.7" r="7.1"/>
<circle class="st2" cx="460.7" cy="493.5" r="7.1"/>
<circle class="st2" cx="460.7" cy="556.5" r="7.1"/>
<path class="st4" d="M395.7,763.3c6.6-0.3,13.2,0.3,19.6,1.6c2.3,0.4,4.5,1.2,6.4,2.4c7,4.7,14.1,9.3,20.2,15.2
	c10.5,10.4,17.6,23.8,20.3,38.3c5.9,30.2-1.8,57.2-20.8,81.2c-2,2.3-4.3,4.4-6.7,6.2c-1.3,1.1-2.4,0.8-3.3-0.5
	c-0.5-0.7-0.8-1.6-1-2.5c-0.4-2.6-0.5-5.3-0.3-8c0.1-2.3,1.2-4.5,2.9-6.1c5.4-5.3,10.7-10.8,14.5-17.3c5.1-8.6,7.2-18.1,7.8-28
	c1-17-2.8-32.6-13-46.5c-8-11.1-18.5-18.4-32.1-21.2c-7.6-1.6-15.2-1.4-22.8-1c-15,0.7-27.8,6.6-37.4,18.1
	c-8.4,10.1-14.2,21.5-15.6,34.8c-1.5,14.1-0.7,27.9,5.6,40.9c3.5,7.2,8.7,13.3,14.5,18.5c5.3,4.9,5.1,10.5,4.1,16.4
	c-0.5,3.3-2.4,3.7-4.8,1.7c-9.7-7.8-15.4-18.5-20.5-29.5c-7.2-15.5-9.3-31.9-7.6-48.8c1-10.8,4.6-20.7,9.5-30.3
	c6.1-11.9,15.8-20.2,26.4-27.8c5.5-3.9,11.1-6.6,17.8-7.3C384.7,763.4,390.2,763.2,395.7,763.3z"/>
<path class="st4" d="M311.2,1492.3c4.9,0.2,7.9-21.9,12.8-21.8c6.3,0.2,8,36.7,12.3,36.8c5.6,0.1,9-61.1,14.1-61.1
	c5.9,0,9.2,80.4,13.7,80.3c5.1,0,6.8-101.7,11.4-101.7c5,0,9.2,117.6,14.6,117.5c4.5,0,6.2-79.8,11.8-79.9
	c4.5-0.1,7.3,50.9,12.3,50.9c5.7-0.1,8.2-67.5,13.2-67.5c4.6,0,7.7,58.6,12.8,58.5c3.9,0,5.3-34.3,11.8-34.6
	c5.2-0.3,8.7,20.8,14.1,20.5c6.1-0.3,7.8-26.9,11.8-26.9"/>
<polygon class="st5" points="311.2,1440.3 311.2,1534.8 394.6,1582.1 477.9,1534.8 477.9,1440.3 394.6,1393 "/>
<path class="st1" d="M436.2,1093.1c4.6,0,8.9,1.8,12.1,5.1c3.3,3.3,6.5,6.5,9.8,9.8c6.9,6.5,7.1,17.4,0.6,24.2
	c-0.2,0.2-0.4,0.4-0.6,0.6l-93.9,93.9c-0.4,0.4-0.8,0.6-1.4,0.7c-4.9,0.5-9.9,1.1-14.8,1.6l-13.5,1.5c-1.3,0.2-2.6,0.2-3.8,0
	c-3.2-0.8-5.3-3.9-4.8-7.2c0.6-5.4,1.2-10.8,1.8-16.2c0.5-4.6,1-9.3,1.5-13.9c0.1-0.4,0.3-0.7,0.6-0.9l30.3-30.3l63.8-63.8
	C427.1,1094.9,431.5,1093,436.2,1093.1z M365,1204.9c0.1-0.4-0.1-0.5-0.5-0.5c-1.5,0-2.9,0-4.4,0c-2.4,0-4.8,0-7.1,0
	c-0.7,0-0.9-0.1-0.9-0.9c0-3.8,0-7.6,0-11.4c0-0.4,0-0.7-0.6-0.7c-2.8,0-5.7,0-8.5,0c-0.2-0.1-0.3,0.1-0.5,0.2l-4.5,4.5
	c-0.4,0.2-0.6,0.6-0.7,1c-0.5,5-1.1,10-1.6,15c-0.1,0.3,0,0.5,0.2,0.7l7,6.9c0.4,0.7,1.1,1.1,1.9,0.9c2.3-0.3,4.5-0.6,6.8-0.8
	c2.1-0.2,4.1-0.4,6.2-0.6c1-0.1,2.1,0,2.7-1l4.5-4.4c0.1-0.1,0.2-0.2,0.1-0.4L365,1204.9z M429,1129.9l6.1,6.1
	c1.2,1.2,2.3,2.3,3.5,3.5c0.2,0.2,0.4,0.3,0.6,0c2.5-2.5,4.9-5,7.4-7.4c1.6-1.5,3.1-3,4.6-4.6c0.2-0.2,0.5-0.5,0.7-0.7
	c1.2-1,2.1-2.4,2.5-3.9c0.4-1.3,0.5-2.7,0.3-4c-0.1-1.3-0.7-2.6-1.5-3.6c-1.6-1.8-3.3-3.6-5.1-5.2l-1.7-1.8c-1.5-1.5-3-3.1-4.6-4.6
	c-1.1-1-2.5-1.7-4-1.9c-3.6-0.6-6.4,0.7-8.7,3.4l-4.9,4.9c-2.4,2.4-4.8,4.7-7.1,7.1c-0.3,0.3-0.2,0.5,0.1,0.8l2.9,2.9L429,1129.9z
	 M398.3,1135.9c-1.3,1.2-2.5,2.4-3.8,3.7c-1.7,1.6-3.3,3.3-5,4.9l-8.6,8.6l-0.3,0.3l-29.9,30c-0.1,0.1-0.3,0.2-0.3,0.5
	c2.8,0,5.6,0,8.4,0c0.6,0,0.8,0.1,0.7,0.7c0,3.8,0,7.5,0,11.2c0,0.7,0.1,1,0.9,1c3.8,0,7.5,0,11.3,0c0.5,0,0.7,0.2,0.7,0.7
	c0,1.8,0,3.6,0,5.4v3.3c0.3-0.3,0.5-0.5,0.7-0.6l10.7-10.7c0.7-0.7,1.5-1.5,2.2-2.3c2.8-2.8,5.7-5.7,8.5-8.5c1.7-1.7,3.3-3.3,4.9-5
	l3.7-3.7c1.6-1.5,3.2-3.1,4.7-4.7c1.4-1.3,2.8-2.7,4.1-4.1c1.6-1.5,3.2-3.1,4.7-4.7l3.7-3.7c1.8-1.6,3.4-3.3,5-5
	c2.3-2.3,4.5-4.5,6.9-6.8c0.4-0.4,0.5-0.7,0-1.1c-3.6-3.6-7.3-7.2-10.9-10.9c-0.2-0.2-0.5-0.4-0.8-0.6c0-0.2-0.1-0.3-0.3-0.4
	l-5.9-5.9c-0.1-0.1-0.3-0.2-0.5-0.3c-1-1-2-2.1-2.9-3.1c-0.4-0.4-0.6-0.4-1,0c-2.1,2.2-4.3,4.3-6.5,6.5c-0.2,0.2-0.4,0.3-0.5,0.6
	C401.4,1132.8,399.8,1134.4,398.3,1135.9L398.3,1135.9z"/>
<g class="st6">
	<path class="st7" d="M233.5,60.5V62c0,4.4-2.6,7.3-7.6,7.3h-3.5v7c0,0.3-0.2,0.4-0.5,0.4h-3.2c-0.3,0-0.4-0.2-0.4-0.4V53.7
		c0-0.2,0.2-0.4,0.4-0.4h7.1C230.9,53.3,233.5,56.2,233.5,60.5z M222.4,57v8.6h3.1c2.9,0,3.9-1.3,3.9-3.8v-0.9c0-2.5-1-3.8-3.9-3.8
		L222.4,57L222.4,57z"/>
	<path class="st7" d="M241.4,52.8v23.5c0,0.3-0.2,0.4-0.4,0.4h-3c-0.3,0-0.5-0.2-0.5-0.4V52.8c0-0.3,0.2-0.4,0.5-0.4h3
		C241.2,52.3,241.4,52.5,241.4,52.8z"/>
	<path class="st7" d="M259.5,64.5v11.7c0,0.3-0.2,0.4-0.4,0.4h-2.8c-0.3,0-0.4-0.2-0.4-0.4v-2.1c-1.1,1.8-2.9,2.9-5.1,2.9
		c-3.3,0-5.4-2.2-5.4-5.3c0-3.2,2.1-5.1,6.7-5.4c1.2-0.1,2.4-0.1,3.6,0v-1.6c0-2-1.1-2.8-2.9-2.8c-1.8,0-2.5,0.7-2.9,1.9
		c-0.1,0.4-0.3,0.4-0.6,0.3l-2.8-0.7c-0.3-0.1-0.4-0.3-0.3-0.5c0.5-2.5,2.8-4.2,6.8-4.2C257,58.7,259.5,60.7,259.5,64.5z M255.6,71
		v-2.2c-1.1,0-2.2,0-3.3,0.1c-2.1,0.2-3.3,0.9-3.3,2.6c0,1.4,1,2.4,2.7,2.4C253.5,73.9,254.9,72.8,255.6,71z"/>
	<path class="st7" d="M268.2,65.4v10.9c0,0.3-0.2,0.4-0.4,0.4h-3c-0.3,0-0.5-0.2-0.5-0.4V59.5c0-0.2,0.1-0.4,0.4-0.4h3
		c0.3,0,0.4,0.2,0.4,0.4v2.1c1.1-1.6,2.9-2.9,5.3-2.9c3.4,0,5.2,2.4,5.2,6v11.6c0,0.3-0.2,0.4-0.4,0.4h-3c-0.3,0-0.5-0.2-0.5-0.4
		V65.4c0-1.9-0.9-3.1-2.7-3.1C270.2,62.3,268.8,63.6,268.2,65.4z"/>
	<path class="st7" d="M287.3,65.4v10.9c0,0.3-0.2,0.4-0.4,0.4h-3c-0.3,0-0.5-0.2-0.5-0.4V59.5c0-0.2,0.1-0.4,0.4-0.4h3
		c0.3,0,0.4,0.2,0.4,0.4v2.1c1.1-1.6,2.9-2.9,5.3-2.9c3.4,0,5.2,2.4,5.2,6v11.6c0,0.3-0.2,0.4-0.4,0.4h-3c-0.3,0-0.5-0.2-0.5-0.4
		V65.4c0-1.9-0.9-3.1-2.7-3.1C289.4,62.3,288,63.6,287.3,65.4z"/>
	<path class="st7" d="M305.7,69.1v1c0,2.3,1.2,3.7,3.7,3.7c2.4,0,3.1-0.9,3.7-2.1c0.3-0.4,0.4-0.5,0.8-0.3l2,1
		c0.4,0.2,0.5,0.5,0.3,0.9c-1.1,2.3-3.5,3.7-6.9,3.7c-4.9,0-7.5-2.9-7.5-7v-4.4c0-4,2.5-7,7.4-7c4.7,0,7.1,3,7.1,6.9v2.7
		c0,0.5-0.2,0.8-0.8,0.8h-9.8V69.1z M305.7,65.6v0.9h7.1v-0.9c0-2.2-1.2-3.6-3.6-3.6C307,62,305.7,63.4,305.7,65.6z"/>
	<path class="st7" d="M320.2,70.3v-4.7c0-4.1,2.4-6.8,6-6.8c2.6,0,4.3,1.3,5,2.6v-8.6c0-0.2,0.1-0.4,0.4-0.4h3.1
		c0.3,0,0.4,0.2,0.4,0.4v23.5c0,0.3-0.2,0.4-0.4,0.4h-3c-0.3,0-0.4-0.2-0.4-0.4v-1.8c-0.7,1.2-2.5,2.6-5,2.6
		C322.6,77.1,320.2,74.4,320.2,70.3z M331.3,69.8v-3.6c0-2.5-1.6-3.9-3.6-3.9c-2.2,0-3.4,1.5-3.4,3.9v3.6c0,2.5,1.2,3.8,3.4,3.8
		C329.7,73.6,331.3,72.3,331.3,69.8z"/>
	<path class="st7" d="M341.6,81c-0.2,0.3-0.4,0.4-0.8,0.3l-1.6-0.7c-0.4-0.1-0.5-0.4-0.3-0.8c1.2-2.5,1.2-3.6,1.2-7.5
		c0-0.4,0.2-0.6,0.6-0.6h2.7c0.4,0,0.6,0.2,0.6,0.6C344,76.8,343,78.9,341.6,81z"/>
	<path class="st7" d="M373,59.2v0.4c0,2.4-1.3,4.2-3.3,4.9c2.3,0.4,4,2.4,4,5.3v0.5c0,3.9-2.4,6.4-7.2,6.4H358
		c-0.3,0-0.4-0.2-0.4-0.4V53.8c0-0.3,0.1-0.4,0.4-0.4h8.3C370.8,53.3,373,55.6,373,59.2z M361.7,56.9v6h4.1c2.4,0,3.3-1.4,3.3-2.9
		v-0.3c0-1.6-0.9-2.9-3.3-2.9h-4.1V56.9z M361.7,66.6v6.6h4.3c2.1,0,3.6-0.9,3.6-3v-0.4c0-2-1.3-3.1-3.6-3.1L361.7,66.6L361.7,66.6z
		"/>
	<path class="st7" d="M377.9,71.1V59.5c0-0.3,0.2-0.4,0.5-0.4h3c0.3,0,0.4,0.2,0.4,0.4v10.9c0,1.9,0.9,3,2.7,3c1.7,0,3.1-1.2,3.7-3
		V59.5c0-0.3,0.1-0.4,0.4-0.4h3.1c0.3,0,0.5,0.2,0.5,0.4v16.8c0,0.2-0.2,0.4-0.4,0.4h-3c-0.3,0-0.4-0.2-0.4-0.4v-2.1
		c-1.1,1.6-2.9,2.9-5.3,2.9C379.7,77.1,377.9,74.7,377.9,71.1z"/>
	<path class="st7" d="M401.1,52.9v3c0,0.4-0.2,0.6-0.6,0.6h-2.8c-0.4,0-0.6-0.2-0.6-0.6v-3c0-0.4,0.2-0.6,0.6-0.6h2.8
		C400.9,52.4,401.1,52.6,401.1,52.9z M401.1,59.5v16.8c0,0.3-0.2,0.4-0.4,0.4h-3c-0.3,0-0.5-0.2-0.5-0.4V59.5c0-0.3,0.2-0.4,0.5-0.4
		h3C400.9,59.1,401.1,59.2,401.1,59.5z"/>
	<path class="st7" d="M409.9,52.8v23.5c0,0.3-0.2,0.4-0.4,0.4h-3c-0.3,0-0.5-0.2-0.5-0.4V52.8c0-0.3,0.2-0.4,0.5-0.4h3
		C409.8,52.3,409.9,52.5,409.9,52.8z"/>
	<path class="st7" d="M419.9,55.2v4h3.5c0.3,0,0.4,0.2,0.4,0.5V62c0,0.3-0.2,0.4-0.4,0.4h-3.5v8.9c0,1.3,0.7,1.9,2.1,1.9h1.3
		c0.3,0,0.4,0.1,0.4,0.4v2.6c0,0.3-0.2,0.4-0.4,0.4h-2c-3.6,0-5.4-1.9-5.4-4.9v-9.4h-2.2c-0.3,0-0.4-0.1-0.4-0.4v-2.3
		c0-0.3,0.2-0.5,0.4-0.5h2.2v-4c0-0.3,0.2-0.4,0.4-0.4h2.9C419.7,54.7,419.9,54.9,419.9,55.2z"/>
	<path class="st7" d="M429,81c-0.2,0.3-0.4,0.4-0.8,0.3l-1.6-0.7c-0.4-0.1-0.5-0.4-0.3-0.8c1.2-2.5,1.2-3.6,1.2-7.5
		c0-0.4,0.2-0.6,0.6-0.6h2.7c0.4,0,0.6,0.2,0.6,0.6C431.4,76.8,430.5,78.9,429,81z"/>
	<path class="st7" d="M463.2,76.7h-3.7c-0.2,0-0.4-0.1-0.7-0.4l-1.4-1.7c-1.7,1.5-3.7,2.4-6.2,2.4c-4.2,0-7.1-2.6-7.1-6.4
		c0-3.2,2.1-5.1,4.7-6.3l-0.4-0.5c-1.3-1.5-2.4-3.3-2.4-5.3c0-3.2,2.5-5.7,6.5-5.7s6.4,2.3,6.4,5.6c0,2.9-2,4.9-4.9,6.6l3.8,4.5
		c1.1-1.6,1.5-3.3,1.8-4.8c0.1-0.4,0.3-0.5,0.7-0.4l2.3,0.7c0.4,0.1,0.4,0.4,0.4,0.7c-0.5,2.1-1.5,4.5-2.9,6.5l3.3,3.9
		C463.5,76.4,463.5,76.7,463.2,76.7z M455.3,72.2l-4.6-5.5c-1.6,0.9-2.6,2-2.6,3.6c0,1.8,1.4,3.5,3.6,3.5
		C453,73.8,454.2,73.2,455.3,72.2z M449.8,58.6c0,1.3,0.9,2.4,2,3.8l0.4,0.4c1.8-1.1,3-2.5,3-4.3c0-1.7-1-2.6-2.6-2.6
		C451,56,449.8,56.8,449.8,58.6z"/>
</g>
<g class="st6">
	<path class="st7" d="M490.2,53.8v2.9c0,0.2-0.2,0.4-0.4,0.4h-6.1v19.2c0,0.3-0.2,0.4-0.4,0.4H480c-0.3,0-0.4-0.2-0.4-0.4V57.1h-6.2
		c-0.3,0-0.4-0.2-0.4-0.4v-2.9c0-0.2,0.1-0.4,0.4-0.4h16.4C490,53.3,490.2,53.5,490.2,53.8z"/>
</g>
<g class="st6">
	<path class="st7" d="M494,69.1v1c0,2.3,1.2,3.7,3.7,3.7c2.4,0,3.1-0.9,3.7-2.1c0.3-0.4,0.4-0.5,0.8-0.3l2,1
		c0.4,0.2,0.5,0.5,0.3,0.9c-1.1,2.3-3.5,3.7-6.9,3.7c-4.9,0-7.5-2.9-7.5-7v-4.4c0-4,2.5-7,7.4-7c4.7,0,7.1,3,7.1,6.9v2.7
		c0,0.5-0.2,0.8-0.8,0.8H494V69.1z M494,65.6v0.9h7.1v-0.9c0-2.2-1.2-3.6-3.6-3.6S494,63.4,494,65.6z"/>
</g>
<g class="st6">
	<path class="st7" d="M521.7,62.9c0.1,0.3,0,0.5-0.3,0.6l-2.3,0.8c-0.4,0.1-0.5,0-0.6-0.3c-0.5-1.4-1.7-2.1-3.4-2.1
		c-1.8,0-2.8,0.7-2.8,1.9c0,1.1,0.7,1.5,4.1,2.5c4,1.1,5.6,2.7,5.6,5.5c0,3.3-2.7,5.4-6.8,5.4c-3.7,0-6.4-1.5-7.2-4.2
		c-0.1-0.4,0-0.5,0.4-0.7l2.1-1c0.4-0.1,0.6-0.1,0.7,0.4c0.5,1.5,2,2.4,3.9,2.4c2,0,3.1-0.8,3.1-2s-1-1.8-4.3-2.7
		c-3.8-1.1-5.4-2.6-5.4-5.3c0-3.2,2.6-5.3,6.5-5.3C518.4,58.7,520.8,60.3,521.7,62.9z"/>
</g>
<g class="st6">
	<path class="st7" d="M530.9,55.2v4h3.5c0.3,0,0.4,0.2,0.4,0.5V62c0,0.3-0.2,0.4-0.4,0.4h-3.5v8.9c0,1.3,0.7,1.9,2.1,1.9h1.3
		c0.3,0,0.4,0.1,0.4,0.4v2.6c0,0.3-0.2,0.4-0.4,0.4h-2c-3.6,0-5.4-1.9-5.4-4.9v-9.4h-2.2c-0.3,0-0.4-0.1-0.4-0.4v-2.3
		c0-0.3,0.2-0.5,0.4-0.5h2.2v-4c0-0.3,0.2-0.4,0.4-0.4h2.9C530.8,54.7,530.9,54.9,530.9,55.2z"/>
	<path class="st7" d="M541.8,69.1v1c0,2.3,1.2,3.7,3.7,3.7c2.4,0,3.1-0.9,3.7-2.1c0.3-0.4,0.4-0.5,0.8-0.3l2,1
		c0.4,0.2,0.5,0.5,0.3,0.9c-1.1,2.3-3.5,3.7-6.9,3.7c-4.9,0-7.5-2.9-7.5-7v-4.4c0-4,2.5-7,7.4-7c4.7,0,7.1,3,7.1,6.9v2.7
		c0,0.5-0.2,0.8-0.8,0.8h-9.8V69.1z M541.8,65.6v0.9h7.1v-0.9c0-2.2-1.2-3.6-3.6-3.6S541.8,63.4,541.8,65.6z"/>
	<path class="st7" d="M556.3,70.3v-4.7c0-4.1,2.4-6.8,6-6.8c2.6,0,4.3,1.3,5,2.6v-8.6c0-0.2,0.1-0.4,0.4-0.4h3.1
		c0.3,0,0.4,0.2,0.4,0.4v23.5c0,0.3-0.2,0.4-0.4,0.4h-3c-0.3,0-0.4-0.2-0.4-0.4v-1.8c-0.7,1.2-2.5,2.6-5,2.6
		C558.7,77.1,556.3,74.4,556.3,70.3z M567.4,69.8v-3.6c0-2.5-1.6-3.9-3.6-3.9c-2.2,0-3.4,1.5-3.4,3.9v3.6c0,2.5,1.2,3.8,3.4,3.8
		C565.7,73.6,567.4,72.3,567.4,69.8z"/>
</g>
<g class="st6">
	<path class="st7" d="M220.6,97.1c0.1,0.4,0,0.6-0.3,0.7l-2.7,0.8c-0.4,0.1-0.6,0-0.7-0.4c-0.6-1.9-1.7-3.2-4.2-3.2
		c-3,0-4.4,1.9-4.4,5v6.6c0,3.1,1.5,5,4.4,5c2.6,0,3.8-1.4,4.3-3.4c0.1-0.4,0.3-0.5,0.7-0.4l2.7,0.9c0.3,0.1,0.4,0.3,0.4,0.7
		c-0.9,3.4-3.4,6-8.1,6c-5.4,0-8.4-3.4-8.4-8.6v-7c0-5.2,3.1-8.6,8.4-8.6C217.3,91.4,219.6,93.7,220.6,97.1z"/>
	<path class="st7" d="M228.5,91.3v3c0,0.4-0.2,0.6-0.6,0.6h-2.8c-0.4,0-0.6-0.2-0.6-0.6v-3c0-0.4,0.2-0.6,0.6-0.6h2.8
		C228.3,90.8,228.5,91,228.5,91.3z M228.5,97.9v16.8c0,0.3-0.2,0.4-0.4,0.4h-3c-0.3,0-0.5-0.2-0.5-0.4V97.9c0-0.3,0.2-0.4,0.5-0.4h3
		C228.3,97.5,228.5,97.6,228.5,97.9z"/>
</g>
<g class="st6">
	<path class="st7" d="M243,97.7v2.8c0,0.4-0.1,0.5-0.5,0.5h-0.4c-2.6,0-4.1,1.3-4.8,3.3v10.4c0,0.3-0.2,0.4-0.4,0.4h-3.2
		c-0.2,0-0.4-0.1-0.4-0.4V97.9c0-0.3,0.2-0.4,0.4-0.4h2.9c0.3,0,0.4,0.2,0.4,0.4v2.5c0.9-1.6,2.6-3.2,5.3-3.2
		C243,97.3,243,97.3,243,97.7z"/>
</g>
<g class="st6">
	<path class="st7" d="M259.3,102.2c0,0.3,0,0.5-0.4,0.6l-2.4,0.7c-0.5,0.1-0.6,0.1-0.7-0.3c-0.4-1.1-0.9-2.5-3.2-2.5
		c-2.2,0-3.3,1.4-3.3,3.8v3.9c0,2.4,1.2,3.7,3.3,3.7s2.8-1,3.3-2.4c0.1-0.4,0.3-0.5,0.7-0.3l2.5,0.9c0.4,0.1,0.4,0.4,0.3,0.7
		c-0.5,2.5-2.9,4.7-7,4.7c-4.4,0-7-2.9-7-7v-4.3c0-4.1,2.6-7.1,7-7.1C256.2,97.1,258.8,99,259.3,102.2z"/>
	<path class="st7" d="M263,109.5V97.9c0-0.3,0.2-0.4,0.5-0.4h3c0.3,0,0.4,0.2,0.4,0.4v10.9c0,1.9,0.9,3,2.7,3c1.7,0,3.1-1.2,3.7-3
		V97.9c0-0.3,0.1-0.4,0.4-0.4h3.1c0.3,0,0.5,0.2,0.5,0.4v16.8c0,0.2-0.2,0.4-0.4,0.4h-3c-0.3,0-0.4-0.2-0.4-0.4v-2.1
		c-1.1,1.6-2.9,2.9-5.3,2.9C264.9,115.5,263,113.1,263,109.5z"/>
	<path class="st7" d="M286.3,91.3v3c0,0.4-0.2,0.6-0.6,0.6h-2.8c-0.4,0-0.6-0.2-0.6-0.6v-3c0-0.4,0.2-0.6,0.6-0.6h2.8
		C286.1,90.8,286.3,91,286.3,91.3z M286.3,97.9v16.8c0,0.3-0.2,0.4-0.4,0.4h-3c-0.3,0-0.5-0.2-0.5-0.4V97.9c0-0.3,0.2-0.4,0.5-0.4h3
		C286.1,97.5,286.3,97.6,286.3,97.9z"/>
	<path class="st7" d="M296.2,93.6v4h3.5c0.3,0,0.4,0.2,0.4,0.5v2.3c0,0.3-0.2,0.4-0.4,0.4h-3.5v8.9c0,1.3,0.7,1.9,2.1,1.9h1.3
		c0.3,0,0.4,0.1,0.4,0.4v2.6c0,0.3-0.2,0.4-0.4,0.4h-2c-3.6,0-5.4-1.9-5.4-4.9v-9.4H290c-0.3,0-0.4-0.1-0.4-0.4V98
		c0-0.3,0.2-0.5,0.4-0.5h2.2v-4c0-0.3,0.2-0.4,0.4-0.4h2.9C296.1,93.1,296.2,93.3,296.2,93.6z"/>
	<path class="st7" d="M312.2,109.5V97.9c0-0.3,0.2-0.4,0.5-0.4h3c0.3,0,0.4,0.2,0.4,0.4v10.9c0,1.9,0.9,3,2.7,3c1.7,0,3.1-1.2,3.7-3
		V97.9c0-0.3,0.1-0.4,0.4-0.4h3.1c0.3,0,0.5,0.2,0.5,0.4v16.8c0,0.2-0.2,0.4-0.4,0.4h-3c-0.3,0-0.4-0.2-0.4-0.4v-2.1
		c-1.1,1.6-2.9,2.9-5.3,2.9C314,115.5,312.2,113.1,312.2,109.5z"/>
	<path class="st7" d="M344.2,101.3c0.1,0.3,0,0.5-0.3,0.6l-2.3,0.8c-0.4,0.1-0.5,0-0.6-0.3c-0.5-1.4-1.7-2.1-3.4-2.1
		c-1.8,0-2.8,0.7-2.8,1.9c0,1.1,0.7,1.5,4.1,2.5c4,1.1,5.6,2.7,5.6,5.5c0,3.3-2.7,5.4-6.8,5.4c-3.7,0-6.4-1.5-7.2-4.2
		c-0.1-0.4,0-0.5,0.4-0.7l2.1-1c0.4-0.1,0.6-0.1,0.7,0.4c0.5,1.5,2,2.4,3.9,2.4c2,0,3.1-0.8,3.1-2s-1-1.8-4.3-2.7
		c-3.8-1.1-5.4-2.6-5.4-5.3c0-3.2,2.6-5.3,6.5-5.3C340.8,97.1,343.3,98.7,344.2,101.3z"/>
	<path class="st7" d="M352.3,91.3v3c0,0.4-0.2,0.6-0.6,0.6H349c-0.4,0-0.6-0.2-0.6-0.6v-3c0-0.4,0.2-0.6,0.6-0.6h2.8
		C352.1,90.8,352.3,91,352.3,91.3z M352.3,97.9v16.8c0,0.3-0.2,0.4-0.4,0.4h-3c-0.3,0-0.5-0.2-0.5-0.4V97.9c0-0.3,0.2-0.4,0.5-0.4h3
		C352.2,97.5,352.3,97.6,352.3,97.9z"/>
	<path class="st7" d="M361.2,103.8v10.9c0,0.3-0.2,0.4-0.4,0.4h-3c-0.3,0-0.5-0.2-0.5-0.4V97.9c0-0.2,0.1-0.4,0.4-0.4h3
		c0.3,0,0.4,0.2,0.4,0.4v2.1c1.1-1.6,2.9-2.9,5.3-2.9c3.4,0,5.2,2.4,5.2,6v11.6c0,0.3-0.2,0.4-0.4,0.4h-3c-0.3,0-0.5-0.2-0.5-0.4
		v-10.9c0-1.9-0.9-3.1-2.7-3.1C363.2,100.7,361.8,102,361.2,103.8z"/>
	<path class="st7" d="M391,116.4c0,3-2.2,5.5-8.3,5.5c-5.5,0-7.6-1.9-7.6-4.7c0-1.5,0.9-2.9,2.7-3.7c-0.8-0.6-1.2-1.6-1.2-2.3
		c0-1.1,0.6-2,1.8-2.6c-1.8-1.1-2.8-2.8-2.8-5c0-3.5,2.2-6.1,6.9-6.1h7.9c0.2,0,0.4,0.2,0.4,0.4v2.2c0,0.3-0.2,0.4-0.4,0.4h-2.8
		c0.9,0.8,1.6,2,1.6,3.6c0,3-2.1,5.4-6.6,5.4h-1.1c-1.1,0-1.5,0.4-1.5,1.1c0,0.5,0.5,1,1.5,1h3.6C389.3,111.6,391,113.6,391,116.4z
		 M387.2,116.7c0-1-0.6-2-2.7-2h-3.2c-1.9,0-2.6,1-2.6,2c0,1.5,1.2,2.4,4.2,2.4C385.9,119.2,387.2,118.1,387.2,116.7z M379.2,103.6
		c0,1.9,1.1,3.2,3.3,3.2c2,0,3.2-1.2,3.2-3.2c0-1.9-1.1-3.2-3.2-3.2C380.4,100.5,379.2,101.6,379.2,103.6z"/>
</g>
<g class="st6">
	<path class="st7" d="M419.5,115.1h-3.3c-0.3,0-0.4-0.1-0.5-0.4l-1.7-5.4h-8l-1.7,5.4c-0.1,0.3-0.3,0.4-0.6,0.4h-3.1
		c-0.3,0-0.4-0.2-0.3-0.5l7-22.5c0.1-0.3,0.3-0.4,0.6-0.4h4.1c0.4,0,0.5,0.1,0.6,0.4l7.1,22.5C419.9,114.9,419.7,115.1,419.5,115.1z
		 M412.8,105.6l-0.9-2.8c-0.6-2.2-1.4-4.9-1.9-6.9l0,0c-0.4,2-1.2,4.7-1.9,6.9l-0.8,2.7h5.5V105.6z"/>
</g>
<g class="st6">
	<path class="st7" d="M432.7,97.7v2.8c0,0.4-0.1,0.5-0.5,0.5h-0.4c-2.6,0-4.1,1.3-4.8,3.3v10.4c0,0.3-0.2,0.4-0.4,0.4h-3.2
		c-0.2,0-0.4-0.1-0.4-0.4V97.9c0-0.3,0.2-0.4,0.4-0.4h2.9c0.3,0,0.4,0.2,0.4,0.4v2.5c0.9-1.6,2.6-3.2,5.3-3.2
		C432.6,97.3,432.7,97.3,432.7,97.7z"/>
</g>
<g class="st6">
	<path class="st7" d="M435.1,108.7V104c0-4.1,2.4-6.8,6-6.8c2.6,0,4.3,1.3,5,2.6v-8.6c0-0.2,0.1-0.4,0.4-0.4h3.1
		c0.3,0,0.4,0.2,0.4,0.4v23.5c0,0.3-0.2,0.4-0.4,0.4h-3c-0.3,0-0.4-0.2-0.4-0.4v-1.8c-0.7,1.2-2.5,2.6-5,2.6
		C437.5,115.5,435.1,112.8,435.1,108.7z M446.2,108.2v-3.6c0-2.5-1.6-3.9-3.6-3.9c-2.2,0-3.4,1.5-3.4,3.9v3.6c0,2.5,1.2,3.8,3.4,3.8
		C444.5,112,446.2,110.7,446.2,108.2z"/>
	<path class="st7" d="M454.9,109.5V97.9c0-0.3,0.2-0.4,0.5-0.4h3c0.3,0,0.4,0.2,0.4,0.4v10.9c0,1.9,0.9,3,2.7,3c1.7,0,3.1-1.2,3.7-3
		V97.9c0-0.3,0.1-0.4,0.4-0.4h3.1c0.3,0,0.5,0.2,0.5,0.4v16.8c0,0.2-0.2,0.4-0.4,0.4h-3c-0.3,0-0.4-0.2-0.4-0.4v-2.1
		c-1.1,1.6-2.9,2.9-5.3,2.9C456.7,115.5,454.9,113.1,454.9,109.5z"/>
	<path class="st7" d="M478.1,91.3v3c0,0.4-0.2,0.6-0.6,0.6h-2.8c-0.4,0-0.6-0.2-0.6-0.6v-3c0-0.4,0.2-0.6,0.6-0.6h2.8
		C477.9,90.8,478.1,91,478.1,91.3z M478.1,97.9v16.8c0,0.3-0.2,0.4-0.4,0.4h-3c-0.3,0-0.5-0.2-0.5-0.4V97.9c0-0.3,0.2-0.4,0.5-0.4h3
		C477.9,97.5,478.1,97.6,478.1,97.9z"/>
	<path class="st7" d="M486.9,103.8v10.9c0,0.3-0.2,0.4-0.4,0.4h-3c-0.3,0-0.5-0.2-0.5-0.4V97.9c0-0.2,0.1-0.4,0.4-0.4h3
		c0.3,0,0.4,0.2,0.4,0.4v2.1c1.1-1.6,2.9-2.9,5.3-2.9c3.4,0,5.2,2.4,5.2,6v11.6c0,0.3-0.2,0.4-0.4,0.4h-3c-0.3,0-0.5-0.2-0.5-0.4
		v-10.9c0-1.9-0.9-3.1-2.7-3.1C489,100.7,487.6,102,486.9,103.8z"/>
	<path class="st7" d="M516.6,104.2v4.2c0,4.2-2.4,7.1-7.5,7.1c-5.1,0-7.5-2.9-7.5-7v-4.2c0-4.2,2.4-7.2,7.5-7.2
		C514.2,97.1,516.6,100.1,516.6,104.2z M505.5,104.4v3.9c0,2.4,1.2,3.7,3.5,3.7c2.4,0,3.6-1.3,3.6-3.7v-3.9c0-2.4-1.2-3.8-3.6-3.8
		C506.7,100.6,505.5,102.1,505.5,104.4z"/>
</g>
<g class="st6">
	<path class="st7" d="M546.7,92.2v14.9c0,4.9-3,8.4-8.6,8.4s-8.5-3.3-8.5-8.4V92.2c0-0.3,0.2-0.4,0.4-0.4h3.2c0.4,0,0.5,0.2,0.5,0.4
		V107c0,3,1.4,4.8,4.4,4.8c3.1,0,4.5-1.8,4.5-4.8V92.2c0-0.3,0.2-0.4,0.4-0.4h3.2C546.6,91.7,546.7,91.9,546.7,92.2z"/>
</g>
<g class="st6">
	<path class="st7" d="M555.6,103.8v10.9c0,0.3-0.2,0.4-0.4,0.4h-3c-0.3,0-0.5-0.2-0.5-0.4V97.9c0-0.2,0.1-0.4,0.4-0.4h3
		c0.3,0,0.4,0.2,0.4,0.4v2.1c1.1-1.6,2.9-2.9,5.3-2.9c3.4,0,5.2,2.4,5.2,6v11.6c0,0.3-0.2,0.4-0.4,0.4h-3c-0.3,0-0.5-0.2-0.5-0.4
		v-10.9c0-1.9-0.9-3.1-2.7-3.1S556.2,102,555.6,103.8z"/>
	<path class="st7" d="M585.2,104.2v4.2c0,4.2-2.4,7.1-7.5,7.1s-7.5-2.9-7.5-7v-4.2c0-4.2,2.4-7.2,7.5-7.2S585.2,100.1,585.2,104.2z
		 M574.1,104.4v3.9c0,2.4,1.2,3.7,3.5,3.7c2.4,0,3.6-1.3,3.6-3.7v-3.9c0-2.4-1.2-3.8-3.6-3.8C575.3,100.6,574.1,102.1,574.1,104.4z"
		/>
</g>
<g class="st6">
	<path class="st7" d="M298.1,349.5c0.1,0.4,0,0.6-0.3,0.7l-2.7,0.8c-0.4,0.1-0.6,0-0.7-0.4c-0.6-1.9-1.7-3.2-4.2-3.2
		c-3,0-4.4,1.9-4.4,5v6.6c0,3.1,1.5,5,4.4,5c2.6,0,3.8-1.4,4.3-3.4c0.1-0.4,0.3-0.5,0.7-0.4l2.7,0.9c0.3,0.1,0.4,0.3,0.4,0.7
		c-0.9,3.4-3.4,6-8.1,6c-5.4,0-8.4-3.4-8.4-8.6v-7c0-5.2,3.1-8.6,8.4-8.6C294.8,343.8,297.1,346.2,298.1,349.5z"/>
	<path class="st7" d="M305.9,343.8v3c0,0.4-0.2,0.6-0.6,0.6h-2.8c-0.4,0-0.6-0.2-0.6-0.6v-3c0-0.4,0.2-0.6,0.6-0.6h2.8
		C305.7,343.2,305.9,343.4,305.9,343.8z M305.9,350.3v16.8c0,0.3-0.2,0.4-0.4,0.4h-3c-0.3,0-0.5-0.2-0.5-0.4v-16.8
		c0-0.3,0.2-0.4,0.5-0.4h3C305.8,349.9,305.9,350.1,305.9,350.3z"/>
</g>
<g class="st6">
	<path class="st7" d="M320.5,350.2v2.8c0,0.4-0.1,0.5-0.5,0.5h-0.4c-2.6,0-4.1,1.3-4.8,3.3v10.4c0,0.3-0.2,0.4-0.4,0.4h-3.2
		c-0.2,0-0.4-0.1-0.4-0.4v-16.8c0-0.3,0.2-0.4,0.4-0.4h2.9c0.3,0,0.4,0.2,0.4,0.4v2.5c0.9-1.6,2.6-3.2,5.3-3.2
		C320.4,349.7,320.5,349.8,320.5,350.2z"/>
</g>
<g class="st6">
	<path class="st7" d="M336.8,354.6c0,0.3,0,0.5-0.4,0.6l-2.4,0.7c-0.5,0.1-0.6,0.1-0.7-0.3c-0.4-1.1-0.9-2.5-3.2-2.5
		c-2.2,0-3.3,1.4-3.3,3.8v3.9c0,2.4,1.2,3.7,3.3,3.7c2.1,0,2.8-1,3.3-2.4c0.1-0.4,0.3-0.5,0.7-0.3l2.5,0.9c0.4,0.1,0.4,0.4,0.3,0.7
		c-0.5,2.5-2.9,4.7-7,4.7c-4.4,0-7-2.9-7-7v-4.3c0-4.1,2.6-7.1,7-7.1C333.6,349.5,336.2,351.4,336.8,354.6z"/>
	<path class="st7" d="M340.5,361.9v-11.6c0-0.3,0.2-0.4,0.5-0.4h3c0.3,0,0.4,0.2,0.4,0.4v10.9c0,1.9,0.9,3,2.7,3
		c1.7,0,3.1-1.2,3.7-3v-10.9c0-0.3,0.1-0.4,0.4-0.4h3.1c0.3,0,0.5,0.2,0.5,0.4v16.8c0,0.2-0.2,0.4-0.4,0.4h-3
		c-0.3,0-0.4-0.2-0.4-0.4V365c-1.1,1.6-2.9,2.9-5.3,2.9C342.4,367.9,340.5,365.5,340.5,361.9z"/>
	<path class="st7" d="M363.7,343.8v3c0,0.4-0.2,0.6-0.6,0.6h-2.8c-0.4,0-0.6-0.2-0.6-0.6v-3c0-0.4,0.2-0.6,0.6-0.6h2.8
		C363.5,343.2,363.7,343.4,363.7,343.8z M363.7,350.3v16.8c0,0.3-0.2,0.4-0.4,0.4h-3c-0.3,0-0.5-0.2-0.5-0.4v-16.8
		c0-0.3,0.2-0.4,0.5-0.4h3C363.6,349.9,363.7,350.1,363.7,350.3z"/>
	<path class="st7" d="M373.6,346v4h3.5c0.3,0,0.4,0.2,0.4,0.5v2.3c0,0.3-0.2,0.4-0.4,0.4h-3.5v8.9c0,1.3,0.7,1.9,2.1,1.9h1.3
		c0.3,0,0.4,0.1,0.4,0.4v2.6c0,0.3-0.2,0.4-0.4,0.4h-2c-3.6,0-5.4-1.9-5.4-4.9v-9.4h-2.2c-0.3,0-0.4-0.1-0.4-0.4v-2.3
		c0-0.3,0.2-0.5,0.4-0.5h2.2v-4c0-0.3,0.2-0.4,0.4-0.4h2.9C373.5,345.5,373.6,345.7,373.6,346z"/>
	<path class="st7" d="M405.4,351.4v1.5c0,4.4-2.6,7.3-7.6,7.3h-3.5v7c0,0.3-0.2,0.4-0.5,0.4h-3.2c-0.3,0-0.4-0.2-0.4-0.4v-22.6
		c0-0.2,0.2-0.4,0.4-0.4h7.1C402.8,344.1,405.4,347,405.4,351.4z M394.3,347.8v8.6h3.1c2.9,0,3.9-1.3,3.9-3.8v-0.9
		c0-2.5-1-3.8-3.9-3.8h-3.1V347.8z"/>
	<path class="st7" d="M413.3,343.6v23.5c0,0.3-0.2,0.4-0.4,0.4h-3c-0.3,0-0.5-0.2-0.5-0.4v-23.5c0-0.3,0.2-0.4,0.5-0.4h3
		C413.1,343.1,413.3,343.3,413.3,343.6z"/>
	<path class="st7" d="M431.4,355.4v11.7c0,0.3-0.2,0.4-0.4,0.4h-2.8c-0.3,0-0.4-0.2-0.4-0.4V365c-1.1,1.8-2.9,2.9-5.1,2.9
		c-3.3,0-5.4-2.2-5.4-5.3c0-3.2,2.1-5.1,6.7-5.4c1.2-0.1,2.4-0.1,3.6,0v-1.6c0-2-1.1-2.8-2.9-2.8s-2.5,0.7-2.9,1.9
		c-0.1,0.4-0.3,0.4-0.6,0.3l-2.8-0.7c-0.3-0.1-0.4-0.3-0.3-0.5c0.5-2.5,2.8-4.2,6.8-4.2C428.9,349.5,431.4,351.5,431.4,355.4z
		 M427.5,361.9v-2.2c-1.1,0-2.2,0-3.3,0.1c-2.1,0.2-3.3,0.9-3.3,2.6c0,1.4,1,2.4,2.7,2.4C425.5,364.7,426.8,363.7,427.5,361.9z"/>
	<path class="st7" d="M440.1,356.2v10.9c0,0.3-0.2,0.4-0.4,0.4h-3c-0.3,0-0.5-0.2-0.5-0.4v-16.8c0-0.2,0.1-0.4,0.4-0.4h3
		c0.3,0,0.4,0.2,0.4,0.4v2.1c1.1-1.6,2.9-2.9,5.3-2.9c3.4,0,5.2,2.4,5.2,6v11.6c0,0.3-0.2,0.4-0.4,0.4h-3c-0.3,0-0.5-0.2-0.5-0.4
		v-10.9c0-1.9-0.9-3.1-2.7-3.1C442.2,353.2,440.8,354.4,440.1,356.2z"/>
	<path class="st7" d="M459.2,356.2v10.9c0,0.3-0.2,0.4-0.4,0.4h-3c-0.3,0-0.5-0.2-0.5-0.4v-16.8c0-0.2,0.1-0.4,0.4-0.4h3
		c0.3,0,0.4,0.2,0.4,0.4v2.1c1.1-1.6,2.9-2.9,5.3-2.9c3.4,0,5.2,2.4,5.2,6v11.6c0,0.3-0.2,0.4-0.4,0.4h-3c-0.3,0-0.5-0.2-0.5-0.4
		v-10.9c0-1.9-0.9-3.1-2.7-3.1C461.3,353.2,459.9,354.4,459.2,356.2z"/>
	<path class="st7" d="M477.7,359.9v1c0,2.3,1.2,3.7,3.7,3.7c2.4,0,3.1-0.9,3.7-2.1c0.3-0.4,0.4-0.5,0.8-0.3l2,1
		c0.4,0.2,0.5,0.5,0.3,0.9c-1.1,2.3-3.5,3.7-6.9,3.7c-4.9,0-7.5-2.9-7.5-7v-4.4c0-4,2.5-7,7.4-7c4.7,0,7.1,3,7.1,6.9v2.7
		c0,0.5-0.2,0.8-0.8,0.8L477.7,359.9L477.7,359.9z M477.7,356.4v0.9h7.1v-0.9c0-2.2-1.2-3.6-3.6-3.6S477.7,354.2,477.7,356.4z"/>
	<path class="st7" d="M492.2,361.2v-4.7c0-4.1,2.4-6.8,6-6.8c2.6,0,4.3,1.3,5,2.6v-8.6c0-0.2,0.1-0.4,0.4-0.4h3.1
		c0.3,0,0.4,0.2,0.4,0.4v23.5c0,0.3-0.2,0.4-0.4,0.4h-3c-0.3,0-0.4-0.2-0.4-0.4v-1.8c-0.7,1.2-2.5,2.6-5,2.6
		C494.5,367.9,492.2,365.2,492.2,361.2z M503.2,360.6V357c0-2.5-1.6-3.9-3.6-3.9c-2.2,0-3.4,1.5-3.4,3.9v3.6c0,2.5,1.2,3.8,3.4,3.8
		C501.6,364.4,503.2,363.1,503.2,360.6z"/>
</g>
<g class="st6">
	<path class="st7" d="M185.1,652.6v0.4c0,2.4-1.4,4.3-3.6,5c2.4,0.5,4.1,2.5,4.1,5.3v0.4c0,4.1-3.1,6.8-8,6.8c-4.5,0-7-2.6-7.8-5.5
		c-0.1-0.4,0-0.6,0.3-0.7l2.5-0.9c0.4-0.1,0.7,0,0.8,0.3c0.7,2,2,3.2,4.3,3.2c2.4,0,3.8-1.3,3.8-3.3v-0.4c0-2.1-1.3-3.2-4.1-3.2
		h-1.7c-0.3,0-0.5-0.2-0.5-0.5v-2.6c0-0.3,0.2-0.4,0.5-0.4h1.7c2.3,0,3.7-1.2,3.7-3.1V653c0-2-1.4-3-3.6-3c-2,0-3.2,0.9-3.8,2.7
		c-0.1,0.3-0.4,0.4-0.7,0.3l-2.5-1.3c-0.3-0.1-0.3-0.4-0.2-0.7c1.1-2.8,3.3-4.6,7.4-4.6C182.5,646.4,185.1,649,185.1,652.6z"/>
	<path class="st7" d="M207.4,655.3v6.2c0,5.1-3,8.7-9.2,8.7h-7.3c-0.3,0-0.4-0.2-0.4-0.4v-22.5c0-0.3,0.1-0.4,0.4-0.4h7.3
		C204.4,646.7,207.4,650.3,207.4,655.3z M194.6,650.5v15.8h3.6c3.6,0,5.2-1.8,5.2-5v-5.9c0-3.1-1.5-5-5.2-5h-3.6V650.5z"/>
</g>
<g class="st6">
	<path class="st7" d="M242.5,647.3v22.4c0,0.3-0.1,0.4-0.4,0.4h-2.9c-0.3,0-0.4-0.2-0.4-0.4V657c0-1.8,0.1-4.6,0.3-6.3H239
		l-5.1,18.9c-0.1,0.4-0.3,0.6-0.7,0.6h-2.8c-0.4,0-0.6-0.2-0.7-0.6l-5.2-18.9h-0.1c0.1,1.7,0.3,4.5,0.3,6.3v12.7
		c0,0.3-0.2,0.4-0.4,0.4h-2.8c-0.3,0-0.4-0.2-0.4-0.4v-22.4c0-0.4,0.2-0.6,0.6-0.6h4.7c0.4,0,0.6,0.2,0.7,0.6l3.2,11.5
		c0.7,2.7,1.2,4.5,1.6,6.9h0.1c0.4-2.3,0.9-4.2,1.6-6.9l3.2-11.5c0.1-0.4,0.3-0.6,0.7-0.6h4.6C242.3,646.7,242.5,647,242.5,647.3z"
		/>
</g>
<g class="st6">
	<path class="st7" d="M262,659.2v4.2c0,4.2-2.4,7.1-7.5,7.1s-7.5-2.9-7.5-7v-4.2c0-4.2,2.4-7.2,7.5-7.2S262,655.1,262,659.2z
		 M251,659.4v3.9c0,2.4,1.2,3.7,3.5,3.7c2.4,0,3.6-1.3,3.6-3.7v-3.9c0-2.4-1.2-3.8-3.6-3.8C252.2,655.6,251,657.1,251,659.4z"/>
	<path class="st7" d="M265.9,663.8V659c0-4.1,2.4-6.8,6-6.8c2.6,0,4.3,1.3,5,2.6v-8.6c0-0.2,0.1-0.4,0.4-0.4h3.1
		c0.3,0,0.4,0.2,0.4,0.4v23.5c0,0.3-0.2,0.4-0.4,0.4h-3c-0.3,0-0.4-0.2-0.4-0.4v-1.8c-0.7,1.2-2.5,2.6-5,2.6
		C268.3,670.5,265.9,667.8,265.9,663.8z M276.9,663.2v-3.6c0-2.5-1.6-3.9-3.6-3.9c-2.2,0-3.4,1.5-3.4,3.9v3.6c0,2.5,1.2,3.8,3.4,3.8
		C275.3,667,276.9,665.7,276.9,663.2z"/>
	<path class="st7" d="M289,662.5v1c0,2.3,1.2,3.7,3.7,3.7c2.4,0,3.1-0.9,3.7-2.1c0.3-0.4,0.4-0.5,0.8-0.3l2,1
		c0.4,0.2,0.5,0.5,0.3,0.9c-1.1,2.3-3.5,3.7-6.9,3.7c-4.9,0-7.5-2.9-7.5-7V659c0-4,2.5-7,7.4-7c4.7,0,7.1,3,7.1,6.9v2.7
		c0,0.5-0.2,0.8-0.8,0.8L289,662.5L289,662.5z M289,659v0.9h7.1V659c0-2.2-1.2-3.6-3.6-3.6C290.2,655.4,289,656.8,289,659z"/>
	<path class="st7" d="M308,646.2v23.5c0,0.3-0.2,0.4-0.4,0.4h-3c-0.3,0-0.5-0.2-0.5-0.4v-23.5c0-0.3,0.2-0.4,0.5-0.4h3
		C307.8,645.7,308,645.9,308,646.2z"/>
</g>
<g class="st6">
	<path class="st7" d="M330.5,646.2v2.4c0,0.2-0.1,0.4-0.4,0.4h-1.5c-1.5,0-2.1,0.6-2.1,1.9v1.8h3.7c0.2,0,0.4,0.2,0.4,0.4v2.4
		c0,0.3-0.2,0.4-0.4,0.4h-3.6v13.9c0,0.3-0.2,0.4-0.4,0.4h-3.1c-0.3,0-0.5-0.1-0.5-0.4v-13.9h-2.4c-0.2,0-0.4-0.2-0.4-0.4V653
		c0-0.2,0.2-0.4,0.4-0.4h2.4V651c0-3.3,1.9-5.2,5.4-5.2h2.1C330.4,645.8,330.5,646,330.5,646.2z"/>
</g>
<g class="st6">
	<path class="st7" d="M347.9,659.2v4.2c0,4.2-2.4,7.1-7.5,7.1s-7.5-2.9-7.5-7v-4.2c0-4.2,2.4-7.2,7.5-7.2S347.9,655.1,347.9,659.2z
		 M336.9,659.4v3.9c0,2.4,1.2,3.7,3.5,3.7c2.4,0,3.6-1.3,3.6-3.7v-3.9c0-2.4-1.2-3.8-3.6-3.8C338.1,655.6,336.9,657.1,336.9,659.4z"
		/>
</g>
<g class="st6">
	<path class="st7" d="M361.9,652.7v2.8c0,0.4-0.1,0.5-0.5,0.5H361c-2.6,0-4.1,1.3-4.8,3.3v10.4c0,0.3-0.2,0.4-0.4,0.4h-3.2
		c-0.2,0-0.4-0.1-0.4-0.4v-16.8c0-0.3,0.2-0.4,0.4-0.4h2.9c0.3,0,0.4,0.2,0.4,0.4v2.5c0.9-1.6,2.6-3.2,5.3-3.2
		C361.8,652.3,361.9,652.4,361.9,652.7z"/>
</g>
<g class="st6">
	<path class="st7" d="M394.9,647.3v22.4c0,0.3-0.1,0.4-0.4,0.4h-2.9c-0.3,0-0.4-0.2-0.4-0.4V657c0-1.8,0.1-4.6,0.3-6.3h-0.1
		l-5.1,18.9c-0.1,0.4-0.3,0.6-0.7,0.6h-2.8c-0.4,0-0.6-0.2-0.7-0.6l-5.2-18.9h-0.1c0.1,1.7,0.3,4.5,0.3,6.3v12.7
		c0,0.3-0.2,0.4-0.4,0.4h-2.8c-0.3,0-0.4-0.2-0.4-0.4v-22.4c0-0.4,0.2-0.6,0.6-0.6h4.7c0.4,0,0.6,0.2,0.7,0.6l3.2,11.5
		c0.7,2.7,1.2,4.5,1.6,6.9h0.1c0.4-2.3,0.9-4.2,1.6-6.9l3.2-11.5c0.1-0.4,0.3-0.6,0.7-0.6h4.6C394.7,646.7,394.9,647,394.9,647.3z"
		/>
</g>
<g class="st6">
	<path class="st7" d="M413.4,658v11.7c0,0.3-0.2,0.4-0.4,0.4h-2.8c-0.3,0-0.4-0.2-0.4-0.4v-2.1c-1.1,1.8-2.9,2.9-5.1,2.9
		c-3.3,0-5.4-2.2-5.4-5.3c0-3.2,2.1-5.1,6.7-5.4c1.2-0.1,2.4-0.1,3.6,0v-1.6c0-2-1.1-2.8-2.9-2.8s-2.5,0.7-2.9,1.9
		c-0.1,0.4-0.3,0.4-0.6,0.3l-2.8-0.7c-0.3-0.1-0.4-0.3-0.3-0.5c0.5-2.5,2.8-4.2,6.8-4.2C410.9,652.1,413.4,654.1,413.4,658z
		 M409.5,664.5v-2.2c-1.1,0-2.2,0-3.3,0.1c-2.1,0.2-3.3,0.9-3.3,2.6c0,1.4,1,2.4,2.7,2.4C407.4,667.3,408.8,666.2,409.5,664.5z"/>
</g>
<g class="st6">
	<path class="st7" d="M423,648.6v4h3.5c0.3,0,0.4,0.2,0.4,0.5v2.3c0,0.3-0.2,0.4-0.4,0.4H423v8.9c0,1.3,0.7,1.9,2.1,1.9h1.3
		c0.3,0,0.4,0.1,0.4,0.4v2.6c0,0.3-0.2,0.4-0.4,0.4h-2c-3.6,0-5.4-1.9-5.4-4.9v-9.4h-2.2c-0.3,0-0.4-0.1-0.4-0.4V653
		c0-0.3,0.2-0.5,0.4-0.5h2.2v-4c0-0.3,0.2-0.4,0.4-0.4h2.9C422.9,648.1,423,648.3,423,648.6z"/>
	<path class="st7" d="M434,662.5v1c0,2.3,1.2,3.7,3.7,3.7c2.4,0,3.1-0.9,3.7-2.1c0.3-0.4,0.4-0.5,0.8-0.3l2,1
		c0.4,0.2,0.5,0.5,0.3,0.9c-1.1,2.3-3.5,3.7-6.9,3.7c-4.9,0-7.5-2.9-7.5-7V659c0-4,2.5-7,7.4-7c4.7,0,7.1,3,7.1,6.9v2.7
		c0,0.5-0.2,0.8-0.8,0.8L434,662.5L434,662.5z M434,659v0.9h7.1V659c0-2.2-1.2-3.6-3.6-3.6S434,656.8,434,659z"/>
	<path class="st7" d="M458.6,652.7v2.8c0,0.4-0.1,0.5-0.5,0.5h-0.4c-2.6,0-4.1,1.3-4.8,3.3v10.4c0,0.3-0.2,0.4-0.4,0.4h-3.2
		c-0.2,0-0.4-0.1-0.4-0.4v-16.8c0-0.3,0.2-0.4,0.4-0.4h2.9c0.3,0,0.4,0.2,0.4,0.4v2.5c0.9-1.6,2.6-3.2,5.3-3.2
		C458.5,652.3,458.6,652.4,458.6,652.7z"/>
	<path class="st7" d="M465.8,646.3v3c0,0.4-0.2,0.6-0.6,0.6h-2.8c-0.4,0-0.6-0.2-0.6-0.6v-3c0-0.4,0.2-0.6,0.6-0.6h2.8
		C465.6,645.8,465.8,646,465.8,646.3z M465.8,652.9v16.8c0,0.3-0.2,0.4-0.4,0.4h-3c-0.3,0-0.5-0.2-0.5-0.4v-16.8
		c0-0.3,0.2-0.4,0.5-0.4h3C465.7,652.5,465.8,652.6,465.8,652.9z"/>
	<path class="st7" d="M483.9,658v11.7c0,0.3-0.2,0.4-0.4,0.4h-2.8c-0.3,0-0.4-0.2-0.4-0.4v-2.1c-1.1,1.8-2.9,2.9-5.1,2.9
		c-3.3,0-5.4-2.2-5.4-5.3c0-3.2,2.1-5.1,6.7-5.4c1.2-0.1,2.4-0.1,3.6,0v-1.6c0-2-1.1-2.8-2.9-2.8s-2.5,0.7-2.9,1.9
		c-0.1,0.4-0.3,0.4-0.6,0.3l-2.8-0.7c-0.3-0.1-0.4-0.3-0.3-0.5c0.5-2.5,2.8-4.2,6.8-4.2C481.4,652.1,483.9,654.1,483.9,658z
		 M480.1,664.5v-2.2c-1.1,0-2.2,0-3.3,0.1c-2.1,0.2-3.3,0.9-3.3,2.6c0,1.4,1,2.4,2.7,2.4C478,667.3,479.4,666.2,480.1,664.5z"/>
	<path class="st7" d="M492.6,646.2v23.5c0,0.3-0.2,0.4-0.4,0.4h-3c-0.3,0-0.5-0.2-0.5-0.4v-23.5c0-0.3,0.2-0.4,0.5-0.4h3
		C492.5,645.7,492.6,645.9,492.6,646.2z"/>
</g>
<g class="st6">
	<path class="st7" d="M520.8,647.2v2.9c0,0.2-0.2,0.4-0.4,0.4h-6.1v19.2c0,0.3-0.2,0.4-0.4,0.4h-3.3c-0.3,0-0.4-0.2-0.4-0.4v-19.2
		H504c-0.3,0-0.4-0.2-0.4-0.4v-2.9c0-0.2,0.1-0.4,0.4-0.4h16.4C520.6,646.7,520.8,647,520.8,647.2z"/>
</g>
<g class="st6">
	<path class="st7" d="M524.5,662.5v1c0,2.3,1.2,3.7,3.7,3.7c2.4,0,3.1-0.9,3.7-2.1c0.3-0.4,0.4-0.5,0.8-0.3l2,1
		c0.4,0.2,0.5,0.5,0.3,0.9c-1.1,2.3-3.5,3.7-6.9,3.7c-4.9,0-7.5-2.9-7.5-7V659c0-4,2.5-7,7.4-7c4.7,0,7.1,3,7.1,6.9v2.7
		c0,0.5-0.2,0.8-0.8,0.8L524.5,662.5L524.5,662.5z M524.5,659v0.9h7.1V659c0-2.2-1.2-3.6-3.6-3.6C525.8,655.4,524.5,656.8,524.5,659
		z"/>
</g>
<g class="st6">
	<path class="st7" d="M552.3,656.3c0.1,0.3,0,0.5-0.3,0.6l-2.3,0.8c-0.4,0.1-0.5,0-0.6-0.3c-0.5-1.4-1.7-2.1-3.4-2.1
		c-1.8,0-2.8,0.7-2.8,1.9c0,1.1,0.7,1.5,4.1,2.5c4,1.1,5.6,2.7,5.6,5.5c0,3.3-2.7,5.4-6.8,5.4c-3.7,0-6.4-1.5-7.2-4.2
		c-0.1-0.4,0-0.5,0.4-0.7l2.1-1c0.4-0.1,0.6-0.1,0.7,0.4c0.5,1.5,2,2.4,3.9,2.4c2,0,3.1-0.8,3.1-2s-1-1.8-4.3-2.7
		c-3.8-1.1-5.4-2.6-5.4-5.3c0-3.2,2.6-5.3,6.5-5.3C548.9,652.1,551.4,653.7,552.3,656.3z"/>
</g>
<g class="st6">
	<path class="st7" d="M561.5,648.6v4h3.5c0.3,0,0.4,0.2,0.4,0.5v2.3c0,0.3-0.2,0.4-0.4,0.4h-3.5v8.9c0,1.3,0.7,1.9,2.1,1.9h1.3
		c0.3,0,0.4,0.1,0.4,0.4v2.6c0,0.3-0.2,0.4-0.4,0.4h-2c-3.6,0-5.4-1.9-5.4-4.9v-9.4h-2.2c-0.3,0-0.4-0.1-0.4-0.4V653
		c0-0.3,0.2-0.5,0.4-0.5h2.2v-4c0-0.3,0.2-0.4,0.4-0.4h2.9C561.3,648.1,561.5,648.3,561.5,648.6z"/>
	<path class="st7" d="M573.1,646.3v3c0,0.4-0.2,0.6-0.6,0.6h-2.8c-0.4,0-0.6-0.2-0.6-0.6v-3c0-0.4,0.2-0.6,0.6-0.6h2.8
		C572.9,645.8,573.1,646,573.1,646.3z M573.1,652.9v16.8c0,0.3-0.2,0.4-0.4,0.4h-3c-0.3,0-0.5-0.2-0.5-0.4v-16.8
		c0-0.3,0.2-0.4,0.5-0.4h3C573,652.5,573.1,652.6,573.1,652.9z"/>
	<path class="st7" d="M582,658.8v10.9c0,0.3-0.2,0.4-0.4,0.4h-3c-0.3,0-0.5-0.2-0.5-0.4v-16.8c0-0.2,0.1-0.4,0.4-0.4h3
		c0.3,0,0.4,0.2,0.4,0.4v2.1c1.1-1.6,2.9-2.9,5.3-2.9c3.4,0,5.2,2.4,5.2,6v11.6c0,0.3-0.2,0.4-0.4,0.4h-3c-0.3,0-0.5-0.2-0.5-0.4
		v-10.9c0-1.9-0.9-3.1-2.7-3.1C584,655.8,582.6,657,582,658.8z"/>
	<path class="st7" d="M611.8,671.4c0,3-2.2,5.5-8.3,5.5c-5.5,0-7.6-1.9-7.6-4.7c0-1.5,0.9-2.9,2.7-3.7c-0.8-0.6-1.2-1.6-1.2-2.3
		c0-1.1,0.6-2,1.8-2.6c-1.8-1.1-2.8-2.8-2.8-5c0-3.5,2.2-6.1,6.9-6.1h7.9c0.2,0,0.4,0.2,0.4,0.4v2.2c0,0.3-0.2,0.4-0.4,0.4h-2.8
		c0.9,0.8,1.6,2,1.6,3.6c0,3-2.1,5.4-6.6,5.4h-1.1c-1.1,0-1.5,0.4-1.5,1.1c0,0.5,0.5,1,1.5,1h3.6C610,666.6,611.8,668.6,611.8,671.4
		z M608,671.7c0-1-0.6-2-2.7-2h-3.2c-1.9,0-2.6,1-2.6,2c0,1.5,1.2,2.4,4.2,2.4C606.7,674.2,608,673.1,608,671.7z M600,658.6
		c0,1.9,1.1,3.2,3.3,3.2c2,0,3.2-1.2,3.2-3.2c0-1.9-1.1-3.2-3.2-3.2C601.2,655.5,600,656.6,600,658.6z"/>
</g>
<g class="st6">
	<path class="st7" d="M213.9,692.1v1.4c0,4.3-2.3,7.1-7.4,7.1h-3.8v7.6c0,0.3-0.1,0.4-0.4,0.4h-2.1c-0.3,0-0.4-0.1-0.4-0.4v-22.7
		c0-0.2,0.2-0.4,0.4-0.4h6.5C211.6,685.1,213.9,687.8,213.9,692.1z M202.7,687.9v9.9h3.6c3.4,0,4.6-1.6,4.6-4.5v-1
		c0-2.9-1.2-4.4-4.6-4.4H202.7z"/>
</g>
<g class="st6">
	<path class="st7" d="M226.9,691.2v2c0,0.3-0.1,0.4-0.4,0.4h-0.4c-2.6,0-4.2,1.5-5,3.5v11.2c0,0.3-0.2,0.4-0.4,0.4h-2.2
		c-0.2,0-0.4-0.1-0.4-0.4v-16.9c0-0.3,0.2-0.4,0.4-0.4h2c0.3,0,0.4,0.1,0.4,0.4v2.7c0.9-1.8,2.7-3.3,5.4-3.3
		C226.8,690.8,226.9,690.8,226.9,691.2z"/>
</g>
<g class="st6">
	<path class="st7" d="M243.7,697.5v4.6c0,4.1-2.4,6.8-7.1,6.8s-7.1-2.8-7.1-6.8v-4.6c0-4.1,2.4-6.9,7.1-6.9S243.7,693.4,243.7,697.5
		z M232.4,697.6v4.4c0,2.8,1.5,4.3,4.2,4.3s4.2-1.5,4.2-4.3v-4.4c0-2.8-1.5-4.4-4.2-4.4S232.4,694.8,232.4,697.6z"/>
</g>
<g class="st6">
	<path class="st7" d="M252.4,686.9v4.2h3.7c0.3,0,0.4,0.1,0.4,0.4v1.6c0,0.3-0.1,0.4-0.4,0.4h-3.7v10.1c0,1.6,0.8,2.3,2.4,2.3h1.3
		c0.3,0,0.4,0.1,0.4,0.4v1.8c0,0.3-0.1,0.4-0.4,0.4h-1.7c-3.1,0-4.9-1.7-4.9-4.5v-10.6h-2.4c-0.2,0-0.4-0.1-0.4-0.4v-1.6
		c0-0.3,0.1-0.4,0.4-0.4h2.4v-4.2c0-0.2,0.1-0.4,0.4-0.4h2C252.3,686.5,252.4,686.6,252.4,686.9z"/>
</g>
<g class="st6">
	<path class="st7" d="M274.1,697.5v4.6c0,4.1-2.4,6.8-7.1,6.8s-7.1-2.8-7.1-6.8v-4.6c0-4.1,2.4-6.9,7.1-6.9S274.1,693.4,274.1,697.5
		z M262.8,697.6v4.4c0,2.8,1.5,4.3,4.2,4.3s4.2-1.5,4.2-4.3v-4.4c0-2.8-1.5-4.4-4.2-4.4S262.8,694.8,262.8,697.6z"/>
</g>
<g class="st6">
	<path class="st7" d="M282.8,686.9v4.2h3.7c0.3,0,0.4,0.1,0.4,0.4v1.6c0,0.3-0.1,0.4-0.4,0.4h-3.7v10.1c0,1.6,0.8,2.3,2.4,2.3h1.3
		c0.3,0,0.4,0.1,0.4,0.4v1.8c0,0.3-0.1,0.4-0.4,0.4h-1.7c-3.1,0-4.9-1.7-4.9-4.5v-10.6h-2.4c-0.2,0-0.4-0.1-0.4-0.4v-1.6
		c0-0.3,0.1-0.4,0.4-0.4h2.4v-4.2c0-0.2,0.1-0.4,0.4-0.4h2C282.7,686.5,282.8,686.6,282.8,686.9z"/>
	<path class="st7" d="M304.3,691.5l-6.3,17.1c-1.2,3.2-2.7,5.4-4.8,6.7c-0.3,0.2-0.5,0.3-0.8,0l-1.2-1.3c-0.2-0.3-0.1-0.5,0.1-0.7
		c2-1.2,3.1-2.5,4-5.5l-6.2-16.3c-0.1-0.3,0.1-0.5,0.4-0.5h2.2c0.3,0,0.4,0.1,0.5,0.4l2.7,7.6c0.8,2.2,1.4,4,1.9,5.8l0,0
		c0.6-2.1,1.1-3.6,1.9-5.8l2.6-7.6c0.1-0.3,0.3-0.4,0.5-0.4h2.1C304.2,691,304.4,691.2,304.3,691.5z"/>
	<path class="st7" d="M308.4,714.9c-0.2,0-0.4-0.1-0.4-0.4v-23.3c0-0.3,0.1-0.4,0.4-0.4h2c0.2,0,0.4,0.1,0.4,0.4v2
		c0.8-1.3,2.6-2.7,5.1-2.7c3.8,0,6.2,2.6,6.2,6.7v4.9c0,4-2.4,6.7-6.1,6.7c-2.6,0-4.4-1.3-5.2-2.7v8.4c0,0.2-0.1,0.4-0.4,0.4
		L308.4,714.9L308.4,714.9z M319.2,701.8v-4.2c0-2.9-1.5-4.4-4-4.4c-2.2,0-4.3,1.5-4.3,4.4v4.1c0,2.9,2,4.5,4.3,4.5
		C317.7,706.3,319.2,704.7,319.2,701.8z"/>
	<path class="st7" d="M329.4,700.7v1.4c0,2.8,1.5,4.3,4.3,4.3c2.6,0,3.5-1,4.1-2.3c0.2-0.4,0.4-0.4,0.7-0.2l1.4,0.7
		c0.4,0.2,0.4,0.4,0.3,0.7c-1,2.2-3.2,3.6-6.5,3.6c-4.6,0-7.1-2.8-7.1-6.8v-4.7c0-4,2.4-6.8,7-6.8c4.4,0,6.8,2.8,6.8,6.8v2.6
		c0,0.5-0.3,0.8-0.8,0.8L329.4,700.7L329.4,700.7z M329.4,697.4v1.3h8.3v-1.3c0-2.7-1.5-4.3-4.1-4.3
		C330.9,693.1,329.4,694.6,329.4,697.4z"/>
	<path class="st7" d="M368.6,706.2v2c0,0.3-0.1,0.4-0.4,0.4H355c-0.2,0-0.4-0.2-0.4-0.4v-2c0-0.3,0.1-0.4,0.4-0.4h5.3v-17.2
		l-5.4,2.2c-0.3,0.1-0.4,0-0.5-0.3l-0.7-1.8c-0.1-0.2-0.1-0.4,0.2-0.6l6.7-2.8c0.3-0.1,0.5-0.2,0.8-0.2h1.5c0.3,0,0.4,0.1,0.4,0.4
		v20.2h5C368.5,705.7,368.6,705.9,368.6,706.2z"/>
	<path class="st7" d="M399.5,708.5h-2.6c-0.2,0-0.4-0.1-0.6-0.3l-1.7-2c-1.7,1.6-3.8,2.7-6.3,2.7c-4.1,0-6.8-2.8-6.8-6.4
		c0-3.3,2.1-5.1,4.8-6.3l-0.3-0.4c-1.6-1.8-2.6-3.6-2.6-5.6c0-3.2,2.4-5.5,6-5.5c3.7,0,6,2.2,6,5.4c0,2.9-2.1,5.1-5.2,6.7l4.6,5.5
		c1.2-1.8,1.8-3.9,2-5.7c0.1-0.4,0.2-0.4,0.5-0.4l1.7,0.4c0.3,0.1,0.4,0.3,0.3,0.6c-0.4,2.3-1.4,5-2.9,7l3.1,3.7
		C399.8,708.3,399.7,708.5,399.5,708.5z M393,704.4l-5.3-6.4c-2,0.9-3.3,2.2-3.3,4.3c0,2,1.6,4.1,4.2,4.1
		C390.3,706.4,391.8,705.6,393,704.4z M386.1,690.2c0,1.5,0.9,2.8,2.3,4.4l0.4,0.4c2.1-1.1,3.8-2.8,3.8-4.9c0-2-1.2-3.2-3.2-3.2
		C387.5,687.1,386.1,688.2,386.1,690.2z"/>
</g>
<g class="st6">
	<path class="st7" d="M427.3,692.1v1.4c0,4.3-2.3,7.1-7.4,7.1H416v7.6c0,0.3-0.1,0.4-0.4,0.4h-2.1c-0.3,0-0.4-0.1-0.4-0.4v-22.7
		c0-0.2,0.2-0.4,0.4-0.4h6.5C425,685.1,427.3,687.8,427.3,692.1z M416,687.9v9.9h3.6c3.4,0,4.6-1.6,4.6-4.5v-1
		c0-2.9-1.2-4.4-4.6-4.4H416z"/>
</g>
<g class="st6">
	<path class="st7" d="M440.3,691.2v2c0,0.3-0.1,0.4-0.4,0.4h-0.4c-2.6,0-4.2,1.5-5,3.5v11.2c0,0.3-0.2,0.4-0.4,0.4H432
		c-0.2,0-0.4-0.1-0.4-0.4v-16.9c0-0.3,0.2-0.4,0.4-0.4h2c0.3,0,0.4,0.1,0.4,0.4v2.7c0.9-1.8,2.7-3.3,5.4-3.3
		C440.2,690.8,440.3,690.8,440.3,691.2z"/>
</g>
<g class="st6">
	<path class="st7" d="M457,697.5v4.6c0,4.1-2.4,6.8-7.1,6.8s-7.1-2.8-7.1-6.8v-4.6c0-4.1,2.4-6.9,7.1-6.9
		C454.7,690.6,457,693.4,457,697.5z M445.7,697.6v4.4c0,2.8,1.5,4.3,4.2,4.3s4.2-1.5,4.2-4.3v-4.4c0-2.8-1.5-4.4-4.2-4.4
		C447.2,693.2,445.7,694.8,445.7,697.6z"/>
</g>
<g class="st6">
	<path class="st7" d="M465.7,686.9v4.2h3.7c0.3,0,0.4,0.1,0.4,0.4v1.6c0,0.3-0.1,0.4-0.4,0.4h-3.7v10.1c0,1.6,0.8,2.3,2.4,2.3h1.3
		c0.3,0,0.4,0.1,0.4,0.4v1.8c0,0.3-0.1,0.4-0.4,0.4h-1.7c-3.1,0-4.9-1.7-4.9-4.5v-10.6h-2.4c-0.2,0-0.4-0.1-0.4-0.4v-1.6
		c0-0.3,0.1-0.4,0.4-0.4h2.4v-4.2c0-0.2,0.1-0.4,0.4-0.4h2C465.6,686.5,465.7,686.6,465.7,686.9z"/>
</g>
<g class="st6">
	<path class="st7" d="M487.5,697.5v4.6c0,4.1-2.4,6.8-7.1,6.8s-7.1-2.8-7.1-6.8v-4.6c0-4.1,2.4-6.9,7.1-6.9S487.5,693.4,487.5,697.5
		z M476.2,697.6v4.4c0,2.8,1.5,4.3,4.2,4.3s4.2-1.5,4.2-4.3v-4.4c0-2.8-1.5-4.4-4.2-4.4C477.7,693.2,476.2,694.8,476.2,697.6z"/>
</g>
<g class="st6">
	<path class="st7" d="M496.1,686.9v4.2h3.7c0.3,0,0.4,0.1,0.4,0.4v1.6c0,0.3-0.1,0.4-0.4,0.4h-3.7v10.1c0,1.6,0.8,2.3,2.4,2.3h1.3
		c0.3,0,0.4,0.1,0.4,0.4v1.8c0,0.3-0.1,0.4-0.4,0.4h-1.7c-3.1,0-4.9-1.7-4.9-4.5v-10.6h-2.4c-0.2,0-0.4-0.1-0.4-0.4v-1.6
		c0-0.3,0.1-0.4,0.4-0.4h2.4v-4.2c0-0.2,0.1-0.4,0.4-0.4h2C496,686.5,496.1,686.6,496.1,686.9z"/>
	<path class="st7" d="M517.7,691.5l-6.3,17.1c-1.2,3.2-2.7,5.4-4.8,6.7c-0.3,0.2-0.5,0.3-0.8,0l-1.2-1.3c-0.2-0.3-0.1-0.5,0.1-0.7
		c2-1.2,3.1-2.5,4-5.5l-6.2-16.3c-0.1-0.3,0.1-0.5,0.4-0.5h2.2c0.3,0,0.4,0.1,0.5,0.4l2.7,7.6c0.8,2.2,1.4,4,1.9,5.8l0,0
		c0.6-2.1,1.1-3.6,1.9-5.8l2.6-7.6c0.1-0.3,0.3-0.4,0.5-0.4h2.1C517.6,691,517.8,691.2,517.7,691.5z"/>
	<path class="st7" d="M521.7,714.9c-0.2,0-0.4-0.1-0.4-0.4v-23.3c0-0.3,0.1-0.4,0.4-0.4h2c0.2,0,0.4,0.1,0.4,0.4v2
		c0.8-1.3,2.6-2.7,5.1-2.7c3.8,0,6.2,2.6,6.2,6.7v4.9c0,4-2.4,6.7-6.1,6.7c-2.6,0-4.4-1.3-5.2-2.7v8.4c0,0.2-0.1,0.4-0.4,0.4
		L521.7,714.9L521.7,714.9z M532.6,701.8v-4.2c0-2.9-1.5-4.4-4-4.4c-2.2,0-4.3,1.5-4.3,4.4v4.1c0,2.9,2,4.5,4.3,4.5
		C531.1,706.3,532.6,704.7,532.6,701.8z"/>
	<path class="st7" d="M542.7,700.7v1.4c0,2.8,1.5,4.3,4.3,4.3c2.6,0,3.5-1,4.1-2.3c0.2-0.4,0.4-0.4,0.7-0.2l1.4,0.7
		c0.4,0.2,0.4,0.4,0.3,0.7c-1,2.2-3.2,3.6-6.5,3.6c-4.6,0-7.1-2.8-7.1-6.8v-4.7c0-4,2.4-6.8,7-6.8c4.4,0,6.8,2.8,6.8,6.8v2.6
		c0,0.5-0.3,0.8-0.8,0.8L542.7,700.7L542.7,700.7z M542.7,697.4v1.3h8.3v-1.3c0-2.7-1.5-4.3-4.1-4.3
		C544.2,693.1,542.7,694.6,542.7,697.4z"/>
	<path class="st7" d="M581.1,691.5c0,3.2-1.4,5.2-5.4,9.2l-5.1,5.1h10.6c0.3,0,0.4,0.1,0.4,0.4v2c0,0.3-0.1,0.4-0.4,0.4h-13.7
		c-0.3,0-0.4-0.1-0.5-0.4l-0.4-1.8c-0.1-0.3,0-0.5,0.2-0.8l6.5-6.5c3.9-4,4.8-5.4,4.8-7.5c0-2.6-1.6-4.1-4.1-4.1
		c-2.4,0-3.7,1.2-4.4,3.5c-0.1,0.3-0.3,0.4-0.6,0.3l-1.9-0.6c-0.2-0.1-0.4-0.3-0.3-0.6c1-3.4,3.3-5.4,7.3-5.4
		C578.4,684.8,581.1,687.5,581.1,691.5z"/>
</g>
<g class="st6">
	<path class="st7" d="M233.5,994v2.9c0,0.2-0.2,0.4-0.4,0.4H227v19.2c0,0.3-0.2,0.4-0.4,0.4h-3.3c-0.3,0-0.4-0.2-0.4-0.4v-19.2h-6.2
		c-0.3,0-0.4-0.2-0.4-0.4V994c0-0.2,0.1-0.4,0.4-0.4H233C233.3,993.6,233.5,993.8,233.5,994z"/>
	<path class="st7" d="M240.7,993v8.9c1.1-1.6,2.8-2.9,5.2-2.9c3.4,0,5.2,2.5,5.2,6v11.5c0,0.4-0.2,0.4-0.4,0.4h-3
		c-0.3,0-0.5-0.2-0.5-0.4v-10.8c0-1.9-0.9-3-2.7-3c-1.7,0-3.1,1.2-3.8,3v10.8c0,0.3-0.2,0.4-0.4,0.4h-3c-0.3,0-0.5-0.2-0.5-0.4V993
		c0-0.3,0.2-0.4,0.5-0.4h3C240.6,992.6,240.7,992.8,240.7,993z"/>
	<path class="st7" d="M255.8,1011.3v-11.6c0-0.3,0.2-0.4,0.5-0.4h3c0.3,0,0.4,0.2,0.4,0.4v10.9c0,1.9,0.9,3,2.7,3
		c1.7,0,3.1-1.2,3.7-3v-10.9c0-0.3,0.1-0.4,0.4-0.4h3.1c0.3,0,0.5,0.2,0.5,0.4v16.8c0,0.2-0.2,0.4-0.4,0.4h-3
		c-0.3,0-0.4-0.2-0.4-0.4v-2.1c-1.1,1.6-2.9,2.9-5.3,2.9C257.6,1017.3,255.8,1014.9,255.8,1011.3z"/>
	<path class="st7" d="M283.7,999c2.3,0,3.7,1.4,4.4,3.2c1.3-1.9,3-3.2,5.1-3.2c3,0,4.8,2.3,4.8,5.8v11.8c0,0.3-0.2,0.4-0.5,0.4h-2.9
		c-0.3,0-0.5-0.2-0.5-0.4v-11c0-1.9-0.8-2.9-2.3-2.9c-1.4,0-2.6,1.1-3.3,2.9v11c0,0.3-0.2,0.4-0.4,0.4H285c-0.3,0-0.4-0.2-0.4-0.4
		v-11c0-1.9-0.8-2.9-2.2-2.9c-1.5,0-2.7,1.3-3.3,3v10.9c0,0.3-0.1,0.4-0.4,0.4h-3.1c-0.3,0-0.4-0.2-0.4-0.4v-16.8
		c0-0.2,0.1-0.4,0.4-0.4h3c0.3,0,0.4,0.2,0.4,0.4v2.1C279.9,1000.4,281.5,999,283.7,999z"/>
	<path class="st7" d="M306.7,993v8.6c0.7-1.2,2.4-2.6,5-2.6c3.6,0,6,2.8,6,6.8v4.7c0,4.1-2.4,6.8-6.2,6.8c-2.5,0-4.3-1.3-5-2.6v1.8
		c0,0.3-0.2,0.4-0.4,0.4h-3c-0.3,0-0.4-0.2-0.4-0.4V993c0-0.2,0.2-0.4,0.4-0.4h3.1C306.6,992.6,306.7,992.8,306.7,993z
		 M306.7,1006.4v3.6c0,2.5,1.6,3.8,3.6,3.8c2.2,0,3.4-1.3,3.4-3.8v-3.6c0-2.5-1.2-3.9-3.4-3.9
		C308.4,1002.5,306.7,1003.9,306.7,1006.4z"/>
	<path class="st7" d="M326.1,1005.7v10.9c0,0.3-0.2,0.4-0.4,0.4h-3c-0.3,0-0.5-0.2-0.5-0.4v-16.8c0-0.2,0.1-0.4,0.4-0.4h3
		c0.3,0,0.4,0.2,0.4,0.4v2.1c1.1-1.6,2.9-2.9,5.3-2.9c3.4,0,5.2,2.4,5.2,6v11.6c0,0.3-0.2,0.4-0.4,0.4h-3c-0.3,0-0.5-0.2-0.5-0.4
		v-10.9c0-1.9-0.9-3.1-2.7-3.1C328.2,1002.6,326.8,1003.8,326.1,1005.7z"/>
	<path class="st7" d="M354.5,1004.8v11.7c0,0.3-0.2,0.4-0.4,0.4h-2.8c-0.3,0-0.4-0.2-0.4-0.4v-2.1c-1.1,1.8-2.9,2.9-5.1,2.9
		c-3.3,0-5.4-2.2-5.4-5.3c0-3.2,2.1-5.1,6.7-5.4c1.2-0.1,2.4-0.1,3.6,0v-1.6c0-2-1.1-2.8-2.9-2.8s-2.5,0.7-2.9,1.9
		c-0.1,0.4-0.3,0.4-0.6,0.3l-2.8-0.7c-0.3-0.1-0.4-0.3-0.3-0.5c0.5-2.5,2.8-4.2,6.8-4.2C352,999,354.5,1000.9,354.5,1004.8z
		 M350.7,1011.3v-2.2c-1.1,0-2.2,0-3.3,0.1c-2.1,0.2-3.3,0.9-3.3,2.6c0,1.4,1,2.4,2.7,2.4C348.6,1014.1,350,1013.1,350.7,1011.3z"/>
	<path class="st7" d="M363.2,993.2v3c0,0.4-0.2,0.6-0.6,0.6h-2.8c-0.4,0-0.6-0.2-0.6-0.6v-3c0-0.4,0.2-0.6,0.6-0.6h2.8
		C363.1,992.6,363.2,992.8,363.2,993.2z M363.2,999.8v16.8c0,0.3-0.2,0.4-0.4,0.4h-3c-0.3,0-0.5-0.2-0.5-0.4v-16.8
		c0-0.3,0.2-0.4,0.5-0.4h3C363.1,999.3,363.2,999.5,363.2,999.8z"/>
	<path class="st7" d="M372.1,993v23.5c0,0.3-0.2,0.4-0.4,0.4h-3c-0.3,0-0.5-0.2-0.5-0.4V993c0-0.3,0.2-0.4,0.5-0.4h3
		C371.9,992.6,372.1,992.7,372.1,993z"/>
	<path class="st7" d="M400.4,998.2c0.1,0.3,0,0.5-0.4,0.6l-2.5,0.9c-0.4,0.1-0.5,0-0.7-0.3c-0.7-1.8-2-2.6-4-2.6
		c-2.3,0-3.7,1.1-3.7,2.8c0,1.6,1.1,2.3,5.3,3.9c4.3,1.6,6.1,3.6,6.1,6.9c0,4-3.3,6.9-8.1,6.9c-4.4,0-7.1-1.9-8.1-5.5
		c-0.1-0.3,0-0.5,0.3-0.6l2.7-0.9c0.4-0.1,0.6,0,0.7,0.4c0.5,2,2,3,4.4,3s3.9-1.2,3.9-2.9s-0.9-2.5-4.6-3.8
		c-4.9-1.8-6.8-3.8-6.8-7.2c0-3.6,3.1-6.5,7.7-6.5C396.6,993.2,399.3,994.9,400.4,998.2z"/>
</g>
<g class="st6">
	<path class="st7" d="M419.1,1017h-3.4c-0.3,0-0.4-0.1-0.6-0.4l-4-7.4l-2.4,2.8v4.5c0,0.3-0.2,0.4-0.4,0.4h-3.1
		c-0.3,0-0.4-0.2-0.4-0.4V993c0-0.3,0.2-0.4,0.4-0.4h3.1c0.3,0,0.4,0.2,0.4,0.4v14.2l6-7.4c0.3-0.3,0.5-0.4,0.9-0.4h3.2
		c0.4,0,0.5,0.4,0.3,0.6l-5.4,6.2l5.6,10.2C419.6,1016.7,419.4,1017,419.1,1017z"/>
</g>
<g class="st6">
	<path class="st7" d="M425.4,1009.4v1c0,2.3,1.2,3.7,3.7,3.7c2.4,0,3.1-0.9,3.7-2.1c0.3-0.4,0.4-0.5,0.8-0.3l2,1
		c0.4,0.2,0.5,0.5,0.3,0.9c-1.1,2.3-3.5,3.7-6.9,3.7c-4.9,0-7.5-2.9-7.5-7v-4.4c0-4,2.5-7,7.4-7c4.7,0,7.1,3,7.1,6.9v2.7
		c0,0.5-0.2,0.8-0.8,0.8L425.4,1009.4L425.4,1009.4z M425.4,1005.8v0.9h7.1v-0.9c0-2.2-1.2-3.6-3.6-3.6S425.4,1003.6,425.4,1005.8z"
		/>
</g>
<g class="st6">
	<path class="st7" d="M445.3,995.4v4h3.5c0.3,0,0.4,0.2,0.4,0.5v2.3c0,0.3-0.2,0.4-0.4,0.4h-3.5v8.9c0,1.3,0.7,1.9,2.1,1.9h1.3
		c0.3,0,0.4,0.1,0.4,0.4v2.6c0,0.3-0.2,0.4-0.4,0.4h-2c-3.6,0-5.4-1.9-5.4-4.9v-9.4h-2.2c-0.3,0-0.4-0.1-0.4-0.4v-2.3
		c0-0.3,0.2-0.5,0.4-0.5h2.2v-4c0-0.3,0.2-0.4,0.4-0.4h2.9C445.2,995,445.3,995.2,445.3,995.4z"/>
	<path class="st7" d="M466.4,1004c0,0.3,0,0.5-0.4,0.6l-2.4,0.7c-0.5,0.1-0.6,0.1-0.7-0.3c-0.4-1.1-0.9-2.5-3.2-2.5
		c-2.2,0-3.3,1.4-3.3,3.8v3.9c0,2.4,1.2,3.7,3.3,3.7c2.1,0,2.8-1,3.3-2.4c0.1-0.4,0.3-0.5,0.7-0.3l2.5,0.9c0.4,0.1,0.4,0.4,0.3,0.7
		c-0.5,2.5-2.9,4.7-7,4.7c-4.4,0-7-2.9-7-7v-4.3c0-4.1,2.6-7.1,7-7.1C463.3,999,465.9,1000.9,466.4,1004z"/>
	<path class="st7" d="M474.3,993v8.9c1.1-1.6,2.8-2.9,5.2-2.9c3.4,0,5.2,2.5,5.2,6v11.5c0,0.4-0.2,0.4-0.4,0.4h-3
		c-0.3,0-0.5-0.2-0.5-0.4v-10.8c0-1.9-0.9-3-2.7-3c-1.7,0-3.1,1.2-3.8,3v10.8c0,0.3-0.2,0.4-0.4,0.4h-3c-0.3,0-0.5-0.2-0.5-0.4V993
		c0-0.3,0.2-0.4,0.5-0.4h3C474.1,992.6,474.3,992.8,474.3,993z"/>
	<path class="st7" d="M492.7,1009.4v1c0,2.3,1.2,3.7,3.7,3.7c2.4,0,3.1-0.9,3.7-2.1c0.3-0.4,0.4-0.5,0.8-0.3l2,1
		c0.4,0.2,0.5,0.5,0.3,0.9c-1.1,2.3-3.5,3.7-6.9,3.7c-4.9,0-7.5-2.9-7.5-7v-4.4c0-4,2.5-7,7.4-7c4.7,0,7.1,3,7.1,6.9v2.7
		c0,0.5-0.2,0.8-0.8,0.8L492.7,1009.4L492.7,1009.4z M492.7,1005.8v0.9h7.1v-0.9c0-2.2-1.2-3.6-3.6-3.6
		C493.9,1002.2,492.7,1003.6,492.7,1005.8z"/>
	<path class="st7" d="M520.4,1003.1c0.1,0.3,0,0.5-0.3,0.6l-2.3,0.8c-0.4,0.1-0.5,0-0.6-0.3c-0.5-1.4-1.7-2.1-3.4-2.1
		c-1.8,0-2.8,0.7-2.8,1.9c0,1.1,0.7,1.5,4.1,2.5c4,1.1,5.6,2.7,5.6,5.5c0,3.3-2.7,5.4-6.8,5.4c-3.7,0-6.4-1.5-7.2-4.2
		c-0.1-0.4,0-0.5,0.4-0.7l2.1-1c0.4-0.1,0.6-0.1,0.7,0.4c0.5,1.5,2,2.4,3.9,2.4c2,0,3.1-0.8,3.1-2s-1-1.8-4.3-2.7
		c-3.8-1.1-5.4-2.6-5.4-5.3c0-3.2,2.6-5.3,6.5-5.3C517.1,999,519.6,1000.5,520.4,1003.1z"/>
</g>
<g class="st6">
	<path class="st7" d="M542.3,993v2.4c0,0.2-0.1,0.4-0.4,0.4h-1.5c-1.5,0-2.1,0.6-2.1,1.9v1.8h3.7c0.2,0,0.4,0.2,0.4,0.4v2.4
		c0,0.3-0.2,0.4-0.4,0.4h-3.6v13.9c0,0.3-0.2,0.4-0.4,0.4h-3.1c-0.3,0-0.5-0.1-0.5-0.4v-13.9H532c-0.2,0-0.4-0.2-0.4-0.4v-2.4
		c0-0.2,0.2-0.4,0.4-0.4h2.4v-1.6c0-3.3,1.9-5.2,5.4-5.2h2.1C542.2,992.6,542.3,992.8,542.3,993z"/>
</g>
<g class="st6">
	<path class="st7" d="M559.7,1006.1v4.2c0,4.2-2.4,7.1-7.5,7.1s-7.5-2.9-7.5-7v-4.2c0-4.2,2.4-7.2,7.5-7.2
		C557.3,999,559.7,1002,559.7,1006.1z M548.7,1006.3v3.9c0,2.4,1.2,3.7,3.5,3.7c2.4,0,3.6-1.3,3.6-3.7v-3.9c0-2.4-1.2-3.8-3.6-3.8
		C549.8,1002.5,548.7,1003.9,548.7,1006.3z"/>
</g>
<g class="st6">
	<path class="st7" d="M573.7,999.6v2.8c0,0.4-0.1,0.5-0.5,0.5h-0.4c-2.6,0-4.1,1.3-4.8,3.3v10.4c0,0.3-0.2,0.4-0.4,0.4h-3.2
		c-0.2,0-0.4-0.1-0.4-0.4v-16.8c0-0.3,0.2-0.4,0.4-0.4h2.9c0.3,0,0.4,0.2,0.4,0.4v2.5c0.9-1.6,2.6-3.2,5.3-3.2
		C573.6,999.1,573.7,999.2,573.7,999.6z"/>
</g>
<g class="st6">
	<path class="st7" d="M195,1054.9l-6.8-22.5c-0.1-0.3,0-0.5,0.3-0.5h3.3c0.3,0,0.4,0.1,0.5,0.4l3.5,11.9c0.6,2.2,1.4,4.9,1.8,6.9
		h0.1c0.4-2,1.2-4.7,1.9-6.9l3.5-11.9c0.1-0.3,0.3-0.4,0.6-0.4h3.1c0.3,0,0.4,0.2,0.3,0.5l-6.8,22.5c-0.1,0.3-0.3,0.4-0.6,0.4h-4.1
		C195.3,1055.4,195.2,1055.3,195,1054.9z"/>
</g>
<g class="st6">
	<path class="st7" d="M222.1,1043.2v11.7c0,0.3-0.2,0.4-0.4,0.4h-2.8c-0.3,0-0.4-0.2-0.4-0.4v-2.1c-1.1,1.8-2.9,2.9-5.1,2.9
		c-3.3,0-5.4-2.2-5.4-5.3c0-3.2,2.1-5.1,6.7-5.4c1.2-0.1,2.4-0.1,3.6,0v-1.6c0-2-1.1-2.8-2.9-2.8c-1.8,0-2.5,0.7-2.9,1.9
		c-0.1,0.4-0.3,0.4-0.6,0.3l-2.8-0.7c-0.3-0.1-0.4-0.3-0.3-0.5c0.5-2.5,2.8-4.2,6.8-4.2C219.7,1037.4,222.1,1039.3,222.1,1043.2z
		 M218.3,1049.7v-2.2c-1.1,0-2.2,0-3.3,0.1c-2.1,0.2-3.3,0.9-3.3,2.6c0,1.4,1,2.4,2.7,2.4C216.2,1052.5,217.6,1051.5,218.3,1049.7z"
		/>
	<path class="st7" d="M236.6,1038v2.8c0,0.4-0.1,0.5-0.5,0.5h-0.4c-2.6,0-4.1,1.3-4.8,3.3v10.4c0,0.3-0.2,0.4-0.4,0.4h-3.2
		c-0.2,0-0.4-0.1-0.4-0.4v-16.8c0-0.3,0.2-0.4,0.4-0.4h2.9c0.3,0,0.4,0.2,0.4,0.4v2.5c0.9-1.6,2.6-3.2,5.3-3.2
		C236.5,1037.5,236.6,1037.6,236.6,1038z"/>
	<path class="st7" d="M243.8,1031.6v3c0,0.4-0.2,0.6-0.6,0.6h-2.8c-0.4,0-0.6-0.2-0.6-0.6v-3c0-0.4,0.2-0.6,0.6-0.6h2.8
		C243.6,1031,243.8,1031.2,243.8,1031.6z M243.8,1038.2v16.8c0,0.3-0.2,0.4-0.4,0.4h-3c-0.3,0-0.5-0.2-0.5-0.4v-16.8
		c0-0.3,0.2-0.4,0.5-0.4h3C243.6,1037.7,243.8,1037.9,243.8,1038.2z"/>
	<path class="st7" d="M263.1,1044.5v4.2c0,4.2-2.4,7.1-7.5,7.1s-7.5-2.9-7.5-7v-4.2c0-4.2,2.4-7.2,7.5-7.2
		S263.1,1040.4,263.1,1044.5z M252.1,1044.7v3.9c0,2.4,1.2,3.7,3.5,3.7c2.4,0,3.6-1.3,3.6-3.7v-3.9c0-2.4-1.2-3.8-3.6-3.8
		C253.3,1040.9,252.1,1042.3,252.1,1044.7z"/>
	<path class="st7" d="M267.3,1049.7v-11.6c0-0.3,0.2-0.4,0.5-0.4h3c0.3,0,0.4,0.2,0.4,0.4v10.9c0,1.9,0.9,3,2.7,3
		c1.7,0,3.1-1.2,3.7-3v-10.9c0-0.3,0.1-0.4,0.4-0.4h3.1c0.3,0,0.5,0.2,0.5,0.4v16.8c0,0.2-0.2,0.4-0.4,0.4h-3
		c-0.3,0-0.4-0.2-0.4-0.4v-2.1c-1.1,1.6-2.9,2.9-5.3,2.9C269.2,1055.7,267.3,1053.3,267.3,1049.7z"/>
	<path class="st7" d="M299.3,1041.5c0.1,0.3,0,0.5-0.3,0.6l-2.3,0.8c-0.4,0.1-0.5,0-0.6-0.3c-0.5-1.4-1.7-2.1-3.4-2.1
		c-1.8,0-2.8,0.7-2.8,1.9c0,1.1,0.7,1.5,4.1,2.5c4,1.1,5.6,2.7,5.6,5.5c0,3.3-2.7,5.4-6.8,5.4c-3.7,0-6.4-1.5-7.2-4.2
		c-0.1-0.4,0-0.5,0.4-0.7l2.1-1c0.4-0.1,0.6-0.1,0.7,0.4c0.5,1.5,2,2.4,3.9,2.4c2,0,3.1-0.8,3.1-2s-1-1.8-4.3-2.7
		c-3.8-1.1-5.4-2.6-5.4-5.3c0-3.2,2.6-5.3,6.5-5.3C296,1037.4,298.5,1038.9,299.3,1041.5z"/>
</g>
<g class="st6">
	<path class="st7" d="M328.6,1055.4h-3.3c-0.3,0-0.4-0.1-0.5-0.4l-1.7-5.4h-7.9l-1.7,5.4c-0.1,0.3-0.3,0.4-0.6,0.4h-3.1
		c-0.3,0-0.4-0.2-0.3-0.5l7-22.5c0.1-0.3,0.3-0.4,0.6-0.4h4.1c0.4,0,0.5,0.1,0.6,0.4l7.1,22.5C329,1055.2,328.8,1055.4,328.6,1055.4
		z M321.9,1045.8l-0.9-2.8c-0.6-2.2-1.4-4.9-1.9-6.9H319c-0.4,2-1.2,4.7-1.9,6.9l-0.8,2.7h5.6V1045.8z"/>
	<path class="st7" d="M332.5,1061.8c-0.3,0-0.4-0.2-0.4-0.4v-23.2c0-0.3,0.2-0.4,0.4-0.4h3c0.3,0,0.4,0.2,0.4,0.4v1.8
		c0.7-1.2,2.5-2.6,5-2.6c3.8,0,6.2,2.7,6.2,6.8v4.7c0,4.1-2.4,6.8-6,6.8c-2.6,0-4.3-1.3-5-2.6v8.2c0,0.3-0.1,0.4-0.4,0.4
		L332.5,1061.8L332.5,1061.8z M343.1,1048.3v-3.6c0-2.5-1.2-3.8-3.4-3.8c-2,0-3.6,1.3-3.6,3.9v3.6c0,2.5,1.6,3.9,3.6,3.9
		C342,1052.2,343.1,1050.8,343.1,1048.3z"/>
	<path class="st7" d="M351.9,1061.8c-0.3,0-0.4-0.2-0.4-0.4v-23.2c0-0.3,0.2-0.4,0.4-0.4h3c0.3,0,0.4,0.2,0.4,0.4v1.8
		c0.7-1.2,2.5-2.6,5-2.6c3.8,0,6.2,2.7,6.2,6.8v4.7c0,4.1-2.4,6.8-6,6.8c-2.6,0-4.3-1.3-5-2.6v8.2c0,0.3-0.1,0.4-0.4,0.4
		L351.9,1061.8L351.9,1061.8z M362.5,1048.3v-3.6c0-2.5-1.2-3.8-3.4-3.8c-2,0-3.6,1.3-3.6,3.9v3.6c0,2.5,1.6,3.9,3.6,3.9
		C361.3,1052.2,362.5,1050.8,362.5,1048.3z"/>
	<path class="st7" d="M374.8,1031.4v23.5c0,0.3-0.2,0.4-0.4,0.4h-3c-0.3,0-0.5-0.2-0.5-0.4v-23.5c0-0.3,0.2-0.4,0.5-0.4h3
		C374.7,1031,374.8,1031.1,374.8,1031.4z"/>
	<path class="st7" d="M383.7,1031.6v3c0,0.4-0.2,0.6-0.6,0.6h-2.8c-0.4,0-0.6-0.2-0.6-0.6v-3c0-0.4,0.2-0.6,0.6-0.6h2.8
		C383.5,1031,383.7,1031.2,383.7,1031.6z M383.7,1038.2v16.8c0,0.3-0.2,0.4-0.4,0.4h-3c-0.3,0-0.5-0.2-0.5-0.4v-16.8
		c0-0.3,0.2-0.4,0.5-0.4h3C383.5,1037.7,383.7,1037.9,383.7,1038.2z"/>
	<path class="st7" d="M402,1042.4c0,0.3,0,0.5-0.4,0.6l-2.4,0.7c-0.5,0.1-0.6,0.1-0.7-0.3c-0.4-1.1-0.9-2.5-3.2-2.5
		c-2.2,0-3.3,1.4-3.3,3.8v3.9c0,2.4,1.2,3.7,3.3,3.7c2.1,0,2.8-1,3.3-2.4c0.1-0.4,0.3-0.5,0.7-0.3l2.5,0.9c0.4,0.1,0.4,0.4,0.3,0.7
		c-0.5,2.5-2.9,4.7-7,4.7c-4.4,0-7-2.9-7-7v-4.3c0-4.1,2.6-7.1,7-7.1C398.8,1037.4,401.4,1039.3,402,1042.4z"/>
</g>
<g class="st6">
	<path class="st7" d="M419.1,1043.2v11.7c0,0.3-0.2,0.4-0.4,0.4h-2.8c-0.3,0-0.4-0.2-0.4-0.4v-2.1c-1.1,1.8-2.9,2.9-5.1,2.9
		c-3.3,0-5.4-2.2-5.4-5.3c0-3.2,2.1-5.1,6.7-5.4c1.2-0.1,2.4-0.1,3.6,0v-1.6c0-2-1.1-2.8-2.9-2.8s-2.5,0.7-2.9,1.9
		c-0.1,0.4-0.3,0.4-0.6,0.3l-2.8-0.7c-0.3-0.1-0.4-0.3-0.3-0.5c0.5-2.5,2.8-4.2,6.8-4.2C416.6,1037.4,419.1,1039.3,419.1,1043.2z
		 M415.2,1049.7v-2.2c-1.1,0-2.2,0-3.3,0.1c-2.1,0.2-3.3,0.9-3.3,2.6c0,1.4,1,2.4,2.7,2.4C413.2,1052.5,414.5,1051.5,415.2,1049.7z"
		/>
</g>
<g class="st6">
	<path class="st7" d="M428.7,1033.8v4h3.5c0.3,0,0.4,0.2,0.4,0.5v2.3c0,0.3-0.2,0.4-0.4,0.4h-3.5v8.9c0,1.3,0.7,1.9,2.1,1.9h1.3
		c0.3,0,0.4,0.1,0.4,0.4v2.6c0,0.3-0.2,0.4-0.4,0.4h-2c-3.6,0-5.4-1.9-5.4-4.9v-9.4h-2.2c-0.3,0-0.4-0.1-0.4-0.4v-2.3
		c0-0.3,0.2-0.5,0.4-0.5h2.2v-4c0-0.3,0.2-0.4,0.4-0.4h2.9C428.6,1033.4,428.7,1033.6,428.7,1033.8z"/>
	<path class="st7" d="M440.4,1031.6v3c0,0.4-0.2,0.6-0.6,0.6H437c-0.4,0-0.6-0.2-0.6-0.6v-3c0-0.4,0.2-0.6,0.6-0.6h2.8
		C440.2,1031,440.4,1031.2,440.4,1031.6z M440.4,1038.2v16.8c0,0.3-0.2,0.4-0.4,0.4h-3c-0.3,0-0.5-0.2-0.5-0.4v-16.8
		c0-0.3,0.2-0.4,0.5-0.4h3C440.2,1037.7,440.4,1037.9,440.4,1038.2z"/>
	<path class="st7" d="M459.7,1044.5v4.2c0,4.2-2.4,7.1-7.5,7.1s-7.5-2.9-7.5-7v-4.2c0-4.2,2.4-7.2,7.5-7.2
		C457.3,1037.4,459.7,1040.4,459.7,1044.5z M448.7,1044.7v3.9c0,2.4,1.2,3.7,3.5,3.7c2.4,0,3.6-1.3,3.6-3.7v-3.9
		c0-2.4-1.2-3.8-3.6-3.8C449.9,1040.9,448.7,1042.3,448.7,1044.7z"/>
	<path class="st7" d="M468,1044.1v10.9c0,0.3-0.2,0.4-0.4,0.4h-3c-0.3,0-0.5-0.2-0.5-0.4v-16.8c0-0.2,0.1-0.4,0.4-0.4h3
		c0.3,0,0.4,0.2,0.4,0.4v2.1c1.1-1.6,2.9-2.9,5.3-2.9c3.4,0,5.2,2.4,5.2,6v11.6c0,0.3-0.2,0.4-0.4,0.4h-3c-0.3,0-0.5-0.2-0.5-0.4
		v-10.9c0-1.9-0.9-3.1-2.7-3.1C470,1041,468.6,1042.2,468,1044.1z"/>
	<path class="st7" d="M509,1040.5v6.2c0,5.1-3,8.7-9.2,8.7h-7.3c-0.3,0-0.4-0.2-0.4-0.4v-22.5c0-0.3,0.1-0.4,0.4-0.4h7.3
		C505.9,1032,509,1035.6,509,1040.5z M496.1,1035.8v15.8h3.6c3.6,0,5.2-1.8,5.2-5v-5.9c0-3.1-1.5-5-5.2-5L496.1,1035.8L496.1,1035.8
		z"/>
	<path class="st7" d="M516.8,1047.8v1c0,2.3,1.2,3.7,3.7,3.7c2.4,0,3.1-0.9,3.7-2.1c0.3-0.4,0.4-0.5,0.8-0.3l2,1
		c0.4,0.2,0.5,0.5,0.3,0.9c-1.1,2.3-3.5,3.7-6.9,3.7c-4.9,0-7.5-2.9-7.5-7v-4.4c0-4,2.5-7,7.4-7c4.7,0,7.1,3,7.1,6.9v2.7
		c0,0.5-0.2,0.8-0.8,0.8h-9.8V1047.8z M516.8,1044.2v0.9h7.1v-0.9c0-2.2-1.2-3.6-3.6-3.6C518,1040.6,516.8,1042,516.8,1044.2z"/>
	<path class="st7" d="M544.5,1041.5c0.1,0.3,0,0.5-0.3,0.6l-2.3,0.8c-0.4,0.1-0.5,0-0.6-0.3c-0.5-1.4-1.7-2.1-3.4-2.1
		c-1.8,0-2.8,0.7-2.8,1.9c0,1.1,0.7,1.5,4.1,2.5c4,1.1,5.6,2.7,5.6,5.5c0,3.3-2.7,5.4-6.8,5.4c-3.7,0-6.4-1.5-7.2-4.2
		c-0.1-0.4,0-0.5,0.4-0.7l2.1-1c0.4-0.1,0.6-0.1,0.7,0.4c0.5,1.5,2,2.4,3.9,2.4c2,0,3.1-0.8,3.1-2s-1-1.8-4.3-2.7
		c-3.8-1.1-5.4-2.6-5.4-5.3c0-3.2,2.6-5.3,6.5-5.3C541.2,1037.4,543.7,1038.9,544.5,1041.5z"/>
	<path class="st7" d="M552.7,1031.6v3c0,0.4-0.2,0.6-0.6,0.6h-2.8c-0.4,0-0.6-0.2-0.6-0.6v-3c0-0.4,0.2-0.6,0.6-0.6h2.8
		C552.5,1031,552.7,1031.2,552.7,1031.6z M552.7,1038.2v16.8c0,0.3-0.2,0.4-0.4,0.4h-3c-0.3,0-0.5-0.2-0.5-0.4v-16.8
		c0-0.3,0.2-0.4,0.5-0.4h3C552.5,1037.7,552.7,1037.9,552.7,1038.2z"/>
	<path class="st7" d="M572.2,1056.6c0,3-2.2,5.5-8.3,5.5c-5.5,0-7.6-1.9-7.6-4.7c0-1.5,0.9-2.9,2.7-3.7c-0.8-0.6-1.2-1.6-1.2-2.3
		c0-1.1,0.6-2,1.8-2.6c-1.8-1.1-2.8-2.8-2.8-5c0-3.5,2.2-6.1,6.9-6.1h7.9c0.2,0,0.4,0.2,0.4,0.4v2.2c0,0.3-0.2,0.4-0.4,0.4h-2.8
		c0.9,0.8,1.6,2,1.6,3.6c0,3-2.1,5.4-6.6,5.4h-1.1c-1.1,0-1.5,0.4-1.5,1.1c0,0.5,0.5,1,1.5,1h3.6
		C570.5,1051.9,572.2,1053.9,572.2,1056.6z M568.4,1056.9c0-1-0.6-2-2.7-2h-3.2c-1.9,0-2.6,1-2.6,2c0,1.5,1.2,2.4,4.2,2.4
		S568.4,1058.4,568.4,1056.9z M560.5,1043.8c0,1.9,1.1,3.2,3.3,3.2c2,0,3.2-1.2,3.2-3.2c0-1.9-1.1-3.2-3.2-3.2
		C561.6,1040.7,560.5,1041.8,560.5,1043.8z"/>
	<path class="st7" d="M579.6,1044.1v10.9c0,0.3-0.2,0.4-0.4,0.4h-3c-0.3,0-0.5-0.2-0.5-0.4v-16.8c0-0.2,0.1-0.4,0.4-0.4h3
		c0.3,0,0.4,0.2,0.4,0.4v2.1c1.1-1.6,2.9-2.9,5.3-2.9c3.4,0,5.2,2.4,5.2,6v11.6c0,0.3-0.2,0.4-0.4,0.4h-3c-0.3,0-0.5-0.2-0.5-0.4
		v-10.9c0-1.9-0.9-3.1-2.7-3.1C581.7,1041,580.3,1042.2,579.6,1044.1z"/>
	<path class="st7" d="M607.5,1041.5c0.1,0.3,0,0.5-0.3,0.6l-2.3,0.8c-0.4,0.1-0.5,0-0.6-0.3c-0.5-1.4-1.7-2.1-3.4-2.1
		c-1.8,0-2.8,0.7-2.8,1.9c0,1.1,0.7,1.5,4.1,2.5c4,1.1,5.6,2.7,5.6,5.5c0,3.3-2.7,5.4-6.8,5.4c-3.7,0-6.4-1.5-7.2-4.2
		c-0.1-0.4,0-0.5,0.4-0.7l2.1-1c0.4-0.1,0.6-0.1,0.7,0.4c0.5,1.5,2,2.4,3.9,2.4c2,0,3.1-0.8,3.1-2s-1-1.8-4.3-2.7
		c-3.8-1.1-5.4-2.6-5.4-5.3c0-3.2,2.6-5.3,6.5-5.3C604.2,1037.4,606.7,1038.9,607.5,1041.5z"/>
</g>
<g class="st6">
	<path class="st7" d="M253.7,1332.1l-6.8-22.5c-0.1-0.3,0-0.5,0.3-0.5h3.3c0.3,0,0.4,0.1,0.5,0.4l3.5,11.9c0.6,2.2,1.4,4.9,1.8,6.9
		h0.1c0.4-2,1.2-4.7,1.9-6.9l3.5-11.9c0.1-0.3,0.3-0.4,0.6-0.4h3.1c0.3,0,0.4,0.2,0.3,0.5l-6.8,22.5c-0.1,0.3-0.3,0.4-0.6,0.4h-4.1
		C254,1332.5,253.9,1332.4,253.7,1332.1z"/>
	<path class="st7" d="M273.1,1308.7v3c0,0.4-0.2,0.6-0.6,0.6h-2.8c-0.4,0-0.6-0.2-0.6-0.6v-3c0-0.4,0.2-0.6,0.6-0.6h2.8
		C272.9,1308.2,273.1,1308.4,273.1,1308.7z M273.1,1315.3v16.8c0,0.3-0.2,0.4-0.4,0.4h-3c-0.3,0-0.5-0.2-0.5-0.4v-16.8
		c0-0.3,0.2-0.4,0.5-0.4h3C272.9,1314.9,273.1,1315,273.1,1315.3z"/>
	<path class="st7" d="M290.7,1318.7c0.1,0.3,0,0.5-0.3,0.6l-2.3,0.8c-0.4,0.1-0.5,0-0.6-0.3c-0.5-1.4-1.7-2.1-3.4-2.1
		c-1.8,0-2.8,0.7-2.8,1.9c0,1.1,0.7,1.5,4.1,2.5c4,1.1,5.6,2.7,5.6,5.5c0,3.3-2.7,5.4-6.8,5.4c-3.7,0-6.4-1.5-7.2-4.2
		c-0.1-0.4,0-0.5,0.4-0.7l2.1-1c0.4-0.1,0.6-0.1,0.7,0.4c0.5,1.5,2,2.4,3.9,2.4c2,0,3.1-0.8,3.1-2s-1-1.8-4.3-2.7
		c-3.8-1.1-5.4-2.6-5.4-5.3c0-3.2,2.6-5.3,6.5-5.3C287.4,1314.5,289.9,1316.1,290.7,1318.7z"/>
	<path class="st7" d="M294.8,1326.9v-11.6c0-0.3,0.2-0.4,0.5-0.4h3c0.3,0,0.4,0.2,0.4,0.4v10.9c0,1.9,0.9,3,2.7,3
		c1.7,0,3.1-1.2,3.7-3v-10.9c0-0.3,0.1-0.4,0.4-0.4h3.1c0.3,0,0.5,0.2,0.5,0.4v16.8c0,0.2-0.2,0.4-0.4,0.4h-3
		c-0.3,0-0.4-0.2-0.4-0.4v-2.1c-1.1,1.6-2.9,2.9-5.3,2.9C296.6,1332.9,294.8,1330.5,294.8,1326.9z"/>
	<path class="st7" d="M327.3,1320.3v11.7c0,0.3-0.2,0.4-0.4,0.4H324c-0.3,0-0.4-0.2-0.4-0.4v-2.1c-1.1,1.8-2.9,2.9-5.1,2.9
		c-3.3,0-5.4-2.2-5.4-5.3c0-3.2,2.1-5.1,6.7-5.4c1.2-0.1,2.4-0.1,3.6,0v-1.6c0-2-1.1-2.8-2.9-2.8s-2.5,0.7-2.9,1.9
		c-0.1,0.4-0.3,0.4-0.6,0.3l-2.8-0.7c-0.3-0.1-0.4-0.3-0.3-0.5c0.5-2.5,2.8-4.2,6.8-4.2C324.8,1314.5,327.3,1316.5,327.3,1320.3z
		 M323.4,1326.8v-2.2c-1.1,0-2.2,0-3.3,0.1c-2.1,0.2-3.3,0.9-3.3,2.6c0,1.4,1,2.4,2.7,2.4C321.3,1329.7,322.7,1328.6,323.4,1326.8z"
		/>
	<path class="st7" d="M336,1308.6v23.5c0,0.3-0.2,0.4-0.4,0.4h-3c-0.3,0-0.5-0.2-0.5-0.4v-23.5c0-0.3,0.2-0.4,0.5-0.4h3
		C335.8,1308.1,336,1308.3,336,1308.6z"/>
	<path class="st7" d="M344.8,1308.7v3c0,0.4-0.2,0.6-0.6,0.6h-2.8c-0.4,0-0.6-0.2-0.6-0.6v-3c0-0.4,0.2-0.6,0.6-0.6h2.8
		C344.6,1308.2,344.8,1308.4,344.8,1308.7z M344.8,1315.3v16.8c0,0.3-0.2,0.4-0.4,0.4h-3c-0.3,0-0.5-0.2-0.5-0.4v-16.8
		c0-0.3,0.2-0.4,0.5-0.4h3C344.6,1314.9,344.8,1315,344.8,1315.3z"/>
</g>
<g class="st6">
	<path class="st7" d="M361.8,1315.3l0.2,1.8c0,0.3,0,0.6-0.2,0.8l-8.1,11.2h7.9c0.3,0,0.4,0.2,0.4,0.4v2.6c0,0.3-0.2,0.4-0.4,0.4
		h-12.1c-0.3,0-0.5-0.1-0.5-0.4l-0.2-1.8c-0.1-0.3,0-0.6,0.2-0.9l8.2-11.2h-7.6c-0.2,0-0.4-0.2-0.4-0.4v-2.6c0-0.2,0.1-0.4,0.4-0.4
		h11.9C361.6,1314.9,361.8,1315,361.8,1315.3z"/>
</g>
<g class="st6">
	<path class="st7" d="M369.1,1324.9v1c0,2.3,1.2,3.7,3.7,3.7c2.4,0,3.1-0.9,3.7-2.1c0.3-0.4,0.4-0.5,0.8-0.3l2,1
		c0.4,0.2,0.5,0.5,0.3,0.9c-1.1,2.3-3.5,3.7-6.9,3.7c-4.9,0-7.5-2.9-7.5-7v-4.4c0-4,2.5-7,7.4-7c4.7,0,7.1,3,7.1,6.9v2.7
		c0,0.5-0.2,0.8-0.8,0.8h-9.8V1324.9z M369.1,1321.4v0.9h7.1v-0.9c0-2.2-1.2-3.6-3.6-3.6C370.3,1317.8,369.1,1319.2,369.1,1321.4z"
		/>
</g>
<g class="st6">
	<path class="st7" d="M393.8,1315.1v2.8c0,0.4-0.1,0.5-0.5,0.5h-0.4c-2.6,0-4.1,1.3-4.8,3.3v10.4c0,0.3-0.2,0.4-0.4,0.4h-3.2
		c-0.2,0-0.4-0.1-0.4-0.4v-16.8c0-0.3,0.2-0.4,0.4-0.4h2.9c0.3,0,0.4,0.2,0.4,0.4v2.5c0.9-1.6,2.6-3.2,5.3-3.2
		C393.7,1314.7,393.8,1314.7,393.8,1315.1z"/>
</g>
<g class="st6">
	<path class="st7" d="M421.2,1332.5h-3.5c-0.4,0-0.5-0.1-0.6-0.4l-4.5-8.4h-3.3v8.3c0,0.3-0.2,0.4-0.5,0.4h-3.2
		c-0.3,0-0.4-0.2-0.4-0.4v-22.5c0-0.3,0.1-0.4,0.4-0.4h7.7c5,0,7.5,2.8,7.5,6.9v0.8c0,3.1-1.4,5.4-4.2,6.4l4.9,8.8
		C421.7,1332.2,421.6,1332.5,421.2,1332.5z M409.3,1320.2h3.7c2.7,0,3.7-1.2,3.7-3.4v-0.6c0-2.1-1.1-3.4-3.7-3.4h-3.7V1320.2z"/>
</g>
<g class="st6">
	<path class="st7" d="M428.4,1324.9v1c0,2.3,1.2,3.7,3.7,3.7c2.4,0,3.1-0.9,3.7-2.1c0.3-0.4,0.4-0.5,0.8-0.3l2,1
		c0.4,0.2,0.5,0.5,0.3,0.9c-1.1,2.3-3.5,3.7-6.9,3.7c-4.9,0-7.5-2.9-7.5-7v-4.4c0-4,2.5-7,7.4-7c4.7,0,7.1,3,7.1,6.9v2.7
		c0,0.5-0.2,0.8-0.8,0.8h-9.8V1324.9z M428.4,1321.4v0.9h7.1v-0.9c0-2.2-1.2-3.6-3.6-3.6C429.7,1317.8,428.4,1319.2,428.4,1321.4z"
		/>
	<path class="st7" d="M456.2,1318.7c0.1,0.3,0,0.5-0.3,0.6l-2.3,0.8c-0.4,0.1-0.5,0-0.6-0.3c-0.5-1.4-1.7-2.1-3.4-2.1
		c-1.8,0-2.8,0.7-2.8,1.9c0,1.1,0.7,1.5,4.1,2.5c4,1.1,5.6,2.7,5.6,5.5c0,3.3-2.7,5.4-6.8,5.4c-3.7,0-6.4-1.5-7.2-4.2
		c-0.1-0.4,0-0.5,0.4-0.7l2.1-1c0.4-0.1,0.6-0.1,0.7,0.4c0.5,1.5,2,2.4,3.9,2.4c2,0,3.1-0.8,3.1-2s-1-1.8-4.3-2.7
		c-3.8-1.1-5.4-2.6-5.4-5.3c0-3.2,2.6-5.3,6.5-5.3C452.8,1314.5,455.3,1316.1,456.2,1318.7z"/>
	<path class="st7" d="M463.6,1324.9v1c0,2.3,1.2,3.7,3.7,3.7c2.4,0,3.1-0.9,3.7-2.1c0.3-0.4,0.4-0.5,0.8-0.3l2,1
		c0.4,0.2,0.5,0.5,0.3,0.9c-1.1,2.3-3.5,3.7-6.9,3.7c-4.9,0-7.5-2.9-7.5-7v-4.4c0-4,2.5-7,7.4-7c4.7,0,7.1,3,7.1,6.9v2.7
		c0,0.5-0.2,0.8-0.8,0.8h-9.8V1324.9z M463.6,1321.4v0.9h7.1v-0.9c0-2.2-1.2-3.6-3.6-3.6S463.6,1319.2,463.6,1321.4z"/>
	<path class="st7" d="M491.8,1320.3v11.7c0,0.3-0.2,0.4-0.4,0.4h-2.8c-0.3,0-0.4-0.2-0.4-0.4v-2.1c-1.1,1.8-2.9,2.9-5.1,2.9
		c-3.3,0-5.4-2.2-5.4-5.3c0-3.2,2.1-5.1,6.7-5.4c1.2-0.1,2.4-0.1,3.6,0v-1.6c0-2-1.1-2.8-2.9-2.8s-2.5,0.7-2.9,1.9
		c-0.1,0.4-0.3,0.4-0.6,0.3l-2.8-0.7c-0.3-0.1-0.4-0.3-0.3-0.5c0.5-2.5,2.8-4.2,6.8-4.2C489.3,1314.5,491.8,1316.5,491.8,1320.3z
		 M488,1326.8v-2.2c-1.1,0-2.2,0-3.3,0.1c-2.1,0.2-3.3,0.9-3.3,2.6c0,1.4,1,2.4,2.7,2.4C485.9,1329.7,487.3,1328.6,488,1326.8z"/>
</g>
<g class="st6">
	<path class="st7" d="M506.3,1315.1v2.8c0,0.4-0.1,0.5-0.5,0.5h-0.4c-2.6,0-4.1,1.3-4.8,3.3v10.4c0,0.3-0.2,0.4-0.4,0.4H497
		c-0.2,0-0.4-0.1-0.4-0.4v-16.8c0-0.3,0.2-0.4,0.4-0.4h2.9c0.3,0,0.4,0.2,0.4,0.4v2.5c0.9-1.6,2.6-3.2,5.3-3.2
		C506.2,1314.7,506.3,1314.7,506.3,1315.1z"/>
</g>
<g class="st6">
	<path class="st7" d="M522.5,1319.6c0,0.3,0,0.5-0.4,0.6l-2.4,0.7c-0.5,0.1-0.6,0.1-0.7-0.3c-0.4-1.1-0.9-2.5-3.2-2.5
		c-2.2,0-3.3,1.4-3.3,3.8v3.9c0,2.4,1.2,3.7,3.3,3.7s2.8-1,3.3-2.4c0.1-0.4,0.3-0.5,0.7-0.3l2.5,0.9c0.4,0.1,0.4,0.4,0.3,0.7
		c-0.5,2.5-2.9,4.7-7,4.7c-4.4,0-7-2.9-7-7v-4.3c0-4.1,2.6-7.1,7-7.1C519.4,1314.5,522,1316.4,522.5,1319.6z"/>
	<path class="st7" d="M530.4,1308.6v8.9c1.1-1.6,2.8-2.9,5.2-2.9c3.4,0,5.2,2.5,5.2,6v11.5c0,0.4-0.2,0.4-0.4,0.4h-3
		c-0.3,0-0.5-0.2-0.5-0.4v-10.8c0-1.9-0.9-3-2.7-3c-1.7,0-3.1,1.2-3.8,3v10.8c0,0.3-0.2,0.4-0.4,0.4h-3c-0.3,0-0.5-0.2-0.5-0.4
		v-23.5c0-0.3,0.2-0.4,0.5-0.4h3C530.2,1308.2,530.4,1308.3,530.4,1308.6z"/>
</g>
</svg>
