<?xml version="1.0" encoding="utf-8"?>
<!-- Generator: Adobe Illustrator 24.1.1, SVG Export Plug-In . SVG Version: 6.00 Build 0)  -->
<svg version="1.1" id="Layer_1" xmlns="http://www.w3.org/2000/svg" xmlns:xlink="http://www.w3.org/1999/xlink" x="0px" y="0px"
	 viewBox="0 0 792 1622.2" style="enable-background:new 0 0 792 1622.2;" xml:space="preserve">
<style type="text/css">
	.st0{fill:#FFFFFF;}
	.st1{enable-background:new    ;}
	.st2{fill:#2F3443;}
	.st3{fill:#D9A828;}
</style>
<rect x="0.9" y="-39.4" class="st0" width="792" height="1697.4"/>
<g class="st1">
	<path class="st2" d="M218.8,61.2c0.1,0.3,0,0.5-0.3,0.6l-2.4,0.9c-0.3,0.1-0.5,0-0.7-0.3c-0.7-1.7-1.9-2.4-3.7-2.4
		c-2.1,0-3.5,1-3.5,2.6c0,1.5,1,2.2,5,3.7c4,1.5,5.7,3.4,5.7,6.5c0,3.7-3.1,6.5-7.6,6.5c-4.1,0-6.7-1.8-7.6-5.2
		c-0.1-0.3,0-0.5,0.3-0.6l2.5-0.8c0.4-0.1,0.6,0,0.7,0.3c0.4,1.9,1.8,2.8,4.1,2.8c2.3,0,3.7-1.1,3.7-2.7c0-1.6-0.9-2.3-4.3-3.6
		c-4.6-1.7-6.4-3.5-6.4-6.8c0-3.4,2.9-6.1,7.2-6.1C215.3,56.5,217.8,58.2,218.8,61.2z"/>
</g>
<g class="st1">
	<path class="st2" d="M222.6,73.5V62.7c0-0.3,0.2-0.4,0.4-0.4h2.9c0.3,0,0.4,0.2,0.4,0.4v10.2c0,1.8,0.9,2.9,2.5,2.9
		c1.6,0,2.9-1.2,3.5-2.9V62.7c0-0.3,0.1-0.4,0.4-0.4h2.9c0.3,0,0.4,0.2,0.4,0.4v15.8c0,0.2-0.1,0.4-0.4,0.4h-2.8
		c-0.3,0-0.4-0.2-0.4-0.4v-2c-1,1.5-2.7,2.7-5,2.7C224.4,79.2,222.6,76.9,222.6,73.5z"/>
	<path class="st2" d="M253.3,66.7c0,0.3,0,0.5-0.4,0.5l-2.3,0.6c-0.5,0.1-0.5,0.1-0.7-0.3c-0.3-1-0.8-2.4-3-2.4
		c-2,0-3.1,1.3-3.1,3.6v3.6c0,2.2,1.1,3.5,3.1,3.5c1.9,0,2.6-0.9,3.1-2.3c0.1-0.4,0.3-0.5,0.6-0.3l2.3,0.8c0.4,0.1,0.4,0.3,0.3,0.6
		c-0.5,2.3-2.7,4.4-6.5,4.4c-4.2,0-6.6-2.7-6.6-6.6v-4c0-3.8,2.4-6.7,6.6-6.7C250.4,61.9,252.8,63.7,253.3,66.7z"/>
	<path class="st2" d="M269.5,66.7c0,0.3,0,0.5-0.4,0.5l-2.3,0.6c-0.5,0.1-0.5,0.1-0.7-0.3c-0.3-1-0.8-2.4-3-2.4
		c-2,0-3.1,1.3-3.1,3.6v3.6c0,2.2,1.1,3.5,3.1,3.5c1.9,0,2.6-0.9,3.1-2.3c0.1-0.4,0.3-0.5,0.6-0.3l2.3,0.8c0.4,0.1,0.4,0.3,0.3,0.6
		c-0.5,2.3-2.7,4.4-6.5,4.4c-4.2,0-6.6-2.7-6.6-6.6v-4c0-3.8,2.4-6.7,6.6-6.7C266.6,61.9,269,63.7,269.5,66.7z"/>
	<path class="st2" d="M276.2,71.7v1c0,2.1,1.1,3.5,3.5,3.5c2.2,0,2.9-0.9,3.5-2c0.2-0.4,0.4-0.5,0.8-0.3l1.9,1
		c0.4,0.2,0.5,0.5,0.3,0.8c-1,2.2-3.3,3.5-6.4,3.5c-4.6,0-7-2.7-7-6.6v-4.1c0-3.8,2.3-6.6,7-6.6c4.4,0,6.7,2.8,6.7,6.5V71
		c0,0.5-0.2,0.7-0.8,0.7H276.2z M276.2,68.4v0.9h6.7v-0.9c0-2-1.1-3.4-3.3-3.4C277.4,65,276.2,66.3,276.2,68.4z"/>
	<path class="st2" d="M302.2,65.8c0.1,0.3,0,0.5-0.3,0.6l-2.2,0.8c-0.3,0.1-0.5,0-0.6-0.3c-0.5-1.3-1.6-2-3.2-2
		c-1.7,0-2.7,0.7-2.7,1.8c0,1,0.7,1.4,3.9,2.3c3.8,1,5.2,2.5,5.2,5.1c0,3.1-2.5,5.1-6.4,5.1c-3.5,0-6-1.4-6.8-3.9
		c-0.1-0.3,0-0.5,0.4-0.7l1.9-1c0.4-0.1,0.5-0.1,0.7,0.4c0.4,1.4,1.9,2.2,3.7,2.2c1.9,0,2.9-0.7,2.9-1.9c0-1.1-0.9-1.7-4-2.5
		c-3.6-1-5.1-2.4-5.1-5c0-3,2.4-5,6.1-5C299.1,61.9,301.4,63.4,302.2,65.8z"/>
	<path class="st2" d="M318.1,65.8c0.1,0.3,0,0.5-0.3,0.6l-2.2,0.8c-0.3,0.1-0.5,0-0.6-0.3c-0.5-1.3-1.6-2-3.2-2
		c-1.7,0-2.7,0.7-2.7,1.8c0,1,0.7,1.4,3.9,2.3c3.8,1,5.2,2.5,5.2,5.1c0,3.1-2.5,5.1-6.4,5.1c-3.5,0-6-1.4-6.8-3.9
		c-0.1-0.3,0-0.5,0.4-0.7l1.9-1c0.4-0.1,0.5-0.1,0.7,0.4c0.4,1.4,1.9,2.2,3.7,2.2c1.9,0,2.9-0.7,2.9-1.9c0-1.1-0.9-1.7-4-2.5
		c-3.6-1-5.1-2.4-5.1-5c0-3,2.4-5,6.1-5C315,61.9,317.3,63.4,318.1,65.8z"/>
	<path class="st2" d="M330.8,56.4v2.3c0,0.2-0.1,0.4-0.4,0.4H329c-1.4,0-2,0.6-2,1.8v1.6h3.4c0.2,0,0.3,0.2,0.3,0.4V65
		c0,0.3-0.2,0.4-0.4,0.4H327v13c0,0.3-0.1,0.4-0.4,0.4h-2.9c-0.2,0-0.4-0.1-0.4-0.4v-13H321c-0.2,0-0.4-0.2-0.4-0.4v-2.3
		c0-0.2,0.1-0.4,0.4-0.4h2.3v-1.5c0-3.1,1.8-4.9,5-4.9h2C330.7,56,330.8,56.2,330.8,56.4z"/>
	<path class="st2" d="M333.7,73.5V62.7c0-0.3,0.2-0.4,0.5-0.4h2.9c0.3,0,0.4,0.2,0.4,0.4v10.2c0,1.8,0.9,2.9,2.5,2.9
		c1.6,0,2.9-1.2,3.5-2.9V62.7c0-0.3,0.1-0.4,0.4-0.4h2.9c0.3,0,0.4,0.2,0.4,0.4v15.8c0,0.2-0.1,0.4-0.4,0.4H344
		c-0.3,0-0.4-0.2-0.4-0.4v-2c-1,1.5-2.7,2.7-5,2.7C335.4,79.2,333.7,76.9,333.7,73.5z"/>
	<path class="st2" d="M355.5,56.4v22c0,0.3-0.2,0.4-0.4,0.4h-2.8c-0.3,0-0.5-0.2-0.5-0.4v-22c0-0.3,0.1-0.4,0.5-0.4h2.8
		C355.3,55.9,355.5,56.1,355.5,56.4z"/>
	<path class="st2" d="M363.8,56.4v22c0,0.3-0.2,0.4-0.4,0.4h-2.8c-0.3,0-0.5-0.2-0.5-0.4v-22c0-0.3,0.1-0.4,0.5-0.4h2.8
		C363.6,55.9,363.8,56.1,363.8,56.4z"/>
</g>
<g class="st1">
	<path class="st2" d="M381.9,62.8l-5.6,15.3c-1.2,3.2-2.7,5.6-4.9,7c-0.3,0.2-0.5,0.3-0.9,0l-1.6-1.7c-0.2-0.2-0.1-0.6,0.1-0.8
		c1.8-1.2,2.9-2.3,3.7-4.8l-5.9-15c-0.1-0.3,0.1-0.5,0.4-0.5h3.1c0.3,0,0.4,0.1,0.5,0.4l1.9,5.5c0.8,2.4,1.4,4.1,1.8,6h0.1
		c0.5-2.3,1-3.7,1.8-6l1.8-5.6c0.1-0.2,0.3-0.4,0.5-0.4h2.9C381.8,62.3,382,62.5,381.9,62.8z"/>
</g>
<g class="st1">
</g>
<g class="st1">
	<path class="st2" d="M407.7,78.8h-3.1c-0.3,0-0.4-0.1-0.5-0.4l-1.6-5.1h-7.4l-1.6,5.1c-0.1,0.3-0.3,0.4-0.6,0.4H390
		c-0.3,0-0.4-0.2-0.3-0.5l6.6-21.1c0.1-0.3,0.3-0.4,0.5-0.4h3.8c0.4,0,0.5,0.1,0.6,0.4l6.7,21.1C408.1,78.6,407.9,78.8,407.7,78.8z
		 M401.4,69.9l-0.8-2.6c-0.6-2-1.3-4.6-1.7-6.5h-0.1c-0.4,1.9-1.1,4.4-1.8,6.5l-0.8,2.5H401.4z"/>
	<path class="st2" d="M419.1,61.9c2.2,0,3.5,1.3,4.1,3c1.2-1.8,2.8-3,4.8-3c2.8,0,4.5,2.2,4.5,5.4v11c0,0.3-0.2,0.4-0.5,0.4h-2.7
		c-0.3,0-0.5-0.2-0.5-0.4V68.1c0-1.7-0.8-2.7-2.1-2.7c-1.3,0-2.5,1-3.1,2.8v10.3c0,0.3-0.2,0.4-0.4,0.4h-2.9c-0.3,0-0.4-0.2-0.4-0.4
		V68.1c0-1.7-0.8-2.7-2.1-2.7c-1.4,0-2.6,1.2-3.1,2.8v10.2c0,0.3-0.1,0.4-0.4,0.4h-2.9c-0.3,0-0.4-0.2-0.4-0.4V62.7
		c0-0.2,0.1-0.4,0.4-0.4h2.8c0.3,0,0.4,0.2,0.4,0.4v2C415.5,63.3,417,61.9,419.1,61.9z"/>
	<path class="st2" d="M449.4,67.4v11c0,0.3-0.2,0.4-0.4,0.4h-2.6c-0.3,0-0.4-0.2-0.4-0.4v-2c-1,1.7-2.7,2.7-4.7,2.7
		c-3.1,0-5.1-2-5.1-5c0-3,2-4.7,6.3-5c1.2-0.1,2.3-0.1,3.4,0v-1.5c0-1.9-1-2.6-2.7-2.6s-2.3,0.6-2.8,1.8c-0.1,0.3-0.2,0.4-0.6,0.3
		l-2.6-0.7c-0.3-0.1-0.4-0.2-0.3-0.5c0.5-2.3,2.6-4,6.4-4C447.1,61.9,449.4,63.8,449.4,67.4z M445.8,73.5v-2c-1,0-2.1,0-3.1,0.1
		c-2,0.2-3.1,0.9-3.1,2.4c0,1.3,0.9,2.2,2.5,2.2C443.8,76.2,445.1,75.2,445.8,73.5z"/>
	<path class="st2" d="M457.6,56.4v22c0,0.3-0.2,0.4-0.4,0.4h-2.8c-0.3,0-0.5-0.2-0.5-0.4v-22c0-0.3,0.1-0.4,0.5-0.4h2.8
		C457.4,55.9,457.6,56.1,457.6,56.4z"/>
</g>
<g class="st1">
	<path class="st2" d="M475.9,80c0,2.8-2.1,5.2-7.8,5.2c-5.1,0-7.1-1.8-7.1-4.4c0-1.4,0.8-2.7,2.6-3.5c-0.8-0.6-1.2-1.5-1.2-2.2
		c0-1,0.6-1.9,1.7-2.4c-1.7-1-2.6-2.6-2.6-4.6c0-3.3,2-5.7,6.4-5.7h7.4c0.2,0,0.3,0.2,0.3,0.4v2.1c0,0.3-0.2,0.4-0.4,0.4h-2.6
		c0.9,0.7,1.5,1.9,1.5,3.4c0,2.9-2,5-6.2,5h-1.1c-1,0-1.4,0.4-1.4,1c0,0.5,0.5,0.9,1.4,0.9l3.4,0C474.3,75.5,475.9,77.4,475.9,80z
		 M472.3,80.3c0-1-0.6-1.9-2.5-1.9h-3c-1.8,0-2.4,0.9-2.4,1.9c0,1.4,1.1,2.3,3.9,2.3S472.3,81.6,472.3,80.3z M464.9,68
		c0,1.8,1.1,3,3.1,3c1.9,0,3-1.1,3-3c0-1.8-1-3-3-3C465.9,65.1,464.9,66.1,464.9,68z"/>
</g>
<g class="st1">
	<path class="st2" d="M491.4,67.4v11c0,0.3-0.1,0.4-0.4,0.4h-2.6c-0.3,0-0.4-0.2-0.4-0.4v-2c-1,1.7-2.7,2.7-4.7,2.7
		c-3.1,0-5.1-2-5.1-5c0-3,2-4.7,6.3-5c1.2-0.1,2.3-0.1,3.4,0v-1.5c0-1.9-1-2.6-2.7-2.6s-2.3,0.6-2.8,1.8c-0.1,0.3-0.2,0.4-0.6,0.3
		l-2.6-0.7c-0.3-0.1-0.4-0.2-0.3-0.5c0.5-2.3,2.6-4,6.4-4C489,61.9,491.4,63.8,491.4,67.4z M487.7,73.5v-2c-1,0-2.1,0-3.1,0.1
		c-1.9,0.2-3.1,0.9-3.1,2.4c0,1.3,0.9,2.2,2.5,2.2C485.8,76.2,487.1,75.2,487.7,73.5z"/>
	<path class="st2" d="M504,61.9c2.2,0,3.5,1.3,4.1,3c1.2-1.8,2.8-3,4.8-3c2.8,0,4.5,2.2,4.5,5.4v11c0,0.3-0.2,0.4-0.5,0.4h-2.7
		c-0.3,0-0.5-0.2-0.5-0.4V68.1c0-1.7-0.8-2.7-2.1-2.7c-1.3,0-2.5,1-3.1,2.8v10.3c0,0.3-0.2,0.4-0.4,0.4h-2.9c-0.3,0-0.4-0.2-0.4-0.4
		V68.1c0-1.7-0.8-2.7-2.1-2.7c-1.4,0-2.6,1.2-3.1,2.8v10.2c0,0.3-0.1,0.4-0.4,0.4h-2.9c-0.3,0-0.4-0.2-0.4-0.4V62.7
		c0-0.2,0.1-0.4,0.4-0.4h2.8c0.3,0,0.4,0.2,0.4,0.4v2C500.4,63.3,501.9,61.9,504,61.9z"/>
</g>
<g class="st1">
	<path class="st2" d="M534.2,67.4v11c0,0.3-0.1,0.4-0.4,0.4h-2.6c-0.3,0-0.4-0.2-0.4-0.4v-2c-1,1.7-2.7,2.7-4.7,2.7
		c-3.1,0-5.1-2-5.1-5c0-3,2-4.7,6.3-5c1.2-0.1,2.3-0.1,3.4,0v-1.5c0-1.9-1-2.6-2.7-2.6s-2.3,0.6-2.8,1.8c-0.1,0.3-0.2,0.4-0.6,0.3
		l-2.6-0.7c-0.3-0.1-0.4-0.2-0.3-0.5c0.5-2.3,2.6-4,6.4-4C531.9,61.9,534.2,63.8,534.2,67.4z M530.6,73.5v-2c-1,0-2.1,0-3.1,0.1
		c-1.9,0.2-3.1,0.9-3.1,2.4c0,1.3,0.9,2.2,2.5,2.2C528.7,76.2,530,75.2,530.6,73.5z"/>
</g>
<g class="st1">
	<path class="st2" d="M543.3,58.6v3.8h3.3c0.2,0,0.4,0.2,0.4,0.5V65c0,0.3-0.2,0.4-0.4,0.4h-3.3v8.3c0,1.2,0.7,1.8,2,1.8h1.3
		c0.3,0,0.4,0.1,0.4,0.4v2.4c0,0.3-0.2,0.4-0.4,0.4h-1.9c-3.4,0-5-1.8-5-4.6v-8.8h-2.1c-0.3,0-0.4-0.1-0.4-0.4v-2.2
		c0-0.3,0.1-0.5,0.4-0.5h2.1v-3.8c0-0.2,0.2-0.4,0.4-0.4h2.8C543.2,58.2,543.3,58.4,543.3,58.6z"/>
	<path class="st2" d="M553.5,71.7v1c0,2.1,1.1,3.5,3.5,3.5c2.2,0,2.9-0.9,3.5-2c0.2-0.4,0.4-0.5,0.8-0.3l1.9,1
		c0.4,0.2,0.5,0.5,0.3,0.8c-1,2.2-3.3,3.5-6.5,3.5c-4.6,0-7-2.7-7-6.6v-4.1c0-3.8,2.3-6.6,7-6.6c4.4,0,6.7,2.8,6.7,6.5V71
		c0,0.5-0.2,0.7-0.8,0.7H553.5z M553.5,68.4v0.9h6.7v-0.9c0-2-1.1-3.4-3.3-3.4C554.7,65,553.5,66.3,553.5,68.4z"/>
	<path class="st2" d="M567.1,72.8v-4.4c0-3.8,2.2-6.4,5.6-6.4c2.4,0,4,1.3,4.7,2.4v-8c0-0.2,0.1-0.4,0.4-0.4h2.9
		c0.2,0,0.4,0.2,0.4,0.4v22.1c0,0.2-0.2,0.4-0.4,0.4H578c-0.2,0-0.4-0.2-0.4-0.4v-1.7c-0.7,1.2-2.3,2.4-4.7,2.4
		C569.3,79.2,567.1,76.6,567.1,72.8z M577.5,72.3v-3.4c0-2.3-1.5-3.7-3.4-3.7c-2.1,0-3.2,1.4-3.2,3.7v3.4c0,2.3,1.1,3.6,3.2,3.6
		C575.9,75.9,577.5,74.6,577.5,72.3z"/>
</g>
<g class="st1">
</g>
<g class="st1">
	<path class="st2" d="M157.7,99.6v1.4c0,4.2-2.4,6.8-7.2,6.8h-3.2v6.5c0,0.3-0.1,0.4-0.4,0.4h-3c-0.3,0-0.4-0.2-0.4-0.4V93.3
		c0-0.2,0.2-0.4,0.4-0.4h6.7C155.3,92.9,157.7,95.6,157.7,99.6z M147.3,96.3v8.1h2.9c2.7,0,3.6-1.2,3.6-3.6v-0.9
		c0-2.3-0.9-3.6-3.6-3.6H147.3z"/>
</g>
<g class="st1">
	<path class="st2" d="M170.4,98.5v2.6c0,0.3-0.1,0.4-0.5,0.4h-0.4c-2.4,0-3.9,1.2-4.5,3.1v9.8c0,0.3-0.2,0.4-0.4,0.4h-3
		c-0.2,0-0.4-0.1-0.4-0.4V98.7c0-0.3,0.2-0.4,0.4-0.4h2.7c0.3,0,0.4,0.2,0.4,0.4l0,2.3c0.8-1.5,2.4-3,4.9-3
		C170.3,98.1,170.4,98.1,170.4,98.5z"/>
</g>
<g class="st1">
	<path class="st2" d="M176.1,107.7v1c0,2.1,1.1,3.5,3.5,3.5c2.2,0,2.9-0.9,3.5-2c0.2-0.4,0.4-0.5,0.8-0.3l1.9,1
		c0.4,0.2,0.5,0.5,0.3,0.8c-1,2.2-3.3,3.5-6.4,3.5c-4.6,0-7-2.7-7-6.6v-4.1c0-3.8,2.3-6.6,7-6.6c4.4,0,6.7,2.8,6.7,6.5v2.5
		c0,0.5-0.2,0.7-0.8,0.7H176.1z M176.1,104.4v0.9h6.7v-0.9c0-2-1.1-3.4-3.3-3.4S176.1,102.3,176.1,104.4z"/>
	<path class="st2" d="M199.3,104.1v2.6c0,0.3-0.2,0.4-0.4,0.4h-8.4c-0.2,0-0.4-0.1-0.4-0.4v-2.6c0-0.3,0.1-0.4,0.4-0.4h8.4
		C199.2,103.7,199.3,103.8,199.3,104.1z"/>
	<path class="st2" d="M218.9,97.9c0.1,0.4,0,0.6-0.3,0.7l-2.5,0.8c-0.4,0.1-0.5,0-0.6-0.4c-0.6-1.7-1.6-3-3.9-3
		c-2.8,0-4.1,1.7-4.1,4.7v6.2c0,2.9,1.4,4.7,4.1,4.7c2.5,0,3.6-1.3,4-3.2c0.1-0.4,0.3-0.5,0.6-0.4l2.5,0.8c0.3,0.1,0.4,0.3,0.3,0.7
		c-0.8,3.2-3.1,5.6-7.6,5.6c-5,0-7.9-3.2-7.9-8v-6.5c0-4.9,2.9-8,7.9-8C215.8,92.5,218,94.8,218.9,97.9z"/>
	<path class="st2" d="M236.1,104.6v3.9c0,3.9-2.3,6.7-7,6.7c-4.7,0-7-2.7-7-6.6v-3.9c0-3.9,2.3-6.8,7-6.8
		C233.9,97.9,236.1,100.8,236.1,104.6z M225.8,104.8v3.6c0,2.2,1.1,3.5,3.3,3.5c2.2,0,3.3-1.3,3.3-3.5v-3.6c0-2.2-1.1-3.6-3.3-3.6
		C226.9,101.2,225.8,102.6,225.8,104.8z"/>
	<path class="st2" d="M239.7,108.8v-4.4c0-3.8,2.2-6.4,5.6-6.4c2.4,0,4,1.3,4.7,2.4v-8c0-0.2,0.1-0.4,0.4-0.4h2.9
		c0.2,0,0.4,0.2,0.4,0.4v22.1c0,0.2-0.1,0.4-0.4,0.4h-2.8c-0.2,0-0.4-0.2-0.4-0.4v-1.7c-0.7,1.2-2.3,2.4-4.7,2.4
		C241.9,115.2,239.7,112.6,239.7,108.8z M250.1,108.3v-3.4c0-2.3-1.5-3.7-3.4-3.7c-2.1,0-3.2,1.4-3.2,3.7v3.4c0,2.3,1.1,3.6,3.2,3.6
		C248.5,111.9,250.1,110.6,250.1,108.3z"/>
	<path class="st2" d="M261.4,107.7v1c0,2.1,1.1,3.5,3.5,3.5c2.2,0,2.9-0.9,3.5-2c0.2-0.4,0.4-0.5,0.8-0.3l1.9,1
		c0.4,0.2,0.5,0.5,0.3,0.8c-1,2.2-3.3,3.5-6.4,3.5c-4.6,0-7-2.7-7-6.6v-4.1c0-3.8,2.3-6.6,7-6.6c4.4,0,6.7,2.8,6.7,6.5v2.5
		c0,0.5-0.2,0.7-0.8,0.7H261.4z M261.4,104.4v0.9h6.7v-0.9c0-2-1.1-3.4-3.3-3.4C262.5,101,261.4,102.3,261.4,104.4z"/>
	<path class="st2" d="M275,108.8v-4.4c0-3.8,2.3-6.4,5.6-6.4c2.4,0,4,1.3,4.7,2.4v-8c0-0.2,0.1-0.4,0.4-0.4h2.9
		c0.2,0,0.4,0.2,0.4,0.4v22.1c0,0.2-0.1,0.4-0.4,0.4h-2.8c-0.2,0-0.4-0.2-0.4-0.4v-1.7c-0.7,1.2-2.3,2.4-4.7,2.4
		C277.2,115.2,275,112.6,275,108.8z M285.3,108.3v-3.4c0-2.3-1.5-3.7-3.4-3.7c-2.1,0-3.2,1.4-3.2,3.7v3.4c0,2.3,1.1,3.6,3.2,3.6
		C283.8,111.9,285.3,110.6,285.3,108.3z"/>
</g>
<g class="st1">
</g>
<g class="st1">
	<path class="st2" d="M317.1,114.8h-3.1c-0.3,0-0.4-0.1-0.5-0.4l-1.6-5.1h-7.4l-1.6,5.1c-0.1,0.3-0.3,0.4-0.6,0.4h-2.9
		c-0.3,0-0.4-0.2-0.3-0.5l6.6-21.1c0.1-0.3,0.3-0.4,0.5-0.4h3.8c0.4,0,0.5,0.1,0.6,0.4l6.7,21.1
		C317.5,114.6,317.4,114.8,317.1,114.8z M310.9,105.9l-0.8-2.6c-0.6-2-1.3-4.6-1.7-6.5h-0.1c-0.4,1.9-1.1,4.4-1.8,6.5l-0.8,2.5
		H310.9z"/>
	<path class="st2" d="M320.8,120.8c-0.2,0-0.4-0.2-0.4-0.4V98.7c0-0.2,0.1-0.4,0.4-0.4h2.8c0.2,0,0.4,0.2,0.4,0.4v1.7
		c0.7-1.1,2.3-2.4,4.6-2.4c3.6,0,5.8,2.5,5.8,6.4v4.4c0,3.8-2.2,6.4-5.6,6.4c-2.4,0-4-1.2-4.7-2.4v7.7c0,0.2-0.1,0.4-0.4,0.4H320.8z
		 M330.8,108.2v-3.4c0-2.3-1.1-3.6-3.2-3.6c-1.9,0-3.4,1.3-3.4,3.6v3.4c0,2.4,1.5,3.7,3.4,3.7C329.7,111.9,330.8,110.5,330.8,108.2z
		"/>
	<path class="st2" d="M339,120.8c-0.2,0-0.4-0.2-0.4-0.4V98.7c0-0.2,0.1-0.4,0.4-0.4h2.8c0.2,0,0.4,0.2,0.4,0.4v1.7
		c0.7-1.1,2.3-2.4,4.6-2.4c3.6,0,5.8,2.5,5.8,6.4v4.4c0,3.8-2.2,6.4-5.6,6.4c-2.4,0-4-1.2-4.7-2.4v7.7c0,0.2-0.1,0.4-0.4,0.4H339z
		 M349,108.2v-3.4c0-2.3-1.1-3.6-3.2-3.6c-1.9,0-3.4,1.3-3.4,3.6v3.4c0,2.4,1.5,3.7,3.4,3.7C347.9,111.9,349,110.5,349,108.2z"/>
	<path class="st2" d="M360.5,92.4v22c0,0.3-0.1,0.4-0.4,0.4h-2.8c-0.3,0-0.5-0.2-0.5-0.4v-22c0-0.3,0.1-0.4,0.5-0.4h2.8
		C360.4,91.9,360.5,92.1,360.5,92.4z"/>
	<path class="st2" d="M368.8,92.5v2.9c0,0.4-0.2,0.5-0.5,0.5h-2.6c-0.4,0-0.6-0.2-0.6-0.5v-2.9c0-0.3,0.2-0.5,0.6-0.5h2.6
		C368.6,92,368.8,92.2,368.8,92.5z M368.8,98.7v15.7c0,0.3-0.1,0.4-0.4,0.4h-2.8c-0.3,0-0.5-0.2-0.5-0.4V98.7c0-0.3,0.1-0.4,0.5-0.4
		h2.8C368.7,98.3,368.8,98.4,368.8,98.7z"/>
	<path class="st2" d="M386,102.7c0,0.3,0,0.5-0.4,0.5l-2.3,0.6c-0.4,0.1-0.5,0.1-0.7-0.3c-0.3-1-0.8-2.4-3-2.4c-2,0-3.1,1.3-3.1,3.6
		v3.6c0,2.2,1.1,3.5,3.1,3.5c1.9,0,2.6-0.9,3.1-2.3c0.1-0.4,0.3-0.5,0.6-0.3l2.3,0.8c0.4,0.1,0.4,0.3,0.3,0.6
		c-0.5,2.3-2.7,4.4-6.5,4.4c-4.2,0-6.6-2.7-6.6-6.6v-4c0-3.8,2.4-6.7,6.6-6.7C383,97.9,385.5,99.7,386,102.7z"/>
</g>
<g class="st1">
	<path class="st2" d="M402,103.4v11c0,0.3-0.2,0.4-0.4,0.4H399c-0.3,0-0.4-0.2-0.4-0.4v-2c-1,1.7-2.7,2.7-4.7,2.7
		c-3.1,0-5.1-2-5.1-5c0-3,2-4.7,6.3-5c1.2-0.1,2.3-0.1,3.4,0v-1.5c0-1.9-1-2.6-2.7-2.6c-1.7,0-2.3,0.6-2.8,1.8
		c-0.1,0.3-0.2,0.4-0.6,0.3l-2.6-0.7c-0.3-0.1-0.4-0.2-0.3-0.5c0.5-2.3,2.6-4,6.4-4C399.7,97.9,402,99.8,402,103.4z M398.4,109.5v-2
		c-1,0-2.1,0-3.1,0.1c-1.9,0.2-3.1,0.9-3.1,2.4c0,1.3,0.9,2.2,2.5,2.2C396.4,112.2,397.7,111.2,398.4,109.5z"/>
</g>
<g class="st1">
	<path class="st2" d="M411,94.6v3.8h3.3c0.2,0,0.4,0.2,0.4,0.5v2.2c0,0.3-0.1,0.4-0.4,0.4H411v8.3c0,1.2,0.7,1.8,2,1.8h1.3
		c0.3,0,0.4,0.1,0.4,0.4v2.4c0,0.3-0.1,0.4-0.4,0.4h-1.9c-3.4,0-5-1.8-5-4.6v-8.8h-2.1c-0.3,0-0.4-0.1-0.4-0.4v-2.2
		c0-0.3,0.2-0.5,0.4-0.5h2.1v-3.8c0-0.2,0.1-0.4,0.4-0.4h2.8C410.9,94.2,411,94.4,411,94.6z"/>
	<path class="st2" d="M422,92.5v2.9c0,0.4-0.2,0.5-0.5,0.5h-2.6c-0.4,0-0.6-0.2-0.6-0.5v-2.9c0-0.3,0.2-0.5,0.6-0.5h2.6
		C421.8,92,422,92.2,422,92.5z M422,98.7v15.7c0,0.3-0.2,0.4-0.4,0.4h-2.8c-0.3,0-0.5-0.2-0.5-0.4V98.7c0-0.3,0.1-0.4,0.5-0.4h2.8
		C421.8,98.3,422,98.4,422,98.7z"/>
	<path class="st2" d="M440.1,104.6v3.9c0,3.9-2.3,6.7-7,6.7c-4.7,0-7-2.7-7-6.6v-3.9c0-3.9,2.3-6.8,7-6.8
		C437.8,97.9,440.1,100.8,440.1,104.6z M429.7,104.8v3.6c0,2.2,1.1,3.5,3.3,3.5c2.2,0,3.3-1.3,3.3-3.5v-3.6c0-2.2-1.1-3.6-3.3-3.6
		C430.8,101.2,429.7,102.6,429.7,104.8z"/>
	<path class="st2" d="M447.9,104.2v10.2c0,0.3-0.2,0.4-0.4,0.4h-2.8c-0.3,0-0.5-0.2-0.5-0.4V98.7c0-0.2,0.1-0.4,0.4-0.4h2.8
		c0.3,0,0.4,0.2,0.4,0.4v2c1-1.5,2.7-2.7,5-2.7c3.1,0,4.9,2.3,4.9,5.6v10.8c0,0.3-0.1,0.4-0.4,0.4h-2.8c-0.3,0-0.5-0.2-0.5-0.4
		v-10.2c0-1.8-0.8-2.9-2.5-2.9C449.8,101.3,448.5,102.5,447.9,104.2z"/>
</g>
<g class="st1">
	<path class="st2" d="M483,93.3v2.6c0,0.3-0.1,0.4-0.4,0.4h-8.3v6.4h7.4c0.3,0,0.4,0.1,0.4,0.4v2.5c0,0.3-0.2,0.4-0.4,0.4h-7.4v8.4
		c0,0.3-0.1,0.4-0.5,0.4h-3c-0.3,0-0.4-0.2-0.4-0.4V93.3c0-0.3,0.1-0.4,0.4-0.4h11.8C482.8,92.9,483,93,483,93.3z"/>
</g>
<g class="st1">
	<path class="st2" d="M486.1,109.5V98.7c0-0.3,0.2-0.4,0.5-0.4h2.8c0.3,0,0.4,0.2,0.4,0.4v10.2c0,1.8,0.9,2.9,2.5,2.9
		c1.6,0,2.9-1.2,3.5-2.9V98.7c0-0.3,0.1-0.4,0.4-0.4h2.9c0.3,0,0.4,0.2,0.4,0.4v15.8c0,0.2-0.1,0.4-0.4,0.4h-2.8
		c-0.3,0-0.4-0.2-0.4-0.4v-2c-1,1.5-2.7,2.7-5,2.7C487.9,115.2,486.1,112.9,486.1,109.5z"/>
	<path class="st2" d="M507.9,104.2v10.2c0,0.3-0.1,0.4-0.4,0.4h-2.8c-0.3,0-0.5-0.2-0.5-0.4V98.7c0-0.2,0.1-0.4,0.4-0.4h2.8
		c0.3,0,0.4,0.2,0.4,0.4v2c1-1.5,2.7-2.7,5-2.7c3.1,0,4.9,2.3,4.9,5.6v10.8c0,0.3-0.2,0.4-0.4,0.4h-2.8c-0.3,0-0.5-0.2-0.5-0.4
		v-10.2c0-1.8-0.8-2.9-2.5-2.9C509.8,101.3,508.5,102.5,507.9,104.2z"/>
	<path class="st2" d="M534.7,102.7c0,0.3,0,0.5-0.4,0.5l-2.3,0.6c-0.5,0.1-0.5,0.1-0.7-0.3c-0.3-1-0.8-2.4-3-2.4
		c-2,0-3.1,1.3-3.1,3.6v3.6c0,2.2,1.1,3.5,3.1,3.5c2,0,2.6-0.9,3.1-2.3c0.1-0.4,0.3-0.5,0.6-0.3l2.3,0.8c0.4,0.1,0.4,0.3,0.3,0.6
		c-0.5,2.3-2.7,4.4-6.5,4.4c-4.2,0-6.6-2.7-6.6-6.6v-4c0-3.8,2.4-6.7,6.6-6.7C531.8,97.9,534.2,99.7,534.7,102.7z"/>
	<path class="st2" d="M543.1,94.6v3.8h3.3c0.2,0,0.4,0.2,0.4,0.5v2.2c0,0.3-0.1,0.4-0.4,0.4h-3.3v8.3c0,1.2,0.7,1.8,2,1.8h1.3
		c0.3,0,0.4,0.1,0.4,0.4v2.4c0,0.3-0.1,0.4-0.4,0.4h-1.9c-3.4,0-5-1.8-5-4.6v-8.8h-2.1c-0.3,0-0.4-0.1-0.4-0.4v-2.2
		c0-0.3,0.2-0.5,0.4-0.5h2.1v-3.8c0-0.2,0.1-0.4,0.4-0.4h2.8C543,94.2,543.1,94.4,543.1,94.6z"/>
	<path class="st2" d="M554,92.5v2.9c0,0.4-0.2,0.5-0.5,0.5h-2.6c-0.4,0-0.6-0.2-0.6-0.5v-2.9c0-0.3,0.2-0.5,0.6-0.5h2.6
		C553.8,92,554,92.2,554,92.5z M554,98.7v15.7c0,0.3-0.2,0.4-0.4,0.4h-2.8c-0.3,0-0.5-0.2-0.5-0.4V98.7c0-0.3,0.1-0.4,0.5-0.4h2.8
		C553.9,98.3,554,98.4,554,98.7z"/>
	<path class="st2" d="M572.1,104.6v3.9c0,3.9-2.3,6.7-7,6.7c-4.7,0-7-2.7-7-6.6v-3.9c0-3.9,2.3-6.8,7-6.8
		C569.9,97.9,572.1,100.8,572.1,104.6z M561.8,104.8v3.6c0,2.2,1.1,3.5,3.3,3.5c2.2,0,3.3-1.3,3.3-3.5v-3.6c0-2.2-1.1-3.6-3.3-3.6
		C562.9,101.2,561.8,102.6,561.8,104.8z"/>
	<path class="st2" d="M579.9,104.2v10.2c0,0.3-0.1,0.4-0.4,0.4h-2.8c-0.3,0-0.5-0.2-0.5-0.4V98.7c0-0.2,0.1-0.4,0.4-0.4h2.8
		c0.3,0,0.4,0.2,0.4,0.4v2c1-1.5,2.7-2.7,5-2.7c3.1,0,4.9,2.3,4.9,5.6v10.8c0,0.3-0.2,0.4-0.4,0.4h-2.8c-0.3,0-0.5-0.2-0.5-0.4
		v-10.2c0-1.8-0.8-2.9-2.5-2.9C581.8,101.3,580.5,102.5,579.9,104.2z"/>
	<path class="st2" d="M606.6,103.4v11c0,0.3-0.1,0.4-0.4,0.4h-2.6c-0.3,0-0.4-0.2-0.4-0.4v-2c-1,1.7-2.7,2.7-4.7,2.7
		c-3.1,0-5.1-2-5.1-5c0-3,2-4.7,6.3-5c1.2-0.1,2.3-0.1,3.4,0v-1.5c0-1.9-1-2.6-2.7-2.6s-2.3,0.6-2.8,1.8c-0.1,0.3-0.2,0.4-0.6,0.3
		l-2.6-0.7c-0.3-0.1-0.4-0.2-0.3-0.5c0.5-2.3,2.6-4,6.4-4C604.2,97.9,606.6,99.8,606.6,103.4z M602.9,109.5v-2c-1,0-2.1,0-3.1,0.1
		c-1.9,0.2-3.1,0.9-3.1,2.4c0,1.3,0.9,2.2,2.5,2.2C601,112.2,602.3,111.2,602.9,109.5z"/>
	<path class="st2" d="M614.7,92.4v22c0,0.3-0.1,0.4-0.4,0.4h-2.8c-0.3,0-0.5-0.2-0.5-0.4v-22c0-0.3,0.2-0.4,0.5-0.4h2.8
		C614.6,91.9,614.7,92.1,614.7,92.4z"/>
	<path class="st2" d="M623,92.5v2.9c0,0.4-0.2,0.5-0.5,0.5h-2.6c-0.4,0-0.6-0.2-0.6-0.5v-2.9c0-0.3,0.2-0.5,0.6-0.5h2.6
		C622.8,92,623,92.2,623,92.5z M623,98.7v15.7c0,0.3-0.2,0.4-0.4,0.4h-2.8c-0.3,0-0.5-0.2-0.5-0.4V98.7c0-0.3,0.1-0.4,0.5-0.4h2.8
		C622.8,98.3,623,98.4,623,98.7z"/>
	<path class="st2" d="M632.3,94.6v3.8h3.3c0.2,0,0.4,0.2,0.4,0.5v2.2c0,0.3-0.2,0.4-0.4,0.4h-3.3v8.3c0,1.2,0.7,1.8,2,1.8h1.3
		c0.3,0,0.4,0.1,0.4,0.4v2.4c0,0.3-0.2,0.4-0.4,0.4h-1.9c-3.4,0-5-1.8-5-4.6v-8.8h-2.1c-0.3,0-0.4-0.1-0.4-0.4v-2.2
		c0-0.3,0.1-0.5,0.4-0.5h2.1v-3.8c0-0.2,0.2-0.4,0.4-0.4h2.8C632.2,94.2,632.3,94.4,632.3,94.6z"/>
</g>
<g class="st1">
	<path class="st2" d="M653,98.8l-5.6,15.3c-1.2,3.2-2.7,5.6-4.9,7c-0.3,0.2-0.5,0.3-0.9,0l-1.7-1.7c-0.2-0.2-0.1-0.6,0.1-0.8
		c1.8-1.2,2.9-2.3,3.7-4.8l-5.9-15c-0.1-0.3,0.1-0.5,0.4-0.5h3.1c0.3,0,0.5,0.1,0.5,0.4l2,5.5c0.8,2.4,1.4,4.1,1.8,6h0.1
		c0.5-2.3,1-3.7,1.8-6l1.8-5.6c0.1-0.2,0.3-0.4,0.5-0.4h2.9C653,98.3,653.2,98.5,653,98.8z"/>
</g>
<g class="st1">
</g>
<g class="st1">
	<path class="st2" d="M206.1,381.3v2.6c0,0.3-0.1,0.4-0.4,0.4h-8.3v6.4h7.4c0.3,0,0.4,0.1,0.4,0.4v2.5c0,0.3-0.1,0.4-0.4,0.4h-7.4
		v8.4c0,0.3-0.1,0.4-0.4,0.4h-3c-0.3,0-0.4-0.2-0.4-0.4v-21.1c0-0.3,0.1-0.4,0.4-0.4h11.8C205.9,380.9,206.1,381,206.1,381.3z"/>
	<path class="st2" d="M213.5,380.5v2.9c0,0.4-0.2,0.5-0.5,0.5h-2.6c-0.4,0-0.6-0.2-0.6-0.5v-2.9c0-0.3,0.2-0.5,0.6-0.5h2.6
		C213.3,380,213.5,380.2,213.5,380.5z M213.5,386.7v15.7c0,0.3-0.1,0.4-0.4,0.4h-2.8c-0.3,0-0.5-0.2-0.5-0.4v-15.7
		c0-0.3,0.1-0.4,0.5-0.4h2.8C213.3,386.3,213.5,386.4,213.5,386.7z"/>
	<path class="st2" d="M221.7,392.2v10.2c0,0.3-0.1,0.4-0.4,0.4h-2.8c-0.3,0-0.5-0.2-0.5-0.4v-15.7c0-0.2,0.1-0.4,0.4-0.4h2.8
		c0.3,0,0.4,0.2,0.4,0.4v2c1-1.5,2.7-2.7,5-2.7c3.1,0,4.9,2.3,4.9,5.6v10.8c0,0.3-0.2,0.4-0.4,0.4h-2.9c-0.3,0-0.5-0.2-0.5-0.4
		v-10.2c0-1.8-0.8-2.9-2.5-2.9C223.7,389.3,222.3,390.5,221.7,392.2z"/>
	<path class="st2" d="M248.4,391.4v11c0,0.3-0.1,0.4-0.4,0.4h-2.6c-0.3,0-0.4-0.2-0.4-0.4v-2c-1,1.7-2.7,2.7-4.7,2.7
		c-3.1,0-5.1-2-5.1-5c0-3,2-4.7,6.3-5c1.2-0.1,2.3-0.1,3.4,0v-1.5c0-1.9-1-2.6-2.7-2.6s-2.3,0.6-2.8,1.8c-0.1,0.3-0.2,0.4-0.6,0.3
		l-2.6-0.7c-0.3-0.1-0.4-0.2-0.3-0.5c0.5-2.3,2.6-4,6.4-4C246,385.9,248.4,387.8,248.4,391.4z M244.8,397.5v-2c-1,0-2.1,0-3.1,0.1
		c-1.9,0.2-3.1,0.9-3.1,2.4c0,1.3,0.9,2.2,2.5,2.2C242.8,400.2,244.1,399.2,244.8,397.5z"/>
	<path class="st2" d="M256.5,380.4v22c0,0.3-0.1,0.4-0.4,0.4h-2.8c-0.3,0-0.5-0.2-0.5-0.4v-22c0-0.3,0.1-0.4,0.5-0.4h2.8
		C256.4,379.9,256.5,380.1,256.5,380.4z"/>
</g>
<g class="st1">
	<path class="st2" d="M282,381.3v2.6c0,0.3-0.1,0.4-0.4,0.4h-8.3v6.4h7.4c0.3,0,0.4,0.1,0.4,0.4v2.5c0,0.3-0.1,0.4-0.4,0.4h-7.4v8.4
		c0,0.3-0.1,0.4-0.4,0.4h-3c-0.3,0-0.4-0.2-0.4-0.4v-21.1c0-0.3,0.1-0.4,0.4-0.4h11.8C281.9,380.9,282,381,282,381.3z"/>
</g>
<g class="st1">
	<path class="st2" d="M285.2,397.5v-10.8c0-0.3,0.2-0.4,0.4-0.4h2.9c0.3,0,0.4,0.2,0.4,0.4v10.2c0,1.8,0.9,2.9,2.5,2.9
		c1.6,0,2.9-1.2,3.5-2.9v-10.2c0-0.3,0.1-0.4,0.4-0.4h2.9c0.3,0,0.4,0.2,0.4,0.4v15.8c0,0.2-0.1,0.4-0.4,0.4h-2.8
		c-0.3,0-0.4-0.2-0.4-0.4v-2c-1,1.5-2.7,2.7-5,2.7C286.9,403.2,285.2,400.9,285.2,397.5z"/>
	<path class="st2" d="M306.9,392.2v10.2c0,0.3-0.1,0.4-0.4,0.4h-2.8c-0.3,0-0.5-0.2-0.5-0.4v-15.7c0-0.2,0.1-0.4,0.4-0.4h2.8
		c0.3,0,0.4,0.2,0.4,0.4v2c1-1.5,2.7-2.7,5-2.7c3.1,0,4.9,2.3,4.9,5.6v10.8c0,0.3-0.2,0.4-0.4,0.4h-2.9c-0.3,0-0.5-0.2-0.5-0.4
		v-10.2c0-1.8-0.8-2.9-2.5-2.9C308.9,389.3,307.5,390.5,306.9,392.2z"/>
	<path class="st2" d="M333.8,390.7c0,0.3,0,0.5-0.4,0.5l-2.3,0.6c-0.5,0.1-0.5,0.1-0.7-0.3c-0.3-1-0.8-2.4-3-2.4
		c-2,0-3.1,1.3-3.1,3.6v3.6c0,2.2,1.1,3.5,3.1,3.5c1.9,0,2.6-0.9,3.1-2.3c0.1-0.4,0.3-0.5,0.6-0.3l2.3,0.8c0.4,0.1,0.4,0.3,0.3,0.6
		c-0.5,2.3-2.7,4.4-6.5,4.4c-4.2,0-6.6-2.7-6.6-6.6v-4c0-3.8,2.4-6.7,6.6-6.7C330.8,385.9,333.3,387.7,333.8,390.7z"/>
	<path class="st2" d="M342.1,382.6v3.8h3.3c0.2,0,0.4,0.2,0.4,0.5v2.2c0,0.3-0.1,0.4-0.4,0.4h-3.3v8.3c0,1.2,0.7,1.8,2,1.8h1.3
		c0.3,0,0.4,0.1,0.4,0.4v2.4c0,0.3-0.1,0.4-0.4,0.4h-1.9c-3.4,0-5-1.8-5-4.6v-8.8h-2.1c-0.3,0-0.4-0.1-0.4-0.4v-2.2
		c0-0.3,0.1-0.5,0.4-0.5h2.1v-3.8c0-0.2,0.1-0.4,0.4-0.4h2.8C342,382.2,342.1,382.4,342.1,382.6z"/>
	<path class="st2" d="M353.1,380.5v2.9c0,0.4-0.2,0.5-0.5,0.5h-2.6c-0.4,0-0.6-0.2-0.6-0.5v-2.9c0-0.3,0.2-0.5,0.6-0.5h2.6
		C352.9,380,353.1,380.2,353.1,380.5z M353.1,386.7v15.7c0,0.3-0.2,0.4-0.4,0.4h-2.8c-0.3,0-0.5-0.2-0.5-0.4v-15.7
		c0-0.3,0.1-0.4,0.5-0.4h2.8C352.9,386.3,353.1,386.4,353.1,386.7z"/>
	<path class="st2" d="M371.2,392.6v3.9c0,3.9-2.3,6.7-7,6.7c-4.7,0-7-2.7-7-6.6v-3.9c0-3.9,2.3-6.8,7-6.8
		C368.9,385.9,371.2,388.8,371.2,392.6z M360.8,392.8v3.6c0,2.2,1.1,3.5,3.3,3.5c2.2,0,3.3-1.3,3.3-3.5v-3.6c0-2.2-1.1-3.6-3.3-3.6
		C361.9,389.2,360.8,390.6,360.8,392.8z"/>
	<path class="st2" d="M378.9,392.2v10.2c0,0.3-0.1,0.4-0.4,0.4h-2.8c-0.3,0-0.5-0.2-0.5-0.4v-15.7c0-0.2,0.1-0.4,0.4-0.4h2.8
		c0.3,0,0.4,0.2,0.4,0.4v2c1-1.5,2.7-2.7,5-2.7c3.1,0,4.9,2.3,4.9,5.6v10.8c0,0.3-0.2,0.4-0.4,0.4h-2.9c-0.3,0-0.5-0.2-0.5-0.4
		v-10.2c0-1.8-0.8-2.9-2.5-2.9C380.9,389.3,379.5,390.5,378.9,392.2z"/>
	<path class="st2" d="M405.1,389.8c0.1,0.3,0,0.5-0.3,0.6l-2.2,0.8c-0.3,0.1-0.5,0-0.6-0.3c-0.5-1.3-1.6-2-3.2-2
		c-1.7,0-2.7,0.7-2.7,1.8c0,1,0.7,1.4,3.9,2.3c3.8,1,5.3,2.5,5.3,5.1c0,3.1-2.5,5.1-6.4,5.1c-3.5,0-6-1.4-6.8-3.9
		c-0.1-0.3,0-0.5,0.4-0.7l1.9-1c0.4-0.1,0.5-0.1,0.7,0.4c0.4,1.4,1.9,2.2,3.7,2.2c1.9,0,2.9-0.7,2.9-1.9c0-1.1-0.9-1.7-4-2.5
		c-3.6-1-5.1-2.4-5.1-5c0-3,2.4-5,6.1-5C402,385.9,404.3,387.4,405.1,389.8z"/>
</g>
<g class="st1">
	<path class="st2" d="M431.6,387.6v1.4c0,4.2-2.4,6.8-7.2,6.8h-3.2v6.5c0,0.3-0.2,0.4-0.4,0.4h-3c-0.3,0-0.4-0.2-0.4-0.4v-21.1
		c0-0.2,0.2-0.4,0.4-0.4h6.7C429.2,380.9,431.6,383.6,431.6,387.6z M421.2,384.3v8.1h2.9c2.7,0,3.6-1.2,3.6-3.6v-0.9
		c0-2.3-0.9-3.6-3.6-3.6H421.2z"/>
</g>
<g class="st1">
	<path class="st2" d="M444.3,386.5v2.6c0,0.3-0.1,0.4-0.5,0.4h-0.4c-2.4,0-3.9,1.2-4.5,3.1v9.8c0,0.3-0.2,0.4-0.4,0.4h-3
		c-0.2,0-0.4-0.1-0.4-0.4v-15.8c0-0.3,0.2-0.4,0.4-0.4h2.7c0.3,0,0.4,0.2,0.4,0.4l0,2.3c0.8-1.5,2.4-3,4.9-3
		C444.2,386.1,444.3,386.1,444.3,386.5z"/>
</g>
<g class="st1">
	<path class="st2" d="M460.5,392.6v3.9c0,3.9-2.3,6.7-7,6.7c-4.7,0-7-2.7-7-6.6v-3.9c0-3.9,2.3-6.8,7-6.8
		C458.2,385.9,460.5,388.8,460.5,392.6z M450.1,392.8v3.6c0,2.2,1.1,3.5,3.3,3.5c2.2,0,3.3-1.3,3.3-3.5v-3.6c0-2.2-1.1-3.6-3.3-3.6
		C451.3,389.2,450.1,390.6,450.1,392.8z"/>
	<path class="st2" d="M478.3,404c0,2.8-2.1,5.2-7.8,5.2c-5.1,0-7.1-1.8-7.1-4.4c0-1.4,0.8-2.7,2.5-3.5c-0.8-0.6-1.2-1.5-1.2-2.2
		c0-1,0.6-1.9,1.7-2.4c-1.7-1-2.6-2.6-2.6-4.6c0-3.3,2-5.7,6.4-5.7h7.4c0.2,0,0.3,0.2,0.3,0.4v2.1c0,0.3-0.2,0.4-0.4,0.4h-2.6
		c0.9,0.7,1.5,1.9,1.5,3.4c0,2.9-2,5-6.2,5h-1c-1,0-1.4,0.4-1.4,1c0,0.5,0.4,0.9,1.4,0.9l3.4,0C476.7,399.5,478.3,401.4,478.3,404z
		 M474.7,404.3c0-1-0.6-1.9-2.5-1.9h-3c-1.8,0-2.4,0.9-2.4,1.9c0,1.4,1.1,2.3,3.9,2.3C473.5,406.6,474.7,405.6,474.7,404.3z
		 M467.3,392c0,1.8,1,3,3.1,3c1.9,0,3-1.1,3-3c0-1.8-1-3-3-3C468.3,389.1,467.3,390.1,467.3,392z"/>
</g>
<g class="st1">
	<path class="st2" d="M490.6,386.5v2.6c0,0.3-0.1,0.4-0.5,0.4h-0.4c-2.4,0-3.9,1.2-4.5,3.1v9.8c0,0.3-0.2,0.4-0.4,0.4h-3
		c-0.2,0-0.4-0.1-0.4-0.4v-15.8c0-0.3,0.2-0.4,0.4-0.4h2.7c0.3,0,0.4,0.2,0.4,0.4l0,2.3c0.8-1.5,2.4-3,5-3
		C490.5,386.1,490.6,386.1,490.6,386.5z"/>
</g>
<g class="st1">
	<path class="st2" d="M505.7,391.4v11c0,0.3-0.2,0.4-0.4,0.4h-2.6c-0.3,0-0.4-0.2-0.4-0.4v-2c-1,1.7-2.7,2.7-4.7,2.7
		c-3.1,0-5.1-2-5.1-5c0-3,2-4.7,6.3-5c1.2-0.1,2.3-0.1,3.4,0v-1.5c0-1.9-1-2.6-2.7-2.6s-2.3,0.6-2.8,1.8c-0.1,0.3-0.2,0.4-0.6,0.3
		l-2.6-0.7c-0.3-0.1-0.4-0.2-0.3-0.5c0.5-2.3,2.6-4,6.4-4C503.4,385.9,505.7,387.8,505.7,391.4z M502.1,397.5v-2c-1,0-2.1,0-3.1,0.1
		c-2,0.2-3.1,0.9-3.1,2.4c0,1.3,0.9,2.2,2.5,2.2C500.1,400.2,501.4,399.2,502.1,397.5z"/>
	<path class="st2" d="M518.3,385.9c2.2,0,3.5,1.3,4.1,3c1.2-1.8,2.8-3,4.8-3c2.8,0,4.5,2.2,4.5,5.4v11c0,0.3-0.2,0.4-0.5,0.4h-2.7
		c-0.3,0-0.5-0.2-0.5-0.4v-10.3c0-1.7-0.8-2.7-2.1-2.7c-1.4,0-2.5,1-3.1,2.8v10.3c0,0.3-0.1,0.4-0.4,0.4h-2.9
		c-0.3,0-0.4-0.2-0.4-0.4v-10.3c0-1.7-0.8-2.7-2.1-2.7c-1.4,0-2.5,1.2-3.1,2.8v10.2c0,0.3-0.1,0.4-0.4,0.4h-2.9
		c-0.3,0-0.4-0.2-0.4-0.4v-15.7c0-0.2,0.1-0.4,0.4-0.4h2.8c0.3,0,0.4,0.2,0.4,0.4v2C514.7,387.3,516.2,385.9,518.3,385.9z"/>
	<path class="st2" d="M544.3,385.9c2.2,0,3.5,1.3,4.1,3c1.2-1.8,2.8-3,4.8-3c2.8,0,4.5,2.2,4.5,5.4v11c0,0.3-0.2,0.4-0.5,0.4h-2.7
		c-0.3,0-0.5-0.2-0.5-0.4v-10.3c0-1.7-0.8-2.7-2.1-2.7c-1.4,0-2.5,1-3.1,2.8v10.3c0,0.3-0.1,0.4-0.4,0.4h-2.9
		c-0.3,0-0.4-0.2-0.4-0.4v-10.3c0-1.7-0.8-2.7-2.1-2.7c-1.4,0-2.5,1.2-3.1,2.8v10.2c0,0.3-0.1,0.4-0.4,0.4h-2.9
		c-0.3,0-0.4-0.2-0.4-0.4v-15.7c0-0.2,0.1-0.4,0.4-0.4h2.8c0.3,0,0.4,0.2,0.4,0.4v2C540.7,387.3,542.2,385.9,544.3,385.9z"/>
	<path class="st2" d="M565.2,395.7v1c0,2.1,1.1,3.5,3.5,3.5c2.2,0,2.9-0.9,3.5-2c0.2-0.4,0.4-0.5,0.8-0.3l1.9,1
		c0.4,0.2,0.5,0.5,0.3,0.8c-1,2.2-3.3,3.5-6.4,3.5c-4.6,0-7-2.7-7-6.6v-4.1c0-3.8,2.3-6.6,7-6.6c4.4,0,6.7,2.8,6.7,6.5v2.5
		c0,0.5-0.2,0.7-0.8,0.7H565.2z M565.2,392.4v0.9h6.7v-0.9c0-2-1.1-3.4-3.3-3.4S565.2,390.3,565.2,392.4z"/>
	<path class="st2" d="M578.8,396.8v-4.4c0-3.8,2.3-6.4,5.6-6.4c2.4,0,4,1.3,4.7,2.4v-8c0-0.2,0.1-0.4,0.4-0.4h2.9
		c0.2,0,0.4,0.2,0.4,0.4v22.1c0,0.2-0.1,0.4-0.4,0.4h-2.8c-0.2,0-0.4-0.2-0.4-0.4v-1.7c-0.7,1.2-2.3,2.4-4.7,2.4
		C581,403.2,578.8,400.6,578.8,396.8z M589.2,396.3v-3.4c0-2.3-1.5-3.7-3.4-3.7c-2.1,0-3.2,1.4-3.2,3.7v3.4c0,2.3,1.1,3.6,3.2,3.6
		C587.6,399.9,589.2,398.6,589.2,396.3z"/>
</g>
<g class="st1">
	<path class="st2" d="M162.5,705.3v2.6c0,0.3-0.1,0.4-0.4,0.4h-8.3v6.4h7.4c0.3,0,0.4,0.1,0.4,0.4v2.5c0,0.3-0.1,0.4-0.4,0.4h-7.4
		v8.4c0,0.3-0.1,0.4-0.4,0.4h-3c-0.3,0-0.4-0.2-0.4-0.4v-21.1c0-0.3,0.1-0.4,0.4-0.4h11.8C162.4,704.9,162.5,705,162.5,705.3z"/>
</g>
<g class="st1">
	<path class="st2" d="M177.6,715.4v11c0,0.3-0.1,0.4-0.4,0.4h-2.6c-0.3,0-0.4-0.2-0.4-0.4v-2c-1,1.7-2.7,2.7-4.7,2.7
		c-3.1,0-5.1-2-5.1-5c0-3,2-4.7,6.3-5c1.2-0.1,2.3-0.1,3.4,0v-1.5c0-1.9-1-2.6-2.7-2.6s-2.3,0.6-2.8,1.8c-0.1,0.3-0.2,0.4-0.6,0.3
		l-2.6-0.7c-0.3-0.1-0.4-0.2-0.3-0.5c0.5-2.3,2.6-4,6.4-4C175.2,709.9,177.6,711.8,177.6,715.4z M173.9,721.5v-2c-1,0-2.1,0-3.1,0.1
		c-1.9,0.2-3.1,0.9-3.1,2.4c0,1.3,0.9,2.2,2.5,2.2C172,724.2,173.3,723.2,173.9,721.5z"/>
	<path class="st2" d="M185.7,704.5v2.9c0,0.4-0.2,0.5-0.5,0.5h-2.6c-0.4,0-0.6-0.2-0.6-0.5v-2.9c0-0.3,0.2-0.5,0.6-0.5h2.6
		C185.6,704,185.7,704.2,185.7,704.5z M185.7,710.7v15.7c0,0.3-0.1,0.4-0.4,0.4h-2.8c-0.3,0-0.5-0.2-0.5-0.4v-15.7
		c0-0.3,0.1-0.4,0.5-0.4h2.8C185.6,710.3,185.7,710.4,185.7,710.7z"/>
</g>
<g class="st1">
	<path class="st2" d="M199.4,710.5v2.6c0,0.3-0.1,0.4-0.5,0.4h-0.4c-2.4,0-3.9,1.2-4.5,3.1v9.8c0,0.3-0.2,0.4-0.4,0.4h-3
		c-0.2,0-0.4-0.1-0.4-0.4v-15.8c0-0.3,0.2-0.4,0.4-0.4h2.7c0.3,0,0.4,0.2,0.4,0.4l0,2.3c0.8-1.5,2.4-3,4.9-3
		C199.3,710.1,199.4,710.1,199.4,710.5z"/>
</g>
<g class="st1">
</g>
<g class="st1">
	<path class="st2" d="M224.3,711.6v1.4c0,4.2-2.4,6.8-7.2,6.8h-3.2v6.5c0,0.3-0.1,0.4-0.4,0.4h-3c-0.3,0-0.4-0.2-0.4-0.4v-21.1
		c0-0.2,0.2-0.4,0.4-0.4h6.7C221.9,704.9,224.3,707.6,224.3,711.6z M213.9,708.3v8.1h2.9c2.7,0,3.6-1.2,3.6-3.6v-0.9
		c0-2.3-0.9-3.6-3.6-3.6H213.9z"/>
</g>
<g class="st1">
	<path class="st2" d="M237,710.5v2.6c0,0.3-0.1,0.4-0.5,0.4h-0.4c-2.4,0-3.9,1.2-4.5,3.1v9.8c0,0.3-0.2,0.4-0.4,0.4h-3
		c-0.2,0-0.4-0.1-0.4-0.4v-15.8c0-0.3,0.2-0.4,0.4-0.4h2.7c0.3,0,0.4,0.2,0.4,0.4l0,2.3c0.8-1.5,2.4-3,4.9-3
		C236.9,710.1,237,710.1,237,710.5z"/>
</g>
<g class="st1">
	<path class="st2" d="M253.2,716.6v3.9c0,3.9-2.3,6.7-7,6.7c-4.7,0-7-2.7-7-6.6v-3.9c0-3.9,2.3-6.8,7-6.8
		C251,709.9,253.2,712.8,253.2,716.6z M242.9,716.8v3.6c0,2.2,1.1,3.5,3.3,3.5c2.2,0,3.3-1.3,3.3-3.5v-3.6c0-2.2-1.1-3.6-3.3-3.6
		C244,713.2,242.9,714.6,242.9,716.8z"/>
	<path class="st2" d="M265.4,709.9c2.2,0,3.5,1.3,4.1,3c1.2-1.8,2.8-3,4.8-3c2.8,0,4.5,2.2,4.5,5.4v11c0,0.3-0.2,0.4-0.5,0.4h-2.7
		c-0.3,0-0.5-0.2-0.5-0.4v-10.3c0-1.7-0.8-2.7-2.1-2.7c-1.4,0-2.5,1-3.1,2.8v10.3c0,0.3-0.1,0.4-0.4,0.4h-2.9
		c-0.3,0-0.4-0.2-0.4-0.4v-10.3c0-1.7-0.8-2.7-2.1-2.7c-1.4,0-2.6,1.2-3.1,2.8v10.2c0,0.3-0.1,0.4-0.4,0.4h-2.9
		c-0.3,0-0.4-0.2-0.4-0.4v-15.7c0-0.2,0.1-0.4,0.4-0.4h2.8c0.3,0,0.4,0.2,0.4,0.4v2C261.8,711.3,263.3,709.9,265.4,709.9z"/>
</g>
<g class="st1">
	<path class="st2" d="M296.8,716.6v3.9c0,3.9-2.3,6.7-7,6.7c-4.7,0-7-2.7-7-6.6v-3.9c0-3.9,2.3-6.8,7-6.8
		C294.6,709.9,296.8,712.8,296.8,716.6z M286.5,716.8v3.6c0,2.2,1.1,3.5,3.3,3.5c2.2,0,3.3-1.3,3.3-3.5v-3.6c0-2.2-1.1-3.6-3.3-3.6
		C287.6,713.2,286.5,714.6,286.5,716.8z"/>
</g>
<g class="st1">
	<path class="st2" d="M305.4,706.6v3.8h3.3c0.2,0,0.4,0.2,0.4,0.5v2.2c0,0.3-0.1,0.4-0.4,0.4h-3.3v8.3c0,1.2,0.7,1.8,2,1.8h1.3
		c0.3,0,0.4,0.1,0.4,0.4v2.4c0,0.3-0.1,0.4-0.4,0.4h-1.9c-3.4,0-5-1.8-5-4.6v-8.8h-2.1c-0.3,0-0.4-0.1-0.4-0.4v-2.2
		c0-0.3,0.2-0.5,0.4-0.5h2.1v-3.8c0-0.2,0.1-0.4,0.4-0.4h2.8C305.3,706.2,305.4,706.4,305.4,706.6z"/>
	<path class="st2" d="M316.3,704.5v2.9c0,0.4-0.2,0.5-0.5,0.5h-2.6c-0.4,0-0.6-0.2-0.6-0.5v-2.9c0-0.3,0.2-0.5,0.6-0.5h2.6
		C316.2,704,316.3,704.2,316.3,704.5z M316.3,710.7v15.7c0,0.3-0.2,0.4-0.4,0.4h-2.8c-0.3,0-0.5-0.2-0.5-0.4v-15.7
		c0-0.3,0.1-0.4,0.5-0.4h2.8C316.2,710.3,316.3,710.4,316.3,710.7z"/>
	<path class="st2" d="M334.5,716.6v3.9c0,3.9-2.3,6.7-7,6.7c-4.7,0-7-2.7-7-6.6v-3.9c0-3.9,2.3-6.8,7-6.8
		C332.2,709.9,334.5,712.8,334.5,716.6z M324.1,716.8v3.6c0,2.2,1.1,3.5,3.3,3.5c2.2,0,3.3-1.3,3.3-3.5v-3.6c0-2.2-1.1-3.6-3.3-3.6
		C325.2,713.2,324.1,714.6,324.1,716.8z"/>
	<path class="st2" d="M342.2,716.2v10.2c0,0.3-0.2,0.4-0.4,0.4H339c-0.3,0-0.5-0.2-0.5-0.4v-15.7c0-0.2,0.1-0.4,0.4-0.4h2.8
		c0.3,0,0.4,0.2,0.4,0.4v2c1-1.5,2.7-2.7,5-2.7c3.1,0,4.9,2.3,4.9,5.6v10.8c0,0.3-0.1,0.4-0.4,0.4h-2.8c-0.3,0-0.5-0.2-0.5-0.4
		v-10.2c0-1.8-0.8-2.9-2.5-2.9C344.2,713.3,342.8,714.5,342.2,716.2z"/>
	<path class="st2" d="M368.9,715.4v11c0,0.3-0.1,0.4-0.4,0.4h-2.6c-0.3,0-0.4-0.2-0.4-0.4v-2c-1,1.7-2.7,2.7-4.7,2.7
		c-3.1,0-5.1-2-5.1-5c0-3,2-4.7,6.3-5c1.2-0.1,2.3-0.1,3.4,0v-1.5c0-1.9-1-2.6-2.7-2.6s-2.3,0.6-2.8,1.8c-0.1,0.3-0.2,0.4-0.6,0.3
		l-2.6-0.7c-0.3-0.1-0.4-0.2-0.3-0.5c0.5-2.3,2.6-4,6.4-4C366.5,709.9,368.9,711.8,368.9,715.4z M365.2,721.5v-2c-1,0-2.1,0-3.1,0.1
		c-1.9,0.2-3.1,0.9-3.1,2.4c0,1.3,0.9,2.2,2.5,2.2C363.3,724.2,364.6,723.2,365.2,721.5z"/>
	<path class="st2" d="M377,704.4v22c0,0.3-0.2,0.4-0.4,0.4h-2.8c-0.3,0-0.5-0.2-0.5-0.4v-22c0-0.3,0.2-0.4,0.5-0.4h2.8
		C376.9,703.9,377,704.1,377,704.4z"/>
</g>
<g class="st1">
	<path class="st2" d="M410.2,705.4v21c0,0.3-0.1,0.4-0.4,0.4H407c-0.2,0-0.4-0.2-0.4-0.4v-11.9c0-1.7,0.1-4.3,0.2-5.9h-0.1
		l-4.8,17.7c-0.1,0.4-0.3,0.5-0.7,0.5h-2.6c-0.4,0-0.6-0.2-0.7-0.5l-4.9-17.7h-0.1c0.1,1.6,0.3,4.3,0.3,5.9v11.9
		c0,0.3-0.1,0.4-0.4,0.4h-2.7c-0.2,0-0.4-0.2-0.4-0.4v-21c0-0.4,0.2-0.6,0.6-0.6h4.4c0.4,0,0.6,0.2,0.7,0.5l3,10.8
		c0.7,2.5,1.1,4.3,1.5,6.4h0.1c0.4-2.2,0.8-4,1.5-6.5l3-10.7c0.1-0.4,0.3-0.6,0.7-0.6h4.3C409.9,704.9,410.2,705.1,410.2,705.4z"/>
</g>
<g class="st1">
	<path class="st2" d="M427.5,715.4v11c0,0.3-0.1,0.4-0.4,0.4h-2.6c-0.3,0-0.4-0.2-0.4-0.4v-2c-1,1.7-2.7,2.7-4.7,2.7
		c-3.1,0-5.1-2-5.1-5c0-3,2-4.7,6.3-5c1.2-0.1,2.3-0.1,3.4,0v-1.5c0-1.9-1-2.6-2.7-2.6s-2.3,0.6-2.8,1.8c-0.1,0.3-0.2,0.4-0.6,0.3
		l-2.6-0.7c-0.3-0.1-0.4-0.2-0.3-0.5c0.5-2.3,2.6-4,6.4-4C425.1,709.9,427.5,711.8,427.5,715.4z M423.8,721.5v-2c-1,0-2.1,0-3.1,0.1
		c-1.9,0.2-3.1,0.9-3.1,2.4c0,1.3,0.9,2.2,2.5,2.2C421.9,724.2,423.2,723.2,423.8,721.5z"/>
</g>
<g class="st1">
	<path class="st2" d="M436.5,706.6v3.8h3.3c0.2,0,0.4,0.2,0.4,0.5v2.2c0,0.3-0.2,0.4-0.4,0.4h-3.3v8.3c0,1.2,0.7,1.8,2,1.8h1.3
		c0.3,0,0.4,0.1,0.4,0.4v2.4c0,0.3-0.2,0.4-0.4,0.4h-1.9c-3.4,0-5-1.8-5-4.6v-8.8h-2.1c-0.3,0-0.4-0.1-0.4-0.4v-2.2
		c0-0.3,0.1-0.5,0.4-0.5h2.1v-3.8c0-0.2,0.2-0.4,0.4-0.4h2.8C436.4,706.2,436.5,706.4,436.5,706.6z"/>
	<path class="st2" d="M446.8,719.7v1c0,2.1,1.1,3.5,3.5,3.5c2.2,0,2.9-0.9,3.5-2c0.2-0.4,0.4-0.5,0.8-0.3l1.9,1
		c0.4,0.2,0.5,0.5,0.3,0.8c-1,2.2-3.3,3.5-6.5,3.5c-4.6,0-7-2.7-7-6.6v-4.1c0-3.8,2.3-6.6,7-6.6c4.4,0,6.7,2.8,6.7,6.5v2.5
		c0,0.5-0.2,0.7-0.8,0.7H446.8z M446.8,716.4v0.9h6.7v-0.9c0-2-1.1-3.4-3.3-3.4C447.9,713,446.8,714.3,446.8,716.4z"/>
	<path class="st2" d="M469.9,710.5v2.6c0,0.3-0.1,0.4-0.5,0.4H469c-2.4,0-3.9,1.2-4.5,3.1v9.8c0,0.3-0.2,0.4-0.4,0.4h-3
		c-0.2,0-0.4-0.1-0.4-0.4v-15.8c0-0.3,0.2-0.4,0.4-0.4h2.7c0.3,0,0.4,0.2,0.4,0.4l0,2.3c0.8-1.5,2.4-3,5-3
		C469.8,710.1,469.9,710.1,469.9,710.5z"/>
	<path class="st2" d="M476.6,704.5v2.9c0,0.4-0.2,0.5-0.5,0.5h-2.6c-0.4,0-0.6-0.2-0.6-0.5v-2.9c0-0.3,0.2-0.5,0.6-0.5h2.6
		C476.5,704,476.6,704.2,476.6,704.5z M476.6,710.7v15.7c0,0.3-0.2,0.4-0.4,0.4h-2.8c-0.3,0-0.5-0.2-0.5-0.4v-15.7
		c0-0.3,0.1-0.4,0.5-0.4h2.8C476.5,710.3,476.6,710.4,476.6,710.7z"/>
	<path class="st2" d="M493.6,715.4v11c0,0.3-0.2,0.4-0.4,0.4h-2.6c-0.3,0-0.4-0.2-0.4-0.4v-2c-1,1.7-2.7,2.7-4.7,2.7
		c-3.1,0-5.1-2-5.1-5c0-3,2-4.7,6.3-5c1.2-0.1,2.3-0.1,3.4,0v-1.5c0-1.9-1-2.6-2.7-2.6s-2.3,0.6-2.8,1.8c-0.1,0.3-0.2,0.4-0.6,0.3
		l-2.6-0.7c-0.3-0.1-0.4-0.2-0.3-0.5c0.5-2.3,2.6-4,6.4-4C491.3,709.9,493.6,711.8,493.6,715.4z M490,721.5v-2c-1,0-2.1,0-3.1,0.1
		c-2,0.2-3.1,0.9-3.1,2.4c0,1.3,0.9,2.2,2.5,2.2C488,724.2,489.3,723.2,490,721.5z"/>
	<path class="st2" d="M501.8,704.4v22c0,0.3-0.2,0.4-0.4,0.4h-2.8c-0.3,0-0.5-0.2-0.5-0.4v-22c0-0.3,0.1-0.4,0.5-0.4h2.8
		C501.6,703.9,501.8,704.1,501.8,704.4z"/>
	<path class="st2" d="M527.2,705.3v2.6c0,0.3-0.2,0.4-0.4,0.4h-8.3v6.4h7.4c0.3,0,0.4,0.1,0.4,0.4v2.5c0,0.3-0.1,0.4-0.4,0.4h-7.4
		v8.4c0,0.3-0.2,0.4-0.5,0.4h-3c-0.3,0-0.4-0.2-0.4-0.4v-21.1c0-0.3,0.1-0.4,0.4-0.4h11.8C527.1,704.9,527.2,705,527.2,705.3z"/>
	<path class="st2" d="M534.6,704.5v2.9c0,0.4-0.2,0.5-0.5,0.5h-2.6c-0.4,0-0.6-0.2-0.6-0.5v-2.9c0-0.3,0.2-0.5,0.6-0.5h2.6
		C534.4,704,534.6,704.2,534.6,704.5z M534.6,710.7v15.7c0,0.3-0.1,0.4-0.4,0.4h-2.8c-0.3,0-0.5-0.2-0.5-0.4v-15.7
		c0-0.3,0.2-0.4,0.5-0.4h2.8C534.5,710.3,534.6,710.4,534.6,710.7z"/>
	<path class="st2" d="M542.9,716.2v10.2c0,0.3-0.2,0.4-0.4,0.4h-2.8c-0.3,0-0.5-0.2-0.5-0.4v-15.7c0-0.2,0.1-0.4,0.4-0.4h2.8
		c0.3,0,0.4,0.2,0.4,0.4v2c1-1.5,2.7-2.7,5-2.7c3.2,0,4.9,2.3,4.9,5.6v10.8c0,0.3-0.2,0.4-0.4,0.4h-2.9c-0.3,0-0.5-0.2-0.5-0.4
		v-10.2c0-1.8-0.8-2.9-2.5-2.9C544.8,713.3,543.5,714.5,542.9,716.2z"/>
	<path class="st2" d="M569.5,715.4v11c0,0.3-0.1,0.4-0.4,0.4h-2.6c-0.3,0-0.4-0.2-0.4-0.4v-2c-1,1.7-2.7,2.7-4.7,2.7
		c-3.1,0-5.1-2-5.1-5c0-3,2-4.7,6.3-5c1.2-0.1,2.3-0.1,3.4,0v-1.5c0-1.9-1-2.6-2.7-2.6s-2.3,0.6-2.8,1.8c-0.1,0.3-0.2,0.4-0.6,0.3
		l-2.6-0.7c-0.3-0.1-0.4-0.2-0.3-0.5c0.5-2.3,2.6-4,6.4-4C567.2,709.9,569.5,711.8,569.5,715.4z M565.9,721.5v-2c-1,0-2.1,0-3.1,0.1
		c-1.9,0.2-3.1,0.9-3.1,2.4c0,1.3,0.9,2.2,2.5,2.2C564,724.2,565.3,723.2,565.9,721.5z"/>
	<path class="st2" d="M577.7,704.4v22c0,0.3-0.1,0.4-0.4,0.4h-2.8c-0.3,0-0.5-0.2-0.5-0.4v-22c0-0.3,0.2-0.4,0.5-0.4h2.8
		C577.6,703.9,577.7,704.1,577.7,704.4z"/>
	<path class="st2" d="M586,704.5v2.9c0,0.4-0.2,0.5-0.5,0.5h-2.6c-0.4,0-0.6-0.2-0.6-0.5v-2.9c0-0.3,0.2-0.5,0.6-0.5h2.6
		C585.8,704,586,704.2,586,704.5z M586,710.7v15.7c0,0.3-0.2,0.4-0.4,0.4h-2.8c-0.3,0-0.5-0.2-0.5-0.4v-15.7c0-0.3,0.1-0.4,0.5-0.4
		h2.8C585.8,710.3,586,710.4,586,710.7z"/>
</g>
<g class="st1">
	<path class="st2" d="M601.9,710.7l0.2,1.7c0,0.3,0,0.5-0.2,0.8l-7.6,10.5h7.4c0.2,0,0.4,0.1,0.4,0.3v2.5c0,0.2-0.2,0.4-0.4,0.4
		h-11.4c-0.3,0-0.5-0.1-0.5-0.4l-0.2-1.7c-0.1-0.3,0-0.5,0.2-0.8l7.6-10.5h-7.2c-0.2,0-0.4-0.2-0.4-0.4v-2.4c0-0.2,0.1-0.4,0.4-0.4
		h11.2C601.7,710.3,601.9,710.4,601.9,710.7z"/>
</g>
<g class="st1">
	<path class="st2" d="M608.8,719.7v1c0,2.1,1.1,3.5,3.5,3.5c2.2,0,2.9-0.9,3.5-2c0.2-0.4,0.4-0.5,0.8-0.3l1.9,1
		c0.4,0.2,0.5,0.5,0.3,0.8c-1,2.2-3.3,3.5-6.5,3.5c-4.6,0-7-2.7-7-6.6v-4.1c0-3.8,2.3-6.6,7-6.6c4.4,0,6.7,2.8,6.7,6.5v2.5
		c0,0.5-0.2,0.7-0.8,0.7H608.8z M608.8,716.4v0.9h6.7v-0.9c0-2-1.1-3.4-3.3-3.4C609.9,713,608.8,714.3,608.8,716.4z"/>
	<path class="st2" d="M622.4,720.8v-4.4c0-3.8,2.3-6.4,5.6-6.4c2.4,0,4,1.3,4.7,2.4v-8c0-0.2,0.1-0.4,0.4-0.4h2.9
		c0.2,0,0.4,0.2,0.4,0.4v22.1c0,0.2-0.2,0.4-0.4,0.4h-2.8c-0.2,0-0.4-0.2-0.4-0.4v-1.7c-0.7,1.2-2.3,2.4-4.7,2.4
		C624.6,727.2,622.4,724.6,622.4,720.8z M632.7,720.3v-3.4c0-2.3-1.5-3.7-3.4-3.7c-2.1,0-3.2,1.4-3.2,3.7v3.4c0,2.3,1.1,3.6,3.2,3.6
		C631.2,723.9,632.7,722.6,632.7,720.3z"/>
</g>
<g class="st1">
	<path class="st2" d="M249.7,993.3v2.6c0,0.3-0.1,0.4-0.4,0.4H241v6.4h7.4c0.3,0,0.4,0.2,0.4,0.4v2.5c0,0.3-0.1,0.4-0.4,0.4H241v8.4
		c0,0.3-0.1,0.4-0.4,0.4h-3c-0.3,0-0.4-0.2-0.4-0.4v-21.1c0-0.3,0.1-0.4,0.4-0.4h11.8C249.6,992.9,249.7,993,249.7,993.3z"/>
</g>
<g class="st1">
	<path class="st2" d="M264.8,1003.4v11c0,0.3-0.1,0.4-0.4,0.4h-2.6c-0.3,0-0.4-0.2-0.4-0.4v-1.9c-1,1.7-2.7,2.7-4.7,2.7
		c-3.1,0-5.1-2-5.1-5c0-3,2-4.7,6.3-5c1.2-0.1,2.3-0.1,3.4,0v-1.5c0-1.9-1-2.6-2.7-2.6s-2.3,0.6-2.8,1.8c-0.1,0.3-0.2,0.4-0.6,0.3
		l-2.6-0.7c-0.3-0.1-0.4-0.2-0.3-0.5c0.5-2.3,2.6-4,6.4-4C262.5,997.9,264.8,999.8,264.8,1003.4z M261.2,1009.5v-2
		c-1,0-2.1,0-3.1,0.1c-1.9,0.2-3.1,0.9-3.1,2.4c0,1.3,0.9,2.2,2.5,2.2C259.2,1012.2,260.5,1011.2,261.2,1009.5z"/>
	<path class="st2" d="M273,992.5v2.8c0,0.4-0.2,0.5-0.5,0.5h-2.6c-0.4,0-0.6-0.2-0.6-0.5v-2.8c0-0.3,0.2-0.5,0.6-0.5h2.6
		C272.8,992,273,992.2,273,992.5z M273,998.7v15.7c0,0.3-0.1,0.4-0.4,0.4h-2.8c-0.3,0-0.5-0.2-0.5-0.4v-15.7c0-0.3,0.1-0.4,0.5-0.4
		h2.8C272.8,998.3,273,998.4,273,998.7z"/>
</g>
<g class="st1">
	<path class="st2" d="M286.6,998.5v2.6c0,0.3-0.1,0.4-0.5,0.4h-0.4c-2.4,0-3.9,1.2-4.5,3.1v9.8c0,0.3-0.2,0.4-0.4,0.4h-3
		c-0.2,0-0.4-0.1-0.4-0.4v-15.8c0-0.3,0.2-0.4,0.4-0.4h2.7c0.3,0,0.4,0.2,0.4,0.4l0,2.3c0.8-1.5,2.4-3,4.9-3
		C286.5,998.1,286.6,998.1,286.6,998.5z"/>
</g>
<g class="st1">
	<path class="st2" d="M313.2,1000.9v5.8c0,4.7-2.9,8.1-8.6,8.1h-6.8c-0.3,0-0.4-0.2-0.4-0.4v-21.1c0-0.3,0.1-0.4,0.4-0.4h6.8
		C310.3,992.9,313.2,996.3,313.2,1000.9z M301.1,996.4v14.8h3.3c3.4,0,4.9-1.7,4.9-4.6v-5.5c0-2.9-1.4-4.7-4.9-4.7H301.1z"/>
</g>
<g class="st1">
	<path class="st2" d="M329.9,1003.4v11c0,0.3-0.1,0.4-0.4,0.4h-2.6c-0.3,0-0.4-0.2-0.4-0.4v-1.9c-1,1.7-2.7,2.7-4.7,2.7
		c-3.1,0-5.1-2-5.1-5c0-3,2-4.7,6.3-5c1.2-0.1,2.3-0.1,3.4,0v-1.5c0-1.9-1-2.6-2.7-2.6s-2.3,0.6-2.8,1.8c-0.1,0.3-0.2,0.4-0.6,0.3
		l-2.6-0.7c-0.3-0.1-0.4-0.2-0.3-0.5c0.5-2.3,2.6-4,6.4-4C327.6,997.9,329.9,999.8,329.9,1003.4z M326.3,1009.5v-2
		c-1,0-2.1,0-3.1,0.1c-1.9,0.2-3.1,0.9-3.1,2.4c0,1.3,0.9,2.2,2.5,2.2C324.3,1012.2,325.6,1011.2,326.3,1009.5z"/>
</g>
<g class="st1">
	<path class="st2" d="M347.5,998.8l-5.6,15.3c-1.2,3.2-2.7,5.6-4.9,7c-0.3,0.2-0.5,0.3-0.9,0l-1.6-1.7c-0.2-0.2-0.1-0.6,0.1-0.8
		c1.8-1.2,2.9-2.3,3.7-4.8l-5.9-15c-0.1-0.3,0.1-0.5,0.4-0.5h3.1c0.3,0,0.4,0.1,0.5,0.4l1.9,5.5c0.8,2.4,1.4,4.1,1.8,6h0.1
		c0.5-2.3,1-3.7,1.8-6l1.8-5.6c0.1-0.2,0.3-0.4,0.5-0.4h2.9C347.4,998.3,347.6,998.5,347.5,998.8z"/>
</g>
<g class="st1">
	<path class="st2" d="M372.3,999.6v1.4c0,4.2-2.4,6.8-7.2,6.8h-3.2v6.5c0,0.3-0.1,0.4-0.4,0.4h-3c-0.3,0-0.4-0.2-0.4-0.4v-21.1
		c0-0.2,0.2-0.4,0.4-0.4h6.7C369.9,992.9,372.3,995.6,372.3,999.6z M361.9,996.3v8.1h2.9c2.7,0,3.6-1.2,3.6-3.6v-0.9
		c0-2.3-0.9-3.6-3.6-3.6H361.9z"/>
	<path class="st2" d="M379.8,992.4v22c0,0.3-0.1,0.4-0.4,0.4h-2.8c-0.3,0-0.5-0.2-0.5-0.4v-22c0-0.3,0.1-0.4,0.5-0.4h2.8
		C379.6,991.9,379.8,992.1,379.8,992.4z"/>
	<path class="st2" d="M396.7,1003.4v11c0,0.3-0.1,0.4-0.4,0.4h-2.6c-0.3,0-0.4-0.2-0.4-0.4v-1.9c-1,1.7-2.7,2.7-4.7,2.7
		c-3.1,0-5.1-2-5.1-5c0-3,2-4.7,6.3-5c1.2-0.1,2.3-0.1,3.4,0v-1.5c0-1.9-1-2.6-2.7-2.6s-2.3,0.6-2.8,1.8c-0.1,0.3-0.2,0.4-0.6,0.3
		l-2.6-0.7c-0.3-0.1-0.4-0.2-0.3-0.5c0.5-2.3,2.6-4,6.4-4C394.4,997.9,396.7,999.8,396.7,1003.4z M393.1,1009.5v-2
		c-1,0-2.1,0-3.1,0.1c-1.9,0.2-3.1,0.9-3.1,2.4c0,1.3,0.9,2.2,2.5,2.2C391.2,1012.2,392.4,1011.2,393.1,1009.5z"/>
	<path class="st2" d="M404.9,1004.2v10.2c0,0.3-0.1,0.4-0.4,0.4h-2.8c-0.3,0-0.5-0.2-0.5-0.4v-15.7c0-0.2,0.1-0.4,0.4-0.4h2.8
		c0.3,0,0.4,0.2,0.4,0.4v2c1-1.5,2.7-2.7,5-2.7c3.1,0,4.9,2.3,4.9,5.6v10.8c0,0.3-0.2,0.4-0.4,0.4h-2.8c-0.3,0-0.5-0.2-0.5-0.4
		v-10.2c0-1.8-0.8-2.9-2.5-2.9C406.8,1001.3,405.5,1002.5,404.9,1004.2z"/>
	<path class="st2" d="M440,993.3v2.6c0,0.3-0.1,0.4-0.4,0.4h-8.3v6.4h7.4c0.3,0,0.4,0.2,0.4,0.4v2.5c0,0.3-0.2,0.4-0.4,0.4h-7.4v8.4
		c0,0.3-0.1,0.4-0.4,0.4h-3c-0.3,0-0.4-0.2-0.4-0.4v-21.1c0-0.3,0.1-0.4,0.4-0.4h11.8C439.9,992.9,440,993,440,993.3z"/>
	<path class="st2" d="M447.4,992.5v2.8c0,0.4-0.2,0.5-0.5,0.5h-2.6c-0.4,0-0.6-0.2-0.6-0.5v-2.8c0-0.3,0.2-0.5,0.6-0.5h2.6
		C447.2,992,447.4,992.2,447.4,992.5z M447.4,998.7v15.7c0,0.3-0.2,0.4-0.4,0.4h-2.8c-0.3,0-0.5-0.2-0.5-0.4v-15.7
		c0-0.3,0.1-0.4,0.5-0.4h2.8C447.3,998.3,447.4,998.4,447.4,998.7z"/>
	<path class="st2" d="M455.7,1004.2v10.2c0,0.3-0.2,0.4-0.4,0.4h-2.8c-0.3,0-0.5-0.2-0.5-0.4v-15.7c0-0.2,0.1-0.4,0.4-0.4h2.8
		c0.3,0,0.4,0.2,0.4,0.4v2c1-1.5,2.7-2.7,5-2.7c3.2,0,4.9,2.3,4.9,5.6v10.8c0,0.3-0.2,0.4-0.4,0.4h-2.9c-0.3,0-0.5-0.2-0.5-0.4
		v-10.2c0-1.8-0.8-2.9-2.5-2.9C457.6,1001.3,456.3,1002.5,455.7,1004.2z"/>
	<path class="st2" d="M482.3,1003.4v11c0,0.3-0.2,0.4-0.4,0.4h-2.6c-0.3,0-0.4-0.2-0.4-0.4v-1.9c-1,1.7-2.7,2.7-4.7,2.7
		c-3.1,0-5.1-2-5.1-5c0-3,2-4.7,6.3-5c1.2-0.1,2.3-0.1,3.4,0v-1.5c0-1.9-1-2.6-2.7-2.6s-2.3,0.6-2.8,1.8c-0.1,0.3-0.2,0.4-0.6,0.3
		l-2.6-0.7c-0.3-0.1-0.4-0.2-0.3-0.5c0.5-2.3,2.6-4,6.4-4C480,997.9,482.3,999.8,482.3,1003.4z M478.7,1009.5v-2c-1,0-2.1,0-3.1,0.1
		c-2,0.2-3.1,0.9-3.1,2.4c0,1.3,0.9,2.2,2.5,2.2C476.7,1012.2,478,1011.2,478.7,1009.5z"/>
	<path class="st2" d="M490.5,992.4v22c0,0.3-0.2,0.4-0.4,0.4h-2.8c-0.3,0-0.5-0.2-0.5-0.4v-22c0-0.3,0.1-0.4,0.5-0.4h2.8
		C490.3,991.9,490.5,992.1,490.5,992.4z"/>
	<path class="st2" d="M498.8,992.5v2.8c0,0.4-0.2,0.5-0.5,0.5h-2.6c-0.4,0-0.6-0.2-0.6-0.5v-2.8c0-0.3,0.2-0.5,0.6-0.5h2.6
		C498.6,992,498.8,992.2,498.8,992.5z M498.8,998.7v15.7c0,0.3-0.1,0.4-0.4,0.4h-2.8c-0.3,0-0.5-0.2-0.5-0.4v-15.7
		c0-0.3,0.2-0.4,0.5-0.4h2.8C498.6,998.3,498.8,998.4,498.8,998.7z"/>
</g>
<g class="st1">
	<path class="st2" d="M514.7,998.7l0.2,1.7c0,0.3,0,0.5-0.2,0.8l-7.6,10.5h7.4c0.2,0,0.4,0.2,0.4,0.3v2.5c0,0.2-0.2,0.4-0.4,0.4
		h-11.4c-0.3,0-0.5-0.1-0.5-0.4l-0.2-1.7c-0.1-0.3,0-0.5,0.1-0.8l7.7-10.5H503c-0.2,0-0.4-0.2-0.4-0.4v-2.4c0-0.2,0.1-0.4,0.4-0.4
		h11.2C514.5,998.3,514.7,998.4,514.7,998.7z"/>
</g>
<g class="st1">
	<path class="st2" d="M521.6,1007.7v1c0,2.1,1.1,3.5,3.5,3.5c2.2,0,2.9-0.9,3.5-2c0.2-0.4,0.4-0.4,0.8-0.3l1.9,1
		c0.4,0.2,0.5,0.5,0.3,0.8c-1,2.2-3.3,3.5-6.4,3.5c-4.6,0-7-2.7-7-6.6v-4.1c0-3.8,2.3-6.6,7-6.6c4.4,0,6.7,2.8,6.7,6.5v2.5
		c0,0.5-0.2,0.7-0.8,0.7H521.6z M521.6,1004.4v0.9h6.7v-0.9c0-2-1.1-3.4-3.3-3.4C522.7,1001,521.6,1002.3,521.6,1004.4z"/>
	<path class="st2" d="M535.1,1008.8v-4.4c0-3.8,2.3-6.4,5.6-6.4c2.4,0,4,1.3,4.7,2.4v-8c0-0.2,0.1-0.4,0.4-0.4h2.9
		c0.2,0,0.4,0.2,0.4,0.4v22.1c0,0.2-0.1,0.4-0.4,0.4H546c-0.2,0-0.4-0.2-0.4-0.4v-1.7c-0.7,1.2-2.3,2.4-4.7,2.4
		C537.4,1015.2,535.1,1012.6,535.1,1008.8z M545.5,1008.3v-3.4c0-2.3-1.5-3.7-3.4-3.7c-2.1,0-3.2,1.4-3.2,3.7v3.4
		c0,2.3,1.1,3.6,3.2,3.6C544,1011.9,545.5,1010.6,545.5,1008.3z"/>
</g>
<g class="st1">
	<path class="st2" d="M215.1,1285.2c0.1,0.3,0,0.5-0.3,0.6l-2.4,0.9c-0.3,0.1-0.5,0-0.7-0.3c-0.7-1.7-1.9-2.4-3.7-2.4
		c-2.1,0-3.5,1-3.5,2.6c0,1.5,1,2.2,5,3.7c4,1.5,5.7,3.4,5.7,6.5c0,3.7-3.1,6.4-7.6,6.4c-4.1,0-6.7-1.8-7.6-5.2
		c-0.1-0.3,0-0.5,0.3-0.6l2.5-0.8c0.4-0.1,0.6,0,0.7,0.3c0.4,1.9,1.8,2.8,4.1,2.8c2.3,0,3.7-1.1,3.7-2.7c0-1.6-0.9-2.3-4.3-3.6
		c-4.6-1.7-6.4-3.5-6.4-6.8c0-3.4,2.9-6.1,7.2-6.1C211.6,1280.5,214.1,1282.2,215.1,1285.2z"/>
</g>
<g class="st1">
	<path class="st2" d="M223.8,1282.6v3.8h3.3c0.2,0,0.4,0.2,0.4,0.5v2.2c0,0.3-0.1,0.4-0.4,0.4h-3.3v8.3c0,1.2,0.7,1.8,2,1.8h1.3
		c0.3,0,0.4,0.1,0.4,0.4v2.4c0,0.3-0.1,0.4-0.4,0.4h-1.9c-3.4,0-5-1.8-5-4.6v-8.8h-2.1c-0.3,0-0.4-0.1-0.4-0.4v-2.2
		c0-0.3,0.1-0.5,0.4-0.5h2.1v-3.8c0-0.2,0.1-0.4,0.4-0.4h2.8C223.7,1282.2,223.8,1282.4,223.8,1282.6z"/>
	<path class="st2" d="M244.6,1286.8l-5.6,15.3c-1.2,3.2-2.7,5.6-4.9,7c-0.3,0.2-0.5,0.3-0.9,0l-1.6-1.7c-0.2-0.2-0.1-0.6,0.1-0.8
		c1.8-1.2,2.9-2.3,3.7-4.8l-5.9-15c-0.1-0.3,0.1-0.5,0.4-0.5h3.1c0.3,0,0.5,0.1,0.5,0.4l1.9,5.5c0.8,2.4,1.4,4.1,1.8,6h0.1
		c0.5-2.3,1-3.7,1.8-6l1.8-5.6c0.1-0.2,0.3-0.4,0.5-0.4h2.9C244.5,1286.3,244.7,1286.5,244.6,1286.8z"/>
	<path class="st2" d="M251.3,1280.4v22c0,0.3-0.1,0.4-0.4,0.4h-2.8c-0.3,0-0.5-0.2-0.5-0.4v-22c0-0.3,0.1-0.4,0.5-0.4h2.8
		C251.2,1279.9,251.3,1280.1,251.3,1280.4z"/>
	<path class="st2" d="M259.6,1280.5v2.8c0,0.4-0.2,0.5-0.5,0.5h-2.6c-0.4,0-0.6-0.2-0.6-0.5v-2.8c0-0.3,0.2-0.5,0.6-0.5h2.6
		C259.4,1280,259.6,1280.2,259.6,1280.5z M259.6,1286.7v15.7c0,0.3-0.1,0.4-0.4,0.4h-2.8c-0.3,0-0.5-0.2-0.5-0.4v-15.7
		c0-0.3,0.1-0.4,0.5-0.4h2.8C259.5,1286.3,259.6,1286.4,259.6,1286.7z"/>
	<path class="st2" d="M275.6,1286.7l0.2,1.7c0,0.3,0,0.5-0.2,0.8l-7.6,10.5h7.4c0.2,0,0.4,0.2,0.4,0.3v2.5c0,0.2-0.2,0.4-0.4,0.4
		H264c-0.3,0-0.5-0.1-0.5-0.4l-0.2-1.7c-0.1-0.3,0-0.5,0.1-0.8l7.6-10.5h-7.2c-0.2,0-0.4-0.2-0.4-0.4v-2.4c0-0.2,0.1-0.4,0.4-0.4
		H275C275.3,1286.3,275.5,1286.4,275.6,1286.7z"/>
</g>
<g class="st1">
	<path class="st2" d="M291.9,1291.4v11c0,0.3-0.1,0.4-0.4,0.4h-2.6c-0.3,0-0.4-0.2-0.4-0.4v-1.9c-1,1.7-2.7,2.7-4.7,2.7
		c-3.1,0-5.1-2-5.1-5c0-3,2-4.7,6.3-5c1.2-0.1,2.3-0.1,3.4,0v-1.5c0-1.9-1-2.6-2.7-2.6s-2.3,0.6-2.8,1.8c-0.1,0.3-0.2,0.4-0.6,0.3
		l-2.6-0.7c-0.3-0.1-0.4-0.2-0.3-0.5c0.5-2.3,2.6-4,6.4-4C289.6,1285.9,291.9,1287.8,291.9,1291.4z M288.3,1297.5v-2
		c-1,0-2.1,0-3.1,0.1c-1.9,0.2-3.1,0.9-3.1,2.4c0,1.3,0.9,2.2,2.5,2.2C286.3,1300.2,287.6,1299.2,288.3,1297.5z"/>
</g>
<g class="st1">
	<path class="st2" d="M300.9,1282.6v3.8h3.3c0.2,0,0.4,0.2,0.4,0.5v2.2c0,0.3-0.1,0.4-0.4,0.4h-3.3v8.3c0,1.2,0.7,1.8,2,1.8h1.3
		c0.3,0,0.4,0.1,0.4,0.4v2.4c0,0.3-0.1,0.4-0.4,0.4h-1.9c-3.4,0-5-1.8-5-4.6v-8.8h-2.1c-0.3,0-0.4-0.1-0.4-0.4v-2.2
		c0-0.3,0.1-0.5,0.4-0.5h2.1v-3.8c0-0.2,0.1-0.4,0.4-0.4h2.8C300.8,1282.2,300.9,1282.4,300.9,1282.6z"/>
	<path class="st2" d="M311.9,1280.5v2.8c0,0.4-0.2,0.5-0.5,0.5h-2.6c-0.4,0-0.6-0.2-0.6-0.5v-2.8c0-0.3,0.2-0.5,0.6-0.5h2.6
		C311.7,1280,311.9,1280.2,311.9,1280.5z M311.9,1286.7v15.7c0,0.3-0.1,0.4-0.4,0.4h-2.8c-0.3,0-0.5-0.2-0.5-0.4v-15.7
		c0-0.3,0.1-0.4,0.5-0.4h2.8C311.7,1286.3,311.9,1286.4,311.9,1286.7z"/>
	<path class="st2" d="M330,1292.6v3.9c0,3.9-2.3,6.7-7,6.7c-4.7,0-7-2.7-7-6.6v-3.9c0-3.9,2.3-6.8,7-6.8
		C327.7,1285.9,330,1288.8,330,1292.6z M319.6,1292.8v3.6c0,2.2,1.1,3.5,3.3,3.5c2.2,0,3.3-1.3,3.3-3.5v-3.6c0-2.2-1.1-3.6-3.3-3.6
		C320.7,1289.2,319.6,1290.6,319.6,1292.8z"/>
	<path class="st2" d="M337.8,1292.2v10.2c0,0.3-0.2,0.4-0.4,0.4h-2.8c-0.3,0-0.5-0.2-0.5-0.4v-15.7c0-0.2,0.1-0.4,0.4-0.4h2.8
		c0.3,0,0.4,0.2,0.4,0.4v2c1-1.5,2.7-2.7,5-2.7c3.1,0,4.9,2.3,4.9,5.6v10.8c0,0.3-0.1,0.4-0.4,0.4h-2.9c-0.3,0-0.5-0.2-0.5-0.4
		v-10.2c0-1.8-0.8-2.9-2.5-2.9C339.7,1289.3,338.4,1290.5,337.8,1292.2z"/>
	<path class="st2" d="M377.4,1302.8h-3.5c-0.2,0-0.4-0.1-0.6-0.3l-1.4-1.6c-1.6,1.4-3.5,2.3-5.8,2.3c-3.9,0-6.6-2.5-6.6-6
		c0-3,2-4.8,4.4-5.9l-0.4-0.5c-1.2-1.4-2.3-3.1-2.3-4.9c0-3,2.3-5.3,6.1-5.3c3.7,0,6,2.2,6,5.2c0,2.7-1.8,4.6-4.6,6.2l3.5,4.2
		c1-1.5,1.4-3.1,1.7-4.5c0.1-0.3,0.3-0.4,0.6-0.4l2.2,0.6c0.3,0.1,0.4,0.3,0.3,0.7c-0.5,2-1.4,4.2-2.8,6.1l3.1,3.7
		C377.7,1302.5,377.6,1302.8,377.4,1302.8z M369.9,1298.6l-4.3-5.2c-1.5,0.8-2.4,1.9-2.4,3.4c0,1.7,1.3,3.2,3.4,3.2
		C367.8,1300,368.9,1299.5,369.9,1298.6z M364.8,1285.8c0,1.2,0.8,2.3,1.9,3.6l0.3,0.4c1.6-1,2.8-2.3,2.8-4c0-1.6-1-2.4-2.5-2.4
		C365.9,1283.4,364.8,1284.2,364.8,1285.8z"/>
</g>
<g class="st1">
	<path class="st2" d="M404.2,1302.8h-3.3c-0.3,0-0.4-0.1-0.6-0.4l-4.2-7.8H393v7.8c0,0.3-0.1,0.4-0.4,0.4h-3c-0.3,0-0.4-0.2-0.4-0.4
		v-21.1c0-0.3,0.1-0.4,0.4-0.4h7.2c4.7,0,7,2.7,7,6.4v0.8c0,2.9-1.3,5.1-4,6l4.6,8.2C404.6,1302.5,404.5,1302.8,404.2,1302.8z
		 M393,1291.3h3.5c2.5,0,3.5-1.2,3.5-3.2v-0.5c0-2-1-3.2-3.5-3.2H393V1291.3z"/>
</g>
<g class="st1">
	<path class="st2" d="M411,1295.7v1c0,2.1,1.1,3.5,3.5,3.5c2.2,0,2.9-0.9,3.5-2c0.2-0.4,0.4-0.4,0.8-0.3l1.9,1
		c0.4,0.2,0.5,0.5,0.3,0.8c-1,2.2-3.3,3.5-6.5,3.5c-4.6,0-7-2.7-7-6.6v-4.1c0-3.8,2.3-6.6,7-6.6c4.4,0,6.7,2.8,6.7,6.5v2.5
		c0,0.5-0.2,0.7-0.8,0.7H411z M411,1292.4v0.9h6.7v-0.9c0-2-1.1-3.4-3.3-3.4C412.1,1289,411,1290.3,411,1292.4z"/>
</g>
<g class="st1">
	<path class="st2" d="M433.7,1280.4v2.3c0,0.2-0.1,0.4-0.4,0.4h-1.4c-1.4,0-2,0.6-2,1.8v1.6h3.4c0.2,0,0.3,0.2,0.3,0.4v2.3
		c0,0.3-0.2,0.4-0.4,0.4h-3.4v13c0,0.3-0.2,0.4-0.4,0.4h-2.9c-0.2,0-0.4-0.1-0.4-0.4v-13H424c-0.2,0-0.4-0.2-0.4-0.4v-2.3
		c0-0.2,0.2-0.4,0.4-0.4h2.3v-1.5c0-3.1,1.8-4.9,5-4.9h2C433.6,1280,433.7,1280.2,433.7,1280.4z"/>
	<path class="st2" d="M440.5,1280.5v2.8c0,0.4-0.2,0.5-0.5,0.5h-2.6c-0.4,0-0.6-0.2-0.6-0.5v-2.8c0-0.3,0.2-0.5,0.6-0.5h2.6
		C440.3,1280,440.5,1280.2,440.5,1280.5z M440.5,1286.7v15.7c0,0.3-0.2,0.4-0.4,0.4h-2.8c-0.3,0-0.5-0.2-0.5-0.4v-15.7
		c0-0.3,0.1-0.4,0.5-0.4h2.8C440.3,1286.3,440.5,1286.4,440.5,1286.7z"/>
	<path class="st2" d="M448.8,1292.2v10.2c0,0.3-0.2,0.4-0.4,0.4h-2.8c-0.3,0-0.5-0.2-0.5-0.4v-15.7c0-0.2,0.1-0.4,0.4-0.4h2.8
		c0.3,0,0.4,0.2,0.4,0.4v2c1-1.5,2.7-2.7,5-2.7c3.1,0,4.9,2.3,4.9,5.6v10.8c0,0.3-0.1,0.4-0.4,0.4h-2.8c-0.3,0-0.5-0.2-0.5-0.4
		v-10.2c0-1.8-0.8-2.9-2.5-2.9C450.7,1289.3,449.4,1290.5,448.8,1292.2z"/>
	<path class="st2" d="M466,1295.7v1c0,2.1,1.1,3.5,3.5,3.5c2.2,0,2.9-0.9,3.5-2c0.2-0.4,0.4-0.4,0.8-0.3l1.9,1
		c0.4,0.2,0.5,0.5,0.3,0.8c-1,2.2-3.3,3.5-6.5,3.5c-4.6,0-7-2.7-7-6.6v-4.1c0-3.8,2.3-6.6,7-6.6c4.4,0,6.7,2.8,6.7,6.5v2.5
		c0,0.5-0.2,0.7-0.8,0.7H466z M466,1292.4v0.9h6.7v-0.9c0-2-1.1-3.4-3.3-3.4C467.2,1289,466,1290.3,466,1292.4z"/>
	<path class="st2" d="M488.2,1285.9c2.2,0,3.5,1.3,4.1,3c1.2-1.8,2.8-3,4.8-3c2.8,0,4.5,2.2,4.5,5.4v11c0,0.3-0.2,0.4-0.5,0.4h-2.7
		c-0.3,0-0.5-0.2-0.5-0.4v-10.3c0-1.7-0.8-2.7-2.1-2.7c-1.4,0-2.5,1-3.1,2.8v10.3c0,0.3-0.1,0.4-0.4,0.4h-2.9
		c-0.3,0-0.4-0.2-0.4-0.4v-10.3c0-1.7-0.8-2.7-2.1-2.7c-1.4,0-2.5,1.2-3.1,2.8v10.2c0,0.3-0.1,0.4-0.4,0.4h-2.9
		c-0.3,0-0.4-0.2-0.4-0.4v-15.7c0-0.2,0.1-0.4,0.4-0.4h2.8c0.3,0,0.4,0.2,0.4,0.4v2C484.6,1287.3,486.1,1285.9,488.2,1285.9z"/>
	<path class="st2" d="M509.1,1295.7v1c0,2.1,1.1,3.5,3.5,3.5c2.2,0,2.9-0.9,3.5-2c0.2-0.4,0.4-0.4,0.8-0.3l1.9,1
		c0.4,0.2,0.5,0.5,0.3,0.8c-1,2.2-3.3,3.5-6.5,3.5c-4.6,0-7-2.7-7-6.6v-4.1c0-3.8,2.3-6.6,7-6.6c4.4,0,6.7,2.8,6.7,6.5v2.5
		c0,0.5-0.2,0.7-0.8,0.7H509.1z M509.1,1292.4v0.9h6.7v-0.9c0-2-1.1-3.4-3.3-3.4C510.3,1289,509.1,1290.3,509.1,1292.4z"/>
</g>
<g class="st1">
	<path class="st2" d="M526.9,1292.2v10.2c0,0.3-0.2,0.4-0.4,0.4h-2.8c-0.3,0-0.5-0.2-0.5-0.4v-15.7c0-0.2,0.1-0.4,0.4-0.4h2.8
		c0.3,0,0.4,0.2,0.4,0.4v2c1-1.5,2.7-2.7,5-2.7c3.2,0,4.9,2.3,4.9,5.6v10.8c0,0.3-0.1,0.4-0.4,0.4h-2.9c-0.3,0-0.4-0.2-0.4-0.4
		v-10.2c0-1.8-0.8-2.9-2.5-2.9C528.8,1289.3,527.5,1290.5,526.9,1292.2z"/>
</g>
<g class="st1">
	<path class="st2" d="M545.7,1282.6v3.8h3.3c0.2,0,0.4,0.2,0.4,0.5v2.2c0,0.3-0.1,0.4-0.4,0.4h-3.3v8.3c0,1.2,0.7,1.8,2,1.8h1.3
		c0.3,0,0.4,0.1,0.4,0.4v2.4c0,0.3-0.1,0.4-0.4,0.4h-1.9c-3.4,0-5-1.8-5-4.6v-8.8H540c-0.3,0-0.4-0.1-0.4-0.4v-2.2
		c0-0.3,0.2-0.5,0.4-0.5h2.1v-3.8c0-0.2,0.2-0.4,0.4-0.4h2.8C545.6,1282.2,545.7,1282.4,545.7,1282.6z"/>
</g>
<g class="st1">
	<path class="st2" d="M574.4,1292.6v3.9c0,3.9-2.3,6.7-7,6.7c-4.7,0-7-2.7-7-6.6v-3.9c0-3.9,2.3-6.8,7-6.8
		C572.1,1285.9,574.4,1288.8,574.4,1292.6z M564,1292.8v3.6c0,2.2,1.1,3.5,3.3,3.5c2.2,0,3.3-1.3,3.3-3.5v-3.6
		c0-2.2-1.1-3.6-3.3-3.6C565.1,1289.2,564,1290.6,564,1292.8z"/>
</g>
<g class="st1">
	<path class="st2" d="M587,1280.4v2.3c0,0.2-0.1,0.4-0.4,0.4h-1.4c-1.4,0-2,0.6-2,1.8v1.6h3.5c0.2,0,0.3,0.2,0.3,0.4v2.3
		c0,0.3-0.2,0.4-0.4,0.4h-3.4v13c0,0.3-0.1,0.4-0.4,0.4H580c-0.2,0-0.5-0.1-0.5-0.4v-13h-2.3c-0.2,0-0.4-0.2-0.4-0.4v-2.3
		c0-0.2,0.1-0.4,0.4-0.4h2.3v-1.5c0-3.1,1.8-4.9,5-4.9h2C586.9,1280,587,1280.2,587,1280.4z"/>
</g>
<g class="st1">
	<path class="st2" d="M223.5,1317.3v2.6c0,0.3-0.1,0.4-0.4,0.4h-8.3v6.4h7.4c0.3,0,0.4,0.2,0.4,0.4v2.5c0,0.3-0.1,0.4-0.4,0.4h-7.4
		v8.4c0,0.3-0.1,0.4-0.4,0.4h-3c-0.3,0-0.4-0.2-0.4-0.4v-21.1c0-0.3,0.1-0.4,0.4-0.4h11.8C223.3,1316.9,223.5,1317,223.5,1317.3z"/>
	<path class="st2" d="M230.9,1316.5v2.8c0,0.4-0.2,0.5-0.5,0.5h-2.6c-0.4,0-0.6-0.2-0.6-0.5v-2.8c0-0.3,0.2-0.5,0.6-0.5h2.6
		C230.7,1316,230.9,1316.2,230.9,1316.5z M230.9,1322.7v15.7c0,0.3-0.2,0.4-0.4,0.4h-2.8c-0.3,0-0.5-0.2-0.5-0.4v-15.7
		c0-0.3,0.1-0.4,0.5-0.4h2.8C230.7,1322.3,230.9,1322.4,230.9,1322.7z"/>
	<path class="st2" d="M239.1,1328.2v10.2c0,0.3-0.1,0.4-0.4,0.4h-2.8c-0.3,0-0.5-0.2-0.5-0.4v-15.7c0-0.2,0.1-0.4,0.4-0.4h2.8
		c0.3,0,0.4,0.2,0.4,0.4v2c1-1.5,2.7-2.7,5-2.7c3.1,0,4.9,2.3,4.9,5.6v10.8c0,0.3-0.2,0.4-0.4,0.4h-2.9c-0.3,0-0.5-0.2-0.5-0.4
		v-10.2c0-1.8-0.8-2.9-2.5-2.9C241.1,1325.3,239.7,1326.5,239.1,1328.2z"/>
	<path class="st2" d="M265.8,1327.4v11c0,0.3-0.1,0.4-0.4,0.4h-2.6c-0.3,0-0.4-0.2-0.4-0.4v-1.9c-1,1.7-2.7,2.7-4.7,2.7
		c-3.1,0-5.1-2-5.1-5c0-3,2-4.7,6.3-5c1.2-0.1,2.3-0.1,3.4,0v-1.5c0-1.9-1-2.6-2.7-2.6s-2.3,0.6-2.8,1.8c-0.1,0.3-0.2,0.4-0.6,0.3
		l-2.6-0.7c-0.3-0.1-0.4-0.2-0.3-0.5c0.5-2.3,2.6-4,6.4-4C263.4,1321.9,265.8,1323.8,265.8,1327.4z M262.2,1333.5v-2
		c-1,0-2.1,0-3.1,0.1c-1.9,0.2-3.1,0.9-3.1,2.4c0,1.3,0.9,2.2,2.5,2.2C260.2,1336.2,261.5,1335.2,262.2,1333.5z"/>
	<path class="st2" d="M273.9,1316.4v22c0,0.3-0.1,0.4-0.4,0.4h-2.8c-0.3,0-0.5-0.2-0.5-0.4v-22c0-0.3,0.1-0.4,0.5-0.4h2.8
		C273.8,1315.9,273.9,1316.1,273.9,1316.4z"/>
</g>
<g class="st1">
	<path class="st2" d="M301.1,1323.6v1.4c0,4.2-2.4,6.8-7.2,6.8h-3.2v6.5c0,0.3-0.1,0.4-0.4,0.4h-3c-0.3,0-0.4-0.2-0.4-0.4v-21.1
		c0-0.2,0.2-0.4,0.4-0.4h6.7C298.7,1316.9,301.1,1319.6,301.1,1323.6z M290.7,1320.3v8.1h2.9c2.7,0,3.6-1.2,3.6-3.6v-0.9
		c0-2.3-0.9-3.6-3.6-3.6H290.7z"/>
</g>
<g class="st1">
	<path class="st2" d="M313.8,1322.5v2.6c0,0.3-0.1,0.4-0.5,0.4h-0.4c-2.4,0-3.9,1.2-4.5,3.1v9.8c0,0.3-0.2,0.4-0.4,0.4h-3
		c-0.2,0-0.4-0.1-0.4-0.4v-15.8c0-0.3,0.2-0.4,0.4-0.4h2.7c0.3,0,0.4,0.2,0.4,0.4l0,2.3c0.8-1.5,2.4-3,4.9-3
		C313.7,1322.1,313.8,1322.1,313.8,1322.5z"/>
</g>
<g class="st1">
	<path class="st2" d="M330,1328.6v3.9c0,3.9-2.3,6.7-7,6.7c-4.7,0-7-2.7-7-6.6v-3.9c0-3.9,2.3-6.8,7-6.8
		C327.7,1321.9,330,1324.8,330,1328.6z M319.6,1328.8v3.6c0,2.2,1.1,3.5,3.3,3.5c2.2,0,3.3-1.3,3.3-3.5v-3.6c0-2.2-1.1-3.6-3.3-3.6
		C320.7,1325.2,319.6,1326.6,319.6,1328.8z"/>
</g>
<g class="st1">
	<path class="st2" d="M338.6,1318.6v3.8h3.3c0.2,0,0.4,0.2,0.4,0.5v2.2c0,0.3-0.1,0.4-0.4,0.4h-3.3v8.3c0,1.2,0.7,1.8,2,1.8h1.3
		c0.3,0,0.4,0.1,0.4,0.4v2.4c0,0.3-0.1,0.4-0.4,0.4H340c-3.4,0-5-1.8-5-4.6v-8.8h-2.1c-0.3,0-0.4-0.1-0.4-0.4v-2.2
		c0-0.3,0.1-0.5,0.4-0.5h2.1v-3.8c0-0.2,0.1-0.4,0.4-0.4h2.8C338.4,1318.2,338.6,1318.4,338.6,1318.6z"/>
</g>
<g class="st1">
	<path class="st2" d="M359.3,1328.6v3.9c0,3.9-2.3,6.7-7,6.7c-4.7,0-7-2.7-7-6.6v-3.9c0-3.9,2.3-6.8,7-6.8
		C357.1,1321.9,359.3,1324.8,359.3,1328.6z M349,1328.8v3.6c0,2.2,1.1,3.5,3.3,3.5c2.2,0,3.3-1.3,3.3-3.5v-3.6
		c0-2.2-1.1-3.6-3.3-3.6C350.1,1325.2,349,1326.6,349,1328.8z"/>
</g>
<g class="st1">
	<path class="st2" d="M367.9,1318.6v3.8h3.3c0.2,0,0.4,0.2,0.4,0.5v2.2c0,0.3-0.1,0.4-0.4,0.4h-3.3v8.3c0,1.2,0.7,1.8,2,1.8h1.3
		c0.3,0,0.4,0.1,0.4,0.4v2.4c0,0.3-0.1,0.4-0.4,0.4h-1.9c-3.4,0-5-1.8-5-4.6v-8.8h-2.1c-0.3,0-0.4-0.1-0.4-0.4v-2.2
		c0-0.3,0.1-0.5,0.4-0.5h2.1v-3.8c0-0.2,0.1-0.4,0.4-0.4h2.8C367.8,1318.2,367.9,1318.4,367.9,1318.6z"/>
	<path class="st2" d="M388.7,1322.8l-5.6,15.3c-1.2,3.2-2.7,5.6-4.9,7c-0.3,0.2-0.5,0.3-0.9,0l-1.6-1.7c-0.2-0.2-0.1-0.6,0.1-0.8
		c1.8-1.2,2.9-2.3,3.7-4.8l-5.9-15c-0.1-0.3,0.1-0.5,0.4-0.5h3.1c0.3,0,0.5,0.1,0.5,0.4l1.9,5.5c0.8,2.4,1.4,4.1,1.8,6h0.1
		c0.5-2.3,1-3.7,1.8-6l1.8-5.6c0.1-0.2,0.3-0.4,0.5-0.4h2.9C388.6,1322.3,388.8,1322.5,388.7,1322.8z"/>
	<path class="st2" d="M392.1,1344.8c-0.2,0-0.4-0.2-0.4-0.4v-21.8c0-0.2,0.1-0.4,0.4-0.4h2.8c0.2,0,0.4,0.2,0.4,0.4v1.7
		c0.7-1.1,2.3-2.4,4.6-2.4c3.6,0,5.8,2.5,5.8,6.4v4.4c0,3.8-2.2,6.4-5.6,6.4c-2.4,0-4-1.2-4.7-2.4v7.7c0,0.2-0.1,0.4-0.4,0.4H392.1z
		 M402,1332.2v-3.4c0-2.3-1.1-3.6-3.2-3.6c-1.9,0-3.4,1.3-3.4,3.6v3.4c0,2.4,1.5,3.7,3.4,3.7C400.9,1335.9,402,1334.5,402,1332.2z"
		/>
	<path class="st2" d="M412.9,1331.7v1c0,2.1,1.1,3.5,3.5,3.5c2.2,0,2.9-0.9,3.5-2c0.2-0.4,0.4-0.4,0.8-0.3l1.9,1
		c0.4,0.2,0.5,0.5,0.3,0.8c-1,2.2-3.3,3.5-6.4,3.5c-4.6,0-7-2.7-7-6.6v-4.1c0-3.8,2.3-6.6,7-6.6c4.4,0,6.7,2.8,6.7,6.5v2.5
		c0,0.5-0.2,0.7-0.8,0.7H412.9z M412.9,1328.4v0.9h6.7v-0.9c0-2-1.1-3.4-3.3-3.4C414.1,1325,412.9,1326.3,412.9,1328.4z"/>
	<path class="st2" d="M450,1321.9c0.1,0.4,0,0.6-0.3,0.7l-2.6,0.8c-0.4,0.1-0.5,0-0.6-0.4c-0.6-1.7-1.6-3-3.9-3
		c-2.8,0-4.1,1.7-4.1,4.7v6.2c0,2.9,1.4,4.7,4.1,4.7c2.5,0,3.6-1.3,4-3.2c0.1-0.4,0.3-0.5,0.6-0.4l2.5,0.8c0.3,0.1,0.4,0.3,0.3,0.7
		c-0.8,3.2-3.1,5.6-7.6,5.6c-5,0-7.9-3.2-7.9-8v-6.5c0-4.9,2.9-8,7.9-8C446.9,1316.5,449.1,1318.8,450,1321.9z"/>
	<path class="st2" d="M467.2,1328.6v3.9c0,3.9-2.3,6.7-7,6.7c-4.7,0-7-2.7-7-6.6v-3.9c0-3.9,2.3-6.8,7-6.8
		C464.9,1321.9,467.2,1324.8,467.2,1328.6z M456.8,1328.8v3.6c0,2.2,1.1,3.5,3.3,3.5c2.2,0,3.3-1.3,3.3-3.5v-3.6
		c0-2.2-1.1-3.6-3.3-3.6C457.9,1325.2,456.8,1326.6,456.8,1328.8z"/>
	<path class="st2" d="M479.4,1321.9c2.2,0,3.5,1.3,4.1,3c1.2-1.8,2.8-3,4.8-3c2.8,0,4.5,2.2,4.5,5.4v11c0,0.3-0.2,0.4-0.5,0.4h-2.7
		c-0.3,0-0.5-0.2-0.5-0.4v-10.3c0-1.7-0.8-2.7-2.1-2.7c-1.4,0-2.5,1-3.1,2.8v10.3c0,0.3-0.2,0.4-0.4,0.4h-2.9
		c-0.3,0-0.4-0.2-0.4-0.4v-10.3c0-1.7-0.8-2.7-2.1-2.7c-1.4,0-2.5,1.2-3.1,2.8v10.2c0,0.3-0.1,0.4-0.4,0.4h-2.9
		c-0.3,0-0.4-0.2-0.4-0.4v-15.7c0-0.2,0.1-0.4,0.4-0.4h2.8c0.3,0,0.4,0.2,0.4,0.4v2C475.8,1323.3,477.3,1321.9,479.4,1321.9z"/>
	<path class="st2" d="M497.6,1344.8c-0.2,0-0.4-0.2-0.4-0.4v-21.8c0-0.2,0.1-0.4,0.4-0.4h2.8c0.2,0,0.4,0.2,0.4,0.4v1.7
		c0.7-1.1,2.3-2.4,4.7-2.4c3.6,0,5.8,2.5,5.8,6.4v4.4c0,3.8-2.2,6.4-5.6,6.4c-2.4,0-4-1.2-4.7-2.4v7.7c0,0.2-0.1,0.4-0.4,0.4H497.6z
		 M507.6,1332.2v-3.4c0-2.3-1.1-3.6-3.2-3.6c-1.9,0-3.4,1.3-3.4,3.6v3.4c0,2.4,1.5,3.7,3.4,3.7
		C506.5,1335.9,507.6,1334.5,507.6,1332.2z"/>
	<path class="st2" d="M519.1,1316.4v22c0,0.3-0.2,0.4-0.4,0.4h-2.8c-0.3,0-0.5-0.2-0.5-0.4v-22c0-0.3,0.1-0.4,0.5-0.4h2.8
		C519,1315.9,519.1,1316.1,519.1,1316.4z"/>
</g>
<g class="st1">
	<path class="st2" d="M526.8,1331.7v1c0,2.1,1.1,3.5,3.5,3.5c2.2,0,2.9-0.9,3.5-2c0.2-0.4,0.4-0.4,0.8-0.3l1.9,1
		c0.4,0.2,0.5,0.5,0.3,0.8c-1,2.2-3.3,3.5-6.5,3.5c-4.6,0-7-2.7-7-6.6v-4.1c0-3.8,2.3-6.6,7-6.6c4.4,0,6.7,2.8,6.7,6.5v2.5
		c0,0.5-0.2,0.7-0.8,0.7H526.8z M526.8,1328.4v0.9h6.7v-0.9c0-2-1.1-3.4-3.3-3.4C527.9,1325,526.8,1326.3,526.8,1328.4z"/>
</g>
<g class="st1">
	<path class="st2" d="M545.4,1318.6v3.8h3.3c0.2,0,0.4,0.2,0.4,0.5v2.2c0,0.3-0.2,0.4-0.4,0.4h-3.3v8.3c0,1.2,0.7,1.8,2,1.8h1.3
		c0.3,0,0.4,0.1,0.4,0.4v2.4c0,0.3-0.2,0.4-0.4,0.4h-1.9c-3.4,0-5-1.8-5-4.6v-8.8h-2.1c-0.3,0-0.4-0.1-0.4-0.4v-2.2
		c0-0.3,0.1-0.5,0.4-0.5h2.1v-3.8c0-0.2,0.2-0.4,0.4-0.4h2.8C545.3,1318.2,545.4,1318.4,545.4,1318.6z"/>
	<path class="st2" d="M555.7,1331.7v1c0,2.1,1.1,3.5,3.5,3.5c2.2,0,2.9-0.9,3.5-2c0.2-0.4,0.4-0.4,0.8-0.3l1.9,1
		c0.4,0.2,0.5,0.5,0.3,0.8c-1,2.2-3.3,3.5-6.5,3.5c-4.6,0-7-2.7-7-6.6v-4.1c0-3.8,2.3-6.6,7-6.6c4.4,0,6.7,2.8,6.7,6.5v2.5
		c0,0.5-0.2,0.7-0.8,0.7H555.7z M555.7,1328.4v0.9h6.7v-0.9c0-2-1.1-3.4-3.3-3.4C556.8,1325,555.7,1326.3,555.7,1328.4z"/>
	<path class="st2" d="M569.3,1332.8v-4.4c0-3.8,2.2-6.4,5.6-6.4c2.4,0,4,1.3,4.7,2.4v-8c0-0.2,0.1-0.4,0.4-0.4h2.9
		c0.2,0,0.4,0.2,0.4,0.4v22.1c0,0.2-0.2,0.4-0.4,0.4h-2.8c-0.2,0-0.4-0.2-0.4-0.4v-1.7c-0.7,1.2-2.3,2.4-4.7,2.4
		C571.5,1339.2,569.3,1336.6,569.3,1332.8z M579.6,1332.3v-3.4c0-2.3-1.5-3.7-3.4-3.7c-2.1,0-3.2,1.4-3.2,3.7v3.4
		c0,2.3,1.1,3.6,3.2,3.6C578.1,1335.9,579.6,1334.6,579.6,1332.3z"/>
</g>
<g>
	<path class="st3" d="M422.9,195.8l0.2,0.5c1.5,3.1,2.8,6.3,3.9,9.5c1,2.9-0.1,6.1-2.7,7.7l-1.3,0.9l-5.2,3.2
		c-0.1,0.1-0.3,0.2-0.3,0.4c0.3,1.5,0.2,3,0.4,4.5c-0.1,2.2,0,4.4-0.3,6.5c0,0.3,0.1,0.4,0.3,0.5l3.1,1.9c0.6,0.5,1.3,0.9,2.1,1.3
		c0.7,0.5,1.4,0.9,2.1,1.4c1.6,1,2.7,2.7,3,4.6c0.1,1.5-0.1,2.9-0.6,4.3c-1.1,3.4-2.6,6.7-4.6,9.7c-3,4.5-6.3,8.7-10,12.6
		c-2.1,2.4-5.6,2.9-8.3,1.3c-2.3-1.3-4.6-2.7-6.9-4c-0.3-0.2-0.7-0.2-1,0.1c-2.7,2-5.7,3.7-8.8,5.1c-0.4,0.1-0.7,0.5-0.7,1
		c0,2.6,0,5.3,0,7.9c0.1,2.9-1.9,5.5-4.7,6.3c-2.9,0.8-6,1.3-9,1.6c-4,0.4-8,0.3-11.9-0.2c-2.6-0.3-5.2-0.7-7.7-1.4
		c-2.8-0.8-4.7-3.4-4.7-6.3c0-2.6,0-5.3,0-7.9c0.1-0.4-0.2-0.9-0.6-1c-3.1-1.4-6.1-3.1-8.8-5.1c-0.3-0.3-0.8-0.3-1.1,0
		c-2.2,1.3-4.4,2.6-6.6,3.8c-2.8,1.8-6.5,1.2-8.6-1.3c-6.3-6.6-10.9-14.7-13.5-23.4c-1.2-3.2,0.2-6.8,3.2-8.3
		c2.1-1.2,4.3-2.5,6.4-3.7c0.4-0.2,0.7-0.7,0.6-1.1c-0.4-3.4-0.4-6.8,0-10.1c0.1-0.4-0.1-0.8-0.5-1c-2.2-1.3-4.4-2.5-6.6-3.8
		c-3-1.5-4.3-5-3.2-8.2c2.7-8.9,7.4-17.1,13.8-23.8c2.1-2.1,5.4-2.6,8-1.1c2.3,1.3,4.6,2.7,6.9,4c0.3,0.3,0.8,0.3,1.1,0
		c2.7-2,5.6-3.7,8.7-5.1c0.5-0.2,0.7-0.6,0.7-1.1c0-2.5,0-5.1,0-7.6c-0.1-3.2,2.1-6.1,5.3-6.7c7.5-1.8,15.4-2.1,23-0.8
		c1.7,0.2,3.4,0.6,5.1,1c2.8,0.8,4.7,3.3,4.7,6.2c0,2.7,0,5.3,0,8c-0.1,0.4,0.2,0.8,0.6,1c3.1,1.4,6.1,3.1,8.8,5.1
		c0.3,0.3,0.8,0.3,1.1,0.1c2.2-1.3,4.5-2.6,6.7-3.9c2.8-1.7,6.4-1.2,8.5,1.3c1.6,1.8,3.1,3.7,4.7,5.6
		C419.6,190.2,421.3,193,422.9,195.8z M358,178.7c0,1.9,0,3.8,0,5.7c0.1,0.5-0.2,0.9-0.7,1c0,0,0,0,0,0c-1.5,0.5-2.9,1-4.3,1.6
		c-0.2,0-0.5,0.1-0.6,0.3c-2.9,1.1-5.6,2.7-8,4.6c-0.2,0.1-0.3,0.2-0.5,0.3l-3.3,2.7c-0.2,0.2-0.4,0.5-0.8,0.3
		c-1.3-0.8-2.5-1.5-3.8-2.2l-6.7-4c-0.3-0.2-0.5-0.2-0.7,0.1c-0.6,0.8-1.2,1.5-1.8,2.3c-1.2,1.4-2.3,2.9-3.2,4.6
		c-1.8,2.8-3.2,5.8-4.4,8.8c-0.1,0.3-0.3,0.7-0.4,1c-0.3,0.5-0.3,0.9,0.4,1.2c0.4,0.2,0.8,0.4,1.2,0.7c2.2,1.2,4.2,2.5,6.4,3.6
		l2.5,1.5c0.3,0.2,0.6,0.3,0.4,0.7s-0.1,0.5-0.2,0.8c-0.6,2.6-0.9,5.3-1,8c-0.1,2.9,0.1,5.8,0.7,8.6c0.1,0.7,0.2,1.3,0.3,2
		c0.2,0.5,0,0.8-0.5,1c-3.4,1.9-6.7,3.8-10,5.8c-0.4,0.1-0.6,0.6-0.5,1c0,0.1,0,0.1,0.1,0.1c0.6,1.5,1.1,3,1.8,4.4
		c2,4.4,4.6,8.6,7.8,12.3c0.2,0.3,0.4,0.7,0.9,0.3c2.2-1.3,4.3-2.6,6.5-3.8c1.3-0.7,2.5-1.4,3.7-2.1c0.4-0.3,0.9-0.3,1.2,0.1
		c0,0,0,0,0,0c1.2,1.1,2.5,2.2,3.8,3.1c0.2,0.1,0.3,0.3,0.5,0.4c3.7,2.6,7.8,4.7,12.1,6c0.6,0.2,1,0.5,0.9,1.2s0,1.7,0,2.5
		c0,3,0,6,0,9c0,0.5,0.1,0.7,0.6,0.8c1.1,0.2,2.2,0.4,3.4,0.4c1.2,0.2,2.4,0.3,3.5,0.4c4.2,0.2,8.4,0,12.5-0.8
		c0.4-0.1,0.5-0.2,0.5-0.6c0-2.8,0-5.6,0-8.4c0-1,0.1-2,0-3c-0.1-0.8,0.1-1.4,1-1.6c1.8-0.5,3.6-1.2,5.4-2c4-1.9,7.6-4.3,10.8-7.3
		c0.3-0.4,0.9-0.4,1.3-0.1c0,0,0,0,0,0c3.3,2,6.7,3.9,10,5.8c0.5,0.3,0.8,0.2,1.1-0.2c1.1-1.4,2.3-2.7,3.4-4.1
		c3.1-3.8,5.6-8,7.4-12.5c0.2-0.5,0.1-0.7-0.3-1c-3.3-1.9-6.6-3.8-9.9-5.7c-0.6-0.2-0.9-0.9-0.7-1.5c0,0,0,0,0,0
		c1.4-6.3,1.4-12.8-0.1-19.1c0-0.3-0.1-0.5,0.2-0.7c2.1-1.2,4.3-2.4,6.4-3.6l3-1.8c1.7-1,1.7-1,0.8-2.9c-0.9-2.4-2.2-4.7-3.7-6.8
		c-0.3-0.6-0.7-1.2-1.2-1.8c-1.6-2.2-3.3-4.2-5-6.3c-0.7-0.8-0.8-0.9-1.7-0.4c-0.3,0.2-0.7,0.4-1,0.6l-8.8,5.1
		c-0.4,0.1-0.7,0.4-1.1,0c-0.7-0.7-1.5-1.3-2.3-2c-1.6-1.4-3.4-2.6-5.2-3.7c-1.4-0.9-2.8-1.6-4.3-2.2l-4.4-1.7c-0.9-0.2-1-0.7-1-1.5
		c0-3.7,0-7.5,0-11.2c0-0.5-0.1-0.7-0.7-0.8c-2.7-0.5-5.5-0.8-8.2-0.9c-2.6-0.1-5.2,0-7.7,0.4c-1.2,0.1-2.4,0.3-3.6,0.5
		c-0.4,0-0.4,0.3-0.4,0.6L358,178.7z"/>
	<path class="st3" d="M449.3,208.6c-3.1,1.4-5.8,0.2-8.6-1c-1.6-0.8-3.1-1.7-4.6-2.8c-3-1.8-4.2-5.6-2.7-8.7
		c0.1-0.3,0.3-0.5,0.5-0.8c0.4-0.4,0.4-1.1,0-1.5c0,0,0,0,0,0c-0.4-0.5-0.7-1-0.9-1.6c-0.1-0.4-0.5-0.6-0.9-0.5c0,0-0.1,0-0.1,0
		c-1.1-0.2-2.2,0.1-3.2-0.2c-2.6-0.5-4.6-2.6-5-5.3c-0.7-3.4-0.7-7,0-10.4c0.7-3.3,3.1-5.5,6.5-5.4c1.8,0,2.8-0.4,3.5-2.1
		c0.4-0.6,0.4-1.3,0-1.8c-1.9-2.9-1.2-6.7,1.5-8.8c2.8-2.4,6.1-4.2,9.6-5.1c2.7-0.6,5.6,0.6,7,3c0.1,0.2,0.2,0.4,0.3,0.6
		c0.2,0.5,0.7,0.8,1.2,0.7c0.6-0.1,1.2-0.1,1.8,0c0.5,0.1,1-0.1,1.1-0.6c0.7-1.6,2.1-2.8,3.7-3.4c1.4-0.5,2.9-0.6,4.4-0.1
		c3.4,1.1,6.6,2.9,9.2,5.2c2.5,2.1,3.1,5.7,1.3,8.5c-0.4,0.6-0.4,1.4,0,2c0.5,1.2,1.7,2,3.1,2c3.5,0.2,5.5,2.4,6,6
		c0.5,3.1,0.5,6.2-0.1,9.3c-0.4,3.4-3.4,5.9-6.9,5.7c-0.6,0-1.2,0.3-1.5,0.9c-0.9,1.1-1,2.7-0.2,3.9c1.5,2.8,0.4,6.1-2.3,8
		c-0.1,0.1-0.2,0.2-0.3,0.3c-2.6,2-5.6,3.4-8.8,4.2c-2.5,0.8-5.2-0.1-6.7-2.2c-0.7-1.3-2.2-2-3.7-1.7c-0.1,0-0.2,0-0.3,0
		c-0.3-0.1-0.7,0.1-0.8,0.4C451.7,206.8,450.6,207.9,449.3,208.6z M449.3,165.2c-0.6,0.2-0.8-0.1-1.1-0.5c-0.7-1.3-1.5-2.6-2.2-3.9
		c-0.2-0.3-0.2-0.5-0.7-0.3c-1.5,0.7-3,1.5-4.3,2.5c-0.4,0.3-0.3,0.5-0.1,0.8c0.5,0.9,1.1,1.8,1.6,2.8c1,1.7,1,1.7-0.2,3.2
		c0,0,0,0,0,0.1c-0.8,0.7-1.4,1.6-1.9,2.5c-0.2,0.3-0.5,0.7-0.7,1.1c-0.7,1.3-1.2,2.7-1.6,4.1c-0.1,0.4-0.4,0.6-0.8,0.6
		c-1.5,0-3.1,0-4.6,0c-0.5,0-0.7,0.2-0.6,0.7c-0.2,1.5-0.2,3.1,0,4.6c0,0.5,0.2,0.7,0.7,0.7c1.4,0,2.8,0,4.2,0
		c0.7,0,1.1,0.1,1.3,0.9c0.2,0.9,0.6,1.8,1,2.7c0.3,0.9,0.7,1.7,1.3,2.4c0,0.1,0.1,0.2,0.1,0.3c0.8,1.1,1.6,2.1,2.5,3.1
		c0.3,0.3,0.3,0.7,0.1,1c-0.4,0.6-0.7,1.3-1.1,1.9s-0.8,1.3-1.2,2c-0.3,0.4-0.2,0.7,0.2,1c1.3,0.9,2.7,1.7,4.1,2.3
		c0.5,0.2,0.6,0.1,0.8-0.3c0.7-1.3,1.5-2.7,2.3-4c0.1-0.3,0.5-0.5,0.8-0.4c1.8,0.5,3.6,0.8,5.5,0.8c1.6-0.1,3.2-0.3,4.7-0.7
		c0.4-0.1,0.8,0.1,1,0.5c0,0,0,0,0,0c0.7,1.3,1.5,2.6,2.3,3.9c0.2,0.4,0.4,0.4,0.8,0.3c1.4-0.7,2.7-1.4,4-2.3
		c0.5-0.3,0.6-0.6,0.3-1.1c-0.8-1.3-1.5-2.6-2.3-3.8c-0.2-0.4-0.3-0.6,0.1-1c2.4-2.5,4.2-5.5,5.1-8.8c0-0.4,0.4-0.6,0.8-0.6
		c0,0,0,0,0,0c1.5,0,2.9,0,4.4,0c0.6,0,0.9-0.2,0.9-0.8c0.1-1.5,0.1-3,0-4.5c0-0.6-0.3-0.7-0.8-0.7c-1.4,0-2.8,0-4.2,0
		c-0.6,0-1-0.2-1.1-0.8c-0.9-3.2-2.6-6.2-5-8.5c-0.3-0.3-0.4-0.7-0.1-1.1c0,0,0,0,0,0c0.8-1.3,1.5-2.6,2.2-3.9
		c0.3-0.4,0.3-0.7-0.2-1c-1.3-0.9-2.7-1.7-4.2-2.4c-0.4-0.2-0.5-0.1-0.7,0.3c-0.8,1.3-1.5,2.7-2.3,4c-0.1,0.4-0.5,0.6-0.9,0.4
		c0,0,0,0,0,0C456.1,164.3,452.6,164.3,449.3,165.2L449.3,165.2z"/>
	<path class="st3" d="M436.5,239.9c1.3-1,2.7-1.9,4.3-2.6c0.7-0.3,1.5-0.6,2.2-0.9c2-1,4.4-1,6.4-0.1c1.3,0.8,2.3,1.9,3,3.3
		c0.1,0.3,0.5,0.5,0.8,0.4c0.7,0,1.4,0,2.1,0c0.4,0.1,0.8-0.2,1-0.5c0.5-0.9,1.1-1.7,1.9-2.4c1.5-1.2,3.3-1.7,5.2-1.4
		c1.2,0.3,2.4,0.6,3.5,1.1c1.9,0.9,3.8,2,5.6,3.3c1.2,0.9,2.2,2,3,3.3c0.9,2.2,0.7,4.8-0.8,6.8c-0.2,0.3-0.2,0.7,0,1
		c0.4,0.8,0.8,1.5,1.3,2.2c0.6,0.6,1.6,0.2,2.5,0.3c2.7,0.4,4.8,2.5,5.4,5.1c0.8,3.6,0.8,7.4-0.1,11c-0.6,2.9-3.2,5-6.1,5
		c-1-0.1-1.9,0.4-2.3,1.3c-0.7,0.9-0.7,2.2-0.1,3.2c1.4,2.6,0.8,5.9-1.5,7.8c-2.9,2.5-6.3,4.3-10,5.2c-2.7,0.6-5.6-0.6-7-3
		c-0.3-0.7-1-1.1-1.8-1c-1.4-0.2-2.7,0.5-3.4,1.7c-1.5,2.1-4.2,3-6.6,2.2c-3.5-0.8-6.8-2.5-9.6-4.9c-2.7-2-3.4-5.8-1.5-8.6
		c0.4-0.6,0.4-1.4,0-2.1c-0.5-1.4-1.9-2.2-3.3-2c-3.8,0.1-6.3-2.3-6.9-6.4c-0.5-3.2-0.4-6.4,0.3-9.6c0.1-0.4,0.2-0.8,0.3-1.2
		c1.1-2.5,3.7-4,6.5-3.8c1.5,0.1,2.5-0.3,2.9-1.7c0-0.1,0.1-0.1,0.1-0.2c0.7-0.7,0.5-1.3,0-2.1c-1.7-2.7-1.2-6.2,1.2-8.3
		C435.4,240.8,435.9,240.4,436.5,239.9z M475.7,267c0.9,0.1,0.9,0.1,0.9-1c0.1-1.3,0.1-2.7-0.1-4c-0.1-0.9-0.3-1-1-0.8
		c-1.4-0.1-2.7-0.1-4.1,0c-0.4,0.1-0.8-0.2-0.9-0.7c-0.3-1.1-0.7-2.1-1.2-3.1c-0.6-1.3-1.3-2.6-2.3-3.7c-0.5-0.7-1-1.3-1.6-1.9
		c-0.3-0.2-0.3-0.6-0.1-0.9c0,0,0,0,0.1-0.1c0.4-0.7,0.8-1.5,1.2-2.2c0.3-0.6,0.7-1.1,1-1.7s0.2-0.7-0.2-1c-1.3-0.9-2.7-1.7-4.1-2.3
		c-0.4-0.2-0.6,0-0.8,0.3c-0.5,1-1.1,1.9-1.7,2.9c-0.9,1.6-0.9,1.6-2.7,1.2c-3.1-0.6-6.3-0.5-9.3,0.4h-0.2l-2.7-4.8
		c-0.2-0.3-0.3-0.2-0.5-0.1c-1.5,0.7-3,1.5-4.3,2.5c-0.3,0.2-0.4,0.4-0.2,0.7c0.4,0.6,0.8,1.3,1.1,1.9s0.8,1.4,1.2,2.1
		c0.3,0.4,0.3,0.9-0.1,1.2c0,0,0,0,0,0c-2.3,2.4-4,5.3-4.9,8.5c-0.2,0.5-0.4,0.7-1,0.7c-1.5,0-2.9,0-4.4,0c-0.5,0-0.7,0.1-0.7,0.7
		c-0.1,1.5-0.1,3.1,0,4.6c0,0.5,0.3,0.6,0.7,0.6c1.5,0,2.9,0,4.4,0c0.5,0,0.8,0.1,0.9,0.6c0.9,3.3,2.6,6.3,5,8.7
		c0.3,0.3,0.3,0.7,0.1,1c0,0,0,0,0,0c-0.8,1.3-1.5,2.5-2.2,3.8c-0.3,0.5-0.3,0.7,0.2,1.1c1.3,0.9,2.7,1.6,4.1,2.3
		c0.4,0.2,0.6,0.1,0.8-0.2c0.5-0.9,1.1-1.8,1.6-2.8c1-1.8,1-1.8,3.1-1.4c2.4,0.5,5,0.5,7.4-0.1c0.3,0,0.6,0,0.9-0.1
		c0.5-0.3,1.2,0,1.4,0.5c0,0.1,0,0.1,0.1,0.2c0.6,1.3,1.4,2.5,2.1,3.7c0.2,0.3,0.3,0.6,0.7,0.3c1.5-0.7,3-1.5,4.3-2.5
		c0.3-0.1,0.4-0.4,0.2-0.7c0,0,0-0.1-0.1-0.1c-0.6-0.9-1.1-1.9-1.6-2.8c-1-1.7-1-1.7,0.2-3.2c0.1-0.1,0.2-0.3,0.3-0.4
		c0.2-0.2,0.4-0.4,0.6-0.7c0.2-0.2,0.3-0.4,0.5-0.6c1.3-1.8,2.2-3.9,2.8-6c0.1-0.5,0.5-0.8,1-0.8c0,0,0,0,0.1,0
		C472.9,267.1,474.3,267.1,475.7,267L475.7,267z"/>
	<path class="st3" d="M388,211.9l0.9,1.8c1.5,3.2,2.2,6.7,2.2,10.2c-0.1,5.2-2,10.3-5.4,14.2c-1.8,2.1-4,3.9-6.3,5.3
		c-1.3,0.6-2.7,1.2-4.1,1.7c-1.3,0.5-2.6,0.7-4,0.8c-0.2,0-0.3,0.1-0.5,0.1c-2.9,0.2-5.9-0.1-8.8-0.9c-6-1.8-11-6-13.8-11.7
		c-0.4-0.8-0.7-1.7-1.1-2.5c-0.9-2.8-1.4-5.7-1.3-8.6c0.1-3,0.9-5.9,2.1-8.6c0.7-1.3,1.5-2.6,2.4-3.8c0.9-1.3,2.1-2.3,3.1-3.5
		c0.3,0,0.5-0.3,0.7-0.4c3.2-2.7,7.1-4.4,11.2-5c1.8-0.2,3.7-0.3,5.5-0.2c3,0.4,5.9,1.3,8.6,2.7l2.5,1.6c0.3,0.3,0.7,0.6,1,0.9
		C384.9,207.8,386.6,209.8,388,211.9z M369.2,209.6c-7.7-0.4-14.2,5.5-14.6,13.2c-0.4,7.7,5.5,14.2,13.2,14.6
		c7.7,0.4,14.2-5.5,14.6-13.2c0,0,0-0.1,0-0.1C382.7,216.5,376.8,210,369.2,209.6z"/>
	<path class="st3" d="M449.7,188.6c-0.7-0.3-1.4-0.8-1.9-1.3c-2.3-2.2-3.2-5.4-2.5-8.5c0.5-2.5,2.2-4.6,4.5-5.7
		c2.6-1.3,5.8-1.2,8.3,0.2c4.2,2.4,5.6,7.8,3.2,12c-0.7,1.2-1.7,2.3-2.9,3c-0.1,0.1-0.2,0.2-0.3,0.2
		C455.5,189.9,452.3,190,449.7,188.6z"/>
	<path class="st3" d="M459.9,257.6c3.5,3.3,3.6,8.9,0.2,12.3c-0.8,0.8-1.7,1.5-2.7,1.9c-4.4,2-9.6,0.1-11.6-4.3
		c-0.3-0.7-0.5-1.4-0.7-2.1c-0.6-3.9,0.9-6.9,4.2-9c0.9-0.5,1.9-0.8,2.9-1c1.9-0.3,3.9,0,5.6,0.9
		C458.6,256.7,459.2,257.1,459.9,257.6z"/>
</g>
<g>
	<path class="st3" d="M337.9,549.1c0.4,1.5,0.8,3,1.1,4.4c0.2,1.7,0.3,3.5,0.3,5.2v19.2c0,1.7,0,3.4,0,5.2c0.1,2.4,2,4.3,4.4,4.5
		c1.8,0,3.5,0,5.3,0h9.4c1.9,0,3.8,0,5.8,0c0.8,0,1.7,0,2.5,0.2c0.5,0.3,0.9,0.8,1.2,1.2c0.3,2.1,0.3,4.2,0.1,6.3
		c-0.1,1.2-1.3,1.9-2.8,1.9h-20.9c-6.9,0.1-13-4.7-14.4-11.5c-0.2-0.9-0.3-1.8-0.3-2.8c0-8.5,0-17,0-25.5c0.1-4.1-1.5-8-4.5-10.8
		c-4.3-4.3-8.6-8.7-13-13c-2.1-1.9-2.3-5.2-0.4-7.3c0.1-0.1,0.2-0.2,0.4-0.4c4.4-4.2,8.6-8.6,12.9-12.9c3-2.8,4.6-6.8,4.5-10.9
		c0-8.4,0-16.7,0-25.1c-0.1-6.8,4.6-12.7,11.2-14.2c1.1-0.2,2.1-0.3,3.2-0.3h21.4c1.3-0.2,2.5,0.7,2.7,2c0,0.2,0,0.5,0,0.7
		c0,1.3,0,2.5,0,3.8c0.2,1.2-0.4,2.3-1.4,2.9c-0.5,0.1-1,0.2-1.5,0.2h-6.8c-3.2-0.1-6.4-0.1-9.7,0c-1.9-0.1-3.8-0.1-5.7,0.1
		c-2.1,0.4-3.7,2.2-3.8,4.3c0,1.7,0,3.4,0,5.2v19.2c0,1.9-0.1,3.9-0.3,5.8c-0.3,1.3-0.7,2.6-1,3.9c-0.8,2.2-1.9,4.3-3.3,6.3
		c-0.9,1.2-1.9,2.2-2.9,3.4l-2.1,2.1l-7.3,7.2c-0.2,0.2-0.4,0.4,0,0.7c2.3,2.6,4.8,4.9,7.3,7.3c0.7,0.9,1.5,1.7,2.4,2.3
		c0.1,0.1,0.1,0.2,0.2,0.3C334.8,542.6,336.7,545.7,337.9,549.1z"/>
	<path class="st3" d="M464.2,522.4c-1.5-1.7-3.2-3.2-4.6-5c-2.4-3.1-4-6.7-4.7-10.6c-0.3-1.8-0.4-3.7-0.3-5.5c0-7.9-0.1-15.9,0-23.8
		c0.1-2.8-2.1-5.2-4.9-5.3c-0.1,0-0.3,0-0.4,0c-6.8,0-13.7,0-20.5,0c-2.3,0-3-0.7-3-3v-4.1c-0.1-1.2,0.8-2.3,2-2.4
		c0.1,0,0.2,0,0.3,0c7.6,0,15.3-0.1,22.9,0c3,0.1,5.8,1.2,8,3.2c2.6,2.1,4.4,5.1,5,8.4c0.2,0.9,0.3,1.7,0.3,2.6
		c0,8.9-0.1,17.7,0,26.6c0,3.2,1.2,6.2,3.4,8.5c4.5,4.9,9.4,9.6,14.1,14.3c2,1.9,2.1,5.1,0.2,7.1c-0.1,0.1-0.1,0.1-0.2,0.2
		c-4.6,4.5-9.1,9.1-13.7,13.7c-2.5,2.4-3.9,5.8-3.9,9.2c0,8.8,0,17.5,0,26.3c0,4-1.6,7.8-4.6,10.6c-2.2,2-5,3.4-8,3.8
		c-0.7,0.1-1.5,0.1-2.2,0.1h-20.8c-1.2,0-2.4-0.3-2.7-1.6c-0.5-2.2-0.5-4.5,0-6.8c0.3-1.2,1.6-1.3,2.7-1.3h20.9
		c2.2,0,4.2-1.4,4.8-3.6c0.1-0.4,0.2-0.8,0.2-1.2c0-9,0-18.1,0-27.1c0.1-2.7,0.7-5.3,1.8-7.8c1-2.5,2.5-4.8,4.3-6.7
		c3.4-3.8,7.2-7.2,10.7-10.9c0.1-0.1,0.2-0.2,0.3-0.3c0.2-0.2,0-0.3-0.1-0.3L464.2,522.4z"/>
</g>
<path class="st3" d="M398,1415.5c6.9-0.3,13.9,0.3,20.7,1.7c2.4,0.4,4.7,1.3,6.8,2.6c7.4,4.9,14.9,9.8,21.3,16.1
	c11.1,11,18.6,25.1,21.4,40.4c6.2,31.9-1.9,60.4-21.9,85.6c-2,2.6-4.6,4.5-7.1,6.6c-1.3,1.1-2.5,0.8-3.4-0.6c-0.5-0.8-0.8-1.7-1-2.6
	c-0.4-2.8-0.5-5.6-0.3-8.4c0.1-2.4,1.2-4.7,3-6.4c5.7-5.6,11.2-11.4,15.3-18.3c5.3-9,7.6-19.1,8.2-29.5c1.1-18-2.9-34.4-13.7-49.1
	c-8.6-11.7-19.6-19.4-34-22.4c-8-1.6-16-1.4-24-1c-15.8,0.8-29.3,6.9-39.5,19.1c-8.9,10.6-15,22.7-16.5,36.7
	c-1.6,14.9-0.7,29.4,5.9,43.1c3.7,7.6,9.2,14,15.3,19.6c5.6,5.1,5.3,11,4.3,17.4c-0.6,3.4-2.5,3.9-5.1,1.8
	c-10.3-8.3-16.3-19.5-21.6-31.1c-7.6-16.4-9.8-33.6-8-51.5c1.1-11.3,4.8-21.8,10.1-32c6.5-12.6,16.6-21.3,27.8-29.3
	c5.8-4.1,11.7-6.9,18.8-7.8C386.5,1415.7,392.3,1415.5,398,1415.5z"/>
<path class="st3" d="M326,1164.6c-0.8-0.1-1.6,0.2-2.4-0.3c-2.6-0.7-4.8-2.3-6.2-4.5c-0.6-1-1-2-1.4-3.1c-0.2-0.8-0.3-1.5-0.3-2.3
	v-81.2c0-3.2,0-6.3,0-9.4c0-0.6-0.3-0.6-0.8-0.6c-2,0-4,0-5.9,0c-0.8,0-1.5-0.1-2.3-0.3c-0.4-0.3-0.8-0.8-1-1.3
	c-0.1-2.4-0.1-4.7,0-7.1c0.3-0.9,1.2-1.5,2.2-1.5c0.3,0,0.6,0,0.9,0h176c0.6,0,1.3,0.1,1.9,0.2c0.5,0.4,0.9,0.8,1.3,1.4
	c0,2.1,0,4.3,0,6.4c0,0.3-0.1,0.6-0.2,0.9l-1.2,1.1c-0.3,0.1-0.6,0.2-0.9,0.2c-2.3,0-4.7,0-7,0c-0.4,0-0.8,0-0.8,0.6
	c0,3.2,0,6.3,0,9.4v81.2l-0.2,2c-0.8,3.9-3.9,7-7.8,7.9l-2.2,0.3h-60.8h-4.5c-0.4,0-0.6,0-0.6,0.5c0,3.2,0,6.4,0.1,9.7
	c0,1.5,0,3-0.1,4.4c0,0.6,0.2,1.1,0.6,1.5c4.8,4.8,9.6,9.7,14.5,14.5l10.2,10.1c0.6,0.7,1.3,1.3,1.9,2c1,0.9,1.1,2.4,0.2,3.4
	c-0.1,0.1-0.2,0.2-0.3,0.3c-0.6,0.6-1.2,1.2-1.7,1.8s-1,1-1.5,1.5c-1.4,1.4-2.7,1.4-4.1,0l-4.3-4.3c-1.5-1.6-3.1-3.2-4.8-4.8
	c-1.7-1.9-3.6-3.7-5.4-5.4c-3.3-3.3-6.6-6.7-9.9-10c-0.3-0.3-0.4-0.2-0.7,0c-1.7,1.8-3.4,3.5-5.1,5.2c-1.7,1.5-3.3,3.1-4.8,4.8
	c-1.8,1.7-3.5,3.4-5.2,5.2c-1.7,1.6-3.4,3.3-5,5l-5.2,5c-0.8,0.3-1.7,0.3-2.6,0l-2.2-2.1c-0.6-0.6-1.3-1.2-1.8-1.8c-1-1-1-2.7,0-3.7
	c0,0,0.1-0.1,0.1-0.1c2.9-2.9,5.9-5.8,8.7-8.8c1.1-1,2.1-2.1,3-3.4l0,0c0.3,0.1,0.4-0.2,0.5-0.3l9.4-9.4c0.1-0.1,0.3-0.2,0.3-0.4
	l0,0c0.7-0.3,1.1-1,1.7-1.5c1.1-1,2.1-2.1,3.2-3.1c0.2-0.1,0.3-0.3,0.3-0.5c0-1.7,0-3.4-0.1-5.1c0-3.2,0-6.3,0.1-9.5
	c0-0.5-0.2-0.6-0.6-0.5h-4.5L326,1164.6L326,1164.6z M387,1154.3h10c0.3,0,0.7,0,1,0h23.5c2,0,3.9,0,5.9,0h30.4c3,0,6,0,9.1,0.1
	c0.9,0,1.2-0.2,1.2-1.2c0-29.7,0-59.3,0-89c0-0.2,0-0.4,0-0.6c0-0.4-0.1-0.6-0.6-0.6c-3.2,0-6.4,0-9.6,0h-30.4c-0.3,0-0.6,0-0.9,0
	h-28.6c-0.3,0-0.6,0-0.9,0h-50.6c-0.3,0-0.7,0-1,0c-6.1,0-12.2,0-18.3,0c-1,0-1.1,0.3-1.1,1.2c0,23.7,0,47.4,0,71.1v18.2
	c0,0.4-0.2,0.9,0.6,0.9c6.6,0,13.2,0,19.8,0L387,1154.3L387,1154.3z"/>
<path class="st3" d="M410.5,902.6h-9.7h-14.4h-32.7h-1h-19.1c-2.5-0.1-4.9,0.1-7.4-0.2l-2.3-0.6l0,0l-0.2-0.1
	c-4.1-1.4-7.3-4.7-8.7-8.8l-0.5-1.8c-0.6-2.6-0.1-5.3-0.3-7.9v-76.8c0-0.3,0-0.6,0-1c-0.1-2.3,0-4.5,0.3-6.8l0.4-1.7
	c0.4-0.8,0.6-1.6,1-2.3c1.8-3.2,4.7-5.7,8.1-6.9c2.7-0.6,5.5-0.9,8.2-0.7h10.8h105.6c2.6-0.1,5.3,0.1,7.9,0.3h0l0,0l0.6,0.1
	c0.3,0.2,0.6,0.3,1,0.3c1.7,0.7,3.2,1.6,4.6,2.8c2.7,2.3,4.4,5.5,4.9,8.9c0.1,0.9,0.2,1.9,0.2,2.8c0,28.3,0,56.6,0,84.8
	c0,1.8-0.2,3.6-0.7,5.4l-0.2,0.3c-1.8,5.2-6.4,8.8-11.8,9.4c-2.2,0.3-4.4,0-6.6,0.2h-9.5h-19.3C416.8,902.6,413.6,902.6,410.5,902.6
	z M381.5,796.9H372h-9.6H343h-9.5c-1.7,0-3.3-0.1-5,0c-2.4,0-4.5,1.9-4.7,4.4c0,1.8,0,3.5,0,5.3v76.9c0,1.7,0,3.3,0,5
	c0.1,2.4,2,4.3,4.3,4.5c1.8,0.1,3.6,0,5.3,0h57.6c0.3,0,0.7,0,1,0H413h6.9h28.8c1.7,0,3.3,0.1,5,0c2.6,0,4.7-2.2,4.7-4.8
	c0,0,0,0,0,0v-86.3c0.1-2.6-1.9-4.8-4.5-4.9c0,0-0.1,0-0.1,0c-4.8-0.1-9.7,0-14.5,0h-9.7h-1h-32.7L381.5,796.9z"/>
<path class="st3" d="M371.8,816.1l0.5,0.2c0.6,0.4,1,1,1.3,1.7c1,2.5,2,5,3,7.6c1.2,3,2.3,6.1,3.4,9.1c2.5,6.5,5,13,7.5,19.5
	c2,5.3,4,10.5,6.1,15.8c0.7,1.2,0.2,2.8-1,3.5c-0.5,0.3-1,0.4-1.5,0.3c-2,0-3.9,0-5.9-0.2c-0.6-0.4-1-0.9-1.2-1.6
	c-0.8-2-1.4-4-2.3-6c-0.2-0.7-0.4-1.3-0.7-1.9c-1.2-3.1-2.3-6.1-3.5-9.2c-0.1-0.3-0.3-0.4-0.6-0.4l-4.9,0.1c-2,0-3.9-0.1-5.9-0.1
	c-2.8,0-5.6,0-8.4,0c-0.5-0.1-0.9,0.3-1.1,0.7c-2.1,5.5-4.3,11.1-6.4,16.6c-0.3,1.3-1.5,2.1-2.8,1.9h-4.5l-1.4-0.3
	c-1.2-0.7-1.7-2.2-1-3.4c0,0,0,0,0-0.1c0.8-2,1.5-3.9,2.2-5.9c0.2-0.3,0.3-0.6,0.3-0.9c1.1-2.8,2.2-5.6,3.3-8.5c0-0.1,0-0.2,0-0.3
	c0.1-0.2,0.3-0.4,0.3-0.6c0.6-1.6,1.3-3.2,1.8-4.8c0.5-1.3,1-2.6,1.4-3.9c0.2-0.1,0.3-0.3,0.3-0.5c2.4-6.3,4.9-12.7,7.3-19
	c0.7-1.8,1.3-3.7,2.1-5.6c0.5-1.3,0.8-2.7,1.9-3.7c0.3,0,0.6-0.1,0.9-0.2L371.8,816.1z M367.2,828.2c-0.1,0.1-0.2,0.1-0.2,0.1
	c-2.1,5.3-4.1,10.7-6.2,16c-0.2,0.5,0,0.6,0.5,0.6h12.3C371.5,839.3,369.3,833.7,367.2,828.2z"/>
<path class="st3" d="M431.3,873.6c-1.1-0.4-1.8-1.4-1.8-2.6c-8.8,5.1-20.1,2.5-25.6-6c-5.8-8.8-3.4-20.8,5.4-26.6
	c6.1-4,13.9-4.2,20.2-0.6v-19c0-1.9,0.8-2.7,2.7-2.7c1.5,0,2.9,0,4.4,0c1.3-0.1,2.5,0.9,2.6,2.2c0,0.1,0,0.3,0,0.4
	c0,2.3,0,4.6,0,6.9v38.5c0,0.7,0,1.3,0,2c-0.1,2,0.1,4.1-0.1,6.1c-0.3,0.6-0.8,1.1-1.4,1.4c-0.2,0.1-0.3,0.1-0.5,0.1L431.3,873.6z
	 M429.6,854.6c0.1-0.8,0-1.6-0.3-2.3c-1.2-5.1-6.4-8.3-11.5-7.1c-5.1,1.2-8.3,6.4-7.1,11.5c1,4.3,4.9,7.4,9.3,7.4
	c0.6,0,1.2,0,1.8-0.2C426.3,863.1,429.5,859.2,429.6,854.6z"/>
</svg>
