<?xml version="1.0" encoding="utf-8"?>
<!-- Generator: Adobe Illustrator 24.1.1, SVG Export Plug-In . SVG Version: 6.00 Build 0)  -->
<svg version="1.1" id="Layer_1" xmlns="http://www.w3.org/2000/svg" xmlns:xlink="http://www.w3.org/1999/xlink" x="0px" y="0px"
	 viewBox="0 0 792 1118.7" style="enable-background:new 0 0 792 1118.7;" xml:space="preserve">
<style type="text/css">
	.st0{fill:#FFFEFF;}
	.st1{enable-background:new    ;}
	.st2{fill:#2E3442;}
	.st3{fill:#E2AC42;}
</style>
<rect y="-30.7" class="st0" width="792" height="1224"/>
<g class="st1">
	<path class="st2" d="M306.2,60.2c0.1,0.3,0,0.5-0.4,0.6l-2.5,0.9c-0.4,0.1-0.5,0-0.7-0.3c-0.7-1.8-2-2.6-4-2.6
		c-2.3,0-3.7,1.1-3.7,2.8c0,1.6,1.1,2.3,5.3,3.9c4.3,1.6,6.1,3.6,6.1,6.9c0,4-3.3,6.9-8.1,6.9c-4.4,0-7.1-1.9-8.1-5.5
		c-0.1-0.3,0-0.5,0.3-0.6l2.7-0.9c0.4-0.1,0.6,0,0.7,0.4c0.5,2,2,3,4.4,3s3.9-1.2,3.9-2.9c0-1.7-0.9-2.5-4.6-3.8
		c-4.9-1.8-6.8-3.8-6.8-7.2c0-3.6,3.1-6.5,7.7-6.5C302.4,55.3,305,57,306.2,60.2z"/>
</g>
<g class="st1">
	<path class="st2" d="M315.4,57.5v4h3.5c0.3,0,0.4,0.2,0.4,0.5v2.3c0,0.3-0.2,0.4-0.4,0.4h-3.5v8.9c0,1.3,0.7,1.9,2.1,1.9h1.3
		c0.3,0,0.4,0.1,0.4,0.4v2.6c0,0.3-0.2,0.4-0.4,0.4h-2c-3.6,0-5.4-1.9-5.4-4.9v-9.4h-2.2c-0.3,0-0.4-0.1-0.4-0.4V62
		c0-0.3,0.2-0.5,0.4-0.5h2.2v-4c0-0.3,0.2-0.4,0.4-0.4h2.9C315.3,57,315.4,57.2,315.4,57.5z"/>
	<path class="st2" d="M337.6,62l-6,16.3c-1.2,3.4-2.9,6-5.2,7.4c-0.3,0.2-0.6,0.4-0.9,0l-1.8-1.9c-0.3-0.3-0.2-0.6,0.1-0.8
		c1.9-1.3,3.1-2.5,3.9-5.1l-6.3-16c-0.1-0.3,0.1-0.6,0.4-0.6h3.3c0.3,0,0.5,0.1,0.6,0.4l2.1,5.9c0.9,2.5,1.5,4.4,2,6.4h0.1
		c0.5-2.4,1.1-3.9,1.9-6.4l2-6c0.1-0.3,0.3-0.4,0.6-0.4h3C337.5,61.4,337.7,61.7,337.6,62z"/>
	<path class="st2" d="M344.7,55.1v23.5c0,0.3-0.2,0.4-0.4,0.4h-3c-0.3,0-0.5-0.2-0.5-0.4V55.1c0-0.3,0.2-0.4,0.5-0.4h3
		C344.6,54.6,344.7,54.8,344.7,55.1z"/>
	<path class="st2" d="M352.9,71.4v1c0,2.3,1.2,3.7,3.7,3.7c2.4,0,3.1-0.9,3.7-2.1c0.3-0.4,0.4-0.5,0.8-0.3l2,1
		c0.4,0.2,0.5,0.5,0.3,0.9c-1.1,2.3-3.5,3.7-6.9,3.7c-4.9,0-7.5-2.9-7.5-7v-4.4c0-4,2.5-7,7.4-7c4.7,0,7.1,3,7.1,6.9v2.7
		c0,0.5-0.2,0.8-0.8,0.8h-9.8V71.4z M352.9,67.9v0.9h7.1v-0.9c0-2.2-1.2-3.6-3.6-3.6C354.1,64.3,352.9,65.7,352.9,67.9z"/>
	<path class="st2" d="M367.4,72.7V68c0-4.1,2.4-6.8,6-6.8c2.6,0,4.3,1.3,5,2.6v-8.6c0-0.2,0.1-0.4,0.4-0.4h3.1
		c0.3,0,0.4,0.2,0.4,0.4v23.5c0,0.3-0.2,0.4-0.4,0.4h-3c-0.3,0-0.4-0.2-0.4-0.4v-1.8c-0.7,1.2-2.5,2.6-5,2.6
		C369.7,79.4,367.4,76.7,367.4,72.7z M378.4,72.1v-3.6c0-2.5-1.6-3.9-3.6-3.9c-2.2,0-3.4,1.5-3.4,3.9v3.6c0,2.5,1.2,3.8,3.4,3.8
		C376.8,75.9,378.4,74.6,378.4,72.1z"/>
</g>
<g class="st1">
	<path class="st2" d="M412.3,79.1H409c-0.3,0-0.4-0.1-0.5-0.4l-1.7-5.4h-7.9l-1.7,5.4c-0.1,0.3-0.3,0.4-0.6,0.4h-3.1
		c-0.3,0-0.4-0.2-0.3-0.5l7-22.5c0.1-0.3,0.3-0.4,0.6-0.4h4.1c0.4,0,0.5,0.1,0.6,0.4l7.1,22.5C412.8,78.8,412.6,79.1,412.3,79.1z
		 M405.6,69.5l-0.9-2.8c-0.6-2.2-1.4-4.9-1.9-6.9h-0.1c-0.4,2-1.2,4.7-1.9,6.9l-0.8,2.7h5.6V69.5z"/>
</g>
<g class="st1">
	<path class="st2" d="M428.4,65.2c0.1,0.3,0,0.5-0.3,0.6l-2.3,0.8c-0.4,0.1-0.5,0-0.6-0.3c-0.5-1.4-1.7-2.1-3.4-2.1
		c-1.8,0-2.8,0.7-2.8,1.9c0,1.1,0.7,1.5,4.1,2.5c4,1.1,5.6,2.7,5.6,5.5c0,3.3-2.7,5.4-6.8,5.4c-3.7,0-6.4-1.5-7.2-4.2
		c-0.1-0.4,0-0.5,0.4-0.7l2.1-1c0.4-0.1,0.6-0.1,0.7,0.4c0.5,1.5,2,2.4,3.9,2.4c2,0,3.1-0.8,3.1-2s-1-1.8-4.3-2.7
		c-3.8-1.1-5.4-2.6-5.4-5.3c0-3.2,2.6-5.3,6.5-5.3C425.1,61,427.6,62.6,428.4,65.2z"/>
	<path class="st2" d="M445.3,65.2c0.1,0.3,0,0.5-0.3,0.6l-2.3,0.8c-0.4,0.1-0.5,0-0.6-0.3c-0.5-1.4-1.7-2.1-3.4-2.1
		c-1.8,0-2.8,0.7-2.8,1.9c0,1.1,0.7,1.5,4.1,2.5c4,1.1,5.6,2.7,5.6,5.5c0,3.3-2.7,5.4-6.8,5.4c-3.7,0-6.4-1.5-7.2-4.2
		c-0.1-0.4,0-0.5,0.4-0.7l2.1-1c0.4-0.1,0.6-0.1,0.7,0.4c0.5,1.5,2,2.4,3.9,2.4c2,0,3.1-0.8,3.1-2s-1-1.8-4.3-2.7
		c-3.8-1.1-5.4-2.6-5.4-5.3c0-3.2,2.6-5.3,6.5-5.3C442,61,444.5,62.6,445.3,65.2z"/>
</g>
<g class="st1">
	<path class="st2" d="M452.8,71.4v1c0,2.3,1.2,3.7,3.7,3.7c2.4,0,3.1-0.9,3.7-2.1c0.3-0.4,0.4-0.5,0.8-0.3l2,1
		c0.4,0.2,0.5,0.5,0.3,0.9c-1.1,2.3-3.5,3.7-6.9,3.7c-4.9,0-7.5-2.9-7.5-7v-4.4c0-4,2.5-7,7.4-7c4.7,0,7.1,3,7.1,6.9v2.7
		c0,0.5-0.2,0.8-0.8,0.8h-9.8V71.4z M452.8,67.9v0.9h7.1v-0.9c0-2.2-1.2-3.6-3.6-3.6C454,64.3,452.8,65.7,452.8,67.9z"/>
</g>
<g class="st1">
	<path class="st2" d="M472.7,57.5v4h3.5c0.3,0,0.4,0.2,0.4,0.5v2.3c0,0.3-0.2,0.4-0.4,0.4h-3.5v8.9c0,1.3,0.7,1.9,2.1,1.9h1.3
		c0.3,0,0.4,0.1,0.4,0.4v2.6c0,0.3-0.2,0.4-0.4,0.4h-2c-3.6,0-5.4-1.9-5.4-4.9v-9.4h-2.2c-0.3,0-0.4-0.1-0.4-0.4V62
		c0-0.3,0.2-0.5,0.4-0.5h2.2v-4c0-0.3,0.2-0.4,0.4-0.4h2.9C472.6,57,472.7,57.2,472.7,57.5z"/>
	<path class="st2" d="M493.1,65.2c0.1,0.3,0,0.5-0.3,0.6l-2.3,0.8c-0.4,0.1-0.5,0-0.6-0.3c-0.5-1.4-1.7-2.1-3.4-2.1
		c-1.8,0-2.8,0.7-2.8,1.9c0,1.1,0.7,1.5,4.1,2.5c4,1.1,5.6,2.7,5.6,5.5c0,3.3-2.7,5.4-6.8,5.4c-3.7,0-6.4-1.5-7.2-4.2
		c-0.1-0.4,0-0.5,0.4-0.7l2.1-1c0.4-0.1,0.6-0.1,0.7,0.4c0.5,1.5,2,2.4,3.9,2.4c2,0,3.1-0.8,3.1-2s-1-1.8-4.3-2.7
		c-3.8-1.1-5.4-2.6-5.4-5.3c0-3.2,2.6-5.3,6.5-5.3C489.8,61,492.3,62.6,493.1,65.2z"/>
</g>
<g class="st1">
	<path class="st2" d="M238.5,94.5V117c0,0.3-0.2,0.4-0.5,0.4h-3.2c-0.3,0-0.4-0.2-0.4-0.4V94.5c0-0.3,0.1-0.4,0.4-0.4h3.2
		C238.3,94,238.5,94.2,238.5,94.5z"/>
</g>
<g class="st1">
	<path class="st2" d="M252.4,99.4c2.3,0,3.7,1.4,4.4,3.2c1.3-1.9,3-3.2,5.1-3.2c3,0,4.8,2.3,4.8,5.8V117c0,0.3-0.2,0.4-0.5,0.4h-2.9
		c-0.3,0-0.5-0.2-0.5-0.4v-11c0-1.9-0.8-2.9-2.3-2.9c-1.4,0-2.6,1.1-3.3,2.9v11c0,0.3-0.2,0.4-0.4,0.4h-3.1c-0.3,0-0.4-0.2-0.4-0.4
		v-11c0-1.9-0.8-2.9-2.2-2.9c-1.5,0-2.7,1.3-3.3,3V117c0,0.3-0.1,0.4-0.4,0.4h-3.1c-0.3,0-0.4-0.2-0.4-0.4v-16.8
		c0-0.2,0.1-0.4,0.4-0.4h3c0.3,0,0.4,0.2,0.4,0.4v2.1C248.5,100.9,250.1,99.4,252.4,99.4z"/>
	<path class="st2" d="M271.8,123.9c-0.3,0-0.4-0.2-0.4-0.4v-23.2c0-0.3,0.2-0.4,0.4-0.4h3c0.3,0,0.4,0.2,0.4,0.4v1.8
		c0.7-1.2,2.5-2.6,5-2.6c3.8,0,6.2,2.7,6.2,6.8v4.7c0,4.1-2.4,6.8-6,6.8c-2.6,0-4.3-1.3-5-2.6v8.2c0,0.3-0.1,0.4-0.4,0.4
		L271.8,123.9L271.8,123.9z M282.4,110.4v-3.6c0-2.5-1.2-3.8-3.4-3.8c-2,0-3.6,1.3-3.6,3.9v3.6c0,2.5,1.6,3.9,3.6,3.9
		C281.3,114.3,282.4,112.9,282.4,110.4z"/>
	<path class="st2" d="M294.8,93.5V117c0,0.3-0.2,0.4-0.4,0.4h-3c-0.3,0-0.5-0.2-0.5-0.4V93.5c0-0.3,0.2-0.4,0.5-0.4h3
		C294.6,93,294.8,93.2,294.8,93.5z"/>
	<path class="st2" d="M302.9,109.8v1c0,2.3,1.2,3.7,3.7,3.7c2.4,0,3.1-0.9,3.7-2.1c0.3-0.4,0.4-0.5,0.8-0.3l2,1
		c0.4,0.2,0.5,0.5,0.3,0.9c-1.1,2.3-3.5,3.7-6.9,3.7c-4.9,0-7.5-2.9-7.5-7v-4.4c0-4,2.5-7,7.4-7c4.7,0,7.1,3,7.1,6.9v2.7
		c0,0.5-0.2,0.8-0.8,0.8h-9.8V109.8z M302.9,106.3v0.9h7.1v-0.9c0-2.2-1.2-3.6-3.6-3.6C304.1,102.7,302.9,104.1,302.9,106.3z"/>
	<path class="st2" d="M326.6,99.4c2.3,0,3.7,1.4,4.4,3.2c1.3-1.9,3-3.2,5.1-3.2c3,0,4.8,2.3,4.8,5.8V117c0,0.3-0.2,0.4-0.5,0.4h-2.9
		c-0.3,0-0.5-0.2-0.5-0.4v-11c0-1.9-0.8-2.9-2.3-2.9c-1.4,0-2.6,1.1-3.3,2.9v11c0,0.3-0.2,0.4-0.4,0.4h-3.1c-0.3,0-0.4-0.2-0.4-0.4
		v-11c0-1.9-0.8-2.9-2.2-2.9c-1.5,0-2.7,1.3-3.3,3V117c0,0.3-0.1,0.4-0.4,0.4h-3.1c-0.3,0-0.4-0.2-0.4-0.4v-16.8
		c0-0.2,0.1-0.4,0.4-0.4h3c0.3,0,0.4,0.2,0.4,0.4v2.1C322.7,100.9,324.3,99.4,326.6,99.4z"/>
	<path class="st2" d="M348.9,109.8v1c0,2.3,1.2,3.7,3.7,3.7c2.4,0,3.1-0.9,3.7-2.1c0.3-0.4,0.4-0.5,0.8-0.3l2,1
		c0.4,0.2,0.5,0.5,0.3,0.9c-1.1,2.3-3.5,3.7-6.9,3.7c-4.9,0-7.5-2.9-7.5-7v-4.4c0-4,2.5-7,7.4-7c4.7,0,7.1,3,7.1,6.9v2.7
		c0,0.5-0.2,0.8-0.8,0.8h-9.8V109.8z M348.9,106.3v0.9h7.1v-0.9c0-2.2-1.2-3.6-3.6-3.6C350.1,102.7,348.9,104.1,348.9,106.3z"/>
</g>
<g class="st1">
	<path class="st2" d="M367.8,106.1V117c0,0.3-0.2,0.4-0.4,0.4h-3c-0.3,0-0.5-0.2-0.5-0.4v-16.8c0-0.2,0.1-0.4,0.4-0.4h3
		c0.3,0,0.4,0.2,0.4,0.4v2.1c1.1-1.6,2.9-2.9,5.3-2.9c3.4,0,5.2,2.4,5.2,6V117c0,0.3-0.2,0.4-0.4,0.4h-3c-0.3,0-0.5-0.2-0.5-0.4
		v-10.9c0-1.9-0.9-3.1-2.7-3.1C369.9,103.1,368.4,104.3,367.8,106.1z"/>
</g>
<g class="st1">
	<path class="st2" d="M387.9,95.9v4h3.5c0.3,0,0.4,0.2,0.4,0.5v2.3c0,0.3-0.2,0.4-0.4,0.4h-3.5v8.9c0,1.3,0.7,1.9,2.1,1.9h1.3
		c0.3,0,0.4,0.1,0.4,0.4v2.6c0,0.3-0.2,0.4-0.4,0.4h-2c-3.6,0-5.4-1.9-5.4-4.9V103h-2.2c-0.3,0-0.4-0.1-0.4-0.4v-2.3
		c0-0.3,0.2-0.5,0.4-0.5h2.2v-4c0-0.3,0.2-0.4,0.4-0.4h2.9C387.7,95.4,387.9,95.6,387.9,95.9z"/>
	<path class="st2" d="M398.8,109.8v1c0,2.3,1.2,3.7,3.7,3.7c2.4,0,3.1-0.9,3.7-2.1c0.3-0.4,0.4-0.5,0.8-0.3l2,1
		c0.4,0.2,0.5,0.5,0.3,0.9c-1.1,2.3-3.5,3.7-6.9,3.7c-4.9,0-7.5-2.9-7.5-7v-4.4c0-4,2.5-7,7.4-7c4.7,0,7.1,3,7.1,6.9v2.7
		c0,0.5-0.2,0.8-0.8,0.8h-9.8V109.8z M398.8,106.3v0.9h7.1v-0.9c0-2.2-1.2-3.6-3.6-3.6S398.8,104.1,398.8,106.3z"/>
	<path class="st2" d="M413.3,111.1v-4.7c0-4.1,2.4-6.8,6-6.8c2.6,0,4.3,1.3,5,2.6v-8.6c0-0.2,0.1-0.4,0.4-0.4h3.1
		c0.3,0,0.4,0.2,0.4,0.4V117c0,0.3-0.2,0.4-0.4,0.4h-3c-0.3,0-0.4-0.2-0.4-0.4v-1.8c-0.7,1.2-2.5,2.6-5,2.6
		C415.7,117.8,413.3,115.1,413.3,111.1z M424.3,110.5v-3.6c0-2.5-1.6-3.9-3.6-3.9c-2.2,0-3.4,1.5-3.4,3.9v3.6c0,2.5,1.2,3.8,3.4,3.8
		C422.7,114.3,424.3,113,424.3,110.5z"/>
</g>
<g class="st1">
	<path class="st2" d="M450.8,93.5v2.4c0,0.2-0.1,0.4-0.4,0.4h-1.5c-1.5,0-2.1,0.6-2.1,1.9v1.8h3.7c0.2,0,0.4,0.2,0.4,0.4v2.4
		c0,0.3-0.2,0.4-0.4,0.4h-3.6V117c0,0.3-0.2,0.4-0.4,0.4h-3.1c-0.3,0-0.5-0.1-0.5-0.4v-13.9h-2.4c-0.2,0-0.4-0.2-0.4-0.4v-2.4
		c0-0.2,0.2-0.4,0.4-0.4h2.4v-1.6c0-3.3,1.9-5.2,5.4-5.2h2.1C450.7,93.1,450.8,93.3,450.8,93.5z"/>
</g>
<g class="st1">
	<path class="st2" d="M468.3,106.6v4.2c0,4.2-2.4,7.1-7.5,7.1s-7.5-2.9-7.5-7v-4.2c0-4.2,2.4-7.2,7.5-7.2
		C465.9,99.4,468.3,102.5,468.3,106.6z M457.2,106.7v3.9c0,2.4,1.2,3.7,3.5,3.7c2.4,0,3.6-1.3,3.6-3.7v-3.9c0-2.4-1.2-3.8-3.6-3.8
		C458.4,102.9,457.2,104.4,457.2,106.7z"/>
</g>
<g class="st1">
	<path class="st2" d="M482.3,100.1v2.8c0,0.4-0.1,0.5-0.5,0.5h-0.4c-2.6,0-4.1,1.3-4.8,3.3V117c0,0.3-0.2,0.4-0.4,0.4H473
		c-0.2,0-0.4-0.1-0.4-0.4v-16.8c0-0.3,0.2-0.4,0.4-0.4h2.9c0.3,0,0.4,0.2,0.4,0.4v2.5c0.9-1.6,2.6-3.2,5.3-3.2
		C482.2,99.6,482.3,99.7,482.3,100.1z"/>
</g>
<g class="st1">
	<path class="st2" d="M509.1,100v0.4c0,2.4-1.3,4.2-3.3,4.9c2.3,0.4,4,2.4,4,5.3v0.5c0,3.9-2.4,6.4-7.2,6.4h-8.5
		c-0.3,0-0.4-0.2-0.4-0.4V94.5c0-0.3,0.1-0.4,0.4-0.4h8.3C506.8,94,509.1,96.3,509.1,100z M497.8,97.6v6h4.1c2.4,0,3.3-1.4,3.3-2.9
		v-0.3c0-1.6-0.9-2.9-3.3-2.9h-4.1V97.6z M497.8,107.3v6.6h4.3c2.1,0,3.6-0.9,3.6-3v-0.4c0-2-1.3-3.1-3.6-3.1L497.8,107.3
		L497.8,107.3z"/>
</g>
<g class="st1">
	<path class="st2" d="M517.3,109.8v1c0,2.3,1.2,3.7,3.7,3.7c2.4,0,3.1-0.9,3.7-2.1c0.3-0.4,0.4-0.5,0.8-0.3l2,1
		c0.4,0.2,0.5,0.5,0.3,0.9c-1.1,2.3-3.5,3.7-6.9,3.7c-4.9,0-7.5-2.9-7.5-7v-4.4c0-4,2.5-7,7.4-7c4.7,0,7.1,3,7.1,6.9v2.7
		c0,0.5-0.2,0.8-0.8,0.8h-9.8V109.8z M517.3,106.3v0.9h7.1v-0.9c0-2.2-1.2-3.6-3.6-3.6S517.3,104.1,517.3,106.3z"/>
</g>
<g class="st1">
	<path class="st2" d="M537.3,95.9v4h3.5c0.3,0,0.4,0.2,0.4,0.5v2.3c0,0.3-0.2,0.4-0.4,0.4h-3.5v8.9c0,1.3,0.7,1.9,2.1,1.9h1.3
		c0.3,0,0.4,0.1,0.4,0.4v2.6c0,0.3-0.2,0.4-0.4,0.4h-2c-3.6,0-5.4-1.9-5.4-4.9V103h-2.2c-0.3,0-0.4-0.1-0.4-0.4v-2.3
		c0-0.3,0.2-0.5,0.4-0.5h2.2v-4c0-0.3,0.2-0.4,0.4-0.4h2.9C537.1,95.4,537.3,95.6,537.3,95.9z"/>
	<path class="st2" d="M558.2,105.3V117c0,0.3-0.2,0.4-0.4,0.4H555c-0.3,0-0.4-0.2-0.4-0.4v-2.1c-1.1,1.8-2.9,2.9-5.1,2.9
		c-3.3,0-5.4-2.2-5.4-5.3c0-3.2,2.1-5.1,6.7-5.4c1.2-0.1,2.4-0.1,3.6,0v-1.6c0-2-1.1-2.8-2.9-2.8c-1.8,0-2.5,0.7-2.9,1.9
		c-0.1,0.4-0.3,0.4-0.6,0.3l-2.8-0.7c-0.3-0.1-0.4-0.3-0.3-0.5c0.5-2.5,2.8-4.2,6.8-4.2C555.7,99.4,558.2,101.4,558.2,105.3z
		 M554.3,111.8v-2.2c-1.1,0-2.2,0-3.3,0.1c-2.1,0.2-3.3,0.9-3.3,2.6c0,1.4,1,2.4,2.7,2.4C552.3,114.6,553.6,113.6,554.3,111.8z"/>
</g>
<path class="st3" d="M469.2,221.1c0,4.7-2,9.2-5.3,12.5c-8.1,8.1-16.2,16.3-24.4,24.3c-1.4,1.3-2.3,3-2.8,4.9
	c-2.4,8.7-4.8,17.3-7.3,25.9c-1.6,5.8-6,10.4-11.8,12.2c-25.4,8.5-50.8,17-76.2,25.4c-1,0.3-2.1,0.7-3.2,1.1c-0.3,0.2-0.8,0.1-1-0.2
	c-4.7-4.7-9.3-9.3-14-14c-0.5-0.5-0.3-0.9-0.1-1.4l7-21c6.4-19.2,12.8-38.5,19.2-57.7c1.9-6.1,6.8-10.8,13.1-12.3
	c8.3-2.4,16.7-4.8,25-7c2-0.5,3.8-1.6,5.2-3.1c7.9-8,15.9-15.9,23.8-23.8c3.7-3.9,8.9-5.9,14.2-5.5c4.1,0.2,7.9,1.9,10.8,4.7
	c7.6,7.5,15.2,15.1,22.8,22.8c2.8,2.8,4.6,6.5,4.9,10.5C469.1,219.9,469.1,220.5,469.2,221.1z M359.3,310.7c1.2-0.3,2.4-0.6,3.5-1.1
	c1.9-0.5,3.8-1.2,5.7-1.9l9-3l9.4-3.1c1-0.2,2-0.6,3-1c2-0.6,4-1.2,6-2c3-0.9,6-1.9,9-3c3.2-0.9,6.2-2,9.3-3.1
	c0.9-0.2,1.7-0.6,2.4-1.1c2-1.2,3.4-3.1,4-5.4c0.4-1.3,0.7-2.5,1-3.8c0.7-2.1,1.3-4.3,1.8-6.5c0.4-0.9,0.6-1.9,0.8-2.9
	c0.2-0.6,0.4-1.2,0.5-1.7c0.7-2.4,1.5-4.8,2-7.3c0.6-2,1.2-4,1.8-6c0.1-0.3,0-0.6-0.2-0.8c-1-0.9-1.8-2-2.9-2.8
	c-0.6-0.7-1.3-1.4-2-2l-6.8-6.8c-0.7-0.9-1.5-1.6-2.3-2.4c-2.2-2.3-4.5-4.6-6.8-6.8c-0.7-0.8-1.4-1.6-2.3-2.2
	c-0.1-0.1-0.1-0.2-0.2-0.3c-2.4-2.2-4.7-4.5-6.9-6.9c-0.7-0.8-1.5-1.6-2.3-2.3c-0.8-0.8-1.6-1.5-2.4-2.3c-0.3-0.3-0.7-0.5-1.1-0.3
	c-1.9,0.6-3.8,1.1-5.7,1.6c-0.6,0.2-1.2,0.3-1.8,0.5c-2.4,0.7-4.8,1.3-7.2,2.1c-4.7,1.2-9.3,2.5-14,3.9c-2.7,0.8-4.8,2.9-5.6,5.6
	c-7.1,21.3-14.2,42.7-21.3,64c-1.1,3.4-2.3,6.8-3.4,10.2c-0.1,0.2-0.3,0.4,0,0.6s0.4-0.1,0.5-0.3c0.5-0.5,0.9-1,1.3-1.4l9.6-9.6
	l10.7-10.6c3.5-3.5,7-7,10.5-10.5c0.4-0.3,0.5-0.8,0.2-1.3l0,0c-1.8-3.3-2.6-7-2.1-10.8c0.6-5.4,3.7-10.3,8.3-13.2
	c2.9-1.9,6.4-2.9,9.8-2.9c1.5,0,3,0.2,4.5,0.5c0.2,0.1,0.5,0.2,0.7,0.2c3.7,1.1,7,3.4,9.4,6.5c1.4,1.9,2.5,4.1,3.2,6.4
	c0.3,1.6,0.5,3.2,0.5,4.8c-0.1,1.5-0.2,3-0.5,4.4c-0.7,2.8-2.1,5.4-4,7.5l-1.5,1.7c-2.2,1.8-4.7,3.2-7.5,4c-0.2,0-0.3,0-0.5,0.1
	c-2.9,0.8-6,0.7-8.9-0.1c-1.5-0.5-2.9-1.1-4.3-1.8c-0.3-0.2-0.5,0-0.6,0.2l-4.1,4.2c-0.9,0.8-1.7,1.6-2.5,2.5l-6.7,6.7
	c-0.8,0.7-1.6,1.5-2.3,2.3l-7,7l-2.2,2.2l-7.7,7.9c0.2,0,0.3,0,0.5,0l9.6-3.3l1.3-0.4L359.3,310.7z M386.7,260.3
	c-2.4-1.8-7-1.7-9.4,0.2c-1.3,0.7-2.3,1.7-3,3c-1.7,2.8-1.7,6.4,0,9.2c0.7,1.4,1.8,2.5,3.2,3.2c0.1,0.1,0.3,0.2,0.4,0.3
	c4.1,2.2,9.3,0.9,11.9-3c2-3,2.1-6.9,0.1-10C389.1,262,388,261,386.7,260.3L386.7,260.3z M441.9,242.6c0.2-0.1,0.4-0.3,0.5-0.4
	c5.1-5.1,10.3-10.2,15.3-15.4c1.8-1.9,2.6-4.6,2.1-7.2c-0.4-1.9-1.3-3.7-2.8-5c-7-7-14-13.9-21-20.9c-1-1.1-2.2-2-3.5-2.6
	c-3.1-1.3-6.8-0.7-9.2,1.7c-0.1,0.1-0.3,0.2-0.4,0.3c-7.3,7.4-14.7,14.7-22.1,22.1c-0.5,0.5-0.4,0.8,0,1.2c6.5,6.5,13,13,19.5,19.5
	c0.2,0.2,0.4,0.4,0.6,0.5c0.7,0.8,1.5,1.6,2.3,2.3c2.1,2.3,4.3,4.4,6.5,6.5c1.4,1.5,2.9,2.9,4.3,4.4c0.3,0.4,0.5,0.2,0.8-0.1
	c1.4-1.4,2.9-2.9,4.3-4.3C440.2,244.5,441.1,243.6,441.9,242.6L441.9,242.6z"/>
<g class="st1">
	<path class="st2" d="M268.9,454.8v0.4c0,2.4-1.3,4.2-3.3,4.9c2.3,0.4,4,2.4,4,5.3v0.5c0,3.9-2.4,6.4-7.2,6.4h-8.5
		c-0.3,0-0.4-0.2-0.4-0.4v-22.5c0-0.3,0.1-0.4,0.4-0.4h8.3C266.6,448.8,268.9,451.1,268.9,454.8z M257.6,452.4v6h4.1
		c2.4,0,3.3-1.4,3.3-2.9v-0.3c0-1.6-0.9-2.9-3.3-2.9L257.6,452.4L257.6,452.4z M257.6,462.1v6.6h4.3c2.1,0,3.6-0.9,3.6-3v-0.4
		c0-2-1.3-3.1-3.6-3.1h-4.3V462.1z"/>
	<path class="st2" d="M277.8,448.3v23.5c0,0.3-0.2,0.4-0.4,0.4h-3c-0.3,0-0.5-0.2-0.5-0.4v-23.5c0-0.3,0.2-0.4,0.5-0.4h3
		C277.7,447.8,277.8,448,277.8,448.3z"/>
	<path class="st2" d="M282.6,466.6V455c0-0.3,0.2-0.4,0.5-0.4h3c0.3,0,0.4,0.2,0.4,0.4v10.9c0,1.9,0.9,3,2.7,3c1.7,0,3.1-1.2,3.7-3
		V455c0-0.3,0.1-0.4,0.4-0.4h3.1c0.3,0,0.5,0.2,0.5,0.4v16.8c0,0.2-0.2,0.4-0.4,0.4h-3c-0.3,0-0.4-0.2-0.4-0.4v-2.1
		c-1.1,1.6-2.9,2.9-5.3,2.9C284.4,472.6,282.6,470.2,282.6,466.6z"/>
</g>
<g class="st1">
	<path class="st2" d="M305.1,464.6v1c0,2.3,1.2,3.7,3.7,3.7c2.4,0,3.1-0.9,3.7-2.1c0.3-0.4,0.4-0.5,0.8-0.3l2,1
		c0.4,0.2,0.5,0.5,0.3,0.9c-1.1,2.3-3.5,3.7-6.9,3.7c-4.9,0-7.5-2.9-7.5-7v-4.4c0-4,2.5-7,7.4-7c4.7,0,7.1,3,7.1,6.9v2.7
		c0,0.5-0.2,0.8-0.8,0.8L305.1,464.6L305.1,464.6z M305.1,461.1v0.9h7.1v-0.9c0-2.2-1.2-3.6-3.6-3.6
		C306.3,457.5,305.1,458.9,305.1,461.1z"/>
</g>
<g class="st1">
	<path class="st2" d="M325,450.7v4h3.5c0.3,0,0.4,0.2,0.4,0.5v2.3c0,0.3-0.2,0.4-0.4,0.4H325v8.9c0,1.3,0.7,1.9,2.1,1.9h1.3
		c0.3,0,0.4,0.1,0.4,0.4v2.6c0,0.3-0.2,0.4-0.4,0.4h-2c-3.6,0-5.4-1.9-5.4-4.9V458h-2c-0.3,0-0.4-0.1-0.4-0.4v-2.3
		c0-0.3,0.2-0.5,0.4-0.5h2.2v-4c0-0.3,0.2-0.4,0.4-0.4h2.9C324.9,450.2,325,450.4,325,450.7z"/>
	<path class="st2" d="M347.2,461.3v4.2c0,4.2-2.4,7.1-7.5,7.1s-7.5-2.9-7.5-7v-4.2c0-4.2,2.4-7.2,7.5-7.2
		C344.8,454.2,347.2,457.2,347.2,461.3z M336.1,461.5v3.9c0,2.4,1.2,3.7,3.5,3.7c2.4,0,3.6-1.3,3.6-3.7v-3.9c0-2.4-1.2-3.8-3.6-3.8
		C337.3,457.7,336.1,459.2,336.1,461.5z"/>
</g>
<g class="st1">
	<path class="st2" d="M366,461.3v4.2c0,4.2-2.4,7.1-7.5,7.1s-7.5-2.9-7.5-7v-4.2c0-4.2,2.4-7.2,7.5-7.2
		C363.6,454.2,366,457.2,366,461.3z M354.9,461.5v3.9c0,2.4,1.2,3.7,3.5,3.7c2.4,0,3.6-1.3,3.6-3.7v-3.9c0-2.4-1.2-3.8-3.6-3.8
		C356.1,457.7,354.9,459.2,354.9,461.5z"/>
</g>
<g class="st1">
	<path class="st2" d="M375.2,450.7v4h3.5c0.3,0,0.4,0.2,0.4,0.5v2.3c0,0.3-0.2,0.4-0.4,0.4h-3.5v8.9c0,1.3,0.7,1.9,2.1,1.9h1.3
		c0.3,0,0.4,0.1,0.4,0.4v2.6c0,0.3-0.2,0.4-0.4,0.4h-2c-3.6,0-5.4-1.9-5.4-4.9V458H369c-0.3,0-0.4-0.1-0.4-0.4v-2.3
		c0-0.3,0.2-0.5,0.4-0.5h2.2v-4c0-0.3,0.2-0.4,0.4-0.4h2.9C375,450.2,375.2,450.4,375.2,450.7z"/>
	<path class="st2" d="M386.8,448.3v8.9c1.1-1.6,2.8-2.9,5.2-2.9c3.4,0,5.2,2.5,5.2,6v11.5c0,0.4-0.2,0.4-0.4,0.4h-3
		c-0.3,0-0.5-0.2-0.5-0.4V461c0-1.9-0.9-3-2.7-3c-1.7,0-3.1,1.2-3.8,3v10.8c0,0.3-0.2,0.4-0.4,0.4h-3c-0.3,0-0.5-0.2-0.5-0.4v-23.5
		c0-0.3,0.2-0.4,0.5-0.4h3C386.6,447.9,386.8,448,386.8,448.3z"/>
</g>
<g class="st1">
	<path class="st2" d="M426,456.1v1.5c0,4.4-2.6,7.3-7.6,7.3h-3.5v7c0,0.3-0.2,0.4-0.5,0.4h-3.2c-0.3,0-0.4-0.2-0.4-0.4v-22.6
		c0-0.2,0.2-0.4,0.4-0.4h7.1C423.5,448.8,426,451.7,426,456.1z M414.9,452.5v8.6h3.1c2.9,0,3.9-1.3,3.9-3.8v-0.9
		c0-2.5-1-3.8-3.9-3.8h-3.1V452.5z"/>
</g>
<g class="st1">
	<path class="st2" d="M439.6,454.8v2.8c0,0.4-0.1,0.5-0.5,0.5h-0.4c-2.6,0-4.1,1.3-4.8,3.3v10.4c0,0.3-0.2,0.4-0.4,0.4h-3.2
		c-0.2,0-0.4-0.1-0.4-0.4V455c0-0.3,0.2-0.4,0.4-0.4h2.9c0.3,0,0.4,0.2,0.4,0.4v2.5c0.9-1.6,2.6-3.2,5.3-3.2
		C439.5,454.4,439.6,454.5,439.6,454.8z"/>
</g>
<g class="st1">
	<path class="st2" d="M456.8,461.3v4.2c0,4.2-2.4,7.1-7.5,7.1s-7.5-2.9-7.5-7v-4.2c0-4.2,2.4-7.2,7.5-7.2
		C454.4,454.2,456.8,457.2,456.8,461.3z M445.8,461.5v3.9c0,2.4,1.2,3.7,3.5,3.7c2.4,0,3.6-1.3,3.6-3.7v-3.9c0-2.4-1.2-3.8-3.6-3.8
		C447,457.7,445.8,459.2,445.8,461.5z"/>
	<path class="st2" d="M475.8,473.5c0,3-2.2,5.5-8.3,5.5c-5.5,0-7.6-1.9-7.6-4.7c0-1.5,0.9-2.9,2.7-3.7c-0.8-0.6-1.2-1.6-1.2-2.3
		c0-1.1,0.6-2,1.8-2.6c-1.8-1.1-2.8-2.8-2.8-5c0-3.5,2.2-6.1,6.9-6.1h7.9c0.2,0,0.4,0.2,0.4,0.4v2.2c0,0.3-0.2,0.4-0.4,0.4h-2.8
		c0.9,0.8,1.6,2,1.6,3.6c0,3-2.1,5.4-6.6,5.4h-1.1c-1.1,0-1.5,0.4-1.5,1.1c0,0.5,0.5,1,1.5,1h3.6
		C474.1,468.7,475.8,470.7,475.8,473.5z M472,473.8c0-1-0.6-2-2.7-2h-3.2c-1.9,0-2.6,1-2.6,2c0,1.5,1.2,2.4,4.2,2.4
		C470.7,476.3,472,475.2,472,473.8z M464.1,460.7c0,1.9,1.1,3.2,3.3,3.2c2,0,3.2-1.2,3.2-3.2c0-1.9-1.1-3.2-3.2-3.2
		C465.2,457.6,464.1,458.7,464.1,460.7z"/>
</g>
<g class="st1">
	<path class="st2" d="M488.9,454.8v2.8c0,0.4-0.1,0.5-0.5,0.5H488c-2.6,0-4.1,1.3-4.8,3.3v10.4c0,0.3-0.2,0.4-0.4,0.4h-3.2
		c-0.2,0-0.4-0.1-0.4-0.4V455c0-0.3,0.2-0.4,0.4-0.4h2.9c0.3,0,0.4,0.2,0.4,0.4v2.5c0.9-1.6,2.6-3.2,5.3-3.2
		C488.8,454.4,488.9,454.5,488.9,454.8z"/>
</g>
<g class="st1">
	<path class="st2" d="M495,464.6v1c0,2.3,1.2,3.7,3.7,3.7c2.4,0,3.1-0.9,3.7-2.1c0.3-0.4,0.4-0.5,0.8-0.3l2,1
		c0.4,0.2,0.5,0.5,0.3,0.9c-1.1,2.3-3.5,3.7-6.9,3.7c-4.9,0-7.5-2.9-7.5-7v-4.4c0-4,2.5-7,7.4-7c4.7,0,7.1,3,7.1,6.9v2.7
		c0,0.5-0.2,0.8-0.8,0.8L495,464.6L495,464.6z M495,461.1v0.9h7.1v-0.9c0-2.2-1.2-3.6-3.6-3.6C496.2,457.5,495,458.9,495,461.1z"/>
	<path class="st2" d="M522.7,458.4c0.1,0.3,0,0.5-0.3,0.6l-2.3,0.8c-0.4,0.1-0.5,0-0.6-0.3c-0.5-1.4-1.7-2.1-3.4-2.1
		c-1.8,0-2.8,0.7-2.8,1.9c0,1.1,0.7,1.5,4.1,2.5c4,1.1,5.6,2.7,5.6,5.5c0,3.3-2.7,5.4-6.8,5.4c-3.7,0-6.4-1.5-7.2-4.2
		c-0.1-0.4,0-0.5,0.4-0.7l2.1-1c0.4-0.1,0.6-0.1,0.7,0.4c0.5,1.5,2,2.4,3.9,2.4c2,0,3.1-0.8,3.1-2s-1-1.8-4.3-2.7
		c-3.8-1.1-5.4-2.6-5.4-5.3c0-3.2,2.6-5.3,6.5-5.3C519.4,454.2,521.9,455.8,522.7,458.4z"/>
	<path class="st2" d="M539.7,458.4c0.1,0.3,0,0.5-0.3,0.6l-2.3,0.8c-0.4,0.1-0.5,0-0.6-0.3c-0.5-1.4-1.7-2.1-3.4-2.1
		c-1.8,0-2.8,0.7-2.8,1.9c0,1.1,0.7,1.5,4.1,2.5c4,1.1,5.6,2.7,5.6,5.5c0,3.3-2.7,5.4-6.8,5.4c-3.7,0-6.4-1.5-7.2-4.2
		c-0.1-0.4,0-0.5,0.4-0.7l2.1-1c0.4-0.1,0.6-0.1,0.7,0.4c0.5,1.5,2,2.4,3.9,2.4c2,0,3.1-0.8,3.1-2s-1-1.8-4.3-2.7
		c-3.8-1.1-5.4-2.6-5.4-5.3c0-3.2,2.6-5.3,6.5-5.3C536.3,454.2,538.8,455.8,539.7,458.4z"/>
</g>
<g class="st1">
	<path class="st2" d="M289.4,807c0.1,0.4,0,0.6-0.4,0.7l-2.8,0.8c-0.4,0.1-0.6,0-0.7-0.4c-0.7-2-2-3.1-4.4-3.1c-3.3,0-4.8,1.9-4.8,5
		v6.6c0,3.1,1.5,5,4.8,5c2.9,0,4.6-1.3,4.6-4.3v-1.6h-4c-0.3,0-0.4-0.1-0.4-0.4v-2.6c0-0.3,0.2-0.5,0.4-0.5h7.4
		c0.3,0,0.5,0.2,0.5,0.4v5c0,4.6-3.4,7.8-8.5,7.8c-5.9,0-8.9-3.4-8.9-8.6v-7c0-5.2,3.1-8.6,8.9-8.6C286,801.4,288.4,803.9,289.4,807
		z"/>
	<path class="st2" d="M298.1,801.2v23.5c0,0.3-0.2,0.4-0.4,0.4h-3c-0.3,0-0.5-0.2-0.5-0.4v-23.5c0-0.3,0.2-0.4,0.5-0.4h3
		C298,800.7,298.1,800.9,298.1,801.2z"/>
	<path class="st2" d="M317.5,814.2v4.2c0,4.2-2.4,7.1-7.5,7.1s-7.5-2.9-7.5-7v-4.2c0-4.2,2.4-7.2,7.5-7.2S317.5,810.1,317.5,814.2z
		 M306.4,814.4v3.9c0,2.4,1.2,3.7,3.5,3.7c2.4,0,3.6-1.3,3.6-3.7v-3.9c0-2.4-1.2-3.8-3.6-3.8C307.6,810.6,306.4,812,306.4,814.4z"/>
	<path class="st2" d="M325.7,801.2v8.6c0.7-1.2,2.4-2.6,5-2.6c3.6,0,6,2.8,6,6.8v4.7c0,4.1-2.4,6.8-6.2,6.8c-2.5,0-4.3-1.3-5-2.6
		v1.8c0,0.3-0.2,0.4-0.4,0.4h-3c-0.3,0-0.4-0.2-0.4-0.4v-23.5c0-0.2,0.2-0.4,0.4-0.4h3.1C325.6,800.8,325.7,800.9,325.7,801.2z
		 M325.7,814.6v3.6c0,2.5,1.6,3.8,3.6,3.8c2.2,0,3.4-1.3,3.4-3.8v-3.6c0-2.5-1.2-3.9-3.4-3.9C327.4,810.6,325.7,812.1,325.7,814.6z"
		/>
	<path class="st2" d="M354.4,812.9v11.7c0,0.3-0.2,0.4-0.4,0.4h-2.8c-0.3,0-0.4-0.2-0.4-0.4v-2.1c-1.1,1.8-2.9,2.9-5.1,2.9
		c-3.3,0-5.4-2.2-5.4-5.3c0-3.2,2.1-5.1,6.7-5.4c1.2-0.1,2.4-0.1,3.6,0v-1.6c0-2-1.1-2.8-2.9-2.8s-2.5,0.7-2.9,1.9
		c-0.1,0.4-0.3,0.4-0.6,0.3l-2.8-0.7c-0.3-0.1-0.4-0.3-0.3-0.5c0.5-2.5,2.8-4.2,6.8-4.2C351.9,807.1,354.4,809.1,354.4,812.9z
		 M350.5,819.4v-2.2c-1.1,0-2.2,0-3.3,0.1c-2.1,0.2-3.3,0.9-3.3,2.6c0,1.4,1,2.4,2.7,2.4C348.5,822.3,349.8,821.2,350.5,819.4z"/>
	<path class="st2" d="M363.1,801.2v23.5c0,0.3-0.2,0.4-0.4,0.4h-3c-0.3,0-0.5-0.2-0.5-0.4v-23.5c0-0.3,0.2-0.4,0.5-0.4h3
		C363,800.7,363.1,800.9,363.1,801.2z"/>
</g>
<g class="st1">
	<path class="st2" d="M392,808.9v1.5c0,4.4-2.6,7.3-7.6,7.3h-3.5v7c0,0.3-0.2,0.4-0.5,0.4h-3.2c-0.3,0-0.4-0.2-0.4-0.4v-22.6
		c0-0.2,0.2-0.4,0.4-0.4h7.1C389.5,801.7,392,804.6,392,808.9z M380.9,805.4v8.6h3.1c2.9,0,3.9-1.3,3.9-3.8v-0.9
		c0-2.5-1-3.8-3.9-3.8L380.9,805.4L380.9,805.4z"/>
</g>
<g class="st1">
	<path class="st2" d="M408.9,812.9v11.7c0,0.3-0.2,0.4-0.4,0.4h-2.8c-0.3,0-0.4-0.2-0.4-0.4v-2.1c-1.1,1.8-2.9,2.9-5.1,2.9
		c-3.3,0-5.4-2.2-5.4-5.3c0-3.2,2.1-5.1,6.7-5.4c1.2-0.1,2.4-0.1,3.6,0v-1.6c0-2-1.1-2.8-2.9-2.8s-2.5,0.7-2.9,1.9
		c-0.1,0.4-0.3,0.4-0.6,0.3l-2.8-0.7c-0.3-0.1-0.4-0.3-0.3-0.5c0.5-2.5,2.8-4.2,6.8-4.2C406.4,807.1,408.9,809.1,408.9,812.9z
		 M405,819.4v-2.2c-1.1,0-2.2,0-3.3,0.1c-2.1,0.2-3.3,0.9-3.3,2.6c0,1.4,1,2.4,2.7,2.4C403,822.3,404.3,821.2,405,819.4z"/>
	<path class="st2" d="M417.6,813.8v10.9c0,0.3-0.2,0.4-0.4,0.4h-3c-0.3,0-0.5-0.2-0.5-0.4v-16.8c0-0.2,0.1-0.4,0.4-0.4h3
		c0.3,0,0.4,0.2,0.4,0.4v2.1c1.1-1.6,2.9-2.9,5.3-2.9c3.4,0,5.2,2.4,5.2,6v11.6c0,0.3-0.2,0.4-0.4,0.4h-3c-0.3,0-0.5-0.2-0.5-0.4
		v-10.9c0-1.9-0.9-3.1-2.7-3.1C419.7,810.7,418.3,812,417.6,813.8z"/>
	<path class="st2" d="M432.3,818.7V814c0-4.1,2.4-6.8,6-6.8c2.6,0,4.3,1.3,5,2.6v-8.6c0-0.2,0.1-0.4,0.4-0.4h3.1
		c0.3,0,0.4,0.2,0.4,0.4v23.5c0,0.3-0.2,0.4-0.4,0.4h-3c-0.3,0-0.4-0.2-0.4-0.4v-1.8c-0.7,1.2-2.5,2.6-5,2.6
		C434.7,825.5,432.3,822.8,432.3,818.7z M443.3,818.2v-3.6c0-2.5-1.6-3.9-3.6-3.9c-2.2,0-3.4,1.5-3.4,3.9v3.6c0,2.5,1.2,3.8,3.4,3.8
		C441.7,822,443.3,820.7,443.3,818.2z"/>
	<path class="st2" d="M455.4,817.5v1c0,2.3,1.2,3.7,3.7,3.7c2.4,0,3.1-0.9,3.7-2.1c0.3-0.4,0.4-0.5,0.8-0.3l2,1
		c0.4,0.2,0.5,0.5,0.3,0.9c-1.1,2.3-3.5,3.7-6.9,3.7c-4.9,0-7.5-2.9-7.5-7V814c0-4,2.5-7,7.4-7c4.7,0,7.1,3,7.1,6.9v2.7
		c0,0.5-0.2,0.8-0.8,0.8L455.4,817.5L455.4,817.5z M455.4,814v0.9h7.1V814c0-2.2-1.2-3.6-3.6-3.6C456.7,810.3,455.4,811.8,455.4,814
		z"/>
	<path class="st2" d="M479.1,807.1c2.3,0,3.7,1.4,4.4,3.2c1.3-1.9,3-3.2,5.1-3.2c3,0,4.8,2.3,4.8,5.8v11.8c0,0.3-0.2,0.4-0.5,0.4
		H490c-0.3,0-0.5-0.2-0.5-0.4v-11c0-1.9-0.8-2.9-2.3-2.9c-1.4,0-2.6,1.1-3.3,2.9v11c0,0.3-0.2,0.4-0.4,0.4h-3.1
		c-0.3,0-0.4-0.2-0.4-0.4v-11c0-1.9-0.8-2.9-2.2-2.9c-1.5,0-2.7,1.3-3.3,3v10.9c0,0.3-0.1,0.4-0.4,0.4H471c-0.3,0-0.4-0.2-0.4-0.4
		v-16.8c0-0.2,0.1-0.4,0.4-0.4h3c0.3,0,0.4,0.2,0.4,0.4v2.1C475.3,808.5,476.9,807.1,479.1,807.1z"/>
	<path class="st2" d="M502.1,801.3v3c0,0.4-0.2,0.6-0.6,0.6h-2.8c-0.4,0-0.6-0.2-0.6-0.6v-3c0-0.4,0.2-0.6,0.6-0.6h2.8
		C501.9,800.8,502.1,801,502.1,801.3z M502.1,807.9v16.8c0,0.3-0.2,0.4-0.4,0.4h-3c-0.3,0-0.5-0.2-0.5-0.4v-16.8
		c0-0.3,0.2-0.4,0.5-0.4h3C502,807.5,502.1,807.6,502.1,807.9z"/>
	<path class="st2" d="M520.4,812.2c0,0.3,0,0.5-0.4,0.6l-2.4,0.7c-0.5,0.1-0.6,0.1-0.7-0.3c-0.4-1.1-0.9-2.5-3.2-2.5
		c-2.2,0-3.3,1.4-3.3,3.8v3.9c0,2.4,1.2,3.7,3.3,3.7s2.8-1,3.3-2.4c0.1-0.4,0.3-0.5,0.7-0.3l2.5,0.9c0.4,0.1,0.4,0.4,0.3,0.7
		c-0.5,2.5-2.9,4.7-7,4.7c-4.4,0-7-2.9-7-7v-4.3c0-4.1,2.6-7.1,7-7.1C517.3,807.1,519.9,809,520.4,812.2z"/>
</g>
<path class="st3" d="M391.1,574.2c0-9.8,0-19.6,0-29.4c-0.2-1.7,0.4-3.4,1.5-4.7c1.8-1.8,4.1-1.9,6.7-0.1c9.5,6.3,18.9,12.7,28.3,19
	l17,11.4c4.6,3.1,4.7,6.4,0.2,9.6c-14.1,9.8-28.3,19.7-42.4,29.5c-1.3,0.9-1.5,1.9-1.8,3.3c-0.8,5.1,1.4,7.9,5.5,10.7
	c13,8.7,25.7,18,38.5,27c4.8,3.3,4.7,6.7-0.2,9.8c-14.9,9.5-29.8,18.9-44.8,28.4c-1.9,1.2-3.7,2.2-6,0.9s-2.7-3.4-2.7-5.7
	c0-19.1,0-38.2,0-57.3c0-1.8-3.1-5.4-4.9-5.6c-0.8-0.1-1.2,0.6-1.8,1c-10.8,7.5-21.6,15-32.4,22.5c-2.8,2-4.8,1.9-6.8-0.2
	c-1.8-1.6-1.9-4.4-0.3-6.2l0,0c0.6-0.7,1.3-1.3,2.1-1.8c9.6-6.7,19.2-13.3,28.8-20c1.5-1,1.8-1.5,0.1-2.7
	c-9.6-6.7-19.1-13.5-28.7-20.2c-1-0.7-2-1.5-2.7-2.5c-1.2-1.8-0.9-4.2,0.6-5.7c1.6-1.8,4.3-2.1,6.3-0.6c3.9,2.7,7.8,5.5,11.7,8.2
	c7.1,5,14.2,10,21.3,15.1c0.9,0.9,2.4,0.9,3.4,0.1c2.7-1.5,3.4-3.5,3.4-6.5C391,592.5,391.1,583.4,391.1,574.2z M400.8,599.1
	l34.1-23.7l-34.1-22.9V599.1z M400.9,631.4v45.4l33.9-21.5L400.9,631.4z"/>
<g>
	<path class="st3" d="M339.5,1039.7c-2.6,0-5.1-1-7-2.8c-4-3.9-4-10.4-0.1-14.4l0,0c1.7-1.7,3.4-3.3,5-5c7.9-7.8,8-20.5,0.3-28.4
		c-3.9-4-9.3-6.2-14.9-6c-2.6,0-5.3,0.1-8,0c-6-0.2-9.3-5.7-9.4-9.6c-0.2-5.6,4.3-10.3,9.9-10.5c0.2,0,0.4,0,0.6,0
		c3.2,0.2,6.3,0.1,9.5-0.1c7.9-0.9,13.5-5.1,16.4-12.4c3.2-8.1,1.6-15.5-4.5-21.8c-1.6-1.7-3.4-3.3-5-5.1c-2.6-2.5-3.6-6.3-2.5-9.8
		c0.9-3.6,3.7-6.3,7.3-7c3.4-0.9,7,0.1,9.4,2.6c2.4,2.3,4.6,4.9,7.3,7c10.8,8.4,27.2,3.2,31.2-9.9c0.2-0.5,0.3-1,0.4-1.5
		c0.9-3.6,0.4-7.3,0.5-10.9c0-1.6,0.2-3.2,0.6-4.7c1.2-3.3,4.1-5.8,7.5-6.5c1.5-0.2,3-0.2,4.5,0c3.4,0.9,6.2,3.6,7.2,7
		c0.3,1.4,0.5,2.8,0.5,4.2c0,3.6-0.4,7.3,0.4,10.9c1,4.9,4,9.2,8.2,11.9c1.1,0.9,2.4,1.5,3.7,2c3.6,1.6,7.6,2,11.4,1.2
		c2.9-0.4,5.7-1.6,8-3.5c1.3-0.9,2.4-1.9,3.4-3c1-1,2.1-1.9,3-3c2.1-2.5,5.2-4,8.4-4.1c0.4,0.1,0.7,0.2,1.1,0.2
		c2.8,0.2,5.3,1.7,7,3.9c1.2,1.8,1.9,3.8,2,6c-0.2,3.2-1.6,6.1-4.1,8.1c-1,0.9-2,2-3,3c-1.3,1-2.4,2.3-3.3,3.7
		c-1.7,2.2-2.9,4.9-3.3,7.7c-0.8,3.8-0.4,7.8,1.1,11.4c0.5,1.3,1.1,2.6,2,3.7c1.2,2,2.8,3.7,4.6,5c1.7,1.3,3.6,2.3,5.7,2.8
		c0.4,0.2,0.8,0.4,1.3,0.4c0.5,0.3,1.1,0.4,1.7,0.4c3.2,0.3,6.5,0.3,9.7,0.2c1.3,0,2.6,0.1,3.9,0.3c3.3,0.8,6,3.3,7.1,6.5
		c0.3,1.1,0.4,2.2,0.4,3.3c0,1-0.1,1.9-0.3,2.8c-0.1,0.2-0.2,0.3-0.3,0.5c-1.1,3.1-3.6,5.5-6.8,6.3c-1.3,0.3-2.7,0.4-4,0.4h-3.7
		c-2.6-0.1-5.2,0.1-7.7,0.7c-0.3,0.1-0.6,0-0.8,0.3c-0.2,0-0.3,0-0.5,0.1c-4.2,1.3-7.8,4.1-10.2,7.8c-0.8,1-1.5,2.2-1.9,3.5
		c-1.6,3.6-2.1,7.7-1.3,11.6c0.4,2.8,1.5,5.4,3.3,7.6c1,1.4,2.1,2.6,3.4,3.7c1,1.3,2.1,2.4,3.3,3.5c2.2,1.9,3.6,4.7,3.7,7.7
		c0,5.6-4.4,10.1-10,10.2c-3.2,0-6.2-1.4-8.3-3.9c-0.9-1-1.9-1.9-2.9-2.8c-0.5-0.9-1.2-1.7-2.1-2.3c-0.5-0.7-1.2-1.2-2.1-1.4
		c-2.2-1.6-4.7-2.8-7.4-3.2c-1.1-0.3-2.2-0.4-3.3-0.3c-2.7-0.1-5.4,0.4-7.9,1.5c-1.3,0.4-2.6,1-3.7,1.9c-3.9,2.5-6.7,6.3-8.1,10.7
		c-1.3,4.1-0.8,8.3-0.8,12.4c0.1,2.1-0.4,4.2-1.4,6.1c-1.7,3.2-5.1,5.2-8.8,5.1c-0.8,0-1.6,0-2.4,0c-0.2-0.4-0.6-0.3-0.9-0.5
		c-3.1-1.1-5.5-3.6-6.4-6.8c-0.3-1.3-0.4-2.6-0.4-3.9c0-1.8,0-3.6,0-5.3c0.1-2-0.2-4-0.7-6c0-0.4,0-0.7-0.2-1
		c-0.4-1.3-0.9-2.6-1.6-3.8c-1.5-2.6-3.5-4.9-6-6.6c-1.2-1-2.6-1.7-4-2.2c-3.6-1.5-7.5-1.9-11.4-1.2c-3.8,0.7-7.3,2.5-10.1,5.2
		c-1.6,1.6-3.2,3.1-4.7,4.8C345.4,1038.4,342.5,1039.7,339.5,1039.7z M351.3,928.3l-0.1-0.1c0,0,0,0-0.1,0L351.3,928.3
		c0,0.2,0.1,0.4,0.1,0.6c1.6,3.2,2.7,6.6,3.2,10.2c0.4,3.8,0.1,7.6-0.8,11.3c-1.2,4.7-3.5,9.1-6.5,12.8c-2.2,2.7-4.9,4.9-7.9,6.8
		c-1.1,0.6-2.3,1.2-3.4,1.7s-2.3,0.9-3.7,1.4l1.3,0.4c1.9,0.7,3.8,1.5,5.6,2.5c3.7,2.3,6.9,5.2,9.5,8.7l1.8,2.9
		c1.3,2.6,2.4,5.3,3.2,8.1c1.9,7.3,1,15-2.4,21.6c-0.1,0.2-0.3,0.4-0.1,0.7h-0.1l0,0l0.1-0.1c4.9-2.5,10.2-3.7,15.7-3.5
		c2.2,0.1,4.3,0.4,6.4,0.8c3,0.9,5.9,2.1,8.7,3.6l2.7,1.8c0.4,0.4,0.8,0.7,1.2,1.1c4.1,3.4,7.2,7.7,9.2,12.6c0.3,0.8,0.6,1.6,1,2.6
		c2.4-7.9,7.8-14.6,15.1-18.6c2.4-1.2,4.9-2.2,7.4-3c2-0.4,4.1-0.7,6.2-0.9c5.6-0.2,11.1,1,16.1,3.5h0.1l0,0h-0.1
		c0.2-0.4-0.2-0.7-0.3-1c-3.1-6.1-4-13.1-2.5-19.8c2.6-11.5,9.2-19.7,20.5-23.7c0.3-0.1,0.8-0.1,1-0.5c-0.3-0.1-0.5-0.2-0.8-0.3
		c-5.1-1.6-9.7-4.6-13.2-8.6c-7.1-8.2-9.7-17.7-7.4-28.4c0.7-2.6,1.6-5,2.7-7.4l0.1-0.1c-0.1-0.1-0.2-0.1-0.2,0l-0.6,0.2
		c-10.5,4.8-20.7,4.4-30.6-1.6c-4.2-2.6-7.8-6.1-10.3-10.4c-1.4-2.3-2.4-4.8-3.3-7.3c-0.4,1-0.7,1.8-1,2.6
		c-2.2,5.5-5.9,10.2-10.6,13.8l-3.5,2.2c-2.4,1.2-4.9,2.2-7.5,3c-3.7,1-7.5,0.9-11.3,0.8c-1.2-0.3-2.5-0.5-3.7-0.8
		C356,930.1,353.6,929.3,351.3,928.3z"/>
	<path class="st3" d="M440.9,1018h0.1l0,0H440.9L440.9,1018z"/>
	<path class="st3" d="M351.3,1018L351.3,1018L351.3,1018L351.3,1018L351.3,1018z"/>
	<path class="st3" d="M351.3,928.4l-0.1-0.1C351.2,928.3,351.3,928.2,351.3,928.4L351.3,928.4L351.3,928.4z"/>
	<path class="st3" d="M440.8,928.3c0.1-0.1,0.1-0.1,0.2,0l-0.1,0.1L440.8,928.3z"/>
	<path class="st3" d="M396.1,949.1c2.6,2.4,4.4,5.5,5.3,9c2,9.2-3.8,18.2-13,20.2c-0.4,0.1-0.8,0.2-1.3,0.2
		c-0.8,0.1-1.6,0.2-2.4,0.2c-3.8,0-7.5-1.4-10.5-3.8c-0.1-0.1-0.3-0.2-0.5-0.2c-0.7-0.6-1.4-1.3-1.9-2c-2.5-3.1-3.9-7-4-11
		c0-3.3,0.9-6.5,2.7-9.2c0.5-0.7,1-1.3,1.4-1.9l1.6-1.7c3.1-2.7,7.2-4.2,11.3-4.2c1.1,0.1,2.1,0.2,3.2,0.4
		C391.1,945.8,393.8,947.1,396.1,949.1z M384.8,956.2c-3.1,0-5.6,2.6-5.6,5.7c0,3.1,2.6,5.6,5.7,5.6s5.6-2.6,5.6-5.7
		C390.4,958.7,387.9,956.2,384.8,956.2L384.8,956.2z"/>
	<path class="st3" d="M407.8,992.4c-1.3-2.9,0-6.2,2.9-7.5c0.1,0,0.2-0.1,0.3-0.1c2-0.8,4.4-0.3,5.9,1.3c1.7,1.5,2.2,4,1.3,6.1
		l-0.2,0.5c-0.7,1.2-1.7,2.1-2.9,2.7c-1.3,0.5-2.7,0.5-4.1,0.2C409.8,994.9,408.6,993.8,407.8,992.4z"/>
</g>
</svg>
