<?xml version="1.0" encoding="utf-8"?>
<!-- Generator: Adobe Illustrator 24.1.1, SVG Export Plug-In . SVG Version: 6.00 Build 0)  -->
<svg version="1.1" id="Layer_1" xmlns="http://www.w3.org/2000/svg" xmlns:xlink="http://www.w3.org/1999/xlink" x="0px" y="0px"
	 viewBox="0 0 792 812" style="enable-background:new 0 0 792 812;" xml:space="preserve">
<style type="text/css">
	.st0{fill:#FFFEFF;}
	.st1{enable-background:new    ;}
	.st2{fill:#2E3442;}
	.st3{fill:#E2AC42;stroke:#E2AC42;stroke-width:5;stroke-miterlimit:10;}
	.st4{fill:#E2AC42;}
</style>
<rect x="-0.3" y="-102.7" class="st0" width="792" height="1224"/>
<g class="st1">
	<path class="st2" d="M124.8,60.3v2.6c0,0.3-0.1,0.4-0.4,0.4h-8.3v6.4h7.4c0.3,0,0.4,0.1,0.4,0.4v2.5c0,0.3-0.1,0.4-0.4,0.4h-7.4
		v8.4c0,0.3-0.1,0.4-0.4,0.4h-3c-0.3,0-0.4-0.2-0.4-0.4V60.3c0-0.3,0.1-0.4,0.4-0.4h11.8C124.7,59.9,124.8,60,124.8,60.3z"/>
	<path class="st2" d="M132.2,59.5v2.9c0,0.4-0.2,0.5-0.5,0.5h-2.6c-0.4,0-0.6-0.2-0.6-0.5v-2.9c0-0.3,0.2-0.5,0.6-0.5h2.6
		C132,59,132.2,59.2,132.2,59.5z M132.2,65.7v15.7c0,0.3-0.1,0.4-0.4,0.4H129c-0.3,0-0.5-0.2-0.5-0.4V65.7c0-0.3,0.1-0.4,0.5-0.4
		h2.8C132.1,65.3,132.2,65.4,132.2,65.7z"/>
	<path class="st2" d="M140.5,71.2v10.2c0,0.3-0.1,0.4-0.4,0.4h-2.8c-0.3,0-0.5-0.2-0.5-0.4V65.7c0-0.2,0.1-0.4,0.4-0.4h2.8
		c0.3,0,0.4,0.2,0.4,0.4v2c1-1.5,2.7-2.7,5-2.7c3.1,0,4.9,2.3,4.9,5.6v10.8c0,0.3-0.2,0.4-0.4,0.4H147c-0.3,0-0.5-0.2-0.5-0.4V71.2
		c0-1.8-0.8-2.9-2.5-2.9C142.4,68.4,141.1,69.5,140.5,71.2z"/>
	<path class="st2" d="M167.1,70.4v11c0,0.3-0.1,0.4-0.4,0.4h-2.6c-0.3,0-0.4-0.2-0.4-0.4v-2c-1,1.7-2.7,2.7-4.7,2.7
		c-3.1,0-5.1-2-5.1-5s2-4.7,6.3-5c1.2-0.1,2.3-0.1,3.4,0v-1.5c0-1.9-1-2.6-2.7-2.6s-2.3,0.6-2.8,1.8c-0.1,0.3-0.2,0.4-0.6,0.3
		l-2.6-0.7c-0.3-0.1-0.4-0.2-0.3-0.5c0.5-2.3,2.6-4,6.4-4C164.8,65,167.1,66.8,167.1,70.4z M163.5,76.5v-2c-1,0-2.1,0-3.1,0.1
		c-1.9,0.2-3.1,0.9-3.1,2.4c0,1.3,0.9,2.2,2.5,2.2C161.5,79.2,162.8,78.2,163.5,76.5z"/>
	<path class="st2" d="M175.3,59.4v22c0,0.3-0.1,0.4-0.4,0.4H172c-0.3,0-0.5-0.2-0.5-0.4v-22c0-0.3,0.1-0.4,0.5-0.4h2.8
		C175.1,59,175.3,59.1,175.3,59.4z"/>
	<path class="st2" d="M183.6,59.5v2.9c0,0.4-0.2,0.5-0.5,0.5h-2.6c-0.4,0-0.6-0.2-0.6-0.5v-2.9c0-0.3,0.2-0.5,0.6-0.5h2.6
		C183.4,59,183.6,59.2,183.6,59.5z M183.6,65.7v15.7c0,0.3-0.1,0.4-0.4,0.4h-2.8c-0.3,0-0.5-0.2-0.5-0.4V65.7c0-0.3,0.1-0.4,0.5-0.4
		h2.8C183.4,65.3,183.6,65.4,183.6,65.7z"/>
</g>
<g class="st1">
	<path class="st2" d="M199.5,65.7l0.2,1.7c0,0.3,0,0.5-0.2,0.8l-7.6,10.5h7.4c0.2,0,0.4,0.1,0.4,0.3v2.5c0,0.2-0.2,0.4-0.4,0.4
		h-11.4c-0.3,0-0.5-0.1-0.5-0.4l-0.2-1.7c-0.1-0.3,0-0.5,0.1-0.8l7.6-10.5h-7.2c-0.2,0-0.4-0.2-0.4-0.4v-2.4c0-0.2,0.1-0.4,0.4-0.4
		H199C199.3,65.3,199.5,65.4,199.5,65.7z"/>
</g>
<g class="st1">
	<path class="st2" d="M206.4,74.7v1c0,2.1,1.1,3.5,3.5,3.5c2.2,0,2.9-0.9,3.5-2c0.2-0.4,0.4-0.5,0.8-0.3l1.9,1
		c0.4,0.2,0.5,0.5,0.3,0.8c-1,2.2-3.3,3.5-6.4,3.5c-4.6,0-7-2.7-7-6.6v-4.1c0-3.8,2.3-6.6,7-6.6c4.4,0,6.7,2.8,6.7,6.5V74
		c0,0.5-0.2,0.7-0.8,0.7H206.4z M206.4,71.4v0.9h6.7v-0.9c0-2-1.1-3.4-3.3-3.4S206.4,69.3,206.4,71.4z"/>
	<path class="st2" d="M220,75.9v-4.4c0-3.8,2.3-6.4,5.6-6.4c2.4,0,4,1.3,4.7,2.4v-8c0-0.2,0.1-0.4,0.4-0.4h2.9
		c0.2,0,0.4,0.2,0.4,0.4v22.1c0,0.2-0.1,0.4-0.4,0.4h-2.8c-0.2,0-0.4-0.2-0.4-0.4v-1.7c-0.7,1.2-2.3,2.4-4.7,2.4
		C222.2,82.2,220,79.7,220,75.9z M230.3,75.3V72c0-2.3-1.5-3.7-3.4-3.7c-2.1,0-3.2,1.4-3.2,3.7v3.4c0,2.3,1.1,3.6,3.2,3.6
		C228.8,78.9,230.3,77.7,230.3,75.3z"/>
</g>
<g class="st1">
	<path class="st2" d="M267.1,60.5v21c0,0.3-0.1,0.4-0.4,0.4H264c-0.2,0-0.4-0.2-0.4-0.4V69.6c0-1.7,0.1-4.3,0.2-5.9h-0.1L259,81.3
		c-0.1,0.4-0.3,0.5-0.7,0.5h-2.6c-0.4,0-0.6-0.2-0.7-0.5l-4.9-17.7H250c0.1,1.6,0.3,4.3,0.3,5.9v11.9c0,0.3-0.1,0.4-0.4,0.4h-2.7
		c-0.2,0-0.4-0.2-0.4-0.4v-21c0-0.4,0.2-0.6,0.6-0.6h4.4c0.4,0,0.6,0.2,0.7,0.5l3,10.8c0.7,2.5,1.1,4.3,1.5,6.4h0.1
		c0.4-2.2,0.8-4,1.5-6.5l3-10.7c0.1-0.4,0.3-0.6,0.7-0.6h4.3C266.9,59.9,267.1,60.1,267.1,60.5z"/>
</g>
<g class="st1">
	<path class="st2" d="M285.5,71.6v3.9c0,3.9-2.3,6.7-7,6.7s-7-2.7-7-6.6v-3.9c0-3.9,2.3-6.8,7-6.8C283.2,65,285.5,67.8,285.5,71.6z
		 M275.1,71.8v3.6c0,2.2,1.1,3.5,3.3,3.5c2.2,0,3.3-1.3,3.3-3.5v-3.6c0-2.2-1.1-3.6-3.3-3.6C276.2,68.2,275.1,69.6,275.1,71.8z"/>
	<path class="st2" d="M302.1,69.7c0,0.3,0,0.5-0.4,0.5l-2.3,0.6c-0.5,0.1-0.5,0.1-0.7-0.3c-0.3-1-0.8-2.4-3-2.4
		c-2,0-3.1,1.3-3.1,3.6v3.6c0,2.2,1.1,3.5,3.1,3.5c1.9,0,2.6-0.9,3.1-2.3c0.1-0.4,0.3-0.5,0.6-0.3l2.3,0.8c0.4,0.1,0.4,0.3,0.3,0.6
		c-0.5,2.3-2.7,4.4-6.5,4.4c-4.2,0-6.6-2.7-6.6-6.6v-4c0-3.8,2.4-6.7,6.6-6.7C299.2,65,301.6,66.7,302.1,69.7z"/>
	<path class="st2" d="M319.2,81.9H316c-0.3,0-0.4-0.1-0.5-0.4l-3.8-6.9l-2.3,2.6v4.2c0,0.3-0.1,0.4-0.4,0.4h-2.9
		c-0.3,0-0.4-0.2-0.4-0.4v-22c0-0.2,0.1-0.4,0.4-0.4h2.9c0.3,0,0.4,0.2,0.4,0.4v13.3l5.6-7c0.3-0.3,0.5-0.4,0.8-0.4h3
		c0.4,0,0.5,0.4,0.3,0.6l-5,5.8l5.2,9.6C319.6,81.6,319.5,81.9,319.2,81.9z"/>
	<path class="st2" d="M322.4,76.5V65.7c0-0.3,0.2-0.4,0.5-0.4h2.9c0.3,0,0.4,0.2,0.4,0.4v10.2c0,1.8,0.9,2.9,2.5,2.9
		s2.9-1.2,3.5-2.9V65.7c0-0.3,0.1-0.4,0.4-0.4h2.9c0.3,0,0.4,0.2,0.4,0.4v15.8c0,0.2-0.1,0.4-0.4,0.4h-2.8c-0.3,0-0.4-0.2-0.4-0.4
		v-2c-1,1.5-2.7,2.7-5,2.7C324.1,82.2,322.4,79.9,322.4,76.5z"/>
	<path class="st2" d="M340.9,87.9c-0.2,0-0.4-0.2-0.4-0.4V65.7c0-0.2,0.1-0.4,0.4-0.4h2.8c0.2,0,0.4,0.2,0.4,0.4v1.7
		c0.7-1.1,2.3-2.4,4.6-2.4c3.6,0,5.8,2.5,5.8,6.4v4.4c0,3.8-2.2,6.4-5.6,6.4c-2.4,0-4-1.2-4.7-2.4v7.7c0,0.2-0.1,0.4-0.4,0.4
		C343.8,87.9,340.9,87.9,340.9,87.9z M350.8,75.2v-3.4c0-2.3-1.1-3.6-3.2-3.6c-1.9,0-3.4,1.3-3.4,3.6v3.4c0,2.4,1.5,3.7,3.4,3.7
		C349.7,78.9,350.8,77.6,350.8,75.2z"/>
	<path class="st2" d="M370.6,68.9c0.1,0.3,0,0.5-0.3,0.6l-2.2,0.8c-0.3,0.1-0.5,0-0.6-0.3c-0.5-1.3-1.6-2-3.2-2
		c-1.7,0-2.7,0.7-2.7,1.8c0,1,0.7,1.4,3.9,2.3c3.8,1,5.2,2.5,5.2,5.1c0,3.1-2.5,5.1-6.4,5.1c-3.5,0-6-1.4-6.8-3.9
		c-0.1-0.3,0-0.5,0.4-0.7l1.9-1c0.4-0.1,0.5-0.1,0.7,0.4c0.4,1.4,1.9,2.2,3.7,2.2c1.9,0,2.9-0.7,2.9-1.9c0-1.1-0.9-1.7-4-2.5
		c-3.6-1-5.1-2.4-5.1-5c0-3,2.4-5,6.1-5C367.5,65,369.8,66.4,370.6,68.9z"/>
</g>
<g class="st1">
	<path class="st2" d="M396,71.6v3.9c0,3.9-2.3,6.7-7,6.7s-7-2.7-7-6.6v-3.9c0-3.9,2.3-6.8,7-6.8C393.7,65,396,67.8,396,71.6z
		 M385.6,71.8v3.6c0,2.2,1.1,3.5,3.3,3.5c2.2,0,3.3-1.3,3.3-3.5v-3.6c0-2.2-1.1-3.6-3.3-3.6C386.7,68.2,385.6,69.6,385.6,71.8z"/>
</g>
<g class="st1">
	<path class="st2" d="M408.6,59.4v2.3c0,0.2-0.1,0.4-0.4,0.4h-1.4c-1.4,0-2,0.6-2,1.8v1.6h3.4c0.2,0,0.3,0.2,0.3,0.4v2.3
		c0,0.3-0.2,0.4-0.4,0.4h-3.4v13c0,0.3-0.2,0.4-0.4,0.4h-2.9c-0.2,0-0.4-0.1-0.4-0.4v-13h-2.3c-0.2,0-0.4-0.2-0.4-0.4v-2.3
		c0-0.2,0.2-0.4,0.4-0.4h2.3V64c0-3.1,1.8-4.9,5-4.9h2C408.5,59,408.6,59.2,408.6,59.4z"/>
</g>
<g class="st1">
	<path class="st2" d="M434.6,81.9h-3.1c-0.3,0-0.4-0.1-0.5-0.4l-1.6-5.1H422l-1.6,5.1c-0.1,0.3-0.3,0.4-0.6,0.4h-2.9
		c-0.3,0-0.4-0.2-0.3-0.5l6.6-21.1c0.1-0.3,0.3-0.4,0.5-0.4h3.8c0.4,0,0.5,0.1,0.6,0.4l6.7,21.1C435,81.6,434.8,81.9,434.6,81.9z
		 M428.3,72.9l-0.8-2.6c-0.6-2-1.3-4.6-1.7-6.5h-0.1c-0.4,1.9-1.1,4.4-1.8,6.5l-0.8,2.5L428.3,72.9L428.3,72.9z"/>
	<path class="st2" d="M438.3,87.9c-0.2,0-0.4-0.2-0.4-0.4V65.7c0-0.2,0.2-0.4,0.4-0.4h2.8c0.2,0,0.4,0.2,0.4,0.4v1.7
		c0.7-1.1,2.3-2.4,4.7-2.4c3.6,0,5.8,2.5,5.8,6.4v4.4c0,3.8-2.2,6.4-5.6,6.4c-2.4,0-4-1.2-4.7-2.4v7.7c0,0.2-0.1,0.4-0.4,0.4
		C441.3,87.9,438.3,87.9,438.3,87.9z M448.2,75.2v-3.4c0-2.3-1.1-3.6-3.2-3.6c-1.9,0-3.4,1.3-3.4,3.6v3.4c0,2.4,1.5,3.7,3.4,3.7
		C447.1,78.9,448.2,77.6,448.2,75.2z"/>
	<path class="st2" d="M456.4,87.9c-0.2,0-0.4-0.2-0.4-0.4V65.7c0-0.2,0.2-0.4,0.4-0.4h2.8c0.2,0,0.4,0.2,0.4,0.4v1.7
		c0.7-1.1,2.3-2.4,4.7-2.4c3.6,0,5.8,2.5,5.8,6.4v4.4c0,3.8-2.2,6.4-5.6,6.4c-2.4,0-4-1.2-4.7-2.4v7.7c0,0.2-0.1,0.4-0.4,0.4
		C459.4,87.9,456.4,87.9,456.4,87.9z M466.4,75.2v-3.4c0-2.3-1.1-3.6-3.2-3.6c-1.9,0-3.4,1.3-3.4,3.6v3.4c0,2.4,1.5,3.7,3.4,3.7
		C465.3,78.9,466.4,77.6,466.4,75.2z"/>
	<path class="st2" d="M477.9,59.4v22c0,0.3-0.1,0.4-0.4,0.4h-2.8c-0.3,0-0.5-0.2-0.5-0.4v-22c0-0.3,0.2-0.4,0.5-0.4h2.8
		C477.8,59,477.9,59.1,477.9,59.4z"/>
	<path class="st2" d="M486.2,59.5v2.9c0,0.4-0.2,0.5-0.5,0.5h-2.6c-0.4,0-0.6-0.2-0.6-0.5v-2.9c0-0.3,0.2-0.5,0.6-0.5h2.6
		C486,59,486.2,59.2,486.2,59.5z M486.2,65.7v15.7c0,0.3-0.1,0.4-0.4,0.4H483c-0.3,0-0.5-0.2-0.5-0.4V65.7c0-0.3,0.2-0.4,0.5-0.4
		h2.8C486.1,65.3,486.2,65.4,486.2,65.7z"/>
	<path class="st2" d="M503.4,69.7c0,0.3,0,0.5-0.4,0.5l-2.3,0.6c-0.4,0.1-0.5,0.1-0.7-0.3c-0.3-1-0.8-2.4-3-2.4
		c-2,0-3.1,1.3-3.1,3.6v3.6c0,2.2,1.1,3.5,3.1,3.5c1.9,0,2.6-0.9,3.1-2.3c0.1-0.4,0.3-0.5,0.6-0.3L503,77c0.4,0.1,0.4,0.3,0.3,0.6
		c-0.5,2.3-2.7,4.4-6.5,4.4c-4.2,0-6.6-2.7-6.6-6.6v-4c0-3.8,2.4-6.7,6.6-6.7C500.4,65,502.9,66.7,503.4,69.7z"/>
</g>
<g class="st1">
	<path class="st2" d="M519.4,70.4v11c0,0.3-0.2,0.4-0.4,0.4h-2.6c-0.3,0-0.4-0.2-0.4-0.4v-2c-1,1.7-2.7,2.7-4.7,2.7
		c-3.1,0-5.1-2-5.1-5s2-4.7,6.3-5c1.2-0.1,2.3-0.1,3.4,0v-1.5c0-1.9-1-2.6-2.7-2.6s-2.3,0.6-2.8,1.8c-0.1,0.3-0.2,0.4-0.6,0.3
		l-2.6-0.7c-0.3-0.1-0.4-0.2-0.3-0.5c0.5-2.3,2.6-4,6.4-4C517.1,65,519.4,66.8,519.4,70.4z M515.8,76.5v-2c-1,0-2.1,0-3.1,0.1
		c-1.9,0.2-3.1,0.9-3.1,2.4c0,1.3,0.9,2.2,2.5,2.2C513.9,79.2,515.1,78.2,515.8,76.5z"/>
</g>
<g class="st1">
	<path class="st2" d="M528.5,61.6v3.8h3.3c0.2,0,0.4,0.2,0.4,0.5V68c0,0.3-0.1,0.4-0.4,0.4h-3.3v8.3c0,1.2,0.7,1.8,2,1.8h1.3
		c0.3,0,0.4,0.1,0.4,0.4v2.4c0,0.3-0.1,0.4-0.4,0.4h-1.9c-3.4,0-5-1.8-5-4.6v-8.8h-2.1c-0.3,0-0.4-0.1-0.4-0.4v-2.2
		c0-0.3,0.2-0.5,0.4-0.5h2.1v-3.8c0-0.2,0.1-0.4,0.4-0.4h2.8C528.3,61.2,528.5,61.4,528.5,61.6z"/>
	<path class="st2" d="M539.4,59.5v2.9c0,0.4-0.2,0.5-0.5,0.5h-2.6c-0.4,0-0.6-0.2-0.6-0.5v-2.9c0-0.3,0.2-0.5,0.6-0.5h2.6
		C539.2,59,539.4,59.2,539.4,59.5z M539.4,65.7v15.7c0,0.3-0.2,0.4-0.4,0.4h-2.8c-0.3,0-0.5-0.2-0.5-0.4V65.7c0-0.3,0.1-0.4,0.5-0.4
		h2.8C539.2,65.3,539.4,65.4,539.4,65.7z"/>
	<path class="st2" d="M557.5,71.6v3.9c0,3.9-2.3,6.7-7,6.7s-7-2.7-7-6.6v-3.9c0-3.9,2.3-6.8,7-6.8C555.3,65,557.5,67.8,557.5,71.6z
		 M547.2,71.8v3.6c0,2.2,1.1,3.5,3.3,3.5s3.3-1.3,3.3-3.5v-3.6c0-2.2-1.1-3.6-3.3-3.6C548.3,68.2,547.2,69.6,547.2,71.8z"/>
	<path class="st2" d="M565.3,71.2v10.2c0,0.3-0.2,0.4-0.4,0.4H562c-0.3,0-0.5-0.2-0.5-0.4V65.7c0-0.2,0.1-0.4,0.4-0.4h2.8
		c0.3,0,0.4,0.2,0.4,0.4v2c1-1.5,2.7-2.7,5-2.7c3.1,0,4.9,2.3,4.9,5.6v10.8c0,0.3-0.1,0.4-0.4,0.4h-2.8c-0.3,0-0.5-0.2-0.5-0.4V71.2
		c0-1.8-0.8-2.9-2.5-2.9C567.2,68.4,565.9,69.5,565.3,71.2z"/>
	<path class="st2" d="M603.7,67.9v5.8c0,4.7-2.9,8.1-8.6,8.1h-6.8c-0.3,0-0.4-0.2-0.4-0.4V60.3c0-0.3,0.1-0.4,0.4-0.4h6.8
		C600.8,59.9,603.7,63.3,603.7,67.9z M591.6,63.5v14.8h3.3c3.4,0,4.9-1.7,4.9-4.6v-5.5c0-2.9-1.4-4.7-4.9-4.7
		C594.9,63.5,591.6,63.5,591.6,63.5z"/>
	<path class="st2" d="M611.1,74.7v1c0,2.1,1.1,3.5,3.5,3.5c2.2,0,2.9-0.9,3.5-2c0.2-0.4,0.4-0.5,0.8-0.3l1.9,1
		c0.4,0.2,0.5,0.5,0.3,0.8c-1,2.2-3.3,3.5-6.5,3.5c-4.6,0-7-2.7-7-6.6v-4.1c0-3.8,2.3-6.6,7-6.6c4.4,0,6.7,2.8,6.7,6.5V74
		c0,0.5-0.2,0.7-0.8,0.7H611.1z M611.1,71.4v0.9h6.7v-0.9c0-2-1.1-3.4-3.3-3.4C612.2,68,611.1,69.3,611.1,71.4z"/>
	<path class="st2" d="M637,68.9c0.1,0.3,0,0.5-0.3,0.6l-2.2,0.8c-0.3,0.1-0.5,0-0.6-0.3c-0.5-1.3-1.6-2-3.2-2
		c-1.7,0-2.7,0.7-2.7,1.8c0,1,0.7,1.4,3.9,2.3c3.8,1,5.2,2.5,5.2,5.1c0,3.1-2.5,5.1-6.4,5.1c-3.5,0-6-1.4-6.8-3.9
		c-0.1-0.3,0-0.5,0.4-0.7l1.9-1c0.4-0.1,0.5-0.1,0.7,0.4c0.5,1.4,1.9,2.2,3.7,2.2c1.9,0,2.9-0.7,2.9-1.9c0-1.1-0.9-1.7-4-2.5
		c-3.6-1-5.1-2.4-5.1-5c0-3,2.4-5,6.1-5C633.9,65,636.3,66.4,637,68.9z"/>
	<path class="st2" d="M644.7,59.5v2.9c0,0.4-0.2,0.5-0.5,0.5h-2.6c-0.4,0-0.6-0.2-0.6-0.5v-2.9c0-0.3,0.2-0.5,0.6-0.5h2.6
		C644.5,59,644.7,59.2,644.7,59.5z M644.7,65.7v15.7c0,0.3-0.2,0.4-0.4,0.4h-2.8c-0.3,0-0.5-0.2-0.5-0.4V65.7c0-0.3,0.1-0.4,0.5-0.4
		h2.8C644.5,65.3,644.7,65.4,644.7,65.7z"/>
	<path class="st2" d="M663,83c0,2.8-2.1,5.2-7.8,5.2c-5.1,0-7.1-1.8-7.1-4.4c0-1.4,0.8-2.7,2.5-3.5c-0.8-0.6-1.2-1.5-1.2-2.2
		c0-1,0.6-1.9,1.7-2.4c-1.7-1-2.6-2.6-2.6-4.6c0-3.3,2-5.7,6.5-5.7h7.4c0.2,0,0.3,0.2,0.3,0.4v2.1c0,0.3-0.2,0.4-0.4,0.4h-2.6
		c0.9,0.7,1.5,1.9,1.5,3.4c0,2.9-2,5-6.2,5h-1c-1,0-1.4,0.4-1.4,1c0,0.5,0.4,0.9,1.4,0.9h3.4C661.4,78.6,663,80.4,663,83z
		 M659.4,83.3c0-1-0.6-1.9-2.5-1.9h-3c-1.8,0-2.4,0.9-2.4,1.9c0,1.4,1.1,2.3,3.9,2.3C658.2,85.6,659.4,84.6,659.4,83.3z M652,71
		c0,1.8,1,3,3.1,3c1.9,0,3-1.1,3-3c0-1.8-1-3-3-3C653.1,68.1,652,69.2,652,71z"/>
	<path class="st2" d="M669.9,71.2v10.2c0,0.3-0.2,0.4-0.4,0.4h-2.8c-0.3,0-0.5-0.2-0.5-0.4V65.7c0-0.2,0.1-0.4,0.4-0.4h2.8
		c0.3,0,0.4,0.2,0.4,0.4v2c1-1.5,2.7-2.7,5-2.7c3.1,0,4.9,2.3,4.9,5.6v10.8c0,0.3-0.1,0.4-0.4,0.4h-2.8c-0.3,0-0.5-0.2-0.5-0.4V71.2
		c0-1.8-0.8-2.9-2.5-2.9C671.8,68.4,670.5,69.5,669.9,71.2z"/>
</g>
<g class="st1">
	<path class="st2" d="M171.9,513.9h-3.3c-0.3,0-0.4-0.1-0.6-0.4l-4.2-7.8h-3.1v7.8c0,0.3-0.1,0.4-0.4,0.4h-3c-0.3,0-0.4-0.2-0.4-0.4
		v-21.1c0-0.3,0.1-0.4,0.4-0.4h7.2c4.7,0,7,2.7,7,6.4v0.8c0,2.9-1.3,5.1-4,6l4.6,8.2C172.4,513.6,172.3,513.9,171.9,513.9z
		 M160.7,502.3h3.5c2.5,0,3.5-1.2,3.5-3.2v-0.5c0-2-1-3.2-3.5-3.2h-3.5V502.3z"/>
</g>
<g class="st1">
	<path class="st2" d="M189.2,503.6v3.9c0,3.9-2.3,6.7-7,6.7s-7-2.7-7-6.6v-3.9c0-3.9,2.3-6.8,7-6.8
		C186.9,497,189.2,499.8,189.2,503.6z M178.8,503.8v3.6c0,2.2,1.1,3.5,3.3,3.5s3.3-1.3,3.3-3.5v-3.6c0-2.2-1.1-3.6-3.3-3.6
		C179.9,500.2,178.8,501.6,178.8,503.8z"/>
	<path class="st2" d="M193.1,508.5v-10.8c0-0.3,0.2-0.4,0.5-0.4h2.9c0.3,0,0.4,0.2,0.4,0.4v10.2c0,1.8,0.9,2.9,2.5,2.9
		s2.9-1.2,3.5-2.9v-10.2c0-0.3,0.1-0.4,0.4-0.4h2.9c0.3,0,0.4,0.2,0.4,0.4v15.7c0,0.2-0.1,0.4-0.4,0.4h-2.8c-0.3,0-0.4-0.2-0.4-0.4
		v-2c-1,1.5-2.7,2.7-5,2.7C194.9,514.2,193.1,511.9,193.1,508.5z"/>
	<path class="st2" d="M224.9,515c0,2.8-2.1,5.2-7.8,5.2c-5.1,0-7.1-1.8-7.1-4.4c0-1.4,0.8-2.7,2.5-3.5c-0.8-0.6-1.2-1.5-1.2-2.2
		c0-1,0.6-1.9,1.7-2.4c-1.7-1-2.6-2.6-2.6-4.6c0-3.3,2-5.7,6.4-5.7h7.4c0.2,0,0.3,0.2,0.3,0.4v2.1c0,0.3-0.2,0.4-0.4,0.4h-2.6
		c0.9,0.7,1.5,1.9,1.5,3.4c0,2.9-2,5-6.2,5H216c-1,0-1.4,0.4-1.4,1c0,0.5,0.4,0.9,1.4,0.9h3.4C223.3,510.6,224.9,512.4,224.9,515z
		 M221.4,515.3c0-1-0.6-1.9-2.5-1.9h-3c-1.8,0-2.4,0.9-2.4,1.9c0,1.4,1.1,2.3,3.9,2.3C220.1,517.6,221.4,516.6,221.4,515.3z
		 M213.9,503c0,1.8,1,3,3.1,3c1.9,0,3-1.1,3-3c0-1.8-1-3-3-3C215,500.1,213.9,501.2,213.9,503z"/>
	<path class="st2" d="M231.8,491.4v8.3c1-1.5,2.6-2.7,4.9-2.7c3.1,0,4.9,2.3,4.9,5.6v10.8c0,0.4-0.2,0.4-0.4,0.4h-2.9
		c-0.3,0-0.5-0.2-0.5-0.4v-10.2c0-1.8-0.8-2.8-2.5-2.8c-1.6,0-2.9,1.1-3.5,2.8v10.2c0,0.3-0.2,0.4-0.4,0.4h-2.8
		c-0.3,0-0.5-0.2-0.5-0.4v-22c0-0.3,0.1-0.4,0.5-0.4h2.8C231.7,491,231.8,491.1,231.8,491.4z"/>
</g>
<g class="st1">
	<path class="st2" d="M268.6,498.7v1.4c0,4.2-2.4,6.8-7.2,6.8h-3.2v6.5c0,0.3-0.1,0.4-0.4,0.4h-3c-0.3,0-0.4-0.2-0.4-0.4v-21.1
		c0-0.2,0.2-0.4,0.4-0.4h6.7C266.2,491.9,268.6,494.6,268.6,498.7z M258.2,495.3v8.1h2.9c2.7,0,3.6-1.2,3.6-3.6v-0.9
		c0-2.3-0.9-3.6-3.6-3.6H258.2z"/>
</g>
<g class="st1">
	<path class="st2" d="M281.3,497.5v2.6c0,0.3-0.1,0.4-0.5,0.4h-0.4c-2.4,0-3.9,1.2-4.5,3.1v9.8c0,0.3-0.2,0.4-0.4,0.4h-3
		c-0.2,0-0.4-0.1-0.4-0.4v-15.8c0-0.3,0.2-0.4,0.4-0.4h2.7c0.3,0,0.4,0.2,0.4,0.4v2.3c0.8-1.5,2.4-3,4.9-3
		C281.2,497.1,281.3,497.2,281.3,497.5z"/>
</g>
<g class="st1">
	<path class="st2" d="M297.5,503.6v3.9c0,3.9-2.3,6.7-7,6.7s-7-2.7-7-6.6v-3.9c0-3.9,2.3-6.8,7-6.8
		C295.3,497,297.5,499.8,297.5,503.6z M287.2,503.8v3.6c0,2.2,1.1,3.5,3.3,3.5c2.2,0,3.3-1.3,3.3-3.5v-3.6c0-2.2-1.1-3.6-3.3-3.6
		C288.3,500.2,287.2,501.6,287.2,503.8z"/>
</g>
<g class="st1">
	<path class="st2" d="M306.1,493.6v3.8h3.3c0.2,0,0.4,0.2,0.4,0.5v2.2c0,0.3-0.1,0.4-0.4,0.4h-3.3v8.3c0,1.2,0.7,1.8,2,1.8h1.3
		c0.3,0,0.4,0.1,0.4,0.4v2.4c0,0.3-0.1,0.4-0.4,0.4h-1.9c-3.4,0-5-1.8-5-4.6v-8.8h-2.1c-0.3,0-0.4-0.1-0.4-0.4v-2.2
		c0-0.3,0.1-0.5,0.4-0.5h2.1v-3.8c0-0.2,0.1-0.4,0.4-0.4h2.8C306,493.2,306.1,493.4,306.1,493.6z"/>
</g>
<g class="st1">
	<path class="st2" d="M326.9,503.6v3.9c0,3.9-2.3,6.7-7,6.7s-7-2.7-7-6.6v-3.9c0-3.9,2.3-6.8,7-6.8
		C324.6,497,326.9,499.8,326.9,503.6z M316.5,503.8v3.6c0,2.2,1.1,3.5,3.3,3.5c2.2,0,3.3-1.3,3.3-3.5v-3.6c0-2.2-1.1-3.6-3.3-3.6
		C317.6,500.2,316.5,501.6,316.5,503.8z"/>
</g>
<g class="st1">
	<path class="st2" d="M335.5,493.6v3.8h3.3c0.2,0,0.4,0.2,0.4,0.5v2.2c0,0.3-0.1,0.4-0.4,0.4h-3.3v8.3c0,1.2,0.7,1.8,2,1.8h1.3
		c0.3,0,0.4,0.1,0.4,0.4v2.4c0,0.3-0.1,0.4-0.4,0.4h-1.9c-3.4,0-5-1.8-5-4.6v-8.8h-2.1c-0.3,0-0.4-0.1-0.4-0.4v-2.2
		c0-0.3,0.1-0.5,0.4-0.5h2.1v-3.8c0-0.2,0.1-0.4,0.4-0.4h2.8C335.4,493.2,335.5,493.4,335.5,493.6z"/>
	<path class="st2" d="M356.3,497.9l-5.6,15.3c-1.2,3.2-2.7,5.6-4.9,7c-0.3,0.2-0.5,0.3-0.9,0l-1.6-1.7c-0.2-0.2-0.1-0.6,0.1-0.8
		c1.8-1.2,2.9-2.3,3.7-4.8l-5.9-15c-0.1-0.3,0.1-0.5,0.4-0.5h3.1c0.3,0,0.5,0.1,0.5,0.4l1.9,5.5c0.8,2.4,1.4,4.1,1.8,6h0.1
		c0.5-2.3,1-3.7,1.8-6l1.8-5.6c0.1-0.2,0.3-0.4,0.5-0.4h2.9C356.2,497.3,356.4,497.5,356.3,497.9z"/>
	<path class="st2" d="M359.6,519.9c-0.2,0-0.4-0.2-0.4-0.4v-21.8c0-0.2,0.1-0.4,0.4-0.4h2.8c0.2,0,0.4,0.2,0.4,0.4v1.7
		c0.7-1.1,2.3-2.4,4.6-2.4c3.6,0,5.8,2.5,5.8,6.4v4.4c0,3.8-2.2,6.4-5.6,6.4c-2.4,0-4-1.2-4.7-2.4v7.7c0,0.2-0.1,0.4-0.4,0.4H359.6z
		 M369.6,507.2v-3.4c0-2.3-1.1-3.6-3.2-3.6c-1.9,0-3.4,1.3-3.4,3.6v3.4c0,2.4,1.5,3.7,3.4,3.7C368.5,510.9,369.6,509.6,369.6,507.2z
		"/>
	<path class="st2" d="M380.5,506.7v1c0,2.1,1.1,3.4,3.5,3.5c2.2,0,2.9-0.9,3.5-2c0.2-0.4,0.4-0.5,0.8-0.3l1.9,1
		c0.4,0.2,0.5,0.5,0.3,0.8c-1,2.2-3.3,3.5-6.4,3.5c-4.6,0-7-2.7-7-6.6v-4.1c0-3.8,2.3-6.6,7-6.6c4.4,0,6.7,2.8,6.7,6.5v2.5
		c0,0.5-0.2,0.7-0.8,0.7h-9.5V506.7z M380.5,503.4v0.9h6.7v-0.9c0-2-1.1-3.4-3.3-3.4C381.6,500,380.5,501.3,380.5,503.4z"/>
	<path class="st2" d="M416.5,496.2c0.1,0.3,0,0.5-0.3,0.6l-2.4,0.9c-0.3,0.1-0.5,0-0.7-0.3c-0.7-1.7-1.9-2.4-3.7-2.4
		c-2.1,0-3.5,1-3.5,2.6c0,1.5,1,2.2,5,3.7s5.7,3.4,5.7,6.5c0,3.7-3.1,6.4-7.6,6.4c-4.1,0-6.7-1.8-7.6-5.2c-0.1-0.3,0-0.5,0.3-0.6
		l2.5-0.8c0.4-0.1,0.6,0,0.7,0.3c0.5,1.9,1.8,2.8,4.1,2.8c2.3,0,3.7-1.1,3.7-2.7s-0.9-2.3-4.3-3.6c-4.6-1.7-6.4-3.5-6.4-6.8
		c0-3.4,2.9-6.1,7.2-6.1C413,491.6,415.5,493.2,416.5,496.2z"/>
	<path class="st2" d="M424.3,491.5v2.9c0,0.4-0.2,0.5-0.5,0.5h-2.6c-0.4,0-0.6-0.2-0.6-0.5v-2.9c0-0.3,0.2-0.5,0.6-0.5h2.6
		C424.1,491,424.3,491.2,424.3,491.5z M424.3,497.7v15.7c0,0.3-0.1,0.4-0.4,0.4h-2.8c-0.3,0-0.5-0.2-0.5-0.4v-15.7
		c0-0.3,0.2-0.4,0.5-0.4h2.8C424.2,497.3,424.3,497.4,424.3,497.7z"/>
	<path class="st2" d="M440.3,497.7l0.2,1.7c0,0.3,0,0.5-0.2,0.8l-7.6,10.5h7.4c0.2,0,0.4,0.1,0.4,0.3v2.5c0,0.2-0.2,0.4-0.4,0.4
		h-11.4c-0.3,0-0.5-0.1-0.5-0.4l-0.2-1.7c-0.1-0.3,0-0.5,0.1-0.8l7.7-10.5h-7.2c-0.2,0-0.4-0.2-0.4-0.4v-2.4c0-0.2,0.1-0.4,0.4-0.4
		h11.2C440,497.3,440.3,497.4,440.3,497.7z"/>
	<path class="st2" d="M447.9,491.5v2.9c0,0.4-0.2,0.5-0.5,0.5h-2.6c-0.4,0-0.6-0.2-0.6-0.5v-2.9c0-0.3,0.2-0.5,0.6-0.5h2.6
		C447.8,491,447.9,491.2,447.9,491.5z M447.9,497.7v15.7c0,0.3-0.2,0.4-0.4,0.4h-2.8c-0.3,0-0.5-0.2-0.5-0.4v-15.7
		c0-0.3,0.1-0.4,0.5-0.4h2.8C447.8,497.3,447.9,497.4,447.9,497.7z"/>
	<path class="st2" d="M456.2,503.2v10.2c0,0.3-0.1,0.4-0.4,0.4H453c-0.3,0-0.5-0.2-0.5-0.4v-15.7c0-0.2,0.1-0.4,0.4-0.4h2.8
		c0.3,0,0.4,0.2,0.4,0.4v2c1-1.5,2.7-2.7,5-2.7c3.1,0,4.9,2.3,4.9,5.6v10.8c0,0.3-0.2,0.4-0.4,0.4h-2.8c-0.3,0-0.5-0.2-0.5-0.4
		v-10.2c0-1.8-0.8-2.9-2.5-2.9C458.1,500.4,456.8,501.5,456.2,503.2z"/>
	<path class="st2" d="M484.2,515c0,2.8-2.1,5.2-7.8,5.2c-5.1,0-7.1-1.8-7.1-4.4c0-1.4,0.8-2.7,2.5-3.5c-0.8-0.6-1.2-1.5-1.2-2.2
		c0-1,0.6-1.9,1.7-2.4c-1.7-1-2.6-2.6-2.6-4.6c0-3.3,2-5.7,6.4-5.7h7.4c0.2,0,0.3,0.2,0.3,0.4v2.1c0,0.3-0.2,0.4-0.4,0.4H481
		c0.9,0.7,1.5,1.9,1.5,3.4c0,2.9-2,5-6.2,5h-1c-1,0-1.4,0.4-1.4,1c0,0.5,0.5,0.9,1.4,0.9h3.4C482.6,510.6,484.2,512.4,484.2,515z
		 M480.6,515.3c0-1-0.6-1.9-2.5-1.9h-3c-1.8,0-2.4,0.9-2.4,1.9c0,1.4,1.1,2.3,3.9,2.3S480.6,516.6,480.6,515.3z M473.2,503
		c0,1.8,1,3,3.1,3c1.9,0,3-1.1,3-3c0-1.8-1-3-3-3C474.2,500.1,473.2,501.2,473.2,503z"/>
	<path class="st2" d="M495.2,508.5v-10.8c0-0.3,0.2-0.4,0.5-0.4h2.8c0.3,0,0.4,0.2,0.4,0.4v10.2c0,1.8,0.9,2.9,2.5,2.9
		s2.9-1.2,3.5-2.9v-10.2c0-0.3,0.1-0.4,0.4-0.4h2.9c0.3,0,0.4,0.2,0.4,0.4v15.7c0,0.2-0.1,0.4-0.4,0.4h-2.8c-0.3,0-0.4-0.2-0.4-0.4
		v-2c-1,1.5-2.7,2.7-5,2.7C496.9,514.2,495.2,511.9,495.2,508.5z"/>
	<path class="st2" d="M525.2,500.9c0.1,0.3,0,0.5-0.3,0.6l-2.2,0.8c-0.3,0.1-0.5,0-0.6-0.3c-0.5-1.3-1.6-2-3.2-2
		c-1.7,0-2.7,0.7-2.7,1.8c0,1,0.7,1.4,3.9,2.3c3.8,1,5.2,2.5,5.2,5.1c0,3.1-2.5,5.1-6.4,5.1c-3.5,0-6-1.4-6.8-3.9
		c-0.1-0.3,0-0.5,0.4-0.7l1.9-1c0.4-0.1,0.5-0.1,0.7,0.4c0.5,1.4,1.9,2.2,3.7,2.2c1.9,0,2.9-0.7,2.9-1.9c0-1.1-0.9-1.6-4-2.5
		c-3.6-1-5.1-2.4-5.1-5c0-3,2.4-5,6.1-5C522,497,524.4,498.4,525.2,500.9z"/>
	<path class="st2" d="M532.8,491.5v2.9c0,0.4-0.2,0.5-0.5,0.5h-2.6c-0.4,0-0.6-0.2-0.6-0.5v-2.9c0-0.3,0.2-0.5,0.6-0.5h2.6
		C532.6,491,532.8,491.2,532.8,491.5z M532.8,497.7v15.7c0,0.3-0.2,0.4-0.4,0.4h-2.8c-0.3,0-0.5-0.2-0.5-0.4v-15.7
		c0-0.3,0.1-0.4,0.5-0.4h2.8C532.7,497.3,532.8,497.4,532.8,497.7z"/>
	<path class="st2" d="M541.1,503.2v10.2c0,0.3-0.1,0.4-0.4,0.4h-2.8c-0.3,0-0.5-0.2-0.5-0.4v-15.7c0-0.2,0.1-0.4,0.4-0.4h2.8
		c0.3,0,0.4,0.2,0.4,0.4v2c1-1.5,2.7-2.7,5-2.7c3.1,0,4.9,2.3,4.9,5.6v10.8c0,0.3-0.2,0.4-0.4,0.4h-2.8c-0.3,0-0.5-0.2-0.5-0.4
		v-10.2c0-1.8-0.8-2.9-2.5-2.9C543,500.4,541.7,501.5,541.1,503.2z"/>
	<path class="st2" d="M569,515c0,2.8-2.1,5.2-7.8,5.2c-5.1,0-7.1-1.8-7.1-4.4c0-1.4,0.8-2.7,2.5-3.5c-0.8-0.6-1.2-1.5-1.2-2.2
		c0-1,0.6-1.9,1.7-2.4c-1.7-1-2.6-2.6-2.6-4.6c0-3.3,2-5.7,6.5-5.7h7.4c0.2,0,0.3,0.2,0.3,0.4v2.1c0,0.3-0.2,0.4-0.4,0.4h-2.6
		c0.9,0.7,1.5,1.9,1.5,3.4c0,2.9-2,5-6.2,5h-1.1c-1,0-1.4,0.4-1.4,1c0,0.5,0.4,0.9,1.4,0.9h3.4C567.4,510.6,569,512.4,569,515z
		 M565.5,515.3c0-1-0.6-1.9-2.5-1.9h-3c-1.8,0-2.4,0.9-2.4,1.9c0,1.4,1.1,2.3,3.9,2.3C564.3,517.6,565.5,516.6,565.5,515.3z
		 M558,503c0,1.8,1,3,3.1,3c1.9,0,3-1.1,3-3c0-1.8-1-3-3-3C559.1,500.1,558,501.2,558,503z"/>
	<path class="st2" d="M595.2,497c0.1,0.4,0,0.6-0.3,0.7l-2.5,0.8c-0.4,0.1-0.5,0-0.6-0.4c-0.6-1.7-1.6-3-3.9-3
		c-2.8,0-4.1,1.7-4.1,4.7v6.2c0,2.9,1.4,4.7,4.1,4.7c2.5,0,3.6-1.3,4-3.2c0.1-0.4,0.3-0.5,0.6-0.4l2.5,0.8c0.3,0.1,0.4,0.3,0.3,0.7
		c-0.8,3.2-3.2,5.6-7.6,5.6c-5,0-7.9-3.2-7.9-8v-6.5c0-4.9,2.9-8,7.9-8C592.1,491.6,594.3,493.8,595.2,497z"/>
	<path class="st2" d="M602.6,491.4v22c0,0.3-0.2,0.4-0.4,0.4h-2.8c-0.3,0-0.5-0.2-0.5-0.4v-22c0-0.3,0.1-0.4,0.5-0.4h2.8
		C602.5,491,602.6,491.1,602.6,491.4z"/>
</g>
<g class="st1">
	<path class="st2" d="M619.6,502.4v11c0,0.3-0.1,0.4-0.4,0.4h-2.6c-0.3,0-0.4-0.2-0.4-0.4v-2c-1,1.7-2.7,2.7-4.7,2.7
		c-3.1,0-5.1-2-5.1-5s2-4.7,6.3-5c1.2-0.1,2.3-0.1,3.4,0v-1.5c0-1.9-1-2.6-2.7-2.6s-2.3,0.6-2.8,1.8c-0.1,0.3-0.2,0.4-0.6,0.3
		l-2.6-0.7c-0.3-0.1-0.4-0.2-0.3-0.5c0.5-2.3,2.6-4,6.4-4C617.3,497,619.6,498.8,619.6,502.4z M616,508.5v-2c-1,0-2.1,0-3.1,0.1
		c-1.9,0.2-3.1,0.9-3.1,2.4c0,1.3,0.9,2.2,2.5,2.2C614,511.2,615.3,510.2,616,508.5z"/>
</g>
<g class="st1">
	<path class="st2" d="M637.2,497.9l-5.6,15.3c-1.2,3.2-2.7,5.6-4.9,7c-0.3,0.2-0.5,0.3-0.9,0l-1.7-1.7c-0.2-0.2-0.1-0.6,0.1-0.8
		c1.8-1.2,2.9-2.3,3.7-4.8l-5.9-15c-0.1-0.3,0.1-0.5,0.4-0.5h3.1c0.3,0,0.5,0.1,0.5,0.4l2,5.5c0.8,2.4,1.4,4.1,1.8,6h0.1
		c0.5-2.3,1-3.7,1.8-6l1.8-5.6c0.1-0.2,0.3-0.4,0.5-0.4h2.9C637.1,497.3,637.3,497.5,637.2,497.9z"/>
</g>
<path class="st3" d="M396.9,592.3c6.9-0.2,14.8,0,22.5,1.9c2.6,0.5,5.1,1.4,7.4,2.8c8.1,5.4,16.2,10.7,23.2,17.5
	c12.1,12,20.3,27.3,23.4,44.1c6.8,34.8-2,65.8-23.9,93.3c-2.2,2.8-5,4.9-7.7,7.2c-1.5,1.2-2.8,0.9-3.8-0.6c-0.6-0.9-0.9-1.8-1.1-2.8
	c-0.5-3-0.6-6.1-0.3-9.1c0.1-2.7,1.3-5.2,3.3-7c6.2-6.1,12.3-12.4,16.7-19.9c5.8-9.9,8.3-20.8,8.9-32.2c1.2-19.6-3.2-37.5-14.9-53.5
	c-9.3-12.8-21.4-21.2-37-24.4c-8.7-1.8-17.5-1.6-26.2-1.1c-17.2,0.8-31.9,7.5-43,20.8c-9.7,11.6-16.3,24.7-18,40
	c-1.8,16.2-0.8,32,6.4,47c4,8.3,10,15.2,16.7,21.3c6.2,5.6,5.8,12,4.7,18.9c-0.6,3.7-2.7,4.2-5.6,2c-11.2-9-17.7-21.3-23.6-34
	c-8.3-17.9-10.6-36.7-8.8-56.1c1.2-12.3,5.3-23.8,11-34.8c7.1-13.7,18.1-23.2,30.3-32c6.3-4.5,12.8-7.6,20.5-8.4
	C384.4,592.5,390.7,592.2,396.9,592.3z"/>
<path class="st4" d="M450.9,206.9c-1.9,1.8-3.8,3.7-5.6,5.6l-4.4,4.4c-1.9,1.8-3.7,3.6-5.4,5.4c-1.4,1.2-1.4,1.2,0,2.5
	c0.7,0.8,1.4,1.5,2.2,2.2l7.7,7.7c0.7,0.8,1.5,1.6,2.3,2.3l7.7,7.7c2,2.1,4.1,4.1,6.1,6.2l6.1,6c1.1,1.2,2.3,2.4,3.4,3.5
	c2,1.6,3.4,3.8,4.2,6.3v0.3c0.2,1.3,0.2,2.7,0,4c-0.3,1.4-1,2.8-1.8,3.9c-0.5,0.6-1,1.2-1.6,1.7l-16.6,16.6
	c-1.2,1.1-2.4,2.2-3.5,3.5l-6.6,6.6c-1.1,1.2-2.5,2.1-4,2.8c-2,0.8-4.2,0.9-6.3,0.4c-1.8-0.6-3.5-1.7-4.8-3.1
	c-1.4-1.5-2.9-3-4.5-4.4c-0.8-0.7-1.6-1.5-2.3-2.4c-0.9-0.9-1.8-1.8-2.7-2.7c-1.6-1.6-3.1-3.3-4.9-4.8l-2.2-2.2
	c-0.5-0.7-1-1.3-1.6-1.9c-2-2-3.9-4.1-6-6l-2.2-2.2c-0.8-0.9-1.6-1.8-2.5-2.6c-1.8-1.7-3.4-3.6-5.3-5.2l-2.5-2.5
	c-0.8-1-0.8-1-1.7-0.1c-0.1,0.1-0.2,0.2-0.3,0.3c-1.9,1.8-3.8,3.7-5.6,5.6l-4.4,4.4c-1.9,1.8-3.8,3.7-5.6,5.6l-4.4,4.4
	c-1.9,1.8-3.7,3.6-5.4,5.4l-4.6,4.6c-1.1,1.1-2.2,2.1-3.3,3.3c-0.5,0.6-1.3,1-2.1,1c-3.3,0.5-6.6,1.1-9.8,1.7l-3.4,0.6l-5.3,0.9
	l-1.2,0.2c-1.1,0.2-2.1,0.3-3.2,0.5c-2.3,0.4-4.5,0.8-6.8,1.3c-1,0.2-2,0.3-3.1,0.4c-3,0.2-5.8-1.7-6.7-4.6
	c-0.2-1.4-0.2-2.8-0.1-4.1c0.2-0.3,0.3-0.7,0.3-1.1c0.1-0.5,0.2-1,0.3-1.5c0.5-2.8,1.1-5.6,1.4-8.5c0.4-2.4,0.8-4.8,1.3-7.2
	c0.2-0.9,0.3-1.9,0.5-2.8c0.7-3.3,1.2-6.5,1.7-9.8c-0.1-1.4,0.9-2.2,1.8-3s1.7-1.7,2.5-2.5c1.6-1.4,3.1-3,4.5-4.5
	c0.2-0.2,0.5-0.4,0.7-0.6c8.4-8.4,16.9-16.9,25.3-25.3c0.5-0.5,0.6-0.8,0-1.4c-7.4-7.3-14.7-14.7-22.1-22.1
	c-0.2-0.2-0.4-0.4-0.6-0.5c-1.2-1.2-2.3-2.4-3.5-3.5c-1.4-1.4-2.8-2.9-4.3-4.2l-2.2-2.2c-1.2-1.3-2.4-2.6-3.7-3.8
	c-1.7-1.5-3-3.4-3.7-5.5l-0.2-0.7c-0.1-1.4-0.1-2.9,0-4.4c0.7-2.1,1.9-4,3.6-5.4c2.2-2,4.3-4.1,6.3-6.3c1.2-1.3,2.4-2.6,3.7-3.7
	l6.3-6.3c1.1-1.3,2.3-2.4,3.5-3.5l6.3-6.3c1.5-1.9,3.6-3.2,6-3.7c3.6-0.7,7.4,0.7,9.7,3.5c1.3,1.5,2.8,2.8,4.2,4.2
	c0.7,0.8,1.4,1.5,2.2,2.2c2.6,2.6,5.1,5.1,7.7,7.7c0.7,0.8,1.5,1.6,2.3,2.3c2.5,2.6,5.1,5.1,7.7,7.7c0.7,0.8,1.4,1.5,2.2,2.2
	l7.8,7.8c0.7,0.8,1.4,1.5,2.2,2.2c1.2,1.4,1.2,1.4,2.3,0l5.5-5.5c1.6-1.4,3.1-2.9,4.5-4.5l5.5-5.5c1.5-1.3,3-2.8,4.3-4.3l5.5-5.5
	c1.6-1.4,3.1-2.9,4.5-4.5l5.5-5.5c0.5-0.4,0.9-0.8,1.4-1.2c3.9-3.3,9.2-4.3,14-2.6c1.6,0.6,3.1,1.3,4.5,2.3c0.8,0.8,1.7,1.6,2.5,2.4
	c1.7,1.6,3.3,3.3,5,4.9c0.7,0.8,1.5,1.6,2.3,2.3l7.1,7.3c1.4,2,2.4,4.3,2.9,6.8l0.2,3.3c-0.3,0.6-0.1,1.3-0.2,1.9
	c-0.7,3.1-2.2,5.9-4.5,8.1l-11.9,11.9c-1.2,1.2-2.3,2.4-3.5,3.6L450.9,206.9z M368.4,177.3c0.8-0.8,1.6-1.6,2.4-2.3
	c0.3-0.3,0.3-0.5,0-0.8c-1.7-1.6-3.4-3.3-5-4.9c-0.7-0.8-1.4-1.5-2.2-2.2c-0.3-0.3-0.6-0.5-0.9-0.8l-6.7-6.8
	c-0.6-0.6-1.2-1.3-1.8-1.9c-0.3-0.3-0.5-0.3-0.7,0c-2.6,2.6-5.2,5.3-7.8,7.9c-0.1,0-0.2,0.1-0.2,0.2c-6.3,6.3-12.7,12.7-19,19
	c-0.5,0.5-0.2,0.7,0.1,1l18.5,18.5c0.2,0.2,0.5,0.4,0.7,0.7l2.1,2.1c2.6,2.7,5.2,5.3,7.9,7.9c2.7,2.7,5.3,5.3,7.9,8
	c0.3,0.2,0.4,0.4,0.7,0.1c1.9-2,3.9-4,5.8-6l5.7-5.7c1.4-1.2,2.7-2.5,3.9-3.9l6.2-6.2c1.3-1.2,2.7-2.5,3.9-3.9c0.5-0.5,1-1,1.5-1.4
	s0.3-0.6,0-1c-1.2-1.2-2.3-2.4-3.5-3.5c-0.6-0.7-1.3-1.4-2.1-1.9c-0.7-1-1.5-1.9-2.6-2.6c-1.6-1.6-3.2-3.2-4.8-4.8
	c-0.3-0.3-0.5-0.3-0.7,0c-0.8,0.9-1.7,1.7-2.5,2.6l-2.3,2.3c-0.3,0.2-0.5,0.5-0.8,0.7l-6.6,6.6c-1.2,0.6-2.7,0.2-3.5-0.8
	c-0.8-0.9-1.7-1.8-2.6-2.6c-1.2-0.8-1.6-2.4-0.9-3.7l7.1-7.2C366.7,179.1,367.6,178.3,368.4,177.3z M445.4,189.8
	c1.3,1.3,2.6,2.6,3.9,4c0.3,0.3,0.5,0.2,0.7,0c1.8-1.8,3.6-3.7,5.4-5.5l8.1-8.1c2.6-2.6,2.6-5.3,0-7.9l-5-5
	c-0.2-0.2-0.3-0.4-0.7-0.5l-2.5-2.6c-1.7-1.7-3.3-3.3-5-5c-1.3-1.3-3.1-1.8-4.9-1.4c-1-0.1-1.9,0.2-2.7,0.8
	c-2.5,2.4-4.9,4.9-7.3,7.4l-0.8,0.8l-5.9,5.8c-0.3,0.3-0.3,0.5,0,0.7c1.3,1.2,2.5,2.5,3.8,3.7l2.9,2.9c2.3,2.4,4.7,4.8,7.1,7.1
	L445.4,189.8z M328.3,286.7c-0.5,2.9-1,5.8-1.5,8.6c-0.1,0.6,0.3,0.5,0.6,0.4l8.6-1.6c3.3-0.5,6.5-1.1,9.8-1.7l4.9-0.8
	c0.7,0,1.4-0.2,2-0.6c1-1,2.1-2.1,3.1-3.2c3.7-3.6,7.3-7.2,10.9-10.9c3.1-3,6.1-6,9.1-9.1l1-1c2.6-2.6,5.2-5.2,7.8-7.8
	c3.7-3.7,7.4-7.4,11.1-11.2l1.1-1.1l8.9-8.9l1-1c3.1-3,6.1-6,9.1-9.1l1-1l8.9-8.9l1.1-1.1c0.4-0.3,0.8-0.7,1.1-1l8.6-8.6
	c1.9-1.9,3.7-3.8,5.7-5.6c0.5-0.5,0.5-0.7,0-1.2c-4.2-4.1-8.3-8.3-12.4-12.4c-0.4-0.4-0.9-0.8-1.3-1.3c-0.8-1-1.7-1.9-2.7-2.7
	c-1.2-1.2-2.5-2.5-3.7-3.7c-0.3-0.3-0.4-0.5-0.8-0.1c-1.9,1.9-3.8,3.8-5.7,5.8c-0.2,0.1-0.4,0.3-0.6,0.6c-3.2,3.1-6.4,6.2-9.5,9.5
	c-0.2,0.1-0.4,0.3-0.6,0.6c-3.2,3.1-6.3,6.2-9.4,9.4l-0.5,0.5c-0.3,0.3-0.6,0.6-0.9,0.9c-3.8,3.8-7.6,7.6-11.5,11.5
	c-2.4,2.4-4.7,4.7-7,7.1l-0.4,0.4c-1,1-2,1.9-2.9,2.8c-2.2,2.2-4.3,4.4-6.5,6.6c-0.3,0.2-0.6,0.4-0.8,0.7c-3.2,3.1-6.3,6.2-9.4,9.4
	l-0.5,0.5c-3.2,3.1-6.3,6.2-9.4,9.4l-0.6,0.6c-3.2,3.1-6.4,6.3-9.6,9.5l-0.4,0.4l-3.6,3.5c-0.2,0.2-0.3,0.4-0.3,0.6l-1,6.1
	C329.4,280,328.8,283.4,328.3,286.7L328.3,286.7z M455.4,278.8l1.8-1.8c2.6-2.6,5.2-5.2,7.9-7.8c0.3-0.3,0.3-0.5,0-0.7
	c-0.6-0.6-1.2-1.2-1.8-1.8c-2.5-2.6-5-5.1-7.6-7.6l-2.2-2.2c-1.6-1.6-3.2-3.2-4.8-4.9c-0.5-0.5-0.7-0.5-1.3,0
	c-3.8,3.8-7.6,7.6-11.4,11.4c-0.9,1.1-2.5,1.2-3.5,0.4c-0.1-0.1-0.3-0.2-0.4-0.4l-2.9-2.9c-1.6-1.6-1.6-2.8,0-4.4
	c3.7-3.7,7.4-7.4,11.1-11.1c0.6-0.5,0.5-0.8,0-1.3c-4.2-4.1-8.3-8.3-12.4-12.4c-0.5-0.5-0.8-0.6-1.3,0c-8.8,8.9-17.7,17.7-26.5,26.5
	c-0.6,0.6-0.6,0.9,0,1.5c9.3,9.3,18.6,18.5,27.9,27.8c3,3,6,6.1,9.1,9.1c0.3,0.3,0.5,0.7,1,0.2c3.1-3.2,6.2-6.3,9.3-9.4
	C450.1,284.2,452.7,281.5,455.4,278.8L455.4,278.8z"/>
</svg>
