<?xml version="1.0" encoding="utf-8"?>
<!-- Generator: Adobe Illustrator 24.1.1, SVG Export Plug-In . SVG Version: 6.00 Build 0)  -->
<svg version="1.1" id="Layer_1" xmlns="http://www.w3.org/2000/svg" xmlns:xlink="http://www.w3.org/1999/xlink" x="0px" y="0px"
	 viewBox="0 0 792 1130.7" style="enable-background:new 0 0 792 1130.7;" xml:space="preserve">
<style type="text/css">
	.st0{fill:#2E3442;}
	.st1{enable-background:new    ;}
	.st2{fill:#C7DDE3;}
	.st3{fill:#FADB8C;}
</style>
<rect x="-1.1" y="-56" class="st0" width="792" height="1224"/>
<g class="st1">
	<path class="st2" d="M225,50.6v1.6c0,4.7-2.7,7.7-8.1,7.7h-3.7v7.4c0,0.3-0.2,0.5-0.5,0.5h-3.4c-0.3,0-0.5-0.2-0.5-0.5v-24
		c0-0.2,0.2-0.4,0.4-0.4h7.5C222.2,43,225,46.1,225,50.6z M213.2,46.9V56h3.3c3.1,0,4.1-1.4,4.1-4.1v-1c0-2.6-1.1-4.1-4.1-4.1
		L213.2,46.9L213.2,46.9z"/>
</g>
<g class="st1">
	<path class="st2" d="M239.3,49.4v3c0,0.4-0.1,0.5-0.5,0.5h-0.5c-2.7,0-4.4,1.4-5.1,3.5v11.1c0,0.3-0.2,0.4-0.4,0.4h-3.4
		c-0.2,0-0.4-0.1-0.4-0.4v-18c0-0.3,0.2-0.4,0.5-0.4h3.1c0.3,0,0.5,0.2,0.5,0.5v2.7c1-1.7,2.7-3.4,5.6-3.4
		C239.2,48.8,239.3,48.9,239.3,49.4z"/>
</g>
<g class="st1">
	<path class="st2" d="M257.7,56.3v4.4c0,4.5-2.5,7.5-8,7.5c-5.4,0-8-3.1-8-7.4v-4.4c0-4.5,2.6-7.6,8-7.6
		C255.2,48.7,257.7,51.9,257.7,56.3z M246,56.5v4.1c0,2.5,1.3,3.9,3.7,3.9c2.5,0,3.8-1.4,3.8-3.9v-4.1c0-2.5-1.3-4-3.8-4
		C247.2,52.4,246,53.9,246,56.5z"/>
	<path class="st2" d="M266.5,49.6v16.1c0,4.5-1.8,7.4-3.8,9.2c-0.2,0.2-0.5,0.3-0.9,0l-2.2-1.8c-0.2-0.2-0.3-0.4,0-0.8
		c1.1-1.2,2.7-2.4,2.7-6.3V49.6c0-0.3,0.2-0.5,0.5-0.5h3.3C266.4,49.1,266.5,49.3,266.5,49.6z M266.5,42.6v3.2
		c0,0.4-0.2,0.6-0.6,0.6h-3c-0.4,0-0.6-0.2-0.6-0.6v-3.2c0-0.4,0.2-0.6,0.6-0.6h3C266.3,41.9,266.5,42.2,266.5,42.6z"/>
	<path class="st2" d="M275.2,59.8v1.1c0,2.4,1.3,3.9,3.9,3.9c2.5,0,3.3-1,3.9-2.2c0.3-0.4,0.4-0.5,0.9-0.3l2.1,1.1
		c0.5,0.2,0.5,0.5,0.3,0.9c-1.1,2.5-3.7,4-7.3,4c-5.2,0-8-3.1-8-7.4v-4.6c0-4.2,2.7-7.4,7.9-7.4c5,0,7.6,3.2,7.6,7.4v2.9
		c0,0.5-0.2,0.8-0.8,0.8h-10.5V59.8z M275.2,56v1h7.5v-1c0-2.3-1.3-3.8-3.8-3.8C276.5,52.1,275.2,53.7,275.2,56z"/>
	<path class="st2" d="M305.4,54.1c0,0.3,0,0.5-0.4,0.6l-2.6,0.7c-0.5,0.1-0.6,0.1-0.7-0.3c-0.4-1.1-0.9-2.7-3.4-2.7
		c-2.3,0-3.5,1.5-3.5,4v4.1c0,2.5,1.2,3.9,3.5,3.9c2.2,0,3-1.1,3.5-2.5c0.1-0.4,0.3-0.5,0.7-0.3l2.6,0.9c0.4,0.1,0.4,0.4,0.3,0.7
		c-0.6,2.7-3.1,5-7.4,5c-4.7,0-7.5-3.1-7.5-7.4v-4.5c0-4.4,2.8-7.5,7.5-7.5C302,48.7,304.8,50.7,305.4,54.1z"/>
	<path class="st2" d="M314.9,44.9v4.3h3.7c0.3,0,0.4,0.2,0.4,0.5v2.4c0,0.3-0.2,0.5-0.4,0.5h-3.7v9.5c0,1.4,0.7,2,2.3,2h1.4
		c0.3,0,0.5,0.1,0.5,0.5v2.8c0,0.3-0.2,0.5-0.5,0.5h-2.1c-3.8,0-5.7-2-5.7-5.2v-10h-2.3c-0.3,0-0.5-0.1-0.5-0.5v-2.4
		c0-0.3,0.2-0.5,0.5-0.5h2.4V45c0-0.3,0.2-0.5,0.5-0.5h3.1C314.7,44.5,314.9,44.7,314.9,44.9z"/>
	<path class="st2" d="M346.2,54.1c0,0.3,0,0.5-0.4,0.6l-2.6,0.7c-0.5,0.1-0.6,0.1-0.7-0.3c-0.4-1.1-0.9-2.7-3.4-2.7
		c-2.3,0-3.5,1.5-3.5,4v4.1c0,2.5,1.2,3.9,3.5,3.9c2.2,0,3-1.1,3.5-2.5c0.1-0.4,0.3-0.5,0.7-0.3l2.6,0.9c0.4,0.1,0.4,0.4,0.3,0.7
		c-0.6,2.7-3.1,5-7.4,5c-4.7,0-7.5-3.1-7.5-7.4v-4.5c0-4.4,2.8-7.5,7.5-7.5C342.9,48.7,345.7,50.7,346.2,54.1z"/>
	<path class="st2" d="M365.7,56.3v4.4c0,4.5-2.5,7.5-8,7.5c-5.4,0-8-3.1-8-7.4v-4.4c0-4.5,2.6-7.6,8-7.6
		C363.2,48.7,365.7,51.9,365.7,56.3z M354,56.5v4.1c0,2.5,1.3,3.9,3.7,3.9c2.5,0,3.8-1.4,3.8-3.9v-4.1c0-2.5-1.3-4-3.8-4
		C355.2,52.4,354,53.9,354,56.5z"/>
	<path class="st2" d="M374.5,55.8v11.6c0,0.3-0.2,0.5-0.5,0.5h-3.2c-0.3,0-0.5-0.2-0.5-0.5V49.5c0-0.2,0.1-0.4,0.5-0.4h3.2
		c0.3,0,0.5,0.2,0.5,0.4v2.3c1.2-1.7,3.1-3.1,5.6-3.1c3.6,0,5.5,2.6,5.5,6.4v12.3c0,0.3-0.2,0.5-0.5,0.5h-3.2
		c-0.3,0-0.5-0.2-0.5-0.5V55.8c0-2-1-3.3-2.9-3.3C376.7,52.6,375.2,53.9,374.5,55.8z"/>
	<path class="st2" d="M404.9,54.1c0,0.3,0,0.5-0.4,0.6l-2.6,0.7c-0.5,0.1-0.6,0.1-0.7-0.3c-0.4-1.1-0.9-2.7-3.4-2.7
		c-2.3,0-3.5,1.5-3.5,4v4.1c0,2.5,1.2,3.9,3.5,3.9c2.2,0,3-1.1,3.5-2.5c0.1-0.4,0.3-0.5,0.7-0.3l2.6,0.9c0.4,0.1,0.4,0.4,0.3,0.7
		c-0.6,2.7-3.1,5-7.4,5c-4.7,0-7.5-3.1-7.5-7.4v-4.5c0-4.4,2.8-7.5,7.5-7.5C401.6,48.7,404.3,50.7,404.9,54.1z"/>
	<path class="st2" d="M412.5,59.8v1.1c0,2.4,1.3,3.9,3.9,3.9c2.5,0,3.3-1,3.9-2.2c0.3-0.4,0.4-0.5,0.9-0.3l2.1,1.1
		c0.5,0.2,0.5,0.5,0.3,0.9c-1.1,2.5-3.7,4-7.3,4c-5.2,0-8-3.1-8-7.4v-4.6c0-4.2,2.7-7.4,7.9-7.4c5,0,7.6,3.2,7.6,7.4v2.9
		c0,0.5-0.2,0.8-0.8,0.8h-10.5V59.8z M412.5,56v1h7.5v-1c0-2.3-1.3-3.8-3.8-3.8C413.8,52.1,412.5,53.7,412.5,56z"/>
</g>
<g class="st1">
	<path class="st2" d="M428.9,74.6c-0.3,0-0.4-0.2-0.4-0.4V49.5c0-0.3,0.2-0.4,0.5-0.4h3.2c0.3,0,0.5,0.2,0.5,0.4v1.9
		c0.7-1.3,2.6-2.7,5.3-2.7c4,0,6.6,2.9,6.6,7.2v5c0,4.3-2.5,7.3-6.4,7.3c-2.8,0-4.6-1.4-5.3-2.8v8.7c0,0.3-0.1,0.4-0.4,0.4
		L428.9,74.6L428.9,74.6z M440.1,60.3v-3.8c0-2.6-1.3-4.1-3.6-4.1c-2.1,0-3.9,1.4-3.9,4.1v3.8c0,2.7,1.7,4.2,3.9,4.2
		C438.9,64.5,440.1,63,440.1,60.3z"/>
</g>
<g class="st1">
	<path class="st2" d="M454.2,44.9v4.3h3.7c0.3,0,0.4,0.2,0.4,0.5v2.4c0,0.3-0.2,0.5-0.4,0.5h-3.7v9.5c0,1.4,0.7,2,2.3,2h1.4
		c0.3,0,0.5,0.1,0.5,0.5v2.8c0,0.3-0.2,0.5-0.5,0.5h-2.1c-3.8,0-5.7-2-5.7-5.2v-10h-2.3c-0.3,0-0.5-0.1-0.5-0.5v-2.4
		c0-0.3,0.2-0.5,0.5-0.5h2.4V45c0-0.3,0.2-0.5,0.5-0.5h3.1C454.1,44.5,454.2,44.7,454.2,44.9z"/>
	<path class="st2" d="M462.2,61.8V49.6c0-0.3,0.2-0.5,0.5-0.5h3.2c0.3,0,0.5,0.2,0.5,0.5v11.6c0,2,1,3.2,2.9,3.2
		c1.8,0,3.3-1.3,4-3.2V49.6c0-0.3,0.1-0.5,0.4-0.5h3.3c0.3,0,0.5,0.2,0.5,0.5v17.8c0,0.2-0.2,0.4-0.5,0.4h-3.2
		c-0.3,0-0.5-0.2-0.5-0.4v-2.3c-1.2,1.7-3.1,3.1-5.7,3.1C464.2,68.2,462.2,65.6,462.2,61.8z"/>
	<path class="st2" d="M496.8,54.9v12.5c0,0.3-0.2,0.5-0.5,0.5h-3c-0.3,0-0.5-0.2-0.5-0.5v-2.2c-1.2,1.9-3.1,3.1-5.4,3.1
		c-3.5,0-5.8-2.3-5.8-5.7c0-3.4,2.2-5.4,7.1-5.7c1.3-0.1,2.6-0.1,3.8,0v-1.7c0-2.1-1.2-3-3.1-3s-2.7,0.7-3.1,2
		c-0.1,0.4-0.3,0.4-0.6,0.3l-3-0.7c-0.3-0.1-0.4-0.3-0.3-0.5c0.5-2.7,3-4.5,7.2-4.5C494.1,48.7,496.8,50.8,496.8,54.9z M492.7,61.8
		v-2.3c-1.2,0-2.3,0-3.5,0.1c-2.2,0.2-3.5,1-3.5,2.8c0,1.5,1.1,2.5,2.9,2.5C490.5,64.8,491.9,63.7,492.7,61.8z"/>
	<path class="st2" d="M506,42.4v25c0,0.3-0.2,0.5-0.5,0.5h-3.2c-0.3,0-0.5-0.2-0.5-0.5v-25c0-0.3,0.2-0.5,0.5-0.5h3.2
		C505.9,41.9,506,42.1,506,42.4z"/>
	<path class="st2" d="M515.4,42.6v3.2c0,0.4-0.2,0.6-0.6,0.6h-3c-0.4,0-0.6-0.2-0.6-0.6v-3.2c0-0.4,0.2-0.6,0.6-0.6h3
		C515.2,41.9,515.4,42.2,515.4,42.6z M515.4,49.6v17.8c0,0.3-0.2,0.5-0.5,0.5h-3.2c-0.3,0-0.5-0.2-0.5-0.5V49.6
		c0-0.3,0.2-0.5,0.5-0.5h3.2C515.2,49.1,515.4,49.3,515.4,49.6z"/>
</g>
<g class="st1">
	<path class="st2" d="M533.5,49.5l0.2,1.9c0,0.3,0,0.6-0.2,0.9l-8.6,11.9h8.4c0.3,0,0.4,0.2,0.4,0.4v2.8c0,0.3-0.2,0.4-0.5,0.4
		h-12.9c-0.3,0-0.5-0.1-0.6-0.4l-0.2-1.9c-0.1-0.3,0-0.6,0.2-0.9l8.7-11.9h-8.1c-0.2,0-0.5-0.2-0.5-0.4v-2.7c0-0.2,0.1-0.4,0.4-0.4
		h12.7C533.2,49.1,533.5,49.2,533.5,49.5z"/>
</g>
<g class="st1">
	<path class="st2" d="M541.3,59.8v1.1c0,2.4,1.3,3.9,3.9,3.9c2.5,0,3.3-1,3.9-2.2c0.3-0.4,0.4-0.5,0.9-0.3l2.1,1.1
		c0.5,0.2,0.5,0.5,0.3,0.9c-1.1,2.5-3.7,4-7.3,4c-5.2,0-8-3.1-8-7.4v-4.6c0-4.2,2.7-7.4,7.9-7.4c5,0,7.6,3.2,7.6,7.4v2.9
		c0,0.5-0.2,0.8-0.8,0.8h-10.5L541.3,59.8L541.3,59.8z M541.3,56v1h7.5v-1c0-2.3-1.3-3.8-3.8-3.8C542.5,52.1,541.3,53.7,541.3,56z"
		/>
	<path class="st2" d="M556.7,61.1v-5c0-4.3,2.5-7.3,6.4-7.3c2.8,0,4.6,1.4,5.3,2.8v-9.1c0-0.2,0.1-0.4,0.4-0.4h3.3
		c0.3,0,0.4,0.2,0.4,0.4v25c0,0.3-0.2,0.4-0.5,0.4h-3c-0.3,0-0.4-0.2-0.4-0.4v-1.9c-0.8,1.3-2.7,2.7-5.3,2.7
		C559.2,68.2,556.7,65.4,556.7,61.1z M568.4,60.4v-3.8c0-2.7-1.7-4.2-3.9-4.2c-2.4,0-3.6,1.6-3.6,4.2v3.8c0,2.7,1.3,4.1,3.6,4.1
		C566.7,64.5,568.4,63.1,568.4,60.4z"/>
</g>
<g class="st1">
	<path class="st2" d="M108.9,410.6v3.1c0,0.2-0.2,0.5-0.4,0.5H102v20.4c0,0.3-0.2,0.5-0.5,0.5H98c-0.3,0-0.4-0.2-0.4-0.5v-20.4H91
		c-0.3,0-0.4-0.2-0.4-0.5v-3.1c0-0.2,0.1-0.5,0.4-0.5h17.4C108.8,410.2,108.9,410.4,108.9,410.6z"/>
</g>
<g class="st1">
	<path class="st2" d="M113,427v1.1c0,2.4,1.3,3.9,3.9,3.9c2.5,0,3.3-1,3.9-2.2c0.3-0.4,0.4-0.5,0.9-0.3l2.1,1.1
		c0.5,0.2,0.5,0.5,0.3,0.9c-1.1,2.5-3.7,4-7.3,4c-5.2,0-8-3.1-8-7.4v-4.6c0-4.2,2.7-7.4,7.9-7.4c5,0,7.6,3.2,7.6,7.4v2.9
		c0,0.5-0.2,0.8-0.8,0.8H113V427z M113,423.2v1h7.5v-1c0-2.3-1.3-3.8-3.8-3.8C114.2,419.3,113,420.9,113,423.2z"/>
	<path class="st2" d="M142.9,422.1v12.5c0,0.3-0.2,0.5-0.5,0.5h-3c-0.3,0-0.5-0.2-0.5-0.5v-2.2c-1.2,1.9-3.1,3.1-5.4,3.1
		c-3.5,0-5.8-2.3-5.8-5.7c0-3.4,2.2-5.4,7.1-5.7c1.3-0.1,2.6-0.1,3.8,0v-1.7c0-2.1-1.2-3-3.1-3c-1.9,0-2.7,0.7-3.1,2
		c-0.1,0.4-0.3,0.4-0.6,0.3l-3-0.7c-0.3-0.1-0.4-0.3-0.3-0.5c0.5-2.7,3-4.5,7.2-4.5C140.3,415.9,142.9,418,142.9,422.1z M138.8,429
		v-2.3c-1.2,0-2.3,0-3.5,0.1c-2.2,0.2-3.5,1-3.5,2.8c0,1.5,1.1,2.5,2.9,2.5C136.6,432,138.1,430.9,138.8,429z"/>
	<path class="st2" d="M157.2,415.9c2.5,0,4,1.5,4.6,3.4c1.4-2,3.2-3.4,5.4-3.4c3.2,0,5.1,2.4,5.1,6.2v12.5c0,0.3-0.2,0.5-0.5,0.5
		h-3.1c-0.3,0-0.6-0.2-0.6-0.5v-11.7c0-2-0.9-3.1-2.4-3.1s-2.8,1.2-3.5,3.1v11.7c0,0.3-0.2,0.5-0.4,0.5h-3.3c-0.3,0-0.4-0.2-0.4-0.5
		v-11.7c0-2-0.9-3.1-2.4-3.1c-1.6,0-2.9,1.4-3.5,3.2v11.6c0,0.3-0.1,0.5-0.5,0.5h-3.3c-0.3,0-0.5-0.2-0.5-0.5v-17.8
		c0-0.2,0.1-0.4,0.5-0.4h3.2c0.3,0,0.5,0.2,0.5,0.4v2.3C153.1,417.4,154.8,415.9,157.2,415.9z"/>
</g>
<g class="st1">
	<path class="st2" d="M201.1,410.6v3c0,0.3-0.2,0.5-0.5,0.5h-9.5v7.2h8.4c0.3,0,0.5,0.2,0.5,0.5v2.8c0,0.3-0.2,0.5-0.5,0.5h-8.4v9.5
		c0,0.3-0.2,0.5-0.5,0.5h-3.4c-0.3,0-0.5-0.2-0.5-0.5v-23.9c0-0.3,0.1-0.5,0.5-0.5h13.3C201,410.2,201.1,410.3,201.1,410.6z"/>
</g>
<g class="st1">
	<path class="st2" d="M220.2,423.5v4.4c0,4.5-2.5,7.5-8,7.5c-5.4,0-8-3.1-8-7.4v-4.4c0-4.5,2.6-7.6,8-7.6
		C217.6,415.9,220.2,419.1,220.2,423.5z M208.4,423.7v4.1c0,2.5,1.3,3.9,3.7,3.9c2.5,0,3.8-1.4,3.8-3.9v-4.1c0-2.5-1.3-4-3.8-4
		C209.7,419.6,208.4,421.1,208.4,423.7z"/>
	<path class="st2" d="M235,416.6v3c0,0.4-0.1,0.5-0.5,0.5H234c-2.7,0-4.4,1.4-5.1,3.5v11.1c0,0.3-0.2,0.4-0.4,0.4h-3.4
		c-0.2,0-0.4-0.1-0.4-0.4v-17.9c0-0.3,0.2-0.4,0.5-0.4h3.1c0.3,0,0.5,0.2,0.5,0.5v2.7c1-1.7,2.7-3.4,5.6-3.4
		C234.9,416,235,416.1,235,416.6z"/>
	<path class="st2" d="M247.7,415.9c2.5,0,4,1.5,4.6,3.4c1.4-2,3.2-3.4,5.4-3.4c3.2,0,5.1,2.4,5.1,6.2v12.5c0,0.3-0.2,0.5-0.5,0.5
		h-3.1c-0.3,0-0.6-0.2-0.6-0.5v-11.7c0-2-0.9-3.1-2.4-3.1s-2.8,1.2-3.5,3.1v11.7c0,0.3-0.2,0.5-0.4,0.5H249c-0.3,0-0.4-0.2-0.4-0.5
		v-11.7c0-2-0.8-3.1-2.4-3.1c-1.6,0-2.9,1.4-3.5,3.2v11.6c0,0.3-0.1,0.5-0.5,0.5H239c-0.3,0-0.5-0.2-0.5-0.5v-17.8
		c0-0.2,0.1-0.4,0.5-0.4h3.2c0.3,0,0.5,0.2,0.5,0.4v2.3C243.6,417.4,245.3,415.9,247.7,415.9z"/>
</g>
<g class="st1">
	<path class="st2" d="M282,422.1v12.5c0,0.3-0.2,0.5-0.5,0.5h-3c-0.3,0-0.5-0.2-0.5-0.5v-2.2c-1.2,1.9-3.1,3.1-5.4,3.1
		c-3.5,0-5.8-2.3-5.8-5.7c0-3.4,2.2-5.4,7.1-5.7c1.3-0.1,2.6-0.1,3.8,0v-1.7c0-2.1-1.2-3-3.1-3s-2.7,0.7-3.1,2
		c-0.1,0.4-0.3,0.4-0.6,0.3l-3-0.7c-0.3-0.1-0.4-0.3-0.3-0.5c0.5-2.7,3-4.5,7.2-4.5C279.4,415.9,282,418,282,422.1z M277.9,429v-2.3
		c-1.2,0-2.3,0-3.5,0.1c-2.2,0.2-3.5,1-3.5,2.8c0,1.5,1.1,2.5,2.9,2.5C275.7,432,277.2,430.9,277.9,429z"/>
</g>
<g class="st1">
	<path class="st2" d="M292.3,412.1v4.3h3.7c0.3,0,0.4,0.2,0.4,0.5v2.4c0,0.3-0.2,0.5-0.4,0.5h-3.7v9.5c0,1.4,0.7,2,2.3,2h1.4
		c0.3,0,0.5,0.1,0.5,0.5v2.8c0,0.3-0.2,0.5-0.5,0.5h-2.1c-3.8,0-5.7-2-5.7-5.2v-10h-2.3c-0.3,0-0.5-0.1-0.5-0.5V417
		c0-0.3,0.2-0.5,0.5-0.5h2.4v-4.3c0-0.3,0.2-0.5,0.5-0.5h3.1C292.1,411.7,292.3,411.9,292.3,412.1z"/>
	<path class="st2" d="M304.6,409.8v3.2c0,0.4-0.2,0.6-0.6,0.6h-3c-0.4,0-0.6-0.2-0.6-0.6v-3.2c0-0.4,0.2-0.6,0.6-0.6h3
		C304.4,409.1,304.6,409.4,304.6,409.8z M304.6,416.8v17.8c0,0.3-0.2,0.5-0.5,0.5h-3.2c-0.3,0-0.5-0.2-0.5-0.5v-17.8
		c0-0.3,0.2-0.5,0.5-0.5h3.2C304.5,416.3,304.6,416.5,304.6,416.8z"/>
	<path class="st2" d="M325.2,423.5v4.4c0,4.5-2.5,7.5-8,7.5c-5.4,0-8-3.1-8-7.4v-4.4c0-4.5,2.6-7.6,8-7.6
		C322.6,415.9,325.2,419.1,325.2,423.5z M313.4,423.7v4.1c0,2.5,1.3,3.9,3.7,3.9c2.5,0,3.8-1.4,3.8-3.9v-4.1c0-2.5-1.3-4-3.8-4
		C314.7,419.6,313.4,421.1,313.4,423.7z"/>
	<path class="st2" d="M334,423v11.6c0,0.3-0.2,0.5-0.5,0.5h-3.2c-0.3,0-0.5-0.2-0.5-0.5v-17.8c0-0.2,0.1-0.4,0.5-0.4h3.2
		c0.3,0,0.5,0.2,0.5,0.4v2.3c1.2-1.7,3.1-3.1,5.6-3.1c3.6,0,5.5,2.6,5.5,6.4v12.3c0,0.3-0.2,0.5-0.5,0.5h-3.2
		c-0.3,0-0.5-0.2-0.5-0.5V423c0-2-1-3.3-2.9-3.3C336.2,419.8,334.7,421.1,334,423z"/>
</g>
<g class="st1">
	<path class="st2" d="M364.9,409l2,1.5c0.3,0.2,0.4,0.5,0.1,0.9c-2.1,3-4.2,7.8-4.2,14.1c0,6.4,2.1,11.2,4.2,14.2
		c0.2,0.3,0.2,0.6-0.1,0.8l-2,1.5c-0.2,0.1-0.3,0.2-0.5,0.2s-0.3,0-0.5-0.3c-2.7-3-5.4-8.5-5.4-16.4s2.8-13.4,5.4-16.4
		c0.2-0.3,0.3-0.3,0.5-0.3C364.5,408.8,364.6,408.9,364.9,409z"/>
</g>
<g class="st1">
	<path class="st2" d="M389.3,435h-3.5c-0.3,0-0.5-0.1-0.6-0.4l-1.8-5.8H375l-1.8,5.8c-0.1,0.3-0.3,0.4-0.6,0.4h-3.3
		c-0.3,0-0.4-0.2-0.3-0.5l7.5-23.9c0.1-0.3,0.3-0.5,0.6-0.5h4.3c0.4,0,0.6,0.1,0.7,0.5l7.6,23.9C389.8,434.8,389.6,435,389.3,435z
		 M382.2,424.9l-0.9-3c-0.7-2.3-1.5-5.2-2-7.3h-0.1c-0.5,2.1-1.3,5-2,7.4l-0.9,2.9H382.2z"/>
</g>
<g class="st1">
	<path class="st2" d="M392.7,429v-12.3c0-0.3,0.2-0.5,0.5-0.5h3.2c0.3,0,0.5,0.2,0.5,0.5v11.6c0,2,1,3.2,2.9,3.2
		c1.8,0,3.3-1.3,4-3.2v-11.6c0-0.3,0.1-0.5,0.4-0.5h3.3c0.3,0,0.5,0.2,0.5,0.5v17.8c0,0.2-0.2,0.4-0.5,0.4h-3.2
		c-0.3,0-0.5-0.2-0.5-0.4v-2.3c-1.2,1.7-3.1,3.1-5.7,3.1C394.7,435.4,392.7,432.8,392.7,429z"/>
	<path class="st2" d="M418.5,412.1v4.3h3.7c0.3,0,0.4,0.2,0.4,0.5v2.4c0,0.3-0.2,0.5-0.4,0.5h-3.7v9.5c0,1.4,0.7,2,2.3,2h1.4
		c0.3,0,0.5,0.1,0.5,0.5v2.8c0,0.3-0.2,0.5-0.5,0.5h-2.1c-3.8,0-5.7-2-5.7-5.2v-10h-2.3c-0.3,0-0.5-0.1-0.5-0.5V417
		c0-0.3,0.2-0.5,0.5-0.5h2.4v-4.3c0-0.3,0.2-0.5,0.5-0.5h3.1C418.4,411.7,418.5,411.9,418.5,412.1z"/>
	<path class="st2" d="M442.1,423.5v4.4c0,4.5-2.5,7.5-8,7.5c-5.4,0-8-3.1-8-7.4v-4.4c0-4.5,2.6-7.6,8-7.6
		C439.5,415.9,442.1,419.1,442.1,423.5z M430.3,423.7v4.1c0,2.5,1.3,3.9,3.7,3.9c2.5,0,3.8-1.4,3.8-3.9v-4.1c0-2.5-1.3-4-3.8-4
		C431.6,419.6,430.3,421.1,430.3,423.7z"/>
	<path class="st2" d="M450.9,409.6v9.1c0.7-1.3,2.6-2.8,5.3-2.8c3.8,0,6.4,3,6.4,7.3v5c0,4.3-2.5,7.2-6.6,7.2
		c-2.7,0-4.5-1.4-5.3-2.7v1.9c0,0.3-0.2,0.4-0.4,0.4h-3.2c-0.3,0-0.5-0.2-0.5-0.4v-25c0-0.2,0.2-0.4,0.4-0.4h3.3
		C450.7,409.1,450.9,409.3,450.9,409.6z M450.9,423.8v3.8c0,2.7,1.7,4.1,3.9,4.1c2.4,0,3.6-1.4,3.6-4.1v-3.8c0-2.6-1.3-4.2-3.6-4.2
		C452.6,419.6,450.9,421.2,450.9,423.8z"/>
</g>
<g class="st1">
	<path class="st2" d="M482.6,423.5v4.4c0,4.5-2.5,7.5-8,7.5c-5.4,0-8-3.1-8-7.4v-4.4c0-4.5,2.6-7.6,8-7.6
		C480.1,415.9,482.6,419.1,482.6,423.5z M470.9,423.7v4.1c0,2.5,1.3,3.9,3.7,3.9c2.5,0,3.8-1.4,3.8-3.9v-4.1c0-2.5-1.3-4-3.8-4
		C472.2,419.6,470.9,421.1,470.9,423.7z"/>
</g>
<g class="st1">
	<path class="st2" d="M492.4,412.1v4.3h3.7c0.3,0,0.4,0.2,0.4,0.5v2.4c0,0.3-0.2,0.5-0.4,0.5h-3.7v9.5c0,1.4,0.7,2,2.3,2h1.4
		c0.3,0,0.5,0.1,0.5,0.5v2.8c0,0.3-0.2,0.5-0.5,0.5H494c-3.8,0-5.7-2-5.7-5.2v-10H486c-0.3,0-0.5-0.1-0.5-0.5V417
		c0-0.3,0.2-0.5,0.5-0.5h2.4v-4.3c0-0.3,0.2-0.5,0.5-0.5h3.1C492.3,411.7,492.4,411.9,492.4,412.1z"/>
	<path class="st2" d="M514.1,420.3c0.1,0.3,0,0.5-0.3,0.6l-2.5,0.9c-0.4,0.1-0.5,0-0.6-0.3c-0.5-1.5-1.8-2.3-3.6-2.3
		c-1.9,0-3,0.8-3,2s0.8,1.6,4.4,2.7c4.3,1.2,6,2.9,6,5.8c0,3.5-2.9,5.7-7.2,5.7c-3.9,0-6.8-1.6-7.7-4.4c-0.1-0.4,0-0.6,0.4-0.7
		l2.2-1.1c0.4-0.1,0.6-0.1,0.7,0.4c0.5,1.6,2.1,2.5,4.2,2.5s3.3-0.8,3.3-2.1c0-1.2-1-1.9-4.6-2.9c-4.1-1.2-5.8-2.8-5.8-5.6
		c0-3.4,2.8-5.6,6.9-5.6C510.5,415.9,513.2,417.5,514.1,420.3z"/>
</g>
<g class="st1">
	<path class="st2" d="M545.2,435h-3.5c-0.3,0-0.5-0.1-0.6-0.4l-1.8-5.8h-8.4l-1.8,5.8c-0.1,0.3-0.3,0.4-0.6,0.4h-3.3
		c-0.3,0-0.4-0.2-0.3-0.5l7.5-23.9c0.1-0.3,0.3-0.5,0.6-0.5h4.3c0.4,0,0.6,0.1,0.7,0.5l7.6,23.9C545.6,434.8,545.5,435,545.2,435z
		 M538.1,424.9l-0.9-3c-0.7-2.3-1.5-5.2-2-7.3h-0.1c-0.5,2.1-1.3,5-2,7.4l-0.9,2.9H538.1z"/>
</g>
<g class="st1">
	<path class="st2" d="M562.3,420.3c0.1,0.3,0,0.5-0.3,0.6l-2.5,0.9c-0.4,0.1-0.5,0-0.6-0.3c-0.5-1.5-1.8-2.3-3.6-2.3
		c-1.9,0-3,0.8-3,2s0.8,1.6,4.4,2.7c4.2,1.2,5.9,2.9,5.9,5.8c0,3.5-2.9,5.7-7.2,5.7c-3.9,0-6.8-1.6-7.7-4.4c-0.1-0.4,0-0.6,0.4-0.7
		l2.2-1.1c0.4-0.1,0.6-0.1,0.7,0.4c0.5,1.6,2.1,2.5,4.2,2.5c2.1,0,3.3-0.8,3.3-2.1c0-1.2-1-1.9-4.6-2.9c-4.1-1.2-5.8-2.8-5.8-5.6
		c0-3.4,2.8-5.6,6.9-5.6C558.7,415.9,561.4,417.5,562.3,420.3z"/>
	<path class="st2" d="M580.2,420.3c0.1,0.3,0,0.5-0.3,0.6l-2.5,0.9c-0.4,0.1-0.5,0-0.6-0.3c-0.5-1.5-1.8-2.3-3.6-2.3
		c-1.9,0-3,0.8-3,2s0.8,1.6,4.4,2.7c4.3,1.2,6,2.9,6,5.8c0,3.5-2.9,5.7-7.2,5.7c-3.9,0-6.8-1.6-7.7-4.4c-0.1-0.4,0-0.6,0.4-0.7
		l2.2-1.1c0.4-0.1,0.6-0.1,0.7,0.4c0.5,1.6,2.1,2.5,4.2,2.5c2.1,0,3.3-0.8,3.3-2.1c0-1.2-1-1.9-4.6-2.9c-4.1-1.2-5.8-2.8-5.8-5.6
		c0-3.4,2.8-5.6,6.9-5.6C576.7,415.9,579.4,417.5,580.2,420.3z"/>
	<path class="st2" d="M588.2,427v1.1c0,2.4,1.3,3.9,3.9,3.9c2.5,0,3.3-1,3.9-2.2c0.3-0.4,0.4-0.5,0.9-0.3l2.1,1.1
		c0.5,0.2,0.5,0.5,0.3,0.9c-1.1,2.5-3.7,4-7.3,4c-5.2,0-8-3.1-8-7.4v-4.6c0-4.2,2.7-7.4,7.9-7.4c5,0,7.6,3.2,7.6,7.4v2.9
		c0,0.5-0.2,0.8-0.8,0.8h-10.5L588.2,427L588.2,427z M588.2,423.2v1h7.5v-1c0-2.3-1.3-3.8-3.8-3.8S588.2,420.9,588.2,423.2z"/>
	<path class="st2" d="M613.3,415.9c2.5,0,4,1.5,4.6,3.4c1.4-2,3.2-3.4,5.4-3.4c3.2,0,5.1,2.4,5.1,6.2v12.5c0,0.3-0.2,0.5-0.5,0.5
		h-3.1c-0.3,0-0.6-0.2-0.6-0.5v-11.7c0-2-0.8-3.1-2.4-3.1c-1.5,0-2.8,1.2-3.5,3.1v11.7c0,0.3-0.2,0.5-0.4,0.5h-3.3
		c-0.3,0-0.4-0.2-0.4-0.5v-11.7c0-2-0.9-3.1-2.4-3.1c-1.6,0-2.9,1.4-3.5,3.2v11.6c0,0.3-0.1,0.5-0.5,0.5h-3.3
		c-0.3,0-0.5-0.2-0.5-0.5v-17.8c0-0.2,0.1-0.4,0.5-0.4h3.2c0.3,0,0.5,0.2,0.5,0.4v2.3C609.2,417.4,610.9,415.9,613.3,415.9z"/>
	<path class="st2" d="M637.8,409.6v9.1c0.7-1.3,2.6-2.8,5.3-2.8c3.8,0,6.4,3,6.4,7.3v5c0,4.3-2.5,7.2-6.6,7.2
		c-2.7,0-4.5-1.4-5.3-2.7v1.9c0,0.3-0.2,0.4-0.4,0.4H634c-0.3,0-0.5-0.2-0.5-0.4v-25c0-0.2,0.2-0.4,0.4-0.4h3.3
		C637.6,409.1,637.8,409.3,637.8,409.6z M637.8,423.8v3.8c0,2.7,1.7,4.1,3.9,4.1c2.4,0,3.6-1.4,3.6-4.1v-3.8c0-2.6-1.3-4.2-3.6-4.2
		C639.5,419.6,637.8,421.2,637.8,423.8z"/>
	<path class="st2" d="M658.4,409.6v25c0,0.3-0.2,0.5-0.5,0.5h-3.2c-0.3,0-0.5-0.2-0.5-0.5v-25c0-0.3,0.2-0.5,0.5-0.5h3.2
		C658.2,409.1,658.4,409.3,658.4,409.6z"/>
</g>
<g class="st1">
	<path class="st2" d="M667,427v1.1c0,2.4,1.3,3.9,3.9,3.9c2.5,0,3.3-1,3.9-2.2c0.3-0.4,0.4-0.5,0.9-0.3l2.1,1.1
		c0.5,0.2,0.5,0.5,0.3,0.9c-1.1,2.5-3.7,4-7.3,4c-5.2,0-8-3.1-8-7.4v-4.6c0-4.2,2.7-7.4,7.9-7.4c5,0,7.6,3.2,7.6,7.4v2.9
		c0,0.5-0.2,0.8-0.8,0.8H667V427z M667,423.2v1h7.5v-1c0-2.3-1.3-3.8-3.8-3.8C668.3,419.3,667,420.9,667,423.2z"/>
</g>
<g class="st1">
	<path class="st2" d="M689.3,425.5c0,7.9-2.8,13.4-5.4,16.4c-0.2,0.3-0.3,0.3-0.5,0.3s-0.3-0.1-0.5-0.2l-2-1.5
		c-0.3-0.2-0.4-0.5-0.1-0.8c2.1-3,4.2-7.8,4.2-14.2c0-6.4-2.1-11.2-4.2-14.1c-0.2-0.3-0.2-0.6,0.1-0.9l2-1.5
		c0.2-0.1,0.3-0.2,0.5-0.2s0.3,0,0.5,0.3C686.6,412.1,689.4,417.6,689.3,425.5z"/>
</g>
<g class="st1">
	<path class="st2" d="M271.7,825.8v1.6c0,4.7-2.7,7.7-8.1,7.7h-3.7v7.4c0,0.3-0.2,0.5-0.5,0.5H256c-0.3,0-0.5-0.2-0.5-0.5v-24
		c0-0.2,0.2-0.4,0.4-0.4h7.5C269,818.2,271.7,821.3,271.7,825.8z M259.9,822.1v9.1h3.3c3.1,0,4.1-1.4,4.1-4.1v-1
		c0-2.6-1.1-4.1-4.1-4.1L259.9,822.1L259.9,822.1z"/>
</g>
<g class="st1">
	<path class="st2" d="M286.1,824.6v3c0,0.4-0.1,0.5-0.5,0.5H285c-2.7,0-4.4,1.4-5.1,3.5v11.1c0,0.3-0.2,0.4-0.4,0.4h-3.4
		c-0.2,0-0.4-0.1-0.4-0.4v-17.9c0-0.3,0.2-0.4,0.5-0.4h3.1c0.3,0,0.5,0.2,0.5,0.5v2.7c1-1.7,2.7-3.4,5.6-3.4
		C286,824,286.1,824.1,286.1,824.6z"/>
</g>
<g class="st1">
	<path class="st2" d="M304.4,831.5v4.4c0,4.5-2.5,7.5-8,7.5c-5.4,0-8-3.1-8-7.4v-4.4c0-4.5,2.6-7.6,8-7.6
		C301.9,823.9,304.4,827.1,304.4,831.5z M292.7,831.7v4.1c0,2.5,1.3,3.9,3.7,3.9c2.5,0,3.8-1.4,3.8-3.9v-4.1c0-2.5-1.3-4-3.8-4
		C294,827.6,292.7,829.1,292.7,831.7z"/>
	<path class="st2" d="M313.3,824.8v16.1c0,4.5-1.8,7.4-3.8,9.2c-0.2,0.2-0.5,0.3-0.9,0l-2.2-1.8c-0.2-0.2-0.3-0.4,0-0.8
		c1.1-1.2,2.7-2.4,2.7-6.3v-16.4c0-0.3,0.2-0.5,0.5-0.5h3.3C313.1,824.3,313.3,824.5,313.3,824.8z M313.3,817.8v3.2
		c0,0.4-0.2,0.6-0.6,0.6h-3c-0.4,0-0.6-0.2-0.6-0.6v-3.2c0-0.4,0.2-0.6,0.6-0.6h3C313.1,817.1,313.3,817.4,313.3,817.8z"/>
	<path class="st2" d="M321.9,835v1.1c0,2.4,1.3,3.9,3.9,3.9c2.5,0,3.3-1,3.9-2.2c0.3-0.4,0.4-0.5,0.9-0.3l2.1,1.1
		c0.5,0.2,0.5,0.5,0.3,0.9c-1.1,2.5-3.7,4-7.3,4c-5.2,0-8-3.1-8-7.4v-4.6c0-4.2,2.7-7.4,7.9-7.4c5,0,7.6,3.2,7.6,7.4v2.9
		c0,0.5-0.2,0.8-0.8,0.8h-10.5V835z M321.9,831.2v1h7.5v-1c0-2.3-1.3-3.8-3.8-3.8C323.2,827.3,321.9,828.9,321.9,831.2z"/>
	<path class="st2" d="M352.1,829.3c0,0.3,0,0.5-0.4,0.6l-2.6,0.7c-0.5,0.1-0.6,0.1-0.7-0.3c-0.4-1.1-0.9-2.7-3.4-2.7
		c-2.3,0-3.5,1.5-3.5,4v4.1c0,2.5,1.2,3.9,3.5,3.9c2.2,0,3-1.1,3.5-2.5c0.1-0.4,0.3-0.5,0.7-0.3l2.6,0.9c0.4,0.1,0.4,0.4,0.3,0.7
		c-0.6,2.7-3.1,5-7.4,5c-4.7,0-7.5-3.1-7.5-7.4v-4.5c0-4.4,2.8-7.5,7.5-7.5C348.8,823.9,351.5,825.9,352.1,829.3z"/>
	<path class="st2" d="M361.6,820.1v4.3h3.7c0.3,0,0.4,0.2,0.4,0.5v2.4c0,0.3-0.2,0.5-0.4,0.5h-3.7v9.5c0,1.4,0.7,2,2.3,2h1.4
		c0.3,0,0.5,0.1,0.5,0.5v2.8c0,0.3-0.2,0.5-0.5,0.5h-2.1c-3.8,0-5.7-2-5.7-5.2v-10h-2.3c-0.3,0-0.5-0.1-0.5-0.5V825
		c0-0.3,0.2-0.5,0.5-0.5h2.4v-4.3c0-0.3,0.2-0.5,0.5-0.5h3.1C361.4,819.7,361.6,819.9,361.6,820.1z"/>
	<path class="st2" d="M379.1,849.8c-0.3,0-0.4-0.2-0.4-0.4v-24.7c0-0.3,0.2-0.4,0.5-0.4h3.2c0.3,0,0.5,0.2,0.5,0.4v1.9
		c0.7-1.3,2.6-2.7,5.3-2.7c4,0,6.6,2.9,6.6,7.2v5c0,4.3-2.5,7.3-6.4,7.3c-2.8,0-4.6-1.4-5.3-2.8v8.7c0,0.3-0.1,0.4-0.4,0.4
		L379.1,849.8L379.1,849.8z M390.4,835.5v-3.8c0-2.6-1.3-4.1-3.6-4.1c-2.1,0-3.9,1.4-3.9,4.1v3.8c0,2.7,1.7,4.2,3.9,4.2
		C389.1,839.7,390.4,838.2,390.4,835.5z"/>
</g>
<g class="st1">
	<path class="st2" d="M409.6,824.6v3c0,0.4-0.1,0.5-0.5,0.5h-0.5c-2.7,0-4.4,1.4-5.1,3.5v11.1c0,0.3-0.2,0.4-0.4,0.4h-3.4
		c-0.2,0-0.4-0.1-0.4-0.4v-17.9c0-0.3,0.2-0.4,0.5-0.4h3.1c0.3,0,0.5,0.2,0.5,0.5v2.7c1-1.7,2.7-3.4,5.6-3.4
		C409.5,824,409.6,824.1,409.6,824.6z"/>
</g>
<g class="st1">
	<path class="st2" d="M427.9,831.5v4.4c0,4.5-2.6,7.5-8,7.5s-8-3.1-8-7.4v-4.4c0-4.5,2.6-7.6,8-7.6
		C425.4,823.9,427.9,827.1,427.9,831.5z M416.2,831.7v4.1c0,2.5,1.3,3.9,3.7,3.9c2.5,0,3.8-1.4,3.8-3.9v-4.1c0-2.5-1.3-4-3.8-4
		C417.5,827.6,416.2,829.1,416.2,831.7z"/>
	<path class="st2" d="M433,849.8c-0.3,0-0.4-0.2-0.4-0.4v-24.7c0-0.3,0.2-0.4,0.5-0.4h3.2c0.3,0,0.5,0.2,0.5,0.4v1.9
		c0.7-1.3,2.6-2.7,5.3-2.7c4,0,6.6,2.9,6.6,7.2v5c0,4.3-2.5,7.3-6.4,7.3c-2.8,0-4.6-1.4-5.3-2.8v8.7c0,0.3-0.1,0.4-0.4,0.4
		L433,849.8L433,849.8z M444.3,835.5v-3.8c0-2.6-1.3-4.1-3.6-4.1c-2.1,0-3.9,1.4-3.9,4.1v3.8c0,2.7,1.7,4.2,3.9,4.2
		C443,839.7,444.3,838.2,444.3,835.5z"/>
	<path class="st2" d="M468.5,831.5v4.4c0,4.5-2.5,7.5-8,7.5c-5.4,0-8-3.1-8-7.4v-4.4c0-4.5,2.6-7.6,8-7.6
		C465.9,823.9,468.5,827.1,468.5,831.5z M456.8,831.7v4.1c0,2.5,1.3,3.9,3.7,3.9c2.5,0,3.8-1.4,3.8-3.9v-4.1c0-2.5-1.3-4-3.8-4
		C458,827.6,456.8,829.1,456.8,831.7z"/>
	<path class="st2" d="M486.6,828.3c0.1,0.3,0,0.5-0.3,0.6l-2.5,0.9c-0.4,0.1-0.5,0-0.6-0.3c-0.5-1.5-1.8-2.3-3.6-2.3
		c-1.9,0-3,0.8-3,2s0.8,1.6,4.4,2.7c4.3,1.2,6,2.9,6,5.8c0,3.5-2.9,5.7-7.2,5.7c-3.9,0-6.8-1.6-7.7-4.4c-0.1-0.4,0-0.6,0.4-0.7
		l2.2-1.1c0.4-0.1,0.6-0.1,0.7,0.4c0.5,1.6,2.1,2.5,4.2,2.5s3.3-0.8,3.3-2.1c0-1.2-1-1.9-4.6-2.9c-4.1-1.2-5.8-2.8-5.8-5.6
		c0-3.4,2.8-5.6,6.9-5.6C483.1,823.9,485.7,825.5,486.6,828.3z"/>
	<path class="st2" d="M494.5,835v1.1c0,2.4,1.3,3.9,3.9,3.9c2.5,0,3.3-1,3.9-2.2c0.3-0.4,0.4-0.5,0.9-0.3l2.1,1.1
		c0.5,0.2,0.5,0.5,0.3,0.9c-1.1,2.5-3.7,4-7.3,4c-5.2,0-8-3.1-8-7.4v-4.6c0-4.2,2.7-7.4,7.9-7.4c5,0,7.6,3.2,7.6,7.4v2.9
		c0,0.5-0.2,0.8-0.8,0.8h-10.5V835z M494.5,831.2v1h7.5v-1c0-2.3-1.3-3.8-3.8-3.8C495.8,827.3,494.5,828.9,494.5,831.2z"/>
	<path class="st2" d="M509.9,836.3v-5c0-4.3,2.5-7.3,6.4-7.3c2.8,0,4.6,1.4,5.3,2.8v-9.1c0-0.2,0.1-0.4,0.4-0.4h3.3
		c0.3,0,0.4,0.2,0.4,0.4v25c0,0.3-0.2,0.4-0.5,0.4H522c-0.3,0-0.4-0.2-0.4-0.4v-1.9c-0.8,1.3-2.7,2.7-5.3,2.7
		C512.5,843.4,509.9,840.6,509.9,836.3z M521.7,835.6v-3.8c0-2.7-1.7-4.2-3.9-4.2c-2.4,0-3.6,1.6-3.6,4.2v3.8c0,2.7,1.3,4.1,3.6,4.1
		C519.9,839.7,521.7,838.3,521.7,835.6z"/>
</g>
<g>
	<path class="st3" d="M417.5,292.6c-0.8,0.9-1.4,1.9-2,3c-1,1.4-2,2.8-2.9,4.3c-0.7,1.2-1.7,2.2-2.9,2.8c-0.7,0.2-1.5,0.3-2.2,0.2
		c-8.4,0-16.8,0-25.3,0c-1.6,0-3.1-0.8-4-2.2c-1.2-1.7-2.3-3.5-3.5-5.2c-0.5-1-1.2-1.9-1.9-2.8c-0.8-1.2-1.6-2.4-2.4-3.5
		c-0.7-1-1.1-2.2-1-3.5c0-1.1,0-2.2,0-3.3v-10.3c0-3.4,0-6.9,0-10.3c-0.3-1.6-0.7-3.1-1.4-4.5c-2.4-5.5-5.3-10.7-8.6-15.7
		c-2.4-3.8-5.1-7.3-8.1-10.6c-1-1.2-2-2.5-2.9-3.8c-1.5-2-2.6-4.2-3.9-6.3c-0.1-0.6-0.3-1.1-0.8-1.5c-1.2-2.9-2.3-5.8-3.2-8.8
		c-0.8-3.4-1.5-6.9-1.9-10.3c-0.4-3-0.1-6.1-0.2-9.1c0-0.4,0.3-0.8,0.2-1.2c0.2-1.1,0.3-2.3,0.5-3.4c0.3-2.3,0.9-4.5,1.4-6.7
		c0.9-3,2-5.9,3.2-8.8c0.4-0.4,0.7-1,0.9-1.5c1.8-3.6,3.9-7,6.5-10.1l3-3.4c2.4-2.6,5.1-4.9,7.9-6.9l2.2-1.5
		c3.3-2.1,6.7-3.8,10.3-5.2c3.3-1.1,6.7-2.1,10.1-2.8c4.1-0.6,8.3-0.9,12.4-0.8c1,0.1,2.1,0.2,3.2,0.2l5.1,0.7
		c3.5,0.7,6.9,1.7,10.3,2.9c3.5,1.5,6.9,3.2,10.1,5.2c0.7,0.6,1.4,1.1,2.2,1.5c2.9,2.2,5.6,4.5,8.1,7.1l2.6,3l1.1,1.5
		c2.1,2.8,4,5.7,5.6,8.8c0.1,0.5,0.3,0.9,0.6,1.3c1.3,2.9,2.4,5.8,3.3,8.8c0.4,1.9,0.8,3.8,1.2,5.6c0.3,1.6,0.5,3.1,0.7,4.7
		c0.2,3.4,0.2,6.8,0,10.1c-0.2,1.5-0.5,3-0.7,4.5c-0.3,1.8-0.7,3.6-1.2,5.4c0,0.2,0,0.3,0,0.5c-0.2,0.4-0.3,0.9-0.5,1.3
		c-0.8,2.5-1.8,4.9-2.8,7.3c-0.3,0.5-0.6,1-0.7,1.5c-0.8,1.3-1.5,2.7-2.3,4c-1.3,2.2-2.9,4.2-4.5,6.3c-1,1-2,2.2-2.8,3.4
		c-0.2,0.2-0.5,0.4-0.6,0.7c-2.1,2.7-4.1,5.6-5.9,8.5c-1.7,2.6-3.2,5.3-4.5,8.1c-1,1.8-1.9,3.6-2.6,5.5c-0.7,1.5-1.2,3.1-1.4,4.7
		c0,3.4,0,6.9,0,10.3v10.3c0,0.9-0.1,1.9,0,2.8c0.1,1.5-0.4,3-1.3,4.2C418.7,290.5,418.1,291.6,417.5,292.6z M356.5,169.6
		c-1.1,1.5-2,3.2-2.8,4.9c-0.1,0.1-0.2,0.2-0.3,0.4c-3.7,7.6-5.2,16-4.5,24.4c0.5,5.5,2,11,4.3,16c2.7,5.8,7,10.4,10.9,15.4
		c0.1,0.3,0.3,0.6,0.5,0.8l1.5,2.2c1.8,2.5,3.4,5.3,5,7.9l2.7,5c0.7,1.5,1.4,2.9,2,4.4c0.2,0.6,0.7,0.9,1.3,0.9c6.8,0,13.6,0,20.4,0
		c2.5,0,5,0,7.5,0s5.1,0,7.7,0c0.3,0,0.6-0.1,0.7-0.4c0.7-1.4,1.3-2.8,1.9-4.3c1-1.9,2.1-3.7,3-5.6c0.1-0.2,0.3-0.3,0.4-0.5
		c1.9-3.3,4-6.5,6.2-9.6c1.9-2.4,3.9-4.8,5.8-7.2c15.1-18.7,13.3-45.9-4.1-62.5c-1-1.2-2.3-2.1-3.6-2.9c-0.7-0.7-1.4-1.3-2.3-1.8
		c-1.5-1.2-3.2-2.1-5-2.9c-0.1-0.1-0.3-0.3-0.4-0.4c-3.2-1.6-6.6-2.8-10.1-3.5c-3.4-0.9-6.8-1.2-10.3-1.1c-1.8-0.1-3.6,0-5.4,0.2
		c-1.7,0.1-3.3,0.4-4.9,0.9c-0.2,0-0.5,0-0.7,0.1c-4.1,1-8.1,2.5-11.8,4.6c-2.9,1.6-5.5,3.5-7.9,5.8c-0.1,0-0.2,0.1-0.3,0.2
		C361.1,163.5,358.6,166.4,356.5,169.6L356.5,169.6z M405.3,262.1h-20.6c-1.4,0-2.9,0-4.3,0c-0.5,0-0.8,0.1-0.8,0.7
		c0,2.9,0,5.9,0,8.8c0,0.5,0.2,0.7,0.7,0.7c1.5,0,2.9,0,4.4,0h20.6c1.5,0,2.9,0,4.4,0c0.5,0,0.7-0.2,0.7-0.7c0-2.9,0-5.9,0-8.8
		c0-0.6-0.3-0.7-0.8-0.7C408.2,262.1,406.8,262.1,405.3,262.1L405.3,262.1z M395,292.9c3.1,0,6.3,0,9.4,0.1c0.5,0,0.7-0.3,0.9-0.6
		c1.5-2.2,2.9-4.4,4.4-6.6c0.5-0.7,0.7-1.5,0.7-2.4c0-0.5-0.1-0.7-0.7-0.7H395h-14.7c-0.3,0-0.7-0.1-0.7,0.3c-0.1,0.7,0,1.4,0.3,2.1
		c1.7,2.5,3.3,5,4.9,7.4c0.2,0.3,0.5,0.5,0.8,0.5C388.8,292.9,391.9,292.9,395,292.9L395,292.9z"/>
	<path class="st3" d="M456.8,234.7c0.5-1.6,1.8-2.8,3.3-3.3c1.1-0.3,2.3-0.3,3.4,0l5.9,2.9c4.5,2.3,9,4.6,13.6,6.8
		c0.3,0.2,0.7,0.3,1,0.4c1.4,0.6,2.5,1.7,3.2,3c0.3,1.3,0.3,2.6,0,3.9c-0.7,1.4-1.8,2.4-3.2,3c-1.1,0.3-2.2,0.3-3.3,0
		c-1.1-0.6-2.2-1.2-3.4-1.6l-10.1-5.1c-1.3-0.7-2.6-1.4-3.9-2c-1.1-0.6-2.2-1.2-3.5-1.6c-1.4-0.7-2.4-1.8-3-3.2
		C456.5,236.9,456.6,235.8,456.8,234.7z"/>
	<path class="st3" d="M305.9,251.6c-1.5-0.7-2.6-1.9-3.1-3.5c-0.2-1-0.2-2,0-3c0.6-1.5,1.7-2.8,3.1-3.5c2.4-1,4.7-2.1,6.9-3.4
		l10.3-5.1l3.2-1.6c1.1-0.3,2.3-0.4,3.5-0.2c1.5,0.7,2.7,1.9,3.4,3.4c0.2,1,0.2,2.1,0,3.1c-0.7,1.6-1.9,2.8-3.5,3.6
		c-2.3,1-4.5,2.1-6.7,3.3c-3.5,1.7-6.9,3.4-10.3,5.2l-3.6,1.7C308.1,251.8,307,251.8,305.9,251.6z"/>
	<path class="st3" d="M467.1,145.7l10.1-5.1c1.2-0.5,2.4-1,3.6-1.7c1.1-0.2,2.1-0.2,3.2,0c1.4,0.6,2.5,1.7,3.2,3
		c0.3,1.3,0.3,2.6,0,3.9c-0.6,1.2-1.6,2.2-2.8,2.8c-2.5,1.1-5,2.4-7.4,3.7c-3.5,1.6-6.9,3.3-10.3,5.1c-1,0.4-2,0.9-3,1.5
		c-1.3,0.3-2.6,0.3-3.9,0c-1.3-0.6-2.4-1.7-3-3c-0.2-1.2-0.2-2.4,0-3.5c0.5-1.4,1.6-2.6,3-3.2C462.3,148.2,464.7,147.1,467.1,145.7z
		"/>
	<path class="st3" d="M302.7,142.5c0.4-1.2,1.2-2.3,2.3-2.9c1.4-0.9,3.2-1,4.7-0.3c1,0.4,2,1.1,3,1.4c1.3,0.7,2.6,1.4,3.9,2
		c2.1,1,4.2,2.2,6.4,3.1c2.3,1.3,4.6,2.5,7,3.5c1.4,0.7,2.6,1.9,3.2,3.4c0.2,1,0.2,2.1,0,3.1c-0.6,1.4-1.8,2.6-3.2,3.2
		c-1.7,0.4-3.6,0.2-5.1-0.8c-3.7-1.9-7.5-3.8-11.2-5.6c-0.3-0.1-0.6-0.3-0.9-0.4l-7-3.5c-1.5-0.6-2.6-1.8-3.1-3.3
		C302.6,144.5,302.6,143.4,302.7,142.5z"/>
	<path class="st3" d="M295.5,200.2c-1.2-0.6-2.2-1.5-2.8-2.7c-0.8-1.7-0.6-3.6,0.4-5.1c0.6-0.9,1.5-1.6,2.5-1.9
		c0.9-0.2,1.9-0.3,2.9-0.2c1.3,0,2.6,0,3.9-0.1c3.4,0.1,6.9,0.1,10.3,0c0.4,0,0.8,0.1,1.2,0.1c1.9-0.1,3.8,0,5.8,0.2
		c1.4,0.6,2.6,1.8,3.2,3.2c0.3,1.1,0.3,2.2,0,3.3c-0.6,1.4-1.8,2.6-3.2,3.2c-0.8,0.2-1.6,0.3-2.4,0.2h-4.5h-10.3
		C300.2,200.3,297.8,200.6,295.5,200.2z"/>
	<path class="st3" d="M470.1,190.5c1.3-0.3,2.7-0.3,4-0.3c1,0,2,0,3.1-0.1c1.1,0.1,2.2,0.1,3.3,0.1c2.3,0,4.5,0.1,6.8-0.1
		c1.4,0.1,2.7,0.1,4.1,0.1c1,0,2,0,3,0.3c1.4,0.7,2.6,2,3.2,3.4c0.1,1,0.1,2.1-0.2,3.1c-0.7,1.5-1.9,2.7-3.5,3.4l-6.7,0.1
		c-3.4-0.1-6.8-0.1-10.1,0h-4.9c-0.7,0-1.3-0.1-2-0.2c-1.5-0.7-2.6-1.9-3.2-3.4c-0.3-1-0.3-2.1,0-3.2
		C467.6,192.3,468.7,191.1,470.1,190.5z"/>
	<path class="st3" d="M362.5,179.9c0.5-1.1,1.1-2.3,1.8-3.3c1.7-2.5,3.5-4.8,5.6-7c1.5-1.4,3.1-2.6,4.7-3.9c1.3-0.8,2.7-1.7,4.1-2.4
		c1.9-1,3.9-1.8,6-2.5c1.9-0.5,3.9-0.9,5.8-1.2l4.5-0.3c0.5,0.3,1,0.1,1.5,0.2c0.9,0.4,1.7,0.9,2.4,1.6c1.9,2.1,1.7,5.4-0.4,7.3
		c-0.4,0.3-0.8,0.6-1.3,0.8l-0.4,0.2l-1.7,0.3c-3.5,0-6.9,0.7-10.1,2c-0.1,0.1-0.2,0.1-0.3,0.2c-0.7,0.2-1.4,0.4-2,0.9
		c-3.2,1.7-5.9,4-8,6.9c-0.3,0.2-0.5,0.4-0.6,0.7c-2.2,2.8-3.6,6.1-4.3,9.6c-0.4,1.6-0.6,3.3-0.6,4.9c0.2,2.3-1.2,4.4-3.4,5.2
		c-0.1,0.1-0.2,0.1-0.3,0.2l-1.4,0.1c-2.1,0-4-1.3-4.8-3.2c-0.2-0.5-0.3-1.1-0.3-1.6c-0.1-5.3,1-10.5,3.2-15.3
		C362.4,180.2,362.4,180.1,362.5,179.9z"/>
</g>
<g>
	<path class="st3" d="M348.2,626.5l2.2-1.1c3.6-1.5,7.4-2.6,11.2-3.1c6.1-0.7,12.3-0.2,18.3,1.6c8,2.5,16.5,2.9,24.8,1.3
		c4.3-0.8,8.4-2.3,12.7-2.9c3.7-0.4,7.3-0.4,11,0c1.6,0.3,3.3,0.6,4.9,1c2.1,0.5,4,1.3,6,2l2.1,1c1,0.6,1.9,1.1,2.8,1.7
		c2.2,1.4,4.3,3,6.3,4.8c1.3,1.4,2.7,2.9,3.9,4.5c0.9,1.7,2,3.2,2.9,4.9c1,2,1.9,4.1,2.7,6.2c0.6,2.2,1.1,4.3,1.5,6.5l0.4,4.6
		c0,3.7,0,7.3,0,11c0,0.4,0,0.8,0,1.2c0,2.7,0.2,5.4-0.4,8.1l-0.5,1.9c-1.8,4.8-5.6,8.5-10.4,10.3l-1.8,0.5c-3,0.7-6.1,0.2-9.2,0.4
		h-89.1l-8.9-0.2c-0.7-0.3-1.5-0.6-2.3-0.8c-1.5-0.6-2.9-1.4-4.2-2.3c-2.7-2-4.8-4.8-6-8c-0.3-0.5-0.1-1.2-0.6-1.6
		c-0.4-3.2-0.2-6.4-0.3-9.6c0-3.7,0-7.5,0-11.2c0-1.6,0.4-3.2,0.3-4.9c0.5-2,1-4.1,1.6-6.1c1.3-4,3.2-7.7,5.6-11.2l3.8-4.4
		C342,630.4,345,628.3,348.2,626.5z M406.1,636.4l-4.5,0.7l-6.7,0.3c-0.2,0-0.3,0-0.5,0c-4.7,0-9.5-0.6-14.1-1.7
		c-2.6-0.6-5.2-1.3-7.8-2c-3.6-0.7-7.4-0.7-11,0c-0.9,0.1-1.7,0.3-2.5,0.6c-2.5,0.5-4.8,1.6-6.9,3c-0.7,0.3-1.4,0.7-2,1.2
		c-1.7,1.1-3.3,2.5-4.5,4.1c-1.5,1.7-2.8,3.7-3.6,5.9c-1.7,3.4-2.6,7.2-2.7,11c-0.2,3.8-0.1,7.6-0.1,11.4c0,1.8-0.1,3.6-0.1,5.4
		c0,3,2.4,5.5,5.4,5.6c1.9,0.1,3.9,0,5.8,0h7.5h25.9h33.4h1.1h26c0.4,0,0.8,0,1.2,0c2.8-0.3,4.9-2.5,5.1-5.3c0-5.2,0-10.4-0.1-15.5
		c0-1.4-0.1-2.8-0.2-4.2c-2.1-14.7-13-23-26-23.6c-2.4-0.1-4.8,0.1-7.2,0.5L406.1,636.4z"/>
	<path class="st3" d="M428.3,555.8l2,3.8c0.2,0.5,0.4,1.1,0.6,1.6c1.2,3,2.1,6.2,2.6,9.3c0.4,3.7,0.4,7.5,0,11.2
		c-0.1,0.2-0.1,0.4-0.2,0.6c-0.6,3.6-1.7,7.1-3.3,10.4l-2.2,4c-1.7,2.5-3.6,4.9-5.7,7.1c-1.7,1.5-3.4,2.9-5.2,4.3
		c-3.4,2.3-7.1,4.1-11,5.3c-0.2,0-0.5,0.1-0.7,0.1c-6.2,1.7-12.8,1.9-19.1,0.5c-3.6-0.7-7-2-10.2-3.8c-1.2-0.7-2.4-1.5-3.6-2.2
		l-5-4.3c-2.2-2.3-4.2-4.8-6-7.5l-2-3.8c-0.9-1.9-1.6-3.8-2.1-5.8c-0.5-1.7-0.9-3.4-1.1-5.2c-0.4-3.7-0.4-7.3,0-11
		c0-0.2,0-0.4,0-0.6c0.7-3.6,1.8-7,3.3-10.4l2.1-3.9c1.1-1.9,2.5-3.7,4-5.3c0.6-0.6,1.1-1.3,1.6-1.9l5.5-4.5c3.2-2.2,6.7-3.9,10.4-5
		c0.2,0,0.4,0,0.5-0.3l5.3-1.1c2-0.3,3.9-0.4,5.9-0.5l5.1,0.3l6.1,1.3c1.5,0.5,3,1,4.5,1.7c2.3,1,4.4,2.2,6.5,3.6
		c1.9,1.4,3.8,3,5.5,4.7l1.8,1.9C425.7,552.2,427.1,554,428.3,555.8z M406.1,550.7c-3.5-1.6-7.3-2.4-11.2-2.4c-0.9,0-1.8,0-2.6,0.1
		c-3.1,0.2-6.1,1-8.8,2.4c-4.2,1.8-7.8,4.7-10.5,8.4c-0.1,0.1-0.3,0.3-0.4,0.4c-4.6,6.1-6.4,13.9-5,21.4c0.7,4.3,2.5,8.3,5.2,11.7
		c2.8,3.9,6.6,6.9,11,8.8c3.5,1.6,7.3,2.5,11.2,2.4c1.1,0,2.2,0,3.2-0.2c2.8-0.3,5.5-1,8-2.2c4.3-1.8,8.1-4.7,10.8-8.5l0.2-0.2
		c0.1-0.1,0.3-0.3,0.4-0.5c4.7-6.4,6.4-14.6,4.5-22.4c-0.7-3.7-2.4-7.2-4.7-10.2l-0.3-0.3C414.3,555.5,410.5,552.5,406.1,550.7z"/>
	<path class="st3" d="M311.7,548.7c1.7-0.4,3.5-0.2,5.3-0.5l4.3,0.4c2.3,0.5,4.5,1.1,6.7,1.9c1.5,0.8,3.1,1.5,4.5,2.5
		c2.5,1.7,4.8,3.9,6.7,6.3l0.1,0.2c2.4,3.3,4.1,7.1,5,11.2c0.7,3.6,0.7,7.4,0,11c-0.8,4-2.5,7.9-5,11.2c-0.2,0.1-0.4,0.3-0.5,0.6
		c-2.9,3.6-6.6,6.4-10.7,8.3c-3.9,1.6-8,2.4-12.2,2.3c-6-0.2-11.8-2.3-16.6-6c-1.7-1.3-3.1-2.8-4.3-4.6c0-0.1-0.2-0.1-0.3-0.1
		l-0.4-0.7c-2.4-3.2-4-7-4.8-10.9c-0.7-3.6-0.7-7.4,0-11c0.8-4.1,2.5-7.9,4.9-11.2l0.2-0.4c0.9-0.9,1.7-1.8,2.5-2.7
		c2.1-2.2,4.6-4,7.4-5.3c0.4-0.2,0.7-0.4,1-0.6C307.8,549.9,309.7,549.2,311.7,548.7z M328.4,588.3l0.7-0.7c4.3-4.5,5.7-11.1,3.6-17
		c-0.9-2.6-2.5-4.9-4.5-6.8c-6.3-5.8-16.1-5.8-22.4,0c-2.1,1.8-3.7,4.1-4.5,6.8c-1.4,3.6-1.4,7.6,0,11.2c0.8,2.6,2.4,4.9,4.5,6.7
		C312.3,594.2,322.1,594.1,328.4,588.3L328.4,588.3z"/>
	<path class="st3" d="M495,559.2l0.2,0.2c2.4,3.3,4.1,7.1,5,11.2c0.7,3.7,0.7,7.5,0,11.2c-0.9,4-2.5,7.7-5,11
		c-0.2,0.1-0.4,0.3-0.4,0.6c-0.7,0.8-1.4,1.6-2.1,2.3c-2.5,2.5-5.4,4.5-8.6,6c-2.3,0.9-4.7,1.6-7.1,2l-4,0.3l-3.9-0.3
		c-2.4-0.4-4.8-1.1-7.1-2c-0.6-0.3-1.3-0.5-1.9-0.9c-2.9-1.5-5.6-3.6-7.8-6c-0.4-0.7-0.9-1.2-1.5-1.7l-0.3-0.4
		c-1.5-2-2.7-4.2-3.6-6.6c-0.5-1.5-1-3.1-1.5-4.6c0-0.4,0-0.7,0-1.1c-0.4-2.4-0.4-4.8-0.2-7.2c0.2-0.9,0.3-1.8,0.3-2.7
		c0.4-1.3,0.8-2.5,1.2-3.8c0.9-2.7,2.3-5.2,4-7.4c0.2-0.1,0.1-0.3,0.2-0.4c0.8-0.8,1.6-1.6,2.3-2.5c2.1-2.3,4.7-4.2,7.5-5.5
		c0.4-0.1,0.8-0.3,1.1-0.6l6.1-1.8l5-0.5l4.3,0.4c2.3,0.5,4.5,1.1,6.7,1.9c1.7,0.8,3.3,1.7,4.8,2.7
		C491.1,554.9,493.2,556.9,495,559.2z M488.5,581.7c1.4-3.6,1.4-7.6,0-11.2c-0.9-2.5-2.3-4.7-4.2-6.5c-3.6-3.6-8.7-5.2-13.8-4.5
		c-9.2,1.1-15.7,9.4-14.6,18.6c1.1,9.2,9.4,15.7,18.6,14.6l0,0c3.8-0.3,7.3-1.9,10-4.7C486.3,586.3,487.6,584.1,488.5,581.7z"/>
	<path class="st3" d="M495,620c2.3,1.8,4.3,3.9,6.1,6.3c0.5,0.8,1,1.5,1.4,2.3c1.5,2.7,2.6,5.6,3.3,8.7c0.1,1.7,0.5,3.5,0.5,5.2
		c0.1,2.3-1.2,4.4-3.2,5.4l-0.5,0.3c-1.3,0.2-2.6,0.2-3.8,0c-1.4-0.7-2.5-1.8-3.3-3.2c-0.3-1.1-0.4-2.3-0.4-3.4
		c0-1.5-0.3-2.9-0.9-4.3c0.1-0.4-0.3-0.7-0.4-1c-0.8-2-2-3.9-3.5-5.5c-1.7-1.8-3.9-3.2-6.3-3.9c-0.1-0.1-0.3-0.1-0.5-0.2
		c-3.5-0.9-7.2-0.5-10.7-0.5c-2.6-0.1-5.1-0.1-7.7,0c-1.2,0-2.4,0.3-3.5,0.7c-0.5-0.1-0.9,0.6-1.5,0.1c-0.3-0.3-0.7-0.7-1-1
		c-1.4-1.5-3-2.9-4.6-4.2c-1-0.8-2-1.5-3.1-2.4c0.6,0,0.7-0.3,1-0.5c3.6-2.3,7.8-3.6,12-3.8c2.8-0.1,5.6-0.1,8.4-0.1
		c3.7,0.2,7.3-0.1,11,0.3l0.6,0.1C488.2,616.2,491.8,617.8,495,620z"/>
	<path class="st3" d="M294.9,620c3.4-2.6,7.3-4.2,11.5-4.7c4.6-0.6,9.3-0.2,13.9-0.3c2.7-0.1,5.4,0,8,0.3c3.5,0.7,6.9,2.1,9.9,4.1
		c-2.7,1.9-5.1,4-7.4,6.3c-0.2,0.1-0.4,0.3-0.5,0.5c-0.3,0.7-1.2,1-1.9,0.7c-0.1,0-0.1-0.1-0.2-0.1c-0.2-0.1-0.4-0.2-0.6-0.2
		c-3.5-0.9-7.1-0.5-10.6-0.5c-2.6-0.1-5.1-0.1-7.7,0c-1.2,0-2.4,0.2-3.5,0.7c-0.2,0-0.3,0-0.5,0.1c-4.7,1.7-8.2,5.5-9.6,10.3
		c-0.6,1.8-1,3.7-1,5.5c0,0.7-0.1,1.5-0.3,2.2c-0.7,1.5-1.9,2.6-3.4,3.2c-1.2,0.3-2.6,0.4-3.8,0.1c-1.4-0.8-2.5-2-3.2-3.5
		c-0.1-0.2-0.2-0.4-0.2-0.5c-0.4-6.4,1.4-12.7,5.1-17.9C290.5,624,292.6,621.8,294.9,620z"/>
</g>
<path class="st3" d="M395,912.1c21.1,0,42.2,0,63.2,0c6.4-0.2,12.4,3.1,15.6,8.6c1.6,2.6,2.4,5.5,2.4,8.6c0,32.6,0,65.1,0,97.7
	c0,4.6-1.8,9-5.1,12.2c-10.2,10.2-20.4,20.4-30.6,30.6c-3.3,3.3-7.8,5-12.4,4.9c-32.2,0-64.5,0-96.7,0c-9.2,0-16.3-6.4-17.6-15.6
	c-0.1-0.6-0.1-1.1-0.1-1.7c0-42.7,0-85.3,0-127.9c0-9.4,7.5-17,16.8-17.3c9.4-0.1,18.9,0,28.3,0L395,912.1z M464.5,935.3
	c0-2.1,0.1-4.2,0-6.3c-0.2-2.2-1.7-4-3.7-4.8c-2.6-1-5.2-0.4-7.8-0.5c-0.2,0-0.5,0-0.7,0H419c-0.2,0-0.5,0-0.7,0
	c-3.9-0.1-7.8-0.1-11.7,0c-3.9-0.1-7.8-0.1-11.7,0c-3.9-0.1-7.8-0.1-11.7,0c-3.8-0.1-7.6-0.1-11.5,0c-3.9-0.1-7.8-0.1-11.7,0
	c-3.9-0.1-7.8-0.1-11.7,0c-3.9-0.1-7.8-0.1-11.7,0c-1.9,0-3.9-0.1-5.8,0c-3.1,0.2-5.5,2.4-5.7,5.1c-0.1,2.2,0,4.3,0,6.5v116
	c0,1.9,0,3.9,0,5.8c-0.1,3.1,2.4,5.8,5.6,5.8l0,0c2,0.1,4.1,0,6.1,0h11.5c0.4,0,0.8,0,1.3,0h38.6h18.2c3.6,0,7.2,0,10.8,0
	c0.5,0,0.8-0.1,0.8-0.7c0-3.7,0-7.3-0.1-11c0.1-3.9,0.1-7.8,0-11.7c0.1-3.8,0.1-7.6,0-11.5c0.1-2-0.1-4,0.6-5.9c1-2.5,3-4.5,5.6-5.3
	c1.8-0.3,3.7-0.5,5.5-0.4h23.3H464c0.4,0,0.6-0.1,0.6-0.6c0-3.6,0-7.3,0-10.9L464.5,935.3L464.5,935.3z M429.7,1062.8
	c1.1-0.3,2.1-0.9,2.9-1.7l29.9-29.9c0.6-0.5,1-1.2,1.4-1.8c0.5-1,0.5-1.1-0.7-1.1c-10.8,0-21.6,0-32.5,0c-0.9,0-1.1,0.2-1.1,1.1
	c0,10.9,0,21.7,0,32.6L429.7,1062.8z"/>
</svg>
