<?xml version="1.0" encoding="utf-8"?>
<!-- Generator: Adobe Illustrator 24.1.1, SVG Export Plug-In . SVG Version: 6.00 Build 0)  -->
<svg version="1.1" id="Layer_1" xmlns="http://www.w3.org/2000/svg" xmlns:xlink="http://www.w3.org/1999/xlink" x="0px" y="0px"
	 viewBox="0 0 792 1260.6" style="enable-background:new 0 0 792 1260.6;" xml:space="preserve">
<style type="text/css">
	.st0{fill:#FFFEFF;}
	.st1{enable-background:new    ;}
	.st2{fill:#2E3442;}
	.st3{fill:#E2AC42;}
</style>
<rect x="0.3" class="st0" width="792" height="1260.6"/>
<g class="st1">
	<path class="st2" d="M227.6,58.7v14c0,4.6-2.8,7.9-8,7.9c-5.3,0-8-3.1-8-7.9v-14c0-0.3,0.1-0.4,0.4-0.4h3c0.3,0,0.5,0.1,0.5,0.4
		v13.9c0,2.8,1.3,4.5,4.2,4.5s4.2-1.7,4.2-4.5V58.7c0-0.3,0.1-0.4,0.4-0.4h3C227.4,58.3,227.6,58.5,227.6,58.7z"/>
</g>
<g class="st1">
	<path class="st2" d="M244.1,67.3c0.1,0.3,0,0.5-0.3,0.6l-2.2,0.8c-0.3,0.1-0.5,0-0.6-0.3c-0.5-1.3-1.6-2-3.2-2
		c-1.7,0-2.7,0.7-2.7,1.8c0,1,0.7,1.4,3.9,2.3c3.8,1,5.2,2.5,5.2,5.1c0,3.1-2.5,5.1-6.4,5.1c-3.5,0-6-1.4-6.8-3.9
		c-0.1-0.3,0-0.5,0.4-0.7l1.9-1c0.4-0.1,0.5-0.1,0.7,0.4c0.4,1.4,1.9,2.2,3.7,2.2c1.9,0,2.9-0.7,2.9-1.9c0-1.1-0.9-1.7-4-2.5
		c-3.6-1-5.1-2.4-5.1-5c0-3,2.4-5,6.1-5C241,63.4,243.3,64.8,244.1,67.3z"/>
	<path class="st2" d="M260.4,68.9v11c0,0.3-0.1,0.4-0.4,0.4h-2.6c-0.3,0-0.4-0.2-0.4-0.4v-2c-1,1.7-2.7,2.7-4.7,2.7
		c-3.1,0-5.1-2-5.1-5s2-4.7,6.3-5c1.2-0.1,2.3-0.1,3.4,0V69c0-1.9-1-2.6-2.7-2.6s-2.3,0.6-2.8,1.8c-0.1,0.3-0.2,0.4-0.6,0.3
		l-2.6-0.7c-0.3-0.1-0.4-0.2-0.3-0.5c0.5-2.3,2.6-4,6.4-4C258.1,63.4,260.4,65.2,260.4,68.9z M256.8,74.9v-2c-1,0-2.1,0-3.1,0.1
		c-1.9,0.2-3.1,0.9-3.1,2.4c0,1.3,0.9,2.2,2.5,2.2C254.9,77.6,256.2,76.6,256.8,74.9z"/>
	<path class="st2" d="M268.6,57.8v8c0.7-1.2,2.3-2.4,4.7-2.4c3.4,0,5.6,2.6,5.6,6.4v4.4c0,3.8-2.2,6.3-5.8,6.3c-2.3,0-4-1.2-4.7-2.4
		v1.7c0,0.2-0.1,0.4-0.4,0.4h-2.8c-0.3,0-0.4-0.2-0.4-0.4v-22c0-0.2,0.1-0.4,0.4-0.4h2.9C268.5,57.4,268.6,57.6,268.6,57.8z
		 M268.6,70.4v3.4c0,2.3,1.5,3.6,3.4,3.6c2.1,0,3.2-1.3,3.2-3.6v-3.4c0-2.3-1.1-3.7-3.2-3.7C270.1,66.7,268.6,68,268.6,70.4z"/>
	<path class="st2" d="M286.8,58v2.9c0,0.4-0.2,0.5-0.5,0.5h-2.6c-0.4,0-0.6-0.2-0.6-0.5V58c0-0.3,0.2-0.5,0.6-0.5h2.6
		C286.6,57.4,286.8,57.6,286.8,58z M286.8,64.1v15.7c0,0.3-0.2,0.4-0.4,0.4h-2.8c-0.3,0-0.5-0.2-0.5-0.4V64.1c0-0.3,0.1-0.4,0.5-0.4
		h2.8C286.6,63.7,286.8,63.9,286.8,64.1z"/>
	<path class="st2" d="M295.1,57.8v22c0,0.3-0.1,0.4-0.4,0.4h-2.8c-0.3,0-0.5-0.2-0.5-0.4v-22c0-0.3,0.1-0.4,0.5-0.4h2.8
		C294.9,57.4,295.1,57.5,295.1,57.8z"/>
	<path class="st2" d="M303.3,58v2.9c0,0.4-0.2,0.5-0.5,0.5h-2.6c-0.4,0-0.6-0.2-0.6-0.5V58c0-0.3,0.2-0.5,0.6-0.5h2.6
		C303.2,57.4,303.3,57.6,303.3,58z M303.3,64.1v15.7c0,0.3-0.1,0.4-0.4,0.4h-2.8c-0.3,0-0.5-0.2-0.5-0.4V64.1c0-0.3,0.1-0.4,0.5-0.4
		h2.8C303.2,63.7,303.3,63.9,303.3,64.1z"/>
	<path class="st2" d="M312.6,60.1v3.8h3.3c0.2,0,0.4,0.2,0.4,0.5v2.2c0,0.3-0.1,0.4-0.4,0.4h-3.3v8.3c0,1.2,0.7,1.8,2,1.8h1.3
		c0.3,0,0.4,0.1,0.4,0.4v2.4c0,0.3-0.1,0.4-0.4,0.4H314c-3.4,0-5-1.8-5-4.6v-8.8h-2.1c-0.3,0-0.4-0.1-0.4-0.4v-2.2
		c0-0.3,0.1-0.5,0.4-0.5h2.1V60c0-0.2,0.1-0.4,0.4-0.4h2.8C312.5,59.6,312.6,59.8,312.6,60.1z"/>
</g>
<g class="st1">
	<path class="st2" d="M333.4,64.3l-5.6,15.3c-1.2,3.2-2.7,5.6-4.9,7c-0.3,0.2-0.5,0.3-0.9,0l-1.6-1.7c-0.2-0.2-0.1-0.6,0.1-0.8
		c1.8-1.2,2.9-2.3,3.7-4.8l-5.9-15c-0.1-0.3,0.1-0.5,0.4-0.5h3.1c0.3,0,0.4,0.1,0.5,0.4l1.9,5.5c0.8,2.4,1.4,4.1,1.8,6h0.1
		c0.5-2.3,1-3.7,1.8-6l1.8-5.6c0.1-0.2,0.3-0.4,0.5-0.4h2.9C333.3,63.7,333.5,64,333.4,64.3z"/>
</g>
<g class="st1">
	<path class="st2" d="M357.5,58.7v2.7c0,0.2-0.2,0.4-0.4,0.4h-5.8v18c0,0.2-0.2,0.4-0.4,0.4h-3.1c-0.2,0-0.4-0.2-0.4-0.4v-18h-5.8
		c-0.2,0-0.4-0.2-0.4-0.4v-2.7c0-0.2,0.1-0.4,0.4-0.4H357C357.3,58.3,357.5,58.5,357.5,58.7z"/>
</g>
<g class="st1">
	<path class="st2" d="M361,73.1v1c0,2.1,1.1,3.5,3.5,3.5c2.2,0,2.9-0.9,3.5-2c0.2-0.4,0.4-0.5,0.8-0.3l1.9,1
		c0.4,0.2,0.5,0.5,0.3,0.8c-1,2.2-3.3,3.5-6.4,3.5c-4.6,0-7-2.7-7-6.6v-4c0-3.8,2.3-6.6,7-6.6c4.4,0,6.7,2.8,6.7,6.5v2.5
		c0,0.5-0.2,0.7-0.8,0.7H361z M361,69.8v0.9h6.7v-0.9c0-2-1.1-3.4-3.3-3.4S361,67.8,361,69.8z"/>
</g>
<g class="st1">
	<path class="st2" d="M387,67.3c0.1,0.3,0,0.5-0.3,0.6l-2.2,0.8c-0.3,0.1-0.5,0-0.6-0.3c-0.5-1.3-1.6-2-3.2-2
		c-1.7,0-2.7,0.7-2.7,1.8c0,1,0.7,1.4,3.9,2.3c3.8,1,5.2,2.5,5.2,5.1c0,3.1-2.5,5.1-6.4,5.1c-3.5,0-6-1.4-6.8-3.9
		c-0.1-0.3,0-0.5,0.4-0.7l1.9-1c0.4-0.1,0.5-0.1,0.7,0.4c0.4,1.4,1.9,2.2,3.7,2.2c1.9,0,2.9-0.7,2.9-1.9c0-1.1-0.9-1.7-4-2.5
		c-3.6-1-5.1-2.4-5.1-5c0-3,2.4-5,6.1-5C383.9,63.4,386.2,64.8,387,67.3z"/>
</g>
<g class="st1">
	<path class="st2" d="M395.7,60.1v3.8h3.3c0.2,0,0.4,0.2,0.4,0.5v2.2c0,0.3-0.1,0.4-0.4,0.4h-3.3v8.3c0,1.2,0.7,1.8,2,1.8h1.3
		c0.3,0,0.4,0.1,0.4,0.4v2.4c0,0.3-0.1,0.4-0.4,0.4h-1.9c-3.4,0-5-1.8-5-4.6v-8.8H390c-0.3,0-0.4-0.1-0.4-0.4v-2.2
		c0-0.3,0.2-0.5,0.4-0.5h2.1V60c0-0.2,0.1-0.4,0.4-0.4h2.8C395.5,59.6,395.7,59.8,395.7,60.1z"/>
	<path class="st2" d="M406.6,58v2.9c0,0.4-0.2,0.5-0.5,0.5h-2.6c-0.4,0-0.6-0.2-0.6-0.5V58c0-0.3,0.2-0.5,0.6-0.5h2.6
		C406.4,57.4,406.6,57.6,406.6,58z M406.6,64.1v15.7c0,0.3-0.2,0.4-0.4,0.4h-2.8c-0.3,0-0.5-0.2-0.5-0.4V64.1c0-0.3,0.1-0.4,0.5-0.4
		h2.8C406.4,63.7,406.6,63.9,406.6,64.1z"/>
	<path class="st2" d="M414.9,69.7v10.2c0,0.3-0.2,0.4-0.4,0.4h-2.8c-0.3,0-0.5-0.2-0.5-0.4V64.1c0-0.2,0.1-0.4,0.4-0.4h2.8
		c0.3,0,0.4,0.2,0.4,0.4v2c1-1.5,2.7-2.7,5-2.7c3.2,0,4.9,2.3,4.9,5.6v10.8c0,0.3-0.2,0.4-0.4,0.4h-2.9c-0.3,0-0.5-0.2-0.5-0.4V69.7
		c0-1.8-0.8-2.9-2.5-2.9C416.8,66.8,415.5,68,414.9,69.7z"/>
	<path class="st2" d="M442.8,81.4c0,2.8-2.1,5.2-7.8,5.2c-5.1,0-7.1-1.8-7.1-4.4c0-1.4,0.8-2.7,2.5-3.5c-0.8-0.6-1.2-1.5-1.2-2.2
		c0-1,0.6-1.9,1.7-2.4c-1.7-1-2.6-2.6-2.6-4.6c0-3.3,2-5.7,6.5-5.7h7.4c0.2,0,0.3,0.2,0.3,0.4v2.1c0,0.3-0.2,0.4-0.4,0.4h-2.6
		c0.9,0.7,1.5,1.9,1.5,3.4c0,2.9-2,5-6.2,5h-1.1c-1,0-1.4,0.4-1.4,1c0,0.5,0.4,0.9,1.4,0.9h3.4C441.2,77,442.8,78.9,442.8,81.4z
		 M439.3,81.8c0-1-0.6-1.9-2.5-1.9h-3c-1.8,0-2.4,0.9-2.4,1.9c0,1.4,1.1,2.3,3.9,2.3C438,84.1,439.3,83.1,439.3,81.8z M431.8,69.5
		c0,1.8,1,3,3.1,3c1.9,0,3-1.1,3-3c0-1.8-1-3-3-3S431.8,67.6,431.8,69.5z"/>
</g>
<g class="st1">
	<path class="st2" d="M469.4,80.3h-3.3c-0.3,0-0.4-0.1-0.6-0.4l-4.2-7.8h-3.1v7.8c0,0.3-0.1,0.4-0.4,0.4h-3c-0.3,0-0.4-0.2-0.4-0.4
		V58.7c0-0.3,0.1-0.4,0.4-0.4h7.2c4.7,0,7,2.7,7,6.4v0.8c0,2.9-1.3,5.1-4,6l4.6,8.2C469.8,80,469.7,80.3,469.4,80.3z M458.2,68.7
		h3.5c2.5,0,3.5-1.2,3.5-3.2V65c0-2-1-3.2-3.5-3.2h-3.5V68.7z"/>
</g>
<g class="st1">
	<path class="st2" d="M476.1,73.1v1c0,2.1,1.1,3.5,3.5,3.5c2.2,0,2.9-0.9,3.5-2c0.2-0.4,0.4-0.5,0.8-0.3l1.9,1
		c0.4,0.2,0.5,0.5,0.3,0.8c-1,2.2-3.3,3.5-6.5,3.5c-4.6,0-7-2.7-7-6.6v-4c0-3.8,2.3-6.6,7-6.6c4.4,0,6.7,2.8,6.7,6.5v2.5
		c0,0.5-0.2,0.7-0.8,0.7H476.1z M476.1,69.8v0.9h6.7v-0.9c0-2-1.1-3.4-3.3-3.4C477.3,66.4,476.1,67.8,476.1,69.8z"/>
	<path class="st2" d="M502.1,67.3c0.1,0.3,0,0.5-0.3,0.6l-2.2,0.8c-0.3,0.1-0.5,0-0.6-0.3c-0.5-1.3-1.6-2-3.2-2
		c-1.7,0-2.7,0.7-2.7,1.8c0,1,0.7,1.4,3.9,2.3c3.8,1,5.2,2.5,5.2,5.1c0,3.1-2.5,5.1-6.4,5.1c-3.5,0-6-1.4-6.8-3.9
		c-0.1-0.3,0-0.5,0.4-0.7l1.9-1c0.4-0.1,0.5-0.1,0.7,0.4c0.5,1.4,1.9,2.2,3.7,2.2c1.9,0,2.9-0.7,2.9-1.9c0-1.1-0.9-1.7-4-2.5
		c-3.6-1-5.1-2.4-5.1-5c0-3,2.4-5,6.1-5C499,63.4,501.3,64.8,502.1,67.3z"/>
	<path class="st2" d="M509.1,73.1v1c0,2.1,1.1,3.5,3.5,3.5c2.2,0,2.9-0.9,3.5-2c0.2-0.4,0.4-0.5,0.8-0.3l1.9,1
		c0.4,0.2,0.5,0.5,0.3,0.8c-1,2.2-3.3,3.5-6.5,3.5c-4.6,0-7-2.7-7-6.6v-4c0-3.8,2.3-6.6,7-6.6c4.4,0,6.7,2.8,6.7,6.5v2.5
		c0,0.5-0.2,0.7-0.8,0.7H509.1z M509.1,69.8v0.9h6.7v-0.9c0-2-1.1-3.4-3.3-3.4S509.1,67.8,509.1,69.8z"/>
	<path class="st2" d="M535.6,68.9v11c0,0.3-0.2,0.4-0.4,0.4h-2.6c-0.3,0-0.4-0.2-0.4-0.4v-2c-1,1.7-2.7,2.7-4.7,2.7
		c-3.1,0-5.1-2-5.1-5s2-4.7,6.3-5c1.2-0.1,2.3-0.1,3.4,0V69c0-1.9-1-2.6-2.7-2.6s-2.3,0.6-2.8,1.8c-0.1,0.3-0.2,0.4-0.6,0.3
		l-2.6-0.7c-0.3-0.1-0.4-0.2-0.3-0.5c0.5-2.3,2.6-4,6.4-4C533.2,63.4,535.6,65.2,535.6,68.9z M531.9,74.9v-2c-1,0-2.1,0-3.1,0.1
		c-2,0.2-3.1,0.9-3.1,2.4c0,1.3,0.9,2.2,2.5,2.2C530,77.6,531.3,76.6,531.9,74.9z"/>
</g>
<g class="st1">
	<path class="st2" d="M549.1,64v2.6c0,0.3-0.1,0.4-0.5,0.4h-0.4c-2.4,0-3.9,1.2-4.5,3.1v9.8c0,0.3-0.2,0.4-0.4,0.4h-3
		c-0.2,0-0.4-0.1-0.4-0.4V64.1c0-0.3,0.2-0.4,0.4-0.4h2.7c0.3,0,0.4,0.2,0.4,0.4v2.3c0.8-1.5,2.4-3,4.9-3
		C549,63.5,549.1,63.6,549.1,64z"/>
</g>
<g class="st1">
	<path class="st2" d="M564.3,68.1c0,0.3,0,0.5-0.4,0.5l-2.3,0.6c-0.5,0.1-0.5,0.1-0.7-0.3c-0.3-1-0.8-2.4-3-2.4
		c-2,0-3.1,1.3-3.1,3.6v3.6c0,2.2,1.1,3.5,3.1,3.5s2.6-0.9,3.1-2.3c0.1-0.4,0.3-0.5,0.6-0.3l2.3,0.8c0.4,0.1,0.4,0.3,0.3,0.6
		c-0.5,2.3-2.7,4.4-6.5,4.4c-4.2,0-6.6-2.7-6.6-6.6v-4c0-3.8,2.4-6.7,6.6-6.7C561.4,63.4,563.8,65.2,564.3,68.1z"/>
	<path class="st2" d="M571.7,57.8v8.3c1-1.5,2.6-2.7,4.9-2.7c3.1,0,4.9,2.3,4.9,5.6v10.8c0,0.4-0.2,0.4-0.4,0.4h-2.8
		c-0.3,0-0.5-0.2-0.5-0.4V69.7c0-1.8-0.8-2.8-2.5-2.8c-1.6,0-2.9,1.1-3.5,2.8v10.2c0,0.3-0.2,0.4-0.4,0.4h-2.8
		c-0.3,0-0.5-0.2-0.5-0.4v-22c0-0.3,0.2-0.4,0.5-0.4h2.8C571.5,57.4,571.7,57.6,571.7,57.8z"/>
</g>
<g class="st1">
	<path class="st2" d="M172.8,351.4c0.1,0.4,0,0.6-0.3,0.7l-2.5,0.8c-0.4,0.1-0.5,0-0.6-0.4c-0.6-1.7-1.6-3-3.9-3
		c-2.8,0-4.1,1.7-4.1,4.7v6.2c0,2.9,1.4,4.7,4.1,4.7c2.5,0,3.6-1.3,4-3.2c0.1-0.4,0.3-0.5,0.6-0.4l2.5,0.8c0.3,0.1,0.4,0.3,0.3,0.7
		c-0.8,3.2-3.1,5.6-7.6,5.6c-5,0-7.9-3.2-7.9-8V354c0-4.9,2.9-8,7.9-8C169.7,346,171.9,348.2,172.8,351.4z"/>
	<path class="st2" d="M190.1,358.1v3.9c0,3.9-2.3,6.7-7,6.7s-7-2.7-7-6.6v-3.9c0-3.9,2.3-6.8,7-6.8
		C187.8,351.4,190.1,354.2,190.1,358.1z M179.7,358.2v3.6c0,2.2,1.1,3.5,3.3,3.5s3.3-1.3,3.3-3.5v-3.6c0-2.2-1.1-3.6-3.3-3.6
		C180.8,354.7,179.7,356,179.7,358.2z"/>
</g>
<g class="st1">
	<path class="st2" d="M197.8,357.7v10.2c0,0.3-0.2,0.4-0.4,0.4h-2.8c-0.3,0-0.5-0.2-0.5-0.4v-15.7c0-0.2,0.1-0.4,0.4-0.4h2.8
		c0.3,0,0.4,0.2,0.4,0.4v2c1-1.5,2.7-2.7,5-2.7c3.1,0,4.9,2.3,4.9,5.6v10.8c0,0.3-0.1,0.4-0.4,0.4h-2.9c-0.3,0-0.5-0.2-0.5-0.4
		v-10.2c0-1.8-0.8-2.9-2.5-2.9C199.7,354.8,198.4,356,197.8,357.7z"/>
</g>
<g class="st1">
	<path class="st2" d="M216.6,348.1v3.8h3.3c0.2,0,0.4,0.2,0.4,0.5v2.2c0,0.3-0.1,0.4-0.4,0.4h-3.3v8.3c0,1.2,0.7,1.8,2,1.8h1.3
		c0.3,0,0.4,0.1,0.4,0.4v2.4c0,0.3-0.1,0.4-0.4,0.4H218c-3.4,0-5-1.8-5-4.6v-8.8h-2.1c-0.3,0-0.4-0.1-0.4-0.4v-2.2
		c0-0.3,0.1-0.5,0.4-0.5h2.1V348c0-0.2,0.1-0.4,0.4-0.4h2.8C216.5,347.6,216.6,347.8,216.6,348.1z"/>
	<path class="st2" d="M227.5,346v2.9c0,0.4-0.2,0.5-0.5,0.5h-2.6c-0.4,0-0.6-0.2-0.6-0.5V346c0-0.3,0.2-0.5,0.6-0.5h2.6
		C227.4,345.4,227.5,345.6,227.5,346z M227.5,352.1v15.7c0,0.3-0.1,0.4-0.4,0.4h-2.8c-0.3,0-0.5-0.2-0.5-0.4v-15.7
		c0-0.3,0.1-0.4,0.5-0.4h2.8C227.4,351.7,227.5,351.9,227.5,352.1z"/>
	<path class="st2" d="M235.8,357.7v10.2c0,0.3-0.1,0.4-0.4,0.4h-2.8c-0.3,0-0.5-0.2-0.5-0.4v-15.7c0-0.2,0.1-0.4,0.4-0.4h2.8
		c0.3,0,0.4,0.2,0.4,0.4v2c1-1.5,2.7-2.7,5-2.7c3.1,0,4.9,2.3,4.9,5.6v10.8c0,0.3-0.2,0.4-0.4,0.4h-2.9c-0.3,0-0.5-0.2-0.5-0.4
		v-10.2c0-1.8-0.8-2.9-2.5-2.9C237.7,354.8,236.4,356,235.8,357.7z"/>
	<path class="st2" d="M249.9,363v-10.8c0-0.3,0.2-0.4,0.4-0.4h2.9c0.3,0,0.4,0.2,0.4,0.4v10.2c0,1.8,0.9,2.9,2.5,2.9
		s2.9-1.2,3.5-2.9v-10.2c0-0.3,0.1-0.4,0.4-0.4h2.9c0.3,0,0.4,0.2,0.4,0.4V368c0,0.2-0.1,0.4-0.4,0.4h-2.8c-0.3,0-0.4-0.2-0.4-0.4
		v-2c-1,1.5-2.7,2.7-5,2.7C251.7,368.6,249.9,366.3,249.9,363z"/>
	<path class="st2" d="M271,361.1v1c0,2.1,1.1,3.5,3.5,3.5c2.2,0,2.9-0.9,3.5-2c0.2-0.4,0.4-0.5,0.8-0.3l1.9,1
		c0.4,0.2,0.5,0.5,0.3,0.8c-1,2.2-3.3,3.5-6.4,3.5c-4.6,0-7-2.7-7-6.6v-4c0-3.8,2.3-6.6,7-6.6c4.4,0,6.7,2.8,6.7,6.5v2.5
		c0,0.5-0.2,0.7-0.8,0.7H271z M271,357.8v0.9h6.7v-0.9c0-2-1.1-3.4-3.3-3.4C272.2,354.4,271,355.8,271,357.8z"/>
	<path class="st2" d="M284.6,362.3v-4.4c0-3.8,2.2-6.4,5.6-6.4c2.4,0,4,1.3,4.7,2.4v-8c0-0.2,0.1-0.4,0.4-0.4h2.9
		c0.2,0,0.4,0.2,0.4,0.4V368c0,0.2-0.1,0.4-0.4,0.4h-2.8c-0.2,0-0.4-0.2-0.4-0.4v-1.7c-0.7,1.2-2.3,2.4-4.7,2.4
		C286.9,368.6,284.6,366.1,284.6,362.3z M295,361.7v-3.4c0-2.3-1.5-3.7-3.4-3.7c-2.1,0-3.2,1.4-3.2,3.7v3.4c0,2.3,1.1,3.6,3.2,3.6
		C293.5,365.3,295,364.1,295,361.7z"/>
</g>
<g class="st1">
	<path class="st2" d="M325.8,353.1v1.4c0,4.2-2.4,6.8-7.2,6.8h-3.2v6.5c0,0.3-0.1,0.4-0.4,0.4h-3c-0.3,0-0.4-0.2-0.4-0.4v-21.1
		c0-0.2,0.2-0.4,0.4-0.4h6.7C323.4,346.3,325.8,349.1,325.8,353.1z M315.4,349.8v8.1h2.9c2.7,0,3.6-1.2,3.6-3.6v-0.9
		c0-2.3-0.9-3.6-3.6-3.6H315.4z"/>
</g>
<g class="st1">
	<path class="st2" d="M338.5,352v2.6c0,0.3-0.1,0.4-0.5,0.4h-0.4c-2.4,0-3.9,1.2-4.5,3.1v9.8c0,0.3-0.2,0.4-0.4,0.4h-3
		c-0.2,0-0.4-0.1-0.4-0.4v-15.8c0-0.3,0.2-0.4,0.4-0.4h2.7c0.3,0,0.4,0.2,0.4,0.4v2.3c0.8-1.5,2.4-3,4.9-3
		C338.4,351.5,338.5,351.6,338.5,352z"/>
</g>
<g class="st1">
	<path class="st2" d="M354.7,358.1v3.9c0,3.9-2.3,6.7-7,6.7s-7-2.7-7-6.6v-3.9c0-3.9,2.3-6.8,7-6.8
		C352.5,351.4,354.7,354.2,354.7,358.1z M344.4,358.2v3.6c0,2.2,1.1,3.5,3.3,3.5c2.2,0,3.3-1.3,3.3-3.5v-3.6c0-2.2-1.1-3.6-3.3-3.6
		C345.5,354.7,344.4,356,344.4,358.2z"/>
	<path class="st2" d="M372.5,369.4c0,2.8-2.1,5.2-7.8,5.2c-5.1,0-7.1-1.8-7.1-4.4c0-1.4,0.8-2.7,2.5-3.5c-0.8-0.6-1.2-1.5-1.2-2.2
		c0-1,0.6-1.9,1.7-2.4c-1.7-1-2.6-2.6-2.6-4.6c0-3.3,2-5.7,6.4-5.7h7.4c0.2,0,0.3,0.2,0.3,0.4v2.1c0,0.3-0.2,0.4-0.4,0.4h-2.6
		c0.9,0.7,1.5,1.9,1.5,3.4c0,2.9-2,5-6.2,5h-1.1c-1,0-1.4,0.4-1.4,1c0,0.5,0.4,0.9,1.4,0.9h3.4C370.9,365,372.5,366.9,372.5,369.4z
		 M369,369.7c0-1-0.6-1.9-2.5-1.9h-3c-1.8,0-2.4,0.9-2.4,1.9c0,1.4,1.1,2.3,3.9,2.3C367.7,372.1,369,371.1,369,369.7z M361.5,357.5
		c0,1.8,1,3,3.1,3c1.9,0,3-1.1,3-3c0-1.8-1-3-3-3S361.5,355.6,361.5,357.5z"/>
</g>
<g class="st1">
	<path class="st2" d="M384.8,352v2.6c0,0.3-0.1,0.4-0.5,0.4h-0.4c-2.4,0-3.9,1.2-4.5,3.1v9.8c0,0.3-0.2,0.4-0.4,0.4h-3
		c-0.2,0-0.4-0.1-0.4-0.4v-15.8c0-0.3,0.2-0.4,0.4-0.4h2.7c0.3,0,0.4,0.2,0.4,0.4v2.3c0.8-1.5,2.4-3,4.9-3
		C384.7,351.5,384.8,351.6,384.8,352z"/>
</g>
<g class="st1">
	<path class="st2" d="M399.9,356.9v11c0,0.3-0.2,0.4-0.4,0.4h-2.6c-0.3,0-0.4-0.2-0.4-0.4v-2c-1,1.7-2.7,2.7-4.7,2.7
		c-3.1,0-5.1-2-5.1-5s2-4.7,6.3-5c1.2-0.1,2.3-0.1,3.4,0V357c0-1.9-1-2.6-2.7-2.6s-2.3,0.6-2.8,1.8c-0.1,0.3-0.2,0.4-0.6,0.3
		l-2.6-0.7c-0.3-0.1-0.4-0.2-0.3-0.5c0.5-2.3,2.6-4,6.4-4C397.6,351.4,399.9,353.2,399.9,356.9z M396.3,362.9v-2c-1,0-2.1,0-3.1,0.1
		c-1.9,0.2-3.1,0.9-3.1,2.4c0,1.3,0.9,2.2,2.5,2.2C394.3,365.6,395.6,364.6,396.3,362.9z"/>
	<path class="st2" d="M412.5,351.4c2.2,0,3.5,1.3,4.1,3c1.2-1.8,2.8-3,4.8-3c2.8,0,4.5,2.2,4.5,5.4v11c0,0.3-0.2,0.4-0.5,0.4h-2.7
		c-0.3,0-0.5-0.2-0.5-0.4v-10.3c0-1.7-0.8-2.7-2.1-2.7c-1.4,0-2.5,1-3.1,2.8v10.3c0,0.3-0.1,0.4-0.4,0.4h-2.9
		c-0.3,0-0.4-0.2-0.4-0.4v-10.3c0-1.7-0.8-2.7-2.1-2.7c-1.4,0-2.5,1.2-3.1,2.8v10.2c0,0.3-0.1,0.4-0.4,0.4h-2.9
		c-0.3,0-0.4-0.2-0.4-0.4v-15.7c0-0.2,0.1-0.4,0.4-0.4h2.8c0.3,0,0.4,0.2,0.4,0.4v2C408.9,352.7,410.4,351.4,412.5,351.4z"/>
	<path class="st2" d="M438.5,351.4c2.2,0,3.5,1.3,4.1,3c1.2-1.8,2.8-3,4.8-3c2.8,0,4.5,2.2,4.5,5.4v11c0,0.3-0.2,0.4-0.5,0.4h-2.7
		c-0.3,0-0.5-0.2-0.5-0.4v-10.3c0-1.7-0.8-2.7-2.1-2.7c-1.4,0-2.5,1-3.1,2.8v10.3c0,0.3-0.1,0.4-0.4,0.4h-2.9
		c-0.3,0-0.4-0.2-0.4-0.4v-10.3c0-1.7-0.8-2.7-2.1-2.7c-1.4,0-2.5,1.2-3.1,2.8v10.2c0,0.3-0.1,0.4-0.4,0.4h-2.9
		c-0.3,0-0.4-0.2-0.4-0.4v-15.7c0-0.2,0.1-0.4,0.4-0.4h2.8c0.3,0,0.4,0.2,0.4,0.4v2C434.9,352.7,436.4,351.4,438.5,351.4z"/>
	<path class="st2" d="M460.1,346v2.9c0,0.4-0.2,0.5-0.5,0.5H457c-0.4,0-0.6-0.2-0.6-0.5V346c0-0.3,0.2-0.5,0.6-0.5h2.6
		C459.9,345.4,460.1,345.6,460.1,346z M460.1,352.1v15.7c0,0.3-0.2,0.4-0.4,0.4h-2.8c-0.3,0-0.5-0.2-0.5-0.4v-15.7
		c0-0.3,0.1-0.4,0.5-0.4h2.8C460,351.7,460.1,351.9,460.1,352.1z"/>
	<path class="st2" d="M468.4,357.7v10.2c0,0.3-0.2,0.4-0.4,0.4h-2.8c-0.3,0-0.5-0.2-0.5-0.4v-15.7c0-0.2,0.1-0.4,0.4-0.4h2.8
		c0.3,0,0.4,0.2,0.4,0.4v2c1-1.5,2.7-2.7,5-2.7c3.2,0,4.9,2.3,4.9,5.6v10.8c0,0.3-0.2,0.4-0.4,0.4h-2.9c-0.3,0-0.5-0.2-0.5-0.4
		v-10.2c0-1.8-0.8-2.9-2.5-2.9C470.3,354.8,469,356,468.4,357.7z"/>
	<path class="st2" d="M496.3,369.4c0,2.8-2.1,5.2-7.8,5.2c-5.1,0-7.1-1.8-7.1-4.4c0-1.4,0.8-2.7,2.5-3.5c-0.8-0.6-1.2-1.5-1.2-2.2
		c0-1,0.6-1.9,1.7-2.4c-1.7-1-2.6-2.6-2.6-4.6c0-3.3,2-5.7,6.5-5.7h7.4c0.2,0,0.3,0.2,0.3,0.4v2.1c0,0.3-0.2,0.4-0.4,0.4H493
		c0.9,0.7,1.5,1.9,1.5,3.4c0,2.9-2,5-6.2,5h-1.1c-1,0-1.4,0.4-1.4,1c0,0.5,0.4,0.9,1.4,0.9h3.4C494.7,365,496.3,366.9,496.3,369.4z
		 M492.8,369.7c0-1-0.6-1.9-2.5-1.9h-3c-1.8,0-2.4,0.9-2.4,1.9c0,1.4,1.1,2.3,3.9,2.3C491.6,372.1,492.8,371.1,492.8,369.7z
		 M485.3,357.5c0,1.8,1,3,3.1,3c1.9,0,3-1.1,3-3c0-1.8-1-3-3-3S485.3,355.6,485.3,357.5z"/>
</g>
<g class="st1">
	<path class="st2" d="M522.9,368.3h-3.3c-0.3,0-0.5-0.1-0.6-0.4l-4.2-7.8h-3.1v7.8c0,0.3-0.2,0.4-0.5,0.4h-3c-0.3,0-0.4-0.2-0.4-0.4
		v-21.1c0-0.3,0.1-0.4,0.4-0.4h7.2c4.7,0,7,2.7,7,6.4v0.8c0,2.9-1.3,5.1-4,6l4.6,8.2C523.3,368,523.3,368.3,522.9,368.3z
		 M511.7,356.7h3.5c2.5,0,3.5-1.2,3.5-3.2V353c0-2-1-3.2-3.5-3.2h-3.5V356.7z"/>
</g>
<g class="st1">
	<path class="st2" d="M529.7,361.1v1c0,2.1,1.1,3.5,3.5,3.5c2.2,0,2.9-0.9,3.5-2c0.2-0.4,0.4-0.5,0.8-0.3l1.9,1
		c0.4,0.2,0.5,0.5,0.3,0.8c-1,2.2-3.3,3.5-6.4,3.5c-4.6,0-7-2.7-7-6.6v-4c0-3.8,2.3-6.6,7-6.6c4.4,0,6.7,2.8,6.7,6.5v2.5
		c0,0.5-0.2,0.7-0.8,0.7H529.7z M529.7,357.8v0.9h6.7v-0.9c0-2-1.1-3.4-3.3-3.4S529.7,355.8,529.7,357.8z"/>
	<path class="st2" d="M555.7,355.3c0.1,0.3,0,0.5-0.3,0.6l-2.2,0.8c-0.3,0.1-0.5,0-0.6-0.3c-0.5-1.3-1.6-2-3.2-2
		c-1.7,0-2.7,0.7-2.7,1.8c0,1,0.7,1.4,3.9,2.3c3.8,1,5.2,2.5,5.2,5.1c0,3.1-2.5,5.1-6.4,5.1c-3.5,0-6-1.4-6.8-3.9
		c-0.1-0.3,0-0.5,0.4-0.7l2-1c0.4-0.1,0.5-0.1,0.7,0.4c0.5,1.4,1.9,2.2,3.7,2.2c1.9,0,2.9-0.7,2.9-1.9c0-1.1-0.9-1.7-4-2.5
		c-3.6-1-5.1-2.4-5.1-5c0-3,2.4-5,6.1-5C552.5,351.4,554.9,352.8,555.7,355.3z"/>
	<path class="st2" d="M562.6,361.1v1c0,2.1,1.1,3.5,3.5,3.5c2.2,0,2.9-0.9,3.5-2c0.2-0.4,0.4-0.5,0.8-0.3l1.9,1
		c0.4,0.2,0.5,0.5,0.3,0.8c-1,2.2-3.3,3.5-6.5,3.5c-4.6,0-7-2.7-7-6.6v-4c0-3.8,2.3-6.6,7-6.6c4.4,0,6.7,2.8,6.7,6.5v2.5
		c0,0.5-0.2,0.7-0.8,0.7H562.6z M562.6,357.8v0.9h6.7v-0.9c0-2-1.1-3.4-3.3-3.4S562.6,355.8,562.6,357.8z"/>
	<path class="st2" d="M589.1,356.9v11c0,0.3-0.1,0.4-0.4,0.4H586c-0.3,0-0.4-0.2-0.4-0.4v-2c-1,1.7-2.7,2.7-4.7,2.7
		c-3.1,0-5.1-2-5.1-5s2-4.7,6.3-5c1.2-0.1,2.3-0.1,3.4,0V357c0-1.9-1-2.6-2.7-2.6s-2.3,0.6-2.8,1.8c-0.1,0.3-0.2,0.4-0.6,0.3
		l-2.6-0.7c-0.3-0.1-0.4-0.2-0.3-0.5c0.5-2.3,2.6-4,6.4-4C586.8,351.4,589.1,353.2,589.1,356.9z M585.5,362.9v-2
		c-1.1,0-2.1,0-3.1,0.1c-2,0.2-3.1,0.9-3.1,2.4c0,1.3,0.9,2.2,2.5,2.2C583.5,365.6,584.8,364.6,585.5,362.9z"/>
</g>
<g class="st1">
	<path class="st2" d="M602.6,352v2.6c0,0.3-0.1,0.4-0.5,0.4h-0.4c-2.4,0-3.9,1.2-4.5,3.1v9.8c0,0.3-0.2,0.4-0.4,0.4h-3
		c-0.2,0-0.4-0.1-0.4-0.4v-15.8c0-0.3,0.2-0.4,0.4-0.4h2.7c0.3,0,0.4,0.2,0.4,0.4v2.3c0.8-1.5,2.4-3,5-3
		C602.5,351.5,602.6,351.6,602.6,352z"/>
</g>
<g class="st1">
	<path class="st2" d="M617.9,356.1c0,0.3,0,0.5-0.4,0.5l-2.3,0.6c-0.4,0.1-0.5,0.1-0.7-0.3c-0.3-1-0.8-2.4-3-2.4
		c-2,0-3.1,1.3-3.1,3.6v3.6c0,2.2,1.1,3.5,3.1,3.5c1.9,0,2.6-0.9,3.1-2.3c0.1-0.4,0.3-0.5,0.6-0.3l2.3,0.8c0.4,0.1,0.4,0.3,0.3,0.6
		c-0.5,2.3-2.7,4.4-6.5,4.4c-4.2,0-6.6-2.7-6.6-6.6v-4c0-3.8,2.4-6.7,6.6-6.7C614.9,351.4,617.4,353.2,617.9,356.1z"/>
	<path class="st2" d="M625.2,345.8v8.3c1-1.5,2.6-2.7,4.9-2.7c3.2,0,4.9,2.3,4.9,5.6v10.8c0,0.4-0.2,0.4-0.4,0.4h-2.9
		c-0.3,0-0.5-0.2-0.5-0.4v-10.2c0-1.8-0.8-2.8-2.5-2.8c-1.6,0-2.9,1.1-3.5,2.8v10.2c0,0.3-0.2,0.4-0.4,0.4H622
		c-0.3,0-0.5-0.2-0.5-0.4v-22c0-0.3,0.1-0.4,0.5-0.4h2.8C625.1,345.4,625.2,345.6,625.2,345.8z"/>
</g>
<g class="st1">
	<path class="st2" d="M226.2,638.6c0.1,0.3,0,0.5-0.3,0.6l-2.4,0.9c-0.3,0.1-0.5,0-0.7-0.3c-0.7-1.7-1.9-2.4-3.7-2.4
		c-2.1,0-3.5,1-3.5,2.6c0,1.5,1,2.2,5,3.7s5.7,3.4,5.7,6.5c0,3.7-3.1,6.5-7.6,6.5c-4.1,0-6.7-1.8-7.6-5.2c-0.1-0.3,0-0.5,0.3-0.6
		l2.5-0.8c0.4-0.1,0.6,0,0.7,0.3c0.4,1.9,1.8,2.8,4.1,2.8s3.7-1.1,3.7-2.7c0-1.6-0.9-2.3-4.3-3.6c-4.6-1.7-6.4-3.5-6.4-6.8
		c0-3.4,2.9-6.1,7.2-6.1C222.7,634,225.2,635.6,226.2,638.6z"/>
	<path class="st2" d="M234,634v2.9c0,0.4-0.2,0.5-0.5,0.5h-2.6c-0.4,0-0.6-0.2-0.6-0.5V634c0-0.3,0.2-0.5,0.6-0.5h2.6
		C233.9,633.4,234,633.6,234,634z M234,640.1v15.7c0,0.3-0.2,0.4-0.4,0.4h-2.8c-0.3,0-0.5-0.2-0.5-0.4v-15.7c0-0.3,0.1-0.4,0.5-0.4
		h2.8C233.9,639.7,234,639.9,234,640.1z"/>
	<path class="st2" d="M246.8,639.4c2.2,0,3.5,1.3,4.1,3c1.2-1.8,2.8-3,4.8-3c2.8,0,4.5,2.2,4.5,5.4v11c0,0.3-0.2,0.4-0.5,0.4H257
		c-0.3,0-0.5-0.2-0.5-0.4v-10.3c0-1.7-0.8-2.7-2.1-2.7c-1.4,0-2.5,1-3.1,2.8v10.3c0,0.3-0.1,0.4-0.4,0.4H248c-0.3,0-0.4-0.2-0.4-0.4
		v-10.3c0-1.7-0.8-2.7-2.1-2.7c-1.4,0-2.6,1.2-3.1,2.8v10.2c0,0.3-0.1,0.4-0.4,0.4h-3c-0.3,0-0.4-0.2-0.4-0.4v-15.7
		c0-0.2,0.1-0.4,0.4-0.4h2.8c0.3,0,0.4,0.2,0.4,0.4v2C243.2,640.7,244.7,639.4,246.8,639.4z"/>
	<path class="st2" d="M268.3,634v2.9c0,0.4-0.2,0.5-0.5,0.5h-2.6c-0.4,0-0.6-0.2-0.6-0.5V634c0-0.3,0.2-0.5,0.6-0.5h2.6
		C268.2,633.4,268.3,633.6,268.3,634z M268.3,640.1v15.7c0,0.3-0.2,0.4-0.4,0.4h-2.8c-0.3,0-0.5-0.2-0.5-0.4v-15.7
		c0-0.3,0.1-0.4,0.5-0.4h2.8C268.2,639.7,268.3,639.9,268.3,640.1z"/>
	<path class="st2" d="M276.6,633.8v22c0,0.3-0.1,0.4-0.4,0.4h-2.8c-0.3,0-0.5-0.2-0.5-0.4v-22c0-0.3,0.1-0.4,0.5-0.4h2.8
		C276.5,633.4,276.6,633.5,276.6,633.8z"/>
	<path class="st2" d="M293.6,644.9v11c0,0.3-0.1,0.4-0.4,0.4h-2.6c-0.3,0-0.4-0.2-0.4-0.4v-2c-1,1.7-2.7,2.7-4.7,2.7
		c-3.1,0-5.1-2-5.1-5s2-4.7,6.3-5c1.2-0.1,2.3-0.1,3.4,0V645c0-1.9-1-2.6-2.7-2.6s-2.3,0.6-2.8,1.8c-0.1,0.3-0.2,0.4-0.6,0.3
		l-2.6-0.7c-0.3-0.1-0.4-0.2-0.3-0.5c0.5-2.3,2.6-4,6.4-4C291.3,639.4,293.6,641.2,293.6,644.9z M290,650.9v-2c-1,0-2.1,0-3.1,0.1
		c-1.9,0.2-3.1,0.9-3.1,2.4c0,1.3,0.9,2.2,2.5,2.2C288,653.6,289.3,652.6,290,650.9z"/>
</g>
<g class="st1">
	<path class="st2" d="M307.1,640v2.6c0,0.3-0.1,0.4-0.5,0.4h-0.4c-2.4,0-3.9,1.2-4.5,3.1v9.8c0,0.3-0.2,0.4-0.4,0.4h-3
		c-0.2,0-0.4-0.1-0.4-0.4v-15.8c0-0.3,0.2-0.4,0.4-0.4h2.7c0.3,0,0.4,0.2,0.4,0.4v2.3c0.8-1.5,2.4-3,4.9-3
		C307,639.5,307.1,639.6,307.1,640z"/>
</g>
<g class="st1">
	<path class="st2" d="M332.1,641.1v1.4c0,4.2-2.4,6.8-7.2,6.8h-3.2v6.5c0,0.3-0.1,0.4-0.4,0.4h-3c-0.3,0-0.4-0.2-0.4-0.4v-21.1
		c0-0.2,0.2-0.4,0.4-0.4h6.7C329.7,634.3,332.1,637.1,332.1,641.1z M321.6,637.8v8.1h2.9c2.7,0,3.6-1.2,3.6-3.6v-0.9
		c0-2.3-0.9-3.6-3.6-3.6H321.6z"/>
</g>
<g class="st1">
	<path class="st2" d="M344.7,640v2.6c0,0.3-0.1,0.4-0.5,0.4h-0.4c-2.4,0-3.9,1.2-4.5,3.1v9.8c0,0.3-0.2,0.4-0.4,0.4h-3
		c-0.2,0-0.4-0.1-0.4-0.4v-15.8c0-0.3,0.2-0.4,0.4-0.4h2.7c0.3,0,0.4,0.2,0.4,0.4v2.3c0.8-1.5,2.4-3,4.9-3
		C344.7,639.5,344.7,639.6,344.7,640z"/>
</g>
<g class="st1">
	<path class="st2" d="M360.9,646.1v3.9c0,3.9-2.3,6.7-7,6.7s-7-2.7-7-6.6v-3.9c0-3.9,2.3-6.8,7-6.8
		C358.7,639.4,360.9,642.2,360.9,646.1z M350.6,646.2v3.6c0,2.2,1.1,3.5,3.3,3.5c2.2,0,3.3-1.3,3.3-3.5v-3.6c0-2.2-1.1-3.6-3.3-3.6
		C351.7,642.7,350.6,644,350.6,646.2z"/>
	<path class="st2" d="M364.5,650.3v-4.4c0-3.8,2.2-6.4,5.6-6.4c2.4,0,4,1.3,4.7,2.4v-8c0-0.2,0.1-0.4,0.4-0.4h2.9
		c0.2,0,0.4,0.2,0.4,0.4V656c0,0.2-0.1,0.4-0.4,0.4h-2.8c-0.2,0-0.4-0.2-0.4-0.4v-1.7c-0.7,1.2-2.3,2.4-4.7,2.4
		C366.8,656.6,364.5,654.1,364.5,650.3z M374.9,649.7v-3.4c0-2.3-1.5-3.7-3.4-3.7c-2.1,0-3.2,1.4-3.2,3.7v3.4c0,2.3,1.1,3.6,3.2,3.6
		C373.4,653.3,374.9,652.1,374.9,649.7z"/>
	<path class="st2" d="M383.1,651v-10.8c0-0.3,0.2-0.4,0.5-0.4h2.9c0.3,0,0.4,0.2,0.4,0.4v10.2c0,1.8,0.9,2.9,2.5,2.9
		s2.9-1.2,3.5-2.9v-10.2c0-0.3,0.1-0.4,0.4-0.4h2.9c0.3,0,0.4,0.2,0.4,0.4V656c0,0.2-0.1,0.4-0.4,0.4h-2.8c-0.3,0-0.4-0.2-0.4-0.4
		v-2c-1,1.5-2.7,2.7-5,2.7C384.8,656.6,383.1,654.3,383.1,651z"/>
	<path class="st2" d="M413.7,644.1c0,0.3,0,0.5-0.4,0.5l-2.3,0.6c-0.5,0.1-0.5,0.1-0.7-0.3c-0.3-1-0.8-2.4-3-2.4
		c-2,0-3.1,1.3-3.1,3.6v3.6c0,2.2,1.1,3.5,3.1,3.5s2.6-0.9,3.1-2.3c0.1-0.4,0.3-0.5,0.6-0.3l2.3,0.8c0.4,0.1,0.4,0.3,0.3,0.6
		c-0.5,2.3-2.7,4.4-6.5,4.4c-4.2,0-6.6-2.7-6.6-6.6v-4c0-3.8,2.4-6.7,6.6-6.7C410.8,639.4,413.2,641.2,413.7,644.1z"/>
	<path class="st2" d="M422.1,636.1v3.8h3.3c0.2,0,0.4,0.2,0.4,0.5v2.2c0,0.3-0.1,0.4-0.4,0.4h-3.3v8.3c0,1.2,0.7,1.8,2,1.8h1.3
		c0.3,0,0.4,0.1,0.4,0.4v2.4c0,0.3-0.1,0.4-0.4,0.4h-1.9c-3.4,0-5-1.8-5-4.6v-8.8h-2.1c-0.3,0-0.4-0.1-0.4-0.4v-2.2
		c0-0.3,0.2-0.5,0.4-0.5h2.1V636c0-0.2,0.1-0.4,0.4-0.4h2.8C422,635.6,422.1,635.8,422.1,636.1z"/>
	<path class="st2" d="M441.2,643.3c0.1,0.3,0,0.5-0.3,0.6l-2.2,0.8c-0.3,0.1-0.5,0-0.6-0.3c-0.5-1.3-1.6-2-3.2-2
		c-1.7,0-2.7,0.7-2.7,1.8c0,1,0.7,1.4,3.9,2.3c3.8,1,5.3,2.5,5.3,5.1c0,3.1-2.5,5.1-6.4,5.1c-3.5,0-6-1.4-6.8-3.9
		c-0.1-0.3,0-0.5,0.4-0.7l2-1c0.4-0.1,0.5-0.1,0.7,0.4c0.4,1.4,1.9,2.2,3.7,2.2c1.9,0,2.9-0.7,2.9-1.9c0-1.1-0.9-1.7-4-2.5
		c-3.6-1-5.1-2.4-5.1-5c0-3,2.4-5,6.1-5C438.1,639.4,440.4,640.8,441.2,643.3z"/>
</g>
<g class="st1">
	<path class="st2" d="M468.5,656.3h-3.3c-0.3,0-0.4-0.1-0.6-0.4l-4.2-7.8h-3.1v7.8c0,0.3-0.1,0.4-0.4,0.4h-3c-0.3,0-0.4-0.2-0.4-0.4
		v-21.1c0-0.3,0.1-0.4,0.4-0.4h7.2c4.7,0,7,2.7,7,6.4v0.8c0,2.9-1.3,5.1-4,6l4.6,8.2C468.9,656,468.9,656.3,468.5,656.3z
		 M457.3,644.7h3.5c2.5,0,3.5-1.2,3.5-3.2V641c0-2-1-3.2-3.5-3.2h-3.5V644.7z"/>
</g>
<g class="st1">
	<path class="st2" d="M475.3,649.1v1c0,2.1,1.1,3.5,3.5,3.5c2.2,0,2.9-0.9,3.5-2c0.2-0.4,0.4-0.5,0.8-0.3l1.9,1
		c0.4,0.2,0.5,0.5,0.3,0.8c-1,2.2-3.3,3.5-6.5,3.5c-4.6,0-7-2.7-7-6.6v-4c0-3.8,2.3-6.6,7-6.6c4.4,0,6.7,2.8,6.7,6.5v2.5
		c0,0.5-0.2,0.7-0.8,0.7L475.3,649.1L475.3,649.1z M475.3,645.8v0.9h6.7v-0.9c0-2-1.1-3.4-3.3-3.4
		C476.4,642.4,475.3,643.8,475.3,645.8z"/>
	<path class="st2" d="M501.3,643.3c0.1,0.3,0,0.5-0.3,0.6l-2.2,0.8c-0.3,0.1-0.5,0-0.6-0.3c-0.5-1.3-1.6-2-3.2-2
		c-1.7,0-2.7,0.7-2.7,1.8c0,1,0.7,1.4,3.9,2.3c3.8,1,5.2,2.5,5.2,5.1c0,3.1-2.5,5.1-6.4,5.1c-3.5,0-6-1.4-6.8-3.9
		c-0.1-0.3,0-0.5,0.4-0.7l1.9-1c0.4-0.1,0.5-0.1,0.7,0.4c0.5,1.4,1.9,2.2,3.7,2.2c1.9,0,2.9-0.7,2.9-1.9c0-1.1-0.9-1.7-4-2.5
		c-3.6-1-5.1-2.4-5.1-5c0-3,2.4-5,6.1-5C498.1,639.4,500.5,640.8,501.3,643.3z"/>
	<path class="st2" d="M508.2,649.1v1c0,2.1,1.1,3.5,3.5,3.5c2.2,0,2.9-0.9,3.5-2c0.2-0.4,0.4-0.5,0.8-0.3l1.9,1
		c0.4,0.2,0.5,0.5,0.3,0.8c-1,2.2-3.3,3.5-6.5,3.5c-4.6,0-7-2.7-7-6.6v-4c0-3.8,2.3-6.6,7-6.6c4.4,0,6.7,2.8,6.7,6.5v2.5
		c0,0.5-0.2,0.7-0.8,0.7L508.2,649.1L508.2,649.1z M508.2,645.8v0.9h6.7v-0.9c0-2-1.1-3.4-3.3-3.4
		C509.4,642.4,508.2,643.8,508.2,645.8z"/>
	<path class="st2" d="M534.7,644.9v11c0,0.3-0.2,0.4-0.4,0.4h-2.6c-0.3,0-0.4-0.2-0.4-0.4v-2c-1,1.7-2.7,2.7-4.7,2.7
		c-3.1,0-5.1-2-5.1-5s2-4.7,6.3-5c1.2-0.1,2.3-0.1,3.4,0V645c0-1.9-1-2.6-2.7-2.6s-2.3,0.6-2.8,1.8c-0.1,0.3-0.2,0.4-0.6,0.3
		l-2.6-0.7c-0.3-0.1-0.4-0.2-0.3-0.5c0.5-2.3,2.6-4,6.4-4C532.4,639.4,534.7,641.2,534.7,644.9z M531.1,650.9v-2c-1,0-2.1,0-3.1,0.1
		c-2,0.2-3.1,0.9-3.1,2.4c0,1.3,0.9,2.2,2.5,2.2C529.1,653.6,530.4,652.6,531.1,650.9z"/>
</g>
<g class="st1">
	<path class="st2" d="M548.2,640v2.6c0,0.3-0.1,0.4-0.5,0.4h-0.4c-2.4,0-3.9,1.2-4.5,3.1v9.8c0,0.3-0.2,0.4-0.4,0.4h-3
		c-0.2,0-0.4-0.1-0.4-0.4v-15.8c0-0.3,0.2-0.4,0.4-0.4h2.7c0.3,0,0.4,0.2,0.4,0.4v2.3c0.8-1.5,2.4-3,4.9-3
		C548.1,639.5,548.2,639.6,548.2,640z"/>
</g>
<g class="st1">
	<path class="st2" d="M563.5,644.1c0,0.3,0,0.5-0.4,0.5l-2.3,0.6c-0.5,0.1-0.5,0.1-0.7-0.3c-0.3-1-0.8-2.4-3-2.4
		c-2,0-3.1,1.3-3.1,3.6v3.6c0,2.2,1.1,3.5,3.1,3.5s2.6-0.9,3.1-2.3c0.1-0.4,0.3-0.5,0.6-0.3l2.3,0.8c0.4,0.1,0.4,0.3,0.3,0.6
		c-0.5,2.3-2.7,4.4-6.5,4.4c-4.2,0-6.6-2.7-6.6-6.6v-4c0-3.8,2.4-6.7,6.6-6.7C560.5,639.4,563,641.2,563.5,644.1z"/>
	<path class="st2" d="M570.8,633.8v8.3c1-1.5,2.6-2.7,4.9-2.7c3.1,0,4.9,2.3,4.9,5.6v10.8c0,0.4-0.2,0.4-0.4,0.4h-2.8
		c-0.3,0-0.5-0.2-0.5-0.4v-10.2c0-1.8-0.8-2.8-2.5-2.8c-1.6,0-2.9,1.1-3.5,2.8v10.2c0,0.3-0.2,0.4-0.4,0.4h-2.8
		c-0.3,0-0.5-0.2-0.5-0.4v-22c0-0.3,0.2-0.4,0.5-0.4h2.8C570.7,633.4,570.8,633.6,570.8,633.8z"/>
</g>
<g class="st1">
	<path class="st2" d="M194.5,963.9v0.4c0,2.3-1.2,3.9-3.1,4.6c2.2,0.4,3.8,2.3,3.8,5v0.5c0,3.7-2.3,6-6.8,6h-7.9
		c-0.3,0-0.4-0.2-0.4-0.4v-21.1c0-0.3,0.1-0.4,0.4-0.4h7.8C192.4,958.3,194.5,960.5,194.5,963.9z M183.9,961.7v5.7h3.8
		c2.3,0,3.1-1.3,3.1-2.7v-0.3c0-1.5-0.8-2.7-3.1-2.7H183.9z M183.9,970.7v6.2h4c2,0,3.4-0.8,3.4-2.9v-0.4c0-1.9-1.2-2.9-3.4-2.9
		L183.9,970.7L183.9,970.7z"/>
	<path class="st2" d="M202.9,957.8v22c0,0.3-0.2,0.4-0.4,0.4h-2.8c-0.3,0-0.5-0.2-0.5-0.4v-22c0-0.3,0.1-0.4,0.5-0.4h2.8
		C202.7,957.4,202.9,957.5,202.9,957.8z"/>
	<path class="st2" d="M207.3,975v-10.8c0-0.3,0.2-0.4,0.5-0.4h2.9c0.3,0,0.4,0.2,0.4,0.4v10.2c0,1.8,0.9,2.9,2.5,2.9
		s2.9-1.2,3.5-2.9v-10.2c0-0.3,0.1-0.4,0.4-0.4h2.9c0.3,0,0.4,0.2,0.4,0.4V980c0,0.2-0.1,0.4-0.4,0.4h-2.8c-0.3,0-0.4-0.2-0.4-0.4
		v-2c-1,1.5-2.7,2.7-5,2.7C209.1,980.6,207.3,978.3,207.3,975z"/>
	<path class="st2" d="M228.4,973.1v1c0,2.1,1.1,3.5,3.5,3.5c2.2,0,2.9-0.9,3.5-2c0.2-0.4,0.4-0.5,0.8-0.3l1.9,1
		c0.4,0.2,0.5,0.5,0.3,0.8c-1,2.2-3.3,3.5-6.4,3.5c-4.6,0-7-2.7-7-6.6v-4c0-3.8,2.3-6.6,7-6.6c4.4,0,6.7,2.8,6.7,6.5v2.5
		c0,0.5-0.2,0.7-0.8,0.7L228.4,973.1L228.4,973.1z M228.4,969.8v0.9h6.7v-0.9c0-2-1.1-3.4-3.3-3.4S228.4,967.8,228.4,969.8z"/>
	<path class="st2" d="M242.9,986.3c-0.2,0-0.4-0.2-0.4-0.4v-21.8c0-0.2,0.1-0.4,0.4-0.4h2.8c0.2,0,0.4,0.2,0.4,0.4v1.7
		c0.7-1.1,2.3-2.4,4.6-2.4c3.6,0,5.8,2.5,5.8,6.4v4.4c0,3.8-2.2,6.4-5.6,6.4c-2.4,0-4-1.2-4.7-2.4v7.7c0,0.2-0.1,0.4-0.4,0.4
		L242.9,986.3L242.9,986.3z M252.8,973.7v-3.4c0-2.3-1.1-3.6-3.2-3.6c-1.9,0-3.4,1.3-3.4,3.6v3.4c0,2.4,1.5,3.7,3.4,3.7
		C251.7,977.3,252.8,976,252.8,973.7z"/>
	<path class="st2" d="M269.7,964v2.6c0,0.3-0.1,0.4-0.5,0.4h-0.4c-2.4,0-3.9,1.2-4.5,3.1v9.8c0,0.3-0.2,0.4-0.4,0.4h-3
		c-0.2,0-0.4-0.1-0.4-0.4v-15.8c0-0.3,0.2-0.4,0.4-0.4h2.7c0.3,0,0.4,0.2,0.4,0.4v2.3c0.8-1.5,2.4-3,4.9-3
		C269.7,963.5,269.7,963.6,269.7,964z"/>
	<path class="st2" d="M276.5,958v2.9c0,0.4-0.2,0.5-0.5,0.5h-2.6c-0.4,0-0.6-0.2-0.6-0.5V958c0-0.3,0.2-0.5,0.6-0.5h2.6
		C276.3,957.4,276.5,957.6,276.5,958z M276.5,964.1v15.7c0,0.3-0.1,0.4-0.4,0.4h-2.8c-0.3,0-0.5-0.2-0.5-0.4v-15.7
		c0-0.3,0.1-0.4,0.5-0.4h2.8C276.3,963.7,276.5,963.9,276.5,964.1z"/>
</g>
<g class="st1">
	<path class="st2" d="M284.8,969.7v10.2c0,0.3-0.2,0.4-0.4,0.4h-2.8c-0.3,0-0.5-0.2-0.5-0.4v-15.7c0-0.2,0.1-0.4,0.4-0.4h2.8
		c0.3,0,0.4,0.2,0.4,0.4v2c1-1.5,2.7-2.7,5-2.7c3.1,0,4.9,2.3,4.9,5.6v10.8c0,0.3-0.1,0.4-0.4,0.4h-2.9c-0.3,0-0.5-0.2-0.5-0.4
		v-10.2c0-1.8-0.8-2.9-2.5-2.9C286.7,966.8,285.4,968,284.8,969.7z"/>
</g>
<g class="st1">
	<path class="st2" d="M303.6,960.1v3.8h3.3c0.2,0,0.4,0.2,0.4,0.5v2.2c0,0.3-0.1,0.4-0.4,0.4h-3.3v8.3c0,1.2,0.7,1.8,2,1.8h1.3
		c0.3,0,0.4,0.1,0.4,0.4v2.4c0,0.3-0.1,0.4-0.4,0.4H305c-3.4,0-5-1.8-5-4.6v-8.8h-2.1c-0.3,0-0.4-0.1-0.4-0.4v-2.2
		c0-0.3,0.1-0.5,0.4-0.5h2.1V960c0-0.2,0.1-0.4,0.4-0.4h2.8C303.5,959.6,303.6,959.8,303.6,960.1z"/>
	<path class="st2" d="M333.8,963.4c0.1,0.4,0,0.6-0.3,0.7l-2.5,0.8c-0.4,0.1-0.5,0-0.6-0.4c-0.6-1.7-1.6-3-3.9-3
		c-2.8,0-4.1,1.7-4.1,4.7v6.2c0,2.9,1.4,4.7,4.1,4.7c2.5,0,3.6-1.3,4-3.2c0.1-0.4,0.3-0.5,0.6-0.4l2.5,0.8c0.3,0.1,0.4,0.3,0.3,0.7
		c-0.8,3.2-3.1,5.6-7.6,5.6c-5,0-7.9-3.2-7.9-8V966c0-4.9,2.9-8,7.9-8C330.7,958,332.9,960.2,333.8,963.4z"/>
</g>
<g class="st1">
	<path class="st2" d="M346.5,964v2.6c0,0.3-0.1,0.4-0.5,0.4h-0.4c-2.4,0-3.9,1.2-4.5,3.1v9.8c0,0.3-0.2,0.4-0.4,0.4h-3
		c-0.2,0-0.4-0.1-0.4-0.4v-15.8c0-0.3,0.2-0.4,0.4-0.4h2.7c0.3,0,0.4,0.2,0.4,0.4v2.3c0.8-1.5,2.4-3,4.9-3
		C346.4,963.5,346.5,963.6,346.5,964z"/>
</g>
<g class="st1">
	<path class="st2" d="M352.2,973.1v1c0,2.1,1.1,3.5,3.5,3.5c2.2,0,2.9-0.9,3.5-2c0.2-0.4,0.4-0.5,0.8-0.3l1.9,1
		c0.4,0.2,0.5,0.5,0.3,0.8c-1,2.2-3.3,3.5-6.4,3.5c-4.6,0-7-2.7-7-6.6v-4c0-3.8,2.3-6.6,7-6.6c4.4,0,6.7,2.8,6.7,6.5v2.5
		c0,0.5-0.2,0.7-0.8,0.7L352.2,973.1L352.2,973.1z M352.2,969.8v0.9h6.7v-0.9c0-2-1.1-3.4-3.3-3.4S352.2,967.8,352.2,969.8z"/>
</g>
<g class="st1">
	<path class="st2" d="M378.7,968.9v11c0,0.3-0.1,0.4-0.4,0.4h-2.6c-0.3,0-0.4-0.2-0.4-0.4v-2c-1,1.7-2.7,2.7-4.7,2.7
		c-3.1,0-5.1-2-5.1-5s2-4.7,6.3-5c1.2-0.1,2.3-0.1,3.4,0V969c0-1.9-1-2.6-2.7-2.6s-2.3,0.6-2.8,1.8c-0.1,0.3-0.2,0.4-0.6,0.3
		l-2.6-0.7c-0.3-0.1-0.4-0.2-0.3-0.5c0.5-2.3,2.6-4,6.4-4C376.3,963.4,378.7,965.2,378.7,968.9z M375,974.9v-2c-1,0-2.1,0-3.1,0.1
		c-1.9,0.2-3.1,0.9-3.1,2.4c0,1.3,0.9,2.2,2.5,2.2C373.1,977.6,374.4,976.6,375,974.9z"/>
</g>
<g class="st1">
	<path class="st2" d="M387.7,960.1v3.8h3.3c0.2,0,0.4,0.2,0.4,0.5v2.2c0,0.3-0.1,0.4-0.4,0.4h-3.3v8.3c0,1.2,0.7,1.8,2,1.8h1.3
		c0.3,0,0.4,0.1,0.4,0.4v2.4c0,0.3-0.1,0.4-0.4,0.4h-1.9c-3.4,0-5-1.8-5-4.6v-8.8H382c-0.3,0-0.4-0.1-0.4-0.4v-2.2
		c0-0.3,0.1-0.5,0.4-0.5h2.1V960c0-0.2,0.1-0.4,0.4-0.4h2.8C387.6,959.6,387.7,959.8,387.7,960.1z"/>
	<path class="st2" d="M398,973.1v1c0,2.1,1.1,3.5,3.5,3.5c2.2,0,2.9-0.9,3.5-2c0.2-0.4,0.4-0.5,0.8-0.3l1.9,1
		c0.4,0.2,0.5,0.5,0.3,0.8c-1,2.2-3.3,3.5-6.4,3.5c-4.6,0-7-2.7-7-6.6v-4c0-3.8,2.3-6.6,7-6.6c4.4,0,6.7,2.8,6.7,6.5v2.5
		c0,0.5-0.2,0.7-0.8,0.7L398,973.1L398,973.1z M398,969.8v0.9h6.7v-0.9c0-2-1.1-3.4-3.3-3.4S398,967.8,398,969.8z"/>
	<path class="st2" d="M411.6,974.3v-4.4c0-3.8,2.3-6.4,5.6-6.4c2.4,0,4,1.3,4.7,2.4v-8c0-0.2,0.1-0.4,0.4-0.4h2.9
		c0.2,0,0.4,0.2,0.4,0.4V980c0,0.2-0.1,0.4-0.4,0.4h-2.8c-0.2,0-0.4-0.2-0.4-0.4v-1.7c-0.7,1.2-2.3,2.4-4.7,2.4
		C413.8,980.6,411.6,978.1,411.6,974.3z M421.9,973.7v-3.4c0-2.3-1.5-3.7-3.4-3.7c-2.1,0-3.2,1.4-3.2,3.7v3.4c0,2.3,1.1,3.6,3.2,3.6
		C420.4,977.3,421.9,976.1,421.9,973.7z"/>
</g>
<g class="st1">
	<path class="st2" d="M451.6,970.1v3.9c0,3.9-2.3,6.7-7,6.7s-7-2.7-7-6.6v-3.9c0-3.9,2.3-6.8,7-6.8
		C449.4,963.4,451.6,966.2,451.6,970.1z M441.3,970.2v3.6c0,2.2,1.1,3.5,3.3,3.5c2.2,0,3.3-1.3,3.3-3.5v-3.6c0-2.2-1.1-3.6-3.3-3.6
		C442.4,966.7,441.3,968,441.3,970.2z"/>
</g>
<g class="st1">
	<path class="st2" d="M464.3,957.8v2.3c0,0.2-0.1,0.4-0.4,0.4h-1.4c-1.4,0-2,0.6-2,1.8v1.6h3.4c0.2,0,0.3,0.2,0.3,0.4v2.3
		c0,0.3-0.2,0.4-0.4,0.4h-3.4v13c0,0.3-0.2,0.4-0.4,0.4h-2.9c-0.2,0-0.4-0.1-0.4-0.4v-13h-2.3c-0.2,0-0.4-0.2-0.4-0.4v-2.3
		c0-0.2,0.2-0.4,0.4-0.4h2.3v-1.5c0-3.1,1.8-4.9,5-4.9h2C464.2,957.4,464.3,957.6,464.3,957.8z"/>
</g>
<g class="st1">
	<path class="st2" d="M491.6,958.7v21c0,0.4-0.2,0.5-0.5,0.5h-3.9c-0.3,0-0.5-0.2-0.7-0.5l-5.3-11c-1-2.1-1.9-4.5-2.6-6.3h-0.1
		c0.2,1.9,0.2,3.8,0.2,5.9v11.6c0,0.3-0.1,0.4-0.4,0.4h-2.8c-0.3,0-0.4-0.2-0.4-0.4v-21c0-0.4,0.2-0.5,0.5-0.5h4.2
		c0.4,0,0.5,0.2,0.7,0.5l5.2,11c1,2.1,1.8,4.4,2.5,6.2h0.1c-0.2-1.9-0.3-3.8-0.3-5.8v-11.5c0-0.3,0.2-0.4,0.4-0.4h2.8
		C491.4,958.3,491.6,958.5,491.6,958.7z"/>
</g>
<g class="st1">
	<path class="st2" d="M499.4,973.1v1c0,2.1,1.1,3.5,3.5,3.5c2.2,0,2.9-0.9,3.5-2c0.2-0.4,0.4-0.5,0.8-0.3l1.9,1
		c0.4,0.2,0.5,0.5,0.3,0.8c-1,2.2-3.3,3.5-6.5,3.5c-4.6,0-7-2.7-7-6.6v-4c0-3.8,2.3-6.6,7-6.6c4.4,0,6.7,2.8,6.7,6.5v2.5
		c0,0.5-0.2,0.7-0.8,0.7L499.4,973.1L499.4,973.1z M499.4,969.8v0.9h6.7v-0.9c0-2-1.1-3.4-3.3-3.4
		C500.5,966.4,499.4,967.8,499.4,969.8z"/>
	<path class="st2" d="M526,968.1c0,0.3,0,0.5-0.4,0.5l-2.3,0.6c-0.5,0.1-0.5,0.1-0.7-0.3c-0.3-1-0.8-2.4-3-2.4c-2,0-3.1,1.3-3.1,3.6
		v3.6c0,2.2,1.1,3.5,3.1,3.5s2.6-0.9,3.1-2.3c0.1-0.4,0.3-0.5,0.6-0.3l2.3,0.8c0.4,0.1,0.4,0.3,0.3,0.6c-0.5,2.3-2.7,4.4-6.5,4.4
		c-4.2,0-6.6-2.7-6.6-6.6v-4c0-3.8,2.4-6.7,6.6-6.7C523.1,963.4,525.5,965.2,526,968.1z"/>
	<path class="st2" d="M543.1,980.3h-3.2c-0.3,0-0.4-0.1-0.5-0.4l-3.8-6.9l-2.2,2.6v4.2c0,0.3-0.2,0.4-0.4,0.4h-2.9
		c-0.3,0-0.4-0.2-0.4-0.4v-22c0-0.2,0.2-0.4,0.4-0.4h2.9c0.3,0,0.4,0.2,0.4,0.4v13.3l5.6-7c0.3-0.3,0.5-0.4,0.8-0.4h3
		c0.4,0,0.5,0.4,0.3,0.6l-5,5.8l5.3,9.6C543.6,980,543.4,980.3,543.1,980.3z"/>
	<path class="st2" d="M550.2,957.8v8c0.7-1.2,2.3-2.4,4.7-2.4c3.4,0,5.6,2.6,5.6,6.4v4.4c0,3.8-2.2,6.3-5.8,6.3
		c-2.3,0-4-1.2-4.7-2.4v1.7c0,0.2-0.1,0.4-0.4,0.4h-2.8c-0.3,0-0.4-0.2-0.4-0.4v-22.1c0-0.2,0.1-0.4,0.4-0.4h2.9
		C550,957.4,550.2,957.6,550.2,957.8z M550.2,970.4v3.4c0,2.3,1.5,3.6,3.4,3.6c2.1,0,3.2-1.3,3.2-3.6v-3.4c0-2.3-1.1-3.7-3.2-3.7
		C551.7,966.7,550.2,968,550.2,970.4z"/>
	<path class="st2" d="M577,968.9v11c0,0.3-0.1,0.4-0.4,0.4H574c-0.3,0-0.4-0.2-0.4-0.4v-2c-1,1.7-2.7,2.7-4.7,2.7
		c-3.1,0-5.1-2-5.1-5s2-4.7,6.3-5c1.2-0.1,2.3-0.1,3.4,0V969c0-1.9-1-2.6-2.7-2.6s-2.3,0.6-2.8,1.8c-0.1,0.3-0.2,0.4-0.6,0.3
		l-2.6-0.7c-0.3-0.1-0.4-0.2-0.3-0.5c0.5-2.3,2.6-4,6.4-4C574.7,963.4,577,965.2,577,968.9z M573.4,974.9v-2c-1,0-2.1,0-3.1,0.1
		c-1.9,0.2-3.1,0.9-3.1,2.4c0,1.3,0.9,2.2,2.5,2.2C571.5,977.6,572.7,976.6,573.4,974.9z"/>
	<path class="st2" d="M585.2,969.7v10.2c0,0.3-0.2,0.4-0.4,0.4H582c-0.3,0-0.5-0.2-0.5-0.4v-15.7c0-0.2,0.1-0.4,0.4-0.4h2.8
		c0.3,0,0.4,0.2,0.4,0.4v2c1-1.5,2.7-2.7,5-2.7c3.1,0,4.9,2.3,4.9,5.6v10.8c0,0.3-0.1,0.4-0.4,0.4h-2.8c-0.3,0-0.5-0.2-0.5-0.4
		v-10.2c0-1.8-0.8-2.9-2.5-2.9C587.1,966.8,585.8,968,585.2,969.7z"/>
	<path class="st2" d="M599,974.3v-4.4c0-3.8,2.3-6.4,5.6-6.4c2.4,0,4,1.3,4.7,2.4v-8c0-0.2,0.1-0.4,0.4-0.4h2.9
		c0.2,0,0.4,0.2,0.4,0.4V980c0,0.2-0.2,0.4-0.4,0.4h-2.8c-0.2,0-0.4-0.2-0.4-0.4v-1.7c-0.7,1.2-2.3,2.4-4.7,2.4
		C601.2,980.6,599,978.1,599,974.3z M609.3,973.7v-3.4c0-2.3-1.5-3.7-3.4-3.7c-2.1,0-3.2,1.4-3.2,3.7v3.4c0,2.3,1.1,3.6,3.2,3.6
		C607.8,977.3,609.3,976.1,609.3,973.7z"/>
</g>
<path class="st3" d="M331.9,802.1v-45.6c-0.2-7.6,5.8-13.9,13.4-14.1c0.2,0,0.5,0,0.7,0c7.2,0,14.4,0,21.6,0c0.8,0,1.1-0.2,1.1-1.1
	c-0.1-4.3,0-8.5,0-12.8c0-7.6,6.2-13.8,13.7-13.8c0,0,0,0,0.1,0H432c3.7,0,7.2,1.4,9.8,4.1c4.9,4.9,9.8,9.8,14.7,14.7
	c2.8,2.7,4.3,6.4,4.2,10.3c0,25.5,0,51.1,0,76.6c0.1,7.6-6,13.8-13.5,13.9c-0.1,0-0.1,0-0.2,0c-7.4,0-14.7,0-22.1,0
	c-0.8,0-1,0.2-1,1c0,4.3,0,8.6,0,12.9c0,7-5.2,12.8-12.2,13.6c-0.3,0-0.7,0-1,0c-21.7,0-43.4,0-65.1,0c-6.4-0.1-11.9-4.5-13.3-10.8
	c-0.2-1-0.3-2-0.3-3.1L331.9,802.1z M414.7,843.5c0.2-2.9,0-5.8,0.1-8.8c0-0.4-0.2-0.4-0.5-0.4h-8.6h-18.5c-2.5-0.1-4.9,0.1-7.4-0.3
	c-0.6-0.2-1.2-0.4-1.9-0.5c-2.5-0.9-4.7-2.6-6.3-4.7c-0.8-1.2-1.5-2.4-2.1-3.7c-0.1-0.7-0.2-1.5-0.5-2.2c-0.1-0.9-0.2-1.8-0.2-2.7
	c0-1.4,0-2.9,0-4.3c0-2.4,0-4.8,0-7.1c0-18.8,0-37.6,0-56.3c0-0.5,0-0.9-0.8-0.9c-7.4,0-14.7,0-22.1,0c-2.5-0.1-4.6,1.8-4.8,4.3
	c0,0.2,0,0.3,0,0.5V815c0,0.3,0,0.6,0,0.9v9.1c0,0.1,0,0.2,0,0.3v23c0,0.7,0.2,1.3,0.5,1.9c0.9,1.7,2.6,2.6,4.5,2.5H363h5.7h36.8
	c1.5,0,3,0.1,4.5,0c2.1,0,3.9-1.5,4.4-3.5C414.8,847.2,414.8,845.3,414.7,843.5L414.7,843.5z M433.1,733.2c0,2.8,0,5.7,0,8.6
	c0,0.4,0.1,0.5,0.5,0.5h8.6c2.8,0,5.7,0,8.5,0c0.6,0,0.6-0.2,0.4-0.7c-0.3-0.7-0.8-1.3-1.3-1.8c-2.5-2.3-4.8-4.8-7.2-7.1
	s-4.7-4.6-6.9-7c-0.6-0.6-1.3-1.1-2-1.5c-0.4-0.2-0.6-0.3-0.6,0.3C433.1,727.5,433.1,730.4,433.1,733.2z M442.1,825
	c1.6,0,3.2,0.1,4.8,0c2.5,0,4.5-2,4.5-4.6l0,0c0-1.5,0-3.1-0.1-4.6v-55.3c0-2.8,0-5.7,0-8.5c0-0.5-0.2-0.6-0.6-0.6
	c-2.8,0-5.7,0-8.5,0H433c-0.5,0-1.1,0-1.6,0c-0.8-0.1-1.5,0.2-2.3-0.1c-0.8-0.2-1.5-0.6-2.2-1c-1.9-1.2-3.1-3.2-3.1-5.5
	c-0.1-4,0-7.9-0.1-11.8c0-2.8,0-5.7,0-8.5c0-0.4-0.1-0.6-0.6-0.6h-8.5h-18.3c-4.7,0-9.3-0.1-14,0c-2.5,0.1-4.5,2.1-4.4,4.6
	c0,0.1,0,0.1,0,0.2v67.9c0,7.8,0,15.7,0,23.5c-0.2,2.5,1.7,4.6,4.1,4.8l0,0c2.5,0.2,5,0.2,7.5,0.1c2.2,0,4.5,0,6.7,0
	c3.1,0.1,6.2,0.1,9.2,0c0.2,0,0.5,0,0.7,0h26.2c0.2,0,0.4,0,0.7,0C436.1,825.1,439.2,825.1,442.1,825L442.1,825z"/>
<g>
	<path class="st3" d="M377.6,512.4c0.8-2.7,1.6-5.4,2.3-8.1c0.2-0.6,0.4-1.2,0.5-1.9c0.1-0.1,0.2-0.2,0.2-0.3l1.6-5.7
		c0.8-2.7,1.5-5.4,2.3-8.1s1.6-5.4,2.3-8.1l1.7-6l0.6-2.1c0.8-2.6,1.5-5.3,2.2-7.9s1.5-5,2.2-7.6c1-3.3,1.9-6.6,2.8-9.9
		c0.1-0.3,0.1-0.6,0.1-0.9l1.7-5.7c1.2-4.1,2.4-8.2,3.5-12.3c1-3.4,1.9-6.9,2.9-10.3l0.4-1.5c0.3-1,0.6-1.9,0.8-2.9
		c0.5-1.7,1.1-3.4,1.4-5.2l1.6-5.6c0.1-0.5,0.3-1,0.4-1.4c0.2-0.7,0.9-1.2,1.7-1h0.1l1.3,0.3l0.6,0.2c1.4,0.4,2.8,0.8,4.2,1.2
		c0.8,0.1,1.3,0.8,1.2,1.5c0,0.1,0,0.2-0.1,0.3c-0.2,1.5-0.8,2.9-1.1,4.3c-0.5,1.8-1.1,3.7-1.7,5.5c-2.2,7.6-4.3,15.2-6.5,22.9
		l-21,73.6l-5,17.5c-0.2,0.9-1.1,1.4-2,1.1c-0.1,0-0.1,0-0.2-0.1c-0.3-0.1-0.6-0.2-0.9-0.2c-1.7-0.5-3.3-1-5-1.5
		c-0.8-0.1-1.3-0.9-1.2-1.7c0-0.1,0.1-0.2,0.1-0.3c0.4-1.4,0.8-2.8,1.2-4.2C376,517.8,376.8,515.1,377.6,512.4z"/>
	<path class="st3" d="M359.6,496.2c-1-1.1-2.2-2.1-3.5-3c-0.7-0.8-1.5-1.6-2.4-2.2c-1-0.9-2-1.9-3.1-2.7c-1.6-1.4-3.1-2.8-4.7-4.3
		c-1.9-1.7-3.9-3.4-5.8-5.1c-0.6-0.5-1.2-1-1.8-1.5c-1.5-1.3-2.9-2.7-4.4-3.9c-0.5-0.6-1.1-1.1-1.8-1.4l0,0
		c-0.8-0.8-1.6-1.6-2.5-2.3c-1.7-1.6-3.5-3.1-5.3-4.6l-0.2-0.9v-0.6c0.2-0.2,0.4-0.4,0.6-0.6l15-13.3c2.9-2.5,5.7-5,8.5-7.6l2.3-2.1
		c2-1.6,3.9-3.3,5.8-5.1l3.2-2.9l1-0.8c0.5-0.5,1.3-0.5,1.8-0.1c0.1,0.1,0.1,0.1,0.2,0.2c1.5,1.7,3,3.4,4.5,5.1
		c0.5,0.4,0.6,1.2,0.2,1.7c-0.1,0.1-0.2,0.2-0.3,0.3l-1.6,1.5c-0.4,0.2-0.7,0.5-1,0.8L364,441l-8.8,7.5l-7.1,6
		c-3.7,3.1-7.4,6.3-11.2,9.4c-0.3,0.3-0.1,0.4,0.1,0.6l3.1,2.6l6.2,5.2c0.6,0.6,1.3,1.1,1.9,1.7c1.4,1.2,2.8,2.4,4.2,3.6l11.7,9.9
		l1.2,1c0.5,0.5,1.1,0.9,1.6,1.4c0.6,0.4,0.7,1.1,0.4,1.7c-0.1,0.1-0.2,0.2-0.3,0.3c-0.9,1.1-1.9,2-2.8,3.2
		c-0.4,0.4-0.8,0.8-1.1,1.2c-0.3,0.3-0.6,0.6-0.9,0.9c-0.4,0.4-1.2,0.4-1.6,0C360.3,496.8,359.9,496.6,359.6,496.2z"/>
	<path class="st3" d="M436.3,435c0.9,0.9,1.8,1.7,2.8,2.6c3.2,2.8,6.4,5.6,9.6,8.5c6.4,5.6,12.8,11.3,19.2,16.9
		c0.7,0.5,0.9,1.4,0.4,2.1c-0.1,0.1-0.2,0.2-0.3,0.3c-11.9,10.5-23.8,21-35.7,31.5c-0.9,0.8-1.4,0.8-2.2-0.1
		c-1.4-1.6-2.8-3.2-4.2-4.8c-0.8-0.9-0.8-1.5,0.2-2.3l8.9-7.5l20.6-17.4c0.5-0.4,0.6-0.6,0-1c-9.8-8.2-19.5-16.5-29.3-24.8
		c-1.3-1.1-1.3-1.5-0.2-2.8c1.4-1.6,2.8-3,4.1-4.7c0.6-0.5,1.4-0.5,1.9,0c0.3,0.2,0.5,0.6,0.9,0.7C434,433.1,435.1,434.1,436.3,435z
		"/>
</g>
<g>
	<path class="st3" d="M340,198.1c0-20.5,0-41,0-61.4c0-5.6,2.9-9.7,7.8-12.3c2-1,4.2-1.5,6.5-1.5h59.5c3.8-0.1,7.6,1.5,10.2,4.2
		c8.1,8.1,16.2,16.2,24.3,24.3c2.8,2.7,4.4,6.5,4.3,10.5c0,32.6,0,65.2,0,97.8c-0.2,6.6-5,12.1-11.5,13.2c-0.8,0.1-1.6,0.2-2.4,0.2
		c-28.3,0-56.6,0-84.9,0c-6.4-0.1-11.9-4.4-13.5-10.6c-0.2-1-0.4-2-0.4-3C340,239,340,218.5,340,198.1L340,198.1z M349.4,254.4
		c0,1.7-0.1,3.4,0,5c0.1,2.2,1.9,4,4.1,4.3c1.8,0.2,3.5,0.2,5.3,0.1c3.2,0.1,6.3,0.1,9.4,0s6.3,0.1,9.4,0s6.2,0.1,9.3,0
		s6.3,0.1,9.4,0s6.3,0.1,9.5,0s6.3,0.1,9.4,0s6.2,0.1,9.3,0s6.3,0.1,9.4,0c1.6,0,3.2,0.1,4.8,0c2.3-0.1,4.3-1.8,4.5-4.1
		c0.1-1.7,0.1-3.5,0-5.2c0.1-3.1,0.1-6.3,0-9.4c0.1-3.1,0.1-6.2,0-9.3c0.1-3.1,0.1-6.3,0-9.4c0.1-3.1,0.1-6.3,0-9.5
		c0.1-3.1,0.1-6.3,0-9.4c0.1-3.1,0.1-6.2,0-9.3c0.1-3.1,0.1-6.3,0-9.4c0-0.1,0-0.1,0-0.2c0-6,0-12,0-18c0-0.5-0.3-0.6-0.7-0.6
		c-6.1,0-12.1,0-18.2,0H415c-1.4,0-2.8-0.1-4.1-0.3c-2.3-0.5-4.1-2.2-4.8-4.5c-0.5-1.5-0.2-3.1-0.4-4.6V151c0.1-3.1,0.1-6.2,0-9.3
		s0-5.9,0-8.9c0-0.5-0.2-0.6-0.6-0.6c-2.9,0-5.9,0-8.8,0h-9.4H379h-20.3c-1.6,0-3.2,0-4.8,0c-2.4,0-4.4,1.9-4.6,4.3
		c-0.1,1.7,0,3.4,0,5c-0.1,3.2-0.1,6.3,0,9.4c-0.1,3.1-0.1,6.2,0,9.3c-0.1,3.2-0.1,6.4,0,9.6c-0.1,3.1-0.1,6.2,0,9.3
		c-0.1,3.1-0.1,6.3,0,9.4c-0.1,3.1-0.1,6.2,0,9.3c-0.1,3.2-0.1,6.4,0,9.6c-0.1,3.1-0.1,6.2,0,9.3c-0.1,3.1-0.1,6.3,0,9.4
		c-0.1,3.1-0.1,6.2,0,9.3c-0.1,3.2-0.1,6.4,0,9.6C349.3,248.1,349.3,251.3,349.4,254.4L349.4,254.4z M443.1,160.5
		c-0.2-0.9-0.7-1.7-1.4-2.4l-24.3-24.3c-0.4-0.4-0.8-0.7-1.3-1c-1-0.5-1-0.4-1,0.6c0,8.7,0,17.4,0,26.1c0,0.8,0.2,1,1,1
		c8.7,0,17.4,0,26.2,0L443.1,160.5z"/>
	<path class="st3" d="M401,226.2c-0.1,3.1-0.1,6.3,0,9.4c-0.1,3.1-0.1,6.2,0,9.3c0,0.8,0,1.6,0,2.4c0,1.3-1.2,2.4-2.5,2.4
		c-1.4,0-2.7,0-4.1,0c-1.4,0.1-2.6-0.9-2.8-2.3c0-0.1,0-0.3,0-0.4c0-18.5,0-37,0-55.6c0-1.9,0.8-2.7,2.8-2.8c0.6,0,1.3,0,1.9,0
		c1.1,0,2.3,0,3.4,0.2c0.9,0.6,1.4,1.6,1.3,2.6c0,2.2,0,4.4,0,6.6c-0.1,3.1-0.1,6.2,0,9.3c-0.1,3.1-0.1,6.3,0,9.4
		C400.9,219.9,401,223.1,401,226.2z"/>
	<path class="st3" d="M410.4,244.9v-28.1c0-2.1,0.1-4.2,0-6.3c-0.1-1.2,0.4-2.3,1.5-3c2-0.2,4-0.2,6,0c1.2,0.1,2.1,1.2,2,2.4
		c0,12.4,0,24.9,0,37.3c0,1.3-1,2.5-2.3,2.5c-0.1,0-0.2,0-0.3,0c-0.7,0-1.4,0-2.1,0h-1.9c-1.4,0.2-2.6-0.8-2.8-2.2
		c0-0.2,0-0.4,0-0.6C410.4,246.2,410.4,245.6,410.4,244.9z"/>
	<path class="st3" d="M382.3,233.3V247c0,1.6-0.7,2.5-2.3,2.6c-1.6,0.1-3.3,0.1-4.9,0c-1.3,0-2.3-1-2.3-2.3c0-0.1,0-0.2,0-0.3
		c0-4,0-8,0-12v-15.4c-0.2-1.3,0.7-2.6,2.1-2.8c0.2,0,0.4,0,0.6,0c1.4,0,2.7,0,4.1,0c1.3-0.1,2.5,0.9,2.6,2.2c0,0.1,0,0.3,0,0.4
		L382.3,233.3L382.3,233.3z"/>
</g>
<path class="st3" d="M338.1,1143.2c1.6-2.1,3.5-4,5.7-5.6c2.9-2.1,6.2-3.6,9.7-4.4c0.4-0.1,0.6-0.2,0.5-0.6v-63.2
	c0.2-0.7-0.5-0.7-0.8-0.8c-2.2-0.5-4.3-1.3-6.3-2.3c-1.1-0.6-2.2-1.4-3.2-2.1c-2.1-1.6-4-3.5-5.6-5.6c-1.8-2.6-3.2-5.4-4.1-8.4
	c-0.6-1.7-0.9-3.4-0.9-5.2c0-1.8-0.1-3.7,0-5.5c0.2-1.5,0.5-3,1.1-4.5c0.9-2.7,2.1-5.3,3.7-7.6c0.1,0,0.2-0.1,0.3-0.1
	c1.6-2.1,3.5-4,5.6-5.7c3-2.2,6.4-3.7,10.1-4.5l1.2-0.2c2.9-0.4,5.8-0.4,8.7,0l1.2,0.2c1.9,0.5,3.7,1.1,5.5,1.8
	c1.6,0.8,3.1,1.6,4.5,2.6c2.3,1.7,4.3,3.7,6,6c2.1,3,3.6,6.4,4.4,10c0,0.2,0.1,0.3,0.3,0.4c0,0.3-0.1,0.6,0,1
	c0.5,3.3,0.4,6.7-0.4,10c-0.4,1.5-0.9,3-1.5,4.5c-0.8,1.7-1.8,3.4-2.9,5c-1.6,2.1-3.5,4-5.6,5.6c-0.1,0-0.1,0-0.2,0
	c-2.9,2.2-6.2,3.7-9.7,4.5c-0.4,0.1-0.6,0.3-0.5,0.8v50.5c1.2-0.6,2.1-1.2,3.2-1.8c2.5-1.2,5.1-2.1,7.7-2.9
	c3.4-0.8,6.7-1.3,10.2-1.8l6.3-0.7c1.4-0.1,2.9-0.2,4.3-0.5c2-0.1,4-0.3,6-0.6c1.6-0.1,3.1-0.4,4.6-0.7c3.6-0.4,7.1-1.4,10.4-2.8
	c5-2,8.8-6.3,10.1-11.6c0.5-2,0.8-4,1-6.1c0-0.6-0.2-0.7-0.7-0.8c-4-0.8-7.7-2.6-10.9-5.2c-1.8-1.4-3.4-3.1-4.8-4.9
	c-0.5-0.8-1.1-1.7-1.6-2.5c-1.5-2.5-2.5-5.3-3.2-8.1c0-0.2,0-0.3-0.2-0.4c0-0.5,0-1.1-0.1-1.6c-0.4-3.5-0.2-7,0.8-10.4
	c0.9-3.1,2.3-6,4.2-8.6c1.5-2.1,3.4-3.9,5.4-5.4c3.2-2.2,6.8-3.8,10.6-4.6c0.3,0.1,0.5-0.1,0.8-0.2c2.9-0.4,5.9-0.3,8.8,0.1
	c0.2,0.2,0.4,0.1,0.6,0.1c3.8,0.8,7.4,2.4,10.6,4.7c2,1.6,3.8,3.4,5.4,5.4c2.9,3.8,4.7,8.4,5.1,13.3c0.3,2.3,0.2,4.7-0.3,7
	c0,0.1,0,0.3,0,0.4v0.4c-0.6,2.8-1.7,5.6-3.2,8.1c-0.5,0.8-1.1,1.7-1.6,2.5c-1.6,2-3.4,3.8-5.4,5.4c-2.8,2.1-6,3.5-9.3,4.4
	c-0.5,0.1-0.7,0.3-0.6,0.9c-0.2,2.1-0.5,4.2-0.7,6.3l-1.1,4.3c-1.3,3.7-3.3,7.1-5.8,10l-3.5,3.2c-1.7,1.2-3.6,2.3-5.5,3.3
	c-1.7,0.7-3.4,1.3-5.1,2c-3.8,1.1-7.6,1.9-11.5,2.4c-3.2,0.4-6.3,0.7-9.5,1.1c-1.3,0.1-2.7,0.2-4,0.4c-2.2,0.2-4.4,0.5-6.5,0.8
	c-0.9,0.1-1.8,0.2-2.8,0.4c-2.7,0.4-5.4,1.1-8,2.1c-0.2,0.1-0.4,0.1-0.6,0.2c-3.1,1.1-5.7,3.2-7.5,5.9c-0.4,0.6-0.3,0.8,0.4,1
	c1.1,0.3,2.3,0.7,3.3,1.3c4,1.9,7.5,4.7,10.2,8.2c2.2,3.1,3.8,6.7,4.7,10.4c0,0.3,0,0.5,0.1,0.8c0.5,2.9,0.5,5.9,0,8.9
	c-0.7,4.2-2.4,8.2-4.9,11.6c-1.6,2-3.4,3.8-5.4,5.4c-0.9,0.6-1.9,1.2-2.8,1.8c-2.4,1.3-4.9,2.3-7.6,2.9c-2.9,0.7-5.8,0.3-8.7,0.4
	c-0.7-0.1-1.3-0.2-1.9-0.4c-2.3-0.6-4.4-1.3-6.5-2.3c-1.3-0.7-2.5-1.6-3.8-2.3c-2.1-1.5-3.9-3.4-5.4-5.4c-0.2-0.3-0.4-0.6-0.5-0.9
	c-6.4-9.3-6.2-21.6,0.5-30.7L338.1,1143.2z M418.4,1058.6c-1.4,3.5-1.4,7.5,0,11c0.5,1.7,1.4,3.2,2.6,4.5c1.8,2.2,4.1,3.9,6.8,4.8
	c3.4,1.3,7.2,1.3,10.6,0c0.2-0.1,0.5-0.1,0.7-0.2c4.1-1.6,7.2-4.9,8.7-9c1.4-3.5,1.5-7.5,0.1-11c-1.6-4.5-5.1-7.9-9.5-9.5
	c-3.4-1.3-7.2-1.3-10.6,0C423.4,1050.7,419.9,1054.2,418.4,1058.6z M344.5,1164.5c0.6,1.9,1.6,3.6,2.9,5c1.7,2,4,3.6,6.6,4.4
	c3.5,1.3,7.4,1.3,10.9-0.1c0.2,0,0.3-0.1,0.5-0.1c6.4-2.6,10.4-9.2,9.7-16.1c-0.7-6.6-4.3-11-10.4-13.4c-0.6-0.2-1.3-0.4-1.9-0.6
	c-2.9-0.7-5.9-0.4-8.7,0.6c-0.2,0-0.4,0.1-0.6,0.2c-2.6,1-4.9,2.8-6.5,5c-1,1.2-1.8,2.6-2.3,4.1
	C343.1,1157,343.1,1160.9,344.5,1164.5L344.5,1164.5z M344.5,1037.6c-0.5,1.3-0.8,2.6-0.9,4c-0.3,2.2,0,4.5,0.9,6.6
	c1.5,4.5,5.1,8.1,9.6,9.6c2.5,1,5.3,1.2,8,0.7c8.6-1.5,14.4-9.7,12.9-18.3c-1.5-8.6-9.7-14.4-18.3-12.9c-0.9,0.2-1.7,0.4-2.6,0.7
	C349.6,1029.6,346,1033.1,344.5,1037.6z"/>
</svg>
