<?xml version="1.0" encoding="utf-8"?>
<!-- Generator: Adobe Illustrator 24.1.1, SVG Export Plug-In . SVG Version: 6.00 Build 0)  -->
<svg version="1.1" id="Layer_1" xmlns="http://www.w3.org/2000/svg" xmlns:xlink="http://www.w3.org/1999/xlink" x="0px" y="0px"
	 viewBox="0 0 1008 576" style="enable-background:new 0 0 1008 576;" xml:space="preserve">
<style type="text/css">
	.st0{fill:#FFFEFF;}
	.st1{fill:#2E3442;}
	.st2{enable-background:new    ;}
	.st3{fill:#93A4A9;}
	.st4{fill:#C7DDE3;stroke:#E2AC42;stroke-width:13;stroke-miterlimit:10;}
</style>
<rect class="st0" width="1008" height="576"/>
<path class="st1" d="M461.6,417.9l-4.4,5.7c-2.1,2.5-4.2,4.9-6.3,7.3c-0.3,0.3-0.7,0.6-0.9,1c-0.9,0.9-1.8,1.8-2.7,2.8
	c-2.4,2.2-4.8,4.4-7.3,6.4c-1.7,1.2-3.5,2.5-5.3,3.6l-1.7,1c-1.5,0.7-3,1.4-4.5,1.9s-3.1,0.7-4.7,0.9c-2.2,0.2-4.4-0.4-6.2-1.8
	l-0.9-1.1c-1.2-2.3-0.8-4.7,0-7c0.3-0.9,0.8-1.8,1.1-2.7c0.3-0.4,0.5-0.8,0.7-1.2c3.7-5.8,8.8-10,14.3-13.8c2-1.4,4-2.6,6.1-3.8
	c0.1-0.1,0.3-0.2,0.4-0.3c0.4-0.2,0.8-0.4,1.2-0.6c2.3-1.3,4.6-2.3,6.9-3.5l3.6-1.6l1.8-0.7c-0.6-0.8-1.2-1.7-1.7-2.7
	c-0.7-1.8-1-3.7-1-5.7c0.2-1.4,0.5-2.8,1-4.2c0.2-0.4,0.4-0.8,0.6-1.2c0.6-1.1,1.4-2,2.3-2.9c0.1-0.1,0.5-0.2,0.1-0.4
	c-1.1-0.8-2.2-1.5-3.3-2.2c-1.3-0.5-2.8-0.5-4.2,0c-1,0.3-1.9,0.6-2.8,0.8c-1.1,0.4-2.4-0.2-2.8-1.3l-0.2-0.3v-0.1l-0.1-0.2
	c-0.4-1-0.5-2.1-0.3-3.1c0.5-1.6,1.8-2.7,3.4-3.1c2.3-0.6,4.8-0.6,7.1,0.1h0.3c0,0,0.1,0.1,0.2,0.1c3.5,1.1,6.7,3,9.3,5.6
	c0.5,0.4,0.9,0.8,1.5,0.6c0.5,0,1,0,1.5,0.1c0.3,0.1,0.3-0.1,0.5-0.3c2.1-2.1,4.6-3.8,7.3-5c0.6-0.3,1.3-0.5,1.9-0.8
	c1.8-0.6,3.6-0.8,5.5-0.8c2.1,0.1,4,0.7,5.4,2.4c0.8,1.4,0.8,3.1,0.1,4.5l0,0c-0.1,0.1-0.1,0.2-0.2,0.3c-0.5,1.1-1.7,1.7-2.8,1.3
	c-1.3-0.3-2.4-0.8-3.7-1.1c-1.5-0.4-3.1-0.1-4.3,0.8l-2.5,1.7c1,0.9,1.8,1.9,2.5,3.1c0.6,1.2,1.1,2.5,1.4,3.9
	c0.1,0.5,0.1,1.1,0.2,1.6c0.1,2-0.3,4-1.1,5.8c-0.5,1-1.1,1.9-1.8,2.8c0.5,0.2,1,0.4,1.4,0.6l5.5,2.6l5.3,2.8
	c0.4,0.2,0.7,0.5,1.1,0.7c1.8,1,3.5,2.1,5.2,3.2s3.2,2.3,4.7,3.4l0,0c0.1,0.1,0.3,0.3,0.4,0.4c2.7,2.2,5.2,4.6,7.4,7.3
	c2.1,2.5,3.7,5.4,4.6,8.6c0.6,1.9,0.4,3.9-0.4,5.7c-0.3,0.5-0.7,0.9-1.1,1.3c-1.9,1.3-4.2,1.8-6.5,1.5c-1.5-0.2-3-0.5-4.5-1
	c-1.6-0.6-3.1-1.3-4.6-2.1l-2.1-1.3c-1.4-0.9-2.8-1.9-4.1-2.9c-1.9-1.6-3.9-3.2-5.7-5l-1.9-1.8l-3.5-3.7c-2.2-2.5-4.4-5.1-6.5-7.7
	c-1.5-2-3-3.9-4.5-6C461.8,417.5,461.7,417.7,461.6,417.9z"/>
<path class="st1" d="M472.9,452.4l-10.3-0.1h-1l-11.1-0.1h-4.3h-0.1c-0.6,0.1-0.7-0.2-0.9-0.7c-0.4-1.1-0.9-2.2-1.2-3.3
	c-0.2-0.8-0.3-1.7-0.3-2.5c0.6-1.8,1.5-3.4,2.8-4.8c1.3-1.5,2.7-2.8,4.2-4.1l2.3-1.9c0.9-0.7,1.8-1.4,2.6-2.2
	c2.2-1.8,4.3-3.9,6.1-6.1c0.8,0.7,1.4,1.6,2.2,2.4c2,2.1,4.2,4.1,6.5,5.9l2.4,2c1.1,1.1,2.3,2,3.3,3.2c1.2,1.3,2.2,2.7,3,4.2
	c0.3,0.5,0.4,1.1,0.5,1.7c0,0.7-0.1,1.3-0.2,2c-0.3,1.3-1,2.6-1.4,3.8c-0.1,0.3-0.3,0.5-0.6,0.4l0,0
	C475.9,452.4,474.4,452.4,472.9,452.4z"/>
<path class="st1" d="M450.6,457.7c2.1,0,4.2,0.1,6.2,0.1h4.9c0.8,0,1.7,0,2.5,0h8.6c0.9,0,1.8,0,2.7,0c0.3,0,0.4,0,0.3,0.4
	c-2,4.7-3.8,9.4-6.7,13.6c-1.1,1.9-2.8,3.4-4.8,4.3c-0.6,0.2-1.3,0.4-2,0.5c-2.3,0.1-4.5-0.8-6-2.6c-0.9-1-1.6-2-2.3-3.1
	c-0.7-1-1.3-2.1-2-3.1c-0.4-0.8-0.8-1.6-1.3-2.4c0-0.2-0.1-0.4-0.2-0.5c-1-2.3-1.9-4.5-2.9-6.8c-0.2-0.4-0.1-0.5,0.3-0.5
	C448.8,457.8,449.7,457.7,450.6,457.7z"/>
<path class="st1" d="M411.7,408.2c0.1,14.3-7.1,23.1-22.1,36.6L371,461.7h40.2c1,0,1.8,0.7,1.9,1.7c0,0.1,0,0.2,0,0.3v11.9
	c0.1,0.9-0.6,1.8-1.5,1.9c-0.1,0-0.2,0-0.4,0h-58.4c-1.1,0.2-2.2-0.6-2.4-1.7l-2-10.4c-0.3-1.2-0.1-2.5,0.7-3.6l26.8-25
	c15.1-14.3,18.8-19.6,18.8-27.6c-0.1-9-6-14.3-14.7-14.3c-9.1,0-13.5,5.2-15.9,13.1c-0.1,1-1,1.8-2,1.7c-0.3,0-0.5-0.1-0.7-0.2
	l-11.2-3.3c-1.1-0.3-1.8-1.4-1.6-2.6c0-0.1,0.1-0.2,0.1-0.3c3.8-14.2,13.2-23.9,31.7-23.9C399.8,379.3,411.5,391.1,411.7,408.2z"/>
<path class="st1" d="M574,408.2c0.1,14.3-7.1,23.1-22.1,36.6l-18.7,16.9h40.2c1,0,1.8,0.7,1.9,1.7c0,0.1,0,0.2,0,0.3v11.9
	c0.1,0.9-0.6,1.8-1.5,1.9c-0.1,0-0.2,0-0.4,0H515c-1.1,0.2-2.2-0.6-2.4-1.7l-2-10.4c-0.3-1.2-0.1-2.5,0.7-3.6l26.8-25
	c15.1-14.3,18.8-19.6,18.8-27.6c-0.1-9-5.9-14.3-14.7-14.3c-9.1,0-13.5,5.2-15.9,13.1c-0.1,1-1,1.8-2.1,1.7c-0.3,0-0.5-0.1-0.7-0.2
	l-11.2-3.3c-1.1-0.3-1.8-1.4-1.6-2.6c0-0.1,0.1-0.2,0.1-0.3c3.8-14.2,13.2-23.9,31.7-23.9C562.1,379.3,573.9,391.1,574,408.2z"/>
<path class="st1" d="M592.1,447.1v-36c0-19.7,12.3-31.9,32.3-31.9c20.2,0,32.3,13,32.3,31.9v36c0,18.9-11.9,31.9-32.4,31.9
	C604.5,478.9,592.1,466.8,592.1,447.1z M639.7,446.5v-34.9c0-11.4-6-16.8-15.3-16.8s-15.3,5.3-15.3,16.8v34.9
	c0,11.4,6.1,16.8,15.5,16.8S639.7,458,639.7,446.5L639.7,446.5z"/>
<g class="st2">
	<path class="st3" d="M395.5,98.9v125.2c0,33.2-19,52.7-50.8,52.7c-18.5,0-33.2-6.8-44.9-18.8c-2.2-2.2-2-4.6-0.5-6.3l13.4-15.4
		c2-2.2,4.4-2.9,7.1,0c5.6,6.3,12.9,11.5,23.7,11.5c12.9,0,20.7-8.1,20.7-23.2V98.9c0-2.2,1.2-3.4,3.7-3.4h24.2
		C394.5,95.5,395.5,96.7,395.5,98.9z"/>
</g>
<g class="st2">
	<path class="st3" d="M566.8,274.1h-25.1c-2.4,0-3.4-1-4.1-3.2l-12.9-41.5h-60.3l-13,41.6c-0.7,2.2-2.4,3.2-4.6,3.2h-23.4
		c-2.2,0-3.2-1.7-2.4-3.9L474.7,99c0.5-2.4,2.2-3.4,4.4-3.4h31c2.9,0,4.1,1,4.9,3.4l54.4,171.3C570,272.4,568.8,274.1,566.8,274.1z
		 M515.8,201.2l-6.6-21.2c-4.9-16.6-10.7-37.3-14.2-52.5h-1c-3.4,15.4-9.3,35.9-14.6,52.9l-6.3,20.7h42.7V201.2z"/>
	<path class="st3" d="M731.5,98.9v170.8c0,2.9-1.5,4.4-4.4,4.4h-31.7c-2.7,0-4.4-1.5-5.6-4.4L646.6,180c-8.3-17.3-15.6-36.4-21-51.5
		h-0.7c1.2,15.4,2,31.2,2,47.8v94.4c0,2.2-1,3.4-3.4,3.4h-22.9c-2.4,0-3.4-1.2-3.4-3.4V99.9c0-2.9,1.5-4.4,4.4-4.4h33.9
		c2.9,0,4.4,1.5,5.6,4.4l42,89.8c7.8,17.1,14.6,35.9,20.3,50.5h0.5c-1.2-15.1-2.2-31-2.2-47.6V98.9c0-2.2,1.2-3.4,3.7-3.4h22.9
		C730.3,95.5,731.5,96.7,731.5,98.9z"/>
</g>
<line class="st4" x1="0" y1="196.3" x2="1008" y2="196.3"/>
<g class="st2">
	<path class="st1" d="M372.8,97.5v125.2c0,33.2-19,52.7-50.8,52.7c-18.5,0-33.2-6.8-44.9-18.8c-2.2-2.2-2-4.6-0.5-6.3l13.4-15.4
		c2-2.2,4.4-2.9,7.1,0c5.6,6.3,12.9,11.5,23.7,11.5c12.9,0,20.7-8.1,20.7-23.2V97.5c0-2.2,1.2-3.4,3.7-3.4h24.2
		C371.8,94.1,372.8,95.3,372.8,97.5z"/>
</g>
<g class="st2">
	<path class="st1" d="M544.1,272.7H519c-2.4,0-3.4-1-4.1-3.2l-13-41.5h-60.3l-12.9,41.5c-0.7,2.2-2.4,3.2-4.6,3.2h-23.4
		c-2.2,0-3.2-1.7-2.4-3.9L452,97.5c0.5-2.4,2.2-3.4,4.4-3.4h31c2.9,0,4.1,1,4.9,3.4l54.4,171.3C547.2,271,546,272.7,544.1,272.7z
		 M493.1,199.7l-6.6-21.2c-4.9-16.6-10.7-37.3-14.2-52.5h-1c-3.4,15.4-9.3,35.9-14.6,52.9l-6.3,20.7h42.7V199.7z"/>
	<path class="st1" d="M708.8,97.5v170.8c0,2.9-1.5,4.4-4.4,4.4h-31.7c-2.7,0-4.4-1.5-5.6-4.4l-43.2-89.8
		c-8.3-17.3-15.6-36.4-21-51.5h-0.7c1.2,15.4,2,31.2,2,47.8v94.4c0,2.2-1,3.4-3.4,3.4h-22.9c-2.4,0-3.4-1.2-3.4-3.4V98.5
		c0-2.9,1.5-4.4,4.4-4.4h33.9c2.9,0,4.4,1.5,5.6,4.4l42,89.8c7.8,17.1,14.6,35.9,20.3,50.5h0.5c-1.2-15.1-2.2-31-2.2-47.6V97.5
		c0-2.2,1.2-3.4,3.7-3.4h22.9C707.5,94.1,708.8,95.3,708.8,97.5z"/>
</g>
</svg>
