<?xml version="1.0" encoding="utf-8"?>
<!-- Generator: Adobe Illustrator 24.1.1, SVG Export Plug-In . SVG Version: 6.00 Build 0)  -->
<svg version="1.1" id="Layer_1" xmlns="http://www.w3.org/2000/svg" xmlns:xlink="http://www.w3.org/1999/xlink" x="0px" y="0px"
	 viewBox="0 0 1008 576" style="enable-background:new 0 0 1008 576;" xml:space="preserve">
<style type="text/css">
	.st0{fill:#2F3443;}
	.st1{fill:#C7DDE3;}
	.st2{enable-background:new    ;}
	.st3{fill:#D9A828;}
	.st4{fill:none;stroke:#C7DDE3;stroke-width:13;stroke-miterlimit:10;}
	.st5{fill:#FADB8C;}
</style>
<rect class="st0" width="1008" height="576"/>
<path class="st1" d="M410.2,408.6c0.1,14-7,22.6-21.6,35.8L370.4,461h39.3c1-0.1,1.8,0.7,1.8,1.6c0,0.1,0,0.2,0,0.3v11.6
	c0.1,0.9-0.5,1.7-1.4,1.8c-0.1,0-0.3,0-0.4,0h-57.1c-1.1,0.2-2.1-0.6-2.3-1.7l-1.9-10.2c-0.3-1.2-0.1-2.5,0.7-3.5l26.3-24.4
	c14.7-14,18.3-19.1,18.3-27c-0.1-8.8-5.8-14-14.3-14c-8.9,0-13.2,5-15.5,12.8c-0.1,1-1,1.7-2,1.6c-0.2,0-0.5-0.1-0.7-0.2l-11-3.2
	c-1.1-0.3-1.8-1.4-1.5-2.5c0-0.1,0.1-0.2,0.1-0.3c3.8-13.8,12.9-23.4,31-23.4C398.6,380.3,410.1,391.9,410.2,408.6z"/>
<path class="st1" d="M572.1,462.8v11.7c0,1-0.7,1.8-1.7,1.8c0,0,0,0,0,0h-55.8c-1,0-1.7-0.8-1.7-1.8c0,0,0,0,0,0v-11.7
	c0-1,0.7-1.8,1.7-1.8c0,0,0,0,0,0H535v-60.4l-20.3,8c-0.8,0.4-1.8,0.1-2.3-0.7c-0.1-0.2-0.1-0.3-0.2-0.5l-4.1-10.6
	c-0.4-1.2-0.3-2.1,0.9-2.6l27.8-11.4c1.3-0.7,2.7-1.1,4.1-1.2h8.4c0.9-0.1,1.7,0.4,1.8,1.3c0,0.2,0,0.3,0,0.5V461h19.3
	C571.4,461,572.1,461.8,572.1,462.8C572.1,462.8,572.1,462.8,572.1,462.8z"/>
<path class="st1" d="M588.4,464.1c-0.8-0.8-0.8-2.1,0-2.9c0.1-0.1,0.2-0.2,0.4-0.3l7.6-6.3c1.2-0.9,2.2-0.8,3.2,0.5
	c3.6,4.7,8,7.5,15.8,7.5c12.9,0,17.5-7.5,17.5-16.8v-11.9h-0.1c-3.6,5.7-10.6,9.3-19,9.3c-15.9,0-27-10.6-27-28v-5.6
	c0-17.5,11-29.2,30.6-29.2c21.2-0.1,31.5,13.4,31.5,31.5l-0.1,31.8c0,20-10.2,33.9-32.4,33.9C603.7,477.5,594.7,472.6,588.4,464.1z
	 M632.8,413.8v-3c0-10.8-6.2-15.8-15.1-15.8c-9.6,0-15,4.9-15,15.3v3.6c0,10.3,5.4,15.3,14.6,15.4S632.8,424.1,632.8,413.8
	L632.8,413.8z"/>
<path class="st1" d="M459.3,419.7l-4.4,5.7c-2.1,2.5-4.2,4.9-6.3,7.3c-0.4,0.3-0.7,0.6-0.9,1c-0.9,0.9-1.8,1.8-2.7,2.8
	c-2.4,2.2-4.8,4.4-7.3,6.4c-1.7,1.2-3.5,2.5-5.3,3.6l-1.7,1c-1.5,0.7-3,1.4-4.5,1.9c-1.5,0.5-3.1,0.7-4.7,0.9
	c-2.2,0.2-4.4-0.4-6.2-1.8l-0.9-1.1c-1.2-2.3-0.8-4.7,0-7c0.3-0.9,0.8-1.8,1.1-2.7c0.3-0.4,0.5-0.8,0.7-1.2
	c3.7-5.8,8.8-10,14.3-13.8c2-1.4,4-2.6,6.1-3.8c0.2-0.1,0.3-0.2,0.4-0.3c0.4-0.2,0.8-0.4,1.2-0.6c2.3-1.3,4.6-2.3,6.9-3.5l3.6-1.6
	l1.8-0.7c-0.6-0.8-1.2-1.7-1.7-2.7c-0.7-1.8-1.1-3.7-1-5.7c0.2-1.4,0.5-2.8,1-4.2c0.2-0.4,0.4-0.8,0.6-1.2c0.6-1.1,1.4-2,2.3-2.9
	c0.1-0.1,0.5-0.2,0.1-0.4c-1.1-0.8-2.2-1.5-3.3-2.2c-1.3-0.5-2.8-0.5-4.2,0c-1,0.3-1.9,0.6-2.8,0.8c-1.1,0.4-2.4-0.2-2.8-1.3
	c-0.1-0.1-0.1-0.2-0.2-0.3v-0.1l-0.1-0.2c-0.4-1-0.5-2.1-0.3-3.1c0.5-1.6,1.8-2.7,3.4-3.1c2.3-0.6,4.8-0.6,7.1,0.1
	c0.1,0,0.2,0,0.3,0c0,0,0.1,0.1,0.2,0.1c3.5,1.1,6.7,3,9.3,5.6c0.5,0.4,0.9,0.8,1.5,0.6c0.5,0,1,0,1.5,0.1c0.3,0.1,0.4-0.1,0.5-0.3
	c2.1-2.1,4.6-3.8,7.3-5c0.6-0.3,1.3-0.5,1.9-0.8c1.8-0.6,3.6-0.8,5.5-0.8c2.1,0.2,4,0.7,5.4,2.4c0.7,1.4,0.8,3.1,0.1,4.5l0,0
	l-0.2,0.3c-0.4,1.1-1.7,1.7-2.8,1.3c-1.3-0.3-2.4-0.8-3.7-1.1c-1.5-0.4-3.1-0.1-4.3,0.8l-2.5,1.7c1,0.9,1.8,1.9,2.5,3.1
	c0.6,1.2,1.1,2.5,1.4,3.9c0.1,0.5,0.1,1.1,0.2,1.6c0.1,2-0.3,4-1.1,5.8c-0.5,1-1.1,1.9-1.8,2.8c0.5,0.2,1,0.4,1.4,0.6
	c1.8,0.8,3.7,1.7,5.5,2.5l5.3,2.8c0.4,0.2,0.7,0.5,1.1,0.7c1.8,1,3.5,2.1,5.2,3.3s3.2,2.3,4.7,3.4l0,0l0.4,0.4
	c2.7,2.2,5.2,4.6,7.4,7.3c2.1,2.5,3.7,5.4,4.6,8.6c0.6,1.9,0.4,3.9-0.4,5.7c-0.3,0.5-0.7,0.9-1.1,1.3c-1.9,1.3-4.2,1.8-6.5,1.5
	c-1.5-0.2-3-0.5-4.5-1c-1.6-0.6-3.2-1.3-4.7-2.1l-2.1-1.3c-1.4-0.9-2.8-1.9-4.1-2.8c-1.9-1.6-3.9-3.2-5.7-5l-1.9-1.8l-3.6-3.7
	c-2.2-2.5-4.4-5.1-6.5-7.7c-1.5-2-3-3.9-4.5-6C459.4,419.3,459.3,419.5,459.3,419.7z"/>
<path class="st1" d="M470.6,454.1l-10.3-0.1h-1l-11.1-0.1H444h-0.1c-0.6,0.1-0.7-0.2-0.9-0.7c-0.4-1.1-0.9-2.2-1.2-3.4
	c-0.2-0.8-0.3-1.7-0.3-2.5c0.6-1.8,1.5-3.4,2.8-4.8c1.3-1.5,2.8-2.8,4.3-4.1l2.3-1.9c0.9-0.7,1.8-1.4,2.6-2.2
	c2.2-1.8,4.3-3.9,6.1-6.1c0.8,0.7,1.4,1.6,2.2,2.4c2,2.1,4.2,4.1,6.5,5.9l2.4,2c1.1,1.1,2.3,2,3.3,3.2c1.2,1.3,2.2,2.7,3,4.2
	c0.3,0.5,0.4,1.1,0.5,1.7c0,0.7-0.1,1.4-0.2,2c-0.3,1.3-1,2.5-1.4,3.8c0,0.3-0.3,0.5-0.6,0.4c0,0,0,0,0,0
	C473.6,454.1,472.1,454.1,470.6,454.1z"/>
<path class="st1" d="M448.3,459.5l6.2,0.1c1.6,0,3.2,0,4.9,0l2.5,0h8.6c0.9,0,1.8,0,2.7,0c0.3,0,0.4,0,0.3,0.4
	c-2,4.7-3.8,9.4-6.7,13.5c-1.1,1.9-2.8,3.4-4.8,4.3c-0.6,0.2-1.3,0.4-2,0.5c-2.3,0.1-4.5-0.8-6-2.5c-0.8-1-1.6-2-2.3-3.1
	c-0.7-1-1.3-2.1-2-3.1c-0.4-0.8-0.8-1.6-1.3-2.4c0-0.2-0.1-0.4-0.2-0.5c-1-2.3-1.9-4.5-2.9-6.8c-0.2-0.4-0.1-0.5,0.4-0.5
	C446.6,459.5,447.4,459.5,448.3,459.5z"/>
<rect x="275.5" y="172.1" class="st0" width="56.4" height="35.1"/>
<rect x="383.3" y="174" class="st0" width="56.4" height="35.1"/>
<g class="st2">
	<path class="st3" d="M444.9,97v170.6c0,2.2-1,3.4-3.4,3.4h-22c-2,0-3.2-1.2-3.2-3.4v-96.6c0-13.7,1-34.9,2-48.3h-1l-39,144
		c-0.7,2.9-2.2,4.4-5.4,4.4h-21c-3.2,0-4.6-1.7-5.4-4.4l-39.5-144h-0.7c1,13.2,2.2,34.6,2.2,48.3v96.6c0,2.2-1.2,3.4-3.4,3.4h-21.7
		c-2,0-3.2-1.5-3.2-3.4V97c0-2.9,1.5-4.6,4.6-4.6h35.6c3.2,0,4.9,1.5,5.6,4.4l24.2,87.8c5.4,20.5,9.3,34.6,12.4,52.5h0.7
		c3.2-17.8,6.6-32.2,12.2-52.7L399.7,97c0.7-3.2,2.4-4.6,5.4-4.6h35.1C443.2,92.3,444.9,94,444.9,97z"/>
</g>
<g class="st2">
	<path class="st3" d="M619.1,270.9h-25.1c-2.4,0-3.4-1-4.1-3.2l-12.9-41.5h-60.3l-12.9,41.5c-0.7,2.2-2.4,3.2-4.6,3.2h-23.4
		c-2.2,0-3.2-1.7-2.4-3.9l53.7-171.3c0.5-2.4,2.2-3.4,4.4-3.4h31c2.9,0,4.1,1,4.9,3.4L621.5,267C622.3,269.2,621,270.9,619.1,270.9z
		 M568.1,198l-6.6-21.2c-4.9-16.6-10.7-37.3-14.2-52.5h-1c-3.4,15.4-9.3,35.9-14.6,52.9l-6.3,20.7H568.1z"/>
</g>
<g class="st2">
	<path class="st3" d="M762.1,97l-56.1,99.8v70.8c0,2.2-1,3.4-3.4,3.4h-24.6c-2,0-3.2-1.2-3.2-3.4v-70.3L618.3,97
		c-1.5-2.2-0.5-4.6,2.4-4.6h26.6c2.4,0,3.9,0.7,5.1,2.9l38.6,73.2l38.3-73.2c1.2-2.2,2.4-2.9,4.9-2.9h25.4
		C762.5,92.3,763.5,94.8,762.1,97z"/>
</g>
<line class="st4" x1="0" y1="196.3" x2="1008" y2="196.3"/>
<g class="st2">
	<path class="st5" d="M428.6,97v170.6c0,2.2-1,3.4-3.4,3.4h-22c-2,0-3.2-1.2-3.2-3.4v-96.6c0-13.7,1-34.9,2-48.3h-1l-39,144
		c-0.7,2.9-2.2,4.4-5.4,4.4h-21c-3.2,0-4.6-1.7-5.4-4.4l-39.5-144H290c1,13.2,2.2,34.6,2.2,48.3v96.6c0,2.2-1.2,3.4-3.4,3.4h-21.7
		c-2,0-3.2-1.5-3.2-3.4V97c0-2.9,1.5-4.6,4.6-4.6h35.6c3.2,0,4.9,1.5,5.6,4.4l24.2,87.8c5.4,20.5,9.3,34.6,12.4,52.5h0.7
		c3.2-17.8,6.6-32.2,12.2-52.7L383.5,97c0.7-3.2,2.4-4.6,5.4-4.6H424C426.9,92.3,428.6,94,428.6,97z"/>
</g>
<g class="st2">
	<path class="st5" d="M602.8,270.9h-25.1c-2.4,0-3.4-1-4.1-3.2l-12.9-41.5h-60.3l-12.9,41.5c-0.7,2.2-2.4,3.2-4.6,3.2h-23.4
		c-2.2,0-3.2-1.7-2.4-3.9l53.7-171.3c0.5-2.4,2.2-3.4,4.4-3.4h31c2.9,0,4.1,1,4.9,3.4L605.2,267C606,269.2,604.8,270.9,602.8,270.9z
		 M551.8,198l-6.6-21.2c-4.9-16.6-10.7-37.3-14.2-52.5h-1c-3.4,15.4-9.3,35.9-14.6,52.9l-6.3,20.7H551.8z"/>
</g>
<g class="st2">
	<path class="st5" d="M745.8,97l-56.1,99.8v70.8c0,2.2-1,3.4-3.4,3.4h-24.6c-2,0-3.2-1.2-3.2-3.4v-70.3L602.1,97
		c-1.5-2.2-0.5-4.6,2.4-4.6h26.6c2.4,0,3.9,0.7,5.1,2.9l38.6,73.2l38.3-73.2c1.2-2.2,2.4-2.9,4.9-2.9h25.4
		C746.3,92.3,747.3,94.8,745.8,97z"/>
</g>
</svg>
