<?xml version="1.0" encoding="utf-8"?>
<!-- Generator: Adobe Illustrator 24.1.1, SVG Export Plug-In . SVG Version: 6.00 Build 0)  -->
<svg version="1.1" id="Layer_1" xmlns="http://www.w3.org/2000/svg" xmlns:xlink="http://www.w3.org/1999/xlink" x="0px" y="0px"
	 viewBox="0 0 1008 576" style="enable-background:new 0 0 1008 576;" xml:space="preserve">
<style type="text/css">
	.st0{fill:#FFFFFF;}
	.st1{fill:#FADB8C;}
	.st2{fill:#303543;}
	.st3{fill:#2F3443;}
	.st4{enable-background:new    ;}
	.st5{fill:#93A4A9;}
	.st6{fill:none;stroke:#D9A828;stroke-width:13;stroke-miterlimit:10;}
</style>
<rect class="st0" width="1008" height="576"/>
<polygon class="st1" points="370.4,187.6 338.4,187.6 336,211.7 381.4,211.7 "/>
<path class="st2" d="M467.3,419.7l-4.4,5.7c-2.1,2.5-4.2,4.9-6.3,7.3c-0.4,0.3-0.7,0.6-0.9,1c-0.9,0.9-1.8,1.8-2.7,2.8
	c-2.4,2.2-4.8,4.4-7.3,6.4c-1.7,1.2-3.5,2.5-5.3,3.6l-1.7,1c-1.5,0.7-3,1.4-4.5,1.9c-1.5,0.5-3.1,0.8-4.7,0.9
	c-2.2,0.2-4.4-0.4-6.2-1.8l-0.9-1.1c-1.2-2.3-0.8-4.7,0-7c0.3-0.9,0.8-1.8,1.2-2.7c0.3-0.4,0.5-0.8,0.7-1.2
	c3.7-5.8,8.8-10,14.3-13.8c2-1.4,4-2.6,6.1-3.8c0.2-0.1,0.3-0.2,0.4-0.3c0.4-0.2,0.8-0.4,1.1-0.6c2.3-1.3,4.6-2.3,6.9-3.5l3.6-1.6
	l1.8-0.7c-0.6-0.8-1.2-1.7-1.7-2.7c-0.7-1.8-1-3.7-1-5.7c0.2-1.4,0.5-2.8,1-4.2c0.2-0.4,0.4-0.8,0.7-1.2c0.6-1.1,1.4-2,2.2-2.9
	c0.1-0.1,0.5-0.2,0.1-0.4c-1.1-0.8-2.2-1.5-3.3-2.2c-1.3-0.5-2.8-0.5-4.2,0c-1,0.3-1.9,0.6-2.8,0.8c-1.1,0.4-2.4-0.2-2.8-1.3
	c-0.1-0.1-0.1-0.2-0.2-0.3v-0.1l-0.1-0.2c-0.4-1-0.5-2.1-0.3-3.1c0.5-1.6,1.8-2.7,3.4-3.1c2.3-0.6,4.8-0.6,7.1,0.1
	c0.1,0,0.2,0,0.3,0c0,0,0.1,0.1,0.2,0.1c3.5,1.1,6.7,3,9.3,5.6c0.5,0.4,0.9,0.8,1.5,0.6c0.5,0,1,0,1.5,0.1c0.3,0.1,0.4-0.1,0.5-0.3
	c2.1-2.1,4.6-3.8,7.3-5c0.6-0.3,1.3-0.5,1.9-0.8c1.8-0.6,3.6-0.8,5.5-0.8c2.1,0.2,4,0.7,5.4,2.4c0.7,1.4,0.8,3.1,0.1,4.5l0,0
	c-0.1,0.1-0.1,0.2-0.2,0.3c-0.4,1.1-1.7,1.7-2.8,1.3c-1.3-0.3-2.4-0.8-3.7-1.1c-1.5-0.4-3.1-0.1-4.3,0.8l-2.5,1.7
	c1,0.9,1.8,1.9,2.5,3.1c0.6,1.2,1.1,2.5,1.4,3.9c0.1,0.5,0.1,1.1,0.2,1.6c0.1,2-0.3,4-1.1,5.8c-0.5,1-1.1,1.9-1.8,2.8
	c0.5,0.2,1,0.4,1.4,0.6c1.8,0.8,3.7,1.7,5.5,2.6l5.3,2.8c0.4,0.2,0.7,0.5,1.1,0.7c1.8,1,3.5,2.1,5.2,3.3s3.1,2.3,4.7,3.4l0,0
	l0.4,0.4c2.7,2.2,5.2,4.6,7.4,7.3c2.1,2.5,3.7,5.4,4.6,8.6c0.6,1.9,0.4,3.9-0.4,5.7c-0.3,0.5-0.7,0.9-1.1,1.3
	c-1.9,1.3-4.2,1.8-6.5,1.5c-1.5-0.2-3-0.5-4.5-1c-1.6-0.6-3.1-1.3-4.6-2.1l-2.1-1.3c-1.4-0.9-2.8-1.9-4.1-2.8
	c-1.9-1.6-3.9-3.2-5.7-5l-1.9-1.8l-3.5-3.7c-2.2-2.5-4.4-5.1-6.5-7.7c-1.5-2-3.1-3.9-4.5-6C467.5,419.2,467.4,419.4,467.3,419.7z"/>
<path class="st2" d="M478.6,454.1l-10.3-0.1h-1l-11.1-0.1H452h-0.1c-0.6,0.1-0.7-0.2-0.9-0.7c-0.4-1.1-0.9-2.2-1.2-3.4
	c-0.2-0.8-0.3-1.7-0.3-2.5c0.6-1.8,1.5-3.4,2.8-4.8c1.3-1.5,2.7-2.8,4.2-4.1l2.3-1.9c0.9-0.7,1.8-1.4,2.6-2.2
	c2.2-1.8,4.3-3.9,6.1-6.1c0.8,0.7,1.4,1.6,2.2,2.4c2,2.1,4.2,4.1,6.5,5.9l2.4,2c1.1,1.1,2.3,2,3.3,3.2c1.2,1.3,2.2,2.7,3,4.2
	c0.2,0.5,0.4,1.1,0.5,1.7c0,0.7-0.1,1.3-0.2,2c-0.3,1.3-1,2.5-1.4,3.8c-0.1,0.3-0.3,0.4-0.6,0.4
	C481.7,454.1,480.1,454.1,478.6,454.1z"/>
<path class="st2" d="M456.3,459.5l6.2,0.1c1.6,0,3.2,0,4.9,0h2.5h8.6c0.9,0,1.8,0,2.7,0c0.3,0,0.4,0,0.3,0.4
	c-2,4.7-3.8,9.4-6.7,13.6c-1.1,1.9-2.8,3.4-4.8,4.3c-0.6,0.2-1.3,0.4-2,0.5c-2.3,0.1-4.5-0.8-6-2.5c-0.8-1-1.6-2-2.3-3.1
	c-0.7-1-1.3-2.1-2-3.1c-0.4-0.8-0.8-1.6-1.3-2.4c0-0.2-0.1-0.4-0.2-0.5c-1-2.3-1.9-4.6-2.9-6.8c-0.2-0.4-0.1-0.5,0.3-0.5
	C454.5,459.5,455.4,459.5,456.3,459.5z"/>
<path class="st3" d="M467.3,419.7l-4.4,5.7c-2.1,2.5-4.2,4.9-6.3,7.3c-0.4,0.3-0.7,0.6-0.9,1c-0.9,0.9-1.8,1.8-2.7,2.8
	c-2.4,2.2-4.8,4.4-7.3,6.4c-1.7,1.2-3.5,2.5-5.3,3.6l-1.7,1c-1.5,0.7-3,1.4-4.5,1.9c-1.5,0.5-3.1,0.8-4.7,0.9
	c-2.2,0.2-4.4-0.4-6.2-1.8l-0.9-1.1c-1.2-2.3-0.8-4.7,0-7c0.3-0.9,0.8-1.8,1.2-2.7c0.3-0.4,0.5-0.8,0.7-1.2
	c3.7-5.8,8.8-10,14.3-13.8c2-1.4,4-2.6,6.1-3.8c0.2-0.1,0.3-0.2,0.4-0.3c0.4-0.2,0.8-0.4,1.1-0.6c2.3-1.3,4.6-2.3,6.9-3.5l3.6-1.6
	l1.8-0.7c-0.6-0.8-1.2-1.7-1.7-2.7c-0.7-1.8-1-3.7-1-5.7c0.2-1.4,0.5-2.8,1-4.2c0.2-0.4,0.4-0.8,0.7-1.2c0.6-1.1,1.4-2,2.2-2.9
	c0.1-0.1,0.5-0.2,0.1-0.4c-1.1-0.8-2.2-1.5-3.3-2.2c-1.3-0.5-2.8-0.5-4.2,0c-1,0.3-1.9,0.6-2.8,0.8c-1.1,0.4-2.4-0.2-2.8-1.3
	c-0.1-0.1-0.1-0.2-0.2-0.3v-0.1l-0.1-0.2c-0.4-1-0.5-2.1-0.3-3.1c0.5-1.6,1.8-2.7,3.4-3.1c2.3-0.6,4.8-0.6,7.1,0.1
	c0.1,0,0.2,0,0.3,0c0,0,0.1,0.1,0.2,0.1c3.5,1.1,6.7,3,9.3,5.6c0.5,0.4,0.9,0.8,1.5,0.6c0.5,0,1,0,1.5,0.1c0.3,0.1,0.4-0.1,0.5-0.3
	c2.1-2.1,4.6-3.8,7.3-5c0.6-0.3,1.3-0.5,1.9-0.8c1.8-0.6,3.6-0.8,5.5-0.8c2.1,0.2,4,0.7,5.4,2.4c0.7,1.4,0.8,3.1,0.1,4.5l0,0
	c-0.1,0.1-0.1,0.2-0.2,0.3c-0.4,1.1-1.7,1.7-2.8,1.3c-1.3-0.3-2.4-0.8-3.7-1.1c-1.5-0.4-3.1-0.1-4.3,0.8l-2.5,1.7
	c1,0.9,1.8,1.9,2.5,3.1c0.6,1.2,1.1,2.5,1.4,3.9c0.1,0.5,0.1,1.1,0.2,1.6c0.1,2-0.3,4-1.1,5.8c-0.5,1-1.1,1.9-1.8,2.8
	c0.5,0.2,1,0.4,1.4,0.6c1.8,0.8,3.7,1.7,5.5,2.6l5.3,2.8c0.4,0.2,0.7,0.5,1.1,0.7c1.8,1,3.5,2.1,5.2,3.3s3.1,2.3,4.7,3.4l0,0
	l0.4,0.4c2.7,2.2,5.2,4.6,7.4,7.3c2.1,2.5,3.7,5.4,4.6,8.6c0.6,1.9,0.4,3.9-0.4,5.7c-0.3,0.5-0.7,0.9-1.1,1.3
	c-1.9,1.3-4.2,1.8-6.5,1.5c-1.5-0.2-3-0.5-4.5-1c-1.6-0.6-3.1-1.3-4.6-2.1l-2.1-1.3c-1.4-0.9-2.8-1.9-4.1-2.8
	c-1.9-1.6-3.9-3.2-5.7-5l-1.9-1.8l-3.5-3.7c-2.2-2.5-4.4-5.1-6.5-7.7c-1.5-2-3.1-3.9-4.5-6C467.5,419.2,467.4,419.4,467.3,419.7z"/>
<path class="st3" d="M478.6,454.1l-10.3-0.1h-1l-11.1-0.1H452h-0.1c-0.6,0.1-0.7-0.2-0.9-0.7c-0.4-1.1-0.9-2.2-1.2-3.4
	c-0.2-0.8-0.3-1.7-0.3-2.5c0.6-1.8,1.5-3.4,2.8-4.8c1.3-1.5,2.7-2.8,4.2-4.1l2.3-1.9c0.9-0.7,1.8-1.4,2.6-2.2
	c2.2-1.8,4.3-3.9,6.1-6.1c0.8,0.7,1.4,1.6,2.2,2.4c2,2.1,4.2,4.1,6.5,5.9l2.4,2c1.1,1.1,2.3,2,3.3,3.2c1.2,1.3,2.2,2.7,3,4.2
	c0.2,0.5,0.4,1.1,0.5,1.7c0,0.7-0.1,1.3-0.2,2c-0.3,1.3-1,2.5-1.4,3.8c-0.1,0.3-0.3,0.4-0.6,0.4
	C481.7,454.1,480.1,454.1,478.6,454.1z"/>
<path class="st3" d="M456.3,459.5l6.2,0.1c1.6,0,3.2,0,4.9,0h2.5h8.6c0.9,0,1.8,0,2.7,0c0.3,0,0.4,0,0.3,0.4
	c-2,4.7-3.8,9.4-6.7,13.6c-1.1,1.9-2.8,3.4-4.8,4.3c-0.6,0.2-1.3,0.4-2,0.5c-2.3,0.1-4.5-0.8-6-2.5c-0.8-1-1.6-2-2.3-3.1
	c-0.7-1-1.3-2.1-2-3.1c-0.4-0.8-0.8-1.6-1.3-2.4c0-0.2-0.1-0.4-0.2-0.5c-1-2.3-1.9-4.6-2.9-6.8c-0.2-0.4-0.1-0.5,0.3-0.5
	C454.5,459.5,455.4,459.5,456.3,459.5z"/>
<path class="st3" d="M417.4,409.9c0.1,14.3-7.1,23.1-22.1,36.6l-18.6,16.9h40.2c1-0.1,1.8,0.7,1.9,1.7c0,0.1,0,0.2,0,0.3v11.9
	c0.1,0.9-0.6,1.7-1.5,1.8c-0.1,0-0.3,0-0.4,0h-58.5c-1.1,0.2-2.2-0.6-2.4-1.7l-2-10.4c-0.3-1.2-0.1-2.6,0.7-3.6l26.8-25
	c15.1-14.3,18.8-19.6,18.8-27.6c-0.1-9-6-14.3-14.7-14.3c-9.1,0-13.5,5.2-15.9,13.1c-0.1,1-1,1.8-2.1,1.7c-0.3,0-0.5-0.1-0.7-0.2
	l-11.2-3.3c-1.1-0.3-1.8-1.4-1.6-2.6c0-0.1,0.1-0.2,0.1-0.3c3.8-14.2,13.2-23.9,31.7-23.9C405.5,381,417.2,392.9,417.4,409.9z"/>
<path class="st3" d="M579.7,409.9c0.1,14.3-7.1,23.1-22.1,36.6L539,463.5h40.2c1,0,1.8,0.7,1.9,1.7c0,0.1,0,0.2,0,0.3v11.9
	c0.1,0.9-0.6,1.8-1.5,1.8c-0.1,0-0.2,0-0.4,0h-58.4c-1.1,0.2-2.2-0.6-2.4-1.7l-2-10.4c-0.3-1.2-0.1-2.5,0.7-3.6l26.8-25
	c15.1-14.3,18.8-19.6,18.8-27.6c-0.1-9-6-14.3-14.7-14.3c-9.1,0-13.5,5.2-15.9,13.1c-0.1,1-1,1.8-2.1,1.7c-0.3,0-0.5-0.1-0.7-0.2
	l-11.2-3.3c-1.1-0.3-1.8-1.4-1.6-2.6c0-0.1,0.1-0.2,0.1-0.3c3.8-14.2,13.2-23.9,31.7-23.9C567.8,381,579.6,392.9,579.7,409.9z"/>
<path class="st3" d="M597.8,448.8v-36c0-19.7,12.3-31.9,32.3-31.9c20.2,0,32.3,13,32.3,31.9v36c0,18.9-11.9,31.9-32.4,31.9
	C610.3,480.7,597.8,468.5,597.8,448.8z M645.4,448.3v-34.9c0-11.4-6-16.8-15.3-16.8s-15.3,5.3-15.3,16.8v34.9
	c0,11.4,6.1,16.8,15.5,16.8S645.4,459.8,645.4,448.3L645.4,448.3z"/>
<g class="st4">
	<path class="st5" d="M418.9,109.5v21.2c0,2.4-1.2,3.4-3.4,3.4h-67.8v52h60.5c2.2,0,3.4,1.2,3.4,3.7v20c0,2.4-1.2,3.4-3.4,3.4h-60.5
		v68.1c0,2.2-1.2,3.4-3.7,3.4h-24.2c-2.4,0-3.4-1.2-3.4-3.4V109.5c0-2.2,1-3.4,3.4-3.4h95.6C417.7,106.1,418.9,107.3,418.9,109.5z"
		/>
	<path class="st5" d="M557,109.5v21.2c0,2.4-1.2,3.4-3.4,3.4h-70.3v46.1h63.2c2.2,0,3.4,1.2,3.4,3.4v20.3c0,2.4-1.2,3.4-3.4,3.4
		h-63.2v49.3h70.5c2.2,0,3.4,1,3.4,3.4v21.2c0,2.4-1.2,3.4-3.4,3.4h-98.3c-2.4,0-3.4-1.2-3.4-3.4V109.5c0-2.2,1-3.4,3.4-3.4h98.1
		C555.8,106.1,557,107.3,557,109.5z"/>
	<path class="st5" d="M712.4,151.2v3.2c0,18.3-9.8,31.7-25.1,37.3c17.8,3.2,30.5,18.5,30.5,40.5v3.7c0,29.8-18.5,48.8-54.9,48.8
		h-64.7c-2.4,0-3.4-1.2-3.4-3.4V109.5c0-2.2,1-3.4,3.4-3.4h63.4C695.4,106.1,712.4,123.6,712.4,151.2z M626.1,133.4v46.1h31
		c18.3,0,24.9-10.5,24.9-22v-2.2c0-12.4-6.6-22-24.9-22H626.1z M626.1,207.1v50.3h32.7c16.3,0,27.8-6.8,27.8-23.2v-3.4
		c0-15.6-10-23.7-27.8-23.7H626.1z"/>
</g>
<line class="st6" x1="0" y1="196.3" x2="1008" y2="196.3"/>
<g class="st4">
	<path class="st3" d="M399.5,109.5v21.2c0,2.4-1.2,3.4-3.4,3.4h-67.8v52h60.5c2.2,0,3.4,1.2,3.4,3.7v20c0,2.4-1.2,3.4-3.4,3.4h-60.5
		v68.1c0,2.2-1.2,3.4-3.7,3.4h-24.2c-2.4,0-3.4-1.2-3.4-3.4V109.5c0-2.2,1-3.4,3.4-3.4h95.6C398.3,106.1,399.5,107.3,399.5,109.5z"
		/>
	<path class="st3" d="M537.6,109.5v21.2c0,2.4-1.2,3.4-3.4,3.4h-70.3v46.1h63.2c2.2,0,3.4,1.2,3.4,3.4v20.3c0,2.4-1.2,3.4-3.4,3.4
		h-63.2v49.3h70.5c2.2,0,3.4,1,3.4,3.4v21.2c0,2.4-1.2,3.4-3.4,3.4h-98.3c-2.4,0-3.4-1.2-3.4-3.4V109.5c0-2.2,1-3.4,3.4-3.4h98.1
		C536.4,106.1,537.6,107.3,537.6,109.5z"/>
	<path class="st3" d="M693,151.2v3.2c0,18.3-9.8,31.7-25.1,37.3c17.8,3.2,30.5,18.5,30.5,40.5v3.7c0,29.8-18.5,48.8-54.9,48.8h-64.7
		c-2.4,0-3.4-1.2-3.4-3.4V109.5c0-2.2,1-3.4,3.4-3.4h63.4C676,106.1,693,123.6,693,151.2z M606.7,133.4v46.1h31
		c18.3,0,24.9-10.5,24.9-22v-2.2c0-12.4-6.6-22-24.9-22H606.7z M606.7,207.1v50.3h32.7c16.3,0,27.8-6.8,27.8-23.2v-3.4
		c0-15.6-10-23.7-27.8-23.7H606.7z"/>
</g>
</svg>
