<?xml version="1.0" encoding="utf-8"?>
<!-- Generator: Adobe Illustrator 24.1.1, SVG Export Plug-In . SVG Version: 6.00 Build 0)  -->
<svg version="1.1" id="Layer_1" xmlns="http://www.w3.org/2000/svg" xmlns:xlink="http://www.w3.org/1999/xlink" x="0px" y="0px"
	 viewBox="0 0 1008 576" style="enable-background:new 0 0 1008 576;" xml:space="preserve">
<style type="text/css">
	.st0{fill:#FFFEFF;}
	.st1{fill:#2E3442;}
	.st2{fill:#2F3443;}
	.st3{enable-background:new    ;}
	.st4{fill:#93A4A9;}
	.st5{fill:#C7DDE3;stroke:#E2AC42;stroke-width:13;stroke-miterlimit:10;}
</style>
<rect class="st0" width="1008" height="576"/>
<path class="st1" d="M410.2,408.6c0.1,14-7,22.6-21.6,35.8L370.4,461h39.3c1-0.1,1.8,0.7,1.8,1.6c0,0.1,0,0.2,0,0.3v11.6
	c0.1,0.9-0.5,1.7-1.4,1.8c-0.1,0-0.3,0-0.4,0h-57.1c-1.1,0.2-2.1-0.6-2.3-1.7l-1.9-10.2c-0.3-1.2-0.1-2.5,0.6-3.5l26.2-24.4
	c14.7-14,18.4-19.1,18.4-27c-0.1-8.8-5.8-14-14.3-14c-8.9,0-13.2,5-15.5,12.8c-0.1,1-1,1.7-2,1.6c-0.2,0-0.5-0.1-0.7-0.2l-11-3.2
	c-1.1-0.3-1.8-1.4-1.5-2.5c0-0.1,0.1-0.2,0.1-0.3c3.8-13.8,12.9-23.4,31-23.4C398.6,380.3,410.1,391.9,410.2,408.6z"/>
<path class="st1" d="M572.1,462.8v11.7c0,1-0.7,1.8-1.7,1.8l0,0h-55.8c-1,0-1.7-0.8-1.7-1.8l0,0v-11.8c0-1,0.7-1.8,1.7-1.8l0,0H535
	v-60.4l-20.3,8c-0.8,0.4-1.8,0.1-2.3-0.7c-0.1-0.2-0.1-0.3-0.2-0.5l-4.1-10.6c-0.4-1.2-0.3-2.1,0.9-2.6l27.8-11.4
	c1.3-0.7,2.7-1.1,4.1-1.2h8.4c0.9-0.1,1.7,0.4,1.8,1.3c0,0.2,0,0.3,0,0.5v77.4h19.2C571.4,461,572.1,461.8,572.1,462.8
	C572.1,462.7,572.1,462.8,572.1,462.8z"/>
<path class="st1" d="M588.4,464.1c-0.8-0.8-0.8-2.1,0-2.9c0.1-0.1,0.2-0.2,0.4-0.3l7.6-6.3c1.2-0.9,2.2-0.8,3.2,0.5
	c3.6,4.7,8,7.5,15.8,7.5c12.9,0,17.5-7.5,17.5-16.8v-11.9h-0.1c-3.6,5.7-10.6,9.3-19,9.3c-15.9,0-27-10.6-27-28v-5.6
	c0-17.4,11-29.2,30.6-29.2c21.2-0.1,31.5,13.4,31.5,31.5l-0.1,31.8c0,20-10.2,33.9-32.4,33.9C603.7,477.5,594.7,472.6,588.4,464.1z
	 M632.8,413.8v-3c0-10.8-6.2-15.8-15.1-15.8c-9.6,0-15,4.9-15,15.3v3.6c0,10.3,5.4,15.3,14.6,15.4S632.8,424.1,632.8,413.8z"/>
<path class="st1" d="M459.3,419.7l-4.4,5.7c-2.1,2.5-4.2,4.9-6.3,7.3c-0.4,0.3-0.7,0.6-0.9,1c-0.9,0.9-1.8,1.8-2.7,2.8
	c-2.4,2.2-4.8,4.4-7.3,6.4c-1.7,1.2-3.5,2.5-5.3,3.6l-1.7,1c-1.5,0.7-3,1.4-4.5,1.9s-3.1,0.7-4.7,0.9c-2.2,0.2-4.4-0.4-6.2-1.8
	l-0.9-1.1c-1.2-2.3-0.8-4.7,0-7c0.3-0.9,0.8-1.8,1.1-2.7c0.3-0.4,0.5-0.8,0.7-1.2c3.7-5.8,8.8-10,14.3-13.8c2-1.4,4-2.6,6.1-3.8
	c0.2-0.1,0.3-0.2,0.4-0.3c0.4-0.2,0.8-0.4,1.2-0.6c2.3-1.3,4.6-2.3,6.9-3.5l3.6-1.6l1.8-0.7c-0.6-0.8-1.2-1.7-1.7-2.7
	c-0.7-1.8-1.1-3.7-1-5.7c0.2-1.4,0.5-2.8,1-4.2c0.2-0.4,0.4-0.8,0.6-1.2c0.6-1.1,1.4-2,2.3-2.9c0.1-0.1,0.5-0.2,0.1-0.4
	c-1.1-0.8-2.2-1.5-3.3-2.2c-1.3-0.5-2.8-0.5-4.2,0c-1,0.3-1.9,0.6-2.8,0.8c-1.1,0.4-2.4-0.2-2.8-1.3c-0.1-0.1-0.1-0.2-0.2-0.3V392
	l-0.1-0.2c-0.4-1-0.5-2.1-0.3-3.1c0.5-1.6,1.8-2.7,3.4-3.1c2.3-0.6,4.8-0.6,7.1,0.1c0.1,0,0.2,0,0.3,0c0,0,0.1,0.1,0.2,0.1
	c3.5,1.1,6.7,3,9.3,5.6c0.5,0.4,0.9,0.8,1.5,0.6c0.5,0,1,0,1.5,0.1c0.3,0.1,0.4-0.1,0.5-0.3c2.1-2.1,4.6-3.8,7.3-5
	c0.6-0.3,1.3-0.5,1.9-0.8c1.8-0.6,3.6-0.8,5.5-0.8c2.1,0.2,4,0.7,5.4,2.4c0.7,1.4,0.8,3.1,0.1,4.5l0,0l-0.2,0.3
	c-0.4,1.1-1.7,1.7-2.8,1.3c-1.3-0.3-2.4-0.8-3.7-1.1c-1.5-0.4-3.1-0.1-4.3,0.8l-2.5,1.7c1,0.9,1.8,1.9,2.5,3.1
	c0.6,1.2,1.1,2.5,1.4,3.9c0.1,0.5,0.1,1.1,0.2,1.6c0.1,2-0.3,4-1.1,5.8c-0.5,1-1.1,1.9-1.8,2.8c0.5,0.2,1,0.4,1.4,0.6l5.5,2.6
	l5.3,2.8c0.4,0.2,0.7,0.5,1.1,0.7c1.8,1,3.5,2.1,5.2,3.3s3.2,2.3,4.7,3.4l0,0l0.4,0.4c2.7,2.2,5.2,4.6,7.4,7.3
	c2.1,2.5,3.7,5.4,4.6,8.6c0.6,1.9,0.4,4-0.4,5.7c-0.3,0.5-0.7,0.9-1.1,1.3c-1.9,1.3-4.2,1.8-6.5,1.5c-1.5-0.2-3-0.5-4.5-1
	c-1.6-0.6-3.2-1.3-4.7-2.1l-2.1-1.3c-1.4-0.9-2.8-1.9-4.1-2.8c-1.9-1.6-3.9-3.2-5.7-5l-1.9-1.8l-3.5-3.7c-2.2-2.5-4.4-5.1-6.5-7.7
	c-1.5-2-3-3.9-4.5-6C459.5,419.3,459.3,419.5,459.3,419.7z"/>
<path class="st1" d="M470.6,454.1l-10.3-0.1h-1l-11.1-0.1H444h-0.1c-0.6,0.1-0.7-0.2-0.9-0.7c-0.4-1.1-0.9-2.2-1.2-3.4
	c-0.2-0.8-0.3-1.7-0.3-2.5c0.6-1.8,1.5-3.4,2.8-4.8c1.3-1.5,2.7-2.8,4.2-4.1l2.3-1.9c0.9-0.7,1.8-1.4,2.6-2.2
	c2.2-1.8,4.3-3.9,6.1-6.1c0.8,0.7,1.4,1.6,2.2,2.4c2,2.1,4.2,4.1,6.5,5.9l2.4,2c1.1,1.1,2.3,2,3.3,3.2c1.2,1.3,2.2,2.7,3,4.2
	c0.3,0.5,0.4,1.1,0.5,1.7c0,0.7-0.1,1.3-0.2,2c-0.3,1.3-1,2.5-1.4,3.8c0,0.3-0.3,0.5-0.6,0.4l0,0
	C473.6,454.1,472.1,454.1,470.6,454.1z"/>
<path class="st1" d="M448.3,459.5l6.2,0.1c1.6,0,3.2,0,4.9,0h2.5h8.6c0.9,0,1.8,0,2.7,0c0.3,0,0.4,0,0.3,0.4
	c-2,4.7-3.8,9.4-6.7,13.6c-1.1,1.9-2.8,3.4-4.8,4.3c-0.6,0.2-1.3,0.4-2,0.5c-2.3,0.1-4.5-0.8-6-2.5c-0.8-1-1.6-2-2.3-3.1
	c-0.7-1-1.3-2.1-2-3.1c-0.4-0.8-0.8-1.6-1.3-2.4c0-0.2-0.1-0.4-0.2-0.5c-1-2.3-1.9-4.6-2.9-6.8c-0.2-0.4-0.1-0.5,0.4-0.5
	C446.5,459.5,447.4,459.5,448.3,459.5z"/>
<rect x="275.5" y="172.1" class="st2" width="56.4" height="35.1"/>
<rect x="383.3" y="174" class="st2" width="56.4" height="35.1"/>
<g class="st3">
	<path class="st4" d="M360.3,142.1c1,2.4,0,3.9-2.7,4.9l-19.3,7.1c-2.7,1-4.1,0.2-5.4-2.2c-5.6-13.7-15.1-19.8-30.3-19.8
		c-17.3,0-28.1,8.1-28.1,21.2c0,12.2,8.1,17.8,40.7,29.8c32.9,12.2,46.4,27.3,46.4,52.7c0,30.3-24.9,52.5-61.5,52.5
		c-33.2,0-54.2-14.6-61.7-42.2c-0.7-2.4,0.2-3.9,2.4-4.9l20.3-6.6c3.2-1,4.6,0,5.4,2.7c3.7,15.6,14.9,23.2,33.4,23.2
		c18.3,0,30-8.8,30-22.2c0-12.9-7.1-18.8-35.1-29c-37.6-13.9-51.7-28.8-51.7-55.1c0-27.8,23.7-49.8,58.8-49.8
		C331.3,104.3,351.8,117.5,360.3,142.1z"/>
	<path class="st4" d="M501.9,110.4v21.2c0,2.4-1.2,3.4-3.4,3.4h-70.3v46.1h63.2c2.2,0,3.4,1.2,3.4,3.4v20.3c0,2.4-1.2,3.4-3.4,3.4
		h-63.2v49.3h70.5c2.2,0,3.4,1,3.4,3.4v21.2c0,2.4-1.2,3.4-3.4,3.4h-98.3c-2.4,0-3.4-1.2-3.4-3.4V110.4c0-2.2,1-3.4,3.4-3.4h98.1
		C500.6,107,501.9,108.2,501.9,110.4z"/>
	<path class="st4" d="M655.6,162.1v11.5c0,33.9-19.5,55.4-58.3,55.4h-26.4v53.2c0,2.2-1.2,3.4-3.7,3.4H543c-2.4,0-3.4-1.2-3.4-3.4
		v-172c0-1.7,1.2-3.2,3.2-3.2H597C636.1,107,655.6,129.2,655.6,162.1z M570.9,135.1v65.6h23.9c22,0,29.5-10,29.5-29.3v-7.1
		c0-18.8-7.6-29.3-29.5-29.3h-23.9V135.1z"/>
</g>
<g class="st3">
	<path class="st4" d="M805.1,110.4v22.2c0,1.7-1.2,3.4-3.2,3.4h-46.8v146.2c0,2-1.5,3.4-3.4,3.4h-24.9c-2,0-2.9-1.5-2.9-3.4V136
		h-47.1c-2,0-2.9-1.7-2.9-3.4v-22.2c0-1.7,1-3.4,2.9-3.4H802C803.9,107,805.1,108.7,805.1,110.4z"/>
</g>
<line class="st5" x1="0" y1="196.3" x2="1008" y2="196.3"/>
<g class="st3">
	<path class="st1" d="M338.6,142.1c1,2.4,0,3.9-2.7,4.9l-19.3,7.1c-2.7,1-4.1,0.2-5.4-2.2c-5.6-13.7-15.1-19.8-30.3-19.8
		c-17.3,0-28.1,8.1-28.1,21.2c0,12.2,8.1,17.8,40.7,29.8c32.9,12.2,46.4,27.3,46.4,52.7c0,30.3-24.9,52.5-61.5,52.5
		c-33.2,0-54.2-14.6-61.7-42.2c-0.7-2.4,0.2-3.9,2.4-4.9l20.3-6.6c3.2-1,4.6,0,5.4,2.7c3.7,15.6,14.9,23.2,33.4,23.2
		c18.3,0,30-8.8,30-22.2c0-12.9-7.1-18.8-35.1-29c-37.6-13.9-51.7-28.8-51.7-55.1c0-27.8,23.7-49.8,58.8-49.8
		C309.6,104.3,330.1,117.5,338.6,142.1z"/>
	<path class="st1" d="M480.1,110.4v21.2c0,2.4-1.2,3.4-3.4,3.4h-70.3v46.1h63.2c2.2,0,3.4,1.2,3.4,3.4v20.3c0,2.4-1.2,3.4-3.4,3.4
		h-63.2v49.3h70.5c2.2,0,3.4,1,3.4,3.4v21.2c0,2.4-1.2,3.4-3.4,3.4h-98.3c-2.4,0-3.4-1.2-3.4-3.4V110.4c0-2.2,1-3.4,3.4-3.4h98.1
		C478.9,107,480.1,108.2,480.1,110.4z"/>
	<path class="st1" d="M633.8,162.1v11.5c0,33.9-19.5,55.4-58.3,55.4h-26.4v53.2c0,2.2-1.2,3.4-3.7,3.4h-24.2c-2.4,0-3.4-1.2-3.4-3.4
		v-172c0-1.7,1.2-3.2,3.2-3.2h54.2C614.3,107,633.8,129.2,633.8,162.1z M549.2,135.1v65.6h23.9c22,0,29.5-10,29.5-29.3v-7.1
		c0-18.8-7.6-29.3-29.5-29.3h-23.9V135.1z"/>
</g>
<g class="st3">
	<path class="st1" d="M783.4,110.4v22.2c0,1.7-1.2,3.4-3.2,3.4h-46.8v146.2c0,2-1.5,3.4-3.4,3.4h-24.9c-2,0-2.9-1.5-2.9-3.4V136
		h-47.1c-2,0-2.9-1.7-2.9-3.4v-22.2c0-1.7,1-3.4,2.9-3.4h125.2C782.2,107,783.4,108.7,783.4,110.4z"/>
</g>
</svg>
