<svg xmlns="http://www.w3.org/2000/svg" viewBox="0 0 316.81 142.42"><defs><style>.cls-1{fill:#231f20;}.cls-2{fill:#f15a22;}.cls-3{fill:#35b0e5;}.cls-4{fill:#6fcfeb;}.cls-5{fill:none;stroke:#fff;stroke-miterlimit:10;stroke-width:3.31px;}</style></defs><title>bitLogo</title><g id="Layer_2" data-name="Layer 2"><g id="Layer_1-2" data-name="Layer 1"><path class="cls-1" d="M159.91,88.89V24.1c0-2.74,1.88-3.9,4.05-3.9,2.46,0,3.76,1.16,3.76,3.9V65.89a38.48,38.48,0,0,1,28.63-13,36.23,36.23,0,1,1-36.44,36Zm7.81,0c0,15.62,13,28.05,28.63,28.05a28.2,28.2,0,1,0,0-56.4A28.46,28.46,0,0,0,167.72,88.89Z"/><path class="cls-1" d="M251.74,51.87a4,4,0,0,1,3.9,4.19v65.51a4.33,4.33,0,0,1-3.9,4.05,4,4,0,0,1-4.19-4.05V56.06C247.55,53.31,249.14,51.87,251.74,51.87Z"/><path class="cls-1" d="M284.28,90.19a27.59,27.59,0,0,0,27.33,27.33,4.23,4.23,0,0,1,4.48,3.9c0,1.88-1.88,3.76-4.48,3.76-19.09,0-35.58-15.9-35.58-35.57V27.86c0-2.6,1.88-3.9,4.49-3.9a3.68,3.68,0,0,1,3.76,3.9V53.17h28.63c2.6,0,3.9,1.88,3.9,4.48a3.68,3.68,0,0,1-3.9,3.76H284.28Z"/><polygon class="cls-2" points="141.04 122.69 106.86 142.42 72.67 122.69 72.67 83.22 106.86 63.48 141.04 83.22 141.04 122.69"/><polygon class="cls-3" points="104.71 59.2 70.53 78.94 36.35 59.2 36.35 19.73 70.53 0 104.71 19.73 104.71 59.2"/><polygon class="cls-4" points="68.71 121.86 34.56 141.82 0.21 122.22 0 82.67 34.15 62.72 42.51 67.49 44.33 68.53 46.15 69.57 68.5 82.32 68.71 121.86"/><polygon class="cls-5" points="98.22 97.27 70.85 113.27 43.31 97.56 43.14 65.86 70.52 49.87 98.05 65.57 98.22 97.27"/></g></g></svg>