<svg xmlns="http://www.w3.org/2000/svg" viewBox="0 0 409.8 473.2"><defs><style>.cls-1{fill:#2f3443;}.cls-2{fill:#e3ac43;}.cls-3{fill:#7e9299;}.cls-4{fill:#fff;}.cls-5{fill:#fffefe;}.cls-6{fill:#afd0d8;}</style></defs><title>logo</title><g id="Layer_2" data-name="Layer 2"><g id="Layer_1-2" data-name="Layer 1"><polygon class="cls-1" points="0 118.3 0 354.9 204.9 473.2 409.8 354.9 409.8 118.3 204.9 0 0 118.3"/><path class="cls-2" d="M236.7,313.41c-3.09,2.87-6.43,4.56-10,4.56-7.17,0-11.08-4.71-11.08-9.27,0-4,3.1-7.73,9.7-7.73,3.42,0,6.43,2.35,9.53,5.15,5.78-10.08,11.81-26.27,17.84-40.69,2.44-5.89,5.29-8.32,8.47-8.32a8.34,8.34,0,0,1,3.59.88c-1.63,2.58-6.77,16.34-11,26.5,1.14-.45,2.93-.3,5,.36C266,279.11,271,267.85,271,259c0-5.67-2-10.38-6.84-12.29a11.72,11.72,0,0,0-2.2-.15c-15.07,0-25.42,20.61-25.42,34.81,0,4.05.9,7.58,2.77,9.94a3.58,3.58,0,0,1-3.18,1.69c-4.23,0-7.66-3.68-7.66-11.92,0-15.16,12.06-37.83,31.45-37.83,14.34,0,19.71,6.63,19.71,15.68s-9.12,22.66-17.27,27.44c3.18,1.92,5.13,5.23,5.13,9.94,0,11.85-10.1,21.71-21,21.71C242.89,318,239.63,316,236.7,313.41Zm-3.91-3.9c-2.77-3-5.13-5.82-7.08-6.33-1.8.73-3.35,3.46-3.35,6.25a6.07,6.07,0,0,0,4.4,6.11C228.72,314.73,230.75,312.6,232.79,309.51Zm28.51-16.93a7.46,7.46,0,0,0-1.63-5c-3.66,1.47-6.35,1.17-7.41.22-.41.95-.73,1.84-1.14,2.65-3.5,7.72-7.25,14.79-11.49,19.87a20.28,20.28,0,0,0,7,3.9C253.08,312,261.3,300.53,261.3,292.58Z"/><path class="cls-2" d="M281.57,305.38h-.09c-6.35,0-11.48-3.38-11.48-8.46,0-7.43,4.64-19.65,11-26.12a11.31,11.31,0,0,1,8.55-3.75c4.15,0,8.72,1.83,8.72,7.21,0,6.18-8.31,21.12-18.33,21.12a8.47,8.47,0,0,1-2.28-.3c-.08.81-.17,1.55-.17,2.21a4.37,4.37,0,0,0,3.18,4.64c10.1-1.25,19.55-16.19,24.68-27.45.57-.08.66.07.66.44C306,278.6,292.64,305.38,281.57,305.38ZM278.15,293c7.33-1.1,14.49-16.11,14.49-21.49a2,2,0,0,0-.57-1.69C288.25,270.06,280.43,284,278.15,293Z"/><path class="cls-2" d="M333.57,271.53c.81-.14,1.71.08,1.71.89,0,2.94-11.65,33-27.29,33-6.35,0-11.57-3.38-11.57-8.46,0-7.43,4.65-19.65,11-26.12a11.34,11.34,0,0,1,8.55-3.75c4.16,0,8.72,1.83,8.72,7.21,0,6.18-8.31,21.12-18.33,21.12a8.52,8.52,0,0,1-2.28-.3c-.08.81-.16,1.55-.16,2.21,0,2.36,1,3.9,3.5,4.78C314.91,300.6,327.46,285.07,333.57,271.53Zm-29,21.49c7.33-1.1,14.5-16.11,14.5-21.49a2,2,0,0,0-.57-1.69C314.67,270.06,306.85,284,304.57,293Z"/><path class="cls-2" d="M319.69,299.35a3.08,3.08,0,0,1,2.77-3.38c1.46,2.35,3.83,5.37,5.37,6.25,2.61-2.21,5-9.86,5.54-25.46.08-1.84-1.22-2.14-1.22-3a1.21,1.21,0,0,1,.16-.51c5.3-12.15,7.74-16.41,12-16.41,3,0,5,2.87,5.78,6-4.8,2-12.95,5.22-12.95,9.56,0,3,2.69,10.75,2.61,17.66,0,8.61-4.16,15.38-11.24,15.38C322.38,305.38,319.69,302.15,319.69,299.35Z"/><path class="cls-3" d="M85.42,232.47h-17V176.93q11.24-.54,15.74-.53,8.66,0,13.53,3.7t4.87,10.56q0,6.6-7,10.43,10.36,3.61,10.36,14.87a14.46,14.46,0,0,1-5.73,12Q94.48,232.46,85.42,232.47Zm-7.14-47.65v13.32c1.52.1,3.12.15,4.78.15q9.64,0,9.64-7.25,0-6.4-8.76-6.41C82.39,184.63,80.51,184.69,78.28,184.82Zm0,21V224.2c2,.17,3.62.26,4.86.26,4.4,0,7.59-.74,9.58-2.24s3-4,3-7.43c0-3.16-.93-5.46-2.77-6.91s-5.07-2.16-9.68-2.16C82.29,205.72,80.64,205.76,78.28,205.84Z"/><path class="cls-3" d="M118.86,176.89h9.87v37.67A9.53,9.53,0,0,0,139,224.65q5.34,0,8.33-2.75a9.75,9.75,0,0,0,3-7.53V176.89h9.87v38.24q0,8.58-5.75,13.43T139,233.41q-9.66,0-14.92-4.74t-5.26-13.58Z"/><path class="cls-3" d="M173.06,232.47v-3.19l23.18-43.63h-22.8v-8.76h36.23v3.19L186.41,223.7H210.5v8.77Z"/><path class="cls-3" d="M220.77,232.47v-3.19L244,185.65h-22.8v-8.76h36.23v3.19L234.12,223.7h24.09v8.77Z"/><path class="cls-3" d="M271.32,232.47V176.89h9.87v55.58Z"/><path class="cls-3" d="M333.41,233.23l-27-35.17V232.5H297V176.89h4.74L328,210.43V176.89h9.48v56.34Z"/><path class="cls-4" d="M89,232.39H72V176.85q11.22-.53,15.74-.53c5.77,0,10.27,1.23,13.53,3.7s4.87,6,4.87,10.57q0,6.6-7,10.43,10.35,3.6,10.36,14.87a14.48,14.48,0,0,1-5.73,12.05Q98.1,232.4,89,232.39ZM81.9,184.74v13.32c1.52.1,3.11.15,4.78.15q9.63,0,9.64-7.24,0-6.42-8.77-6.41C86,184.56,84.13,184.62,81.9,184.74Zm0,21v18.36q3,.27,4.86.27,6.6,0,9.57-2.24t3-7.44q0-4.74-2.77-6.9c-1.84-1.44-5.07-2.16-9.67-2.16C85.91,205.65,84.25,205.69,81.9,205.76Z"/><path class="cls-4" d="M122.48,176.82h9.86v37.67a9.53,9.53,0,0,0,10.24,10.09q5.35,0,8.33-2.75a9.73,9.73,0,0,0,3-7.53V176.82h9.86v38.24q0,8.56-5.74,13.43t-15.35,4.85q-9.67,0-14.93-4.74T122.48,215Z"/><path class="cls-4" d="M176.67,232.39v-3.18l23.18-43.63h-22.8v-8.76h36.23V180L190,223.63h24.09v8.76Z"/><path class="cls-4" d="M224.38,232.39v-3.18l23.18-43.63h-22.8v-8.76H261V180l-23.25,43.63h24.09v8.76Z"/><path class="cls-4" d="M274.94,232.39V176.82h9.86v55.57Z"/><path class="cls-4" d="M337,233.15l-27-35.17v34.45h-9.48V176.82h4.74l26.25,33.53V176.82h9.49v56.33Z"/><rect class="cls-3" x="351.62" y="172.2" width="8.94" height="15.56"/><rect class="cls-5" x="355.13" y="172.2" width="8.94" height="15.56"/><path class="cls-4" d="M93.11,283.62c2.34,1.81,3.6,4.55,5.64,6.62,1,1-.32,1.33-.74,1.88s-1,.75-1.63.06A50.93,50.93,0,0,1,92,286.6c-.38-.59-.48-1,.18-1.48.29-.21,1.22-.32.45-1.05Z"/><path class="cls-4" d="M124.66,254.8c.33,1.34-.47,1.26-1,1.41s-1.45.79-1.85-.28a15.42,15.42,0,0,0-3.51-5.53c-.78-.78.46-1.32.79-2s.72-.65,1.24-.21A14.1,14.1,0,0,1,124.66,254.8Z"/><path class="cls-4" d="M32.64,275.09c2.32.41,4.28.73,6.23,1.11.89.18,1.83.16,1.46,1.74-.33,1.41-.81,1.58-2.06,1.3-1.86-.42-3.77-.67-5.66-1"/><path class="cls-4" d="M57.75,281.26c0,1.34-.64,1.84-2.06,1.48-1.78-.44-3.59-.82-5.4-1.1-1.24-.19-1.73-.5-1.42-1.95s.94-1.31,2-1.07c1.93.44,3.89.74,5.84,1.13C57.48,279.9,58.21,280.12,57.75,281.26Z"/><path class="cls-4" d="M110.25,277.51c0,.67-.61.77-1,1-2,.87-4,1.64-5.89,2.57-1.22.6-1.47-.06-1.84-1s-.31-1.55.85-1.95c1.81-.63,3.54-1.5,5.3-2.27A1.82,1.82,0,0,1,110.25,277.51Z"/><path class="cls-4" d="M95,254.08c-.06.24,0,.43-.13.51a51.94,51.94,0,0,0-4.87,5.7c-.61.77-1.39-.37-2.09-.65s-.48-.78-.19-1.25a26,26,0,0,1,4.83-5.73c.29-.26.62-.73,1.08-.21S94.58,253.57,95,254.08Z"/><path class="cls-4" d="M164.16,296.36c.1.71-.52.83-.93,1.07-1.85,1.06-3.74,2.05-5.59,3.11-.9.52-1.41.42-1.85-.59s-.78-1.65.57-2.25c1.74-.78,3.36-1.82,5-2.75A1.79,1.79,0,0,1,164.16,296.36Z"/><path class="cls-4" d="M140.12,306.47c-1.17.15-1.19-.62-1.27-1.41s-.38-1.58.9-1.81c2.1-.39,4.21-.84,6.27-1.41,1.26-.35,1.31.46,1.58,1.23s.54,1.42-.59,1.69C144.71,305.32,142.41,305.9,140.12,306.47Z"/><path class="cls-4" d="M127,307c-1.45-.2-2.91-.44-4.37-.57-1.16-.09-1.75-.41-1.49-1.77s.75-1.56,2-1.33a34.08,34.08,0,0,0,5,.64c1.38.05,2.15.24,2,1.94-.16,1.92-1.39.95-2.24,1.05a5.2,5.2,0,0,1-.88-.05Z"/><path class="cls-4" d="M72.07,285.12a38.75,38.75,0,0,0-4.15-.47c-1.39,0-1.73-.53-1.56-1.86s.91-1.33,2-1.17a37.78,37.78,0,0,0,5.7.54c1.64,0,1.2,1,1.26,1.9.09,1.18-.49,1.38-1.48,1.18-.57-.11-1.16-.13-1.75-.2Z"/><path class="cls-4" d="M178.72,285.94c0,.65-.39.88-.73,1.14-1.7,1.29-3.46,2.51-5.1,3.89-1,.88-1.45.29-2-.49s-.76-1.38.28-2.07c1.65-1.1,3.17-2.41,4.78-3.58.41-.3.8-1.08,1.46-.5A12.14,12.14,0,0,1,178.72,285.94Z"/><path class="cls-4" d="M110.44,246.66c.19.94-.13,1.42-1.36,1.49a14.28,14.28,0,0,0-5.34,1.28c-1.46.69-1.72-.21-2.17-1.19-.62-1.33.37-1.45,1.19-1.75a25.81,25.81,0,0,1,6-1.41C110.33,244.89,110.4,245,110.44,246.66Z"/><path class="cls-4" d="M93.11,283.62l-.45.45c-2.38.88-4.91.81-7.37,1.17-.94.14-1.22-.39-1.1-1.16s-.63-1.7.77-1.87c2.26-.28,4.5-.66,6.77-.89C93.64,281.13,92.86,282.72,93.11,283.62Z"/><path class="cls-4" d="M84.94,269.49c-.07-.49,0-1.13,1-1,.78.09,1.88-.5,2.06.94a24.24,24.24,0,0,0,1.79,6.13c.47,1.14-.41,1.2-1,1.48s-1.42.83-1.81-.28A26.58,26.58,0,0,1,84.94,269.49Z"/><path class="cls-4" d="M104.28,298.49a1.94,1.94,0,0,1,2.74-1.31,53.58,53.58,0,0,0,5,2.73c1.35.59,1,1.27.64,2.25-.46,1.33-1.2,1-2,.55-1.87-1-3.74-2.07-5.59-3.14C104.75,299.37,104.24,299.23,104.28,298.49Z"/><path class="cls-4" d="M124,265.81c-.22.4-.41.8-.63,1.18a20.26,20.26,0,0,1-3.8,4.6c-.62.57-1.18,1.72-2.26.39-.8-1-1.2-1.63.06-2.61a13.39,13.39,0,0,0,3.52-4.24c.35-.64.76-.93,1.39-.53S123.74,264.94,124,265.81Z"/><path class="cls-6" d="M202.74,260.76l-3.38.36c-1.52.1-3,.19-4.55.24a2.66,2.66,0,0,0-.63,0h-1.82c-1.53-.07-3.06-.18-4.58-.38-1-.19-2-.36-2.95-.63l-.91-.26c-.72-.29-1.44-.57-2.13-.91a10.58,10.58,0,0,1-1.82-1.3,4.17,4.17,0,0,1-1.42-2.68l.08-.68a4.11,4.11,0,0,1,2.36-2.3c.42-.21.87-.32,1.29-.5a2.84,2.84,0,0,0,.64-.15,23.12,23.12,0,0,1,9.37.33,31,31,0,0,1,3.28.85l.25,0,.57.19c1.17.36,2.3.79,3.45,1.19l1.7.7.81.4a8.92,8.92,0,0,1,.36-1.44,6.82,6.82,0,0,1,1.59-2.21,8.27,8.27,0,0,1,1.74-1l.61-.17a6.26,6.26,0,0,1,1.72-.19c.06,0,.23.08.19-.09a16.78,16.78,0,0,0-.36-1.85,2.81,2.81,0,0,0-1.36-1.42c-.4-.23-.82-.44-1.21-.68a1.07,1.07,0,0,1-.49-1.4c0-.05,0-.1.05-.16l0-.05,0-.07a2.34,2.34,0,0,1,1-1.1,2.2,2.2,0,0,1,2.16.15,5.94,5.94,0,0,1,2.27,2.44s.06.08.08.12,0,.05,0,.08a10.69,10.69,0,0,1,1.14,5c0,.3,0,.54.3.7a4.22,4.22,0,0,1,.47.56c.06.1.16.08.25.08a11,11,0,0,1,4.08.84c.3.12.59.27.88.4a7.73,7.73,0,0,1,2.06,1.62,3.23,3.23,0,0,1,1,2.62,2.32,2.32,0,0,1-1.49,1.51h0l-.16,0a1.07,1.07,0,0,1-1.37-.53c-.32-.52-.51-1.1-.84-1.62a2.35,2.35,0,0,0-1.68-1.22l-1.4-.31a7.23,7.23,0,0,1-.22,1.86,7.12,7.12,0,0,1-.88,1.74c-.15.2-.31.39-.47.58a6.07,6.07,0,0,1-2.33,1.5,7.6,7.6,0,0,1-1.52.32c.09.23.18.45.26.67.32.9.63,1.8.95,2.71l.76,2.7c0,.2.07.4.12.59.26.94.44,1.89.62,2.84s.26,1.81.38,2.72h0c0,.09,0,.18,0,.27a22.3,22.3,0,0,1-.06,4.9,10.66,10.66,0,0,1-1.41,4.36,3.64,3.64,0,0,1-2.09,1.72,4.25,4.25,0,0,1-.8.05,4.36,4.36,0,0,1-2.64-1.69,10.29,10.29,0,0,1-1.13-1.85,20.7,20.7,0,0,1-.81-2.24c-.08-.37-.17-.74-.25-1.11-.17-.77-.26-1.56-.38-2.34-.09-1.18-.19-2.36-.19-3.55v-1.26l.1-2.42c.12-1.58.29-3.15.47-4.72.2-1.15.33-2.31.57-3.46A.3.3,0,0,0,202.74,260.76Z"/><path class="cls-6" d="M194.74,275.87l-3.33-3.5-.12-.12-.19-.21-3.61-3.78-1.4-1.47,0,0c-.22-.15-.16-.31,0-.53.26-.49.46-1,.75-1.5a3.19,3.19,0,0,1,.77-.91,6.18,6.18,0,0,1,2.53-.63,23.24,23.24,0,0,1,2.77.08l1.38.16c.52.06,1,.13,1.58.18a21.09,21.09,0,0,0,4.05.07c0,.51-.08,1-.1,1.53a31.82,31.82,0,0,0,.13,4.14l.09,1.47c0,.72,0,1.44,0,2.16a8.44,8.44,0,0,1-.46,2.38,3.53,3.53,0,0,1-.4.74,4.91,4.91,0,0,1-.77.59c-.56.32-1.18.5-1.75.79a.24.24,0,0,1-.35-.07C195.73,276.88,195.24,276.38,194.74,275.87Z"/><path class="cls-6" d="M185.63,270l2,2.13,1.59,1.65c.27.29.53.58.8.86l2.81,2.92c.29.32.58.64.88.95.1.1.13.16,0,.22a33.75,33.75,0,0,1-6.79,2.16,5.23,5.23,0,0,1-3-.21,4.8,4.8,0,0,1-.83-.52,3.44,3.44,0,0,1-1.1-2.87,10.77,10.77,0,0,1,.29-1.79c.12-.57.26-1.12.4-1.69a9.84,9.84,0,0,0,.38-1.2.53.53,0,0,0,.12-.22c.45-1.08.91-2.15,1.35-3.22.08-.19.15-.22.3,0S185.34,269.74,185.63,270Z"/></g></g></svg>