<svg id="Layer_1" data-name="Layer 1" xmlns="http://www.w3.org/2000/svg" viewBox="0 0 268.5 308.85"><defs><style>.cls-1{fill:#2f3443;}.cls-2{fill:#daa927;}.cls-3{fill:#231f20;stroke:#b5cdd5;stroke-miterlimit:10;stroke-width:3px;}.cls-4{fill:#fcdd8d;}.cls-5{fill:#c7dde2;}</style></defs><title>logo-web</title><polygon class="cls-1" points="267.48 232.53 133.23 308.85 0 230.76 1.02 76.33 135.27 0 268.5 78.1 267.48 232.53"/><path class="cls-2" d="M328.74,491.62,337,450.5h17.45a9.55,9.55,0,0,1,7.64,3.52,9.21,9.21,0,0,1,2.1,8.05,11.8,11.8,0,0,1-2.37,5.14,12,12,0,0,1-4.46,3.38,8.34,8.34,0,0,1,3.85,4,8.77,8.77,0,0,1,.68,5.48,13.15,13.15,0,0,1-5.62,8.45,17,17,0,0,1-10.08,3.11Zm6.08-4.59h12.31a10.54,10.54,0,0,0,6.16-1.83,7.92,7.92,0,0,0,3.45-5.14,5.5,5.5,0,0,0-1.56-5.08,7,7,0,0,0-5.21-2.16H337.66Zm3.72-18.81h12.31a8.61,8.61,0,0,0,5.28-1.7A7.06,7.06,0,0,0,359,462a5.71,5.71,0,0,0-1.15-4.83,5.38,5.38,0,0,0-4.4-2.11H341.18Z" transform="translate(-288.59 -322.89)"/><path class="cls-2" d="M366.34,479.31l5.82-28.81h5.14l-5.82,28.81a5.8,5.8,0,0,0,2.1,5.82,9.6,9.6,0,0,0,6.56,2.37,14,14,0,0,0,7.64-2.1,9.23,9.23,0,0,0,4.26-6.09l5.82-28.81H403l-5.82,28.81a14.26,14.26,0,0,1-6.42,9.4,20,20,0,0,1-11.5,3.38,13.84,13.84,0,0,1-9.81-3.71A9.32,9.32,0,0,1,366.34,479.31Z" transform="translate(-288.59 -322.89)"/><path class="cls-2" d="M398.73,491.62l1-5.15,29.82-30.9H405.9L407,450.5h29.83l-1.08,5.15-30.37,30.9h25.23l-1,5.07Z" transform="translate(-288.59 -322.89)"/><path class="cls-2" d="M431.53,491.62l1-5.15,29.83-30.9H438.7l1.09-5.07h29.82l-1.08,5.15-30.37,30.9h25.23l-1,5.07Z" transform="translate(-288.59 -322.89)"/><path class="cls-2" d="M466.77,491.62,475,450.5h5.14l-8.25,41.12Z" transform="translate(-288.59 -322.89)"/><path class="cls-2" d="M478.94,491.62l8.26-41.12h5.13l14.07,32.4,6.49-32.4H518l-8.26,41.12h-5.14l-14.06-32.33-6.5,32.33Z" transform="translate(-288.59 -322.89)"/><path class="cls-2" d="M525.34,455.64l1.08-5.14h5.41l-1.08,5.14a8.44,8.44,0,0,1-2.1,3.93,15.41,15.41,0,0,1-4.46,3.24l-1.28-1.76a18.73,18.73,0,0,0,3-2.77,5.75,5.75,0,0,0,1.42-2.64Z" transform="translate(-288.59 -322.89)"/><line class="cls-3" x1="0.75" y1="147.01" x2="268.27" y2="147.01"/><path class="cls-4" d="M326.56,489.64l8.25-41.12h17.45A9.54,9.54,0,0,1,359.9,452a9.18,9.18,0,0,1,2.1,8,11.69,11.69,0,0,1-2.37,5.14,11.87,11.87,0,0,1-4.46,3.38,8.3,8.3,0,0,1,3.85,4,8.77,8.77,0,0,1,.68,5.48,13.17,13.17,0,0,1-5.61,8.45A17,17,0,0,1,344,489.64Zm6.09-4.6H345a10.52,10.52,0,0,0,6.15-1.82,7.92,7.92,0,0,0,3.45-5.14A5.5,5.5,0,0,0,353,473a6.94,6.94,0,0,0-5.2-2.16H335.49Zm3.72-18.8h12.31a8.59,8.59,0,0,0,5.27-1.7,7,7,0,0,0,2.91-4.48,5.68,5.68,0,0,0-1.15-4.83,5.36,5.36,0,0,0-4.4-2.11H339Z" transform="translate(-288.59 -322.89)"/><path class="cls-4" d="M364.16,477.33,370,448.52h5.14l-5.82,28.81a5.8,5.8,0,0,0,2.1,5.82,9.6,9.6,0,0,0,6.56,2.37,14,14,0,0,0,7.64-2.1,9.17,9.17,0,0,0,4.26-6.09l5.82-28.81h5.14L395,477.33a14.23,14.23,0,0,1-6.42,9.4,20,20,0,0,1-11.5,3.38,13.84,13.84,0,0,1-9.81-3.71A9.34,9.34,0,0,1,364.16,477.33Z" transform="translate(-288.59 -322.89)"/><path class="cls-4" d="M396.56,489.64l1-5.15,29.83-30.9H403.72l1.09-5.07h29.82l-1.08,5.15-30.37,30.9h25.23l-1,5.07Z" transform="translate(-288.59 -322.89)"/><path class="cls-4" d="M429.36,489.64l1-5.15,29.83-30.9H436.53l1.08-5.07h29.83l-1.09,5.15L436,484.57h25.22l-1,5.07Z" transform="translate(-288.59 -322.89)"/><path class="cls-4" d="M464.59,489.64l8.26-41.12H478l-8.26,41.12Z" transform="translate(-288.59 -322.89)"/><path class="cls-4" d="M476.77,489.64,485,448.52h5.14l14.07,32.4,6.49-32.4h5.14l-8.25,41.12h-5.14L488.4,457.31l-6.49,32.33Z" transform="translate(-288.59 -322.89)"/><path class="cls-4" d="M523.16,453.66l1.08-5.14h5.41l-1.08,5.14a8.5,8.5,0,0,1-2.09,3.93,15.46,15.46,0,0,1-4.47,3.24l-1.28-1.76a18.32,18.32,0,0,0,3-2.77,5.66,5.66,0,0,0,1.42-2.64Z" transform="translate(-288.59 -322.89)"/><path class="cls-5" d="M408.76,519.38l-26.46.17c-.69,0-.86-.84-.86-1.56s1.53-1,2.22-1c1.85,0,8.48-.58,8.48-2.91v-4.29c0-1.06-.52-1.42-1.24-1.39h-.76a3.39,3.39,0,0,0-2.62,2l-3.93,8.25a1.35,1.35,0,0,1-1.18.88,1.24,1.24,0,0,1-1.12-1.39V496.41a1.21,1.21,0,0,1,2.42,0v16.38l1.45-3.08c.94-2,2.42-3.69,4.95-3.69H391c2.36,0,3.56,1.54,3.56,3.81v4a4.72,4.72,0,0,1-.84,3.17h15.05a1.21,1.21,0,0,1,0,2.42Z" transform="translate(-288.59 -322.89)"/><path class="cls-5" d="M426.26,519.38H408.68c-3.75,0-5.84-2.36-5.84-5.2V507.9a1.75,1.75,0,0,1,1.91-1.88h6.19c1.63,0,3,.52,3,2.42a4,4,0,0,1-1,2.48l-3.42,3.8a1.07,1.07,0,0,1-.84.37,1.24,1.24,0,0,1-1.24-1.21,1.57,1.57,0,0,1,.45-.94l3.05-3.35a1.21,1.21,0,0,0,.3-.64c0-.6-.63-.51-1.2-.51h-4.81v5.77a3,3,0,0,0,3.17,2.75h17.8a1.21,1.21,0,1,1,0,2.42Z" transform="translate(-288.59 -322.89)"/><path class="cls-5" d="M443.82,519.38H426.24c-3.75,0-5.83-2.36-5.83-5.2V507.9a1.75,1.75,0,0,1,1.9-1.88h6.2c1.63,0,3,.52,3,2.42a4,4,0,0,1-1,2.48l-3.41,3.8a1.1,1.1,0,0,1-.85.37,1.25,1.25,0,0,1-1.24-1.21,1.57,1.57,0,0,1,.45-.94l3.06-3.35a1.21,1.21,0,0,0,.3-.64c0-.6-.64-.51-1.21-.51h-4.8v5.77A3,3,0,0,0,426,517h17.79a1.21,1.21,0,1,1,0,2.42Z" transform="translate(-288.59 -322.89)"/><path class="cls-5" d="M464.74,519.38H444.49a1.2,1.2,0,0,1-1.26-1.18c0-.88.75-1.15,1.39-1.21,2-.18,4-1.09,4-3.35,0-1.36-1.29-3.24-1.36-4.6l-7.43,10a1,1,0,0,1-.84.37,1.28,1.28,0,0,1-1.24-1.21,1.39,1.39,0,0,1,.3-.85l8.82-11.69c.48-.66,1.15-1.72,2.18-1.54a1.19,1.19,0,0,1,1.05,1.36c-.09.69-.81.88-.81,1.69,0,2.18,1.84,4.29,1.84,6.59a4,4,0,0,1-1.51,3.23h15.11a1.21,1.21,0,0,1,0,2.42Z" transform="translate(-288.59 -322.89)"/><path class="cls-5" d="M464.77,506.37l-1,1.26c-.46.54-.92,1.09-1.4,1.61a1.45,1.45,0,0,0-.21.22l-.59.61c-.53.5-1.06,1-1.63,1.42a11.42,11.42,0,0,1-1.17.79l-.39.23c-.33.15-.66.3-1,.42a4.56,4.56,0,0,1-1,.19,2,2,0,0,1-1.37-.39l-.2-.25a1.9,1.9,0,0,1,0-1.55,6.32,6.32,0,0,1,.25-.6,1,1,0,0,0,.15-.26,10.91,10.91,0,0,1,3.18-3.06,14.47,14.47,0,0,1,1.35-.84l.1-.07.25-.13c.5-.28,1-.52,1.53-.78l.79-.34.4-.15a3.4,3.4,0,0,1-.37-.59,3.17,3.17,0,0,1-.23-1.26,4.31,4.31,0,0,1,.21-.93l.15-.26A2.79,2.79,0,0,1,463,501s.11,0,0-.09a5.84,5.84,0,0,0-.74-.48,1.27,1.27,0,0,0-.92,0l-.63.19a.5.5,0,0,1-.63-.29.16.16,0,0,0,0-.07v0l0,0a1.14,1.14,0,0,1-.06-.68,1,1,0,0,1,.76-.69,2.89,2.89,0,0,1,1.57,0h.06l0,0a5.07,5.07,0,0,1,2.06,1.24c.1.09.19.17.33.13a1.88,1.88,0,0,1,.34,0c.06,0,.08,0,.11-.06a5.31,5.31,0,0,1,1.62-1.11l.42-.16a3.6,3.6,0,0,1,1.22-.17,1.54,1.54,0,0,1,1.2.53,1.1,1.1,0,0,1,0,1h0a.43.43,0,0,0,0,.07.51.51,0,0,1-.63.29c-.27-.07-.53-.19-.81-.25a1.15,1.15,0,0,0-1,.17l-.56.38a2.55,2.55,0,0,1,.86,1.54c0,.12,0,.24,0,.35a2.82,2.82,0,0,1-.25,1.28,3.39,3.39,0,0,1-.39.62l.31.13,1.23.56,1.16.62.24.16c.4.22.78.46,1.16.72s.7.5,1.05.75h0l.09.09a10.47,10.47,0,0,1,1.64,1.62,5.09,5.09,0,0,1,1,1.89,1.74,1.74,0,0,1-.09,1.27,2.37,2.37,0,0,1-.25.29,2.07,2.07,0,0,1-1.43.34,4.82,4.82,0,0,1-1-.22,7.77,7.77,0,0,1-1-.46l-.46-.28c-.31-.19-.61-.42-.91-.63s-.86-.71-1.26-1.09l-.43-.41-.79-.83c-.49-.55-1-1.12-1.44-1.7-.32-.44-.68-.86-1-1.32C464.8,506.29,464.79,506.33,464.77,506.37Z" transform="translate(-288.59 -322.89)"/><path class="cls-5" d="M467.27,514h-5.91c-.13,0-.16,0-.2-.15s-.19-.49-.26-.75a1.49,1.49,0,0,1-.06-.56,2.87,2.87,0,0,1,.62-1.05,10.09,10.09,0,0,1,.93-.92l.5-.41.58-.48a10,10,0,0,0,1.34-1.34c.18.16.32.36.49.53a13.63,13.63,0,0,0,1.44,1.3l.53.46c.24.23.5.45.72.7a4.09,4.09,0,0,1,.66.94,2.29,2.29,0,0,1,.12.37,1.82,1.82,0,0,1-.06.46c-.07.29-.21.56-.3.85,0,.07-.06.09-.14.09Z" transform="translate(-288.59 -322.89)"/><path class="cls-5" d="M462.33,515.18l1.38,0h4.14c.07,0,.09,0,.06.09a16.08,16.08,0,0,1-1.48,3,2.46,2.46,0,0,1-1.07,1,2.18,2.18,0,0,1-.44.11,1.6,1.6,0,0,1-1.33-.56,5.48,5.48,0,0,1-.51-.68c-.16-.23-.3-.46-.44-.69a4.51,4.51,0,0,0-.29-.52s0-.08,0-.11c-.22-.5-.43-1-.65-1.51,0-.09,0-.12.08-.12S462.14,515.18,462.33,515.18Z" transform="translate(-288.59 -322.89)"/></svg>