<?xml version="1.0" encoding="utf-8"?>
<!-- Generator: Adobe Illustrator 24.1.1, SVG Export Plug-In . SVG Version: 6.00 Build 0)  -->
<svg version="1.1" id="Layer_1" xmlns="http://www.w3.org/2000/svg" xmlns:xlink="http://www.w3.org/1999/xlink" x="0px" y="0px"
	 viewBox="0 0 792 1332.5" style="enable-background:new 0 0 792 1332.5;" xml:space="preserve">
<style type="text/css">
	.st0{fill:#2E3442;}
	.st1{enable-background:new    ;}
	.st2{fill:#C7DDE3;}
	.st3{fill:#FADB8C;}
</style>
<rect class="st0" width="792" height="1332.5"/>
<g class="st1">
	<path class="st2" d="M248.6,77.4h-3.3c-0.3,0-0.4-0.1-0.5-0.4l-1.7-5.4h-7.9l-1.7,5.4c-0.1,0.3-0.3,0.4-0.6,0.4h-3.1
		c-0.3,0-0.4-0.2-0.3-0.5l7-22.5c0.1-0.3,0.3-0.4,0.6-0.4h4.1c0.4,0,0.5,0.1,0.6,0.4l7.1,22.5C249.1,77.1,248.9,77.4,248.6,77.4z
		 M242,67.8l-0.9-2.8c-0.6-2.2-1.4-4.9-1.9-6.9h-0.1c-0.4,2-1.2,4.7-1.9,6.9l-0.8,2.7h5.6V67.8z"/>
	<path class="st2" d="M256.1,66v10.9c0,0.3-0.2,0.4-0.4,0.4h-3c-0.3,0-0.5-0.2-0.5-0.4V60.1c0-0.2,0.1-0.4,0.4-0.4h3
		c0.3,0,0.4,0.2,0.4,0.4v2.1c1.1-1.6,2.9-2.9,5.3-2.9c3.4,0,5.2,2.4,5.2,6v11.6c0,0.3-0.2,0.4-0.4,0.4h-3c-0.3,0-0.5-0.2-0.5-0.4V66
		c0-1.9-0.9-3.1-2.7-3.1C258.2,63,256.8,64.2,256.1,66z"/>
</g>
<g class="st1">
	<path class="st2" d="M284.5,65.2v11.7c0,0.3-0.2,0.4-0.4,0.4h-2.8c-0.3,0-0.4-0.2-0.4-0.4v-2.1c-1.1,1.8-2.9,2.9-5.1,2.9
		c-3.3,0-5.4-2.2-5.4-5.3c0-3.2,2.1-5.1,6.7-5.4c1.2-0.1,2.4-0.1,3.6,0v-1.6c0-2-1.1-2.8-2.9-2.8s-2.5,0.7-2.9,1.9
		c-0.1,0.4-0.3,0.4-0.6,0.3l-2.8-0.7c-0.3-0.1-0.4-0.3-0.3-0.5c0.5-2.5,2.8-4.2,6.8-4.2C282,59.4,284.5,61.3,284.5,65.2z
		 M280.7,71.7v-2.2c-1.1,0-2.2,0-3.3,0.1c-2.1,0.2-3.3,0.9-3.3,2.6c0,1.4,1,2.4,2.7,2.4C278.6,74.5,280,73.5,280.7,71.7z"/>
</g>
<g class="st1">
	<path class="st2" d="M294.2,55.8v4h3.5c0.3,0,0.4,0.2,0.4,0.5v2.3c0,0.3-0.2,0.4-0.4,0.4h-3.5v9c0,1.3,0.7,1.9,2.1,1.9h1.3
		c0.3,0,0.4,0.1,0.4,0.4v2.6c0,0.3-0.2,0.4-0.4,0.4h-2c-3.6,0-5.4-1.9-5.4-4.9V63H288c-0.3,0-0.4-0.1-0.4-0.4v-2.3
		c0-0.3,0.2-0.5,0.4-0.5h2.2v-4c0-0.3,0.2-0.4,0.4-0.4h2.9C294.1,55.4,294.2,55.5,294.2,55.8z"/>
	<path class="st2" d="M316.3,66.5v4.2c0,4.2-2.4,7.1-7.5,7.1s-7.5-2.9-7.5-7v-4.2c0-4.2,2.4-7.2,7.5-7.2
		C313.9,59.4,316.3,62.4,316.3,66.5z M305.3,66.7v3.9c0,2.4,1.2,3.7,3.5,3.7c2.4,0,3.6-1.3,3.6-3.7v-3.9c0-2.4-1.2-3.8-3.6-3.8
		C306.5,62.8,305.3,64.3,305.3,66.7z"/>
</g>
<g class="st1">
	<path class="st2" d="M329.3,59.4c2.3,0,3.7,1.4,4.4,3.2c1.3-1.9,3-3.2,5.1-3.2c3,0,4.8,2.3,4.8,5.8V77c0,0.3-0.2,0.4-0.5,0.4h-2.9
		c-0.3,0-0.5-0.2-0.5-0.4V66c0-1.9-0.8-2.9-2.3-2.9c-1.4,0-2.6,1.1-3.3,2.9v11c0,0.3-0.2,0.4-0.4,0.4h-3.1c-0.3,0-0.4-0.2-0.4-0.4
		V66c0-1.9-0.8-2.9-2.2-2.9c-1.5,0-2.7,1.3-3.3,3V77c0,0.3-0.1,0.4-0.4,0.4h-3.1c-0.3,0-0.4-0.2-0.4-0.4V60.1c0-0.2,0.1-0.4,0.4-0.4
		h3c0.3,0,0.4,0.2,0.4,0.4v2.1C325.5,60.8,327.1,59.4,329.3,59.4z"/>
</g>
<g class="st1">
	<path class="st2" d="M362.5,60.3l-6,16.3c-1.2,3.4-2.9,6-5.2,7.4c-0.3,0.2-0.6,0.4-0.9,0l-1.8-1.9c-0.3-0.3-0.2-0.6,0.1-0.8
		c1.9-1.3,3.1-2.5,3.9-5.1l-6.3-16c-0.1-0.3,0.1-0.6,0.4-0.6h3.3c0.3,0,0.5,0.1,0.6,0.4l2.1,5.9c0.9,2.5,1.5,4.4,2,6.4h0.1
		c0.5-2.4,1.1-3.9,1.9-6.4l2-6c0.1-0.3,0.3-0.4,0.6-0.4h3C362.4,59.7,362.6,60,362.5,60.3z"/>
</g>
<g class="st1">
	<path class="st2" d="M389.8,77.4h-3.5c-0.4,0-0.5-0.1-0.6-0.4l-4.5-8.4h-3.3v8.3c0,0.3-0.2,0.4-0.5,0.4h-3.2
		c-0.3,0-0.4-0.2-0.4-0.4V54.4c0-0.3,0.1-0.4,0.4-0.4h7.7c5,0,7.5,2.8,7.5,6.9v0.8c0,3.1-1.4,5.4-4.2,6.4l4.9,8.8
		C390.3,77,390.2,77.4,389.8,77.4z M377.9,65.1h3.7c2.7,0,3.7-1.2,3.7-3.4v-0.6c0-2.1-1.1-3.4-3.7-3.4h-3.7V65.1z"/>
</g>
<g class="st1">
	<path class="st2" d="M397.1,69.8v1c0,2.3,1.2,3.7,3.7,3.7c2.4,0,3.1-0.9,3.7-2.1c0.3-0.4,0.4-0.5,0.8-0.3l2,1
		c0.4,0.2,0.5,0.5,0.3,0.9c-1.1,2.3-3.5,3.7-6.9,3.7c-4.9,0-7.5-2.9-7.5-7v-4.4c0-4,2.5-7,7.4-7c4.7,0,7.1,3,7.1,6.9V69
		c0,0.5-0.2,0.8-0.8,0.8H397.1z M397.1,66.2v0.9h7.1v-0.9c0-2.2-1.2-3.6-3.6-3.6C398.3,62.6,397.1,64,397.1,66.2z"/>
	<path class="st2" d="M424.8,63.5c0.1,0.3,0,0.5-0.3,0.6l-2.3,0.8c-0.4,0.1-0.5,0-0.6-0.3c-0.5-1.4-1.7-2.1-3.4-2.1
		c-1.8,0-2.8,0.7-2.8,1.9c0,1.1,0.7,1.5,4.1,2.5c4,1.1,5.6,2.7,5.6,5.5c0,3.3-2.7,5.4-6.8,5.4c-3.7,0-6.4-1.5-7.2-4.2
		c-0.1-0.4,0-0.5,0.4-0.7l2.1-1c0.4-0.1,0.6-0.1,0.7,0.4c0.5,1.5,2,2.4,3.9,2.4c2,0,3.1-0.8,3.1-2s-1-1.8-4.3-2.7
		c-3.8-1.1-5.4-2.6-5.4-5.3c0-3.2,2.6-5.3,6.5-5.3C421.4,59.4,423.9,60.9,424.8,63.5z"/>
	<path class="st2" d="M432.2,69.8v1c0,2.3,1.2,3.7,3.7,3.7c2.4,0,3.1-0.9,3.7-2.1c0.3-0.4,0.4-0.5,0.8-0.3l2,1
		c0.4,0.2,0.5,0.5,0.3,0.9c-1.1,2.3-3.5,3.7-6.9,3.7c-4.9,0-7.5-2.9-7.5-7v-4.4c0-4,2.5-7,7.4-7c4.7,0,7.1,3,7.1,6.9V69
		c0,0.5-0.2,0.8-0.8,0.8H432.2z M432.2,66.2v0.9h7.1v-0.9c0-2.2-1.2-3.6-3.6-3.6S432.2,64,432.2,66.2z"/>
	<path class="st2" d="M460.4,65.2v11.7c0,0.3-0.2,0.4-0.4,0.4h-2.8c-0.3,0-0.4-0.2-0.4-0.4v-2.1c-1.1,1.8-2.9,2.9-5.1,2.9
		c-3.3,0-5.4-2.2-5.4-5.3c0-3.2,2.1-5.1,6.7-5.4c1.2-0.1,2.4-0.1,3.6,0v-1.6c0-2-1.1-2.8-2.9-2.8s-2.5,0.7-2.9,1.9
		c-0.1,0.4-0.3,0.4-0.6,0.3l-2.8-0.7c-0.3-0.1-0.4-0.3-0.3-0.5c0.5-2.5,2.8-4.2,6.8-4.2C458,59.4,460.4,61.3,460.4,65.2z
		 M456.6,71.7v-2.2c-1.1,0-2.2,0-3.3,0.1c-2.1,0.2-3.3,0.9-3.3,2.6c0,1.4,1,2.4,2.7,2.4C454.5,74.5,455.9,73.5,456.6,71.7z"/>
</g>
<g class="st1">
	<path class="st2" d="M474.9,60v2.8c0,0.4-0.1,0.5-0.5,0.5H474c-2.6,0-4.1,1.3-4.8,3.3V77c0,0.3-0.2,0.4-0.4,0.4h-3.2
		c-0.2,0-0.4-0.1-0.4-0.4V60.1c0-0.3,0.2-0.4,0.4-0.4h2.9c0.3,0,0.4,0.2,0.4,0.4v2.5c0.9-1.6,2.6-3.2,5.3-3.2
		C474.8,59.5,474.9,59.6,474.9,60z"/>
</g>
<g class="st1">
	<path class="st2" d="M491.1,64.4c0,0.3,0,0.5-0.4,0.6l-2.4,0.7c-0.5,0.1-0.6,0.1-0.7-0.3c-0.4-1.1-0.9-2.5-3.2-2.5
		c-2.2,0-3.3,1.4-3.3,3.8v3.9c0,2.4,1.2,3.7,3.3,3.7c2.1,0,2.8-1,3.3-2.4c0.1-0.4,0.3-0.5,0.7-0.3l2.5,0.9c0.4,0.1,0.4,0.4,0.3,0.7
		c-0.5,2.5-2.9,4.7-7,4.7c-4.4,0-7-2.9-7-7v-4.3c0-4.1,2.6-7.1,7-7.1C488,59.4,490.6,61.2,491.1,64.4z"/>
	<path class="st2" d="M499,53.4v8.9c1.1-1.6,2.8-2.9,5.2-2.9c3.4,0,5.2,2.5,5.2,6v11.5c0,0.4-0.2,0.4-0.4,0.4h-3
		c-0.3,0-0.5-0.2-0.5-0.4V66.1c0-1.9-0.9-3-2.7-3c-1.7,0-3.1,1.2-3.8,3v10.8c0,0.3-0.2,0.4-0.4,0.4h-3c-0.3,0-0.5-0.2-0.5-0.4V53.4
		c0-0.3,0.2-0.4,0.5-0.4h3C498.8,53,499,53.1,499,53.4z"/>
</g>
<g class="st1">
	<path class="st2" d="M531.8,53.4v2.4c0,0.2-0.1,0.4-0.4,0.4h-1.5c-1.5,0-2.1,0.6-2.1,1.9v1.8h3.7c0.2,0,0.4,0.2,0.4,0.4v2.4
		c0,0.3-0.2,0.4-0.4,0.4h-3.6V77c0,0.3-0.2,0.4-0.4,0.4h-3.1c-0.3,0-0.5-0.1-0.5-0.4V63.1h-2.4c-0.2,0-0.4-0.2-0.4-0.4v-2.4
		c0-0.2,0.2-0.4,0.4-0.4h2.4v-1.6c0-3.3,1.9-5.2,5.4-5.2h2.1C531.7,53,531.8,53.2,531.8,53.4z"/>
</g>
<g class="st1">
	<path class="st2" d="M549.2,66.5v4.2c0,4.2-2.4,7.1-7.5,7.1s-7.5-2.9-7.5-7v-4.2c0-4.2,2.4-7.2,7.5-7.2
		C546.8,59.4,549.2,62.4,549.2,66.5z M538.2,66.7v3.9c0,2.4,1.2,3.7,3.5,3.7c2.4,0,3.6-1.3,3.6-3.7v-3.9c0-2.4-1.2-3.8-3.6-3.8
		C539.4,62.8,538.2,64.3,538.2,66.7z"/>
</g>
<g class="st1">
	<path class="st2" d="M563.2,60v2.8c0,0.4-0.1,0.5-0.5,0.5h-0.4c-2.6,0-4.1,1.3-4.8,3.3V77c0,0.3-0.2,0.4-0.4,0.4h-3.2
		c-0.2,0-0.4-0.1-0.4-0.4V60.1c0-0.3,0.2-0.4,0.4-0.4h2.9c0.3,0,0.4,0.2,0.4,0.4v2.5c0.9-1.6,2.6-3.2,5.3-3.2
		C563.1,59.5,563.2,59.6,563.2,60z"/>
</g>
<g class="st1">
	<path class="st2" d="M254.8,99.6v1.5c0,4.4-2.6,7.3-7.6,7.3h-3.5v7c0,0.3-0.2,0.4-0.5,0.4H240c-0.3,0-0.4-0.2-0.4-0.4V92.8
		c0-0.2,0.2-0.4,0.4-0.4h7.1C252.2,92.3,254.8,95.3,254.8,99.6z M243.6,96v8.6h3.1c2.9,0,3.9-1.3,3.9-3.8v-0.9c0-2.5-1-3.8-3.9-3.8
		L243.6,96L243.6,96z"/>
</g>
<g class="st1">
	<path class="st2" d="M272.9,104.9v4.2c0,4.2-2.4,7.1-7.5,7.1s-7.5-2.9-7.5-7V105c0-4.2,2.4-7.2,7.5-7.2S272.9,100.8,272.9,104.9z
		 M261.9,105.1v3.9c0,2.4,1.2,3.7,3.5,3.7c2.4,0,3.6-1.3,3.6-3.7v-3.9c0-2.4-1.2-3.8-3.6-3.8C263.1,101.2,261.9,102.7,261.9,105.1z"
		/>
	<path class="st2" d="M290,101.9c0.1,0.3,0,0.5-0.3,0.6l-2.3,0.8c-0.4,0.1-0.5,0-0.6-0.3c-0.5-1.4-1.7-2.1-3.4-2.1
		c-1.8,0-2.8,0.7-2.8,1.9c0,1.1,0.7,1.5,4.1,2.5c4,1.1,5.6,2.7,5.6,5.5c0,3.3-2.7,5.4-6.8,5.4c-3.7,0-6.4-1.5-7.2-4.2
		c-0.1-0.4,0-0.5,0.4-0.7l2.1-1c0.4-0.1,0.6-0.1,0.7,0.4c0.5,1.5,2,2.4,3.9,2.4c2,0,3.1-0.8,3.1-2s-1-1.8-4.3-2.7
		c-3.8-1.1-5.4-2.6-5.4-5.3c0-3.2,2.6-5.3,6.5-5.3C286.7,97.8,289.2,99.3,290,101.9z"/>
	<path class="st2" d="M298.1,92v3c0,0.4-0.2,0.6-0.6,0.6h-2.8c-0.4,0-0.6-0.2-0.6-0.6v-3c0-0.4,0.2-0.6,0.6-0.6h2.8
		C298,91.4,298.1,91.6,298.1,92z M298.1,98.6v16.8c0,0.3-0.2,0.4-0.4,0.4h-3c-0.3,0-0.5-0.2-0.5-0.4V98.6c0-0.3,0.2-0.4,0.5-0.4h3
		C298,98.1,298.1,98.3,298.1,98.6z"/>
	<path class="st2" d="M308.1,94.2v4h3.5c0.3,0,0.4,0.2,0.4,0.5v2.3c0,0.3-0.2,0.4-0.4,0.4h-3.5v8.9c0,1.3,0.7,1.9,2.1,1.9h1.3
		c0.3,0,0.4,0.1,0.4,0.4v2.6c0,0.3-0.2,0.4-0.4,0.4h-2c-3.6,0-5.4-1.9-5.4-4.9v-9.4H302c-0.3,0-0.4-0.1-0.4-0.4v-2.3
		c0-0.3,0.2-0.5,0.4-0.5h2.2v-4c0-0.3,0.2-0.4,0.4-0.4h2.9C307.9,93.8,308.1,93.9,308.1,94.2z"/>
	<path class="st2" d="M319.7,92v3c0,0.4-0.2,0.6-0.6,0.6h-2.8c-0.4,0-0.6-0.2-0.6-0.6v-3c0-0.4,0.2-0.6,0.6-0.6h2.8
		C319.5,91.4,319.7,91.6,319.7,92z M319.7,98.6v16.8c0,0.3-0.2,0.4-0.4,0.4h-3c-0.3,0-0.5-0.2-0.5-0.4V98.6c0-0.3,0.2-0.4,0.5-0.4h3
		C319.6,98.1,319.7,98.3,319.7,98.6z"/>
	<path class="st2" d="M339,104.9v4.2c0,4.2-2.4,7.1-7.5,7.1s-7.5-2.9-7.5-7V105c0-4.2,2.4-7.2,7.5-7.2S339,100.8,339,104.9z
		 M328,105.1v3.9c0,2.4,1.2,3.7,3.5,3.7c2.4,0,3.6-1.3,3.6-3.7v-3.9c0-2.4-1.2-3.8-3.6-3.8C329.2,101.2,328,102.7,328,105.1z"/>
	<path class="st2" d="M347.3,104.4v10.9c0,0.3-0.2,0.4-0.4,0.4h-3c-0.3,0-0.5-0.2-0.5-0.4V98.5c0-0.2,0.1-0.4,0.4-0.4h3
		c0.3,0,0.4,0.2,0.4,0.4v2.1c1.1-1.6,2.9-2.9,5.3-2.9c3.4,0,5.2,2.4,5.2,6v11.6c0,0.3-0.2,0.4-0.4,0.4h-3c-0.3,0-0.5-0.2-0.5-0.4
		v-10.9c0-1.9-0.9-3.1-2.7-3.1C349.4,101.4,348,102.6,347.3,104.4z"/>
	<path class="st2" d="M366.5,92v3c0,0.4-0.2,0.6-0.6,0.6h-2.8c-0.4,0-0.6-0.2-0.6-0.6v-3c0-0.4,0.2-0.6,0.6-0.6h2.8
		C366.3,91.4,366.5,91.6,366.5,92z M366.5,98.6v16.8c0,0.3-0.2,0.4-0.4,0.4h-3c-0.3,0-0.5-0.2-0.5-0.4V98.6c0-0.3,0.2-0.4,0.5-0.4h3
		C366.3,98.1,366.5,98.3,366.5,98.6z"/>
	<path class="st2" d="M375.3,104.4v10.9c0,0.3-0.2,0.4-0.4,0.4h-3c-0.3,0-0.5-0.2-0.5-0.4V98.5c0-0.2,0.1-0.4,0.4-0.4h3
		c0.3,0,0.4,0.2,0.4,0.4v2.1c1.1-1.6,2.9-2.9,5.3-2.9c3.4,0,5.2,2.4,5.2,6v11.6c0,0.3-0.2,0.4-0.4,0.4h-3c-0.3,0-0.5-0.2-0.5-0.4
		v-10.9c0-1.9-0.9-3.1-2.7-3.1C377.3,101.4,375.9,102.6,375.3,104.4z"/>
	<path class="st2" d="M405.1,117c0,3-2.2,5.5-8.3,5.5c-5.5,0-7.6-1.9-7.6-4.7c0-1.5,0.9-2.9,2.7-3.7c-0.8-0.6-1.2-1.6-1.2-2.3
		c0-1.1,0.6-2,1.8-2.6c-1.8-1.1-2.8-2.8-2.8-5c0-3.5,2.2-6.1,6.9-6.1h7.9c0.2,0,0.4,0.2,0.4,0.4v2.2c0,0.3-0.2,0.4-0.4,0.4h-2.8
		c0.9,0.8,1.6,2,1.6,3.6c0,3-2.1,5.4-6.6,5.4h-1.1c-1.1,0-1.5,0.4-1.5,1.1c0,0.5,0.5,1,1.5,1h3.6C403.4,112.3,405.1,114.3,405.1,117
		z M401.3,117.3c0-1-0.6-2-2.7-2h-3.2c-1.9,0-2.6,1-2.6,2c0,1.5,1.2,2.4,4.2,2.4S401.3,118.7,401.3,117.3z M393.4,104.2
		c0,1.9,1.1,3.2,3.3,3.2c2,0,3.2-1.2,3.2-3.2c0-1.9-1.1-3.2-3.2-3.2C394.5,101.1,393.4,102.2,393.4,104.2z"/>
</g>
<g class="st1">
	<path class="st2" d="M431.4,104.9v4.2c0,4.2-2.4,7.1-7.5,7.1s-7.5-2.9-7.5-7V105c0-4.2,2.4-7.2,7.5-7.2S431.4,100.8,431.4,104.9z
		 M420.4,105.1v3.9c0,2.4,1.2,3.7,3.5,3.7c2.4,0,3.6-1.3,3.6-3.7v-3.9c0-2.4-1.2-3.8-3.6-3.8C421.6,101.2,420.4,102.7,420.4,105.1z"
		/>
</g>
<g class="st1">
	<path class="st2" d="M444.9,91.8v2.4c0,0.2-0.1,0.4-0.4,0.4H443c-1.5,0-2.1,0.6-2.1,1.9v1.8h3.7c0.2,0,0.4,0.2,0.4,0.4v2.4
		c0,0.3-0.2,0.4-0.4,0.4H441v13.9c0,0.3-0.2,0.4-0.4,0.4h-3.1c-0.3,0-0.5-0.1-0.5-0.4v-13.9h-2.4c-0.2,0-0.4-0.2-0.4-0.4v-2.4
		c0-0.2,0.2-0.4,0.4-0.4h2.4v-1.6c0-3.3,1.9-5.2,5.4-5.2h2.1C444.8,91.4,444.9,91.6,444.9,91.8z"/>
</g>
<g class="st1">
	<path class="st2" d="M473.3,100.9v6.2c0,5.1-3,8.7-9.2,8.7h-7.3c-0.3,0-0.4-0.2-0.4-0.4V92.8c0-0.3,0.1-0.4,0.4-0.4h7.3
		C470.3,92.3,473.3,96,473.3,100.9z M460.5,96.2V112h3.6c3.6,0,5.2-1.8,5.2-5v-5.9c0-3.1-1.5-5-5.2-5L460.5,96.2L460.5,96.2z"/>
</g>
<g class="st1">
	<path class="st2" d="M481.2,108.2v1c0,2.3,1.2,3.7,3.7,3.7c2.4,0,3.1-0.9,3.7-2.1c0.3-0.4,0.4-0.5,0.8-0.3l2,1
		c0.4,0.2,0.5,0.5,0.3,0.9c-1.1,2.3-3.5,3.7-6.9,3.7c-4.9,0-7.5-2.9-7.5-7v-4.4c0-4,2.5-7,7.4-7c4.7,0,7.1,3,7.1,6.9v2.7
		c0,0.5-0.2,0.8-0.8,0.8h-9.8V108.2z M481.2,104.6v0.9h7.1v-0.9c0-2.2-1.2-3.6-3.6-3.6C482.4,101,481.2,102.4,481.2,104.6z"/>
</g>
<g class="st1">
	<path class="st2" d="M510.1,98.7l-5.5,16.7c-0.1,0.3-0.3,0.4-0.6,0.4h-3.7c-0.4,0-0.5-0.2-0.6-0.4l-5.5-16.7
		c-0.1-0.3,0.1-0.6,0.4-0.6h3.2c0.3,0,0.4,0.1,0.5,0.4l2.3,7.4c0.7,2.4,1.2,4.8,1.6,6.5h0.1c0.3-1.7,0.9-4.2,1.6-6.5l2.2-7.4
		c0.1-0.3,0.3-0.4,0.5-0.4h3.1C510,98.1,510.2,98.4,510.1,98.7z"/>
	<path class="st2" d="M517.3,92v3c0,0.4-0.2,0.6-0.6,0.6H514c-0.4,0-0.6-0.2-0.6-0.6v-3c0-0.4,0.2-0.6,0.6-0.6h2.8
		C517.2,91.4,517.3,91.6,517.3,92z M517.3,98.6v16.8c0,0.3-0.2,0.4-0.4,0.4h-3c-0.3,0-0.5-0.2-0.5-0.4V98.6c0-0.3,0.2-0.4,0.5-0.4h3
		C517.2,98.1,517.3,98.3,517.3,98.6z"/>
	<path class="st2" d="M535.6,102.8c0,0.3,0,0.5-0.4,0.6l-2.4,0.7c-0.5,0.1-0.6,0.1-0.7-0.3c-0.4-1.1-0.9-2.5-3.2-2.5
		c-2.2,0-3.3,1.4-3.3,3.8v3.9c0,2.4,1.2,3.7,3.3,3.7s2.8-1,3.3-2.4c0.1-0.4,0.3-0.5,0.7-0.3l2.5,0.9c0.4,0.1,0.4,0.4,0.3,0.7
		c-0.5,2.5-2.9,4.7-7,4.7c-4.4,0-7-2.9-7-7V105c0-4.1,2.6-7.1,7-7.1C532.5,97.8,535.1,99.6,535.6,102.8z"/>
	<path class="st2" d="M542.8,108.2v1c0,2.3,1.2,3.7,3.7,3.7c2.4,0,3.1-0.9,3.7-2.1c0.3-0.4,0.4-0.5,0.8-0.3l2,1
		c0.4,0.2,0.5,0.5,0.3,0.9c-1.1,2.3-3.5,3.7-6.9,3.7c-4.9,0-7.5-2.9-7.5-7v-4.4c0-4,2.5-7,7.4-7c4.7,0,7.1,3,7.1,6.9v2.7
		c0,0.5-0.2,0.8-0.8,0.8h-9.8V108.2z M542.8,104.6v0.9h7.1v-0.9c0-2.2-1.2-3.6-3.6-3.6C544,101,542.8,102.4,542.8,104.6z"/>
</g>
<g class="st1">
	<path class="st2" d="M275.1,400.2v22.4c0,0.3-0.1,0.4-0.4,0.4h-2.9c-0.3,0-0.4-0.2-0.4-0.4v-12.7c0-1.8,0.1-4.6,0.3-6.3h-0.1
		l-5.1,18.9c-0.1,0.4-0.3,0.6-0.7,0.6H263c-0.4,0-0.6-0.2-0.7-0.6l-5.2-18.9H257c0.1,1.7,0.3,4.5,0.3,6.3v12.7
		c0,0.3-0.2,0.4-0.4,0.4h-2.8c-0.3,0-0.4-0.2-0.4-0.4v-22.4c0-0.4,0.2-0.6,0.6-0.6h4.7c0.4,0,0.6,0.2,0.7,0.6l3.2,11.5
		c0.7,2.7,1.2,4.5,1.6,6.9h0.1c0.4-2.3,0.9-4.2,1.6-6.9l3.2-11.5c0.1-0.4,0.3-0.6,0.7-0.6h4.6C274.9,399.5,275.1,399.8,275.1,400.2z
		"/>
</g>
<g class="st1">
	<path class="st2" d="M293.6,410.8v11.7c0,0.3-0.2,0.4-0.4,0.4h-2.8c-0.3,0-0.4-0.2-0.4-0.4v-2.1c-1.1,1.8-2.9,2.9-5.1,2.9
		c-3.3,0-5.4-2.2-5.4-5.3c0-3.2,2.1-5.1,6.7-5.4c1.2-0.1,2.4-0.1,3.6,0V411c0-2-1.1-2.8-2.9-2.8s-2.5,0.7-2.9,1.9
		c-0.1,0.4-0.3,0.4-0.6,0.3l-2.8-0.7c-0.3-0.1-0.4-0.3-0.3-0.5c0.5-2.5,2.8-4.2,6.8-4.2C291.1,405,293.6,406.9,293.6,410.8z
		 M289.7,417.3v-2.2c-1.1,0-2.2,0-3.3,0.1c-2.1,0.2-3.3,0.9-3.3,2.6c0,1.4,1,2.4,2.7,2.4C287.6,420.1,289,419.1,289.7,417.3z"/>
</g>
<g class="st1">
	<path class="st2" d="M303.2,401.4v4h3.5c0.3,0,0.4,0.2,0.4,0.5v2.3c0,0.3-0.2,0.4-0.4,0.4h-3.5v8.9c0,1.3,0.7,1.9,2.1,1.9h1.3
		c0.3,0,0.4,0.1,0.4,0.4v2.6c0,0.3-0.2,0.4-0.4,0.4h-2c-3.6,0-5.4-1.9-5.4-4.9v-9.4H297c-0.3,0-0.4-0.1-0.4-0.4v-2.3
		c0-0.3,0.2-0.5,0.4-0.5h2.2v-4c0-0.3,0.2-0.4,0.4-0.4h2.9C303.1,401,303.2,401.1,303.2,401.4z"/>
	<path class="st2" d="M314.1,415.4v1c0,2.3,1.2,3.7,3.7,3.7c2.4,0,3.1-0.9,3.7-2.1c0.3-0.4,0.4-0.5,0.8-0.3l2,1
		c0.4,0.2,0.5,0.5,0.3,0.9c-1.1,2.3-3.5,3.7-6.9,3.7c-4.9,0-7.5-2.9-7.5-7V412c0-4,2.5-7,7.4-7c4.7,0,7.1,3,7.1,6.9v2.7
		c0,0.5-0.2,0.8-0.8,0.8H314.1z M314.1,411.8v0.9h7.1v-0.9c0-2.2-1.2-3.6-3.6-3.6C315.3,408.2,314.1,409.6,314.1,411.8z"/>
	<path class="st2" d="M338.8,405.6v2.8c0,0.4-0.1,0.5-0.5,0.5h-0.4c-2.6,0-4.1,1.3-4.8,3.3v10.4c0,0.3-0.2,0.4-0.4,0.4h-3.2
		c-0.2,0-0.4-0.1-0.4-0.4v-16.8c0-0.3,0.2-0.4,0.4-0.4h2.9c0.3,0,0.4,0.2,0.4,0.4v2.5c0.9-1.6,2.6-3.2,5.3-3.2
		C338.7,405.1,338.8,405.2,338.8,405.6z"/>
	<path class="st2" d="M346,399.2v3c0,0.4-0.2,0.6-0.6,0.6h-2.8c-0.4,0-0.6-0.2-0.6-0.6v-3c0-0.4,0.2-0.6,0.6-0.6h2.8
		C345.8,398.6,346,398.8,346,399.2z M346,405.8v16.8c0,0.3-0.2,0.4-0.4,0.4h-3c-0.3,0-0.5-0.2-0.5-0.4v-16.8c0-0.3,0.2-0.4,0.5-0.4
		h3C345.8,405.3,346,405.5,346,405.8z"/>
	<path class="st2" d="M364.1,410.8v11.7c0,0.3-0.2,0.4-0.4,0.4h-2.8c-0.3,0-0.4-0.2-0.4-0.4v-2.1c-1.1,1.8-2.9,2.9-5.1,2.9
		c-3.3,0-5.4-2.2-5.4-5.3c0-3.2,2.1-5.1,6.7-5.4c1.2-0.1,2.4-0.1,3.6,0V411c0-2-1.1-2.8-2.9-2.8s-2.5,0.7-2.9,1.9
		c-0.1,0.4-0.3,0.4-0.6,0.3l-2.8-0.7c-0.3-0.1-0.4-0.3-0.3-0.5c0.5-2.5,2.8-4.2,6.8-4.2C361.6,405,364.1,406.9,364.1,410.8z
		 M360.2,417.3v-2.2c-1.1,0-2.2,0-3.3,0.1c-2.1,0.2-3.3,0.9-3.3,2.6c0,1.4,1,2.4,2.7,2.4C358.2,420.1,359.5,419.1,360.2,417.3z"/>
	<path class="st2" d="M372.8,399v23.5c0,0.3-0.2,0.4-0.4,0.4h-3c-0.3,0-0.5-0.2-0.5-0.4V399c0-0.3,0.2-0.4,0.5-0.4h3
		C372.6,398.6,372.8,398.7,372.8,399z"/>
	<path class="st2" d="M390.4,409.1c0.1,0.3,0,0.5-0.3,0.6l-2.3,0.8c-0.4,0.1-0.5,0-0.6-0.3c-0.5-1.4-1.7-2.1-3.4-2.1
		c-1.8,0-2.8,0.7-2.8,1.9c0,1.1,0.7,1.5,4.1,2.5c4,1.1,5.6,2.7,5.6,5.5c0,3.3-2.7,5.4-6.8,5.4c-3.7,0-6.4-1.5-7.2-4.2
		c-0.1-0.4,0-0.5,0.4-0.7l2.1-1c0.4-0.1,0.6-0.1,0.7,0.4c0.5,1.5,2,2.4,3.9,2.4c2,0,3.1-0.8,3.1-2s-1-1.8-4.3-2.7
		c-3.8-1.1-5.4-2.6-5.4-5.3c0-3.2,2.6-5.3,6.5-5.3C387.1,405,389.6,406.5,390.4,409.1z"/>
</g>
<g class="st1">
	<path class="st2" d="M419.5,423H416c-0.4,0-0.5-0.1-0.6-0.4l-4.5-8.4h-3.3v8.3c0,0.3-0.2,0.4-0.5,0.4h-3.2c-0.3,0-0.4-0.2-0.4-0.4
		V400c0-0.3,0.1-0.4,0.4-0.4h7.7c5,0,7.5,2.8,7.5,6.9v0.8c0,3.1-1.4,5.4-4.2,6.4l4.9,8.8C420,422.6,419.9,423,419.5,423z
		 M407.6,410.7h3.7c2.7,0,3.7-1.2,3.7-3.4v-0.6c0-2.1-1.1-3.4-3.7-3.4h-3.7V410.7z"/>
</g>
<g class="st1">
	<path class="st2" d="M426.7,415.4v1c0,2.3,1.2,3.7,3.7,3.7c2.4,0,3.1-0.9,3.7-2.1c0.3-0.4,0.4-0.5,0.8-0.3l2,1
		c0.4,0.2,0.5,0.5,0.3,0.9c-1.1,2.3-3.5,3.7-6.9,3.7c-4.9,0-7.5-2.9-7.5-7V412c0-4,2.5-7,7.4-7c4.7,0,7.1,3,7.1,6.9v2.7
		c0,0.5-0.2,0.8-0.8,0.8H426.7z M426.7,411.8v0.9h7.1v-0.9c0-2.2-1.2-3.6-3.6-3.6S426.7,409.6,426.7,411.8z"/>
	<path class="st2" d="M454.4,409.1c0.1,0.3,0,0.5-0.3,0.6l-2.3,0.8c-0.4,0.1-0.5,0-0.6-0.3c-0.5-1.4-1.7-2.1-3.4-2.1
		c-1.8,0-2.8,0.7-2.8,1.9c0,1.1,0.7,1.5,4.1,2.5c4,1.1,5.6,2.7,5.6,5.5c0,3.3-2.7,5.4-6.8,5.4c-3.7,0-6.4-1.5-7.2-4.2
		c-0.1-0.4,0-0.5,0.4-0.7l2.1-1c0.4-0.1,0.6-0.1,0.7,0.4c0.5,1.5,2,2.4,3.9,2.4c2,0,3.1-0.8,3.1-2s-1-1.8-4.3-2.7
		c-3.8-1.1-5.4-2.6-5.4-5.3c0-3.2,2.6-5.3,6.5-5.3C451.1,405,453.6,406.5,454.4,409.1z"/>
	<path class="st2" d="M461.9,415.4v1c0,2.3,1.2,3.7,3.7,3.7c2.4,0,3.1-0.9,3.7-2.1c0.3-0.4,0.4-0.5,0.8-0.3l2,1
		c0.4,0.2,0.5,0.5,0.3,0.9c-1.1,2.3-3.5,3.7-6.9,3.7c-4.9,0-7.5-2.9-7.5-7V412c0-4,2.5-7,7.4-7c4.7,0,7.1,3,7.1,6.9v2.7
		c0,0.5-0.2,0.8-0.8,0.8H461.9z M461.9,411.8v0.9h7.1v-0.9c0-2.2-1.2-3.6-3.6-3.6C463.1,408.2,461.9,409.6,461.9,411.8z"/>
	<path class="st2" d="M490.1,410.8v11.7c0,0.3-0.2,0.4-0.4,0.4h-2.8c-0.3,0-0.4-0.2-0.4-0.4v-2.1c-1.1,1.8-2.9,2.9-5.1,2.9
		c-3.3,0-5.4-2.2-5.4-5.3c0-3.2,2.1-5.1,6.7-5.4c1.2-0.1,2.4-0.1,3.6,0V411c0-2-1.1-2.8-2.9-2.8s-2.5,0.7-2.9,1.9
		c-0.1,0.4-0.3,0.4-0.6,0.3l-2.8-0.7c-0.3-0.1-0.4-0.3-0.3-0.5c0.5-2.5,2.8-4.2,6.8-4.2C487.6,405,490.1,406.9,490.1,410.8z
		 M486.3,417.3v-2.2c-1.1,0-2.2,0-3.3,0.1c-2.1,0.2-3.3,0.9-3.3,2.6c0,1.4,1,2.4,2.7,2.4C484.2,420.1,485.6,419.1,486.3,417.3z"/>
</g>
<g class="st1">
	<path class="st2" d="M504.6,405.6v2.8c0,0.4-0.1,0.5-0.5,0.5h-0.4c-2.6,0-4.1,1.3-4.8,3.3v10.4c0,0.3-0.2,0.4-0.4,0.4h-3.2
		c-0.2,0-0.4-0.1-0.4-0.4v-16.8c0-0.3,0.2-0.4,0.4-0.4h2.9c0.3,0,0.4,0.2,0.4,0.4v2.5c0.9-1.6,2.6-3.2,5.3-3.2
		C504.5,405.1,504.6,405.2,504.6,405.6z"/>
</g>
<g class="st1">
	<path class="st2" d="M520.8,410c0,0.3,0,0.5-0.4,0.6l-2.4,0.7c-0.5,0.1-0.6,0.1-0.7-0.3c-0.4-1.1-0.9-2.5-3.2-2.5
		c-2.2,0-3.3,1.4-3.3,3.8v3.9c0,2.4,1.2,3.7,3.3,3.7s2.8-1,3.3-2.4c0.1-0.4,0.3-0.5,0.7-0.3l2.5,0.9c0.4,0.1,0.4,0.4,0.3,0.7
		c-0.5,2.5-2.9,4.7-7,4.7c-4.4,0-7-2.9-7-7v-4.3c0-4.1,2.6-7.1,7-7.1C517.7,405,520.3,406.8,520.8,410z"/>
	<path class="st2" d="M528.7,399v8.9c1.1-1.6,2.8-2.9,5.2-2.9c3.4,0,5.2,2.5,5.2,6v11.5c0,0.4-0.2,0.4-0.4,0.4h-3
		c-0.3,0-0.5-0.2-0.5-0.4v-10.8c0-1.9-0.9-3-2.7-3c-1.7,0-3.1,1.2-3.8,3v10.8c0,0.3-0.2,0.4-0.4,0.4h-3c-0.3,0-0.5-0.2-0.5-0.4V399
		c0-0.3,0.2-0.4,0.5-0.4h3C528.5,398.6,528.7,398.7,528.7,399z"/>
</g>
<g class="st1">
	<path class="st2" d="M157.6,712.2c0.1,0.4,0,0.6-0.3,0.7l-2.7,0.8c-0.4,0.1-0.6,0-0.7-0.4c-0.6-1.9-1.7-3.2-4.2-3.2
		c-3,0-4.4,1.9-4.4,5v6.6c0,3.1,1.5,5,4.4,5c2.6,0,3.8-1.4,4.3-3.4c0.1-0.4,0.3-0.5,0.7-0.4l2.7,0.9c0.3,0.1,0.4,0.3,0.4,0.7
		c-0.9,3.4-3.4,6-8.1,6c-5.4,0-8.4-3.4-8.4-8.6v-7c0-5.2,3.1-8.6,8.4-8.6C154.3,706.4,156.7,708.8,157.6,712.2z"/>
	<path class="st2" d="M176,719.3v4.2c0,4.2-2.4,7.1-7.5,7.1s-7.5-2.9-7.5-7v-4.2c0-4.2,2.4-7.2,7.5-7.2
		C173.6,712.2,176,715.2,176,719.3z M164.9,719.5v3.9c0,2.4,1.2,3.7,3.5,3.7c2.4,0,3.6-1.3,3.6-3.7v-3.9c0-2.4-1.2-3.8-3.6-3.8
		C166.1,715.6,164.9,717.1,164.9,719.5z"/>
</g>
<g class="st1">
	<path class="st2" d="M184.3,718.8v10.9c0,0.3-0.2,0.4-0.4,0.4h-3c-0.3,0-0.5-0.2-0.5-0.4v-16.8c0-0.2,0.1-0.4,0.4-0.4h3
		c0.3,0,0.4,0.2,0.4,0.4v2.1c1.1-1.6,2.9-2.9,5.3-2.9c3.4,0,5.2,2.4,5.2,6v11.6c0,0.3-0.2,0.4-0.4,0.4h-3c-0.3,0-0.5-0.2-0.5-0.4
		v-10.9c0-1.9-0.9-3.1-2.7-3.1C186.3,715.8,184.9,717,184.3,718.8z"/>
</g>
<g class="st1">
	<path class="st2" d="M204.3,708.6v4h3.5c0.3,0,0.4,0.2,0.4,0.5v2.3c0,0.3-0.2,0.4-0.4,0.4h-3.5v8.9c0,1.3,0.7,1.9,2.1,1.9h1.3
		c0.3,0,0.4,0.1,0.4,0.4v2.6c0,0.3-0.2,0.4-0.4,0.4h-2c-3.6,0-5.4-1.9-5.4-4.9v-9.4h-2.2c-0.3,0-0.4-0.1-0.4-0.4V713
		c0-0.3,0.2-0.5,0.4-0.5h2.2v-4c0-0.3,0.2-0.4,0.4-0.4h2.9C204.2,708.2,204.3,708.3,204.3,708.6z"/>
	<path class="st2" d="M216,706.4v3c0,0.4-0.2,0.6-0.6,0.6h-2.8c-0.4,0-0.6-0.2-0.6-0.6v-3c0-0.4,0.2-0.6,0.6-0.6h2.8
		C215.8,705.8,216,706,216,706.4z M216,713v16.8c0,0.3-0.2,0.4-0.4,0.4h-3c-0.3,0-0.5-0.2-0.5-0.4V713c0-0.3,0.2-0.4,0.5-0.4h3
		C215.8,712.5,216,712.7,216,713z"/>
	<path class="st2" d="M224.8,718.8v10.9c0,0.3-0.2,0.4-0.4,0.4h-3c-0.3,0-0.5-0.2-0.5-0.4v-16.8c0-0.2,0.1-0.4,0.4-0.4h3
		c0.3,0,0.4,0.2,0.4,0.4v2.1c1.1-1.6,2.9-2.9,5.3-2.9c3.4,0,5.2,2.4,5.2,6v11.6c0,0.3-0.2,0.4-0.4,0.4h-3c-0.3,0-0.5-0.2-0.5-0.4
		v-10.9c0-1.9-0.9-3.1-2.7-3.1C226.9,715.8,225.5,717,224.8,718.8z"/>
	<path class="st2" d="M239.9,724.5V713c0-0.3,0.2-0.4,0.5-0.4h3c0.3,0,0.4,0.2,0.4,0.4v10.9c0,1.9,0.9,3,2.7,3c1.7,0,3.1-1.2,3.7-3
		V713c0-0.3,0.1-0.4,0.4-0.4h3.1c0.3,0,0.5,0.2,0.5,0.4v16.8c0,0.2-0.2,0.4-0.4,0.4h-3c-0.3,0-0.4-0.2-0.4-0.4v-2.1
		c-1.1,1.6-2.9,2.9-5.3,2.9C241.7,730.5,239.9,728.1,239.9,724.5z"/>
	<path class="st2" d="M262.4,722.6v1c0,2.3,1.2,3.7,3.7,3.7c2.4,0,3.1-0.9,3.7-2.1c0.3-0.4,0.4-0.5,0.8-0.3l2,1
		c0.4,0.2,0.5,0.5,0.3,0.9c-1.1,2.3-3.5,3.7-6.9,3.7c-4.9,0-7.5-2.9-7.5-7v-4.4c0-4,2.5-7,7.4-7c4.7,0,7.1,3,7.1,6.9v2.7
		c0,0.5-0.2,0.8-0.8,0.8L262.4,722.6L262.4,722.6z M262.4,719v0.9h7.1V719c0-2.2-1.2-3.6-3.6-3.6C263.6,715.4,262.4,716.8,262.4,719
		z"/>
	<path class="st2" d="M276.9,723.8V719c0-4.1,2.4-6.8,6-6.8c2.6,0,4.3,1.3,5,2.6v-8.6c0-0.2,0.1-0.4,0.4-0.4h3.1
		c0.3,0,0.4,0.2,0.4,0.4v23.5c0,0.3-0.2,0.4-0.4,0.4h-3c-0.3,0-0.4-0.2-0.4-0.4V728c-0.7,1.2-2.5,2.6-5,2.6
		C279.3,730.5,276.9,727.8,276.9,723.8z M287.9,723.2v-3.6c0-2.5-1.6-3.9-3.6-3.9c-2.2,0-3.4,1.5-3.4,3.9v3.6c0,2.5,1.2,3.8,3.4,3.8
		C286.3,727,287.9,725.7,287.9,723.2z"/>
</g>
<g class="st1">
	<path class="st2" d="M320.8,714v1.5c0,4.4-2.6,7.3-7.6,7.3h-3.5v7c0,0.3-0.2,0.4-0.5,0.4H306c-0.3,0-0.4-0.2-0.4-0.4v-22.6
		c0-0.2,0.2-0.4,0.4-0.4h7.1C318.3,706.7,320.8,709.7,320.8,714z M309.7,710.4v8.6h3.1c2.9,0,3.9-1.3,3.9-3.8v-0.9
		c0-2.5-1-3.8-3.9-3.8L309.7,710.4L309.7,710.4z"/>
</g>
<g class="st1">
	<path class="st2" d="M334.3,712.8v2.8c0,0.4-0.1,0.5-0.5,0.5h-0.4c-2.6,0-4.1,1.3-4.8,3.3v10.4c0,0.3-0.2,0.4-0.4,0.4H325
		c-0.2,0-0.4-0.1-0.4-0.4V713c0-0.3,0.2-0.4,0.4-0.4h2.9c0.3,0,0.4,0.2,0.4,0.4v2.5c0.9-1.6,2.6-3.2,5.3-3.2
		C334.3,712.3,334.3,712.4,334.3,712.8z"/>
</g>
<g class="st1">
	<path class="st2" d="M351.6,719.3v4.2c0,4.2-2.4,7.1-7.5,7.1s-7.5-2.9-7.5-7v-4.2c0-4.2,2.4-7.2,7.5-7.2
		C349.2,712.2,351.6,715.2,351.6,719.3z M340.6,719.5v3.9c0,2.4,1.2,3.7,3.5,3.7c2.4,0,3.6-1.3,3.6-3.7v-3.9c0-2.4-1.2-3.8-3.6-3.8
		C341.8,715.6,340.6,717.1,340.6,719.5z"/>
	<path class="st2" d="M370.6,731.4c0,3-2.2,5.5-8.3,5.5c-5.5,0-7.6-1.9-7.6-4.7c0-1.5,0.9-2.9,2.7-3.7c-0.8-0.6-1.2-1.6-1.2-2.3
		c0-1.1,0.6-2,1.8-2.6c-1.8-1.1-2.8-2.8-2.8-5c0-3.5,2.2-6.1,6.9-6.1h7.9c0.2,0,0.4,0.2,0.4,0.4v2.2c0,0.3-0.2,0.4-0.4,0.4h-2.8
		c0.9,0.8,1.6,2,1.6,3.6c0,3-2.1,5.4-6.6,5.4h-1.1c-1.1,0-1.5,0.4-1.5,1.1c0,0.5,0.5,1,1.5,1h3.6
		C368.9,726.7,370.6,728.7,370.6,731.4z M366.8,731.7c0-1-0.6-2-2.7-2h-3.2c-1.9,0-2.6,1-2.6,2c0,1.5,1.2,2.4,4.2,2.4
		C365.5,734.2,366.8,733.1,366.8,731.7z M358.9,718.6c0,1.9,1.1,3.2,3.3,3.2c2,0,3.2-1.2,3.2-3.2c0-1.9-1.1-3.2-3.2-3.2
		C360,715.5,358.9,716.6,358.9,718.6z"/>
</g>
<g class="st1">
	<path class="st2" d="M383.7,712.8v2.8c0,0.4-0.1,0.5-0.5,0.5h-0.4c-2.6,0-4.1,1.3-4.8,3.3v10.4c0,0.3-0.2,0.4-0.4,0.4h-3.2
		c-0.2,0-0.4-0.1-0.4-0.4V713c0-0.3,0.2-0.4,0.4-0.4h2.9c0.3,0,0.4,0.2,0.4,0.4v2.5c0.9-1.6,2.6-3.2,5.3-3.2
		C383.6,712.3,383.7,712.4,383.7,712.8z"/>
</g>
<g class="st1">
	<path class="st2" d="M399.9,718v11.7c0,0.3-0.2,0.4-0.4,0.4h-2.8c-0.3,0-0.4-0.2-0.4-0.4v-2.1c-1.1,1.8-2.9,2.9-5.1,2.9
		c-3.3,0-5.4-2.2-5.4-5.3c0-3.2,2.1-5.1,6.7-5.4c1.2-0.1,2.4-0.1,3.6,0v-1.6c0-2-1.1-2.8-2.9-2.8s-2.5,0.7-2.9,1.9
		c-0.1,0.4-0.3,0.4-0.6,0.3l-2.8-0.7c-0.3-0.1-0.4-0.3-0.3-0.5c0.5-2.5,2.8-4.2,6.8-4.2C397.4,712.2,399.9,714.1,399.9,718z
		 M396,724.5v-2.2c-1.1,0-2.2,0-3.3,0.1c-2.1,0.2-3.3,0.9-3.3,2.6c0,1.4,1,2.4,2.7,2.4C393.9,727.3,395.3,726.3,396,724.5z"/>
	<path class="st2" d="M413.3,712.2c2.3,0,3.7,1.4,4.4,3.2c1.3-1.9,3-3.2,5.1-3.2c3,0,4.8,2.3,4.8,5.8v11.8c0,0.3-0.2,0.4-0.5,0.4
		h-2.9c-0.3,0-0.5-0.2-0.5-0.4v-11c0-1.9-0.8-2.9-2.3-2.9c-1.4,0-2.6,1.1-3.3,2.9v11c0,0.3-0.2,0.4-0.4,0.4h-3.1
		c-0.3,0-0.4-0.2-0.4-0.4v-11c0-1.9-0.8-2.9-2.2-2.9c-1.5,0-2.7,1.3-3.3,3v10.9c0,0.3-0.1,0.4-0.4,0.4H405c-0.3,0-0.4-0.2-0.4-0.4
		V713c0-0.2,0.1-0.4,0.4-0.4h3c0.3,0,0.4,0.2,0.4,0.4v2.1C409.5,713.6,411.1,712.2,413.3,712.2z"/>
	<path class="st2" d="M441,712.2c2.3,0,3.7,1.4,4.4,3.2c1.3-1.9,3-3.2,5.1-3.2c3,0,4.8,2.3,4.8,5.8v11.8c0,0.3-0.2,0.4-0.5,0.4h-2.9
		c-0.3,0-0.5-0.2-0.5-0.4v-11c0-1.9-0.8-2.9-2.3-2.9c-1.4,0-2.6,1.1-3.3,2.9v11c0,0.3-0.2,0.4-0.4,0.4h-3.1c-0.3,0-0.4-0.2-0.4-0.4
		v-11c0-1.9-0.8-2.9-2.2-2.9c-1.5,0-2.7,1.3-3.3,3v10.9c0,0.3-0.1,0.4-0.4,0.4h-3.1c-0.3,0-0.4-0.2-0.4-0.4V713
		c0-0.2,0.1-0.4,0.4-0.4h3c0.3,0,0.4,0.2,0.4,0.4v2.1C437.2,713.6,438.8,712.2,441,712.2z"/>
	<path class="st2" d="M464,706.4v3c0,0.4-0.2,0.6-0.6,0.6h-2.8c-0.4,0-0.6-0.2-0.6-0.6v-3c0-0.4,0.2-0.6,0.6-0.6h2.8
		C463.9,705.8,464,706,464,706.4z M464,713v16.8c0,0.3-0.2,0.4-0.4,0.4h-3c-0.3,0-0.5-0.2-0.5-0.4V713c0-0.3,0.2-0.4,0.5-0.4h3
		C463.9,712.5,464,712.7,464,713z"/>
	<path class="st2" d="M472.9,718.8v10.9c0,0.3-0.2,0.4-0.4,0.4h-3c-0.3,0-0.5-0.2-0.5-0.4v-16.8c0-0.2,0.1-0.4,0.4-0.4h3
		c0.3,0,0.4,0.2,0.4,0.4v2.1c1.1-1.6,2.9-2.9,5.3-2.9c3.4,0,5.2,2.4,5.2,6v11.6c0,0.3-0.2,0.4-0.4,0.4h-3c-0.3,0-0.5-0.2-0.5-0.4
		v-10.9c0-1.9-0.9-3.1-2.7-3.1C474.9,715.8,473.5,717,472.9,718.8z"/>
	<path class="st2" d="M502.7,731.4c0,3-2.2,5.5-8.3,5.5c-5.5,0-7.6-1.9-7.6-4.7c0-1.5,0.9-2.9,2.7-3.7c-0.8-0.6-1.2-1.6-1.2-2.3
		c0-1.1,0.6-2,1.8-2.6c-1.8-1.1-2.8-2.8-2.8-5c0-3.5,2.2-6.1,6.9-6.1h7.9c0.2,0,0.4,0.2,0.4,0.4v2.2c0,0.3-0.2,0.4-0.4,0.4h-2.8
		c0.9,0.8,1.6,2,1.6,3.6c0,3-2.1,5.4-6.6,5.4h-1.1c-1.1,0-1.5,0.4-1.5,1.1c0,0.5,0.5,1,1.5,1h3.6C501,726.7,502.7,728.7,502.7,731.4
		z M498.9,731.7c0-1-0.6-2-2.7-2H493c-1.9,0-2.6,1-2.6,2c0,1.5,1.2,2.4,4.2,2.4C497.6,734.2,498.9,733.1,498.9,731.7z M491,718.6
		c0,1.9,1.1,3.2,3.3,3.2c2,0,3.2-1.2,3.2-3.2c0-1.9-1.1-3.2-3.2-3.2C492.1,715.5,491,716.6,491,718.6z"/>
</g>
<g class="st1">
	<path class="st2" d="M531,730.2h-3.5c-0.4,0-0.5-0.1-0.6-0.4l-4.5-8.4h-3.3v8.3c0,0.3-0.2,0.4-0.5,0.4h-3.2c-0.3,0-0.4-0.2-0.4-0.4
		v-22.5c0-0.3,0.1-0.4,0.4-0.4h7.7c5,0,7.5,2.8,7.5,6.9v0.8c0,3.1-1.4,5.4-4.2,6.4l4.9,8.8C531.5,729.8,531.4,730.2,531,730.2z
		 M519.1,717.9h3.7c2.7,0,3.7-1.2,3.7-3.4v-0.6c0-2.1-1.1-3.4-3.7-3.4h-3.7V717.9z"/>
</g>
<g class="st1">
	<path class="st2" d="M538.3,722.6v1c0,2.3,1.2,3.7,3.7,3.7c2.4,0,3.1-0.9,3.7-2.1c0.3-0.4,0.4-0.5,0.8-0.3l2,1
		c0.4,0.2,0.5,0.5,0.3,0.9c-1.1,2.3-3.5,3.7-6.9,3.7c-4.9,0-7.5-2.9-7.5-7v-4.4c0-4,2.5-7,7.4-7c4.7,0,7.1,3,7.1,6.9v2.7
		c0,0.5-0.2,0.8-0.8,0.8L538.3,722.6L538.3,722.6z M538.3,719v0.9h7.1V719c0-2.2-1.2-3.6-3.6-3.6S538.3,716.8,538.3,719z"/>
	<path class="st2" d="M566,716.3c0.1,0.3,0,0.5-0.3,0.6l-2.3,0.8c-0.4,0.1-0.5,0-0.6-0.3c-0.5-1.4-1.7-2.1-3.4-2.1
		c-1.8,0-2.8,0.7-2.8,1.9c0,1.1,0.7,1.5,4.1,2.5c4,1.1,5.6,2.7,5.6,5.5c0,3.3-2.7,5.4-6.8,5.4c-3.7,0-6.4-1.5-7.2-4.2
		c-0.1-0.4,0-0.5,0.4-0.7l2.1-1c0.4-0.1,0.6-0.1,0.7,0.4c0.5,1.5,2,2.4,3.9,2.4c2,0,3.1-0.8,3.1-2s-1-1.8-4.3-2.7
		c-3.8-1.1-5.4-2.6-5.4-5.3c0-3.2,2.6-5.3,6.5-5.3C562.6,712.2,565.1,713.7,566,716.3z"/>
	<path class="st2" d="M573.4,722.6v1c0,2.3,1.2,3.7,3.7,3.7c2.4,0,3.1-0.9,3.7-2.1c0.3-0.4,0.4-0.5,0.8-0.3l2,1
		c0.4,0.2,0.5,0.5,0.3,0.9c-1.1,2.3-3.5,3.7-6.9,3.7c-4.9,0-7.5-2.9-7.5-7v-4.4c0-4,2.5-7,7.4-7c4.7,0,7.1,3,7.1,6.9v2.7
		c0,0.5-0.2,0.8-0.8,0.8L573.4,722.6L573.4,722.6z M573.4,719v0.9h7.1V719c0-2.2-1.2-3.6-3.6-3.6S573.4,716.8,573.4,719z"/>
	<path class="st2" d="M601.6,718v11.7c0,0.3-0.2,0.4-0.4,0.4h-2.8c-0.3,0-0.4-0.2-0.4-0.4v-2.1c-1.1,1.8-2.9,2.9-5.1,2.9
		c-3.3,0-5.4-2.2-5.4-5.3c0-3.2,2.1-5.1,6.7-5.4c1.2-0.1,2.4-0.1,3.6,0v-1.6c0-2-1.1-2.8-2.9-2.8c-1.8,0-2.5,0.7-2.9,1.9
		c-0.1,0.4-0.3,0.4-0.6,0.3l-2.8-0.7c-0.3-0.1-0.4-0.3-0.3-0.5c0.5-2.5,2.8-4.2,6.8-4.2C599.2,712.2,601.6,714.1,601.6,718z
		 M597.8,724.5v-2.2c-1.1,0-2.2,0-3.3,0.1c-2.1,0.2-3.3,0.9-3.3,2.6c0,1.4,1,2.4,2.7,2.4C595.7,727.3,597.1,726.3,597.8,724.5z"/>
</g>
<g class="st1">
	<path class="st2" d="M616.1,712.8v2.8c0,0.4-0.1,0.5-0.5,0.5h-0.4c-2.6,0-4.1,1.3-4.8,3.3v10.4c0,0.3-0.2,0.4-0.4,0.4h-3.2
		c-0.2,0-0.4-0.1-0.4-0.4V713c0-0.3,0.2-0.4,0.4-0.4h2.9c0.3,0,0.4,0.2,0.4,0.4v2.5c0.9-1.6,2.6-3.2,5.3-3.2
		C616,712.3,616.1,712.4,616.1,712.8z"/>
</g>
<g class="st1">
	<path class="st2" d="M632.3,717.2c0,0.3,0,0.5-0.4,0.6l-2.4,0.7c-0.5,0.1-0.6,0.1-0.7-0.3c-0.4-1.1-0.9-2.5-3.2-2.5
		c-2.2,0-3.3,1.4-3.3,3.8v3.9c0,2.4,1.2,3.7,3.3,3.7s2.8-1,3.3-2.4c0.1-0.4,0.3-0.5,0.7-0.3l2.5,0.9c0.4,0.1,0.4,0.4,0.3,0.7
		c-0.5,2.5-2.9,4.7-7,4.7c-4.4,0-7-2.9-7-7v-4.3c0-4.1,2.6-7.1,7-7.1C629.2,712.2,631.8,714,632.3,717.2z"/>
	<path class="st2" d="M640.2,706.2v8.9c1.1-1.6,2.8-2.9,5.2-2.9c3.4,0,5.2,2.5,5.2,6v11.5c0,0.4-0.2,0.4-0.4,0.4h-3
		c-0.3,0-0.5-0.2-0.5-0.4v-10.8c0-1.9-0.9-3-2.7-3c-1.7,0-3.1,1.2-3.8,3v10.8c0,0.3-0.2,0.4-0.4,0.4h-3c-0.3,0-0.5-0.2-0.5-0.4
		v-23.5c0-0.3,0.2-0.4,0.5-0.4h3C640,705.8,640.2,705.9,640.2,706.2z"/>
</g>
<g class="st1">
	<path class="st2" d="M199.5,1037.4h-3.3c-0.3,0-0.4-0.1-0.5-0.4l-1.7-5.4h-8l-1.7,5.4c-0.1,0.3-0.3,0.4-0.6,0.4h-3.1
		c-0.3,0-0.4-0.2-0.3-0.5l7-22.5c0.1-0.3,0.3-0.4,0.6-0.4h4.1c0.4,0,0.5,0.1,0.6,0.4l7.1,22.5
		C199.9,1037.1,199.7,1037.4,199.5,1037.4z M192.8,1027.8l-0.9-2.8c-0.6-2.2-1.4-4.9-1.9-6.9h0c-0.4,2-1.2,4.7-1.9,6.9l-0.8,2.7h5.5
		V1027.8z"/>
	<path class="st2" d="M203.4,1043.8c-0.3,0-0.4-0.2-0.4-0.4v-23.2c0-0.3,0.2-0.4,0.4-0.4h3c0.3,0,0.4,0.2,0.4,0.4v1.8
		c0.7-1.2,2.5-2.6,5-2.6c3.8,0,6.2,2.7,6.2,6.8v4.7c0,4.1-2.4,6.8-6,6.8c-2.6,0-4.3-1.3-5-2.6v8.2c0,0.3-0.1,0.4-0.4,0.4
		L203.4,1043.8L203.4,1043.8z M214,1030.3v-3.6c0-2.5-1.2-3.8-3.4-3.8c-2,0-3.6,1.3-3.6,3.9v3.6c0,2.5,1.6,3.9,3.6,3.9
		C212.9,1034.2,214,1032.8,214,1030.3z"/>
	<path class="st2" d="M222.8,1043.8c-0.3,0-0.4-0.2-0.4-0.4v-23.2c0-0.3,0.2-0.4,0.4-0.4h3c0.3,0,0.4,0.2,0.4,0.4v1.8
		c0.7-1.2,2.5-2.6,5-2.6c3.8,0,6.2,2.7,6.2,6.8v4.7c0,4.1-2.4,6.8-6,6.8c-2.6,0-4.3-1.3-5-2.6v8.2c0,0.3-0.1,0.4-0.4,0.4
		L222.8,1043.8L222.8,1043.8z M233.4,1030.3v-3.6c0-2.5-1.2-3.8-3.4-3.8c-2,0-3.6,1.3-3.6,3.9v3.6c0,2.5,1.6,3.9,3.6,3.9
		C232.3,1034.2,233.4,1032.8,233.4,1030.3z"/>
	<path class="st2" d="M245.8,1013.4v23.5c0,0.3-0.2,0.4-0.4,0.4h-3c-0.3,0-0.5-0.2-0.5-0.4v-23.5c0-0.3,0.2-0.4,0.5-0.4h3
		C245.6,1013,245.8,1013.1,245.8,1013.4z"/>
	<path class="st2" d="M254.6,1013.6v3c0,0.4-0.2,0.6-0.6,0.6h-2.8c-0.4,0-0.6-0.2-0.6-0.6v-3c0-0.4,0.2-0.6,0.6-0.6h2.8
		C254.4,1013,254.6,1013.2,254.6,1013.6z M254.6,1020.2v16.8c0,0.3-0.2,0.4-0.4,0.4h-3c-0.3,0-0.5-0.2-0.5-0.4v-16.8
		c0-0.3,0.2-0.4,0.5-0.4h3C254.4,1019.7,254.6,1019.9,254.6,1020.2z"/>
	<path class="st2" d="M272.9,1024.4c0,0.3,0,0.5-0.4,0.6l-2.4,0.7c-0.5,0.1-0.6,0.1-0.7-0.3c-0.4-1.1-0.9-2.5-3.2-2.5
		c-2.2,0-3.3,1.4-3.3,3.8v3.9c0,2.4,1.2,3.7,3.3,3.7c2.1,0,2.8-1,3.3-2.4c0.1-0.4,0.3-0.5,0.7-0.3l2.5,0.9c0.4,0.1,0.4,0.4,0.3,0.7
		c-0.5,2.5-2.9,4.7-7,4.7c-4.4,0-7-2.9-7-7v-4.3c0-4.1,2.6-7.1,7-7.1C269.8,1019.4,272.4,1021.2,272.9,1024.4z"/>
</g>
<g class="st1">
	<path class="st2" d="M290,1025.2v11.7c0,0.3-0.2,0.4-0.4,0.4h-2.8c-0.3,0-0.4-0.2-0.4-0.4v-2.1c-1.1,1.8-2.9,2.9-5.1,2.9
		c-3.3,0-5.4-2.2-5.4-5.3c0-3.2,2.1-5.1,6.7-5.4c1.2-0.1,2.4-0.1,3.6,0v-1.6c0-2-1.1-2.8-2.9-2.8s-2.5,0.7-2.9,1.9
		c-0.1,0.4-0.3,0.4-0.6,0.3l-2.8-0.7c-0.3-0.1-0.4-0.3-0.3-0.5c0.5-2.5,2.8-4.2,6.8-4.2C287.5,1019.4,290,1021.3,290,1025.2z
		 M286.1,1031.7v-2.2c-1.1,0-2.2,0-3.3,0.1c-2.1,0.2-3.3,0.9-3.3,2.6c0,1.4,1,2.4,2.7,2.4C284.1,1034.5,285.4,1033.5,286.1,1031.7z"
		/>
</g>
<g class="st1">
	<path class="st2" d="M299.6,1015.8v4h3.5c0.3,0,0.4,0.2,0.4,0.5v2.3c0,0.3-0.2,0.4-0.4,0.4h-3.5v8.9c0,1.3,0.7,1.9,2.1,1.9h1.3
		c0.3,0,0.4,0.1,0.4,0.4v2.6c0,0.3-0.2,0.4-0.4,0.4h-2c-3.6,0-5.4-1.9-5.4-4.9v-9.4h-2.2c-0.3,0-0.4-0.1-0.4-0.4v-2.3
		c0-0.3,0.2-0.5,0.4-0.5h2.2v-4c0-0.3,0.2-0.4,0.4-0.4h2.9C299.5,1015.4,299.6,1015.5,299.6,1015.8z"/>
	<path class="st2" d="M311.3,1013.6v3c0,0.4-0.2,0.6-0.6,0.6h-2.8c-0.4,0-0.6-0.2-0.6-0.6v-3c0-0.4,0.2-0.6,0.6-0.6h2.8
		C311.1,1013,311.3,1013.2,311.3,1013.6z M311.3,1020.2v16.8c0,0.3-0.2,0.4-0.4,0.4h-3c-0.3,0-0.5-0.2-0.5-0.4v-16.8
		c0-0.3,0.2-0.4,0.5-0.4h3C311.1,1019.7,311.3,1019.9,311.3,1020.2z"/>
	<path class="st2" d="M330.6,1026.5v4.2c0,4.2-2.4,7.1-7.5,7.1s-7.5-2.9-7.5-7v-4.2c0-4.2,2.4-7.2,7.5-7.2
		C328.2,1019.4,330.6,1022.4,330.6,1026.5z M319.6,1026.7v3.9c0,2.4,1.2,3.7,3.5,3.7c2.4,0,3.6-1.3,3.6-3.7v-3.9
		c0-2.4-1.2-3.8-3.6-3.8C320.8,1022.8,319.6,1024.3,319.6,1026.7z"/>
	<path class="st2" d="M338.9,1026v10.9c0,0.3-0.2,0.4-0.4,0.4h-3c-0.3,0-0.5-0.2-0.5-0.4v-16.8c0-0.2,0.1-0.4,0.4-0.4h3
		c0.3,0,0.4,0.2,0.4,0.4v2.1c1.1-1.6,2.9-2.9,5.3-2.9c3.4,0,5.2,2.4,5.2,6v11.6c0,0.3-0.2,0.4-0.4,0.4h-3c-0.3,0-0.5-0.2-0.5-0.4
		V1026c0-1.9-0.9-3.1-2.7-3.1C341,1023,339.6,1024.2,338.9,1026z"/>
	<path class="st2" d="M379.9,1022.5v6.2c0,5.1-3,8.7-9.2,8.7h-7.3c-0.3,0-0.4-0.2-0.4-0.4v-22.5c0-0.3,0.1-0.4,0.4-0.4h7.3
		C376.8,1013.9,379.9,1017.6,379.9,1022.5z M367,1017.8v15.8h3.6c3.6,0,5.2-1.8,5.2-5v-5.9c0-3.1-1.5-5-5.2-5H367V1017.8z"/>
	<path class="st2" d="M387.7,1029.8v1c0,2.3,1.2,3.7,3.7,3.7c2.4,0,3.1-0.9,3.7-2.1c0.3-0.4,0.4-0.5,0.8-0.3l2,1
		c0.4,0.2,0.5,0.5,0.3,0.9c-1.1,2.3-3.5,3.7-6.9,3.7c-4.9,0-7.5-2.9-7.5-7v-4.4c0-4,2.5-7,7.4-7c4.7,0,7.1,3,7.1,6.9v2.7
		c0,0.5-0.2,0.8-0.8,0.8h-9.8V1029.8z M387.7,1026.2v0.9h7.1v-0.9c0-2.2-1.2-3.6-3.6-3.6C389,1022.6,387.7,1024,387.7,1026.2z"/>
	<path class="st2" d="M415.5,1023.5c0.1,0.3,0,0.5-0.3,0.6l-2.3,0.8c-0.4,0.1-0.5,0-0.6-0.3c-0.5-1.4-1.7-2.1-3.4-2.1
		c-1.8,0-2.8,0.7-2.8,1.9c0,1.1,0.7,1.5,4.1,2.5c4,1.1,5.6,2.7,5.6,5.5c0,3.3-2.7,5.4-6.8,5.4c-3.7,0-6.4-1.5-7.2-4.2
		c-0.1-0.4,0-0.5,0.4-0.7l2.1-1c0.4-0.1,0.6-0.1,0.7,0.4c0.5,1.5,2,2.4,3.9,2.4c2,0,3.1-0.8,3.1-2s-1-1.8-4.3-2.7
		c-3.8-1.1-5.4-2.6-5.4-5.3c0-3.2,2.6-5.3,6.5-5.3C412.1,1019.4,414.6,1020.9,415.5,1023.5z"/>
	<path class="st2" d="M423.6,1013.6v3c0,0.4-0.2,0.6-0.6,0.6h-2.8c-0.4,0-0.6-0.2-0.6-0.6v-3c0-0.4,0.2-0.6,0.6-0.6h2.8
		C423.4,1013,423.6,1013.2,423.6,1013.6z M423.6,1020.2v16.8c0,0.3-0.2,0.4-0.4,0.4h-3c-0.3,0-0.5-0.2-0.5-0.4v-16.8
		c0-0.3,0.2-0.4,0.5-0.4h3C423.5,1019.7,423.6,1019.9,423.6,1020.2z"/>
	<path class="st2" d="M443.1,1038.6c0,3-2.2,5.5-8.3,5.5c-5.5,0-7.6-1.9-7.6-4.7c0-1.5,0.9-2.9,2.7-3.7c-0.8-0.6-1.2-1.6-1.2-2.3
		c0-1.1,0.6-2,1.8-2.6c-1.8-1.1-2.8-2.8-2.8-5c0-3.5,2.2-6.1,6.9-6.1h7.9c0.2,0,0.4,0.2,0.4,0.4v2.2c0,0.3-0.2,0.4-0.4,0.4h-2.8
		c0.9,0.8,1.6,2,1.6,3.6c0,3-2.1,5.4-6.6,5.4h-1.1c-1.1,0-1.5,0.4-1.5,1.1c0,0.5,0.5,1,1.5,1h3.6
		C441.4,1033.9,443.1,1035.9,443.1,1038.6z M439.4,1038.9c0-1-0.6-2-2.7-2h-3.2c-1.9,0-2.6,1-2.6,2c0,1.5,1.2,2.4,4.2,2.4
		C438,1041.4,439.4,1040.3,439.4,1038.9z M431.4,1025.8c0,1.9,1.1,3.2,3.3,3.2c2,0,3.2-1.2,3.2-3.2c0-1.9-1.1-3.2-3.2-3.2
		C432.5,1022.7,431.4,1023.8,431.4,1025.8z"/>
	<path class="st2" d="M450.5,1026v10.9c0,0.3-0.2,0.4-0.4,0.4h-3c-0.3,0-0.5-0.2-0.5-0.4v-16.8c0-0.2,0.1-0.4,0.4-0.4h3
		c0.3,0,0.4,0.2,0.4,0.4v2.1c1.1-1.6,2.9-2.9,5.3-2.9c3.4,0,5.2,2.4,5.2,6v11.6c0,0.3-0.2,0.4-0.4,0.4h-3c-0.3,0-0.5-0.2-0.5-0.4
		V1026c0-1.9-0.9-3.1-2.7-3.1C452.6,1023,451.2,1024.2,450.5,1026z"/>
</g>
<g class="st1">
	<path class="st2" d="M490.6,1037.4h-3.5c-0.4,0-0.5-0.1-0.6-0.4l-4.5-8.4h-3.3v8.3c0,0.3-0.2,0.4-0.5,0.4H475
		c-0.3,0-0.4-0.2-0.4-0.4v-22.5c0-0.3,0.1-0.4,0.4-0.4h7.7c5,0,7.5,2.8,7.5,6.9v0.8c0,3.1-1.4,5.4-4.2,6.4l4.9,8.8
		C491.1,1037,491,1037.4,490.6,1037.4z M478.6,1025.1h3.7c2.7,0,3.7-1.2,3.7-3.4v-0.6c0-2.1-1.1-3.4-3.7-3.4h-3.7V1025.1z"/>
</g>
<g class="st1">
	<path class="st2" d="M497.8,1029.8v1c0,2.3,1.2,3.7,3.7,3.7c2.4,0,3.1-0.9,3.7-2.1c0.3-0.4,0.4-0.5,0.8-0.3l2,1
		c0.4,0.2,0.5,0.5,0.3,0.9c-1.1,2.3-3.5,3.7-6.9,3.7c-4.9,0-7.5-2.9-7.5-7v-4.4c0-4,2.5-7,7.4-7c4.7,0,7.1,3,7.1,6.9v2.7
		c0,0.5-0.2,0.8-0.8,0.8h-9.8V1029.8z M497.8,1026.2v0.9h7.1v-0.9c0-2.2-1.2-3.6-3.6-3.6S497.8,1024,497.8,1026.2z"/>
	<path class="st2" d="M525.5,1023.5c0.1,0.3,0,0.5-0.3,0.6l-2.3,0.8c-0.4,0.1-0.5,0-0.6-0.3c-0.5-1.4-1.7-2.1-3.4-2.1
		c-1.8,0-2.8,0.7-2.8,1.9c0,1.1,0.7,1.5,4.1,2.5c4,1.1,5.6,2.7,5.6,5.5c0,3.3-2.7,5.4-6.8,5.4c-3.7,0-6.4-1.5-7.2-4.2
		c-0.1-0.4,0-0.5,0.4-0.7l2.1-1c0.4-0.1,0.6-0.1,0.7,0.4c0.5,1.5,2,2.4,3.9,2.4c2,0,3.1-0.8,3.1-2s-1-1.8-4.3-2.7
		c-3.8-1.1-5.4-2.6-5.4-5.3c0-3.2,2.6-5.3,6.5-5.3C522.2,1019.4,524.7,1020.9,525.5,1023.5z"/>
	<path class="st2" d="M533,1029.8v1c0,2.3,1.2,3.7,3.7,3.7c2.4,0,3.1-0.9,3.7-2.1c0.3-0.4,0.4-0.5,0.8-0.3l2,1
		c0.4,0.2,0.5,0.5,0.3,0.9c-1.1,2.3-3.5,3.7-6.9,3.7c-4.9,0-7.5-2.9-7.5-7v-4.4c0-4,2.5-7,7.4-7c4.7,0,7.1,3,7.1,6.9v2.7
		c0,0.5-0.2,0.8-0.8,0.8H533V1029.8z M533,1026.2v0.9h7.1v-0.9c0-2.2-1.2-3.6-3.6-3.6C534.2,1022.6,533,1024,533,1026.2z"/>
	<path class="st2" d="M561.2,1025.2v11.7c0,0.3-0.2,0.4-0.4,0.4H558c-0.3,0-0.4-0.2-0.4-0.4v-2.1c-1.1,1.8-2.9,2.9-5.1,2.9
		c-3.3,0-5.4-2.2-5.4-5.3c0-3.2,2.1-5.1,6.7-5.4c1.2-0.1,2.4-0.1,3.6,0v-1.6c0-2-1.1-2.8-2.9-2.8s-2.5,0.7-2.9,1.9
		c-0.1,0.4-0.3,0.4-0.6,0.3l-2.8-0.7c-0.3-0.1-0.4-0.3-0.3-0.5c0.5-2.5,2.8-4.2,6.8-4.2C558.7,1019.4,561.2,1021.3,561.2,1025.2z
		 M557.3,1031.7v-2.2c-1.1,0-2.2,0-3.3,0.1c-2.1,0.2-3.3,0.9-3.3,2.6c0,1.4,1,2.4,2.7,2.4C555.3,1034.5,556.6,1033.5,557.3,1031.7z"
		/>
</g>
<g class="st1">
	<path class="st2" d="M575.6,1020v2.8c0,0.4-0.1,0.5-0.5,0.5h-0.4c-2.6,0-4.1,1.3-4.8,3.3v10.4c0,0.3-0.2,0.4-0.4,0.4h-3.2
		c-0.2,0-0.4-0.1-0.4-0.4v-16.8c0-0.3,0.2-0.4,0.4-0.4h2.9c0.3,0,0.4,0.2,0.4,0.4v2.5c0.9-1.6,2.6-3.2,5.3-3.2
		C575.5,1019.5,575.6,1019.6,575.6,1020z"/>
</g>
<g class="st1">
	<path class="st2" d="M591.9,1024.4c0,0.3,0,0.5-0.4,0.6l-2.4,0.7c-0.5,0.1-0.6,0.1-0.7-0.3c-0.4-1.1-0.9-2.5-3.2-2.5
		c-2.2,0-3.3,1.4-3.3,3.8v3.9c0,2.4,1.2,3.7,3.3,3.7s2.8-1,3.3-2.4c0.1-0.4,0.3-0.5,0.7-0.3l2.5,0.9c0.4,0.1,0.4,0.4,0.3,0.7
		c-0.5,2.5-2.9,4.7-7,4.7c-4.4,0-7-2.9-7-7v-4.3c0-4.1,2.6-7.1,7-7.1C588.8,1019.4,591.4,1021.2,591.9,1024.4z"/>
	<path class="st2" d="M599.7,1013.4v8.9c1.1-1.6,2.8-2.9,5.2-2.9c3.4,0,5.2,2.5,5.2,6v11.5c0,0.4-0.2,0.4-0.4,0.4h-3
		c-0.3,0-0.5-0.2-0.5-0.4v-10.8c0-1.9-0.9-3-2.7-3c-1.7,0-3.1,1.2-3.8,3v10.8c0,0.3-0.2,0.4-0.4,0.4h-3c-0.3,0-0.5-0.2-0.5-0.4
		v-23.5c0-0.3,0.2-0.4,0.5-0.4h3C599.6,1013,599.7,1013.1,599.7,1013.4z"/>
</g>
<path class="st3" d="M417.8,200c3.4,1.2,6.5,3.2,9,5.9c3.8,3.9,6,9.1,6.1,14.6c0.1,11.3,0.1,22.5,0,33.8
	c-0.2,6.9-4.8,12.9-11.4,14.9c-0.6,0-1,0.5-0.9,1.1v0.1c0,9.1,0.1,18.2,0,27.3c-0.1,7.2-3.5,12.3-10.1,15.4
	c-1.8,0.8-3.7,1.2-5.6,1.2c-5.8,0-11.7-0.1-17.5,0c-7.7-0.1-14.3-5.6-15.7-13.1c-0.2-1.2-0.3-2.4-0.3-3.6c0-9.1,0-18.1,0-27.2
	c0.1-0.5-0.3-1.1-0.8-1.2l0,0c-6.8-2.1-11.4-8.3-11.4-15.4c0-10.9,0-21.7,0-32.6c0-9.3,5.7-17.6,14.3-21c0.3-0.1,0.5-0.3,0.8-0.4
	c-8.9-12-6.3-29,5.8-37.9s29-6.3,37.9,5.8C424.8,177.5,424.8,190.5,417.8,200L417.8,200z M386.1,198c2.9,2.2,6.4,3.3,9.9,3.1
	c3.6,0.1,7.1-1,9.9-3.1c6.9-4.8,9.3-13.9,5.6-21.5c-1.2-2.7-3.2-5-5.6-6.6c-0.1,0-0.2-0.1-0.3-0.1c-2.8-2-6.1-3-9.6-3
	c-3.6-0.1-7.2,1-10.1,3.2c-1.4,0.9-2.5,2-3.5,3.3c-0.8,0.9-1.5,2-1.9,3.2c-1.6,3.1-2.1,6.5-1.5,9.9c0.5,3.8,2.3,7.3,5.1,9.9
	C384.6,197,385.3,197.5,386.1,198z M396,211.1c-1.8-0.1-3.6-0.3-5.4-0.6c-1.5-0.4-3-0.8-4.5-1.2c-0.6-0.4-1.2-0.6-1.8-0.7
	c-1,0-2,0-3,0c-1.9,0-3.7,0.6-5.3,1.5c-2.5,1.2-4.5,3.3-5.7,5.8c-0.1,0.2-0.2,0.4-0.3,0.6c-1.3,3-1.1,6.1-0.9,9.3
	c-0.1,3.2-0.1,6.5,0,9.7c-0.1,0.7-0.1,1.3-0.1,2c0,2.7-0.1,5.4,0.1,8c-0.1,3-0.1,5.9,0,8.9c0,0.3,0,0.6,0.2,0.9
	c0.8,3.3,3.9,5.4,7.2,4.9c1.3,0,2.7,0.1,4,0c0.7,0,0.8,0.2,0.8,0.9c0,1.4,0,2.7,0,4.1v29.5c-0.1,1.5-0.1,2.9,0,4.4
	c0.5,3.3,3.4,5.6,6.7,5.5c5.4,0,10.7,0,16.1,0c0.6,0,1.3-0.1,1.8-0.3c2.9-0.7,4.9-3.3,4.8-6.2c0-11.9,0-23.7,0-35.5
	c0-0.7-0.3-1.7,0.2-2.2s1.4-0.1,2.1-0.1c1.6,0.1,3.3,0,4.9-0.2c3.1-0.7,5.3-3.5,5.1-6.7c0-5.5,0-11,0-16.6c0-5.1,0-10.3,0-15.4
	c0.1-4.1-1.8-7.9-5.1-10.3c-3.6-2.8-8.3-3.5-12.5-1.8C402.4,210.5,399.2,211.1,396,211.1L396,211.1z"/>
<g>
	<path class="st3" d="M339.2,1181.6v-73.4c-0.1-4.7,1.8-9.3,5.2-12.5c3-3.1,7.2-4.8,11.5-4.8c26.7,0,53.4,0,80.1,0
		c8.7,0.1,15.9,6.9,16.6,15.5c0,0.6,0.1,1.2,0.1,1.8v147c0.1,7.1-4.1,13.5-10.7,16.1c-1.8,0.8-3.8,1.2-5.8,1.2
		c-26.8,0-53.5,0-80.3,0c-7.7-0.1-14.3-5.3-16.3-12.8c-0.4-1.5-0.6-3.1-0.5-4.6C339.2,1230.6,339.2,1206.1,339.2,1181.6z
		 M441.4,1170.3v-56.8c0-1.8,0-3.6,0-5.5c0.1-3.1-2.3-5.7-5.4-5.8c-2-0.1-4,0-6,0c-0.3,0-0.6,0-0.9,0h-72.2c-0.4,0-0.8,0-1.1,0
		c-2.8,0.2-5,2.4-5.1,5.2c-0.1,2.1,0,4.2,0,6.2v136.1c0,1.9,0,3.8,0,5.7c0,2.8,2,5.1,4.8,5.5c2.2,0.2,4.4,0.2,6.6,0.1h56.8
		c5.7,0,11.3,0.1,17,0c2.9,0,5.4-2.2,5.6-5.2c0.1-5.9,0-11.7,0-17.6v-11.4c0-3.8,0-7.5,0-11.3c0-7.5,0-15,0-22.6L441.4,1170.3
		L441.4,1170.3z"/>
	<path class="st3" d="M407.2,1249.8h-22.6c-1,0-1.9-0.1-2.9-0.3c-1.9-0.8-3-2.8-2.7-4.9c0-0.5,0-1,0-1.6c0-2.8,1.7-4.6,4.4-4.7
		c8.4-0.1,16.8-0.1,25.2,0c2.8,0,4.4,1.8,4.4,4.7v2.3c0.1,2.4-1.8,4.3-4.2,4.4h-0.1L407.2,1249.8z"/>
</g>
<g>
	<path class="st3" d="M395.9,928.7c-23.4,0-46.8,0-70.2,0c-4.9,0.1-9.7-1.5-13.6-4.5c-5.2-3.8-8.6-9.6-9.3-16
		c-0.1-1-0.1-1.9-0.1-2.9c0-4.5,0-9.1,0-13.6c-0.1-2.6,1.8-4.8,4.4-4.9c0.2,0,0.3,0,0.5,0c4,0,8.1,0,12.1,0c1.6,0,1.6,0,1.6-1.6
		v-77.5c-0.1-4,1.2-7.9,3.5-11.1c3.7-4.9,8.5-7.8,14.7-7.8c21.9-0.1,43.8,0,65.7,0c15.8,0,31.6,0,47.4,0c5.3,0,10.4,2.5,13.7,6.8
		c2.9,3.5,4.4,7.9,4.3,12.4c0,25.8,0,51.7,0,77.5c0,1.3-0.2,1.2,1.2,1.2h12.5c2-0.1,3.8,1,4.6,2.8c0.3,0.5,0.4,1.1,0.4,1.7
		c0,5,0,9.9,0,14.9c-0.1,5.2-2,10.1-5.3,14.1c-2.6,3.2-6,5.6-9.9,7c-2.3,0.9-4.8,1.4-7.3,1.4L395.9,928.7z M405.4,919.4
		c3.1,0.1,6.1,0.1,9.2,0c0.3,0,0.6,0,0.9,0h44.8c0.3,0,0.6,0,0.9,0c1.4,0,2.8,0,4.2,0c4.2,0.1,8.3-1.7,11-4.9
		c2.1-2.3,3.3-5.3,3.4-8.5c0-3.1,0-6.1,0-9.2c0-0.5,0-0.8-0.7-0.8c-6,0-12,0-18,0h-0.7H424c-0.1,0-0.3,0-0.4,0
		c-0.3-0.1-0.6,0.1-0.7,0.5c-0.6,1.5-1.5,2.9-2.5,4.2c-1.6,1.8-3.7,3.1-6,4c-1.1,0.3-2.3,0.6-3.5,0.7c-1.9,0.2-3.8,0-5.7,0.1
		c-6.9,0-13.8,0-20.8,0c-2.4,0.1-4.7-0.1-7-0.7c-4-1.4-7.1-4.4-8.7-8.3c-0.1-0.3-0.4-0.3-0.7-0.3h-9.6h-37.3c-2.9,0-5.7,0-8.6,0
		c-0.5,0-0.7,0.2-0.7,0.7c0,1.3,0,2.6,0,3.9c-0.2,1.4-0.2,2.8-0.1,4.2c-0.1,1.8,0.2,3.5,0.9,5.2c1.3,4,4.4,7.1,8.4,8.5
		c0.2,0.1,0.3,0.1,0.5,0.2c2.9,0.9,5.9,0.7,8.9,0.6s6.3,0.1,9.4,0c3.1,0.1,6.1,0.1,9.2,0c3.1,0.1,6.3,0.1,9.4,0s6.3,0.1,9.4,0
		s6.2,0.1,9.4,0c3.1,0.1,6.1,0.1,9.2,0c3.1,0.1,6.3,0.1,9.4,0C399.1,919.5,402.2,919.5,405.4,919.4z M433.4,798.2
		c-3.1-0.1-6.2-0.1-9.4,0c-3.1-0.1-6.1-0.1-9.2,0c-3.1-0.1-6.2-0.1-9.4,0c-3.1-0.1-6.3-0.1-9.4,0c-3.1-0.1-6.3-0.1-9.4,0
		c-3.1-0.1-6.1-0.1-9.2,0c-3.1-0.1-6.3-0.1-9.4,0c-3.1-0.1-6.3-0.1-9.4,0c-3.1-0.1-6.3-0.1-9.4,0c-3.1-0.1-6.2-0.1-9.2,0l-1.1,0.1
		c-4.7,0.5-8.3,4.5-8.3,9.2v74.7c0,1.3,0,2.7,0,4c0,0.5,0.2,0.6,0.6,0.6c2.9,0,5.7,0,8.6,0h18.8h16c1.8,0,2.5,0.6,2.9,2.3
		c0.9,3.6,3.8,6.3,7.5,6.9c3.6,0.4,7.2,0.1,10.9,0.2h9.4c3.3,0,6.4-1.9,8-4.7c0.6-1,1-2.1,1.2-3.3c0.6-0.9,1.6-1.4,2.7-1.3
		c2.2,0,4.4,0,6.6,0h28c2.9,0,5.8,0,8.8,0c0.5,0,0.7-0.2,0.6-0.6c0-1.3,0-2.7,0-4v-74.6c0-5.1-4.1-9.3-9.3-9.3h-0.1
		c-3.1-0.1-6.2-0.1-9.4,0C439.5,798.1,436.4,798.1,433.4,798.2L433.4,798.2z"/>
	<path class="st3" d="M407.9,826c-0.6-0.9-0.5-2,0.2-2.8c1.2-1.2,2.3-2.4,3.5-3.5c0.9-0.7,2.1-0.7,3-0.1c1.1,1.1,2.2,2.3,3.3,3.4
		c1,1.1,2.1,2.1,3.2,3.1c0.8,1,1.7,1.9,2.7,2.7c2.2,2.3,4.5,4.6,6.8,6.8c0.7,0.8,1.5,1.6,2.4,2.4c0.4,0.4,0.7,0.9,1,1.4
		c0.4,1.2-0.3,2-1,2.8c-0.9,0.7-1.7,1.5-2.4,2.4c-2.4,2.3-4.7,4.6-7,7c-0.9,0.7-1.7,1.5-2.4,2.4l-6.9,6.8c-1.2,0.7-2.7,0.3-3.5-0.8
		c-0.8-1-1.8-1.8-2.6-2.7c-0.9-0.7-1.1-2-0.5-3c1.9-1.9,3.8-3.8,5.6-5.7c0.5-0.4,0.9-0.9,1.3-1.4l2.2-2.3c0.1,0,0.2,0,0.2-0.1
		l4.5-4.5c0.2-0.2,0.2-0.4,0-0.7c-1.5-1.4-2.9-3-4.5-4.4l-2.4-2.4c-0.1-0.3-0.4-0.5-0.6-0.7C412.1,830.1,410,828.1,407.9,826z"/>
	<path class="st3" d="M358.6,842.1c-1.3-1.7-1.3-2.3,0-3.9c0.9-0.7,1.7-1.6,2.4-2.5l6.9-6.9c0.9-0.7,1.7-1.5,2.4-2.3
		c2.1-2.1,4.2-4.1,6.2-6.2c0.9-1.1,2.6-1.3,3.7-0.4c0.2,0.1,0.3,0.3,0.4,0.4c0.8,1,1.8,1.8,2.6,2.7c1.3,1.3,1.3,2.4,0,3.8
		l-12.7,12.7c-0.8,0.8-0.8,0.8,0,1.7l12.5,12.5c1.5,1.5,1.5,2.5,0,4.1l-2.6,2.7c-1.3,1.3-2.5,1.3-3.8,0l-14.7-14.7
		c-0.2-0.2-0.5-0.4-0.7-0.6C360.5,843.8,359.6,842.9,358.6,842.1z"/>
</g>
<g>
	<path class="st3" d="M341.1,545.4v-60.2c0.3-5.7,4-10.6,9.4-12.4c1.6-0.4,3.2-0.7,4.8-0.7c19.5,0,38.9,0,58.4,0
		c3.3-0.1,6.6,1.3,8.9,3.6c8.3,8.2,16.5,16.4,24.7,24.7c2.5,2.4,3.8,5.8,3.8,9.3v95.7c-0.2,6.5-4.9,12-11.4,13.1
		c-0.7,0.1-1.4,0.1-2.1,0.1c-27.6,0-55.3,0-82.9,0c-6.2-0.1-11.6-4.3-13.2-10.4c-0.2-0.9-0.4-1.9-0.4-2.9
		C341.1,585.5,341.1,565.5,341.1,545.4z M432.7,609.6c1.6,0,3.2,0.1,4.8,0c2.3-0.1,4.2-1.9,4.4-4.2c0.1-1.7,0-3.3,0-5
		c0.1-3.1,0.1-6.1,0-9.2c0.1-3,0.1-6,0-9c0.1-3.1,0.1-6.1,0-9.2c0.1-3.1,0.1-6.2,0-9.2c0.1-3.1,0.1-6.1,0-9.2c0.1-3,0.1-6,0-9
		c0.1-3.1,0.1-6.1,0-9.2c0.1-3,0.1-6,0-9l0.1-8.5c0-0.6-0.3-0.7-0.8-0.7c-2.8,0-5.6,0-8.4,0c-0.2-0.1-0.4-0.2-0.6-0.1h-7.9
		c-0.2,0-0.5,0-0.7,0.1h-9.2c-0.3-0.2-0.7-0.1-1-0.1c-1,0-2,0-3-0.2c-1.3-0.3-2.5-1-3.4-2c-1.1-1.4-1.7-3.1-1.7-4.8
		c0-9.4,0-18.9,0-28.3c0-0.2,0-0.5,0-0.7c0-0.4-0.2-0.6-0.6-0.6l0,0h-27h-9c-4.5,0-9,0.1-13.6,0c-2.7,0-4.9,2.2-4.9,4.9l0,0
		c0,34.7,0,69.3,0,104c0,4.9,0,9.8,0,14.7c0,2.3,1.6,4.3,3.9,4.6c1.7,0.2,3.5,0.2,5.3,0.1c3.1,0.1,6.2,0.1,9.2,0
		c3.1-0.1,6.1,0.1,9.2,0s6,0.1,9,0s6.1,0.1,9.2,0s6,0.1,9,0s6.3,0.1,9.4,0s6,0.1,9,0C426.5,609.6,429.6,609.7,432.7,609.6z
		 M423.5,508.8h9.2c2.8,0,5.6,0,8.5,0c0.5,0,0.6-0.1,0.4-0.6c-0.3-0.7-0.7-1.3-1.2-1.8c-2.5-2.3-4.9-4.8-7.3-7.2
		c-3.2-3.1-6.3-6.2-9.3-9.4c-2.3-2.5-4.8-4.8-7.1-7.2c-0.4-0.4-0.8-0.7-1.3-0.9c-0.9-0.5-1-0.4-1,0.6V508c0,0.4-0.1,0.8,0.6,0.8
		C417.7,508.8,420.6,508.8,423.5,508.8z"/>
	<path class="st3" d="M423.3,564.9c0.3,1.6,0.3,3.4,0,5c-0.4,0.8-1.1,1.4-1.8,1.8c-1.6,0.4-3.3,0.2-4.9,0.2c-0.7,0-1.4,0-2.1,0
		h-36.7h-5.4c-0.6,0-1.1,0-1.6-0.2c-0.9-0.5-1.7-1.3-2.2-2.3c-0.1-1.5-0.1-3.1,0.2-4.6c0.4-0.7,1-1.4,1.7-1.8
		c0.8-0.2,1.6-0.3,2.4-0.3h40.5h1.1c2.2,0.1,4.5-0.1,6.7,0.2C422.1,563.3,422.8,564,423.3,564.9z"/>
	<path class="st3" d="M423.3,543.3c0.3,1.6,0.3,3.4,0,5c-0.4,0.8-1.1,1.4-1.8,1.8c-1.6,0.4-3.3,0.1-4.9,0.2c-0.7,0-1.4,0-2.1,0
		h-36.7h-5.4c-0.6,0-1.1,0-1.6-0.2c-0.9-0.5-1.7-1.3-2.1-2.3c-0.1-1.5-0.1-3.1,0.2-4.6c0.4-0.7,1-1.4,1.7-1.8
		c0.8-0.2,1.6-0.3,2.4-0.3h40.5h1.1c2.2,0.1,4.5-0.1,6.7,0.2C422.1,541.6,422.8,542.4,423.3,543.3z"/>
</g>
</svg>
