<?xml version="1.0" encoding="utf-8"?>
<!-- Generator: Adobe Illustrator 24.1.1, SVG Export Plug-In . SVG Version: 6.00 Build 0)  -->
<svg version="1.1" id="Layer_1" xmlns="http://www.w3.org/2000/svg" xmlns:xlink="http://www.w3.org/1999/xlink" x="0px" y="0px"
	 viewBox="0 0 792 1206.7" style="enable-background:new 0 0 792 1206.7;" xml:space="preserve">
<style type="text/css">
	.st0{fill:#FFFFFF;}
	.st1{enable-background:new    ;}
	.st2{fill:#2F3443;}
	.st3{fill:#D9A828;}
</style>
<rect x="-0.5" class="st0" width="792" height="1224"/>
<g class="st1">
	<path class="st2" d="M205.3,79.2v0.4c0,2.3-1.2,3.9-3.1,4.6c2.2,0.4,3.8,2.3,3.8,5v0.5c0,3.7-2.3,6-6.8,6h-7.9
		c-0.3,0-0.4-0.2-0.4-0.4V74.1c0-0.3,0.1-0.4,0.4-0.4h7.8C203.2,73.7,205.3,75.8,205.3,79.2z M194.7,77v5.7h3.8
		c2.3,0,3.1-1.3,3.1-2.7v-0.3c0-1.5-0.8-2.7-3.1-2.7H194.7z M194.7,86.1v6.2h4c2,0,3.4-0.8,3.4-2.9V89c0-1.9-1.2-2.9-3.4-2.9H194.7z
		"/>
</g>
<g class="st1">
	<path class="st2" d="M219.1,79.3v2.6c0,0.3-0.1,0.4-0.5,0.4h-0.4c-2.4,0-3.9,1.2-4.5,3.1v9.8c0,0.3-0.2,0.4-0.4,0.4h-3
		c-0.2,0-0.4-0.1-0.4-0.4V79.5c0-0.3,0.2-0.4,0.4-0.4h2.7c0.3,0,0.4,0.2,0.4,0.4l0,2.3c0.8-1.5,2.4-3,4.9-3
		C219,78.9,219.1,79,219.1,79.3z"/>
</g>
<g class="st1">
	<path class="st2" d="M234.2,84.2v11c0,0.3-0.1,0.4-0.4,0.4h-2.6c-0.3,0-0.4-0.2-0.4-0.4v-2c-1,1.7-2.7,2.7-4.7,2.7
		c-3.1,0-5.1-2-5.1-5c0-3,2-4.7,6.3-5c1.2-0.1,2.3-0.1,3.4,0v-1.5c0-1.9-1-2.6-2.7-2.6s-2.3,0.6-2.8,1.8c-0.1,0.3-0.2,0.4-0.6,0.3
		l-2.6-0.7c-0.3-0.1-0.4-0.2-0.3-0.5c0.5-2.3,2.6-4,6.4-4C231.9,78.8,234.2,80.6,234.2,84.2z M230.6,90.3v-2c-1,0-2.1,0-3.1,0.1
		c-1.9,0.2-3.1,0.9-3.1,2.4c0,1.3,0.9,2.2,2.5,2.2C228.6,93,229.9,92,230.6,90.3z"/>
	<path class="st2" d="M242.4,85v10.2c0,0.3-0.1,0.4-0.4,0.4h-2.8c-0.3,0-0.5-0.2-0.5-0.4V79.5c0-0.2,0.1-0.4,0.4-0.4h2.8
		c0.3,0,0.4,0.2,0.4,0.4v2c1-1.5,2.7-2.7,5-2.7c3.1,0,4.9,2.3,4.9,5.6v10.8c0,0.3-0.2,0.4-0.4,0.4h-2.9c-0.3,0-0.5-0.2-0.5-0.4V85
		c0-1.8-0.8-2.9-2.5-2.9C244.3,82.1,243,83.3,242.4,85z"/>
	<path class="st2" d="M256.1,89.6v-4.4c0-3.8,2.3-6.4,5.6-6.4c2.4,0,4,1.3,4.7,2.4v-8c0-0.2,0.1-0.4,0.4-0.4h2.9
		c0.2,0,0.4,0.2,0.4,0.4v22.1c0,0.2-0.1,0.4-0.4,0.4H267c-0.2,0-0.4-0.2-0.4-0.4v-1.7c-0.7,1.2-2.3,2.4-4.7,2.4
		C258.3,96,256.1,93.5,256.1,89.6z M266.5,89.1v-3.4c0-2.3-1.5-3.7-3.4-3.7c-2.1,0-3.2,1.4-3.2,3.7v3.4c0,2.3,1.1,3.6,3.2,3.6
		C264.9,92.7,266.5,91.4,266.5,89.1z"/>
	<path class="st2" d="M278.5,73.3v2.9c0,0.4-0.2,0.5-0.5,0.5h-2.6c-0.4,0-0.6-0.2-0.6-0.5v-2.9c0-0.3,0.2-0.5,0.6-0.5h2.6
		C278.3,72.8,278.5,73,278.5,73.3z M278.5,79.5v15.7c0,0.3-0.2,0.4-0.4,0.4h-2.8c-0.3,0-0.5-0.2-0.5-0.4V79.5c0-0.3,0.1-0.4,0.5-0.4
		h2.8C278.3,79.1,278.5,79.2,278.5,79.5z"/>
	<path class="st2" d="M286.8,85v10.2c0,0.3-0.2,0.4-0.4,0.4h-2.8c-0.3,0-0.5-0.2-0.5-0.4V79.5c0-0.2,0.1-0.4,0.4-0.4h2.8
		c0.3,0,0.4,0.2,0.4,0.4v2c1-1.5,2.7-2.7,5-2.7c3.1,0,4.9,2.3,4.9,5.6v10.8c0,0.3-0.1,0.4-0.4,0.4h-2.9c-0.3,0-0.5-0.2-0.5-0.4V85
		c0-1.8-0.8-2.9-2.5-2.9C288.7,82.1,287.4,83.3,286.8,85z"/>
	<path class="st2" d="M314.7,96.8c0,2.8-2.1,5.2-7.8,5.2c-5.1,0-7.1-1.8-7.1-4.4c0-1.4,0.8-2.7,2.5-3.5c-0.8-0.6-1.2-1.5-1.2-2.2
		c0-1,0.6-1.9,1.7-2.4c-1.7-1-2.6-2.6-2.6-4.6c0-3.3,2-5.7,6.4-5.7h7.4c0.2,0,0.3,0.2,0.3,0.4v2.1c0,0.3-0.2,0.4-0.4,0.4h-2.6
		c0.9,0.7,1.5,1.9,1.5,3.4c0,2.9-2,5-6.2,5h-1.1c-1,0-1.4,0.4-1.4,1c0,0.5,0.4,0.9,1.4,0.9l3.4,0C313.1,92.3,314.7,94.2,314.7,96.8z
		 M311.2,97.1c0-1-0.6-1.9-2.5-1.9h-3c-1.8,0-2.4,0.9-2.4,1.9c0,1.4,1.1,2.3,3.9,2.3C309.9,99.4,311.2,98.4,311.2,97.1z M303.7,84.8
		c0,1.8,1,3,3.1,3c1.9,0,3-1.1,3-3c0-1.8-1-3-3-3C304.8,81.9,303.7,83,303.7,84.8z"/>
</g>
<g class="st1">
	<path class="st2" d="M340.5,80.5v1.4c0,4.2-2.4,6.8-7.2,6.8h-3.2v6.5c0,0.3-0.1,0.4-0.4,0.4h-3c-0.3,0-0.4-0.2-0.4-0.4V74.1
		c0-0.2,0.2-0.4,0.4-0.4h6.7C338.1,73.7,340.5,76.4,340.5,80.5z M330.1,77.1v8.1h2.9c2.7,0,3.6-1.2,3.6-3.6v-0.9
		c0-2.3-0.9-3.6-3.6-3.6H330.1z"/>
</g>
<g class="st1">
	<path class="st2" d="M356.3,84.2v11c0,0.3-0.1,0.4-0.4,0.4h-2.6c-0.3,0-0.4-0.2-0.4-0.4v-2c-1,1.7-2.7,2.7-4.7,2.7
		c-3.1,0-5.1-2-5.1-5c0-3,2-4.7,6.3-5c1.2-0.1,2.3-0.1,3.4,0v-1.5c0-1.9-1-2.6-2.7-2.6s-2.3,0.6-2.8,1.8c-0.1,0.3-0.2,0.4-0.6,0.3
		l-2.6-0.7c-0.3-0.1-0.4-0.2-0.3-0.5c0.5-2.3,2.6-4,6.4-4C354,78.8,356.3,80.6,356.3,84.2z M352.7,90.3v-2c-1,0-2.1,0-3.1,0.1
		c-1.9,0.2-3.1,0.9-3.1,2.4c0,1.3,0.9,2.2,2.5,2.2C350.7,93,352,92,352.7,90.3z"/>
	<path class="st2" d="M373.3,83.5c0,0.3,0,0.5-0.4,0.5l-2.3,0.6c-0.5,0.1-0.5,0.1-0.7-0.3c-0.3-1-0.8-2.4-3-2.4
		c-2,0-3.1,1.3-3.1,3.6v3.6c0,2.2,1.1,3.5,3.1,3.5c1.9,0,2.6-0.9,3.1-2.3c0.1-0.4,0.3-0.5,0.6-0.3l2.3,0.8c0.4,0.1,0.4,0.3,0.3,0.6
		c-0.5,2.3-2.7,4.4-6.5,4.4c-4.2,0-6.6-2.7-6.6-6.6v-4c0-3.8,2.4-6.7,6.6-6.7C370.4,78.8,372.8,80.5,373.3,83.5z"/>
</g>
<g class="st1">
	<path class="st2" d="M390.4,95.6h-3.1c-0.3,0-0.4-0.1-0.5-0.4l-3.8-6.9l-2.2,2.6v4.2c0,0.3-0.2,0.4-0.4,0.4h-2.9
		c-0.3,0-0.4-0.2-0.4-0.4v-22c0-0.2,0.1-0.4,0.4-0.4h2.9c0.3,0,0.4,0.2,0.4,0.4v13.3l5.6-7c0.3-0.3,0.5-0.4,0.8-0.4h3
		c0.4,0,0.5,0.4,0.3,0.6l-5,5.8l5.2,9.6C390.9,95.4,390.7,95.6,390.4,95.6z"/>
</g>
<g class="st1">
	<path class="st2" d="M405.9,84.2v11c0,0.3-0.1,0.4-0.4,0.4h-2.6c-0.3,0-0.4-0.2-0.4-0.4v-2c-1,1.7-2.7,2.7-4.7,2.7
		c-3.1,0-5.1-2-5.1-5c0-3,2-4.7,6.3-5c1.2-0.1,2.3-0.1,3.4,0v-1.5c0-1.9-1-2.6-2.7-2.6s-2.3,0.6-2.8,1.8c-0.1,0.3-0.2,0.4-0.6,0.3
		l-2.6-0.7c-0.3-0.1-0.4-0.2-0.3-0.5c0.5-2.3,2.6-4,6.4-4C403.6,78.8,405.9,80.6,405.9,84.2z M402.3,90.3v-2c-1,0-2.1,0-3.1,0.1
		c-1.9,0.2-3.1,0.9-3.1,2.4c0,1.3,0.9,2.2,2.5,2.2C400.3,93,401.6,92,402.3,90.3z"/>
</g>
<g class="st1">
	<path class="st2" d="M424.1,96.8c0,2.8-2.1,5.2-7.8,5.2c-5.1,0-7.1-1.8-7.1-4.4c0-1.4,0.8-2.7,2.5-3.5c-0.8-0.6-1.2-1.5-1.2-2.2
		c0-1,0.6-1.9,1.7-2.4c-1.7-1-2.6-2.6-2.6-4.6c0-3.3,2-5.7,6.5-5.7h7.4c0.2,0,0.3,0.2,0.3,0.4v2.1c0,0.3-0.2,0.4-0.4,0.4h-2.6
		c0.9,0.7,1.5,1.9,1.5,3.4c0,2.9-2,5-6.2,5h-1.1c-1,0-1.4,0.4-1.4,1c0,0.5,0.4,0.9,1.4,0.9l3.4,0C422.5,92.3,424.1,94.2,424.1,96.8z
		 M420.6,97.1c0-1-0.6-1.9-2.5-1.9h-3c-1.8,0-2.4,0.9-2.4,1.9c0,1.4,1.1,2.3,3.9,2.3C419.3,99.4,420.6,98.4,420.6,97.1z M413.1,84.8
		c0,1.8,1,3,3.1,3c1.9,0,3-1.1,3-3c0-1.8-1-3-3-3C414.2,81.9,413.1,83,413.1,84.8z"/>
</g>
<g class="st1">
	<path class="st2" d="M430.2,88.5v1c0,2.1,1.1,3.5,3.5,3.5c2.2,0,2.9-0.9,3.5-2c0.2-0.4,0.4-0.5,0.8-0.3l1.9,1
		c0.4,0.2,0.5,0.5,0.3,0.8c-1,2.2-3.3,3.5-6.5,3.5c-4.6,0-7-2.7-7-6.6v-4.1c0-3.8,2.3-6.6,7-6.6c4.4,0,6.7,2.8,6.7,6.5v2.5
		c0,0.5-0.2,0.7-0.8,0.7H430.2z M430.2,85.2V86h6.7v-0.9c0-2-1.1-3.4-3.3-3.4C431.3,81.8,430.2,83.1,430.2,85.2z"/>
	<path class="st2" d="M467.2,78.8c0.1,0.4,0,0.6-0.3,0.7l-2.5,0.8c-0.4,0.1-0.5,0-0.6-0.4c-0.6-1.7-1.6-3-3.9-3
		c-2.8,0-4.1,1.7-4.1,4.7v6.2c0,2.9,1.4,4.7,4.1,4.7c2.5,0,3.6-1.3,4-3.2c0.1-0.4,0.3-0.5,0.6-0.4l2.5,0.8c0.3,0.1,0.4,0.3,0.3,0.7
		c-0.8,3.2-3.1,5.6-7.6,5.6c-5,0-7.9-3.2-7.9-8v-6.5c0-4.9,2.9-8,7.9-8C464.1,73.4,466.3,75.6,467.2,78.8z"/>
	<path class="st2" d="M484.4,85.4v3.9c0,3.9-2.3,6.7-7,6.7c-4.7,0-7-2.7-7-6.6v-3.9c0-3.9,2.3-6.8,7-6.8
		C482.1,78.8,484.4,81.6,484.4,85.4z M474,85.6v3.6c0,2.2,1.1,3.5,3.3,3.5c2.2,0,3.3-1.3,3.3-3.5v-3.6c0-2.2-1.1-3.6-3.3-3.6
		C475.2,82,474,83.4,474,85.6z"/>
	<path class="st2" d="M496.6,78.8c2.2,0,3.5,1.3,4.1,3c1.2-1.8,2.8-3,4.8-3c2.8,0,4.5,2.2,4.5,5.4v11c0,0.3-0.2,0.4-0.5,0.4h-2.7
		c-0.3,0-0.5-0.2-0.5-0.4V84.9c0-1.7-0.8-2.7-2.1-2.7c-1.4,0-2.5,1-3.1,2.8v10.3c0,0.3-0.1,0.4-0.4,0.4h-2.9c-0.3,0-0.4-0.2-0.4-0.4
		V84.9c0-1.7-0.8-2.7-2.1-2.7c-1.4,0-2.5,1.2-3.1,2.8v10.2c0,0.3-0.1,0.4-0.4,0.4h-2.9c-0.3,0-0.4-0.2-0.4-0.4V79.5
		c0-0.2,0.1-0.4,0.4-0.4h2.8c0.3,0,0.4,0.2,0.4,0.4v2C493,80.1,494.5,78.8,496.6,78.8z"/>
	<path class="st2" d="M514.8,101.6c-0.2,0-0.4-0.2-0.4-0.4V79.5c0-0.2,0.1-0.4,0.4-0.4h2.8c0.2,0,0.4,0.2,0.4,0.4v1.7
		c0.7-1.1,2.3-2.4,4.6-2.4c3.6,0,5.8,2.5,5.8,6.4v4.4c0,3.8-2.2,6.4-5.6,6.4c-2.4,0-4-1.2-4.7-2.4v7.7c0,0.2-0.1,0.4-0.4,0.4H514.8z
		 M524.8,89v-3.4c0-2.3-1.1-3.6-3.2-3.6c-1.9,0-3.4,1.3-3.4,3.6V89c0,2.4,1.5,3.7,3.4,3.7C523.7,92.7,524.8,91.4,524.8,89z"/>
	<path class="st2" d="M536.4,73.2v22c0,0.3-0.2,0.4-0.4,0.4h-2.8c-0.3,0-0.5-0.2-0.5-0.4v-22c0-0.3,0.2-0.4,0.5-0.4h2.8
		C536.2,72.8,536.4,72.9,536.4,73.2z"/>
</g>
<g class="st1">
	<path class="st2" d="M544,88.5v1c0,2.1,1.1,3.5,3.5,3.5c2.2,0,2.9-0.9,3.5-2c0.2-0.4,0.4-0.5,0.8-0.3l1.9,1
		c0.4,0.2,0.5,0.5,0.3,0.8c-1,2.2-3.3,3.5-6.4,3.5c-4.6,0-7-2.7-7-6.6v-4.1c0-3.8,2.3-6.6,7-6.6c4.4,0,6.7,2.8,6.7,6.5v2.5
		c0,0.5-0.2,0.7-0.8,0.7H544z M544,85.2V86h6.7v-0.9c0-2-1.1-3.4-3.3-3.4C545.1,81.8,544,83.1,544,85.2z"/>
</g>
<g class="st1">
	<path class="st2" d="M562.7,75.4v3.8h3.3c0.2,0,0.4,0.2,0.4,0.5v2.2c0,0.3-0.1,0.4-0.4,0.4h-3.3v8.3c0,1.2,0.7,1.8,2,1.8h1.3
		c0.3,0,0.4,0.1,0.4,0.4v2.4c0,0.3-0.1,0.4-0.4,0.4h-1.9c-3.4,0-5-1.8-5-4.6v-8.8H557c-0.3,0-0.4-0.1-0.4-0.4v-2.2
		c0-0.3,0.2-0.5,0.4-0.5h2.1v-3.8c0-0.2,0.1-0.4,0.4-0.4h2.8C562.5,75,562.7,75.2,562.7,75.4z"/>
	<path class="st2" d="M572.9,88.5v1c0,2.1,1.1,3.5,3.5,3.5c2.2,0,2.9-0.9,3.5-2c0.2-0.4,0.4-0.5,0.8-0.3l1.9,1
		c0.4,0.2,0.5,0.5,0.3,0.8c-1,2.2-3.3,3.5-6.4,3.5c-4.6,0-7-2.7-7-6.6v-4.1c0-3.8,2.3-6.6,7-6.6c4.4,0,6.7,2.8,6.7,6.5v2.5
		c0,0.5-0.2,0.7-0.8,0.7H572.9z M572.9,85.2V86h6.7v-0.9c0-2-1.1-3.4-3.3-3.4S572.9,83.1,572.9,85.2z"/>
	<path class="st2" d="M586.5,89.6v-4.4c0-3.8,2.3-6.4,5.6-6.4c2.4,0,4,1.3,4.7,2.4v-8c0-0.2,0.1-0.4,0.4-0.4h2.9
		c0.2,0,0.4,0.2,0.4,0.4v22.1c0,0.2-0.1,0.4-0.4,0.4h-2.8c-0.2,0-0.4-0.2-0.4-0.4v-1.7c-0.7,1.2-2.3,2.4-4.7,2.4
		C588.7,96,586.5,93.5,586.5,89.6z M596.9,89.1v-3.4c0-2.3-1.5-3.7-3.4-3.7c-2.1,0-3.2,1.4-3.2,3.7v3.4c0,2.3,1.1,3.6,3.2,3.6
		C595.3,92.7,596.9,91.4,596.9,89.1z"/>
</g>
<g class="st1">
	<path class="st2" d="M181.4,362.1v14c0,4.6-2.8,7.9-8,7.9c-5.3,0-8-3.1-8-7.9v-14c0-0.3,0.1-0.4,0.4-0.4h3c0.3,0,0.5,0.1,0.5,0.4
		V376c0,2.8,1.3,4.5,4.2,4.5s4.2-1.7,4.2-4.5v-13.9c0-0.3,0.1-0.4,0.4-0.4h3C181.2,361.7,181.4,361.8,181.4,362.1z"/>
</g>
<g class="st1">
	<path class="st2" d="M197.9,370.7c0.1,0.3,0,0.5-0.3,0.6l-2.2,0.8c-0.3,0.1-0.5,0-0.6-0.3c-0.5-1.3-1.6-2-3.2-2
		c-1.7,0-2.7,0.7-2.7,1.8c0,1,0.7,1.4,3.9,2.3c3.8,1,5.3,2.5,5.3,5.1c0,3.1-2.5,5.1-6.4,5.1c-3.5,0-6-1.4-6.8-3.9
		c-0.1-0.3,0-0.5,0.4-0.7l2-1c0.4-0.1,0.5-0.1,0.7,0.4c0.4,1.4,1.9,2.2,3.7,2.2c1.9,0,2.9-0.7,2.9-1.9c0-1.1-0.9-1.7-4-2.5
		c-3.6-1-5.1-2.4-5.1-5c0-3,2.4-5,6.1-5C194.8,366.8,197.1,368.2,197.9,370.7z"/>
	<path class="st2" d="M214.2,372.2v11c0,0.3-0.2,0.4-0.4,0.4h-2.6c-0.3,0-0.4-0.2-0.4-0.4v-2c-1,1.7-2.7,2.7-4.7,2.7
		c-3.1,0-5.1-2-5.1-5c0-3,2-4.7,6.3-5c1.2-0.1,2.3-0.1,3.4,0v-1.5c0-1.9-1-2.6-2.7-2.6s-2.3,0.6-2.8,1.8c-0.1,0.3-0.2,0.4-0.6,0.3
		l-2.6-0.7c-0.3-0.1-0.4-0.2-0.3-0.5c0.5-2.3,2.6-4,6.4-4C211.9,366.8,214.2,368.6,214.2,372.2z M210.6,378.3v-2c-1,0-2.1,0-3.1,0.1
		c-2,0.2-3.1,0.9-3.1,2.4c0,1.3,0.9,2.2,2.5,2.2C208.7,381,210,380,210.6,378.3z"/>
	<path class="st2" d="M222.4,361.2v8c0.7-1.2,2.3-2.4,4.7-2.4c3.4,0,5.6,2.6,5.6,6.4v4.4c0,3.8-2.2,6.3-5.8,6.3
		c-2.3,0-4-1.2-4.7-2.4v1.7c0,0.2-0.1,0.4-0.4,0.4h-2.8c-0.3,0-0.4-0.2-0.4-0.4v-22.1c0-0.2,0.1-0.4,0.4-0.4h2.9
		C222.3,360.8,222.4,361,222.4,361.2z M222.4,373.7v3.4c0,2.3,1.5,3.6,3.4,3.6c2.1,0,3.2-1.3,3.2-3.6v-3.4c0-2.3-1.1-3.7-3.2-3.7
		C223.9,370.1,222.4,371.4,222.4,373.7z"/>
	<path class="st2" d="M240.6,361.3v2.9c0,0.4-0.2,0.5-0.5,0.5h-2.6c-0.4,0-0.6-0.2-0.6-0.5v-2.9c0-0.3,0.2-0.5,0.6-0.5h2.6
		C240.4,360.8,240.6,361,240.6,361.3z M240.6,367.5v15.7c0,0.3-0.2,0.4-0.4,0.4h-2.8c-0.3,0-0.5-0.2-0.5-0.4v-15.7
		c0-0.3,0.1-0.4,0.5-0.4h2.8C240.4,367.1,240.6,367.2,240.6,367.5z"/>
	<path class="st2" d="M248.9,361.2v22c0,0.3-0.1,0.4-0.4,0.4h-2.8c-0.3,0-0.5-0.2-0.5-0.4v-22c0-0.3,0.2-0.4,0.5-0.4h2.8
		C248.7,360.8,248.9,360.9,248.9,361.2z"/>
	<path class="st2" d="M257.1,361.3v2.9c0,0.4-0.2,0.5-0.5,0.5H254c-0.4,0-0.6-0.2-0.6-0.5v-2.9c0-0.3,0.2-0.5,0.6-0.5h2.6
		C257,360.8,257.1,361,257.1,361.3z M257.1,367.5v15.7c0,0.3-0.1,0.4-0.4,0.4h-2.8c-0.3,0-0.5-0.2-0.5-0.4v-15.7
		c0-0.3,0.2-0.4,0.5-0.4h2.8C257,367.1,257.1,367.2,257.1,367.5z"/>
	<path class="st2" d="M266.4,363.4v3.8h3.3c0.2,0,0.4,0.2,0.4,0.5v2.2c0,0.3-0.2,0.4-0.4,0.4h-3.3v8.3c0,1.2,0.7,1.8,2,1.8h1.3
		c0.3,0,0.4,0.1,0.4,0.4v2.4c0,0.3-0.2,0.4-0.4,0.4h-1.9c-3.4,0-5-1.8-5-4.6v-8.8h-2.1c-0.3,0-0.4-0.1-0.4-0.4v-2.2
		c0-0.3,0.1-0.5,0.4-0.5h2.1v-3.8c0-0.2,0.2-0.4,0.4-0.4h2.8C266.3,363,266.4,363.2,266.4,363.4z"/>
</g>
<g class="st1">
	<path class="st2" d="M287.2,367.7l-5.6,15.3c-1.2,3.2-2.7,5.6-4.9,7c-0.3,0.2-0.5,0.3-0.9,0l-1.6-1.7c-0.2-0.2-0.1-0.6,0.1-0.8
		c1.8-1.2,2.9-2.3,3.7-4.8l-5.9-15c-0.1-0.3,0.1-0.5,0.4-0.5h3.1c0.3,0,0.4,0.1,0.5,0.4l1.9,5.5c0.8,2.4,1.4,4.1,1.8,6h0.1
		c0.5-2.3,1-3.7,1.8-6l1.8-5.6c0.1-0.2,0.3-0.4,0.5-0.4h2.9C287.1,367.1,287.3,367.3,287.2,367.7z"/>
</g>
<g class="st1">
</g>
<g class="st1">
	<path class="st2" d="M311.3,362.1v2.7c0,0.2-0.2,0.4-0.4,0.4h-5.8v18c0,0.2-0.2,0.4-0.4,0.4h-3.1c-0.2,0-0.4-0.2-0.4-0.4v-18h-5.8
		c-0.2,0-0.4-0.2-0.4-0.4v-2.7c0-0.2,0.1-0.4,0.4-0.4h15.4C311.1,361.7,311.3,361.9,311.3,362.1z"/>
</g>
<g class="st1">
	<path class="st2" d="M314.8,376.5v1c0,2.1,1.1,3.5,3.5,3.5c2.2,0,2.9-0.9,3.5-2c0.2-0.4,0.4-0.5,0.8-0.3l1.9,1
		c0.4,0.2,0.5,0.5,0.3,0.8c-1,2.2-3.3,3.5-6.4,3.5c-4.6,0-7-2.7-7-6.6v-4.1c0-3.8,2.3-6.6,7-6.6c4.4,0,6.7,2.8,6.7,6.5v2.5
		c0,0.5-0.2,0.7-0.8,0.7H314.8z M314.8,373.2v0.9h6.7v-0.9c0-2-1.1-3.4-3.3-3.4S314.8,371.1,314.8,373.2z"/>
</g>
<g class="st1">
	<path class="st2" d="M340.8,370.7c0.1,0.3,0,0.5-0.3,0.6l-2.2,0.8c-0.3,0.1-0.5,0-0.6-0.3c-0.5-1.3-1.6-2-3.2-2
		c-1.7,0-2.7,0.7-2.7,1.8c0,1,0.7,1.4,3.9,2.3c3.8,1,5.2,2.5,5.2,5.1c0,3.1-2.5,5.1-6.4,5.1c-3.5,0-6-1.4-6.8-3.9
		c-0.1-0.3,0-0.5,0.4-0.7l1.9-1c0.4-0.1,0.5-0.1,0.7,0.4c0.4,1.4,1.9,2.2,3.7,2.2c1.9,0,2.9-0.7,2.9-1.9c0-1.1-0.9-1.7-4-2.5
		c-3.6-1-5.1-2.4-5.1-5c0-3,2.4-5,6.1-5C337.7,366.8,340,368.2,340.8,370.7z"/>
</g>
<g class="st1">
	<path class="st2" d="M349.5,363.4v3.8h3.3c0.2,0,0.4,0.2,0.4,0.5v2.2c0,0.3-0.1,0.4-0.4,0.4h-3.3v8.3c0,1.2,0.7,1.8,2,1.8h1.3
		c0.3,0,0.4,0.1,0.4,0.4v2.4c0,0.3-0.1,0.4-0.4,0.4h-1.9c-3.4,0-5-1.8-5-4.6v-8.8h-2.1c-0.3,0-0.4-0.1-0.4-0.4v-2.2
		c0-0.3,0.1-0.5,0.4-0.5h2.1v-3.8c0-0.2,0.1-0.4,0.4-0.4h2.8C349.3,363,349.5,363.2,349.5,363.4z"/>
	<path class="st2" d="M375.9,383.5l3.2,4.1c0.2,0.3,0.1,0.6-0.2,0.7l-2.3,1.1c-0.3,0.2-0.5,0.1-0.7-0.1l-4.1-5.4
		c-5-0.3-7.6-3.4-7.6-8v-6.4c0-4.9,2.9-8.1,8.4-8.1c5.5,0,8.4,3.4,8.4,8.1v6.4C381.1,379.5,379.3,382.4,375.9,383.5z M377.2,369.5
		c0-2.9-1.4-4.6-4.5-4.6c-3.1,0-4.5,1.7-4.5,4.6v6.3c0,2.9,1.4,4.6,4.5,4.6c3.1,0,4.5-1.7,4.5-4.6V369.5z"/>
	<path class="st2" d="M385.3,378.3v-10.8c0-0.3,0.2-0.4,0.5-0.4h2.9c0.3,0,0.4,0.2,0.4,0.4v10.2c0,1.8,0.9,2.9,2.5,2.9
		c1.6,0,2.9-1.2,3.5-2.9v-10.2c0-0.3,0.1-0.4,0.4-0.4h2.9c0.3,0,0.4,0.2,0.4,0.4v15.8c0,0.2-0.2,0.4-0.4,0.4h-2.8
		c-0.3,0-0.4-0.2-0.4-0.4v-2c-1,1.5-2.7,2.7-5,2.7C387,384,385.3,381.7,385.3,378.3z"/>
	<path class="st2" d="M406.4,376.5v1c0,2.1,1.1,3.5,3.5,3.5c2.2,0,2.9-0.9,3.5-2c0.2-0.4,0.4-0.5,0.8-0.3l1.9,1
		c0.4,0.2,0.4,0.5,0.3,0.8c-1,2.2-3.3,3.5-6.4,3.5c-4.6,0-7-2.7-7-6.6v-4.1c0-3.8,2.3-6.6,7-6.6c4.4,0,6.7,2.8,6.7,6.5v2.5
		c0,0.5-0.2,0.7-0.8,0.7H406.4z M406.4,373.2v0.9h6.7v-0.9c0-2-1.1-3.4-3.3-3.4C407.6,369.8,406.4,371.1,406.4,373.2z"/>
</g>
<g class="st1">
	<path class="st2" d="M432.4,370.7c0.1,0.3,0,0.5-0.3,0.6l-2.2,0.8c-0.3,0.1-0.5,0-0.6-0.3c-0.5-1.3-1.6-2-3.2-2
		c-1.7,0-2.7,0.7-2.7,1.8c0,1,0.7,1.4,3.9,2.3c3.8,1,5.3,2.5,5.3,5.1c0,3.1-2.5,5.1-6.4,5.1c-3.5,0-6-1.4-6.8-3.9
		c-0.1-0.3,0-0.5,0.4-0.7l1.9-1c0.4-0.1,0.5-0.1,0.7,0.4c0.4,1.4,1.9,2.2,3.7,2.2c1.9,0,2.9-0.7,2.9-1.9c0-1.1-0.9-1.7-4-2.5
		c-3.6-1-5.1-2.4-5.1-5c0-3,2.4-5,6.1-5C429.3,366.8,431.6,368.2,432.4,370.7z"/>
</g>
<g class="st1">
	<path class="st2" d="M441,363.4v3.8h3.3c0.2,0,0.4,0.2,0.4,0.5v2.2c0,0.3-0.1,0.4-0.4,0.4H441v8.3c0,1.2,0.7,1.8,2,1.8h1.3
		c0.3,0,0.4,0.1,0.4,0.4v2.4c0,0.3-0.1,0.4-0.4,0.4h-1.9c-3.4,0-5-1.8-5-4.6v-8.8h-2.1c-0.3,0-0.4-0.1-0.4-0.4v-2.2
		c0-0.3,0.2-0.5,0.4-0.5h2.1v-3.8c0-0.2,0.1-0.4,0.4-0.4h2.8C440.9,363,441,363.2,441,363.4z"/>
	<path class="st2" d="M452,361.3v2.9c0,0.4-0.2,0.5-0.5,0.5h-2.6c-0.4,0-0.6-0.2-0.6-0.5v-2.9c0-0.3,0.2-0.5,0.6-0.5h2.6
		C451.8,360.8,452,361,452,361.3z M452,367.5v15.7c0,0.3-0.2,0.4-0.4,0.4h-2.8c-0.3,0-0.5-0.2-0.5-0.4v-15.7c0-0.3,0.1-0.4,0.5-0.4
		h2.8C451.8,367.1,452,367.2,452,367.5z"/>
	<path class="st2" d="M470.1,373.4v3.9c0,3.9-2.3,6.7-7,6.7c-4.7,0-7-2.7-7-6.6v-3.9c0-3.9,2.3-6.8,7-6.8
		C467.8,366.8,470.1,369.6,470.1,373.4z M459.7,373.6v3.6c0,2.2,1.1,3.5,3.3,3.5c2.2,0,3.3-1.3,3.3-3.5v-3.6c0-2.2-1.1-3.6-3.3-3.6
		C460.8,370,459.7,371.4,459.7,373.6z"/>
	<path class="st2" d="M477.9,373v10.2c0,0.3-0.2,0.4-0.4,0.4h-2.8c-0.3,0-0.5-0.2-0.5-0.4v-15.7c0-0.2,0.1-0.4,0.4-0.4h2.8
		c0.3,0,0.4,0.2,0.4,0.4v2c1-1.5,2.7-2.7,5-2.7c3.1,0,4.9,2.3,4.9,5.6v10.8c0,0.3-0.1,0.4-0.4,0.4h-2.8c-0.3,0-0.5-0.2-0.5-0.4V373
		c0-1.8-0.8-2.9-2.5-2.9C479.8,370.1,478.5,371.3,477.9,373z"/>
	<path class="st2" d="M504,370.7c0.1,0.3,0,0.5-0.3,0.6l-2.2,0.8c-0.3,0.1-0.5,0-0.6-0.3c-0.5-1.3-1.6-2-3.2-2
		c-1.7,0-2.7,0.7-2.7,1.8c0,1,0.7,1.4,3.9,2.3c3.8,1,5.3,2.5,5.3,5.1c0,3.1-2.5,5.1-6.4,5.1c-3.5,0-6-1.4-6.8-3.9
		c-0.1-0.3,0-0.5,0.4-0.7l2-1c0.4-0.1,0.5-0.1,0.7,0.4c0.4,1.4,1.9,2.2,3.7,2.2c1.9,0,2.9-0.7,2.9-1.9c0-1.1-0.9-1.7-4-2.5
		c-3.6-1-5.1-2.4-5.1-5c0-3,2.4-5,6.1-5C500.9,366.8,503.2,368.2,504,370.7z"/>
	<path class="st2" d="M530.5,368.5v1.4c0,4.2-2.4,6.8-7.2,6.8h-3.2v6.5c0,0.3-0.1,0.4-0.4,0.4h-3c-0.3,0-0.4-0.2-0.4-0.4v-21.1
		c0-0.2,0.2-0.4,0.4-0.4h6.7C528.1,361.7,530.5,364.4,530.5,368.5z M520.1,365.1v8.1h2.9c2.7,0,3.6-1.2,3.6-3.6v-0.9
		c0-2.3-0.9-3.6-3.6-3.6H520.1z"/>
	<path class="st2" d="M537.9,361.2v22c0,0.3-0.2,0.4-0.4,0.4h-2.8c-0.3,0-0.5-0.2-0.5-0.4v-22c0-0.3,0.1-0.4,0.5-0.4h2.8
		C537.8,360.8,537.9,360.9,537.9,361.2z"/>
	<path class="st2" d="M554.9,372.2v11c0,0.3-0.2,0.4-0.4,0.4h-2.6c-0.3,0-0.4-0.2-0.4-0.4v-2c-1,1.7-2.7,2.7-4.7,2.7
		c-3.1,0-5.1-2-5.1-5c0-3,2-4.7,6.3-5c1.2-0.1,2.3-0.1,3.4,0v-1.5c0-1.9-1-2.6-2.7-2.6s-2.3,0.6-2.8,1.8c-0.1,0.3-0.2,0.4-0.6,0.3
		l-2.6-0.7c-0.3-0.1-0.4-0.2-0.3-0.5c0.5-2.3,2.6-4,6.4-4C552.6,366.8,554.9,368.6,554.9,372.2z M551.3,378.3v-2c-1,0-2.1,0-3.1,0.1
		c-2,0.2-3.1,0.9-3.1,2.4c0,1.3,0.9,2.2,2.5,2.2C549.3,381,550.6,380,551.3,378.3z"/>
	<path class="st2" d="M563.1,373v10.2c0,0.3-0.2,0.4-0.4,0.4h-2.8c-0.3,0-0.5-0.2-0.5-0.4v-15.7c0-0.2,0.1-0.4,0.4-0.4h2.8
		c0.3,0,0.4,0.2,0.4,0.4v2c1-1.5,2.7-2.7,5-2.7c3.2,0,4.9,2.3,4.9,5.6v10.8c0,0.3-0.2,0.4-0.4,0.4h-2.9c-0.3,0-0.5-0.2-0.5-0.4V373
		c0-1.8-0.8-2.9-2.5-2.9C565,370.1,563.7,371.3,563.1,373z"/>
	<path class="st2" d="M581,373v10.2c0,0.3-0.2,0.4-0.4,0.4h-2.8c-0.3,0-0.5-0.2-0.5-0.4v-15.7c0-0.2,0.1-0.4,0.4-0.4h2.8
		c0.3,0,0.4,0.2,0.4,0.4v2c1-1.5,2.7-2.7,5-2.7c3.2,0,4.9,2.3,4.9,5.6v10.8c0,0.3-0.2,0.4-0.4,0.4h-2.9c-0.3,0-0.5-0.2-0.5-0.4V373
		c0-1.8-0.8-2.9-2.5-2.9C582.9,370.1,581.6,371.3,581,373z"/>
	<path class="st2" d="M598.3,376.5v1c0,2.1,1.1,3.5,3.5,3.5c2.2,0,2.9-0.9,3.5-2c0.2-0.4,0.4-0.5,0.8-0.3l1.9,1
		c0.4,0.2,0.5,0.5,0.3,0.8c-1,2.2-3.3,3.5-6.5,3.5c-4.6,0-7-2.7-7-6.6v-4.1c0-3.8,2.3-6.6,7-6.6c4.4,0,6.7,2.8,6.7,6.5v2.5
		c0,0.5-0.2,0.7-0.8,0.7H598.3z M598.3,373.2v0.9h6.7v-0.9c0-2-1.1-3.4-3.3-3.4C599.4,369.8,598.3,371.1,598.3,373.2z"/>
	<path class="st2" d="M611.9,377.6v-4.4c0-3.8,2.3-6.4,5.6-6.4c2.4,0,4,1.3,4.7,2.4v-8c0-0.2,0.1-0.4,0.4-0.4h2.9
		c0.2,0,0.4,0.2,0.4,0.4v22.1c0,0.2-0.2,0.4-0.4,0.4h-2.8c-0.2,0-0.4-0.2-0.4-0.4v-1.7c-0.7,1.2-2.3,2.4-4.7,2.4
		C614.1,384,611.9,381.5,611.9,377.6z M622.2,377.1v-3.4c0-2.3-1.5-3.7-3.4-3.7c-2.1,0-3.2,1.4-3.2,3.7v3.4c0,2.3,1.1,3.6,3.2,3.6
		C620.7,380.7,622.2,379.4,622.2,377.1z"/>
</g>
<g class="st1">
	<path class="st2" d="M172,618.8c0.1,0.4,0,0.6-0.3,0.7l-2.5,0.8c-0.4,0.1-0.5,0-0.6-0.4c-0.6-1.7-1.6-3-3.9-3
		c-2.8,0-4.1,1.7-4.1,4.7v6.2c0,2.9,1.4,4.7,4.1,4.7c2.5,0,3.6-1.3,4-3.2c0.1-0.4,0.3-0.5,0.6-0.4l2.5,0.8c0.3,0.1,0.4,0.3,0.3,0.7
		c-0.8,3.2-3.1,5.6-7.6,5.6c-5,0-7.9-3.2-7.9-8v-6.5c0-4.9,2.9-8,7.9-8C168.9,613.4,171.1,615.6,172,618.8z"/>
	<path class="st2" d="M189.2,625.4v3.9c0,3.9-2.3,6.7-7,6.7c-4.7,0-7-2.7-7-6.6v-3.9c0-3.9,2.3-6.8,7-6.8
		C187,618.8,189.2,621.6,189.2,625.4z M178.9,625.6v3.6c0,2.2,1.1,3.5,3.3,3.5c2.2,0,3.3-1.3,3.3-3.5v-3.6c0-2.2-1.1-3.6-3.3-3.6
		C180,622,178.9,623.4,178.9,625.6z"/>
</g>
<g class="st1">
	<path class="st2" d="M197,625v10.2c0,0.3-0.2,0.4-0.4,0.4h-2.8c-0.3,0-0.5-0.2-0.5-0.4v-15.7c0-0.2,0.1-0.4,0.4-0.4h2.8
		c0.3,0,0.4,0.2,0.4,0.4v2c1-1.5,2.7-2.7,5-2.7c3.1,0,4.9,2.3,4.9,5.6v10.8c0,0.3-0.1,0.4-0.4,0.4h-2.9c-0.3,0-0.5-0.2-0.5-0.4V625
		c0-1.8-0.8-2.9-2.5-2.9C198.9,622.1,197.6,623.3,197,625z"/>
</g>
<g class="st1">
	<path class="st2" d="M215.8,615.4v3.8h3.3c0.2,0,0.4,0.2,0.4,0.5v2.2c0,0.3-0.1,0.4-0.4,0.4h-3.3v8.3c0,1.2,0.7,1.8,2,1.8h1.3
		c0.3,0,0.4,0.1,0.4,0.4v2.4c0,0.3-0.1,0.4-0.4,0.4h-1.9c-3.4,0-5-1.8-5-4.6v-8.8h-2.1c-0.3,0-0.4-0.1-0.4-0.4v-2.2
		c0-0.3,0.1-0.5,0.4-0.5h2.1v-3.8c0-0.2,0.1-0.4,0.4-0.4h2.8C215.7,615,215.8,615.2,215.8,615.4z"/>
	<path class="st2" d="M226.7,613.3v2.9c0,0.4-0.2,0.5-0.5,0.5h-2.6c-0.4,0-0.6-0.2-0.6-0.5v-2.9c0-0.3,0.2-0.5,0.6-0.5h2.6
		C226.6,612.8,226.7,613,226.7,613.3z M226.7,619.5v15.7c0,0.3-0.1,0.4-0.4,0.4h-2.8c-0.3,0-0.5-0.2-0.5-0.4v-15.7
		c0-0.3,0.1-0.4,0.5-0.4h2.8C226.6,619.1,226.7,619.2,226.7,619.5z"/>
	<path class="st2" d="M235,625v10.2c0,0.3-0.1,0.4-0.4,0.4h-2.8c-0.3,0-0.5-0.2-0.5-0.4v-15.7c0-0.2,0.1-0.4,0.4-0.4h2.8
		c0.3,0,0.4,0.2,0.4,0.4v2c1-1.5,2.7-2.7,5-2.7c3.1,0,4.9,2.3,4.9,5.6v10.8c0,0.3-0.2,0.4-0.4,0.4h-2.9c-0.3,0-0.5-0.2-0.5-0.4V625
		c0-1.8-0.8-2.9-2.5-2.9C236.9,622.1,235.6,623.3,235,625z"/>
	<path class="st2" d="M249.1,630.3v-10.8c0-0.3,0.2-0.4,0.4-0.4h2.9c0.3,0,0.4,0.2,0.4,0.4v10.2c0,1.8,0.9,2.9,2.5,2.9
		c1.6,0,2.9-1.2,3.5-2.9v-10.2c0-0.3,0.1-0.4,0.4-0.4h2.9c0.3,0,0.4,0.2,0.4,0.4v15.8c0,0.2-0.1,0.4-0.4,0.4h-2.8
		c-0.3,0-0.4-0.2-0.4-0.4v-2c-1,1.5-2.7,2.7-5,2.7C250.9,636,249.1,633.7,249.1,630.3z"/>
	<path class="st2" d="M270.2,628.5v1c0,2.1,1.1,3.5,3.5,3.5c2.2,0,2.9-0.9,3.5-2c0.2-0.4,0.4-0.5,0.8-0.3l1.9,1
		c0.4,0.2,0.5,0.5,0.3,0.8c-1,2.2-3.3,3.5-6.4,3.5c-4.6,0-7-2.7-7-6.6v-4.1c0-3.8,2.3-6.6,7-6.6c4.4,0,6.7,2.8,6.7,6.5v2.5
		c0,0.5-0.2,0.7-0.8,0.7H270.2z M270.2,625.2v0.9h6.7v-0.9c0-2-1.1-3.4-3.3-3.4C271.4,621.8,270.2,623.1,270.2,625.2z"/>
	<path class="st2" d="M283.8,629.6v-4.4c0-3.8,2.2-6.4,5.6-6.4c2.4,0,4,1.3,4.7,2.4v-8c0-0.2,0.1-0.4,0.4-0.4h2.9
		c0.2,0,0.4,0.2,0.4,0.4v22.1c0,0.2-0.1,0.4-0.4,0.4h-2.8c-0.2,0-0.4-0.2-0.4-0.4v-1.7c-0.7,1.2-2.3,2.4-4.7,2.4
		C286,636,283.8,633.5,283.8,629.6z M294.2,629.1v-3.4c0-2.3-1.5-3.7-3.4-3.7c-2.1,0-3.2,1.4-3.2,3.7v3.4c0,2.3,1.1,3.6,3.2,3.6
		C292.6,632.7,294.2,631.4,294.2,629.1z"/>
</g>
<g class="st1">
	<path class="st2" d="M325,620.5v1.4c0,4.2-2.4,6.8-7.2,6.8h-3.2v6.5c0,0.3-0.1,0.4-0.4,0.4h-3c-0.3,0-0.4-0.2-0.4-0.4v-21.1
		c0-0.2,0.2-0.4,0.4-0.4h6.7C322.6,613.7,325,616.4,325,620.5z M314.6,617.1v8.1h2.9c2.7,0,3.6-1.2,3.6-3.6v-0.9
		c0-2.3-0.9-3.6-3.6-3.6H314.6z"/>
</g>
<g class="st1">
	<path class="st2" d="M337.7,619.3v2.6c0,0.3-0.1,0.4-0.5,0.4h-0.4c-2.4,0-3.9,1.2-4.5,3.1v9.8c0,0.3-0.2,0.4-0.4,0.4h-3
		c-0.2,0-0.4-0.1-0.4-0.4v-15.8c0-0.3,0.2-0.4,0.4-0.4h2.7c0.3,0,0.4,0.2,0.4,0.4l0,2.3c0.8-1.5,2.4-3,4.9-3
		C337.6,618.9,337.7,619,337.7,619.3z"/>
</g>
<g class="st1">
	<path class="st2" d="M353.9,625.4v3.9c0,3.9-2.3,6.7-7,6.7c-4.7,0-7-2.7-7-6.6v-3.9c0-3.9,2.3-6.8,7-6.8
		C351.7,618.8,353.9,621.6,353.9,625.4z M343.6,625.6v3.6c0,2.2,1.1,3.5,3.3,3.5c2.2,0,3.3-1.3,3.3-3.5v-3.6c0-2.2-1.1-3.6-3.3-3.6
		C344.7,622,343.6,623.4,343.6,625.6z"/>
	<path class="st2" d="M371.7,636.8c0,2.8-2.1,5.2-7.8,5.2c-5.1,0-7.1-1.8-7.1-4.4c0-1.4,0.8-2.7,2.5-3.5c-0.8-0.6-1.2-1.5-1.2-2.2
		c0-1,0.6-1.9,1.7-2.4c-1.7-1-2.6-2.6-2.6-4.6c0-3.3,2-5.7,6.4-5.7h7.4c0.2,0,0.3,0.2,0.3,0.4v2.1c0,0.3-0.2,0.4-0.4,0.4h-2.6
		c0.9,0.7,1.5,1.9,1.5,3.4c0,2.9-2,5-6.2,5h-1.1c-1,0-1.4,0.4-1.4,1c0,0.5,0.4,0.9,1.4,0.9l3.4,0
		C370.1,632.3,371.7,634.2,371.7,636.8z M368.2,637.1c0-1-0.6-1.9-2.5-1.9h-3c-1.8,0-2.4,0.9-2.4,1.9c0,1.4,1.1,2.3,3.9,2.3
		C366.9,639.4,368.2,638.4,368.2,637.1z M360.7,624.8c0,1.8,1,3,3.1,3c1.9,0,3-1.1,3-3c0-1.8-1-3-3-3
		C361.8,621.9,360.7,623,360.7,624.8z"/>
</g>
<g class="st1">
	<path class="st2" d="M384,619.3v2.6c0,0.3-0.1,0.4-0.5,0.4h-0.4c-2.4,0-3.9,1.2-4.5,3.1v9.8c0,0.3-0.2,0.4-0.4,0.4h-3
		c-0.2,0-0.4-0.1-0.4-0.4v-15.8c0-0.3,0.2-0.4,0.4-0.4h2.7c0.3,0,0.4,0.2,0.4,0.4l0,2.3c0.8-1.5,2.4-3,4.9-3
		C383.9,618.9,384,619,384,619.3z"/>
</g>
<g class="st1">
	<path class="st2" d="M399.1,624.2v11c0,0.3-0.1,0.4-0.4,0.4h-2.6c-0.3,0-0.4-0.2-0.4-0.4v-2c-1,1.7-2.7,2.7-4.7,2.7
		c-3.1,0-5.1-2-5.1-5c0-3,2-4.7,6.3-5c1.2-0.1,2.3-0.1,3.4,0v-1.5c0-1.9-1-2.6-2.7-2.6s-2.3,0.6-2.8,1.8c-0.1,0.3-0.2,0.4-0.6,0.3
		l-2.6-0.7c-0.3-0.1-0.4-0.2-0.3-0.5c0.5-2.3,2.6-4,6.4-4C396.8,618.8,399.1,620.6,399.1,624.2z M395.5,630.3v-2c-1,0-2.1,0-3.1,0.1
		c-1.9,0.2-3.1,0.9-3.1,2.4c0,1.3,0.9,2.2,2.5,2.2C393.5,633,394.8,632,395.5,630.3z"/>
	<path class="st2" d="M411.7,618.8c2.2,0,3.5,1.3,4.1,3c1.2-1.8,2.8-3,4.8-3c2.8,0,4.5,2.2,4.5,5.4v11c0,0.3-0.2,0.4-0.5,0.4h-2.7
		c-0.3,0-0.5-0.2-0.5-0.4v-10.3c0-1.7-0.8-2.7-2.1-2.7c-1.3,0-2.5,1-3.1,2.8v10.3c0,0.3-0.2,0.4-0.4,0.4h-2.9
		c-0.3,0-0.4-0.2-0.4-0.4v-10.3c0-1.7-0.8-2.7-2.1-2.7c-1.4,0-2.6,1.2-3.1,2.8v10.2c0,0.3-0.1,0.4-0.4,0.4H404
		c-0.3,0-0.4-0.2-0.4-0.4v-15.7c0-0.2,0.1-0.4,0.4-0.4h2.8c0.3,0,0.4,0.2,0.4,0.4v2C408.1,620.1,409.6,618.8,411.7,618.8z"/>
	<path class="st2" d="M437.7,618.8c2.2,0,3.5,1.3,4.1,3c1.2-1.8,2.8-3,4.8-3c2.8,0,4.5,2.2,4.5,5.4v11c0,0.3-0.2,0.4-0.5,0.4h-2.7
		c-0.3,0-0.5-0.2-0.5-0.4v-10.3c0-1.7-0.8-2.7-2.1-2.7c-1.3,0-2.5,1-3.1,2.8v10.3c0,0.3-0.2,0.4-0.4,0.4h-2.9
		c-0.3,0-0.4-0.2-0.4-0.4v-10.3c0-1.7-0.8-2.7-2.1-2.7c-1.4,0-2.6,1.2-3.1,2.8v10.2c0,0.3-0.1,0.4-0.4,0.4H430
		c-0.3,0-0.4-0.2-0.4-0.4v-15.7c0-0.2,0.1-0.4,0.4-0.4h2.8c0.3,0,0.4,0.2,0.4,0.4v2C434.1,620.1,435.6,618.8,437.7,618.8z"/>
	<path class="st2" d="M459.3,613.3v2.9c0,0.4-0.2,0.5-0.5,0.5h-2.6c-0.4,0-0.6-0.2-0.6-0.5v-2.9c0-0.3,0.2-0.5,0.6-0.5h2.6
		C459.1,612.8,459.3,613,459.3,613.3z M459.3,619.5v15.7c0,0.3-0.1,0.4-0.4,0.4H456c-0.3,0-0.5-0.2-0.5-0.4v-15.7
		c0-0.3,0.2-0.4,0.5-0.4h2.8C459.1,619.1,459.3,619.2,459.3,619.5z"/>
	<path class="st2" d="M467.6,625v10.2c0,0.3-0.1,0.4-0.4,0.4h-2.8c-0.3,0-0.5-0.2-0.5-0.4v-15.7c0-0.2,0.1-0.4,0.4-0.4h2.8
		c0.3,0,0.4,0.2,0.4,0.4v2c1-1.5,2.7-2.7,5-2.7c3.1,0,4.9,2.3,4.9,5.6v10.8c0,0.3-0.2,0.4-0.4,0.4h-2.8c-0.3,0-0.5-0.2-0.5-0.4V625
		c0-1.8-0.8-2.9-2.5-2.9C469.5,622.1,468.2,623.3,467.6,625z"/>
	<path class="st2" d="M495.5,636.8c0,2.8-2.1,5.2-7.8,5.2c-5.1,0-7.1-1.8-7.1-4.4c0-1.4,0.8-2.7,2.5-3.5c-0.8-0.6-1.2-1.5-1.2-2.2
		c0-1,0.6-1.9,1.7-2.4c-1.7-1-2.6-2.6-2.6-4.6c0-3.3,2-5.7,6.4-5.7h7.4c0.2,0,0.3,0.2,0.3,0.4v2.1c0,0.3-0.2,0.4-0.4,0.4h-2.6
		c0.9,0.7,1.5,1.9,1.5,3.4c0,2.9-2,5-6.2,5h-1c-1,0-1.4,0.4-1.4,1c0,0.5,0.5,0.9,1.4,0.9l3.4,0C493.9,632.3,495.5,634.2,495.5,636.8
		z M492,637.1c0-1-0.6-1.9-2.5-1.9h-3c-1.8,0-2.4,0.9-2.4,1.9c0,1.4,1.1,2.3,3.9,2.3S492,638.4,492,637.1z M484.5,624.8
		c0,1.8,1,3,3.1,3c1.9,0,3-1.1,3-3c0-1.8-1-3-3-3C485.6,621.9,484.5,623,484.5,624.8z"/>
</g>
<g class="st1">
	<path class="st2" d="M522.1,635.6h-3.3c-0.3,0-0.4-0.1-0.6-0.4l-4.2-7.8h-3.1v7.8c0,0.3-0.1,0.4-0.4,0.4h-3c-0.3,0-0.4-0.2-0.4-0.4
		v-21.1c0-0.3,0.1-0.4,0.4-0.4h7.2c4.7,0,7,2.7,7,6.4v0.8c0,2.9-1.3,5.1-4,6l4.6,8.2C522.5,635.3,522.4,635.6,522.1,635.6z
		 M510.9,624.1h3.5c2.5,0,3.5-1.2,3.5-3.2v-0.5c0-2-1-3.2-3.5-3.2h-3.5V624.1z"/>
</g>
<g class="st1">
	<path class="st2" d="M528.9,628.5v1c0,2.1,1.1,3.5,3.5,3.5c2.2,0,2.9-0.9,3.5-2c0.2-0.4,0.4-0.5,0.8-0.3l1.9,1
		c0.4,0.2,0.5,0.5,0.3,0.8c-1,2.2-3.3,3.5-6.5,3.5c-4.6,0-7-2.7-7-6.6v-4.1c0-3.8,2.3-6.6,7-6.6c4.4,0,6.7,2.8,6.7,6.5v2.5
		c0,0.5-0.2,0.7-0.8,0.7H528.9z M528.9,625.2v0.9h6.7v-0.9c0-2-1.1-3.4-3.3-3.4C530,621.8,528.9,623.1,528.9,625.2z"/>
	<path class="st2" d="M554.8,622.7c0.1,0.3,0,0.5-0.3,0.6l-2.2,0.8c-0.3,0.1-0.5,0-0.6-0.3c-0.5-1.3-1.6-2-3.2-2
		c-1.7,0-2.7,0.7-2.7,1.8c0,1,0.7,1.4,3.9,2.3c3.8,1,5.2,2.5,5.2,5.1c0,3.1-2.5,5.1-6.4,5.1c-3.5,0-6-1.4-6.8-3.9
		c-0.1-0.3,0-0.5,0.4-0.7l1.9-1c0.4-0.1,0.5-0.1,0.7,0.4c0.5,1.4,1.9,2.2,3.7,2.2c1.9,0,2.9-0.7,2.9-1.9c0-1.1-0.9-1.7-4-2.5
		c-3.6-1-5.1-2.4-5.1-5c0-3,2.4-5,6.1-5C551.7,618.8,554.1,620.2,554.8,622.7z"/>
	<path class="st2" d="M561.8,628.5v1c0,2.1,1.1,3.5,3.5,3.5c2.2,0,2.9-0.9,3.5-2c0.2-0.4,0.4-0.5,0.8-0.3l1.9,1
		c0.4,0.2,0.5,0.5,0.3,0.8c-1,2.2-3.3,3.5-6.5,3.5c-4.6,0-7-2.7-7-6.6v-4.1c0-3.8,2.3-6.6,7-6.6c4.4,0,6.7,2.8,6.7,6.5v2.5
		c0,0.5-0.2,0.7-0.8,0.7H561.8z M561.8,625.2v0.9h6.7v-0.9c0-2-1.1-3.4-3.3-3.4C563,621.8,561.8,623.1,561.8,625.2z"/>
	<path class="st2" d="M588.3,624.2v11c0,0.3-0.2,0.4-0.4,0.4h-2.6c-0.3,0-0.4-0.2-0.4-0.4v-2c-1,1.7-2.7,2.7-4.7,2.7
		c-3.1,0-5.1-2-5.1-5c0-3,2-4.7,6.3-5c1.2-0.1,2.3-0.1,3.4,0v-1.5c0-1.9-1-2.6-2.7-2.6s-2.3,0.6-2.8,1.8c-0.1,0.3-0.2,0.4-0.6,0.3
		l-2.6-0.7c-0.3-0.1-0.4-0.2-0.3-0.5c0.5-2.3,2.6-4,6.4-4C586,618.8,588.3,620.6,588.3,624.2z M584.7,630.3v-2c-1,0-2.1,0-3.1,0.1
		c-2,0.2-3.1,0.9-3.1,2.4c0,1.3,0.9,2.2,2.5,2.2C582.7,633,584,632,584.7,630.3z"/>
</g>
<g class="st1">
	<path class="st2" d="M601.8,619.3v2.6c0,0.3-0.1,0.4-0.5,0.4h-0.4c-2.4,0-3.9,1.2-4.5,3.1v9.8c0,0.3-0.2,0.4-0.4,0.4h-3
		c-0.2,0-0.4-0.1-0.4-0.4v-15.8c0-0.3,0.2-0.4,0.4-0.4h2.7c0.3,0,0.4,0.2,0.4,0.4l0,2.3c0.8-1.5,2.4-3,5-3
		C601.7,618.9,601.8,619,601.8,619.3z"/>
</g>
<g class="st1">
	<path class="st2" d="M617.1,623.5c0,0.3,0,0.5-0.4,0.5l-2.3,0.6c-0.5,0.1-0.5,0.1-0.7-0.3c-0.3-1-0.8-2.4-3-2.4
		c-2,0-3.1,1.3-3.1,3.6v3.6c0,2.2,1.1,3.5,3.1,3.5c2,0,2.6-0.9,3.1-2.3c0.1-0.4,0.3-0.5,0.6-0.3l2.3,0.8c0.4,0.1,0.4,0.3,0.3,0.6
		c-0.5,2.3-2.7,4.4-6.5,4.4c-4.2,0-6.6-2.7-6.6-6.6v-4c0-3.8,2.4-6.7,6.6-6.7C614.1,618.8,616.6,620.5,617.1,623.5z"/>
	<path class="st2" d="M624.4,613.2v8.3c1-1.5,2.6-2.7,4.9-2.7c3.2,0,4.9,2.3,4.9,5.6v10.8c0,0.4-0.2,0.4-0.4,0.4h-2.9
		c-0.3,0-0.4-0.2-0.4-0.4V625c0-1.8-0.8-2.8-2.5-2.8c-1.6,0-2.9,1.1-3.5,2.8v10.2c0,0.3-0.2,0.4-0.4,0.4h-2.8
		c-0.3,0-0.5-0.2-0.5-0.4v-22c0-0.3,0.2-0.4,0.5-0.4h2.8C624.3,612.8,624.4,612.9,624.4,613.2z"/>
</g>
<g class="st1">
	<path class="st2" d="M181.7,923.6h-3.3c-0.3,0-0.4-0.1-0.6-0.4l-4.2-7.8h-3.1v7.8c0,0.3-0.1,0.4-0.4,0.4h-3c-0.3,0-0.4-0.2-0.4-0.4
		v-21.1c0-0.3,0.1-0.4,0.4-0.4h7.2c4.7,0,7,2.7,7,6.4v0.8c0,2.9-1.3,5.1-4,6l4.6,8.2C182.2,923.3,182.1,923.6,181.7,923.6z
		 M170.5,912.1h3.5c2.5,0,3.5-1.2,3.5-3.2v-0.5c0-2-1-3.2-3.5-3.2h-3.5V912.1z"/>
</g>
<g class="st1">
	<path class="st2" d="M188.5,916.5v1c0,2.1,1.1,3.5,3.5,3.5c2.2,0,2.9-0.9,3.5-2c0.2-0.4,0.4-0.5,0.8-0.3l1.9,1
		c0.4,0.2,0.5,0.5,0.3,0.8c-1,2.2-3.3,3.5-6.4,3.5c-4.6,0-7-2.7-7-6.6v-4.1c0-3.8,2.3-6.6,7-6.6c4.4,0,6.7,2.8,6.7,6.5v2.5
		c0,0.5-0.2,0.7-0.8,0.7H188.5z M188.5,913.2v0.9h6.7v-0.9c0-2-1.1-3.4-3.3-3.4S188.5,911.1,188.5,913.2z"/>
</g>
<g class="st1">
	<path class="st2" d="M215.6,907.6l-5.2,15.6c-0.1,0.3-0.3,0.4-0.5,0.4h-3.5c-0.4,0-0.5-0.2-0.6-0.4l-5.1-15.6
		c-0.1-0.3,0.1-0.5,0.3-0.5h3c0.3,0,0.4,0.1,0.5,0.4l2.1,6.9c0.7,2.3,1.2,4.5,1.5,6.1h0.1c0.3-1.6,0.9-3.9,1.5-6.1l2.1-6.9
		c0.1-0.3,0.3-0.4,0.5-0.4h2.9C215.5,907.1,215.7,907.3,215.6,907.6z"/>
	<path class="st2" d="M222.4,901.3v2.9c0,0.4-0.2,0.5-0.5,0.5h-2.6c-0.4,0-0.6-0.2-0.6-0.5v-2.9c0-0.3,0.2-0.5,0.6-0.5h2.6
		C222.2,900.8,222.4,901,222.4,901.3z M222.4,907.5v15.7c0,0.3-0.2,0.4-0.4,0.4h-2.8c-0.3,0-0.5-0.2-0.5-0.4v-15.7
		c0-0.3,0.1-0.4,0.5-0.4h2.8C222.2,907.1,222.4,907.2,222.4,907.5z"/>
	<path class="st2" d="M238.9,910.7c0.1,0.3,0,0.5-0.3,0.6l-2.2,0.8c-0.3,0.1-0.5,0-0.6-0.3c-0.5-1.3-1.6-2-3.2-2
		c-1.7,0-2.7,0.7-2.7,1.8c0,1,0.7,1.4,3.9,2.3c3.8,1,5.2,2.5,5.2,5.1c0,3.1-2.5,5.1-6.4,5.1c-3.5,0-6-1.4-6.8-3.9
		c-0.1-0.3,0-0.5,0.4-0.7l1.9-1c0.4-0.1,0.5-0.1,0.7,0.4c0.4,1.4,1.9,2.2,3.7,2.2c1.9,0,2.9-0.7,2.9-1.9c0-1.1-0.9-1.7-4-2.5
		c-3.6-1-5.1-2.4-5.1-5c0-3,2.4-5,6.1-5C235.8,906.8,238.1,908.2,238.9,910.7z"/>
	<path class="st2" d="M246.5,901.3v2.9c0,0.4-0.2,0.5-0.5,0.5h-2.6c-0.4,0-0.6-0.2-0.6-0.5v-2.9c0-0.3,0.2-0.5,0.6-0.5h2.6
		C246.4,900.8,246.5,901,246.5,901.3z M246.5,907.5v15.7c0,0.3-0.2,0.4-0.4,0.4h-2.8c-0.3,0-0.5-0.2-0.5-0.4v-15.7
		c0-0.3,0.1-0.4,0.5-0.4h2.8C246.4,907.1,246.5,907.2,246.5,907.5z"/>
	<path class="st2" d="M255.8,903.4v3.8h3.3c0.2,0,0.4,0.2,0.4,0.5v2.2c0,0.3-0.1,0.4-0.4,0.4h-3.3v8.3c0,1.2,0.7,1.8,2,1.8h1.3
		c0.3,0,0.4,0.1,0.4,0.4v2.4c0,0.3-0.1,0.4-0.4,0.4h-1.9c-3.4,0-5-1.8-5-4.6v-8.8h-2.1c-0.3,0-0.4-0.1-0.4-0.4v-2.2
		c0-0.3,0.1-0.5,0.4-0.5h2.1v-3.8c0-0.2,0.1-0.4,0.4-0.4h2.8C255.7,903,255.8,903.2,255.8,903.4z"/>
	<path class="st2" d="M266.1,916.5v1c0,2.1,1.1,3.5,3.5,3.5c2.2,0,2.9-0.9,3.5-2c0.2-0.4,0.4-0.5,0.8-0.3l1.9,1
		c0.4,0.2,0.5,0.5,0.3,0.8c-1,2.2-3.3,3.5-6.4,3.5c-4.6,0-7-2.7-7-6.6v-4.1c0-3.8,2.3-6.6,7-6.6c4.4,0,6.7,2.8,6.7,6.5v2.5
		c0,0.5-0.2,0.7-0.8,0.7H266.1z M266.1,913.2v0.9h6.7v-0.9c0-2-1.1-3.4-3.3-3.4C267.2,909.8,266.1,911.1,266.1,913.2z"/>
	<path class="st2" d="M279.7,917.6v-4.4c0-3.8,2.3-6.4,5.6-6.4c2.4,0,4,1.3,4.7,2.4v-8c0-0.2,0.1-0.4,0.4-0.4h2.9
		c0.2,0,0.4,0.2,0.4,0.4v22.1c0,0.2-0.1,0.4-0.4,0.4h-2.8c-0.2,0-0.4-0.2-0.4-0.4v-1.7c-0.7,1.2-2.3,2.4-4.7,2.4
		C281.9,924,279.7,921.5,279.7,917.6z M290,917.1v-3.4c0-2.3-1.5-3.7-3.4-3.7c-2.1,0-3.2,1.4-3.2,3.7v3.4c0,2.3,1.1,3.6,3.2,3.6
		C288.5,920.7,290,919.4,290,917.1z"/>
</g>
<g class="st1">
	<path class="st2" d="M326.9,902.3v21c0,0.3-0.1,0.4-0.4,0.4h-2.7c-0.2,0-0.4-0.2-0.4-0.4v-11.9c0-1.7,0.1-4.3,0.2-5.9h-0.1
		l-4.8,17.7c-0.1,0.4-0.3,0.5-0.7,0.5h-2.6c-0.4,0-0.6-0.2-0.7-0.5l-4.9-17.7h-0.1c0.1,1.6,0.3,4.3,0.3,5.9v11.9
		c0,0.3-0.1,0.4-0.4,0.4H307c-0.2,0-0.4-0.2-0.4-0.4v-21c0-0.4,0.2-0.6,0.6-0.6h4.4c0.4,0,0.6,0.2,0.7,0.5l3,10.8
		c0.7,2.5,1.1,4.3,1.5,6.4h0.1c0.4-2.2,0.8-4,1.5-6.5l3-10.7c0.1-0.4,0.3-0.6,0.7-0.6h4.3C326.7,901.7,326.9,901.9,326.9,902.3z"/>
</g>
<g class="st1">
	<path class="st2" d="M344.2,912.2v11c0,0.3-0.1,0.4-0.4,0.4h-2.6c-0.3,0-0.4-0.2-0.4-0.4v-2c-1,1.7-2.7,2.7-4.7,2.7
		c-3.1,0-5.1-2-5.1-5c0-3,2-4.7,6.3-5c1.2-0.1,2.3-0.1,3.4,0v-1.5c0-1.9-1-2.6-2.7-2.6s-2.3,0.6-2.8,1.8c-0.1,0.3-0.2,0.4-0.6,0.3
		l-2.6-0.7c-0.3-0.1-0.4-0.2-0.3-0.5c0.5-2.3,2.6-4,6.4-4C341.8,906.8,344.2,908.6,344.2,912.2z M340.6,918.3v-2c-1,0-2.1,0-3.1,0.1
		c-1.9,0.2-3.1,0.9-3.1,2.4c0,1.3,0.9,2.2,2.5,2.2C338.6,921,339.9,920,340.6,918.3z"/>
</g>
<g class="st1">
	<path class="st2" d="M353.2,903.4v3.8h3.3c0.2,0,0.4,0.2,0.4,0.5v2.2c0,0.3-0.1,0.4-0.4,0.4h-3.3v8.3c0,1.2,0.7,1.8,2,1.8h1.3
		c0.3,0,0.4,0.1,0.4,0.4v2.4c0,0.3-0.1,0.4-0.4,0.4h-1.9c-3.4,0-5-1.8-5-4.6v-8.8h-2.1c-0.3,0-0.4-0.1-0.4-0.4v-2.2
		c0-0.3,0.2-0.5,0.4-0.5h2.1v-3.8c0-0.2,0.1-0.4,0.4-0.4h2.8C353.1,903,353.2,903.2,353.2,903.4z"/>
	<path class="st2" d="M363.5,916.5v1c0,2.1,1.1,3.5,3.5,3.5c2.2,0,2.9-0.9,3.5-2c0.2-0.4,0.4-0.5,0.8-0.3l1.9,1
		c0.4,0.2,0.5,0.5,0.3,0.8c-1,2.2-3.3,3.5-6.4,3.5c-4.6,0-7-2.7-7-6.6v-4.1c0-3.8,2.3-6.6,7-6.6c4.4,0,6.7,2.8,6.7,6.5v2.5
		c0,0.5-0.2,0.7-0.8,0.7H363.5z M363.5,913.2v0.9h6.7v-0.9c0-2-1.1-3.4-3.3-3.4S363.5,911.1,363.5,913.2z"/>
	<path class="st2" d="M386.6,907.3v2.6c0,0.3-0.1,0.4-0.5,0.4h-0.4c-2.4,0-3.9,1.2-4.5,3.1v9.8c0,0.3-0.2,0.4-0.4,0.4h-3
		c-0.2,0-0.4-0.1-0.4-0.4v-15.8c0-0.3,0.2-0.4,0.4-0.4h2.7c0.3,0,0.4,0.2,0.4,0.4l0,2.3c0.8-1.5,2.4-3,4.9-3
		C386.5,906.9,386.6,907,386.6,907.3z"/>
	<path class="st2" d="M393.4,901.3v2.9c0,0.4-0.2,0.5-0.5,0.5h-2.6c-0.4,0-0.6-0.2-0.6-0.5v-2.9c0-0.3,0.2-0.5,0.6-0.5h2.6
		C393.2,900.8,393.4,901,393.4,901.3z M393.4,907.5v15.7c0,0.3-0.2,0.4-0.4,0.4h-2.8c-0.3,0-0.5-0.2-0.5-0.4v-15.7
		c0-0.3,0.2-0.4,0.5-0.4h2.8C393.2,907.1,393.4,907.2,393.4,907.5z"/>
	<path class="st2" d="M410.3,912.2v11c0,0.3-0.1,0.4-0.4,0.4h-2.6c-0.3,0-0.4-0.2-0.4-0.4v-2c-1,1.7-2.7,2.7-4.7,2.7
		c-3.1,0-5.1-2-5.1-5c0-3,2-4.7,6.3-5c1.2-0.1,2.3-0.1,3.4,0v-1.5c0-1.9-1-2.6-2.7-2.6s-2.3,0.6-2.8,1.8c-0.1,0.3-0.2,0.4-0.6,0.3
		l-2.6-0.7c-0.3-0.1-0.4-0.2-0.3-0.5c0.5-2.3,2.6-4,6.4-4C408,906.8,410.3,908.6,410.3,912.2z M406.7,918.3v-2c-1,0-2.1,0-3.1,0.1
		c-1.9,0.2-3.1,0.9-3.1,2.4c0,1.3,0.9,2.2,2.5,2.2C404.8,921,406,920,406.7,918.3z"/>
	<path class="st2" d="M418.5,901.2v22c0,0.3-0.2,0.4-0.4,0.4h-2.8c-0.3,0-0.5-0.2-0.5-0.4v-22c0-0.3,0.2-0.4,0.5-0.4h2.8
		C418.3,900.8,418.5,900.9,418.5,901.2z"/>
</g>
<g class="st1">
</g>
<g class="st1">
	<path class="st2" d="M444.9,902.1v2.7c0,0.2-0.2,0.4-0.4,0.4h-5.8v18c0,0.2-0.2,0.4-0.4,0.4h-3.1c-0.2,0-0.4-0.2-0.4-0.4v-18h-5.8
		c-0.2,0-0.4-0.2-0.4-0.4v-2.7c0-0.2,0.1-0.4,0.4-0.4h15.4C444.7,901.7,444.9,901.9,444.9,902.1z"/>
</g>
<g class="st1">
	<path class="st2" d="M448.4,916.5v1c0,2.1,1.1,3.5,3.5,3.5c2.2,0,2.9-0.9,3.5-2c0.2-0.4,0.4-0.5,0.8-0.3l1.9,1
		c0.4,0.2,0.5,0.5,0.3,0.8c-1,2.2-3.3,3.5-6.5,3.5c-4.6,0-7-2.7-7-6.6v-4.1c0-3.8,2.3-6.6,7-6.6c4.4,0,6.7,2.8,6.7,6.5v2.5
		c0,0.5-0.2,0.7-0.8,0.7H448.4z M448.4,913.2v0.9h6.7v-0.9c0-2-1.1-3.4-3.3-3.4C449.5,909.8,448.4,911.1,448.4,913.2z"/>
</g>
<g class="st1">
	<path class="st2" d="M474.4,910.7c0.1,0.3,0,0.5-0.3,0.6l-2.2,0.8c-0.3,0.1-0.5,0-0.6-0.3c-0.5-1.3-1.6-2-3.2-2
		c-1.7,0-2.7,0.7-2.7,1.8c0,1,0.7,1.4,3.9,2.3c3.8,1,5.3,2.5,5.3,5.1c0,3.1-2.5,5.1-6.4,5.1c-3.5,0-6-1.4-6.8-3.9
		c-0.1-0.3,0-0.5,0.4-0.7l2-1c0.4-0.1,0.5-0.1,0.7,0.4c0.4,1.4,1.9,2.2,3.7,2.2c1.9,0,2.9-0.7,2.9-1.9c0-1.1-0.9-1.7-4-2.5
		c-3.6-1-5.1-2.4-5.1-5c0-3,2.4-5,6.1-5C471.3,906.8,473.6,908.2,474.4,910.7z"/>
</g>
<g class="st1">
	<path class="st2" d="M483,903.4v3.8h3.3c0.2,0,0.4,0.2,0.4,0.5v2.2c0,0.3-0.2,0.4-0.4,0.4H483v8.3c0,1.2,0.7,1.8,2,1.8h1.3
		c0.3,0,0.4,0.1,0.4,0.4v2.4c0,0.3-0.2,0.4-0.4,0.4h-1.9c-3.4,0-5-1.8-5-4.6v-8.8h-2.1c-0.3,0-0.4-0.1-0.4-0.4v-2.2
		c0-0.3,0.1-0.5,0.4-0.5h2.1v-3.8c0-0.2,0.2-0.4,0.4-0.4h2.8C482.9,903,483,903.2,483,903.4z"/>
	<path class="st2" d="M511.9,907.1v0.4c0,2.3-1.3,4-3.4,4.7c2.3,0.5,3.8,2.4,3.8,5v0.4c0,3.9-2.9,6.4-7.5,6.4
		c-4.3,0-6.6-2.4-7.3-5.2c-0.1-0.3,0-0.6,0.3-0.7l2.4-0.8c0.4-0.1,0.6,0,0.7,0.3c0.7,1.9,1.8,3,4,3c2.3,0,3.6-1.3,3.6-3.1v-0.4
		c0-2-1.2-3-3.8-3H503c-0.3,0-0.5-0.2-0.5-0.5v-2.5c0-0.2,0.1-0.4,0.5-0.4h1.6c2.2,0,3.5-1.1,3.5-2.9v-0.3c0-1.9-1.3-2.8-3.4-2.8
		c-1.8,0-3,0.8-3.6,2.5c-0.1,0.3-0.3,0.4-0.6,0.2l-2.3-1.2c-0.2-0.1-0.3-0.3-0.2-0.6c1-2.6,3.1-4.3,7-4.3
		C509.5,901.4,511.9,903.8,511.9,907.1z"/>
	<path class="st2" d="M532.8,909.7v5.8c0,4.7-2.9,8.1-8.6,8.1h-6.8c-0.3,0-0.4-0.2-0.4-0.4v-21.1c0-0.3,0.1-0.4,0.4-0.4h6.8
		C530,901.7,532.8,905.1,532.8,909.7z M520.8,905.3v14.8h3.3c3.4,0,4.9-1.7,4.9-4.6v-5.5c0-2.9-1.4-4.7-4.9-4.7H520.8z"/>
</g>
<g class="st1">
	<path class="st2" d="M559.7,908.5v1.4c0,4.2-2.4,6.8-7.2,6.8h-3.2v6.5c0,0.3-0.2,0.4-0.5,0.4h-3c-0.3,0-0.4-0.2-0.4-0.4v-21.1
		c0-0.2,0.2-0.4,0.4-0.4h6.7C557.3,901.7,559.7,904.4,559.7,908.5z M549.3,905.1v8.1h2.9c2.7,0,3.6-1.2,3.6-3.6v-0.9
		c0-2.3-0.9-3.6-3.6-3.6H549.3z"/>
</g>
<g class="st1">
	<path class="st2" d="M572.4,907.3v2.6c0,0.3-0.1,0.4-0.5,0.4h-0.4c-2.4,0-3.9,1.2-4.5,3.1v9.8c0,0.3-0.2,0.4-0.4,0.4h-3
		c-0.2,0-0.4-0.1-0.4-0.4v-15.8c0-0.3,0.2-0.4,0.4-0.4h2.7c0.3,0,0.4,0.2,0.4,0.4l0,2.3c0.8-1.5,2.4-3,5-3
		C572.3,906.9,572.4,907,572.4,907.3z"/>
	<path class="st2" d="M579.1,901.3v2.9c0,0.4-0.2,0.5-0.5,0.5H576c-0.4,0-0.6-0.2-0.6-0.5v-2.9c0-0.3,0.2-0.5,0.6-0.5h2.6
		C579,900.8,579.1,901,579.1,901.3z M579.1,907.5v15.7c0,0.3-0.2,0.4-0.4,0.4h-2.8c-0.3,0-0.5-0.2-0.5-0.4v-15.7
		c0-0.3,0.1-0.4,0.5-0.4h2.8C579,907.1,579.1,907.2,579.1,907.5z"/>
</g>
<g class="st1">
	<path class="st2" d="M587.4,913v10.2c0,0.3-0.2,0.4-0.4,0.4h-2.8c-0.3,0-0.5-0.2-0.5-0.4v-15.7c0-0.2,0.1-0.4,0.4-0.4h2.8
		c0.3,0,0.4,0.2,0.4,0.4v2c1-1.5,2.7-2.7,5-2.7c3.2,0,4.9,2.3,4.9,5.6v10.8c0,0.3-0.2,0.4-0.4,0.4h-2.9c-0.3,0-0.5-0.2-0.5-0.4V913
		c0-1.8-0.8-2.9-2.5-2.9C589.3,910.1,588,911.3,587.4,913z"/>
</g>
<g class="st1">
	<path class="st2" d="M606.2,903.4v3.8h3.3c0.2,0,0.4,0.2,0.4,0.5v2.2c0,0.3-0.2,0.4-0.4,0.4h-3.3v8.3c0,1.2,0.7,1.8,2,1.8h1.3
		c0.3,0,0.4,0.1,0.4,0.4v2.4c0,0.3-0.2,0.4-0.4,0.4h-1.9c-3.4,0-5-1.8-5-4.6v-8.8h-2.1c-0.3,0-0.4-0.1-0.4-0.4v-2.2
		c0-0.3,0.1-0.5,0.4-0.5h2.1v-3.8c0-0.2,0.2-0.4,0.4-0.4h2.8C606.1,903,606.2,903.2,606.2,903.4z"/>
	<path class="st2" d="M625.4,910.7c0.1,0.3,0,0.5-0.3,0.6l-2.2,0.8c-0.3,0.1-0.5,0-0.6-0.3c-0.5-1.3-1.6-2-3.2-2
		c-1.7,0-2.7,0.7-2.7,1.8c0,1,0.7,1.4,3.9,2.3c3.8,1,5.2,2.5,5.2,5.1c0,3.1-2.5,5.1-6.4,5.1c-3.5,0-6-1.4-6.8-3.9
		c-0.1-0.3,0-0.5,0.4-0.7l1.9-1c0.4-0.1,0.5-0.1,0.7,0.4c0.5,1.4,1.9,2.2,3.7,2.2c1.9,0,2.9-0.7,2.9-1.9c0-1.1-0.9-1.7-4-2.5
		c-3.6-1-5.1-2.4-5.1-5c0-3,2.4-5,6.1-5C622.3,906.8,624.6,908.2,625.4,910.7z"/>
</g>
<path class="st3" d="M369.5,1026.1c2.9,0.1,5.8,0.1,8.7,0c2.8,0.1,5.7,0.1,8.5,0s5.8,0.1,8.7,0c2.9-0.1,5.8,0.1,8.7,0s5.8,0.1,8.7,0
	c2.9-0.1,5.7,0.1,8.5,0h8.2c0.4,0,0.6-0.1,0.6-0.5c0-1.3,0-2.6,0-3.9c0.1-2.4-0.1-4.7,0.2-7.1l0.5-1.4c0.1-0.2,0.2-0.4,0.3-0.6
	c0.8-2,2.1-3.8,3.8-5.2c1.2-0.9,2.5-1.7,4-2.3c1.7-0.5,3.4-0.7,5.1-0.7c7.2,0,14.3,0,21.5,0c2-0.1,4,0,6,0.1
	c0.6,0.2,1.2,0.4,1.9,0.5c3.7,1.4,6.6,4.3,8,8l0.5,1.7c0.4,9.8,0.1,19.5,0.2,29.3c-0.1,1.2-0.3,2.4-0.7,3.6
	c-0.7,1.7-1.7,3.3-2.9,4.6c-1.4,1.5-3.2,2.6-5.1,3.3l-1.3,0.3c-0.7,0.2-1.4,0.3-2.2,0.3h-5.1h-17.4h-6.5c-0.6-0.3-1.3-0.5-2.1-0.6
	c-1.7-0.6-3.2-1.5-4.5-2.7c-1.6-1.5-2.9-3.3-3.6-5.4c-0.1-0.7-0.2-1.3-0.5-1.9c-0.1-0.8-0.2-1.6-0.2-2.4c0-1.4,0-2.8,0-4.2
	c0-1.4,0-2.6,0-3.9c0-0.4-0.1-0.5-0.5-0.5c-2.7,0.1-5.5-0.1-8.2,0.1c-2.9-0.1-5.8-0.1-8.7,0c-2.8-0.1-5.7-0.1-8.5,0
	c-2.9-0.1-5.8-0.1-8.7,0c-2.9-0.1-5.8-0.1-8.7,0c-2.9-0.1-5.8-0.1-8.7,0c-2.9-0.1-5.7-0.1-8.5,0c-2.7-0.1-5.5,0-8.2-0.1
	c-0.4,0-0.5,0.2-0.5,0.5c0,1.3,0,2.6,0,3.9v3.2c0.1,1.3,0,2.5-0.3,3.7l-0.4,1.6c-0.8,2.1-2.1,4-3.8,5.5c-0.3,0.2-0.4,0.6-0.2,0.8
	c0,0,0,0,0,0.1c2.2,3.7,4.5,7.5,6.7,11.2c1.6,2.9,3.3,5.7,5,8.5c0.4,0.8,0.9,1.6,1.4,2.4c1.2,2.2,2.4,4.3,3.8,6.4
	c0.4,0.9,0.9,1.8,1.5,2.7c1.1,1.9,2.2,3.9,3.4,5.7c0,0,0,0.1,0,0.1c0.2,0.6,0.5,0.8,1.1,0.5c0.3-0.1,0.7-0.2,1-0.3
	c1.3-0.1,2.6-0.3,3.8-0.2c0.9,0,1.8,0,2.8,0h17.4c2.2-0.1,4.4,0,6.6,0.2l1.9,0.5l0.3,0.1c5.1,1.9,8.5,6.9,8.5,12.3
	c0,1.4,0,2.7,0,4.1v17.4c-0.1,2.3,0.1,4.6-0.2,6.8l-0.5,1.9c-0.7,1.7-1.7,3.3-2.9,4.6c-1.4,1.5-3.2,2.6-5.1,3.3
	c-0.5,0.1-1,0.2-1.4,0.4c-1.2,0.2-2.4,0.3-3.6,0.2h-26.8c-0.9,0-1.7-0.5-2.5-0.5c-0.1-0.3-0.4-0.3-0.6-0.4c-1.9-0.8-3.6-2-5-3.5
	c-1-1.3-1.9-2.7-2.5-4.2l-0.5-1.4c-0.3-2.4-0.1-4.8-0.2-7.3v-17.3c0-1.8,0-3.5,0-5.3c0-0.6,0-1.2,0.2-1.8c0.4-1.4,1-2.7,1.7-4
	c0.1-0.2,0.1-0.4,0-0.6c-1.2-1.9-2.3-3.8-3.5-5.8l-5.1-8.6c-0.5-1-1.2-2-1.8-3l-3.3-5.5c-1.5-3-3.3-5.8-5.1-8.7l-0.3-0.5
	c-1.5-2.6-3.1-5.2-4.6-7.9c-0.1-0.2-0.3-0.3-0.6-0.3h-3.5h-17.4c-1.3,0-2.5,0-3.8,0c-1,0-2-0.1-3-0.2c-0.6-0.2-1.1-0.4-1.7-0.5
	c-3.8-1.3-6.8-4.3-8.1-8.1c-0.1-0.7-0.3-1.4-0.6-2.1c0-9.6,0-19.1,0-28.7c0-1.3,0.2-2.5,0.6-3.8c0.1-0.1,0.1-0.2,0.2-0.3
	c0.8-2,2.1-3.9,3.7-5.3c1.2-1,2.6-1.8,4-2.4c1.8-0.5,3.8-0.8,5.7-0.7c7,0,14.1,0,21.1,0c2-0.1,4,0,6,0.2l1.9,0.5
	c3.7,1.4,6.7,4.3,8,8c0.2,0.6,0.3,1.3,0.5,1.9c0.3,2.2,0.1,4.4,0.2,6.7c0,1.3,0,2.6,0,3.9c0,0.4,0.1,0.6,0.5,0.6L369.5,1026.1z
	 M473.4,1039.1v-8.7c0.1-0.2,0.1-0.4,0.1-0.6v-7.3c0-0.2,0-0.4-0.1-0.6c0-1.6,0-3.2,0-4.7c-0.1-2.1-1.8-3.9-3.9-4
	c-1.5,0-3.1,0-4.6,0h-8.7c-4.4,0-8.8,0-13.3,0c-2.2,0.1-3.9,1.8-4,4c0,8.8,0,17.7,0,26.5c0.1,2,1.5,3.6,3.4,4
	c1.7,0.2,3.4,0.2,5.1,0.1c0.4,0,0.9,0.1,1.3,0.1c2.5,0,4.9,0.1,7.4-0.1c2.9,0.1,5.8,0.1,8.7,0c1.5,0.1,2.9,0.1,4.4,0
	c2,0,3.7-1.3,4.1-3.3C473.6,1042.6,473.6,1040.8,473.4,1039.1L473.4,1039.1z M334.9,1047.7c2.9,0.1,5.8,0.1,8.7,0
	c1.5,0.1,2.9,0.1,4.4,0c1.9,0,3.6-1.3,4-3.2c0.4-1.8,0.4-3.6,0.1-5.5v-8.7c0.1-0.2,0.1-0.3,0.1-0.5v-7.5c0-0.2,0-0.4-0.1-0.5
	c0-1.6,0-3.2,0-4.8c-0.1-2.1-1.8-3.8-3.9-4c-1.6,0-3.2,0-4.8,0h-8.5c-4.4,0-8.9,0-13.3,0c-2.2,0.1-3.9,1.8-4,4c0,8.8,0,17.7,0,26.5
	c0.1,2,1.5,3.6,3.5,4c1.8,0.2,3.5,0.2,5.3,0.1c0.3,0,0.6,0.1,0.9,0.1C329.7,1047.7,332.3,1047.8,334.9,1047.7L334.9,1047.7z
	 M395.5,1099.7h-8.5c-1.6,0-3.2-0.1-4.8,0c-2.1,0.1-3.8,1.8-3.9,3.9c0,7.3,0,14.7,0,22.1c0,1.5,0,2.9,0,4.4c0,2.1,1.5,3.9,3.5,4.2
	c1.7,0.2,3.3,0.2,5,0.1c2.9,0.1,5.8,0.1,8.7,0c2.8,0.1,5.7,0.1,8.5,0c1.7,0.1,3.3,0.1,5-0.1c2.1-0.2,3.6-2,3.7-4.1
	c0-8.8,0-17.6,0-26.3c0-2.2-1.8-4-4-4.1C404.3,1099.7,399.9,1099.7,395.5,1099.7L395.5,1099.7z"/>
<g>
	<path class="st3" d="M395.6,142.2c36.7,0.1,66.5,29.9,66.4,66.6c-0.1,36.7-29.9,66.5-66.6,66.4c-36.4-0.1-66-29.4-66.4-65.8
		c-0.4-36.7,29-66.8,65.7-67.3C395,142.2,395.3,142.1,395.6,142.2z M450.8,225.8c1-2.8,1.6-5.7,2-8.7c0.1-0.1,0.1-0.1,0.1-0.2
		c0.4-2.7,0.6-5.5,0.5-8.3c0.1-1.9,0-3.9-0.2-5.8c0-1-0.2-1.9-0.4-2.8c-0.4-2.9-1-5.8-2-8.6c-1-3.5-2.4-6.8-4.1-10
		c-1.4-2.5-2.9-4.9-4.6-7.3c-1.1-1.5-2.2-3-3.6-4.3c-0.2-0.2-0.3-0.5-0.5-0.7c-2.1-2.3-4.4-4.4-6.9-6.3c-6-4.7-12.9-8.1-20.2-10.2
		c-3.1-0.9-6.2-1.4-9.4-1.8c-2-0.2-4-0.3-5.9-0.3c-1.3,0-2.6,0-4,0.1c-1.6,0.1-3.1,0.3-4.7,0.6c-2.9,0.4-5.8,1-8.6,1.9
		c-2.9,0.8-5.8,2-8.5,3.4c-0.1,0-0.3,0-0.3,0.1s-0.3,0.1-0.4,0.2c-4.5,2.3-8.7,5.2-12.5,8.7c-1.5,1.3-2.8,2.7-4,4.2
		c-1.4,1.3-2.6,2.8-3.6,4.4c-0.9,1.1-1.8,2.3-2.5,3.6c-0.9,1.4-1.7,2.8-2.4,4.3c-0.2,0.1-0.3,0.3-0.3,0.5c-1.5,2.7-2.6,5.7-3.5,8.7
		c0,0.1-0.1,0.2-0.1,0.3c-2.2,7-3,14.3-2.4,21.5c0.3,4.4,1.2,8.8,2.6,13c1.9,6.1,4.8,11.7,8.6,16.8c1,1.5,2.1,2.8,3.4,4.1
		c1.3,1.7,2.8,3.2,4.5,4.5c3.9,3.6,8.3,6.5,13,8.8c1,0.6,2,1,3,1.5c1.8,0.8,3.7,1.5,5.6,2c4.7,1.5,9.6,2.3,14.5,2.6
		c4,0.2,8-0.1,11.9-0.7c7.6-1.2,14.9-3.9,21.4-8c2.9-1.8,5.5-3.8,8-6.1c1.6-1.3,3-2.8,4.4-4.4c0.4-0.5,0.8-1,1.3-1.5
		c0.8-1,1.5-1.9,2.3-2.9c1.1-1.4,2.2-2.9,3-4.5c0.8-1.1,1.4-2.4,1.9-3.6l0.1-0.2C448.8,231.8,449.9,228.9,450.8,225.8L450.8,225.8z"
		/>
	<path class="st3" d="M360.9,200.1c0.2-0.6,0.3-1.3,0.4-1.9c0.8-2.2,1.5-4.5,2.5-6.6c1.6-3.2,3.6-6.2,6-8.8l0,0l2.1-2
		c1.8-1.7,3.8-3.1,5.9-4.3l0.9-0.5l3.1-1.5c1.7-0.7,3.5-1.3,5.3-1.8c2.8-0.7,5.6-1.1,8.5-1.1c1.7,0.1,3.4,0,5.2,0.2
		c4.3,0.4,8.4,1.4,12.4,3.2c2.8,1.2,5.5,2.8,7.9,4.7c1.1,0.7,1.8,1.9,1.7,3.2c0,0.6-0.3,1.2-0.6,1.7c-0.8,1.1-1.6,2.2-2.4,3.3
		c-1.1,1.4-3.1,1.7-4.5,0.6c0,0-0.1-0.1-0.1-0.1c-2.9-2.2-6.1-3.9-9.6-4.9c-1.2-0.4-2.5-0.6-3.8-0.9c-1.8-0.3-3.7-0.5-5.5-0.5
		c-0.2,0-0.4,0-0.6,0.1c-1.6,0-3.1,0.2-4.6,0.6c-1.4,0.2-2.7,0.6-4,1.2c-2.3,0.9-4.5,2.1-6.4,3.7c-0.9,0.7-1.8,1.5-2.5,2.5
		c-0.4,0.3-0.8,0.8-1.1,1.3c-1.2,1.4-2.2,2.9-2.9,4.6c-0.7,1.3-1.2,2.6-1.5,4.1c-0.9,2.8-1.3,5.7-1.2,8.6c-0.1,2.9,0.3,5.9,1.2,8.7
		c0.9,3.1,2.4,6.1,4.4,8.7c0.3,0.5,0.7,1,1.1,1.4c3.1,3.6,7.3,6.3,11.9,7.5c1.8,0.5,3.6,0.8,5.5,0.8c1.4,0.2,2.9,0.2,4.3-0.1
		c3.6-0.4,7.1-1.4,10.3-3.1c2.4-1.2,4.5-2.7,6.5-4.5c1.3-1.2,3.3-1.2,4.5,0.1c0.1,0.1,0.1,0.1,0.2,0.2c0.9,1,1.8,2.1,2.6,3.2
		c1.1,1.3,1,3.2-0.2,4.3c0,0-0.1,0.1-0.1,0.1c-6,5.5-13.6,9.1-21.7,10.1c-4.5,0.6-9,0.4-13.5-0.6l-1.4-0.3c-2.1-0.6-4.1-1.3-6.1-2.2
		c-0.8-0.3-1.6-0.8-2.4-1.2c-1.7-1-3.3-2.1-4.8-3.3c-1.4-1.1-2.5-2.4-3.8-3.5l-0.3-0.3c-2.3-2.7-4.2-5.6-5.8-8.8
		c-0.9-2.1-1.6-4.2-2.3-6.4l-0.5-2.1c-0.6-2.8-0.9-5.6-0.9-8.5C360,205.8,360.3,202.9,360.9,200.1z"/>
</g>
<path class="st3" d="M414.8,520.6c2.4,3,4.4,6.4,5.7,10.1c0.5,1.5,0.9,3.1,1.2,4.7c0.8,5.7,0.1,11.6-2.2,16.9
	c-0.9,2-2.1,3.9-3.4,5.7c-2.8,3.7-6.4,6.7-10.7,8.7c-7.1,3.6-15.4,3.8-22.6,0.7c-4-1.5-7.6-4-10.4-7.3c-2-2.2-3.6-4.6-4.9-7.3
	c-3.4-7.2-3.7-15.5-0.9-23c1-2.6,2.4-5.1,4-7.4c1.1-1.5,2.4-2.9,3.8-4.2c0.4-0.3,0.4-0.5,0-0.8c-3.6-2.9-5.6-7.3-5.4-11.9
	c0-3.5-0.1-7,0.6-10.5c0.6-3.8,2.1-7.3,4.2-10.5c0.7-1.1,1.4-2.1,2.2-3c2.1-2.2,4.5-4.1,7-5.8c1.6-1.1,3.4-2,5.2-2.8
	c1.8-0.8,3.6-1.6,5.4-2.4c2.3-0.8,4.5-2,6.5-3.5c2-1.5,2.1-3.6,0.3-5.4c-0.1-0.3-0.3-0.6-0.6-0.8c-1.8-1.4-4-2.1-6.3-2
	c-1.4-0.1-2.9,0.2-4.2,0.7c-1.2,0.4-2.3,1.1-3,2.2c-1.1,0.9-2.1,1.9-2.9,3c-1.2,1.4-2.4,2.9-3.6,4.5c-1.4,1.7-3.3,3.1-5.3,3.9
	c-1.4,0.5-2.9,0.8-4.3,0.9c-3.5,0.3-6.9-0.7-9.6-2.8c-3.9-3-7.9-6-11.8-9.1c-2.3-1.6-4.2-3.8-5.3-6.4c-2-4.6-1.6-9.9,1.2-14.1
	c2.3-3.6,5-6.9,7.8-10.1c2.6-2.8,5.4-5.3,8.4-7.6c4.4-3.5,9.4-5.8,14.6-7.7c7.6-2.8,15.5-3.4,23.4-3.1c4.6,0.1,9.2,1,13.5,2.5
	c5.3,1.8,10.4,4.3,15,7.5c2.8,1.9,5.4,4.1,7.8,6.5c2.5,2.6,4.8,5.4,6.8,8.5c2.9,4.5,4.9,9.5,6.1,14.7c1.1,5,1.2,10.2,0.5,15.2
	c-0.7,5.4-2.5,10.7-5.3,15.3c-1,1.5-2,3-3.2,4.4c-3.6,4.3-8,7.6-12.7,10.6c-2.9,1.9-6,3.4-8.8,5.4c-0.3,0.2-0.7,0.4-0.6,0.9
	c0,2-0.2,4-0.8,5.9c-1.1,2.6-2.5,5.1-4.8,6.8c-0.3,0.2-0.2,0.4,0,0.6L414.8,520.6z M352.3,452.3c0.6,1.1,1.5,2,2.7,2.6
	c3.8,2.9,7.5,5.9,11.3,8.8c2.1,1.5,5,1,6.5-1.1c0.1-0.1,0.2-0.2,0.2-0.4l1.7-2.2c2.3-2.8,4.9-5.4,7.7-7.7l1.5-0.9
	c1.7-0.8,3.5-1.4,5.3-1.8c1.4-0.3,2.8-0.2,4.1-0.4c3.3,0,6.6,0.8,9.6,2.4l1.5,0.9c3.2,2.6,5.6,5.6,6.3,9.7c0.5,3.3-0.1,6.7-1.8,9.6
	c-1.7,2.3-4.1,3.8-6.4,5.3c-3.1,1.5-6.2,2.8-9.4,4.1c-2.8,1.2-5.4,2.7-7.8,4.6c-0.7,0.5-1.3,1-1.9,1.7c-1.2,1.1-2.1,2.4-2.8,3.8
	c-1.5,3-2.3,6.4-2.3,9.8c0,1.6,0,3.1,0,4.7c-0.2,2.7,1.9,4.9,4.5,5.1c0.3,0,0.6,0,0.9,0h9.6c3.4,0,6.8,0,10.2,0
	c2.6,0,4.8-2.1,4.8-4.7c0-0.1,0-0.1,0-0.2c0-1,0-2,0-3c0-1.1,0.3-2.1,0.9-3c0.9-1.4,2-2.6,3.3-3.5c2.4-1.5,4.9-3,7.3-4.4
	c0.2-0.1,0.4-0.2,0.3-0.4l1.7-1.1c0.1,0,0.1,0,0.2,0c3.5-2.2,6.9-4.4,9.6-7.7c1.9-2,3.5-4.2,4.7-6.7c3.4-7.4,4-15.7,1.6-23.5
	c-0.7-2.3-1.7-4.6-2.8-6.7c-0.6-1.3-1.4-2.5-2.4-3.6c-0.2-0.7-0.6-1.2-1.2-1.6c-1.5-2.2-3.3-4.2-5.4-5.9c-0.8-0.8-1.7-1.5-2.8-2
	c-0.4-0.5-0.9-0.8-1.4-1.1c-0.5-0.3-0.8-0.8-1.3-1.1c-2.6-1.6-5.3-3-8.1-4.2c-0.2-0.1-0.5-0.2-0.7-0.3c-2.9-1.2-6-1.7-8.9-2.6
	c-1.4-0.1-2.9-0.3-4.3-0.4c-1.8-0.1-3.5-0.2-5.3-0.1c-3.2,0-6.5,0.4-9.6,1.3c-0.9,0.2-1.8,0.4-2.7,0.6c-2.4,0.6-4.7,1.4-6.9,2.5
	c-3.2,1.3-6.2,3.1-8.8,5.4c-0.3,0-0.5,0.3-0.7,0.5c-3.4,2.7-6.4,5.8-9,9.3c-0.3,0.2-0.5,0.5-0.7,0.8c-1.2,1.4-2.3,2.9-3.1,4.6
	C351.3,449.4,351.4,451.1,352.3,452.3z M376.9,530.3c-3.5,6-3.5,13.5-0.1,19.6c0.4,0.6,0.8,1.3,1.2,1.9c3.2,4.7,7.9,6.9,13.2,7.9
	c1.9,0.3,3.8,0.2,5.6-0.3c2.2-0.5,4.3-1.3,6.2-2.4c0.2-0.1,0.4-0.2,0.5-0.3c4.4-2.8,7.4-7.4,8.4-12.5c1.1-5.3,0-10.7-3-15.2
	c-2.4-3.4-5.7-6-9.7-7.4c-1.9-0.8-4-1.1-6-0.9c-3.4-0.1-6.8,0.9-9.6,2.8C380.8,524.9,378.4,527.4,376.9,530.3z"/>
<g>
	<path class="st3" d="M395.4,828.8c-23.4,0-46.8,0-70.1,0c-4.9,0.1-9.7-1.5-13.6-4.5c-5.2-3.8-8.6-9.6-9.4-16
		c-0.1-1-0.1-1.9-0.1-2.9c0-4.6,0-9.1,0-13.6c-0.2-2.6,1.8-4.8,4.4-4.9c0.2,0,0.4,0,0.5,0c4,0,8.1,0,12.1,0c1.6,0,1.6,0,1.6-1.6
		c0-25.8,0-51.7,0-77.5c-0.1-4,1.2-7.9,3.5-11.1c3.7-4.9,8.5-7.7,14.7-7.8c21.9-0.1,43.8,0,65.7,0c15.8,0,31.6-0.1,47.4,0
		c5.3,0,10.4,2.5,13.7,6.8c2.9,3.5,4.4,7.9,4.3,12.4c0,25.8,0,51.7,0,77.5c0,1.3-0.1,1.2,1.2,1.2h12.4c2-0.1,3.8,1,4.6,2.8
		c0.3,0.5,0.4,1.1,0.4,1.7c0,5,0.1,9.9,0,14.9c-0.1,5.2-1.9,10.1-5.3,14.1c-2.6,3.2-6,5.6-9.9,7c-2.3,0.9-4.8,1.4-7.3,1.4
		L395.4,828.8z M404.9,819.5c3.1,0.1,6.1,0.1,9.2,0c0.3,0,0.6,0,0.9,0h44.8c0.3,0,0.6,0,0.9,0c1.4,0,2.8,0,4.2,0
		c4.2,0.1,8.3-1.7,11-4.9c2.1-2.3,3.3-5.3,3.4-8.5c0-3.1,0-6.1,0-9.2c0-0.5,0-0.8-0.7-0.8c-6,0-12,0-18,0H460h-36.8
		c-0.3-0.1-0.6,0.1-0.7,0.4c0,0,0,0,0,0c-0.6,1.5-1.5,2.9-2.5,4.2c-1.7,1.8-3.7,3.2-6,4c-1.1,0.3-2.3,0.6-3.5,0.7
		c-1.9,0.2-3.8,0-5.8,0.1c-6.9,0-13.8,0-20.8,0c-2.4,0.1-4.7-0.1-7-0.7c-4-1.4-7.1-4.4-8.7-8.3c-0.1-0.3-0.4-0.3-0.7-0.3h-9.6h-37.3
		c-2.9,0-5.7,0-8.6,0c-0.5,0-0.7,0.2-0.7,0.7c0,1.3,0,2.6,0,3.9c-0.2,1.4-0.2,2.8-0.1,4.2c-0.1,1.8,0.2,3.5,0.9,5.2
		c1.3,4,4.4,7.1,8.4,8.5c0.2,0.1,0.3,0.1,0.5,0.2c2.9,0.9,5.9,0.7,8.9,0.6s6.3,0.1,9.4,0s6.1,0.1,9.2,0s6.3,0.1,9.4,0s6.3,0.1,9.4,0
		s6.3,0.1,9.4,0s6.1,0.1,9.2,0s6.2,0.1,9.4,0S401.7,819.6,404.9,819.5L404.9,819.5z M432.9,698.3c-3.1-0.1-6.3-0.1-9.4,0
		c-3.1-0.1-6.1-0.1-9.2,0c-3.1-0.1-6.2-0.1-9.4,0c-3.1-0.1-6.3-0.1-9.4,0c-3.1-0.1-6.2-0.1-9.4,0c-3.1-0.1-6.2-0.1-9.2,0
		c-3.1-0.1-6.2-0.1-9.4,0c-3.1-0.1-6.3-0.1-9.4,0c-3.1-0.1-6.2-0.1-9.4,0c-3.1-0.1-6.1-0.1-9.2,0l-1.1,0.1c-4.7,0.5-8.3,4.5-8.3,9.2
		v74.7c0,1.3,0,2.7,0,4c0,0.5,0.2,0.6,0.6,0.6c2.9,0,5.7,0,8.6,0h18.7h16c1.8,0,2.5,0.6,3,2.3c0.9,3.6,3.8,6.3,7.5,6.9
		c3.6,0.4,7.3,0.1,10.9,0.2h9.4c3.3,0,6.4-1.9,8-4.7c0.6-1,1-2.1,1.2-3.3c0.6-0.9,1.6-1.4,2.7-1.3c2.2,0,4.4,0,6.6,0h28
		c2.9,0,5.8,0,8.8,0c0.5,0,0.7-0.2,0.6-0.6c0-1.3,0-2.7,0-4v-37.3c0-3.1,0-6.3,0-9.4s0-6.3,0-9.4v-18.6c0-5.1-4.1-9.3-9.2-9.3
		c0,0-0.1,0-0.1,0c-3.1-0.1-6.3-0.1-9.4,0C439,698.2,435.9,698.2,432.9,698.3L432.9,698.3z"/>
	<path class="st3" d="M407.5,726.1c-0.6-0.9-0.5-2,0.2-2.8c1.1-1.2,2.3-2.4,3.5-3.5c0.9-0.6,2.1-0.7,3-0.1c1.1,1.1,2.2,2.3,3.3,3.4
		c1,1.1,2.1,2.1,3.2,3.1c0.8,1,1.7,1.9,2.7,2.7c2.2,2.3,4.5,4.6,6.8,6.8c0.7,0.9,1.5,1.6,2.4,2.4c0.4,0.4,0.7,0.9,1,1.4
		c0.4,1.2-0.3,2-1,2.8c-0.9,0.7-1.7,1.5-2.4,2.4c-2.4,2.3-4.7,4.6-7,7c-0.9,0.7-1.7,1.5-2.4,2.4l-6.8,6.8c-1.2,0.7-2.7,0.3-3.5-0.8
		c-0.8-0.9-1.8-1.8-2.6-2.7c-0.9-0.7-1.1-2-0.5-3c1.9-1.9,3.8-3.8,5.6-5.7c0.5-0.4,0.9-0.9,1.3-1.4l2.2-2.3c0.1,0,0.2,0,0.2-0.1
		c1.5-1.5,3-3,4.5-4.5c0.2-0.2,0.2-0.4,0-0.7c-1.5-1.4-2.9-3-4.5-4.4l-2.4-2.4c-0.1-0.3-0.3-0.5-0.6-0.7L407.5,726.1z"/>
	<path class="st3" d="M358.2,742.2c-1.3-1.7-1.3-2.3,0-3.9c0.9-0.8,1.7-1.6,2.4-2.5l6.9-6.9c0.9-0.7,1.7-1.5,2.4-2.4
		c2.1-2.1,4.2-4.1,6.2-6.2c0.9-1.1,2.6-1.3,3.7-0.4c0.2,0.1,0.3,0.3,0.4,0.4c0.8,1,1.8,1.8,2.6,2.7c1.3,1.3,1.3,2.4,0,3.8
		l-12.7,12.7c-0.8,0.8-0.8,0.8,0,1.7l12.5,12.5c1.5,1.5,1.5,2.5,0,4.1l-2.7,2.7c-1.3,1.3-2.5,1.3-3.8,0l-14.7-14.7
		c-0.2-0.2-0.5-0.4-0.7-0.6C360,743.9,359.2,743,358.2,742.2z"/>
</g>
</svg>
