<?xml version="1.0" encoding="utf-8"?>
<!-- Generator: Adobe Illustrator 24.1.1, SVG Export Plug-In . SVG Version: 6.00 Build 0)  -->
<svg version="1.1" id="Layer_1" xmlns="http://www.w3.org/2000/svg" xmlns:xlink="http://www.w3.org/1999/xlink" x="0px" y="0px"
	 viewBox="0 0 792 773.3" style="enable-background:new 0 0 792 773.3;" xml:space="preserve">
<style type="text/css">
	.st0{fill:#FFFEFF;}
	.st1{enable-background:new    ;}
	.st2{fill:#2E3442;}
	.st3{fill:none;stroke:#E2AC42;stroke-width:5;stroke-miterlimit:10;}
	.st4{fill:none;stroke:#E2AC42;stroke-width:8;stroke-miterlimit:10;}
</style>
<rect y="-53.3" class="st0" width="792" height="1224"/>
<g class="st1">
	<path class="st2" d="M169.9,76.8l-6.4-21.1c-0.1-0.3,0-0.5,0.3-0.5h3.1c0.3,0,0.4,0.1,0.5,0.4l3.3,11.2c0.6,2.1,1.3,4.6,1.6,6.5
		h0.1c0.4-1.9,1.1-4.4,1.7-6.5l3.3-11.1c0.1-0.3,0.3-0.4,0.6-0.4h2.9c0.3,0,0.4,0.2,0.3,0.5l-6.3,21.1c-0.1,0.3-0.3,0.4-0.5,0.4
		h-3.8C170.2,77.3,170.1,77.1,169.9,76.8z"/>
	<path class="st2" d="M188.1,54.9v2.9c0,0.4-0.2,0.5-0.5,0.5H185c-0.4,0-0.6-0.2-0.6-0.5v-2.9c0-0.3,0.2-0.5,0.6-0.5h2.6
		C187.9,54.4,188.1,54.6,188.1,54.9z M188.1,61.1v15.7c0,0.3-0.2,0.4-0.4,0.4h-2.8c-0.3,0-0.5-0.2-0.5-0.4V61.1
		c0-0.3,0.2-0.4,0.5-0.4h2.8C187.9,60.7,188.1,60.9,188.1,61.1z"/>
	<path class="st2" d="M204.6,64.3c0.1,0.3,0,0.5-0.3,0.6l-2.2,0.8c-0.3,0.1-0.5,0-0.6-0.3c-0.5-1.3-1.6-2-3.2-2
		c-1.7,0-2.7,0.7-2.7,1.8c0,1,0.7,1.4,3.9,2.3c3.8,1,5.3,2.5,5.3,5.1c0,3.1-2.5,5.1-6.4,5.1c-3.5,0-6-1.4-6.8-3.9
		c-0.1-0.3,0-0.5,0.4-0.7l2-1c0.4-0.1,0.5-0.1,0.7,0.4c0.4,1.4,1.9,2.2,3.7,2.2c1.9,0,2.9-0.7,2.9-1.9c0-1.1-0.9-1.7-4-2.5
		c-3.6-1-5.1-2.4-5.1-5c0-3,2.4-5,6.1-5C201.5,60.4,203.8,61.8,204.6,64.3z"/>
	<path class="st2" d="M208.4,72V61.1c0-0.3,0.2-0.4,0.4-0.4h2.9c0.3,0,0.4,0.2,0.4,0.4v10.2c0,1.8,0.9,2.9,2.5,2.9s2.9-1.2,3.5-2.9
		V61.1c0-0.3,0.1-0.4,0.4-0.4h2.9c0.3,0,0.5,0.2,0.5,0.4v15.7c0,0.2-0.2,0.4-0.4,0.4h-2.8c-0.3,0-0.4-0.2-0.4-0.4v-2
		c-1,1.5-2.7,2.7-5,2.7C210.1,77.6,208.4,75.3,208.4,72z"/>
	<path class="st2" d="M238.9,65.8v11c0,0.3-0.1,0.4-0.4,0.4h-2.6c-0.3,0-0.4-0.2-0.4-0.4v-2c-1,1.7-2.7,2.7-4.7,2.7
		c-3.1,0-5.1-2-5.1-5s2-4.7,6.3-5c1.2-0.1,2.3-0.1,3.4,0V66c0-1.9-1-2.6-2.7-2.6s-2.3,0.6-2.8,1.8c-0.1,0.3-0.2,0.4-0.6,0.3
		l-2.6-0.7c-0.3-0.1-0.4-0.2-0.3-0.5c0.5-2.3,2.6-4,6.4-4C236.5,60.4,238.9,62.2,238.9,65.8z M235.2,71.9v-2c-1,0-2.1,0-3.1,0.1
		c-1.9,0.2-3.1,0.9-3.1,2.4c0,1.3,0.9,2.2,2.5,2.2C233.3,74.6,234.6,73.6,235.2,71.9z"/>
	<path class="st2" d="M247,54.8v22c0,0.3-0.2,0.4-0.4,0.4h-2.8c-0.3,0-0.5-0.2-0.5-0.4v-22c0-0.3,0.2-0.4,0.5-0.4h2.8
		C246.9,54.4,247,54.5,247,54.8z"/>
	<path class="st2" d="M255.3,54.9v2.9c0,0.4-0.2,0.5-0.5,0.5h-2.6c-0.4,0-0.6-0.2-0.6-0.5v-2.9c0-0.3,0.2-0.5,0.6-0.5h2.6
		C255.1,54.4,255.3,54.6,255.3,54.9z M255.3,61.1v15.7c0,0.3-0.2,0.4-0.4,0.4H252c-0.3,0-0.5-0.2-0.5-0.4V61.1
		c0-0.3,0.2-0.4,0.5-0.4h2.8C255.2,60.7,255.3,60.9,255.3,61.1z"/>
</g>
<g class="st1">
	<path class="st2" d="M271.3,61.1l0.2,1.7c0,0.3,0,0.5-0.2,0.8l-7.6,10.5h7.4c0.2,0,0.4,0.1,0.4,0.3v2.5c0,0.2-0.2,0.4-0.4,0.4
		h-11.4c-0.3,0-0.5-0.1-0.5-0.4l-0.2-1.7c-0.1-0.3,0-0.5,0.1-0.8l7.6-10.5h-7.2c-0.2,0-0.4-0.2-0.4-0.4v-2.4c0-0.2,0.1-0.4,0.4-0.4
		h11.2C271,60.7,271.2,60.8,271.3,61.1z"/>
</g>
<g class="st1">
	<path class="st2" d="M278.1,70.1v1c0,2.1,1.1,3.5,3.5,3.5c2.2,0,2.9-0.9,3.5-2c0.2-0.4,0.4-0.5,0.8-0.3l1.9,1
		c0.4,0.2,0.5,0.5,0.3,0.8c-1,2.2-3.3,3.5-6.4,3.5c-4.6,0-7-2.7-7-6.6v-4.1c0-3.7,2.3-6.6,7-6.6c4.4,0,6.7,2.8,6.7,6.5v2.5
		c0,0.5-0.2,0.7-0.8,0.7L278.1,70.1L278.1,70.1z M278.1,66.8v0.9h6.7v-0.9c0-2-1.1-3.4-3.3-3.4S278.1,64.8,278.1,66.8z"/>
</g>
<g class="st1">
	<path class="st2" d="M301.2,60.9v2.6c0,0.3-0.1,0.4-0.5,0.4h-0.4c-2.4,0-3.9,1.2-4.5,3.1v9.8c0,0.3-0.2,0.4-0.4,0.4h-3
		c-0.2,0-0.4-0.1-0.4-0.4V61.1c0-0.3,0.2-0.4,0.4-0.4h2.7c0.3,0,0.4,0.2,0.4,0.4v2.3c0.8-1.5,2.4-3,4.9-3
		C301.2,60.5,301.2,60.6,301.2,60.9z"/>
</g>
<g class="st1">
	<path class="st2" d="M324.5,55.7v2.6c0,0.3-0.1,0.4-0.4,0.4h-8.3v6.4h7.4c0.3,0,0.4,0.1,0.4,0.4V68c0,0.3-0.1,0.4-0.4,0.4h-7.4v8.4
		c0,0.3-0.1,0.4-0.4,0.4h-3c-0.3,0-0.4-0.2-0.4-0.4V55.7c0-0.3,0.1-0.4,0.4-0.4h11.8C324.4,55.3,324.5,55.5,324.5,55.7z"/>
</g>
<g class="st1">
	<path class="st2" d="M327.7,72V61.1c0-0.3,0.2-0.4,0.4-0.4h2.9c0.3,0,0.4,0.2,0.4,0.4v10.2c0,1.8,0.9,2.9,2.5,2.9s2.9-1.2,3.5-2.9
		V61.1c0-0.3,0.1-0.4,0.4-0.4h2.9c0.3,0,0.4,0.2,0.4,0.4v15.7c0,0.2-0.1,0.4-0.4,0.4H338c-0.3,0-0.4-0.2-0.4-0.4v-2
		c-1,1.5-2.7,2.7-5,2.7C329.4,77.6,327.7,75.3,327.7,72z"/>
	<path class="st2" d="M349.5,66.6v10.2c0,0.3-0.1,0.4-0.4,0.4h-2.8c-0.3,0-0.5-0.2-0.5-0.4V61.1c0-0.2,0.1-0.4,0.4-0.4h2.8
		c0.3,0,0.4,0.2,0.4,0.4v2c1-1.5,2.7-2.7,5-2.7c3.1,0,4.9,2.3,4.9,5.6v10.8c0,0.3-0.2,0.4-0.4,0.4H356c-0.3,0-0.5-0.2-0.5-0.4V66.6
		c0-1.8-0.8-2.9-2.5-2.9C351.4,63.8,350.1,64.9,349.5,66.6z"/>
	<path class="st2" d="M376.3,65.1c0,0.3,0,0.5-0.4,0.5l-2.3,0.6c-0.5,0.1-0.5,0.1-0.7-0.3c-0.3-1-0.8-2.4-3-2.4
		c-2,0-3.1,1.3-3.1,3.6v3.6c0,2.2,1.1,3.5,3.1,3.5c1.9,0,2.6-0.9,3.1-2.3c0.1-0.4,0.3-0.5,0.6-0.3l2.3,0.8c0.4,0.1,0.4,0.3,0.3,0.6
		c-0.5,2.3-2.7,4.4-6.5,4.4c-4.2,0-6.6-2.7-6.6-6.6v-4c0-3.8,2.4-6.7,6.6-6.7C373.3,60.4,375.8,62.1,376.3,65.1z"/>
	<path class="st2" d="M384.6,57v3.8h3.3c0.2,0,0.4,0.2,0.4,0.5v2.2c0,0.3-0.1,0.4-0.4,0.4h-3.3v8.3c0,1.2,0.7,1.8,2,1.8h1.3
		c0.3,0,0.4,0.1,0.4,0.4v2.4c0,0.3-0.1,0.4-0.4,0.4H386c-3.4,0-5-1.8-5-4.6v-8.8h-2.1c-0.3,0-0.4-0.1-0.4-0.4v-2.2
		c0-0.3,0.1-0.5,0.4-0.5h2.1V57c0-0.2,0.1-0.4,0.4-0.4h2.8C384.5,56.6,384.6,56.8,384.6,57z"/>
	<path class="st2" d="M395.6,54.9v2.9c0,0.4-0.2,0.5-0.5,0.5h-2.6c-0.4,0-0.6-0.2-0.6-0.5v-2.9c0-0.3,0.2-0.5,0.6-0.5h2.6
		C395.4,54.4,395.6,54.6,395.6,54.9z M395.6,61.1v15.7c0,0.3-0.2,0.4-0.4,0.4h-2.8c-0.3,0-0.5-0.2-0.5-0.4V61.1
		c0-0.3,0.1-0.4,0.5-0.4h2.8C395.4,60.7,395.6,60.9,395.6,61.1z"/>
	<path class="st2" d="M413.7,67v3.9c0,3.9-2.3,6.7-7,6.7s-7-2.7-7-6.6v-3.9c0-3.9,2.3-6.7,7-6.7C411.4,60.4,413.7,63.2,413.7,67z
		 M403.3,67.2v3.6c0,2.2,1.1,3.5,3.3,3.5c2.2,0,3.3-1.3,3.3-3.5v-3.6c0-2.2-1.1-3.6-3.3-3.6S403.3,65,403.3,67.2z"/>
	<path class="st2" d="M421.5,66.6v10.2c0,0.3-0.1,0.4-0.4,0.4h-2.8c-0.3,0-0.4-0.2-0.4-0.4V61.1c0-0.2,0.1-0.4,0.4-0.4h2.8
		c0.3,0,0.4,0.2,0.4,0.4v2c1-1.5,2.7-2.7,5-2.7c3.2,0,4.9,2.3,4.9,5.6v10.8c0,0.3-0.2,0.4-0.4,0.4h-2.8c-0.3,0-0.5-0.2-0.5-0.4V66.6
		c0-1.8-0.8-2.9-2.5-2.9C423.4,63.8,422.1,64.9,421.5,66.6z"/>
	<path class="st2" d="M448.1,65.8v11c0,0.3-0.2,0.4-0.4,0.4H445c-0.3,0-0.4-0.2-0.4-0.4v-2c-1,1.7-2.7,2.7-4.7,2.7
		c-3.1,0-5.1-2-5.1-5s2-4.7,6.3-5c1.2-0.1,2.3-0.1,3.4,0V66c0-1.9-1-2.6-2.7-2.6s-2.3,0.6-2.8,1.8c-0.1,0.3-0.2,0.4-0.6,0.3
		l-2.6-0.7c-0.3-0.1-0.4-0.2-0.3-0.5c0.5-2.3,2.6-4,6.4-4C445.8,60.4,448.1,62.2,448.1,65.8z M444.5,71.9v-2c-1,0-2.1,0-3.1,0.1
		c-1.9,0.2-3.1,0.9-3.1,2.4c0,1.3,0.9,2.2,2.5,2.2C442.5,74.6,443.8,73.6,444.5,71.9z"/>
	<path class="st2" d="M456.3,54.8v22c0,0.3-0.2,0.4-0.4,0.4H453c-0.3,0-0.5-0.2-0.5-0.4v-22c0-0.3,0.2-0.4,0.5-0.4h2.8
		C456.1,54.4,456.3,54.5,456.3,54.8z"/>
	<path class="st2" d="M464.5,54.9v2.9c0,0.4-0.2,0.5-0.5,0.5h-2.6c-0.4,0-0.6-0.2-0.6-0.5v-2.9c0-0.3,0.2-0.5,0.6-0.5h2.6
		C464.4,54.4,464.5,54.6,464.5,54.9z M464.5,61.1v15.7c0,0.3-0.2,0.4-0.4,0.4h-2.8c-0.3,0-0.5-0.2-0.5-0.4V61.1
		c0-0.3,0.1-0.4,0.5-0.4h2.8C464.4,60.7,464.5,60.9,464.5,61.1z"/>
	<path class="st2" d="M473.8,57v3.8h3.3c0.2,0,0.4,0.2,0.4,0.5v2.2c0,0.3-0.1,0.4-0.4,0.4h-3.3v8.3c0,1.2,0.7,1.8,2,1.8h1.3
		c0.3,0,0.4,0.1,0.4,0.4v2.4c0,0.3-0.1,0.4-0.4,0.4h-1.9c-3.4,0-5-1.8-5-4.6v-8.8h-2.1c-0.3,0-0.4-0.1-0.4-0.4v-2.2
		c0-0.3,0.2-0.5,0.4-0.5h2.1V57c0-0.2,0.2-0.4,0.4-0.4h2.8C473.7,56.6,473.8,56.8,473.8,57z"/>
</g>
<g class="st1">
	<path class="st2" d="M494.6,61.3L489,76.6c-1.2,3.2-2.7,5.6-4.9,7c-0.3,0.2-0.5,0.3-0.9,0l-1.6-1.7c-0.2-0.2-0.2-0.6,0.1-0.8
		c1.8-1.2,2.9-2.3,3.7-4.8l-5.9-15c-0.1-0.3,0.1-0.5,0.4-0.5h3.1c0.3,0,0.5,0.1,0.5,0.4l1.9,5.5c0.8,2.4,1.4,4.1,1.8,6h0.1
		c0.5-2.3,1-3.7,1.8-6l1.8-5.6c0.1-0.2,0.3-0.4,0.5-0.4h2.9C494.5,60.7,494.7,60.9,494.6,61.3z"/>
</g>
<g class="st1">
	<path class="st2" d="M517.8,55.7v2.6c0,0.3-0.2,0.4-0.4,0.4H509v6.4h7.4c0.3,0,0.4,0.1,0.4,0.4V68c0,0.3-0.1,0.4-0.4,0.4H509v8.4
		c0,0.3-0.2,0.4-0.5,0.4h-3c-0.3,0-0.4-0.2-0.4-0.4V55.7c0-0.3,0.1-0.4,0.4-0.4h11.8C517.6,55.3,517.8,55.5,517.8,55.7z"/>
	<path class="st2" d="M525.2,54.9v2.9c0,0.4-0.2,0.5-0.5,0.5H522c-0.4,0-0.6-0.2-0.6-0.5v-2.9c0-0.3,0.2-0.5,0.6-0.5h2.6
		C525,54.4,525.2,54.6,525.2,54.9z M525.2,61.1v15.7c0,0.3-0.2,0.4-0.4,0.4H522c-0.3,0-0.5-0.2-0.5-0.4V61.1c0-0.3,0.1-0.4,0.5-0.4
		h2.8C525,60.7,525.2,60.9,525.2,61.1z"/>
	<path class="st2" d="M533.4,66.6v10.2c0,0.3-0.1,0.4-0.4,0.4h-2.8c-0.3,0-0.5-0.2-0.5-0.4V61.1c0-0.2,0.1-0.4,0.4-0.4h2.8
		c0.3,0,0.4,0.2,0.4,0.4v2c1-1.5,2.7-2.7,5-2.7c3.1,0,4.9,2.3,4.9,5.6v10.8c0,0.3-0.2,0.4-0.4,0.4H540c-0.3,0-0.5-0.2-0.5-0.4V66.6
		c0-1.8-0.8-2.9-2.5-2.9C535.4,63.8,534,64.9,533.4,66.6z"/>
	<path class="st2" d="M560.1,65.8v11c0,0.3-0.1,0.4-0.4,0.4H557c-0.3,0-0.4-0.2-0.4-0.4v-2c-1,1.7-2.7,2.7-4.7,2.7
		c-3.1,0-5.1-2-5.1-5s2-4.7,6.3-5c1.2-0.1,2.3-0.1,3.4,0V66c0-1.9-1-2.6-2.7-2.6s-2.3,0.6-2.8,1.8c-0.1,0.3-0.2,0.4-0.6,0.3
		l-2.6-0.7c-0.3-0.1-0.4-0.2-0.3-0.5c0.5-2.3,2.6-4,6.4-4C557.7,60.4,560.1,62.2,560.1,65.8z M556.4,71.9v-2c-1,0-2.1,0-3.1,0.1
		c-1.9,0.2-3.1,0.9-3.1,2.4c0,1.3,0.9,2.2,2.5,2.2C554.5,74.6,555.8,73.6,556.4,71.9z"/>
	<path class="st2" d="M568.2,54.8v22c0,0.3-0.1,0.4-0.4,0.4H565c-0.3,0-0.5-0.2-0.5-0.4v-22c0-0.3,0.2-0.4,0.5-0.4h2.8
		C568.1,54.4,568.2,54.5,568.2,54.8z"/>
	<path class="st2" d="M576.5,54.9v2.9c0,0.4-0.2,0.5-0.5,0.5h-2.6c-0.4,0-0.6-0.2-0.6-0.5v-2.9c0-0.3,0.2-0.5,0.6-0.5h2.6
		C576.3,54.4,576.5,54.6,576.5,54.9z M576.5,61.1v15.7c0,0.3-0.1,0.4-0.4,0.4h-2.8c-0.3,0-0.5-0.2-0.5-0.4V61.1
		c0-0.3,0.2-0.4,0.5-0.4h2.8C576.4,60.7,576.5,60.9,576.5,61.1z"/>
</g>
<g class="st1">
	<path class="st2" d="M592.5,61.1l0.2,1.7c0,0.3,0,0.5-0.2,0.8l-7.6,10.5h7.4c0.2,0,0.4,0.1,0.4,0.3v2.5c0,0.2-0.2,0.4-0.4,0.4
		h-11.4c-0.3,0-0.5-0.1-0.5-0.4l-0.2-1.7c-0.1-0.3,0-0.5,0.2-0.8l7.6-10.5h-7.2c-0.2,0-0.4-0.2-0.4-0.4v-2.4c0-0.2,0.1-0.4,0.4-0.4
		H592C592.2,60.7,592.4,60.8,592.5,61.1z"/>
</g>
<g class="st1">
	<path class="st2" d="M599.3,70.1v1c0,2.1,1.1,3.5,3.5,3.5c2.2,0,2.9-0.9,3.5-2c0.2-0.4,0.4-0.5,0.8-0.3l1.9,1
		c0.4,0.2,0.5,0.5,0.3,0.8c-1,2.2-3.3,3.5-6.4,3.5c-4.6,0-7-2.7-7-6.6v-4.1c0-3.7,2.3-6.6,7-6.6c4.4,0,6.7,2.8,6.7,6.5v2.5
		c0,0.5-0.2,0.7-0.8,0.7L599.3,70.1L599.3,70.1z M599.3,66.8v0.9h6.7v-0.9c0-2-1.1-3.4-3.3-3.4S599.3,64.8,599.3,66.8z"/>
	<path class="st2" d="M612.9,71.3v-4.4c0-3.8,2.3-6.4,5.6-6.4c2.4,0,4.1,1.3,4.7,2.4v-8c0-0.2,0.1-0.4,0.4-0.4h2.9
		c0.2,0,0.4,0.2,0.4,0.4V77c0,0.2-0.1,0.4-0.4,0.4h-2.8c-0.2,0-0.4-0.2-0.4-0.4v-1.7c-0.7,1.2-2.3,2.4-4.7,2.4
		C615.1,77.6,612.9,75.1,612.9,71.3z M623.3,70.7v-3.4c0-2.3-1.5-3.7-3.4-3.7c-2.1,0-3.2,1.4-3.2,3.7v3.4c0,2.3,1.1,3.6,3.2,3.6
		C621.7,74.3,623.3,73.1,623.3,70.7z"/>
</g>
<g class="st1">
	<path class="st2" d="M247.3,451.7v2.6c0,0.3-0.1,0.4-0.4,0.4h-8.3v6.4h7.4c0.3,0,0.4,0.1,0.4,0.4v2.5c0,0.3-0.1,0.4-0.4,0.4h-7.4
		v8.4c0,0.3-0.1,0.4-0.4,0.4h-3c-0.3,0-0.4-0.2-0.4-0.4v-21.1c0-0.3,0.1-0.4,0.4-0.4H247C247.1,451.3,247.3,451.5,247.3,451.7z"/>
	<path class="st2" d="M254.6,450.9v2.9c0,0.4-0.2,0.5-0.5,0.5h-2.6c-0.4,0-0.6-0.2-0.6-0.5v-2.9c0-0.3,0.2-0.5,0.6-0.5h2.6
		C254.5,450.4,254.6,450.6,254.6,450.9z M254.6,457.1v15.7c0,0.3-0.1,0.4-0.4,0.4h-2.8c-0.3,0-0.5-0.2-0.5-0.4v-15.7
		c0-0.3,0.1-0.4,0.5-0.4h2.8C254.5,456.7,254.6,456.9,254.6,457.1z"/>
	<path class="st2" d="M262.9,462.6v10.2c0,0.3-0.1,0.4-0.4,0.4h-2.8c-0.3,0-0.5-0.2-0.5-0.4v-15.7c0-0.2,0.1-0.4,0.4-0.4h2.8
		c0.3,0,0.4,0.2,0.4,0.4v2c1-1.5,2.7-2.7,5-2.7c3.1,0,4.9,2.3,4.9,5.6v10.8c0,0.3-0.2,0.4-0.4,0.4h-2.9c-0.3,0-0.5-0.2-0.5-0.4
		v-10.2c0-1.8-0.8-2.9-2.5-2.9C264.8,459.8,263.5,460.9,262.9,462.6z"/>
	<path class="st2" d="M289.6,461.8v11c0,0.3-0.1,0.4-0.4,0.4h-2.6c-0.3,0-0.4-0.2-0.4-0.4v-2c-1,1.7-2.7,2.7-4.7,2.7
		c-3.1,0-5.1-2-5.1-5s2-4.7,6.3-5c1.2-0.1,2.3-0.1,3.4,0V462c0-1.9-1-2.6-2.7-2.6s-2.3,0.6-2.8,1.8c-0.1,0.3-0.2,0.4-0.6,0.3
		l-2.6-0.7c-0.3-0.1-0.4-0.2-0.3-0.5c0.5-2.3,2.6-4,6.4-4C287.2,456.4,289.6,458.2,289.6,461.8z M285.9,467.9v-2c-1,0-2.1,0-3.1,0.1
		c-1.9,0.2-3.1,0.9-3.1,2.4c0,1.3,0.9,2.2,2.5,2.2C284,470.6,285.3,469.6,285.9,467.9z"/>
	<path class="st2" d="M297.7,450.8v22c0,0.3-0.1,0.4-0.4,0.4h-2.8c-0.3,0-0.5-0.2-0.5-0.4v-22c0-0.3,0.1-0.4,0.5-0.4h2.8
		C297.6,450.4,297.7,450.5,297.7,450.8z"/>
</g>
<g class="st1">
	<path class="st2" d="M324.8,458.1v1.4c0,4.2-2.4,6.8-7.2,6.8h-3.2v6.5c0,0.3-0.1,0.4-0.4,0.4h-3c-0.3,0-0.4-0.2-0.4-0.4v-21.1
		c0-0.2,0.2-0.4,0.4-0.4h6.7C322.4,451.3,324.8,454,324.8,458.1z M314.4,454.8v8.1h2.9c2.7,0,3.6-1.2,3.6-3.6v-0.9
		c0-2.3-0.9-3.6-3.6-3.6H314.4z"/>
</g>
<g class="st1">
	<path class="st2" d="M337.5,456.9v2.6c0,0.3-0.1,0.4-0.5,0.4h-0.4c-2.4,0-3.9,1.2-4.5,3.1v9.8c0,0.3-0.2,0.4-0.4,0.4h-3
		c-0.2,0-0.4-0.1-0.4-0.4V457c0-0.3,0.2-0.4,0.4-0.4h2.7c0.3,0,0.4,0.2,0.4,0.4v2.3c0.8-1.5,2.4-3,4.9-3
		C337.4,456.5,337.5,456.6,337.5,456.9z"/>
</g>
<g class="st1">
	<path class="st2" d="M353.7,463v3.9c0,3.9-2.3,6.7-7,6.7s-7-2.7-7-6.6v-3.9c0-3.9,2.3-6.8,7-6.8C351.5,456.4,353.7,459.2,353.7,463
		z M343.4,463.2v3.6c0,2.2,1.1,3.5,3.3,3.5c2.2,0,3.3-1.3,3.3-3.5v-3.6c0-2.2-1.1-3.6-3.3-3.6S343.4,461,343.4,463.2z"/>
</g>
<g class="st1">
	<path class="st2" d="M362.3,453v3.8h3.3c0.2,0,0.4,0.2,0.4,0.5v2.2c0,0.3-0.1,0.4-0.4,0.4h-3.3v8.3c0,1.2,0.7,1.8,2,1.8h1.3
		c0.3,0,0.4,0.1,0.4,0.4v2.4c0,0.3-0.1,0.4-0.4,0.4h-1.9c-3.4,0-5-1.8-5-4.6v-8.8h-2.1c-0.3,0-0.4-0.1-0.4-0.4v-2.2
		c0-0.3,0.1-0.5,0.4-0.5h2.1V453c0-0.2,0.1-0.4,0.4-0.4h2.8C362.2,452.6,362.3,452.8,362.3,453z"/>
</g>
<g class="st1">
	<path class="st2" d="M383.1,463v3.9c0,3.9-2.3,6.7-7,6.7s-7-2.7-7-6.6v-3.9c0-3.9,2.3-6.8,7-6.8C380.8,456.4,383.1,459.2,383.1,463
		z M372.8,463.2v3.6c0,2.2,1.1,3.5,3.3,3.5c2.2,0,3.3-1.3,3.3-3.5v-3.6c0-2.2-1.1-3.6-3.3-3.6S372.8,461,372.8,463.2z"/>
</g>
<g class="st1">
	<path class="st2" d="M391.7,453v3.8h3.3c0.2,0,0.4,0.2,0.4,0.5v2.2c0,0.3-0.1,0.4-0.4,0.4h-3.3v8.3c0,1.2,0.7,1.8,2,1.8h1.3
		c0.3,0,0.4,0.1,0.4,0.4v2.4c0,0.3-0.1,0.4-0.4,0.4h-1.9c-3.4,0-5-1.8-5-4.6v-8.8H386c-0.3,0-0.4-0.1-0.4-0.4v-2.2
		c0-0.3,0.1-0.5,0.4-0.5h2.1V453c0-0.2,0.1-0.4,0.4-0.4h2.8C391.6,452.6,391.7,452.8,391.7,453z"/>
	<path class="st2" d="M412.5,457.3l-5.6,15.3c-1.2,3.2-2.7,5.6-4.9,7c-0.3,0.2-0.5,0.3-0.9,0l-1.6-1.7c-0.2-0.2-0.2-0.6,0.1-0.8
		c1.8-1.2,2.9-2.3,3.7-4.8l-5.9-15c-0.1-0.3,0.1-0.5,0.4-0.5h3.1c0.3,0,0.5,0.1,0.5,0.4l1.9,5.5c0.8,2.4,1.4,4.1,1.8,6h0.1
		c0.5-2.3,1-3.7,1.8-6l1.8-5.6c0.1-0.2,0.3-0.4,0.5-0.4h2.8C412.4,456.7,412.6,456.9,412.5,457.3z"/>
	<path class="st2" d="M415.9,479.3c-0.2,0-0.4-0.2-0.4-0.4v-21.8c0-0.2,0.1-0.4,0.4-0.4h2.8c0.2,0,0.4,0.2,0.4,0.4v1.7
		c0.7-1.1,2.3-2.4,4.6-2.4c3.6,0,5.8,2.5,5.8,6.4v4.4c0,3.8-2.2,6.4-5.6,6.4c-2.4,0-4-1.2-4.7-2.4v7.7c0,0.2-0.1,0.4-0.4,0.4
		L415.9,479.3L415.9,479.3z M425.8,466.6v-3.4c0-2.3-1.1-3.6-3.2-3.6c-1.9,0-3.4,1.3-3.4,3.6v3.4c0,2.4,1.5,3.7,3.4,3.7
		C424.7,470.3,425.8,469,425.8,466.6z"/>
	<path class="st2" d="M436.7,466.1v1c0,2.1,1.1,3.5,3.5,3.5c2.2,0,2.9-0.9,3.5-2c0.2-0.4,0.4-0.5,0.8-0.3l1.9,1
		c0.4,0.2,0.5,0.5,0.3,0.8c-1,2.2-3.3,3.5-6.4,3.5c-4.6,0-7-2.7-7-6.6v-4.1c0-3.8,2.3-6.6,7-6.6c4.4,0,6.7,2.8,6.7,6.5v2.5
		c0,0.5-0.2,0.7-0.8,0.7h-9.5V466.1z M436.7,462.8v0.9h6.7v-0.9c0-2-1.1-3.4-3.3-3.4S436.7,460.8,436.7,462.8z"/>
</g>
<g class="st1">
	<path class="st2" d="M473.3,458.1v1.4c0,4.2-2.4,6.8-7.2,6.8h-3.2v6.5c0,0.3-0.1,0.4-0.4,0.4h-3c-0.3,0-0.4-0.2-0.4-0.4v-21.1
		c0-0.2,0.2-0.4,0.4-0.4h6.7C470.9,451.3,473.3,454,473.3,458.1z M462.9,454.8v8.1h2.9c2.7,0,3.6-1.2,3.6-3.6v-0.9
		c0-2.3-0.9-3.6-3.6-3.6H462.9z"/>
</g>
<g class="st1">
	<path class="st2" d="M486,456.9v2.6c0,0.3-0.1,0.4-0.5,0.4h-0.4c-2.4,0-3.9,1.2-4.5,3.1v9.8c0,0.3-0.2,0.4-0.4,0.4h-3
		c-0.2,0-0.4-0.1-0.4-0.4V457c0-0.3,0.2-0.4,0.4-0.4h2.7c0.3,0,0.4,0.2,0.4,0.4v2.3c0.8-1.5,2.4-3,4.9-3
		C485.9,456.5,486,456.6,486,456.9z"/>
	<path class="st2" d="M492.7,450.9v2.9c0,0.4-0.2,0.5-0.5,0.5h-2.6c-0.4,0-0.6-0.2-0.6-0.5v-2.9c0-0.3,0.2-0.5,0.6-0.5h2.6
		C492.6,450.4,492.7,450.6,492.7,450.9z M492.7,457.1v15.7c0,0.3-0.1,0.4-0.4,0.4h-2.8c-0.3,0-0.5-0.2-0.5-0.4v-15.7
		c0-0.3,0.2-0.4,0.5-0.4h2.8C492.6,456.7,492.7,456.9,492.7,457.1z"/>
</g>
<g class="st1">
	<path class="st2" d="M501,462.6v10.2c0,0.3-0.2,0.4-0.4,0.4h-2.8c-0.3,0-0.5-0.2-0.5-0.4v-15.7c0-0.2,0.1-0.4,0.4-0.4h2.8
		c0.3,0,0.4,0.2,0.4,0.4v2c1-1.5,2.7-2.7,5-2.7c3.1,0,4.9,2.3,4.9,5.6v10.8c0,0.3-0.1,0.4-0.4,0.4h-2.8c-0.3,0-0.5-0.2-0.5-0.4
		v-10.2c0-1.8-0.8-2.9-2.5-2.9C503,459.8,501.6,460.9,501,462.6z"/>
</g>
<g class="st1">
	<path class="st2" d="M519.8,453v3.8h3.3c0.2,0,0.4,0.2,0.4,0.5v2.2c0,0.3-0.1,0.4-0.4,0.4h-3.3v8.3c0,1.2,0.7,1.8,2,1.8h1.3
		c0.3,0,0.4,0.1,0.4,0.4v2.4c0,0.3-0.1,0.4-0.4,0.4h-1.9c-3.4,0-5-1.8-5-4.6v-8.8h-2.1c-0.3,0-0.4-0.1-0.4-0.4v-2.2
		c0-0.3,0.2-0.5,0.4-0.5h2.1V453c0-0.2,0.1-0.4,0.4-0.4h2.8C519.7,452.6,519.8,452.8,519.8,453z"/>
	<path class="st2" d="M530.1,466.1v1c0,2.1,1.1,3.5,3.5,3.5c2.2,0,2.9-0.9,3.5-2c0.2-0.4,0.4-0.5,0.8-0.3l1.9,1
		c0.4,0.2,0.5,0.5,0.3,0.8c-1,2.2-3.3,3.5-6.4,3.5c-4.6,0-7-2.7-7-6.6v-4.1c0-3.8,2.3-6.6,7-6.6c4.4,0,6.7,2.8,6.7,6.5v2.5
		c0,0.5-0.2,0.7-0.8,0.7h-9.5V466.1z M530.1,462.8v0.9h6.7v-0.9c0-2-1.1-3.4-3.3-3.4S530.1,460.8,530.1,462.8z"/>
	<path class="st2" d="M543.7,467.3v-4.4c0-3.8,2.3-6.4,5.6-6.4c2.4,0,4,1.3,4.7,2.4v-8c0-0.2,0.1-0.4,0.4-0.4h2.9
		c0.2,0,0.4,0.2,0.4,0.4V473c0,0.2-0.1,0.4-0.4,0.4h-2.8c-0.2,0-0.4-0.2-0.4-0.4v-1.7c-0.7,1.2-2.3,2.4-4.7,2.4
		C545.9,473.6,543.7,471.1,543.7,467.3z M554,466.7v-3.4c0-2.3-1.5-3.7-3.4-3.7c-2.1,0-3.2,1.4-3.2,3.7v3.4c0,2.3,1.1,3.6,3.2,3.6
		C552.5,470.3,554,469.1,554,466.7z"/>
</g>
<path class="st3" d="M397.1,562.2c6.9-0.3,13.9,0.3,20.7,1.7c2.4,0.4,4.7,1.3,6.8,2.6c7.4,5,14.9,9.8,21.3,16.1
	c11.1,11,18.6,25.1,21.4,40.4c6.2,31.9-1.9,60.4-21.9,85.6c-2,2.6-4.6,4.5-7.1,6.6c-1.3,1.1-2.5,0.8-3.4-0.6c-0.5-0.8-0.8-1.7-1-2.6
	c-0.4-2.8-0.5-5.6-0.3-8.4c0.1-2.4,1.2-4.8,3-6.4c5.7-5.6,11.2-11.4,15.3-18.3c5.3-9,7.6-19.1,8.2-29.5c1.1-18-2.9-34.4-13.7-49.1
	c-8.6-11.7-19.6-19.4-34-22.4c-8-1.6-16-1.4-24-1c-15.8,0.8-29.3,6.9-39.5,19.1c-8.9,10.6-15,22.7-16.5,36.7
	c-1.6,14.9-0.7,29.4,5.9,43.1c3.7,7.6,9.2,14,15.3,19.6c5.6,5.1,5.3,11,4.3,17.3c-0.6,3.4-2.5,3.9-5.1,1.8
	c-10.3-8.3-16.3-19.5-21.6-31.2c-7.6-16.4-9.8-33.7-8-51.5c1.1-11.3,4.8-21.8,10.1-32c6.5-12.6,16.6-21.3,27.8-29.3
	c5.8-4.1,11.7-7,18.8-7.8C385.6,562.3,391.4,562.1,397.1,562.2z"/>
<path class="st3" d="M312.6,237c4.9,0.2,7.9-21.9,12.8-21.8c6.2,0.2,8,36.7,12.3,36.8c5.6,0.1,9-61.1,14.1-61.1
	c5.9,0,9.2,80.4,13.7,80.3c5.1,0,6.8-101.7,11.4-101.7c5,0,9.2,117.6,14.6,117.5c4.5,0,6.2-79.8,11.8-79.9c4.5,0,7.3,50.9,12.3,50.8
	c5.7-0.1,8.2-67.5,13.2-67.5c4.6,0,7.7,58.6,12.8,58.5c3.9,0,5.3-34.3,11.8-34.6c5.2-0.3,8.7,20.8,14.1,20.5
	c6.1-0.3,7.8-26.9,11.8-26.9"/>
<polygon class="st4" points="312.6,185 312.6,279.5 396,326.8 479.4,279.5 479.4,185 396,137.7 "/>
</svg>
