<?xml version="1.0" encoding="utf-8"?>
<!-- Generator: Adobe Illustrator 24.1.1, SVG Export Plug-In . SVG Version: 6.00 Build 0)  -->
<svg version="1.1" id="Layer_1" xmlns="http://www.w3.org/2000/svg" xmlns:xlink="http://www.w3.org/1999/xlink" x="0px" y="0px"
	 viewBox="0 0 1008 576" style="enable-background:new 0 0 1008 576;" xml:space="preserve">
<style type="text/css">
	.st0{fill:#2E3442;}
	.st1{fill:#C7DDE3;}
	.st2{fill:#E2AC42;}
	.st3{fill:#303543;}
	.st4{fill:#D9A828;stroke:#C7DDE3;stroke-width:13;stroke-miterlimit:10;}
	.st5{fill:#FADB8C;}
</style>
<rect class="st0" width="1008" height="576"/>
<path class="st1" d="M418.2,408.6c0.1,14-7,22.6-21.6,35.8L378.4,461h39.3c1,0,1.8,0.7,1.8,1.7c0,0.1,0,0.2,0,0.3v11.6
	c0.1,0.9-0.5,1.7-1.4,1.8c-0.1,0-0.2,0-0.4,0h-57.1c-1.1,0.2-2.1-0.6-2.3-1.7l-1.9-10.2c-0.3-1.2-0.1-2.5,0.6-3.5l26.2-24.4
	c14.7-14,18.4-19.1,18.4-27c-0.1-8.8-5.8-14-14.3-14c-8.9,0-13.2,5-15.5,12.8c-0.1,1-1,1.7-2,1.6c-0.2,0-0.5-0.1-0.7-0.2l-11-3.2
	c-1.1-0.3-1.8-1.4-1.5-2.5c0-0.1,0.1-0.2,0.1-0.3c3.8-13.8,12.9-23.4,31-23.4C406.6,380.3,418.1,391.9,418.2,408.6z"/>
<path class="st1" d="M580.1,462.7v11.8c0,1-0.7,1.8-1.7,1.8l0,0h-55.8c-1,0-1.7-0.8-1.7-1.8l0,0v-11.8c0-1,0.7-1.8,1.7-1.8l0,0H543
	v-60.3l-20.3,8c-1.2,0.4-2.1,0.1-2.5-1.2l-4.1-10.6c-0.4-1.2-0.3-2.1,0.9-2.6l27.8-11.4c1.3-0.7,2.7-1.1,4.1-1.2h8.4
	c0.9-0.1,1.7,0.4,1.8,1.3c0,0.2,0,0.3,0,0.5V461h19.3C579.3,461,580.1,461.8,580.1,462.7z"/>
<path class="st1" d="M596.3,464.1c-0.8-0.8-0.8-2.2,0-3c0.1-0.1,0.2-0.2,0.3-0.3l7.6-6.3c1.2-0.9,2.2-0.8,3.2,0.5
	c3.6,4.7,8,7.5,15.8,7.5c12.9,0,17.5-7.5,17.5-16.8v-11.9h-0.1c-3.6,5.7-10.6,9.3-19,9.3c-15.9,0-27-10.6-27-28v-5.6
	c0-17.5,11-29.2,30.6-29.2c21.2-0.1,31.5,13.4,31.5,31.5l-0.1,31.8c0,20-10.2,33.9-32.5,33.9C611.7,477.5,602.7,472.6,596.3,464.1z
	 M640.8,413.7v-3c0-10.9-6.2-15.8-15.1-15.8c-9.6,0-15,4.9-15,15.3v3.6c0,10.3,5.4,15.3,14.6,15.4S640.8,424.1,640.8,413.7z"/>
<path class="st2" d="M579.3,149.5v11.4c0,33.8-19.4,55.1-58,55.1H495v53c0,2.2-1.2,3.4-3.7,3.4h-24c-2.4,0-3.4-1.2-3.4-3.4V97.7
	c-0.1-1.7,1.3-3.1,3-3.2c0.1,0,0.1,0,0.2,0H521C559.9,94.6,579.3,116.7,579.3,149.5z M495,122.5v65.3h23.8c21.9,0,29.4-10,29.4-29.2
	v-7c0-18.7-7.5-29.1-29.4-29.1L495,122.5z"/>
<path class="st2" d="M643.7,178.8h28.4c20.2,0,28.2-9.5,28.2-26v-4.4c0-16-8-26-28.2-26h-28.4V178.8z M734.3,272.4h-26.7
	c-2.7,0-3.7-1-4.9-3.2l-34.3-63.4h-24.8V269c0,2.2-1.2,3.4-3.7,3.4h-24c-2.4,0-3.4-1.2-3.4-3.4V98c0-2.2,1-3.4,3.4-3.4h58.5
	c38.1,0,56.8,21.6,56.8,52.2v6.3c0,23.3-10.9,41-32.1,48.6l37.4,66.5C737.9,269.9,737.2,272.4,734.3,272.4L734.3,272.4z"/>
<polygon class="st3" points="315.6,199.3 321.9,178.7 338.2,183.1 329.2,212.4 308.6,204.2 "/>
<path class="st2" d="M383,199.7l-6.5-21.1c-4.9-16.5-10.7-37.2-14.1-52.2h-1c-3.4,15.3-9.2,35.7-14.6,52.7l-6.3,20.7L383,199.7
	L383,199.7z M433.8,272.4h-25c-2.4,0-3.4-1-4.1-3.2l-12.9-41.3h-60l-12.9,41.3c-0.6,2-2.5,3.3-4.6,3.2H291c-2.2,0-3.2-1.7-2.4-3.9
	L342,98c0.5-2.4,2.2-3.4,4.4-3.4h30.8c2.9,0,4.1,1,4.9,3.4l54.2,170.5C437,270.7,435.7,272.4,433.8,272.4L433.8,272.4z"/>
<path class="st1" d="M467.3,419.7c-1.5,1.9-3,3.8-4.4,5.7c-2.1,2.5-4.2,4.9-6.3,7.3c-0.4,0.3-0.7,0.6-0.9,1
	c-0.9,0.9-1.8,1.8-2.7,2.8c-2.4,2.2-4.8,4.4-7.3,6.4c-1.7,1.2-3.5,2.5-5.3,3.6l-1.7,1c-1.5,0.7-3,1.4-4.5,1.9s-3.1,0.7-4.7,0.9
	c-2.2,0.2-4.4-0.4-6.2-1.8l-0.9-1.1c-1.2-2.3-0.8-4.7,0-7c0.3-0.9,0.8-1.8,1.2-2.7c0.3-0.4,0.5-0.8,0.7-1.2
	c3.7-5.8,8.8-10,14.3-13.8c2-1.4,4-2.6,6.1-3.8c0.2-0.1,0.3-0.2,0.4-0.3c0.4-0.2,0.8-0.4,1.1-0.6c2.3-1.3,4.6-2.3,6.9-3.5l3.6-1.6
	l1.8-0.7c-0.6-0.8-1.2-1.7-1.7-2.7c-0.7-1.8-1-3.7-1-5.7c0.2-1.4,0.5-2.8,1-4.2c0.2-0.4,0.4-0.8,0.7-1.2c0.6-1.1,1.4-2,2.3-2.9
	c0.1-0.1,0.5-0.2,0.1-0.4c-1.1-0.8-2.2-1.5-3.3-2.2c-1.3-0.5-2.8-0.5-4.2,0c-1,0.3-1.9,0.6-2.8,0.8c-1.1,0.4-2.4-0.2-2.8-1.3
	c0-0.1-0.1-0.2-0.2-0.3V392l-0.1-0.2c-0.4-1-0.5-2.1-0.3-3.1c0.5-1.6,1.8-2.7,3.4-3.1c2.3-0.6,4.8-0.6,7.1,0.1c0.1,0,0.2,0,0.3,0
	c0,0,0.1,0.1,0.2,0.1c3.5,1.1,6.7,3,9.3,5.6c0.5,0.4,0.9,0.8,1.5,0.6c0.5,0,1,0,1.5,0.1c0.3,0.1,0.4-0.1,0.5-0.3
	c2.1-2.1,4.6-3.8,7.3-5c0.6-0.3,1.3-0.5,1.9-0.8c1.8-0.6,3.6-0.8,5.5-0.8c2.1,0.2,4,0.7,5.4,2.4c0.7,1.4,0.8,3.1,0.1,4.5l0,0
	c-0.1,0.1-0.1,0.2-0.2,0.3c-0.4,1.1-1.7,1.7-2.8,1.3c-1.3-0.3-2.4-0.8-3.7-1.1c-1.5-0.4-3.1-0.1-4.3,0.8l-2.5,1.7
	c1,0.9,1.8,1.9,2.5,3.1c0.6,1.2,1.1,2.5,1.4,3.9c0.1,0.5,0.1,1.1,0.2,1.6c0.1,2-0.3,4-1.1,5.8c-0.5,1-1.2,1.9-1.9,2.8
	c0.5,0.2,1,0.4,1.4,0.6l5.5,2.5l5.3,2.8c0.4,0.2,0.7,0.5,1.1,0.7c1.8,1,3.5,2.1,5.2,3.2s3.2,2.3,4.7,3.4l0,0
	c0.2,0.1,0.3,0.3,0.4,0.4c2.7,2.2,5.2,4.6,7.4,7.3c2.1,2.5,3.7,5.4,4.6,8.6c0.6,1.9,0.4,3.9-0.4,5.7c-0.3,0.5-0.7,0.9-1.1,1.3
	c-1.9,1.3-4.2,1.9-6.5,1.5c-1.5-0.2-3-0.5-4.5-1c-1.6-0.6-3.1-1.3-4.6-2.1l-2.1-1.3c-1.4-0.9-2.8-1.9-4.1-2.8
	c-1.9-1.6-3.9-3.2-5.7-5l-1.9-1.8l-3.5-3.7c-2.2-2.5-4.4-5.1-6.5-7.7c-1.5-2-3.1-3.9-4.5-6C467.5,419.2,467.3,419.4,467.3,419.7z"/>
<path class="st1" d="M478.6,454.1l-10.3-0.1h-1l-11.1-0.1H452h-0.1c-0.6,0.1-0.7-0.2-0.9-0.7c-0.4-1.1-0.9-2.2-1.2-3.3
	c-0.2-0.8-0.3-1.7-0.3-2.5c0.6-1.8,1.5-3.4,2.8-4.8c1.3-1.5,2.7-2.8,4.2-4.1l2.3-1.9c0.9-0.7,1.8-1.4,2.6-2.2
	c2.2-1.8,4.3-3.9,6.1-6.1c0.8,0.7,1.4,1.6,2.2,2.4c2,2.1,4.2,4.1,6.5,5.9l2.4,2c1.1,1.1,2.3,2,3.3,3.2c1.2,1.3,2.2,2.7,3,4.2
	c0.2,0.5,0.4,1.1,0.5,1.7c0,0.7-0.1,1.4-0.2,2.1c-0.3,1.3-1,2.5-1.4,3.8c-0.1,0.3-0.3,0.4-0.6,0.4
	C481.6,454.1,480.1,454.1,478.6,454.1z"/>
<path class="st1" d="M456.3,459.5c2.1,0,4.2,0,6.2,0.1h4.9c0.8,0,1.7,0,2.5,0h8.6h2.7c0.3,0,0.4,0,0.3,0.4c-2,4.7-3.8,9.4-6.7,13.6
	c-1.1,1.9-2.8,3.4-4.8,4.3c-0.6,0.2-1.3,0.4-2,0.5c-2.3,0.1-4.5-0.8-6-2.5c-0.8-1-1.6-2-2.3-3.1c-0.7-1-1.3-2.1-2-3.1
	c-0.4-0.8-0.8-1.6-1.3-2.4c0-0.2-0.1-0.4-0.2-0.5c-1-2.3-1.9-4.6-2.9-6.8c-0.2-0.4-0.1-0.5,0.3-0.5
	C454.5,459.5,455.4,459.5,456.3,459.5z"/>
<line class="st4" x1="0" y1="196.3" x2="1008" y2="196.3"/>
<path class="st5" d="M563.8,149.5v11.4c0,33.8-19.4,55.1-58,55.1h-26.2v53c0,2.2-1.2,3.4-3.6,3.4h-24c-2.4,0-3.4-1.2-3.4-3.4V97.7
	c-0.1-1.7,1.3-3.1,3-3.2c0.1,0,0.1,0,0.2,0h53.9C544.4,94.6,563.8,116.7,563.8,149.5z M479.6,122.5v65.3h23.8
	c21.9,0,29.4-10,29.4-29.2v-7c0-18.7-7.5-29.1-29.4-29.1L479.6,122.5z"/>
<path class="st5" d="M718.8,272.4h-26.7c-2.7,0-3.7-1-4.9-3.2L653,205.8h-24.8V269c0,2.2-1.2,3.4-3.7,3.4h-24.1
	c-2.4,0-3.4-1.2-3.4-3.4V98c0-2.2,1-3.4,3.4-3.4H659c38.1,0,56.8,21.6,56.8,52.2v6.3c0,23.3-10.9,41-32.1,48.6l37.4,66.5
	C722.5,269.9,721.7,272.4,718.8,272.4z M628.2,178.8h28.4c20.2,0,28.2-9.5,28.2-26v-4.4c0-16-8-26-28.2-26h-28.4V178.8z"/>
<path class="st5" d="M418.4,272.4h-25c-2.4,0-3.4-1-4.1-3.2l-12.9-41.3h-60l-12.9,41.3c-0.6,2-2.5,3.3-4.6,3.2h-23.3
	c-2.2,0-3.2-1.7-2.4-3.9L326.5,98c0.5-2.4,2.2-3.4,4.4-3.4h30.8c2.9,0,4.1,1,4.9,3.4l54.2,170.5
	C421.5,270.7,420.3,272.4,418.4,272.4z M367.6,199.7l-6.6-21.1c-4.9-16.5-10.7-37.2-14.1-52.2h-1c-3.4,15.3-9.2,35.7-14.6,52.7
	l-6.3,20.6H367.6z"/>
</svg>
