<?xml version="1.0" encoding="utf-8"?>
<!-- Generator: Adobe Illustrator 24.1.1, SVG Export Plug-In . SVG Version: 6.00 Build 0)  -->
<svg version="1.1" id="Layer_1" xmlns="http://www.w3.org/2000/svg" xmlns:xlink="http://www.w3.org/1999/xlink" x="0px" y="0px"
	 viewBox="0 0 1008 576" style="enable-background:new 0 0 1008 576;" xml:space="preserve">
<style type="text/css">
	.st0{fill:#FFFEFF;}
	.st1{fill:#2F3443;}
	.st2{fill:#2E3442;}
	.st3{enable-background:new    ;}
	.st4{fill:#93A4A9;}
	.st5{fill:#C7DDE3;stroke:#E2AC42;stroke-width:13;stroke-miterlimit:10;}
</style>
<rect class="st0" width="1008" height="576"/>
<rect x="275.5" y="172.1" class="st1" width="56.4" height="35.1"/>
<rect x="383.3" y="174" class="st1" width="56.4" height="35.1"/>
<path class="st2" d="M459.5,417.1c-1.5,1.9-3,3.8-4.4,5.7c-2.1,2.5-4.2,4.9-6.3,7.3c-0.4,0.3-0.7,0.6-0.9,1
	c-0.9,0.9-1.8,1.8-2.7,2.8c-2.4,2.2-4.8,4.4-7.3,6.4c-1.7,1.2-3.5,2.5-5.3,3.6l-1.7,1c-1.5,0.7-3,1.4-4.5,1.9s-3.1,0.8-4.7,0.9
	c-2.2,0.2-4.4-0.4-6.2-1.8l-0.9-1.1c-1.2-2.3-0.8-4.7,0-7c0.3-0.9,0.8-1.8,1.2-2.7c0.3-0.4,0.5-0.8,0.7-1.2
	c3.7-5.8,8.8-10,14.3-13.8c2-1.4,4-2.6,6.1-3.8c0.1-0.1,0.3-0.2,0.4-0.3c0.4-0.2,0.8-0.4,1.2-0.6c2.3-1.3,4.6-2.3,6.9-3.5l3.6-1.6
	l1.8-0.7c-0.6-0.8-1.2-1.7-1.7-2.7c-0.7-1.8-1.1-3.7-1-5.7c0.2-1.4,0.5-2.8,1-4.2c0.2-0.4,0.4-0.8,0.6-1.2c0.6-1.1,1.4-2,2.3-2.9
	c0.1-0.1,0.5-0.2,0.1-0.4c-1.1-0.8-2.2-1.5-3.3-2.2c-1.3-0.5-2.8-0.5-4.2,0c-1,0.3-1.9,0.6-2.8,0.8c-1.1,0.4-2.4-0.2-2.8-1.3
	c-0.1-0.1-0.1-0.2-0.2-0.3v-0.1l-0.1-0.2c-0.4-1-0.5-2.1-0.3-3.1c0.5-1.6,1.8-2.7,3.4-3.1c2.3-0.6,4.8-0.6,7.1,0.1h0.3
	c0,0,0.1,0.1,0.2,0.1c3.5,1.1,6.7,3,9.3,5.6c0.5,0.4,0.9,0.8,1.5,0.6c0.5,0,1,0,1.5,0.1c0.3,0.1,0.4-0.1,0.5-0.3
	c2.1-2.1,4.6-3.8,7.3-5c0.6-0.3,1.3-0.5,1.9-0.7c1.8-0.6,3.6-0.8,5.5-0.8c2.1,0.2,4,0.7,5.4,2.4c0.7,1.4,0.8,3.1,0.1,4.5l0,0
	l-0.2,0.3c-0.4,1.1-1.7,1.7-2.8,1.3c-1.3-0.3-2.4-0.8-3.7-1.1c-1.5-0.4-3.1-0.2-4.3,0.8l-2.5,1.7c1,0.9,1.8,1.9,2.5,3.1
	c0.6,1.2,1.1,2.5,1.4,3.9c0.1,0.5,0.1,1.1,0.2,1.6c0.1,2-0.3,4-1.1,5.8c-0.5,1-1.1,1.9-1.8,2.8c0.5,0.2,1,0.4,1.4,0.6
	c1.8,0.8,3.7,1.7,5.5,2.6l5.3,2.8c0.4,0.2,0.7,0.5,1.1,0.7c1.8,1,3.5,2.1,5.2,3.2s3.2,2.3,4.7,3.4l0,0l0.4,0.4
	c2.7,2.2,5.2,4.6,7.4,7.3c2.1,2.5,3.7,5.4,4.6,8.6c0.6,1.9,0.4,3.9-0.4,5.7c-0.3,0.5-0.7,0.9-1.1,1.3c-1.9,1.3-4.2,1.8-6.5,1.5
	c-1.5-0.2-3-0.5-4.5-1c-1.6-0.6-3.1-1.3-4.6-2.1l-2.1-1.3c-1.4-0.9-2.8-1.9-4.1-2.8c-1.9-1.6-3.9-3.2-5.7-5
	c-0.6-0.6-1.3-1.2-1.9-1.8l-3.5-3.7c-2.2-2.5-4.4-5.1-6.5-7.7c-1.5-2-3.1-3.9-4.5-6C459.7,416.7,459.6,416.9,459.5,417.1z"/>
<path class="st2" d="M470.8,451.6l-10.3-0.1h-1l-11.1-0.1h-4.3H444c-0.6,0.1-0.7-0.2-0.9-0.7c-0.4-1.1-0.9-2.2-1.2-3.4
	c-0.2-0.8-0.3-1.7-0.3-2.5c0.6-1.8,1.5-3.4,2.8-4.8c1.3-1.5,2.7-2.8,4.2-4.1l2.3-1.9c0.9-0.7,1.8-1.4,2.6-2.2
	c2.2-1.8,4.3-3.9,6.1-6.1c0.8,0.7,1.4,1.6,2.2,2.4c2,2.1,4.2,4.1,6.5,5.9l2.4,2c1.1,1.1,2.3,2.1,3.3,3.2c1.2,1.3,2.2,2.7,3,4.2
	c0.3,0.5,0.4,1.1,0.5,1.7c0,0.7-0.1,1.3-0.2,2c-0.3,1.3-1,2.5-1.4,3.8c-0.1,0.3-0.3,0.4-0.6,0.4
	C473.8,451.6,472.3,451.6,470.8,451.6z"/>
<path class="st2" d="M448.4,456.9c2.1,0,4.2,0.1,6.2,0.1c1.6,0,3.2,0,4.9,0c0.8,0,1.7,0,2.5,0h8.6c0.9,0,1.8,0,2.7,0
	c0.3,0,0.4,0,0.3,0.4c-2,4.7-3.8,9.4-6.7,13.6c-1.1,1.9-2.8,3.4-4.8,4.3c-0.6,0.2-1.3,0.4-2,0.5c-2.3,0.1-4.5-0.8-6-2.5
	c-0.8-1-1.6-2-2.3-3.1c-0.7-1-1.3-2.1-2-3.1c-0.4-0.8-0.8-1.6-1.3-2.4c0-0.2-0.1-0.4-0.2-0.5c-1-2.3-1.9-4.6-2.9-6.8
	c-0.2-0.4-0.1-0.5,0.4-0.5C446.7,457,447.5,456.9,448.4,456.9z"/>
<path class="st2" d="M409.5,407.4c0.1,14.3-7.1,23.1-22.1,36.6l-18.6,16.9H409c1-0.1,1.8,0.7,1.9,1.7c0,0.1,0,0.2,0,0.3v11.9
	c0.1,0.9-0.6,1.8-1.5,1.9c-0.1,0-0.2,0-0.4,0h-58.5c-1.1,0.2-2.2-0.6-2.4-1.7l-2-10.4c-0.3-1.2-0.1-2.5,0.7-3.6l26.8-25
	c15.1-14.3,18.8-19.6,18.8-27.6c-0.1-9-6-14.3-14.7-14.3c-9.1,0-13.5,5.2-15.9,13.1c-0.1,1-1,1.8-2.1,1.7c-0.3,0-0.5-0.1-0.7-0.2
	l-11.2-3.3c-1.1-0.3-1.8-1.4-1.6-2.6c0-0.1,0.1-0.2,0.1-0.4c3.8-14.1,13.2-23.9,31.7-23.9C397.6,378.4,409.4,390.3,409.5,407.4z"/>
<path class="st2" d="M571.9,407.4c0.1,14.3-7.1,23.1-22.1,36.6l-18.6,16.9h40.2c1-0.1,1.8,0.7,1.9,1.7c0,0.1,0,0.2,0,0.3v11.9
	c0.1,0.9-0.6,1.7-1.5,1.8c-0.1,0-0.3,0-0.4,0H513c-1.1,0.2-2.2-0.6-2.4-1.7l-2-10.4c-0.3-1.2-0.1-2.5,0.7-3.6l26.8-25
	c15.1-14.3,18.8-19.6,18.8-27.6c-0.1-9-6-14.3-14.7-14.3c-9.1,0-13.5,5.2-15.9,13.1c-0.1,1-1,1.8-2.1,1.7c-0.3,0-0.5-0.1-0.7-0.2
	l-11.2-3.3c-1.1-0.3-1.8-1.4-1.6-2.6c0-0.1,0.1-0.2,0.1-0.3c3.8-14.1,13.2-23.9,31.7-23.9C560,378.4,571.7,390.3,571.9,407.4z"/>
<path class="st2" d="M590,446.3v-36c0-19.7,12.3-31.9,32.3-31.9c20.2,0,32.3,13,32.3,31.9v36c0,18.9-11.9,31.9-32.4,31.9
	C602.4,478.1,590,466,590,446.3z M637.6,445.7v-34.9c0-11.4-6-16.8-15.3-16.8s-15.3,5.3-15.3,16.8v34.9c0,11.4,6.1,16.8,15.5,16.8
	S637.6,457.2,637.6,445.7L637.6,445.7z"/>
<g class="st3">
	<path class="st4" d="M438.2,98.7v170.6c0,2.2-1,3.4-3.4,3.4h-22c-2,0-3.2-1.2-3.2-3.4v-96.6c0-13.7,1-34.9,2-48.3h-1l-39,144
		c-0.7,2.9-2.2,4.4-5.4,4.4h-21c-3.2,0-4.6-1.7-5.4-4.4l-39.5-144h-0.7c1,13.2,2.2,34.6,2.2,48.3v96.6c0,2.2-1.2,3.4-3.4,3.4h-21.7
		c-2,0-3.2-1.5-3.2-3.4V98.7c0-2.9,1.5-4.6,4.6-4.6h35.6c3.2,0,4.9,1.5,5.6,4.4l24.2,87.8c5.4,20.5,9.3,34.6,12.4,52.5h0.7
		c3.2-17.8,6.6-32.2,12.2-52.7L393,98.7c0.7-3.2,2.4-4.6,5.4-4.6h35.1C436.4,94.1,438.2,95.8,438.2,98.7z"/>
	<path class="st4" d="M612.4,272.7h-25.1c-2.4,0-3.4-1-4.1-3.2l-13-41.5h-60.3L497,269.5c-0.7,2.2-2.4,3.2-4.6,3.2H469
		c-2.2,0-3.2-1.7-2.4-3.9l53.7-171.3c0.5-2.4,2.2-3.4,4.4-3.4h31c2.9,0,4.1,1,4.9,3.4L615,268.8C615.5,271,614.3,272.7,612.4,272.7z
		 M561.4,199.7l-6.6-21.2c-4.9-16.6-10.7-37.3-14.2-52.5h-1c-3.4,15.4-9.3,35.9-14.6,52.9l-6.3,20.7h42.7V199.7z"/>
	<path class="st4" d="M764.9,272.7H738c-2.7,0-3.7-1-4.9-3.2l-34.4-63.7h-24.9v63.4c0,2.2-1.2,3.4-3.7,3.4H646
		c-2.4,0-3.4-1.2-3.4-3.4V97.5c0-2.2,1-3.4,3.4-3.4h58.8c38.3,0,57.1,21.7,57.1,52.5v6.3c0,23.4-11,41.2-32.2,48.8l37.6,66.9
		C768.5,270.2,767.8,272.7,764.9,272.7z M673.9,178.7h28.5c20.3,0,28.3-9.5,28.3-26.1v-4.4c0-16.1-8.1-26.1-28.3-26.1h-28.5V178.7z"
		/>
</g>
<line class="st5" x1="0" y1="196.3" x2="1008" y2="196.3"/>
<g class="st3">
	<path class="st2" d="M416.8,98.7v170.6c0,2.2-1,3.4-3.4,3.4h-22c-2,0-3.2-1.2-3.2-3.4v-96.6c0-13.7,1-34.9,2-48.3h-1l-39,144
		c-0.7,2.9-2.2,4.4-5.4,4.4h-21c-3.2,0-4.6-1.7-5.4-4.4l-39.5-144h-0.7c1,13.2,2.2,34.6,2.2,48.3v96.6c0,2.2-1.2,3.4-3.4,3.4h-21.7
		c-2,0-3.2-1.5-3.2-3.4V98.7c0-2.9,1.5-4.6,4.6-4.6h35.6c3.2,0,4.9,1.5,5.6,4.4l24.2,87.8c5.4,20.5,9.3,34.6,12.4,52.5h0.7
		c3.2-17.8,6.6-32.2,12.2-52.7l24.2-87.4c0.7-3.2,2.4-4.6,5.4-4.6h35.1C415.1,94.1,416.8,95.8,416.8,98.7z"/>
	<path class="st2" d="M591,272.7h-25.1c-2.4,0-3.4-1-4.1-3.2l-13-41.5h-60.3l-12.9,41.5c-0.7,2.2-2.4,3.2-4.6,3.2h-23.4
		c-2.2,0-3.2-1.7-2.4-3.9l53.7-171.3c0.5-2.4,2.2-3.4,4.4-3.4h31c2.9,0,4.1,1,4.9,3.4l54.4,171.3C594.2,271,593,272.7,591,272.7z
		 M540.1,199.7l-6.6-21.2c-4.9-16.6-10.7-37.3-14.2-52.5h-1c-3.4,15.4-9.3,35.9-14.6,52.9l-6.3,20.7h42.7V199.7z"/>
	<path class="st2" d="M743.5,272.7h-26.8c-2.7,0-3.7-1-4.9-3.2l-34.4-63.7h-24.9v63.4c0,2.2-1.2,3.4-3.7,3.4h-24.2
		c-2.4,0-3.4-1.2-3.4-3.4V97.5c0-2.2,1-3.4,3.4-3.4h58.8c38.3,0,57.1,21.7,57.1,52.5v6.3c0,23.4-11,41.2-32.2,48.8l37.6,66.9
		C747.2,270.2,746.5,272.7,743.5,272.7z M652.5,178.7H681c20.3,0,28.3-9.5,28.3-26.1v-4.4c0-16.1-8.1-26.1-28.3-26.1h-28.5V178.7z"
		/>
</g>
</svg>
