<?xml version="1.0" encoding="utf-8"?>
<!-- Generator: Adobe Illustrator 24.1.1, SVG Export Plug-In . SVG Version: 6.00 Build 0)  -->
<svg version="1.1" id="Layer_1" xmlns="http://www.w3.org/2000/svg" xmlns:xlink="http://www.w3.org/1999/xlink" x="0px" y="0px"
	 viewBox="0 0 1008 576" style="enable-background:new 0 0 1008 576;" xml:space="preserve">
<style type="text/css">
	.st0{fill:#2E3442;}
	.st1{fill:#C7DDE3;}
	.st2{enable-background:new    ;}
	.st3{fill:#E2AC42;}
	.st4{fill:#D9A828;stroke:#C7DDE3;stroke-width:13;stroke-miterlimit:10;}
	.st5{fill:#FADB8C;}
</style>
<rect class="st0" width="1008" height="576"/>
<path class="st1" d="M418.2,408.6c0.1,14-7,22.6-21.6,35.8L378.4,461h39.3c1-0.1,1.8,0.7,1.8,1.6c0,0.1,0,0.2,0,0.3v11.6
	c0.1,0.9-0.5,1.7-1.4,1.8c-0.1,0-0.3,0-0.4,0h-57.2c-1.1,0.2-2.1-0.6-2.3-1.7l-1.9-10.2c-0.3-1.2-0.1-2.5,0.6-3.5l26.2-24.4
	c14.7-14,18.4-19.1,18.4-27c-0.1-8.8-5.8-14-14.3-14c-8.9,0-13.2,5-15.5,12.8c-0.1,1-1,1.7-2,1.6c-0.2,0-0.5-0.1-0.7-0.2l-11-3.2
	c-1.1-0.3-1.8-1.4-1.5-2.5c0-0.1,0.1-0.2,0.1-0.3c3.8-13.8,12.9-23.4,31-23.4C406.6,380.3,418.1,391.9,418.2,408.6z"/>
<path class="st1" d="M580.1,462.8v11.8c0,1-0.7,1.8-1.7,1.8l0,0h-55.8c-1,0-1.7-0.8-1.7-1.8l0,0v-11.8c0-1,0.7-1.8,1.7-1.8l0,0H543
	v-60.4l-20.3,8c-0.8,0.4-1.8,0.1-2.3-0.7c-0.1-0.2-0.1-0.3-0.2-0.5l-4.1-10.6c-0.4-1.2-0.3-2.1,0.9-2.6l27.8-11.4
	c1.3-0.7,2.7-1.1,4.1-1.2h8.4c0.9-0.1,1.7,0.4,1.8,1.3c0,0.2,0,0.3,0,0.5v77.4h19.3C579.4,461,580.1,461.8,580.1,462.8L580.1,462.8z
	"/>
<path class="st1" d="M596.4,464.1c-0.8-0.8-0.8-2.1,0-2.9c0.1-0.1,0.2-0.2,0.4-0.3l7.6-6.3c1.2-0.9,2.2-0.8,3.2,0.5
	c3.6,4.7,8,7.5,15.8,7.5c12.9,0,17.5-7.5,17.5-16.8V434h-0.1c-3.6,5.7-10.6,9.3-19,9.3c-15.9,0-27-10.6-27-28v-5.6
	c0-17.4,11-29.2,30.6-29.2c21.2-0.1,31.5,13.4,31.5,31.5l-0.1,31.8c0,20-10.2,33.9-32.4,33.9C611.7,477.5,602.7,472.6,596.4,464.1z
	 M640.8,413.8v-3c0-10.8-6.2-15.8-15.1-15.8c-9.6,0-15,4.9-15,15.3v3.6c0,10.3,5.4,15.3,14.6,15.4S640.8,424.1,640.8,413.8
	L640.8,413.8z"/>
<path class="st1" d="M467.3,419.7c-1.5,1.9-3,3.8-4.4,5.7c-2.1,2.5-4.2,4.9-6.3,7.3c-0.4,0.3-0.7,0.6-0.9,1
	c-0.9,0.9-1.8,1.8-2.7,2.8c-2.4,2.2-4.8,4.4-7.3,6.4c-1.7,1.3-3.5,2.5-5.3,3.6l-1.7,1c-1.5,0.7-3,1.4-4.5,1.9s-3.1,0.7-4.7,0.9
	c-2.2,0.2-4.4-0.4-6.2-1.8l-0.9-1.1c-1.2-2.3-0.8-4.7,0-7c0.3-0.9,0.8-1.8,1.1-2.7c0.3-0.4,0.5-0.8,0.7-1.2
	c3.7-5.8,8.8-10,14.3-13.8c2-1.4,4-2.6,6.1-3.8c0.2-0.1,0.3-0.2,0.4-0.3c0.4-0.2,0.8-0.4,1.2-0.6c2.3-1.3,4.6-2.3,6.9-3.5l3.5-1.5
	l1.8-0.7c-0.6-0.8-1.2-1.7-1.7-2.7c-0.7-1.8-1.1-3.7-1-5.7c0.2-1.4,0.5-2.8,1-4.2l0.6-1.2c0.6-1.1,1.4-2,2.3-2.9
	c0.1-0.1,0.5-0.2,0.1-0.4c-1.1-0.8-2.2-1.5-3.3-2.2c-1.3-0.5-2.8-0.5-4.2,0c-1,0.3-1.9,0.6-2.8,0.8c-1.1,0.4-2.4-0.2-2.8-1.3
	c0-0.1-0.1-0.2-0.2-0.3v-0.1l-0.1-0.2c-0.4-1-0.5-2.1-0.3-3.1c0.5-1.6,1.8-2.7,3.4-3.1c2.3-0.6,4.8-0.6,7.1,0.1c0.1,0,0.2,0,0.3,0
	c0,0,0.1,0.1,0.2,0.1c3.5,1.1,6.7,3,9.3,5.6c0.5,0.4,0.9,0.8,1.5,0.6c0.5,0,1,0,1.5,0.1c0.3,0.1,0.4-0.1,0.5-0.3
	c2.1-2.1,4.6-3.8,7.3-5c0.6-0.3,1.3-0.5,1.9-0.8c1.8-0.6,3.6-0.8,5.5-0.8c2.1,0.2,4,0.7,5.4,2.4c0.7,1.4,0.8,3.1,0.1,4.5l0,0
	l-0.2,0.3c-0.4,1.1-1.7,1.7-2.8,1.3c-1.3-0.3-2.4-0.8-3.7-1.1c-1.5-0.4-3.1-0.1-4.3,0.8l-2.5,1.7c1,0.9,1.8,1.9,2.5,3.1
	c0.6,1.2,1.1,2.5,1.4,3.9c0.1,0.5,0.1,1.1,0.2,1.6c0.1,2-0.3,4-1.1,5.8c-0.5,1-1.1,1.9-1.8,2.8c0.5,0.2,1,0.4,1.4,0.6
	c1.8,0.8,3.7,1.7,5.5,2.6l5.3,2.8c0.4,0.2,0.7,0.5,1.1,0.7c1.8,1,3.5,2.1,5.2,3.3s3.2,2.3,4.7,3.4l0,0c0.1,0.1,0.3,0.3,0.4,0.4
	c2.7,2.2,5.2,4.6,7.4,7.3c2.1,2.5,3.7,5.4,4.6,8.6c0.6,1.9,0.4,3.9-0.4,5.7c-0.3,0.5-0.7,0.9-1.1,1.3c-1.9,1.3-4.2,1.8-6.5,1.5
	c-1.5-0.2-3-0.5-4.5-1c-1.6-0.6-3.1-1.3-4.6-2.1l-2.1-1.3c-1.4-0.9-2.8-1.9-4.1-2.8c-1.9-1.6-3.9-3.2-5.7-5l-1.9-1.8l-3.5-3.7
	c-2.2-2.5-4.4-5.1-6.5-7.7c-1.5-2-3-3.9-4.5-5.9C467.5,419.3,467.4,419.5,467.3,419.7z"/>
<path class="st1" d="M478.6,454.1l-10.3-0.1h-1l-11.1-0.1H452h-0.1c-0.6,0.1-0.7-0.2-0.9-0.7c-0.4-1.1-0.9-2.2-1.2-3.4
	c-0.2-0.8-0.3-1.7-0.3-2.5c0.6-1.8,1.5-3.4,2.8-4.8c1.3-1.5,2.7-2.8,4.2-4.1l2.3-1.9c0.9-0.7,1.8-1.4,2.6-2.2
	c2.2-1.8,4.3-3.9,6.1-6.1c0.8,0.7,1.4,1.6,2.2,2.4c2,2.1,4.2,4.1,6.5,5.9l2.4,2c1.1,1.1,2.3,2.1,3.3,3.2c1.2,1.3,2.2,2.7,3,4.2
	c0.3,0.5,0.4,1.1,0.5,1.7c0,0.7-0.1,1.3-0.2,2c-0.3,1.3-1,2.5-1.4,3.8c-0.1,0.3-0.3,0.4-0.6,0.4
	C481.6,454.1,480.1,454.1,478.6,454.1z"/>
<path class="st1" d="M456.3,459.5l6.2,0.1c1.6,0,3.2,0,4.9,0h2.5h8.6c0.9,0,1.8,0,2.7,0c0.3,0,0.4,0,0.3,0.4
	c-2,4.7-3.8,9.4-6.7,13.6c-1.1,1.9-2.8,3.4-4.8,4.3c-0.6,0.2-1.3,0.4-2,0.5c-2.3,0.1-4.5-0.8-6-2.5c-0.8-1-1.6-2-2.3-3.1
	c-0.7-1-1.3-2.1-2-3.1c-0.4-0.8-0.8-1.6-1.3-2.4c0-0.2-0.1-0.4-0.2-0.5c-1-2.3-1.9-4.6-2.9-6.8c-0.2-0.4-0.1-0.5,0.4-0.5
	C454.6,459.5,455.4,459.5,456.3,459.5z"/>
<g class="st2">
	<path class="st3" d="M430.6,173.2v47.1c0,38.6-23.2,66.1-70.3,66.1h-55.4c-2.4,0-3.4-1.2-3.4-3.4V111.2c0-2.2,1-3.4,3.4-3.4h55.4
		C407.4,107.8,430.6,135.4,430.6,173.2z M332.7,136.8v120.5h27.1c27.8,0,39.5-13.9,39.5-37.8v-44.9c0-23.9-11.7-37.8-39.5-37.8
		L332.7,136.8L332.7,136.8z"/>
</g>
<g class="st2">
	<path class="st3" d="M574,111.2v21.2c0,2.4-1.2,3.4-3.4,3.4h-70.3V182h63.2c2.2,0,3.4,1.2,3.4,3.4v20.3c0,2.4-1.2,3.4-3.4,3.4
		h-63.2v49.3h70.5c2.2,0,3.4,1,3.4,3.4V283c0,2.4-1.2,3.4-3.4,3.4h-98.3c-2.4,0-3.4-1.2-3.4-3.4V111.2c0-2.2,1-3.4,3.4-3.4h98.1
		C572.8,107.8,574,109,574,111.2z"/>
</g>
<g class="st2">
	<path class="st3" d="M729.7,149c1,2.9,0,4.9-2.4,5.6l-20.7,6.3c-2.9,0.7-4.4,0-5.1-2.9c-4.9-14.2-12.7-24.2-31.7-24.2
		c-22.7,0-33.2,14.2-33.2,38.1v50.3c0,23.9,11.2,38.1,33.2,38.1c20,0,29-11,32.9-26.1c0.7-2.9,2.4-3.9,5.1-2.9l20.7,6.8
		c2.4,0.7,3.4,2.4,2.7,5.6c-6.8,26.1-25.6,45.4-61.7,45.4c-41,0-64.2-25.9-64.2-65.4v-53.2c0-39.5,23.4-65.4,64.2-65.4
		C704.6,105.1,722.4,123.2,729.7,149z"/>
</g>
<line class="st4" x1="0" y1="196.3" x2="1008" y2="196.3"/>
<g class="st2">
	<path class="st5" d="M413.3,172.6v47.1c0,38.6-23.2,66.1-70.3,66.1h-55.4c-2.4,0-3.4-1.2-3.4-3.4V110.6c0-2.2,1-3.4,3.4-3.4H343
		C390.1,107.2,413.3,134.8,413.3,172.6z M315.4,136.3v120.5h27.1c27.8,0,39.5-13.9,39.5-37.8v-44.9c0-23.9-11.7-37.8-39.5-37.8
		L315.4,136.3L315.4,136.3z"/>
</g>
<g class="st2">
	<path class="st5" d="M556.8,110.6v21.2c0,2.4-1.2,3.4-3.4,3.4h-70.3v46.1h63.2c2.2,0,3.4,1.2,3.4,3.4V205c0,2.4-1.2,3.4-3.4,3.4
		h-63.2v49.3h70.5c2.2,0,3.4,1,3.4,3.4v21.2c0,2.4-1.2,3.4-3.4,3.4h-98.3c-2.4,0-3.4-1.2-3.4-3.4V110.6c0-2.2,1-3.4,3.4-3.4h98.1
		C555.5,107.2,556.8,108.4,556.8,110.6z"/>
</g>
<g class="st2">
	<path class="st5" d="M712.4,148.5c1,2.9,0,4.9-2.4,5.6l-20.7,6.3c-2.9,0.7-4.4,0-5.1-2.9c-4.9-14.2-12.7-24.2-31.7-24.2
		c-22.7,0-33.2,14.2-33.2,38.1v50.3c0,23.9,11.2,38.1,33.2,38.1c20,0,29-11,32.9-26.1c0.7-2.9,2.4-3.9,5.1-2.9l20.7,6.8
		c2.4,0.7,3.4,2.4,2.7,5.6c-6.8,26.1-25.6,45.4-61.7,45.4c-41,0-64.2-25.9-64.2-65.4V170c0-39.5,23.4-65.4,64.2-65.4
		C687.3,104.5,705.1,122.6,712.4,148.5z"/>
</g>
</svg>
