<?xml version="1.0" encoding="utf-8"?>
<!-- Generator: Adobe Illustrator 24.1.1, SVG Export Plug-In . SVG Version: 6.00 Build 0)  -->
<svg version="1.1" id="Layer_1" xmlns="http://www.w3.org/2000/svg" xmlns:xlink="http://www.w3.org/1999/xlink" x="0px" y="0px"
	 viewBox="0 0 1008 576" style="enable-background:new 0 0 1008 576;" xml:space="preserve">
<style type="text/css">
	.st0{fill:#2E3442;}
	.st1{fill:#C7DDE3;}
	.st2{fill:#FADB8C;}
	.st3{enable-background:new    ;}
	.st4{fill:#E2AC42;}
	.st5{fill:#D9A828;stroke:#C7DDE3;stroke-width:13;stroke-miterlimit:10;}
</style>
<rect class="st0" width="1008" height="576"/>
<path class="st1" d="M418.2,408.6c0.1,14-7,22.6-21.6,35.8L378.4,461h39.3c1-0.1,1.8,0.7,1.8,1.6c0,0.1,0,0.2,0,0.3v11.6
	c0.1,0.9-0.5,1.7-1.4,1.8c-0.1,0-0.3,0-0.4,0h-57.1c-1.1,0.2-2.1-0.6-2.3-1.7l-1.9-10.2c-0.3-1.2-0.1-2.5,0.6-3.5l26.2-24.4
	c14.7-14,18.3-19.1,18.3-27c-0.1-8.8-5.8-14-14.3-14c-8.9,0-13.2,5-15.5,12.8c-0.1,1-1,1.7-2,1.6c-0.2,0-0.5-0.1-0.7-0.2l-11-3.2
	c-1.1-0.3-1.8-1.4-1.5-2.5c0-0.1,0.1-0.2,0.1-0.3c3.8-13.8,12.9-23.4,31-23.4C406.6,380.3,418.1,391.9,418.2,408.6z"/>
<path class="st1" d="M580.1,462.8v11.7c0,1-0.7,1.8-1.7,1.8l0,0h-55.8c-1,0-1.7-0.8-1.7-1.8l0,0v-11.8c0-1,0.7-1.8,1.7-1.8l0,0H543
	v-60.4l-20.3,8c-0.8,0.4-1.8,0.1-2.3-0.7c-0.1-0.2-0.1-0.3-0.2-0.5l-4.1-10.6c-0.4-1.2-0.3-2.1,0.9-2.6l27.8-11.4
	c1.3-0.7,2.7-1.1,4.1-1.2h8.4c0.9-0.1,1.7,0.4,1.8,1.3c0,0.2,0,0.3,0,0.5v77.4h19.3C579.3,460.9,580.1,461.7,580.1,462.8
	C580.1,462.7,580.1,462.8,580.1,462.8z"/>
<path class="st1" d="M596.4,464.1c-0.8-0.8-0.8-2.1,0-2.9c0.1-0.1,0.2-0.2,0.4-0.3l7.6-6.3c1.2-0.9,2.2-0.8,3.2,0.5
	c3.6,4.7,8,7.5,15.8,7.5c12.9,0,17.5-7.5,17.5-16.8v-11.9h-0.1c-3.6,5.7-10.6,9.3-19,9.3c-15.9,0-27-10.6-27-28v-5.6
	c0-17.4,11-29.2,30.6-29.2c21.2-0.1,31.5,13.4,31.5,31.5l-0.1,31.8c0,20-10.2,33.9-32.4,33.9C611.7,477.5,602.7,472.6,596.4,464.1z
	 M640.8,413.8v-3c0-10.8-6.2-15.8-15.1-15.8c-9.6,0-15,4.9-15,15.3v3.6c0,10.3,5.4,15.3,14.6,15.4S640.8,424.1,640.8,413.8z"/>
<polygon class="st2" points="370.4,187.6 338.4,187.6 336,211.7 381.4,211.7 "/>
<path class="st1" d="M467.3,419.7l-4.4,5.7c-2.1,2.5-4.2,4.9-6.3,7.3c-0.4,0.3-0.7,0.6-0.9,1c-0.9,0.9-1.8,1.8-2.7,2.8
	c-2.4,2.2-4.8,4.4-7.3,6.4c-1.7,1.2-3.5,2.5-5.3,3.6l-1.7,1c-1.5,0.7-3,1.4-4.5,1.9s-3.1,0.7-4.7,0.9c-2.2,0.2-4.4-0.4-6.2-1.8
	l-0.9-1.1c-1.2-2.3-0.8-4.7,0-7c0.3-0.9,0.8-1.8,1.1-2.7c0.3-0.4,0.5-0.8,0.7-1.2c3.7-5.8,8.8-10,14.3-13.8c2-1.4,4-2.6,6.1-3.8
	c0.2-0.1,0.3-0.2,0.4-0.3c0.4-0.2,0.8-0.4,1.2-0.6c2.3-1.3,4.6-2.3,6.9-3.5l3.6-1.6l1.8-0.7c-0.6-0.8-1.2-1.7-1.7-2.7
	c-0.7-1.8-1.1-3.7-1-5.7c0.2-1.4,0.5-2.8,1-4.2c0.2-0.4,0.4-0.8,0.6-1.2c0.6-1.1,1.4-2,2.3-2.9c0.1-0.1,0.5-0.2,0.1-0.4
	c-1.1-0.8-2.2-1.5-3.3-2.2c-1.3-0.5-2.8-0.5-4.2,0c-1,0.3-1.9,0.6-2.8,0.8c-1.1,0.4-2.4-0.2-2.8-1.3c-0.1-0.1-0.1-0.2-0.2-0.3V392
	l-0.1-0.2c-0.4-1-0.5-2.1-0.3-3.1c0.5-1.6,1.8-2.7,3.4-3.1c2.3-0.6,4.8-0.6,7.1,0.1c0.1,0,0.2,0,0.3,0c0,0,0.1,0.1,0.2,0.1
	c3.5,1.1,6.7,3,9.3,5.6c0.5,0.4,0.9,0.8,1.5,0.6c0.5,0,1,0,1.5,0.1c0.3,0.1,0.4-0.1,0.5-0.3c2.1-2.1,4.6-3.8,7.3-5
	c0.6-0.3,1.3-0.5,1.9-0.8c1.8-0.6,3.6-0.8,5.5-0.8c2.1,0.2,4,0.7,5.4,2.4c0.7,1.4,0.8,3.1,0.1,4.5l0,0l-0.2,0.3
	c-0.4,1.1-1.7,1.7-2.8,1.3c-1.3-0.3-2.4-0.8-3.7-1.1c-1.5-0.4-3.1-0.1-4.3,0.8l-2.5,1.7c1,0.9,1.8,1.9,2.5,3.1
	c0.6,1.2,1.1,2.5,1.4,3.9c0.1,0.5,0.1,1.1,0.2,1.6c0.1,2-0.3,4-1.1,5.8c-0.5,1-1.1,1.9-1.8,2.8c0.5,0.2,1,0.4,1.4,0.6
	c1.8,0.8,3.7,1.7,5.5,2.6l5.3,2.8c0.4,0.2,0.7,0.5,1.1,0.7c1.8,1,3.5,2.1,5.2,3.3s3.2,2.3,4.7,3.4l0,0l0.4,0.4
	c2.7,2.2,5.2,4.6,7.4,7.3c2.1,2.5,3.7,5.4,4.6,8.6c0.6,1.9,0.4,3.9-0.4,5.7c-0.3,0.5-0.7,0.9-1.1,1.3c-1.9,1.3-4.2,1.8-6.5,1.5
	c-1.5-0.2-3-0.5-4.5-1c-1.6-0.6-3.2-1.3-4.8-2.1l-2.1-1.3c-1.4-0.9-2.8-1.9-4.1-2.8c-1.9-1.6-3.9-3.2-5.7-5l-1.9-1.8l-3.5-3.7
	c-2.2-2.5-4.4-5.1-6.5-7.7c-1.5-2-3-3.9-4.5-6C467.4,419.3,467.3,419.5,467.3,419.7z"/>
<path class="st1" d="M478.6,454.1l-10.3-0.1h-1l-11.1-0.1H452h-0.1c-0.6,0.1-0.7-0.2-0.9-0.7c-0.4-1.1-0.9-2.2-1.2-3.4
	c-0.2-0.8-0.3-1.7-0.3-2.5c0.6-1.8,1.5-3.4,2.8-4.8c1.3-1.5,2.7-2.8,4.2-4.1l2.3-1.9c0.9-0.7,1.8-1.4,2.6-2.2
	c2.2-1.8,4.3-3.9,6.1-6.1c0.8,0.7,1.4,1.6,2.2,2.4c2,2.1,4.2,4.1,6.5,5.9l2.4,2c1.1,1.1,2.3,2,3.3,3.2c1.2,1.3,2.2,2.7,3,4.2
	c0.3,0.5,0.4,1.1,0.5,1.7c0,0.7-0.1,1.3-0.2,2c-0.3,1.3-1,2.5-1.4,3.8c0,0.3-0.3,0.5-0.6,0.4l0,0
	C481.6,454.1,480.1,454.1,478.6,454.1z"/>
<path class="st1" d="M456.3,459.5l6.2,0.1c1.6,0,3.2,0,4.9,0h2.5h8.6c0.9,0,1.8,0,2.7,0c0.3,0,0.4,0,0.3,0.4
	c-2,4.7-3.8,9.4-6.7,13.6c-1.1,1.9-2.8,3.4-4.8,4.3c-0.6,0.2-1.3,0.4-2,0.5c-2.3,0.1-4.5-0.8-6-2.5c-0.8-1-1.6-2-2.3-3.1
	c-0.7-1-1.3-2.1-2-3.1c-0.4-0.8-0.8-1.6-1.3-2.4c0-0.2-0.1-0.4-0.2-0.5c-1-2.3-1.9-4.6-2.9-6.8c-0.2-0.4-0.1-0.5,0.4-0.5
	C454.5,459.5,455.4,459.5,456.3,459.5z"/>
<g class="st3">
	<path class="st4" d="M385.9,110.9v125.2c0,33.2-19,52.7-50.8,52.7c-18.5,0-33.2-6.8-44.9-18.8c-2.2-2.2-2-4.6-0.5-6.3l13.4-15.4
		c2-2.2,4.4-2.9,7.1,0c5.6,6.3,12.9,11.5,23.7,11.5c12.9,0,20.7-8.1,20.7-23.2V110.9c0-2.2,1.2-3.4,3.7-3.4h24.2
		C384.9,107.5,385.9,108.7,385.9,110.9z"/>
	<path class="st4" d="M557.9,110.9v113.9c0,37.3-22.7,63.9-65.4,63.9s-65.1-25.1-65.1-63.9V110.9c0-2.2,1.2-3.4,3.4-3.4H455
		c2.7,0,3.7,1.2,3.7,3.4v112.7c0,22.7,10.5,36.4,33.9,36.4c23.4,0,34.2-13.7,34.2-36.4V110.9c0-2.2,1.2-3.4,3.4-3.4h24.2
		C556.9,107.5,557.9,108.7,557.9,110.9z"/>
	<path class="st4" d="M734.8,110.9v170.8c0,2.9-1.5,4.4-4.4,4.4h-31.7c-2.7,0-4.4-1.5-5.6-4.4l-43.2-89.8
		c-8.3-17.3-15.6-36.4-21-51.5h-0.7c1.2,15.4,2,31.2,2,47.8v94.4c0,2.2-1,3.4-3.4,3.4h-22.9c-2.4,0-3.4-1.2-3.4-3.4V111.9
		c0-2.9,1.5-4.4,4.4-4.4h33.9c2.9,0,4.4,1.5,5.6,4.4l42,89.8c7.8,17.1,14.6,35.9,20.3,50.5h0.5c-1.2-15.1-2.2-31-2.2-47.6v-93.7
		c0-2.2,1.2-3.4,3.7-3.4h22.9C733.6,107.5,734.8,108.7,734.8,110.9z"/>
</g>
<line class="st5" x1="0" y1="196.3" x2="1008" y2="196.3"/>
<g class="st3">
	<path class="st2" d="M366.2,110.9v125.2c0,33.2-19,52.7-50.8,52.7c-18.5,0-33.2-6.8-44.9-18.8c-2.2-2.2-2-4.6-0.5-6.3l13.4-15.4
		c2-2.2,4.4-2.9,7.1,0c5.6,6.3,12.9,11.5,23.7,11.5c12.9,0,20.7-8.1,20.7-23.2V110.9c0-2.2,1.2-3.4,3.7-3.4h24.2
		C365.3,107.5,366.2,108.7,366.2,110.9z"/>
	<path class="st2" d="M538.3,110.9v113.9c0,37.3-22.7,63.9-65.4,63.9s-65.1-25.1-65.1-63.9V110.9c0-2.2,1.2-3.4,3.4-3.4h24.2
		c2.7,0,3.7,1.2,3.7,3.4v112.7c0,22.7,10.5,36.4,33.9,36.4s34.2-13.7,34.2-36.4V110.9c0-2.2,1.2-3.4,3.4-3.4h24.2
		C537.3,107.5,538.3,108.7,538.3,110.9z"/>
	<path class="st2" d="M715.1,110.9v170.8c0,2.9-1.5,4.4-4.4,4.4H679c-2.7,0-4.4-1.5-5.6-4.4l-43.2-89.8c-8.3-17.3-15.6-36.4-21-51.5
		h-0.7c1.2,15.4,2,31.2,2,47.8v94.4c0,2.2-1,3.4-3.4,3.4h-22.9c-2.4,0-3.4-1.2-3.4-3.4V111.9c0-2.9,1.5-4.4,4.4-4.4H619
		c2.9,0,4.4,1.5,5.6,4.4l42,89.8c7.8,17.1,14.6,35.9,20.3,50.5h0.5c-1.2-15.1-2.2-31-2.2-47.6v-93.7c0-2.2,1.2-3.4,3.7-3.4h22.9
		C713.9,107.5,715.1,108.7,715.1,110.9z"/>
</g>
</svg>
